<svg width="246" height="92" viewBox="0 0 246 92" fill="none" xmlns="http://www.w3.org/2000/svg">
<path d="M6.05862 0.114532C6.11951 0.171796 9.55981 2.23331 13.7004 4.69568L21.2508 9.16229H28.2532H35.286L43.5671 4.69568C48.1339 2.23331 51.9091 0.171796 51.97 0.114532C52.0309 0.0572672 41.7099 2.86102e-06 29.0143 2.86102e-06C16.3186 2.86102e-06 5.99773 0.0572672 6.05862 0.114532Z" fill="#2C698D"/>
<path d="M3.59253 1.51755C3.59253 1.71798 4.07966 4.92478 4.68856 8.67559C5.32791 12.3978 5.75414 15.5473 5.66281 15.6046C5.57147 15.6905 4.26233 15.8623 2.77051 15.9768L0 16.1772L6.9415 31.295C10.7167 39.5983 13.9135 46.4414 13.9743 46.5273C14.0657 46.5846 14.8573 42.8338 15.7402 38.1381C16.6231 33.471 17.4146 29.5771 17.4755 29.4912C17.7191 29.2907 18.3585 30.1497 20.1243 33.1275L21.7074 35.7902H28.5576H35.4382L37.3563 32.6407C39.1525 29.663 39.7005 28.9758 40.005 29.2621C40.0659 29.348 40.827 33.0702 41.649 37.5368C42.5015 42.0034 43.2931 45.9547 43.4148 46.2696C43.5671 46.7564 45.272 43.3205 50.4781 31.8676C54.2533 23.6216 57.3587 16.7499 57.4196 16.6067C57.4805 16.4922 56.2932 16.3204 54.7709 16.2917C53.2791 16.2345 51.9699 16.12 51.8786 16.0341C51.7873 15.9482 52.244 12.6555 52.9137 8.73286C53.5531 4.78162 54.0402 1.54618 54.0098 1.51755C53.9489 1.46029 37.3563 11.138 36.9909 11.4243C36.8691 11.5674 37.1736 13.8294 37.6912 16.4922C38.1783 19.155 38.6045 21.5601 38.6045 21.8178C38.6045 22.3045 37.9347 22.3331 28.7098 22.3331C20.9767 22.3331 18.8151 22.2472 18.8151 21.9609C18.8456 21.7891 19.3023 19.2981 19.8503 16.4635L20.8245 11.3097L19.4545 10.4794C11.3865 5.64058 3.59253 1.23123 3.59253 1.51755Z" fill="#2C698D"/>
<path d="M23.0776 38.2812C23.0471 38.4244 22.0424 45.0957 20.8551 53.1699L18.6326 67.801L23.382 79.5115C26.0003 85.9251 28.2228 91.4511 28.375 91.7661C28.649 92.396 28.4055 92.9114 34.8903 76.8774L38.5742 67.7151L36.3821 52.9695L34.1901 38.2239L28.6186 38.138C25.5741 38.1094 23.0776 38.1667 23.0776 38.2812Z" fill="#2C698D"/>
<path d="M127.221 60.2341V68.1228C126.911 68.4965 126.433 68.9021 125.786 69.3396C125.139 69.768 124.305 70.1371 123.284 70.447C122.263 70.7569 121.028 70.9119 119.579 70.9119C118.294 70.9119 117.122 70.7022 116.065 70.283C115.008 69.8546 114.096 69.2302 113.331 68.4099C112.574 67.5896 111.991 66.587 111.581 65.4021C111.171 64.2081 110.965 62.8455 110.965 61.3142V60.0701C110.965 58.5388 111.161 57.1762 111.553 55.9822C111.954 54.7882 112.524 53.781 113.262 52.9607C114.001 52.1404 114.88 51.516 115.901 51.0876C116.922 50.6593 118.057 50.4451 119.305 50.4451C121.037 50.4451 122.459 50.7276 123.571 51.2927C124.683 51.8487 125.531 52.6235 126.114 53.6169C126.706 54.6013 127.071 55.7315 127.208 57.0076H123.229C123.129 56.3331 122.937 55.7452 122.655 55.2439C122.372 54.7426 121.967 54.3507 121.438 54.0681C120.919 53.7856 120.244 53.6443 119.415 53.6443C118.731 53.6443 118.12 53.7856 117.583 54.0681C117.054 54.3416 116.607 54.7472 116.243 55.2849C115.878 55.8227 115.6 56.488 115.409 57.281C115.217 58.074 115.122 58.9945 115.122 60.0427V61.3142C115.122 62.3533 115.222 63.2738 115.422 64.0759C115.623 64.8689 115.919 65.5388 116.311 66.0857C116.712 66.6235 117.204 67.0291 117.788 67.3025C118.371 67.5759 119.05 67.7126 119.825 67.7126C120.472 67.7126 121.01 67.658 121.438 67.5486C121.876 67.4392 122.227 67.307 122.491 67.1521C122.764 66.988 122.974 66.8331 123.12 66.6873V63.1599H119.374V60.2341H127.221ZM146.127 67.4392V70.6384H135.532V67.4392H146.127ZM136.871 50.7322V70.6384H132.77V50.7322H136.871ZM144.746 58.8396V61.9568H135.532V58.8396H144.746ZM146.114 50.7322V53.9451H135.532V50.7322H146.114ZM166.961 50.7322V70.6384H162.86L154.861 57.2947V70.6384H150.76V50.7322H154.861L162.873 64.0896V50.7322H166.961ZM177.131 50.7322V70.6384H173.043V50.7322H177.131ZM196.57 67.4392V70.6384H185.974V67.4392H196.57ZM187.314 50.7322V70.6384H183.213V50.7322H187.314ZM195.189 58.8396V61.9568H185.974V58.8396H195.189ZM196.556 50.7322V53.9451H185.974V50.7322H196.556Z" fill="#2C698D"/>
<path d="M195.181 11.242C195.181 11.4287 193.628 15.3191 191.712 19.8631C189.103 26.0254 188.31 28.2663 188.575 28.5775C189.004 29.0444 192.208 34.0552 192.208 34.2419C192.208 34.4909 194.916 38.6925 195.181 38.8481C195.313 38.9415 196.172 37.8833 197.03 36.5139C197.922 35.1445 198.814 34.0863 199.012 34.1485C199.21 34.2108 202.579 36.6073 206.477 39.4395C210.407 42.2717 213.876 44.6059 214.173 44.6059C214.635 44.6059 214.536 44.2635 213.578 42.6763C211.894 39.8129 209.417 35.5491 205.651 29.0444C205.123 28.1107 203.702 25.652 202.513 23.5978C201.357 21.5437 200.003 19.2406 199.541 18.4625C199.111 17.6845 197.988 15.7237 197.096 14.1053C195.313 10.8996 195.181 10.7129 195.181 11.242Z" fill="#2C698D"/>
<path d="M133.315 13.6385C130.607 16.1594 128.097 19.2406 127.304 21.0458C126.148 23.6601 126.908 25.9632 129.781 28.5775C132.424 31.0051 133.745 32.748 133.745 33.8062C133.745 35.3313 132.457 37.3854 130.079 39.7818L127.866 41.9916L130.211 43.1743L132.556 44.3881L135.264 41.7115C136.982 39.9997 138.369 38.3191 138.997 37.0741C141.21 32.8725 140.846 31.472 136.552 27.2081C133.976 24.656 133.415 23.9091 133.415 23.131C133.415 21.4504 134.967 19.1784 138.435 15.786L140.417 13.8875L138.798 13.016C137.94 12.518 136.916 11.9578 136.519 11.7088C135.892 11.3354 135.661 11.491 133.315 13.6385Z" fill="#2C698D"/>
<path d="M69.6666 27.7994V41.8048H72.1439H74.6211V37.1364V32.4679H77.0323H79.4435L82.8456 37.1364L86.2807 41.8048H89.3855C91.0701 41.8048 92.4573 41.7426 92.4573 41.6803C92.4573 41.5869 90.9049 39.5017 88.9892 36.9807C87.0734 34.4909 85.521 32.3123 85.521 32.1567C85.521 32.001 86.0165 31.7209 86.644 31.5342C90.9379 30.1959 93.6794 25.2473 92.4573 21.0457C91.4664 17.6222 89.5837 15.5992 86.3798 14.4476C84.6622 13.8563 83.8365 13.7941 77.0984 13.7941H69.6666V27.7994ZM84.8604 19.4896C86.4128 20.2054 87.1725 21.4815 87.1725 23.2866C87.1725 24.5315 87.0074 24.905 86.0825 25.7764C84.6292 27.1458 83.1098 27.4882 78.5187 27.4882H74.6211V23.3488C74.6211 21.0457 74.7202 19.085 74.8523 18.9605C74.9845 18.836 77.0323 18.7737 79.4105 18.836C82.6804 18.8982 83.9686 19.0539 84.8604 19.4896Z" fill="#2C698D"/>
<path d="M107.288 14.0742C104.15 14.6655 100.285 17.3732 98.5019 20.2365C94.4392 26.7413 96.5201 35.9848 102.862 39.7818C105.504 41.3691 107.585 41.8671 110.888 41.7426C113.365 41.6492 114.092 41.4936 116.074 40.591C118.353 39.5328 122.184 36.3272 122.184 35.4868C122.184 35.1134 121.127 34.0863 119.344 32.6858C118.716 32.1878 118.65 32.2189 117.494 33.6817C115.777 35.8292 113.564 36.8251 110.393 36.8251C106.858 36.8251 104.249 35.3623 102.763 32.5613C101.904 30.9429 101.541 29.0444 102.102 29.0444C102.333 29.0132 107.255 29.0444 113.068 29.0444L123.572 29.0755L123.34 27.1147C123.208 26.0565 122.845 24.3137 122.515 23.2243C120.566 16.564 114.29 12.7981 107.288 14.0742ZM113.861 19.7074C115.248 20.4544 116.635 22.0417 117.065 23.3488L117.263 24.0647H109.831C105.735 24.0647 102.366 23.9402 102.366 23.8157C102.366 22.8197 105.537 19.8008 107.321 19.1161C108.708 18.5559 112.341 18.8982 113.861 19.7074Z" fill="#2C698D"/>
<path d="M144.083 22.7264C144.281 32.499 144.546 34.273 146.395 37.2297C149.533 42.2405 156.734 43.2676 161.655 39.3772L162.646 38.5991L162.745 40.1864L162.844 41.8048H165.487H168.096V27.7994V13.7941H165.454H162.811V21.0146C162.811 24.9984 162.646 29.1066 162.481 30.1337C161.82 33.9929 159.475 36.4516 156.238 36.7629C154.19 36.9496 152.902 36.4828 151.581 35.0822C149.83 33.1837 149.599 31.7209 149.599 22.2907V13.7941H146.759H143.885L144.083 22.7264Z" fill="#2C698D"/>
<path d="M227.88 14.3854C222.397 16.0349 218.599 20.7967 218.07 26.7101C217.608 31.9699 220.548 37.5721 225.106 40.1242C229.202 42.3961 234.784 42.3961 238.912 40.093C240.3 39.3461 244.065 35.8292 244.065 35.3312C244.065 35.2067 243.239 34.4286 242.215 33.5883C240.564 32.2189 240.333 32.1255 240.035 32.5924C238.549 35.0822 235.411 36.8562 232.405 36.8874C228.079 36.9496 224.875 34.6465 223.752 30.6005L223.322 29.0444H234.189H245.056V27.5816C245.056 25.6831 244.197 22.4463 243.173 20.5478C240.333 15.1946 233.826 12.5803 227.88 14.3854ZM234.288 19.1161C235.774 19.4896 238.12 21.6059 238.681 23.0687L239.044 24.0647H231.646C223.322 24.0647 223.487 24.1269 225.337 21.8238C227.352 19.3028 230.886 18.2135 234.288 19.1161Z" fill="#2C698D"/>
<path d="M182.332 22.8821C181.903 23.9402 177.047 34.1797 174.405 39.5951C173.117 42.2406 172.126 44.4503 172.192 44.5126C172.225 44.5748 181.077 44.5748 191.812 44.5437L211.365 44.4503L205.222 39.9997C201.82 37.541 199.045 35.5803 198.979 35.6425C198.946 35.7048 198.12 36.9497 197.162 38.4436C196.205 39.9686 195.379 41.1824 195.313 41.1824C195.28 41.1824 194.289 39.7508 193.166 37.9767C192.01 36.2338 190.986 34.7399 190.854 34.6466C190.622 34.491 187.452 29.6046 186.163 27.4883C184.677 24.9984 182.86 22.1973 182.761 22.1973C182.662 22.1973 182.497 22.5086 182.332 22.8821Z" fill="#2C698D"/>
</svg>
