<svg width="698" height="698" viewBox="0 0 698 698" fill="none" xmlns="http://www.w3.org/2000/svg">
<path d="M348.93 669.312C509.496 669.312 639.661 592.105 639.661 496.864C639.661 401.624 509.496 324.416 348.93 324.416C188.364 324.416 58.1992 401.624 58.1992 496.864C58.1992 592.105 188.364 669.312 348.93 669.312Z" fill="#A8D1D1"/>
<path d="M179.149 588.205C227.112 588.205 265.994 565.754 265.994 538.06C265.994 510.366 227.112 487.916 179.149 487.916C131.185 487.916 92.3035 510.366 92.3035 538.06C92.3035 565.754 131.185 588.205 179.149 588.205Z" fill="#6A9898"/>
<path d="M462.523 616.557C459.334 616.596 456.19 615.812 453.393 614.282L220.484 479.805C218.762 478.979 217.309 477.682 216.292 476.066C215.275 474.449 214.735 472.578 214.735 470.668C214.735 468.758 215.275 466.887 216.292 465.271C217.309 463.654 218.762 462.358 220.484 461.532L361.02 380.396C363.83 378.893 366.969 378.107 370.156 378.107C373.344 378.107 376.482 378.893 379.293 380.396L612.202 514.859C615.859 516.967 620.452 518.977 620.452 524.003C620.452 529.028 615.859 530.983 612.202 533.132L471.667 614.24C468.868 615.785 465.719 616.583 462.523 616.557Z" fill="#6A9898"/>
<path d="M578.628 467.492L561.415 457.567C561.415 457.567 555.831 430.708 559.6 403.765C565.924 357.851 590.857 350.982 600.378 354.235C609.898 357.488 612.704 368.544 597.013 391.243C587.716 404.631 576.436 432.509 578.628 467.492Z" fill="#37474F"/>
<path d="M567.809 452.485H567.921C568.143 452.451 568.343 452.331 568.479 452.151C568.615 451.971 568.675 451.746 568.647 451.522C563.635 416.176 577.721 377.381 593.649 361.704C593.727 361.626 593.789 361.533 593.831 361.432C593.874 361.33 593.895 361.221 593.895 361.11C593.895 361 593.874 360.891 593.831 360.789C593.789 360.687 593.727 360.595 593.649 360.517C593.572 360.437 593.48 360.374 593.378 360.33C593.276 360.287 593.166 360.265 593.056 360.265C592.945 360.265 592.835 360.287 592.733 360.33C592.631 360.374 592.539 360.437 592.462 360.517C576.241 376.473 561.876 415.91 566.957 451.774C566.988 451.976 567.092 452.16 567.248 452.291C567.405 452.422 567.605 452.491 567.809 452.485Z" fill="white"/>
<path d="M610.527 485.808C612.453 486.771 617.507 482.388 618.903 481.327C621.345 479.473 623.268 477.021 624.487 474.207C625.836 471.016 626.163 467.485 625.422 464.1C625.029 462.312 624.511 460.553 623.872 458.837L622.155 453.7C621.457 452.068 621.106 450.309 621.122 448.535C621.373 444.961 624.389 442.323 627.125 440.033C630.154 437.492 633.281 434.198 633.03 429.94C632.638 426.653 631.165 423.588 628.842 421.229C626.678 418.758 624.138 416.608 622.141 413.984C620.598 412.16 619.717 409.867 619.642 407.478C619.767 406.014 620.185 404.59 620.871 403.29C622.267 400.498 624.068 397.79 624.947 394.761C625.827 391.732 625.478 388.018 623.049 386.008C621.038 384.361 618.191 384.277 615.622 384.612C613.212 385.046 610.926 385.999 608.921 387.404C602.374 391.522 598.94 399.745 591.918 403.011C589.21 404.282 586.194 404.686 583.346 405.608C580.499 406.529 577.637 408.149 576.436 410.899C573.826 416.915 579.996 422.653 575.627 428.502C574.231 430.317 572.513 431.783 571.076 433.514C567.013 438.428 565.212 443.579 566.357 451.55C566.75 454.422 567.765 457.173 569.329 459.613C570.894 462.053 572.971 464.122 575.417 465.678C575.417 465.678 610.233 485.64 610.527 485.808Z" fill="#455A64"/>
<path d="M591.904 476.148C592.128 476.126 592.334 476.018 592.478 475.845C592.621 475.673 592.691 475.45 592.672 475.226C589.489 441.876 603.267 404.128 614.156 392.793C614.243 392.714 614.313 392.618 614.362 392.512C614.41 392.405 614.436 392.289 614.438 392.172C614.439 392.055 614.417 391.939 614.371 391.831C614.326 391.722 614.259 391.625 614.174 391.544C614.089 391.463 613.989 391.4 613.879 391.36C613.769 391.32 613.651 391.303 613.534 391.31C613.417 391.317 613.303 391.348 613.199 391.402C613.094 391.455 613.002 391.529 612.928 391.62C601.83 403.179 587.8 441.555 590.997 475.38C591.005 475.49 591.036 475.597 591.086 475.696C591.137 475.794 591.206 475.881 591.29 475.953C591.375 476.024 591.472 476.078 591.578 476.111C591.683 476.145 591.794 476.157 591.904 476.148Z" fill="white"/>
<path d="M595.073 434.994H595.324C603.129 432.39 611.194 430.644 619.377 429.787C619.598 429.762 619.801 429.652 619.942 429.479C620.083 429.307 620.151 429.087 620.131 428.865C620.124 428.754 620.095 428.646 620.045 428.547C619.995 428.448 619.926 428.36 619.841 428.288C619.756 428.216 619.658 428.162 619.552 428.13C619.446 428.097 619.334 428.086 619.224 428.097C610.894 428.974 602.684 430.753 594.738 433.402C594.53 433.483 594.362 433.643 594.271 433.847C594.179 434.05 594.172 434.282 594.249 434.491C594.316 434.651 594.432 434.785 594.58 434.876C594.728 434.966 594.9 435.007 595.073 434.994Z" fill="white"/>
<path d="M134.156 514.203L145.058 510.28C146.318 497.182 146.07 483.982 144.318 470.941C139.893 441.653 118.66 416.734 100.512 413.216C77.115 408.721 80.6888 430.457 93.8531 440.159C114.849 455.64 130.931 478.828 134.156 514.203Z" fill="#BAE8E8"/>
<g opacity="0.2">
<path d="M134.156 514.203L145.058 510.28C146.318 497.182 146.07 483.982 144.318 470.941C139.893 441.653 118.66 416.734 100.512 413.216C77.115 408.721 80.6888 430.457 93.8531 440.159C114.849 455.64 130.931 478.828 134.156 514.203Z" fill="black"/>
</g>
<path d="M139.502 512.849H139.377C139.212 512.814 139.056 512.747 138.917 512.651C138.779 512.556 138.661 512.434 138.57 512.292C138.479 512.15 138.417 511.992 138.388 511.827C138.359 511.661 138.363 511.491 138.399 511.327C144.249 484.524 123.462 433.947 94.2021 418.94C93.8985 418.784 93.6691 418.514 93.5644 418.19C93.4597 417.865 93.4882 417.512 93.6437 417.209C93.7992 416.905 94.0689 416.676 94.3936 416.571C94.7182 416.466 95.0711 416.495 95.3747 416.65C125.528 432.118 146.929 484.258 140.898 511.871C140.825 512.177 140.643 512.445 140.386 512.625C140.128 512.805 139.814 512.884 139.502 512.849Z" fill="white"/>
<path d="M141.122 511.69C141.652 508.521 141.973 503.858 142.071 502.714C142.434 498.667 141.959 494.59 140.675 490.736C138.978 485.638 135.582 481.277 131.056 478.381C128.6 476.86 125.71 475.729 124.076 473.3C122.68 471.206 122.68 468.581 122.443 466.11C122.066 462.062 120.922 457.734 117.767 455.222C114.612 452.709 110.242 452.43 106.222 452.793C100.428 453.239 95.0536 453.868 89.679 451.076C85.4335 448.676 81.0414 446.545 76.5287 444.696C70.8191 442.546 57.9619 439.349 55.0164 447.376C54.6782 448.488 54.5917 449.661 54.7632 450.81C54.9346 451.96 55.3597 453.056 56.0075 454.021C57.3143 455.94 58.9054 457.648 60.726 459.089L69.5348 466.864C70.5894 467.682 71.492 468.679 72.2011 469.81C73.8763 472.853 72.5222 476.622 72.8154 480.084C73.0183 481.849 73.6029 483.549 74.5286 485.065C75.4543 486.582 76.6989 487.878 78.176 488.865C81.1404 490.832 84.6614 491.787 88.2132 491.587C92.9317 491.406 100.777 488 103.458 493.654C104.212 495.568 104.627 497.599 104.686 499.656C104.749 501.722 105.366 503.733 106.473 505.478C108.288 507.879 111.526 508.647 114.514 509.037C118.702 509.596 123.002 509.749 126.882 511.397C128.474 512.067 129.437 514.189 130.345 515.585C133.29 514.552 136.557 513.463 141.122 511.69Z" fill="#BAE8E8"/>
<path d="M135.97 514.649C135.752 514.628 135.543 514.546 135.368 514.413C135.193 514.28 135.058 514.101 134.979 513.896C124.314 485.71 98.9485 463.179 63.5599 450.447C63.2732 450.337 63.0411 450.12 62.9133 449.84C62.7855 449.561 62.7723 449.243 62.8765 448.954C62.9806 448.666 63.1939 448.429 63.4705 448.296C63.747 448.163 64.0648 448.143 64.3556 448.242C100.4 461.21 126.254 484.231 137.171 513.072C137.276 513.363 137.263 513.683 137.135 513.965C137.008 514.246 136.775 514.467 136.487 514.58C136.321 514.635 136.145 514.659 135.97 514.649Z" fill="white"/>
<path d="M459.41 602.918L226.501 468.442C224.814 467.342 223.41 465.86 222.403 464.116C221.397 462.372 220.816 460.415 220.708 458.405V427.874C220.816 425.863 221.397 423.906 222.403 422.162C223.41 420.418 224.814 418.936 226.501 417.837L367.036 336.701C368.83 335.786 370.816 335.308 372.83 335.308C374.844 335.308 376.829 335.786 378.623 336.701L611.532 471.164C613.219 472.263 614.623 473.745 615.629 475.489C616.636 477.233 617.217 479.19 617.325 481.201V511.732C617.217 513.743 616.636 515.699 615.629 517.444C614.623 519.188 613.219 520.67 611.532 521.769L470.996 602.918C469.201 603.827 467.216 604.301 465.203 604.301C463.19 604.301 461.206 603.827 459.41 602.918Z" fill="#BAE8E8"/>
<path opacity="0.2" d="M617.325 481.201V511.746C617.216 513.754 616.634 515.709 615.628 517.45C614.621 519.192 613.218 520.672 611.532 521.769L470.996 602.905C469.217 603.859 467.222 604.339 465.203 604.301V560.382C467.221 560.416 469.215 559.936 470.996 558.986L611.532 477.851C614.533 476.12 614.729 473.398 612.118 471.541C613.644 472.669 614.901 474.119 615.801 475.789C616.702 477.459 617.222 479.307 617.325 481.201Z" fill="black"/>
<path opacity="0.1" d="M465.203 560.382V604.3C463.184 604.341 461.189 603.86 459.41 602.904L226.501 468.442C224.813 467.346 223.409 465.867 222.402 464.125C221.395 462.383 220.815 460.428 220.708 458.418V427.86C220.816 425.969 221.338 424.125 222.238 422.458C223.138 420.791 224.393 419.342 225.915 418.214C223.318 420.07 223.528 422.793 226.501 424.524L459.424 559C461.202 559.943 463.191 560.418 465.203 560.382Z" fill="black"/>
<path d="M611.532 477.851L470.996 559C469.201 559.909 467.216 560.383 465.203 560.383C463.19 560.383 461.206 559.909 459.41 559L226.501 424.524C223.304 422.681 223.304 419.679 226.501 417.837L367.036 336.701C368.83 335.786 370.816 335.308 372.83 335.308C374.844 335.308 376.829 335.786 378.623 336.701L611.532 471.164C614.729 473.007 614.729 476.036 611.532 477.851Z" fill="#BAE8E8"/>
<path d="M311.406 474.403C308.349 472.63 305.501 472.56 303.183 473.914C302.402 474.361 299.149 476.204 298.311 476.706C295.785 478.27 293.928 481.564 293.202 486.255C292.375 484.99 291.379 483.844 290.242 482.848L291.08 482.374C292.755 481.397 293.551 478.94 293.551 475.631C293.551 467.562 289.81 462.676 285.063 459.94L276.52 455.096L272.513 457.399V452.779L266.231 449.163L261.541 451.871V461.643L255.217 442.769L248.935 439.154L244.3 441.806V446.385C241.899 438.498 237.46 431.671 232.364 428.726C231.19 427.917 229.82 427.439 228.398 427.343C226.975 427.247 225.553 427.537 224.281 428.181L224.1 428.279L219.507 430.917C217.12 432.09 213.77 436.32 213.77 445.408C213.77 457.79 219.521 470.717 227.73 475.422C230.898 477.251 233.732 477.348 236.008 476.022C236.79 475.561 239.833 473.802 240.587 473.384C242.279 472.356 243.599 470.815 244.356 468.986V484.258L250.638 487.874L255.328 485.166V475.394L261.541 494.184L267.823 497.8L271.829 495.496V500.117L282.285 506.148C284.854 507.641 286.934 507.865 288.442 507.013C289.265 506.567 292.434 504.71 293.216 504.221C293.772 503.91 294.249 503.475 294.612 502.951C296.887 510.922 301.285 517.832 306.771 521.015C309.828 522.774 312.578 522.914 314.812 521.741C315.692 521.28 318.86 519.382 319.614 518.949C323.118 517.037 325.324 511.815 325.324 504.263C325.268 491.964 319.056 478.828 311.406 474.403ZM233.69 463.933C233.205 463.783 232.737 463.582 232.294 463.332C227.157 460.359 225.189 452.904 225.189 446.58C225.127 444.392 225.488 442.211 226.25 440.159C226.739 440.293 227.208 440.49 227.646 440.745C232.518 443.537 234.724 451.159 234.724 457.497C234.775 459.687 234.425 461.869 233.69 463.933ZM282.802 493.612V489.619C283.968 491.053 284.617 492.838 284.644 494.687L282.802 493.612ZM312.788 509.61C312.3 509.461 311.831 509.255 311.392 508.996C306.255 506.036 304.286 498.567 304.286 492.244C304.225 490.055 304.585 487.875 305.347 485.822C305.831 485.969 306.299 486.165 306.743 486.408C311.629 489.2 313.821 496.822 313.821 503.16C313.873 505.355 313.522 507.541 312.788 509.61Z" fill="#BAE8E8"/>
<path d="M454.747 576.548L459.326 573.951L463.472 569.428C461.071 563.565 457.706 558.833 452.862 556.041C449.973 554.38 447.376 554.254 445.254 555.371C444.375 555.845 441.066 557.758 440.284 558.232C438.663 559.287 437.401 560.812 436.669 562.602V547.469L430.387 543.84L425.696 546.548V556.32L419.33 537.46L413.048 533.844L409.028 536.176V531.541L402.76 527.925L398.069 530.62V535.492C395.626 527.772 391.089 521.211 386.092 518.293L378.107 513.686L373.43 516.394V547.023L367.706 533.146L369.94 531.876C371.88 530.787 373.067 527.967 373.067 523.36C373.067 514.984 369.186 508.521 364.077 505.575L354.235 499.894L349.53 502.56V525.762L342.02 492.788L336.213 489.438L331.522 492.146L320.354 528.149L327.097 532.044L331.787 529.335L332.527 526.683L339.619 530.787L341.657 540.433L348.4 544.328L349.475 543.714V544.957L355.757 548.572L360.447 545.864V543.868L364.161 553.43L372.146 558.037L373.388 557.325V558.721L381.359 563.342C384.486 565.143 387.404 565.31 389.735 564.026L394.593 561.234C396.091 560.287 397.28 558.924 398.014 557.311V573.002L404.282 576.618L408.288 574.314V578.935L414.57 582.565L419.261 579.857V570.085L425.585 588.944L431.867 592.574L436.557 589.866V585.357C438.902 593.105 443.16 599.861 448.06 602.695C450.852 604.314 453.798 604.761 456.157 603.421C456.953 602.974 459.954 601.187 460.708 600.783C462.955 599.596 464.728 596.846 465.468 592.002V582.802L454.747 576.548ZM361.215 522.718L360.489 522.285V517.916C361.363 519.458 361.793 521.212 361.732 522.983V523.109L361.215 522.718ZM384.389 532.686C387.127 536.696 388.587 541.441 388.577 546.297C388.635 548.385 388.24 550.462 387.418 552.383C386.711 552.237 386.032 551.978 385.408 551.615L384.444 551.043L384.389 532.686ZM454.454 589.266C454.465 590.098 454.371 590.928 454.175 591.736C453.825 591.618 453.488 591.464 453.169 591.276C451.272 589.97 449.781 588.156 448.87 586.041L454.454 589.266ZM452.807 575.431L448.116 578.181V584.366C446.843 581.132 446.18 577.691 446.162 574.217C446.083 571.823 446.526 569.442 447.46 567.237C447.813 567.348 448.154 567.493 448.479 567.669C450.88 569.065 452.96 571.718 454.552 576.45L452.807 575.431Z" fill="#BAE8E8"/>
<path opacity="0.2" d="M306.715 477.111C314.365 481.522 320.577 494.673 320.577 507.055C320.577 514.607 318.372 519.829 314.854 521.741C315.845 521.211 318.832 519.438 319.558 519.033C323.062 517.12 325.268 511.899 325.268 504.347C325.268 491.964 319.056 478.814 311.406 474.403C308.348 472.63 305.501 472.56 303.183 473.914C302.402 474.361 299.149 476.204 298.311 476.706C300.629 475.268 303.56 475.282 306.715 477.111Z" fill="black"/>
<path opacity="0.3" d="M282.802 493.612V489.619C282.002 488.735 281.058 487.994 280.01 487.427L278.041 486.297V496.32L280.01 497.451C282.983 499.168 284.616 498.721 284.616 495.385C284.616 495.133 284.616 494.91 284.616 494.673L282.802 493.612Z" fill="black"/>
<path opacity="0.2" d="M261.485 478.074L261.541 478.116V461.587L255.217 442.727L248.935 439.112L244.258 441.82L250.526 445.436L261.485 478.074Z" fill="black"/>
<path opacity="0.1" d="M250.526 445.436L255.217 442.727L261.541 461.587V478.116L250.526 445.436Z" fill="black"/>
<path opacity="0.3" d="M282.788 475.827C282.805 474.422 282.419 473.042 281.677 471.85C280.935 470.658 279.867 469.703 278.6 469.098L278.097 468.819V477.962L278.6 478.256C281.308 479.819 282.788 479.372 282.788 475.827Z" fill="black"/>
<path opacity="0.2" d="M293.16 486.283C292.346 485.012 291.354 483.865 290.214 482.876L291.08 482.374C292.727 481.397 293.523 478.954 293.523 475.659C293.523 467.59 289.782 462.704 285.035 459.968L276.52 455.096L272.513 457.399V452.779L266.231 449.163L261.541 451.871L267.823 455.487V497.897L271.829 495.594V457.734L280.373 462.676C285.119 465.468 288.86 470.285 288.86 478.367C288.86 482.262 287.757 484.97 285.412 485.473C288.86 488.391 291.289 492.718 291.289 499.559C291.289 503.439 290.27 506.05 288.4 507.069C289.223 506.622 292.392 504.766 293.174 504.277C293.73 503.965 294.207 503.531 294.57 503.007C293.447 499.117 292.869 495.091 292.853 491.043C292.835 489.451 292.937 487.859 293.16 486.283Z" fill="black"/>
<path opacity="0.3" d="M311.406 508.996C306.268 506.036 304.3 498.567 304.3 492.244C304.239 490.055 304.599 487.875 305.361 485.822C305.57 485.892 305.78 485.962 306.003 486.059C301.662 484.147 299.609 488.963 299.609 494.952C299.609 501.276 301.578 508.744 306.715 511.704C309.772 513.463 311.727 512.248 312.788 509.61C312.305 509.46 311.841 509.254 311.406 508.996Z" fill="black"/>
<path opacity="0.2" d="M232.308 428.726C229.307 426.995 226.529 426.897 224.239 428.153L223.974 428.307L219.493 430.875C220.258 430.448 221.096 430.169 221.964 430.052C223.96 429.877 225.958 430.368 227.646 431.448C235.282 435.873 241.494 449.009 241.494 461.406C241.494 468.888 239.316 474.082 235.91 476.036C236.692 475.575 239.721 473.816 240.475 473.398C242.171 472.371 243.497 470.831 244.258 469V446.371C241.843 438.484 237.39 431.657 232.308 428.726Z" fill="black"/>
<path opacity="0.3" d="M225.203 446.58C225.141 444.392 225.502 442.211 226.264 440.159C226.477 440.221 226.687 440.295 226.892 440.382C222.55 438.484 220.512 443.286 220.512 449.289C220.512 455.613 222.481 463.067 227.618 466.041C230.661 467.8 232.615 466.571 233.69 463.933C233.205 463.783 232.737 463.582 232.294 463.332C227.171 460.359 225.203 452.904 225.203 446.58Z" fill="black"/>
<path opacity="0.2" d="M367.72 533.146L369.94 531.876C371.88 530.787 373.067 527.967 373.067 523.36C373.067 514.984 369.186 508.521 364.077 505.575L354.235 499.894L349.53 502.56L359.386 508.242C364.482 511.187 368.363 517.693 368.363 526.027C368.363 532.393 366.087 535.352 362.779 535.045L372.257 558.051L373.5 557.339V546.981L367.72 533.146Z" fill="black"/>
<path opacity="0.3" d="M447.474 567.265L447.934 567.432C444.333 565.883 441.485 569.931 441.485 576.925C441.485 583.919 444.626 591.792 448.465 594.026C450.922 595.422 453.351 594.85 454.161 591.778C453.811 591.66 453.474 591.505 453.156 591.318C451.258 590.012 449.768 588.198 448.856 586.083L448.102 585.636V584.366C446.829 581.132 446.166 577.691 446.148 574.217C446.082 571.831 446.534 569.459 447.474 567.265Z" fill="black"/>
<path opacity="0.2" d="M386.106 518.293L378.121 513.686L373.444 516.394L381.415 521.001C388.967 525.357 395.305 537.865 395.305 550.205C395.305 557.772 392.946 562.63 389.386 564.291L389.805 564.11L394.663 561.318C396.161 560.371 397.349 559.007 398.083 557.395V535.492C395.64 527.772 391.145 521.211 386.106 518.293Z" fill="black"/>
<path opacity="0.3" d="M384.403 551.085V532.728C383.425 531.311 382.16 530.117 380.689 529.224L379.712 528.665V553.793L380.689 554.352C383.677 556.083 386.05 555.175 387.376 552.425C386.669 552.279 385.99 552.02 385.366 551.657L384.403 551.085Z" fill="black"/>
<path opacity="0.3" d="M355.812 548.628L360.503 545.92V543.923L355.812 531.876V548.628Z" fill="black"/>
<path opacity="0.2" d="M414.64 540.182L425.585 572.835L425.654 572.877V556.348L419.33 537.474L413.048 533.858L409.042 536.176V531.541L402.774 527.925L398.083 530.634L404.351 534.249V576.66L408.358 574.356V536.567L414.64 540.182Z" fill="black"/>
<path opacity="0.3" d="M329.191 524.784L327.153 532.085L331.843 529.391L332.583 526.739L329.191 524.784Z" fill="black"/>
<path opacity="0.3" d="M334.398 506.971L331.327 517.539L337.539 521.127L334.468 507.013L334.398 506.971Z" fill="black"/>
<path opacity="0.3" d="M414.64 556.278V582.593V582.607L419.33 579.898V570.098L414.71 556.32L414.64 556.278Z" fill="black"/>
<path opacity="0.2" d="M436.627 562.588V547.469L430.345 543.84L425.654 546.548L431.936 550.178V592.588L436.627 589.88V585.371C435.389 581.363 434.745 577.196 434.714 573.002C434.602 569.434 435.254 565.883 436.627 562.588Z" fill="black"/>
<path opacity="0.2" d="M342.034 492.858L336.213 489.493L331.536 492.202L337.343 495.552L348.456 544.384L349.53 543.77V525.803L342.034 492.858Z" fill="black"/>
<path opacity="0.3" d="M360.503 522.327V517.916C359.506 516.429 358.14 515.226 356.538 514.426L355.812 514.007V525.175L356.538 525.594C358.884 526.99 361.69 528.386 361.745 523.179L361.229 522.9L360.503 522.327Z" fill="black"/>
<path opacity="0.2" d="M454.747 576.548L459.326 573.951L463.472 569.428C461.071 563.565 457.707 558.833 452.862 556.041C449.973 554.38 447.376 554.254 445.254 555.371C444.458 555.803 441.666 557.423 440.564 558.065C442.7 556.948 445.282 557.088 448.172 558.749C453.016 561.541 456.38 566.273 458.781 572.123L454.677 576.702C454.648 576.629 454.624 576.554 454.607 576.478L452.862 575.473L448.116 578.181L460.834 585.524V594.696C460.108 599.498 458.349 602.248 456.129 603.449H456.213C457.008 603.002 460.01 601.215 460.764 600.81C463.011 599.624 464.784 596.874 465.524 592.03V582.83L454.747 576.548Z" fill="black"/>
<path opacity="0.1" d="M244.3 468.958V446.371C243.993 445.338 243.63 444.319 243.253 443.328L238.562 446.008C240.478 450.904 241.486 456.107 241.536 461.364C241.536 468.847 239.358 474.04 235.952 475.994C236.734 475.533 239.777 473.774 240.531 473.356C242.223 472.328 243.543 470.787 244.3 468.958Z" fill="black"/>
<path opacity="0.1" d="M267.823 455.417L272.513 452.709V457.33L271.829 457.734V495.51L267.823 497.828V455.417Z" fill="black"/>
<path opacity="0.1" d="M337.343 495.552L342.034 492.858L349.53 525.803V543.77L348.456 544.384L337.343 495.552Z" fill="black"/>
<path opacity="0.1" d="M367.72 533.146L365.333 534.542C364.563 535.047 363.632 535.246 362.723 535.101L372.202 558.107L373.444 557.395V547.037L367.72 533.146Z" fill="black"/>
<path opacity="0.1" d="M409.042 531.541L404.351 534.249V576.66L408.358 574.356V536.567L409.042 536.176V531.541Z" fill="black"/>
<path opacity="0.1" d="M414.64 540.182L419.33 537.474L425.654 556.348V572.877L414.64 540.182Z" fill="black"/>
<path opacity="0.1" d="M458.74 572.123L463.43 569.414L459.326 573.993L454.635 576.702L458.74 572.123Z" fill="black"/>
<path opacity="0.1" d="M460.848 594.696C460.122 599.498 458.363 602.248 456.143 603.449H456.227C457.022 603.002 460.024 601.215 460.778 600.81C463.025 599.624 464.798 596.874 465.538 592.03V582.83L460.848 585.538V594.696Z" fill="black"/>
<path opacity="0.1" d="M395.305 550.205C395.305 557.772 392.946 562.63 389.386 564.291L389.805 564.11L394.663 561.318C396.161 560.371 397.349 559.007 398.083 557.395V535.492C397.818 534.668 397.539 533.858 397.232 533.077L392.541 535.771C394.328 540.376 395.265 545.266 395.305 550.205Z" fill="black"/>
<path opacity="0.1" d="M325.268 504.347C325.208 499.294 324.263 494.29 322.476 489.563L317.785 492.271C319.572 496.999 320.517 502.002 320.577 507.055C320.577 514.607 318.372 519.829 314.854 521.741C315.845 521.211 318.832 519.438 319.558 519.033C323.062 517.12 325.268 511.899 325.268 504.347Z" fill="black"/>
<path opacity="0.1" d="M291.289 499.559C291.289 503.439 290.27 506.05 288.4 507.069C289.223 506.622 292.392 504.766 293.174 504.277C293.73 503.965 294.207 503.531 294.57 503.007C293.447 499.117 292.869 495.091 292.853 491.043C292.849 489.45 292.965 487.858 293.202 486.283C292.388 485.012 291.396 483.865 290.256 482.876L286.473 485.068H286.334C286.273 485.109 286.207 485.142 286.138 485.166C285.915 485.286 285.675 485.371 285.426 485.417C288.86 488.391 291.289 492.788 291.289 499.559Z" fill="black"/>
<path opacity="0.3" d="M250.526 461.532V487.846L255.217 485.138V475.352L250.596 461.559L250.526 461.532Z" fill="black"/>
<path opacity="0.1" d="M431.936 550.178V592.588L436.627 589.88V585.371C435.389 581.363 434.745 577.196 434.714 573.002C434.604 569.439 435.256 565.893 436.627 562.602V547.469L431.936 550.178Z" fill="black"/>
<path d="M227.618 431.434C235.268 435.859 241.48 448.995 241.48 461.392C241.48 473.788 235.533 479.959 227.618 475.352C219.479 470.647 213.658 457.72 213.658 445.338C213.658 432.955 220.038 427.064 227.618 431.434ZM227.618 466.041C232.629 468.93 234.696 463.807 234.696 457.483C234.696 451.159 232.49 443.523 227.618 440.731C222.746 437.939 220.512 442.951 220.512 449.275C220.512 455.599 222.481 463.067 227.618 466.041Z" fill="#BAE8E8"/>
<path d="M250.526 487.846L244.244 484.231V441.806L250.526 445.436L261.471 478.074V451.801L267.753 455.417V497.828L261.471 494.212L250.526 461.559V487.846Z" fill="#BAE8E8"/>
<path d="M280.373 462.676C285.119 465.468 288.86 470.284 288.86 478.367C288.86 482.262 287.757 484.97 285.412 485.473C288.86 488.391 291.289 492.718 291.289 499.559C291.289 506.399 287.995 509.484 282.285 506.176L271.829 500.145V457.734L280.373 462.676ZM278.614 478.256C281.308 479.819 282.802 479.372 282.802 475.827C282.819 474.422 282.433 473.042 281.691 471.85C280.949 470.658 279.881 469.703 278.614 469.098L278.111 468.819V477.962L278.614 478.256ZM280.01 497.451C282.983 499.168 284.616 498.721 284.616 495.385C284.708 493.753 284.321 492.131 283.503 490.717C282.684 489.304 281.47 488.16 280.01 487.427L278.041 486.297V496.32L280.01 497.451Z" fill="#BAE8E8"/>
<path d="M306.715 477.111C314.365 481.522 320.577 494.673 320.577 507.055C320.577 519.438 314.63 525.636 306.715 521.015C298.576 516.325 292.839 503.384 292.839 491.001C292.839 478.619 299.149 472.727 306.715 477.111ZM306.715 511.704C311.727 514.593 313.793 509.47 313.793 503.146C313.793 496.822 311.601 489.186 306.715 486.394C301.829 483.602 299.609 488.614 299.609 494.938C299.609 501.262 301.536 508.744 306.715 511.704Z" fill="#BAE8E8"/>
<path d="M348.456 544.44L341.713 540.545L339.675 530.899L329.191 524.84L327.153 532.155L320.41 528.26L331.578 492.258L337.385 495.608L348.456 544.44ZM334.496 507.069H334.426L331.355 517.637L337.567 521.225L334.496 507.069Z" fill="#BAE8E8"/>
<path d="M359.386 508.284C364.482 511.229 368.363 517.735 368.363 526.069C368.363 532.434 366.087 535.394 362.779 535.087L372.257 558.093L364.272 553.486L355.896 531.876V548.628L349.614 545.012V502.56L359.386 508.284ZM356.594 525.454C358.967 526.85 361.801 528.246 361.801 522.914C361.801 517.581 359.009 515.724 356.594 514.356L355.868 513.937V525.105L356.594 525.454Z" fill="#BAE8E8"/>
<path d="M381.415 521.001C388.967 525.357 395.305 537.865 395.305 550.205C395.305 562.546 388.995 567.795 381.415 563.412L373.444 558.805V516.394L381.415 521.001ZM380.689 554.352C385.324 557.032 388.493 553.416 388.535 546.339C388.577 539.261 385.296 531.876 380.689 529.224L379.712 528.665V553.793L380.689 554.352Z" fill="#BAE8E8"/>
<path d="M404.351 576.66L398.083 573.044V530.62L404.351 534.249V576.66Z" fill="#BAE8E8"/>
<path d="M414.612 582.607L408.33 578.977V536.567L414.612 540.252L425.557 572.904H425.626V546.548L431.908 550.178V592.588L425.626 588.958L414.682 556.32H414.612V582.607Z" fill="#BAE8E8"/>
<path d="M460.848 594.696C459.34 604.58 453.532 605.864 448.13 602.681C440.717 598.395 434.714 585.105 434.714 572.974C434.714 560.843 440.382 554.254 448.13 558.721C452.974 561.513 456.338 566.246 458.74 572.095L454.635 576.674C453.03 571.788 450.936 569.079 448.493 567.669C444.626 565.436 441.513 569.54 441.513 576.897C441.513 584.254 444.654 591.764 448.493 593.998C451.508 595.729 454.468 594.459 454.468 589.266L448.116 585.636V578.181L460.834 585.524L460.848 594.696Z" fill="#BAE8E8"/>
<path opacity="0.1" d="M337.343 460.191C373.904 460.191 403.542 443.079 403.542 421.969C403.542 400.859 373.904 383.746 337.343 383.746C300.783 383.746 271.145 400.859 271.145 421.969C271.145 443.079 300.783 460.191 337.343 460.191Z" fill="black"/>
<path opacity="0.1" d="M460.834 533.356C501.92 533.356 535.226 514.124 535.226 490.401C535.226 466.678 501.92 447.446 460.834 447.446C419.748 447.446 386.441 466.678 386.441 490.401C386.441 514.124 419.748 533.356 460.834 533.356Z" fill="black"/>
<path d="M214.23 34.6906L263.844 63.2248C264.421 63.6012 264.901 64.1083 265.246 64.705C265.59 65.3016 265.789 65.9711 265.826 66.659V134.407C265.789 135.093 265.588 135.759 265.241 136.352C264.894 136.944 264.41 137.445 263.83 137.813L256.752 141.792C256.134 142.098 255.453 142.257 254.763 142.257C254.073 142.257 253.392 142.098 252.774 141.792L203.174 113.23C202.594 112.856 202.112 112.349 201.768 111.752C201.423 111.155 201.225 110.484 201.192 109.795V42.0475C201.229 41.3634 201.428 40.6978 201.772 40.1056C202.117 39.5135 202.597 39.0116 203.174 38.6413L210.266 34.6627C210.883 34.3576 211.563 34.2013 212.251 34.2061C212.94 34.211 213.617 34.3769 214.23 34.6906Z" fill="#BAE8E8"/>
<path d="M254.686 140.619V72.8712C254.647 72.1824 254.444 71.5128 254.095 70.9181C253.745 70.3233 253.259 69.8203 252.676 69.451L203.174 40.9028C202.071 40.2746 201.192 40.7911 201.192 42.0475V109.795C201.225 110.484 201.423 111.155 201.768 111.752C202.112 112.349 202.594 112.856 203.174 113.23L252.676 141.764C253.807 142.392 254.686 141.889 254.686 140.619Z" fill="#BAE8E8"/>
<path opacity="0.2" d="M252.676 141.764C253.295 142.067 253.976 142.225 254.665 142.225C255.355 142.225 256.035 142.067 256.655 141.764L263.732 137.785C264.312 137.417 264.796 136.916 265.143 136.324C265.49 135.731 265.691 135.065 265.729 134.379V66.645C265.694 65.9324 265.478 65.2404 265.1 64.6348L254.072 70.9308C254.432 71.5158 254.634 72.1845 254.658 72.8712V140.619C254.686 141.778 253.877 142.392 252.676 141.764Z" fill="black"/>
<path opacity="0.4" d="M201.219 41.6846C201.373 40.6934 202.183 40.2885 203.174 40.9028L252.676 69.451C253.262 69.8144 253.743 70.3245 254.072 70.9308L265.114 64.6348C264.772 64.0607 264.293 63.5809 263.718 63.2388L214.23 34.6766C213.615 34.3673 212.936 34.2061 212.248 34.2061C211.559 34.2061 210.881 34.3673 210.266 34.6766L203.174 38.6552C202.651 38.9914 202.206 39.4357 201.869 39.9582C201.531 40.4807 201.31 41.0694 201.219 41.6846Z" fill="white"/>
<path d="M271.173 116.901C272.415 116.161 281.727 110.912 282.034 110.745C282.261 110.602 282.455 110.411 282.601 110.186C282.747 109.96 282.842 109.706 282.879 109.44C282.916 109.174 282.895 108.903 282.816 108.646C282.738 108.389 282.604 108.152 282.425 107.953L265.589 86.9149L254.686 93.0992L271.522 114.123C271.695 114.323 271.823 114.557 271.9 114.809C271.976 115.062 271.998 115.328 271.966 115.59C271.933 115.852 271.845 116.104 271.709 116.33C271.572 116.555 271.39 116.75 271.173 116.901Z" fill="#BAE8E8"/>
<path opacity="0.4" d="M271.173 116.901C272.415 116.161 281.727 110.912 282.034 110.745C282.261 110.602 282.455 110.411 282.601 110.186C282.747 109.96 282.842 109.706 282.879 109.44C282.916 109.174 282.895 108.903 282.816 108.646C282.738 108.389 282.604 108.152 282.425 107.953L265.589 86.9149L254.686 93.0992L271.522 114.123C271.695 114.323 271.823 114.557 271.9 114.809C271.976 115.062 271.998 115.328 271.966 115.59C271.933 115.852 271.845 116.104 271.709 116.33C271.572 116.555 271.39 116.75 271.173 116.901Z" fill="white"/>
<path d="M254.686 93.1132L271.522 114.053C271.765 114.293 271.933 114.599 272.006 114.932C272.08 115.266 272.055 115.613 271.936 115.933C271.817 116.253 271.607 116.532 271.333 116.736C271.059 116.94 270.732 117.06 270.391 117.083L254.686 118.786V93.1132Z" fill="#BAE8E8"/>
<path d="M222.983 80.3956C222.983 76.4868 225.049 74.5045 227.59 75.9703C230.131 77.4361 232.183 81.7916 232.183 85.7423C232.183 89.693 230.131 91.6334 227.59 90.1676C225.049 88.7018 222.983 84.3044 222.983 80.3956Z" fill="#FAFAFA"/>
<path d="M233.132 115.114L221.964 108.665C221.102 107.97 220.424 107.075 219.988 106.058C219.553 105.041 219.373 103.932 219.465 102.829L219.996 96.7986C220.373 92.4431 222.913 90.4748 225.915 92.2058L229.181 94.0904C232.183 95.8354 234.765 100.721 235.1 105.524L235.631 112.169C235.924 114.598 234.696 115.994 233.132 115.114Z" fill="#FAFAFA"/>
<path d="M234.947 79.8093C234.947 75.5096 237.208 73.3319 240 74.9512C242.792 76.5706 245.054 81.3589 245.054 85.6446C245.054 89.9303 242.792 92.122 240 90.5166C237.208 88.9112 234.947 84.109 234.947 79.8093Z" fill="#FAFAFA"/>
<path d="M245.822 117.767L238.437 113.495L237.906 106.878C237.516 102.017 235.711 97.3779 232.713 93.532C232.982 93.1184 233.333 92.7644 233.744 92.4918C234.155 92.2193 234.617 92.0341 235.103 91.9478C235.588 91.8614 236.087 91.8756 236.566 91.9897C237.046 92.1037 237.498 92.315 237.892 92.6106L241.508 94.6907C244.803 96.6032 247.581 101.964 247.999 107.255L248.586 114.542C248.795 117.264 247.497 118.73 245.822 117.767Z" fill="#FAFAFA"/>
<path d="M220.945 73.29C220.945 69.1997 218.795 64.6488 216.143 63.1271C213.49 61.6055 211.34 63.6576 211.34 67.7479C211.34 71.8382 213.49 76.3752 216.143 77.9108C218.795 79.4464 220.945 77.3803 220.945 73.29Z" fill="#FAFAFA"/>
<path d="M223.067 88.7995C220.456 88.9112 218.502 91.4659 218.125 95.7795L217.622 101.475L210.642 97.4268C209.728 96.7081 209.008 95.7724 208.547 94.7045C208.086 93.6367 207.9 92.4707 208.004 91.3123L208.562 85.0443C208.953 80.4794 211.606 78.4412 214.733 80.2421L218.153 82.2244C220.46 83.8255 222.185 86.1331 223.067 88.7995Z" fill="#FAFAFA"/>
<path d="M563.188 158.893V139.167L546.534 137.771C546.292 137.742 546.048 137.791 545.836 137.911C545.194 138.26 531.778 145.98 531.569 146.105C531.413 146.198 531.281 146.325 531.18 146.476C531.08 146.627 531.015 146.798 530.99 146.977C530.964 147.157 530.979 147.339 531.033 147.512C531.088 147.685 531.18 147.843 531.304 147.976L548.949 167.129L563.188 158.893Z" fill="#BAE8E8"/>
<path d="M548.949 167.073L531.304 147.976C531.136 147.797 531.027 147.571 530.991 147.328C530.955 147.085 530.993 146.837 531.1 146.617C531.207 146.396 531.379 146.213 531.592 146.092C531.805 145.971 532.05 145.917 532.295 145.938L548.949 147.334V167.073Z" fill="#BAE8E8"/>
<path d="M563.174 139.167L548.949 147.348L532.295 145.952C532.1 145.935 531.904 145.964 531.722 146.036C533.049 145.254 545.236 138.246 545.836 137.925C546.048 137.805 546.292 137.756 546.534 137.785L563.174 139.167Z" fill="#BAE8E8"/>
<path opacity="0.5" d="M563.174 139.167L548.949 147.348L532.295 145.952C532.1 145.935 531.904 145.964 531.722 146.036C533.049 145.254 545.236 138.246 545.836 137.925C546.048 137.805 546.292 137.756 546.534 137.785L563.174 139.167Z" fill="white"/>
<path d="M561.792 112.657L611.336 141.191C611.911 141.57 612.39 142.078 612.734 142.674C613.078 143.27 613.278 143.938 613.319 144.626V212.373C613.283 213.06 613.084 213.727 612.736 214.32C612.389 214.913 611.904 215.414 611.322 215.78L604.231 219.758C603.615 220.064 602.936 220.224 602.248 220.224C601.56 220.224 600.882 220.064 600.266 219.758L550.722 191.252C550.147 190.877 549.668 190.372 549.323 189.778C548.979 189.184 548.779 188.517 548.74 187.832V120.056C548.778 119.371 548.98 118.704 549.327 118.112C549.674 117.52 550.157 117.018 550.736 116.65L557.828 112.685C558.44 112.371 559.118 112.206 559.807 112.201C560.495 112.196 561.175 112.352 561.792 112.657Z" fill="#BAE8E8"/>
<path d="M602.248 218.6V150.838C602.21 150.154 602.013 149.488 601.671 148.894C601.329 148.3 600.853 147.794 600.28 147.418L550.722 118.869C549.633 118.241 548.74 118.758 548.74 120.014V187.776C548.77 188.471 548.966 189.149 549.311 189.753C549.656 190.358 550.139 190.872 550.722 191.252L600.28 219.744C601.355 220.373 602.248 219.856 602.248 218.6Z" fill="#BAE8E8"/>
<path opacity="0.2" d="M600.28 219.744C600.898 220.044 601.576 220.2 602.262 220.2C602.949 220.2 603.627 220.044 604.245 219.744L611.336 215.766C611.914 215.398 612.395 214.899 612.742 214.31C613.089 213.72 613.292 213.056 613.333 212.373V144.626C613.303 143.906 613.081 143.207 612.69 142.601L601.676 148.897C602.036 149.482 602.238 150.151 602.262 150.838V218.586C602.248 219.744 601.425 220.414 600.28 219.744Z" fill="black"/>
<path opacity="0.4" d="M548.768 119.665C548.921 118.66 549.745 118.269 550.722 118.869L600.28 147.418C600.86 147.789 601.339 148.297 601.676 148.897L612.704 142.601C612.363 142.027 611.883 141.547 611.308 141.205L561.792 112.657C561.176 112.351 560.498 112.192 559.81 112.192C559.122 112.192 558.444 112.351 557.828 112.657L550.736 116.636C550.212 116.973 549.766 117.417 549.426 117.939C549.087 118.461 548.862 119.05 548.768 119.665Z" fill="white"/>
<path d="M555.203 163.625L557.283 170.605C557.362 170.8 557.487 170.974 557.647 171.11C557.808 171.246 557.999 171.341 558.205 171.387L562.309 172.378C562.742 172.492 563.116 172.767 563.356 173.146C564.007 174.472 564.744 175.754 565.561 176.985C565.777 177.304 565.862 177.694 565.799 178.074L564.473 182.583C564.446 182.774 564.465 182.968 564.528 183.15C564.591 183.332 564.696 183.497 564.836 183.63L569.638 188.711C569.715 188.818 569.825 188.896 569.951 188.934C570.077 188.972 570.213 188.967 570.336 188.921C570.375 188.896 570.408 188.862 570.433 188.823L572.681 185.403C572.835 185.151 573.239 185.179 573.602 185.403C573.965 185.626 574.496 185.975 574.929 186.226C575.361 186.478 575.85 186.743 576.325 186.966C576.739 187.159 577.077 187.483 577.288 187.888L579.647 194.239C579.742 194.419 579.879 194.573 580.047 194.687C580.215 194.802 580.408 194.873 580.61 194.896L584.98 195.328C585.11 195.38 585.255 195.38 585.385 195.328C585.458 195.286 585.515 195.22 585.548 195.142C585.58 195.064 585.587 194.978 585.566 194.896L584.17 188.641C584.141 188.478 584.172 188.309 584.256 188.166C584.341 188.022 584.473 187.914 584.631 187.86C585.32 187.592 585.961 187.215 586.529 186.743C586.688 186.659 586.87 186.629 587.047 186.66C587.223 186.69 587.385 186.778 587.507 186.91L591.974 190.987C592.102 191.123 592.276 191.207 592.462 191.224H592.63C592.677 191.192 592.716 191.149 592.742 191.098L594.738 186.701C594.782 186.52 594.781 186.331 594.735 186.151C594.688 185.971 594.598 185.805 594.473 185.668L590.285 180.587C590.024 180.278 589.881 179.887 589.88 179.484C589.984 178.285 589.984 177.08 589.88 175.882C589.878 175.8 589.893 175.718 589.924 175.641C589.955 175.565 590.001 175.496 590.06 175.438C590.119 175.381 590.189 175.336 590.266 175.306C590.343 175.277 590.426 175.264 590.508 175.268L594.263 175.058C594.64 175.058 594.877 174.751 594.766 174.43L592.7 167.45C592.619 167.258 592.493 167.087 592.333 166.954C592.173 166.82 591.982 166.727 591.778 166.682L587.674 165.691C587.239 165.572 586.865 165.293 586.627 164.909C585.976 163.588 585.239 162.31 584.421 161.084C584.209 160.764 584.124 160.375 584.184 159.996L585.58 155.473C585.594 155.279 585.568 155.085 585.503 154.902C585.438 154.72 585.336 154.553 585.203 154.412L580.401 149.344C580.122 149.051 579.759 148.995 579.591 149.246L577.358 152.653C577.204 152.904 576.799 152.876 576.422 152.653C575.566 152.058 574.666 151.53 573.728 151.075C573.311 150.887 572.971 150.562 572.765 150.154L570.406 143.802C570.311 143.622 570.174 143.468 570.006 143.354C569.838 143.24 569.644 143.168 569.442 143.146L565.073 142.713C564.942 142.668 564.799 142.668 564.668 142.713C564.589 142.75 564.526 142.814 564.49 142.893C564.454 142.973 564.448 143.062 564.473 143.146L565.869 149.4C565.896 149.562 565.866 149.728 565.784 149.87C565.703 150.013 565.575 150.123 565.422 150.182C564.727 150.446 564.081 150.823 563.509 151.298C563.352 151.385 563.169 151.416 562.991 151.385C562.814 151.355 562.652 151.265 562.532 151.131L558.065 147.055C557.828 146.845 557.59 146.775 557.423 146.859C557.368 146.886 557.324 146.93 557.297 146.985L555.315 151.382C555.271 151.564 555.271 151.754 555.315 151.936C555.359 152.118 555.445 152.287 555.566 152.429L559.754 157.483C560.013 157.797 560.156 158.192 560.159 158.6C560.159 159.2 560.075 159.828 560.075 160.456C560.075 161.084 560.075 161.615 560.173 162.201C560.173 162.284 560.156 162.367 560.124 162.443C560.091 162.519 560.043 162.588 559.983 162.646C559.923 162.703 559.852 162.748 559.774 162.777C559.697 162.806 559.614 162.819 559.531 162.815L555.789 163.025C555.702 163.009 555.612 163.009 555.524 163.025C555.463 163.042 555.406 163.072 555.357 163.112C555.308 163.152 555.267 163.201 555.237 163.257C555.207 163.313 555.188 163.375 555.183 163.438C555.177 163.501 555.184 163.565 555.203 163.625ZM571.648 176.385C567.167 171.666 565.045 164.505 566.902 160.414C567.175 159.686 567.637 159.044 568.24 158.553C568.844 158.062 569.567 157.741 570.336 157.622H570.503H570.657H570.852C571.923 157.601 572.985 157.831 573.951 158.292C574.331 158.453 574.7 158.64 575.054 158.851C576.278 159.584 577.391 160.487 578.363 161.531C581.589 164.89 583.51 169.291 583.779 173.942C583.785 174.366 583.762 174.791 583.709 175.212C583.627 176.001 583.425 176.773 583.109 177.501C582.785 178.328 582.218 179.037 581.483 179.536C580.748 180.034 579.879 180.298 578.991 180.293H578.586H578.125L577.749 180.224H577.567H577.33C575.113 179.504 573.143 178.173 571.648 176.385Z" fill="white"/>
<path d="M443.788 170.661C434.575 172.476 428.614 177.334 426.632 191.769C424.272 209.107 420.503 235.756 420.503 235.756C420.503 235.756 408.26 270.447 402.02 278.237C400.225 280.318 398.234 282.22 396.073 283.918C390.336 291.108 376.99 295.896 383.048 299.945C387.697 303.044 394.719 303.658 401.364 299.945C410.34 294.947 414.012 289.181 418.465 281.797C424.049 272.597 443.216 238.172 443.216 238.172L443.788 170.661Z" fill="#B16668"/>
<path d="M404.24 274.817C403.053 276.799 398.963 277.287 395.068 278.069C391.173 278.851 388.186 281.14 385.477 281.699C383.146 282.173 383.816 284.952 387.976 285.175C392.136 285.398 397.036 282.229 397.846 285.175C398.656 288.12 406.348 280.093 404.24 274.817Z" fill="#B16668"/>
<path d="M412.378 255.998L409.894 261.778C413.872 262.043 423.546 266.873 425.25 270.154L428.67 264.207L412.378 255.998Z" fill="#EBEBEB"/>
<path d="M443.788 170.661C443.788 170.661 434.421 170.368 429.898 178.409C425.375 186.45 419.777 235.645 419.777 235.645L410.745 258.553C414.556 258.288 426.227 264.235 427.734 267.851L443.481 242.052L443.788 170.661Z" fill="#37474F"/>
<path d="M500.494 469.824H486.827V493.221H500.494V469.824Z" fill="#B16668"/>
<path d="M446.008 459.759L432.355 460.219L431.671 435.468L446.008 434.994V459.759Z" fill="#B16668"/>
<path d="M499.991 272.052C499.991 285.105 499.461 391.746 499.461 391.746C499.782 395.501 503.398 402.188 503.649 415.715C504.068 435.259 501.052 481.522 501.052 481.522C498.693 482.683 496.107 483.312 493.478 483.365C490.849 483.418 488.24 482.894 485.836 481.829C485.836 481.829 475.101 416.469 472.644 397.064C470.508 380.117 464.561 304.119 464.561 304.119L454.105 376.403C455.691 383.528 456.265 390.841 455.808 398.125C455.166 407.102 446.846 452.081 446.846 452.081C444.466 453.427 441.819 454.234 439.093 454.443C436.367 454.653 433.629 454.261 431.071 453.295C431.071 453.295 430.261 382.685 430.094 374.449C429.912 365.054 432.062 269.233 432.062 269.233L499.991 272.052Z" fill="#37474F"/>
<path d="M486.827 486.478V484.524C486.087 484.524 485.64 485.236 485.361 486.995C485.152 488.251 484.97 489.214 484.552 490.861C483.95 493.25 483.151 495.585 482.164 497.841C480.238 502.602 478.619 504.375 474.193 509.945C472.701 511.488 471.302 513.12 470.005 514.831C469.182 516.297 468.888 520.415 470.284 521.336C475.45 524.77 483.281 524.868 488.823 523.235C490.892 522.662 492.752 521.506 494.18 519.904C495.609 518.302 496.546 516.323 496.878 514.203C497.074 512.946 497.004 511.648 497.144 510.378C497.629 507.498 498.802 504.778 500.564 502.448C501.595 501.104 502.48 499.653 503.202 498.121C504.347 495.329 503.426 492.16 502.686 489.354C502.057 486.939 501.373 484.286 500.55 484.51C500.55 484.803 500.55 486.003 500.55 486.003C499.559 487.106 496.808 488.195 493.709 488.307C491.657 488.405 486.813 488 486.827 486.478Z" fill="#263238"/>
<path d="M432.216 456.003C432.216 456.366 430.945 457.483 429.424 458.795C427.926 460.088 426.36 461.3 424.733 462.425C421.406 464.855 417.912 467.047 414.277 468.986C409.963 471.359 406.068 472.797 400.903 475.129C400.376 475.348 399.9 475.676 399.507 476.092C399.19 476.458 398.973 476.901 398.879 477.376C398.726 478.351 398.848 479.349 399.23 480.259C399.612 481.169 400.24 481.954 401.043 482.527C402.659 483.662 404.495 484.446 406.431 484.831C410.812 486.065 415.428 486.204 419.875 485.236C423.536 484.139 426.992 482.451 430.108 480.238C432.877 478.282 436.025 476.927 439.349 476.259C442.253 475.841 445.813 475.98 448.325 474.249C451.117 472.323 450.001 468.218 449.219 464.687C448.353 460.834 447.278 454.817 445.994 455.082V456.478C444.361 458.963 435.873 459.982 432.271 458.153L432.216 456.003Z" fill="#263238"/>
<path d="M464.589 304.119C457.518 301.9 451.018 298.16 445.547 293.16C445.547 293.16 449.219 300.042 460.15 306.436L454.859 372.397L464.589 304.119Z" fill="#263238"/>
<path d="M476.287 171.931C480.936 173.048 490.317 174.584 492.411 183.853C494.938 195.021 495.761 219.2 495.761 219.2L496.627 273.113C487.218 279.968 450.699 283.695 430.889 269.233C430.889 269.233 435.259 204.5 435.259 194.421C435.259 184.342 440.843 172.252 456.324 171.345L476.287 171.931Z" fill="#F5F5F5"/>
<path d="M456.492 170.312C452.913 174.697 450.297 179.786 448.814 185.249C446.943 193.402 445.17 285.929 445.17 285.929C445.17 285.929 434.603 284.644 430.08 281.099C430.08 281.099 429.158 205.477 431.043 193.723C434.407 172.936 434.156 170.87 456.492 168.916V170.312Z" fill="#455A64"/>
<path d="M480.364 168.916C480.364 168.916 467.479 176.831 467.339 208.367C467.213 235.617 467.632 289.838 467.632 289.838C467.632 289.838 489.019 291.234 502.532 283.095C502.532 283.095 499.74 248.669 499.531 229.419C505.115 202.085 510.001 175.435 502.141 173.272C494.282 171.108 480.364 168.916 480.364 168.916Z" fill="#455A64"/>
<path d="M481.801 186.198L475.91 193.5L478.856 201.82L471.108 221.685L480.461 201.82L477.181 193.974L481.801 186.198Z" fill="#37474F"/>
<path d="M440.201 183.853L441.485 191.406L436.376 198.051L443.481 220.428L437.981 198.302L442.7 192.09L440.201 183.853Z" fill="#37474F"/>
<path d="M472.965 124.705C472.968 128.422 471.868 132.056 469.805 135.148C467.742 138.24 464.808 140.65 461.375 142.074C457.942 143.499 454.163 143.873 450.517 143.149C446.872 142.426 443.522 140.638 440.893 138.01C438.264 135.383 436.473 132.035 435.747 128.39C435.02 124.744 435.392 120.965 436.813 117.531C438.235 114.097 440.644 111.161 443.734 109.096C446.824 107.031 450.458 105.928 454.175 105.928C459.156 105.928 463.933 107.906 467.456 111.427C470.98 114.948 472.961 119.724 472.965 124.705Z" fill="#263238"/>
<path d="M486.646 138.064C486.646 138.064 483.602 152.359 482.374 154.705C481.564 156.16 480.224 157.245 478.633 157.734L478.856 147.669L486.646 138.064Z" fill="#263238"/>
<path d="M482.821 117.571C483.876 117.457 484.944 117.582 485.945 117.937C486.945 118.293 487.853 118.869 488.6 119.623C491.113 122.192 489.703 130.205 486.59 138.064L480.852 138.721L482.821 117.571Z" fill="#263238"/>
<path d="M479.191 138.721C480.336 139.405 481.983 137.199 483.379 135.719C484.775 134.239 489.424 132.215 491.755 137.115C494.086 142.015 489.717 148.618 486.073 149.763C479.791 151.731 478.856 147.711 478.856 147.711L478.381 173.355C474.04 178.939 464.296 185.473 459.047 184.523C454.859 183.769 453.937 176.692 457.944 172.057V162.857C455.158 163.318 452.332 163.477 449.512 163.332C444.891 162.62 441.974 158.976 440.592 153.979C438.47 146.343 437.8 137.771 439.391 123.672C441.359 106.347 461.615 106.194 472.476 113.034C483.337 119.875 479.191 138.721 479.191 138.721Z" fill="#B16668"/>
<path d="M479.191 140.661C479.763 140.661 481.983 137.017 483.379 135.719C485.361 133.918 482.807 117.571 482.807 117.571C483.488 116.133 483.719 114.523 483.47 112.951C483.221 111.379 482.503 109.919 481.411 108.762C478.702 105.761 474.905 102.117 462.593 103.569C453.798 104.616 444.235 107.352 436.515 103.569C435.803 106.088 435.858 108.761 436.673 111.248C437.489 113.735 439.028 115.922 441.094 117.529C441.094 117.529 443.886 119.33 451.243 120.224C458.034 120.736 464.858 120.605 471.625 119.833C473.761 119.553 474.207 121.62 475.366 127.259C476.413 132.215 477.251 140.619 479.191 140.661Z" fill="#263238"/>
<path d="M482.807 118.841L489.787 115.114C489.564 114.646 489.25 114.228 488.861 113.885C488.472 113.543 488.018 113.283 487.526 113.121C487.034 112.959 486.514 112.899 485.998 112.944C485.482 112.989 484.98 113.138 484.524 113.383C483.598 113.905 482.906 114.76 482.588 115.773C482.269 116.787 482.347 117.884 482.807 118.841Z" fill="#263238"/>
<path d="M457.958 162.829C457.958 162.829 468.274 160.749 471.918 158.837C474.033 157.732 475.765 156.014 476.888 153.909C476.356 156.013 475.406 157.988 474.096 159.716C471.457 163.081 458.028 165.775 458.028 165.775L457.958 162.829Z" fill="#9A4A4D"/>
<path d="M456.981 135.566C457 135.969 457.137 136.359 457.375 136.686C457.614 137.012 457.943 137.262 458.321 137.403C458.7 137.545 459.112 137.572 459.506 137.482C459.9 137.391 460.259 137.187 460.539 136.895C460.818 136.602 461.005 136.234 461.077 135.836C461.149 135.438 461.103 135.028 460.944 134.656C460.786 134.284 460.521 133.967 460.184 133.744C459.846 133.521 459.451 133.402 459.047 133.402C458.486 133.416 457.955 133.652 457.567 134.058C457.18 134.463 456.969 135.005 456.981 135.566Z" fill="#263238"/>
<path d="M458.754 129.507L463.165 131.95C463.478 131.337 463.539 130.627 463.336 129.97C463.132 129.312 462.68 128.761 462.076 128.432C461.788 128.281 461.473 128.189 461.149 128.161C460.825 128.133 460.498 128.171 460.189 128.271C459.879 128.371 459.593 128.532 459.346 128.744C459.1 128.956 458.898 129.216 458.754 129.507Z" fill="#263238"/>
<path d="M458.893 150.419L454.175 152.164C454.278 152.481 454.444 152.773 454.663 153.025C454.882 153.276 455.149 153.48 455.449 153.626C455.748 153.772 456.074 153.856 456.407 153.874C456.739 153.891 457.072 153.841 457.385 153.728C458.011 153.472 458.515 152.987 458.795 152.372C459.076 151.757 459.11 151.059 458.893 150.419Z" fill="#9A4A4D"/>
<path d="M440.173 131.043L444.807 128.949C444.693 128.635 444.515 128.348 444.285 128.105C444.055 127.863 443.777 127.671 443.47 127.54C443.162 127.409 442.831 127.342 442.497 127.345C442.163 127.347 441.833 127.418 441.527 127.553C440.888 127.84 440.388 128.367 440.134 129.02C439.881 129.673 439.895 130.4 440.173 131.043Z" fill="#263238"/>
<path d="M441.136 135.566C441.155 135.969 441.292 136.359 441.531 136.686C441.769 137.012 442.098 137.262 442.477 137.403C442.856 137.545 443.268 137.572 443.662 137.482C444.056 137.391 444.415 137.187 444.694 136.895C444.973 136.602 445.161 136.234 445.233 135.836C445.305 135.438 445.259 135.028 445.1 134.656C444.941 134.284 444.676 133.967 444.339 133.744C444.002 133.521 443.606 133.402 443.202 133.402C442.642 133.416 442.11 133.652 441.723 134.058C441.336 134.463 441.125 135.005 441.136 135.566Z" fill="#263238"/>
<path d="M450.95 134.449L450.28 146.873L443.788 144.654L450.95 134.449Z" fill="#9A4A4D"/>
<path d="M451.536 183.071C452.807 186.073 455.138 187.259 459.382 187.776C461.511 187.927 463.648 187.643 465.664 186.942C467.679 186.241 469.532 185.138 471.108 183.7L467.102 179.707L459.144 183.49L456.981 178.409L451.536 183.071Z" fill="#37474F"/>
<path d="M454.859 181.48C454.249 183.275 454.012 185.175 454.161 187.064C454.36 188.772 455.011 190.395 456.045 191.769C456.714 192.197 457.473 192.465 458.263 192.549C459.053 192.634 459.852 192.534 460.596 192.257C461.956 191.092 463.048 189.647 463.798 188.021C464.547 186.394 464.936 184.625 464.938 182.834L459.144 183.49L454.859 181.48Z" fill="#455A64"/>
<path d="M456.045 191.769C451.536 209.442 448.814 239.512 449.358 242.541C449.903 245.57 453.295 256.501 455.906 256.501C458.516 256.501 463.109 245.682 462.76 242.918C462.104 237.655 459.507 191.741 460.596 192.215L456.045 191.769Z" fill="#455A64"/>
<path d="M460.596 192.257C459.861 192.582 459.054 192.708 458.255 192.622C457.456 192.537 456.694 192.242 456.045 191.769L455.892 192.355C456.457 192.945 457.176 193.367 457.968 193.571C458.759 193.776 459.592 193.756 460.373 193.514L460.596 192.257Z" fill="#37474F"/>
<path d="M459.144 183.49C467.325 179.372 477.209 173.355 478.521 166.738L478.591 163.053C478.591 163.053 481.802 164.072 482.639 169.474C481.941 177.571 476.315 185.891 469 190.065L464.938 182.876L459.144 183.49Z" fill="#E0E0E0"/>
<path d="M457.972 165.37C456.653 165.912 455.512 166.811 454.677 167.967C449.777 174.5 450.238 185.668 450.238 185.668L454.859 181.48L459.144 183.546C457.545 179.948 457.125 175.936 457.944 172.085L457.972 165.37Z" fill="#E0E0E0"/>
<path d="M502.127 173.327C508.521 174.975 512.751 175.491 517.134 183.853C520.945 191.126 538.535 221.545 542.262 228.846C544.133 232.462 545.99 236.594 541.048 241.606C537.083 245.598 510.992 270.098 506.734 274.286C503.672 277.532 499.512 279.523 495.063 279.87C488.432 280.456 485.194 278.111 484.021 276.673C477.041 268.032 490.443 266.72 495.063 263.858C497.203 262.55 499.116 260.904 500.731 258.986L500.452 254.407C500.452 254.407 505.338 254.407 506.902 253.165C508.465 251.922 522.383 233.83 522.383 233.83C522.383 233.83 502.476 207.627 499.922 202.141C497.367 196.655 494.463 177.543 502.127 173.327Z" fill="#B16668"/>
<path d="M510.475 247.888L507.278 252.271C507.152 255.065 508.079 257.805 509.875 259.949C511.731 262.333 514.122 264.246 516.855 265.533L521.043 261.499L510.475 247.888Z" fill="#EBEBEB"/>
<path d="M508.633 249.563C508.633 249.563 509.666 261.038 519.563 264.207C519.563 264.207 543.1 241.745 545.306 238.702C547.511 235.659 545.976 232.462 541.243 224.156C536.511 215.85 517.916 181.941 514.831 178.409C511.746 174.877 506.762 174.221 499.6 172.685C496.099 179.103 495.043 186.572 496.627 193.709C499.419 205.184 501.974 208.227 501.974 208.227L520.247 234.123L508.633 249.563Z" fill="#37474F"/>
<path d="M321.792 396.059C321.876 397.503 321.511 398.937 320.745 400.163C318.824 403.357 316.559 406.33 313.988 409.028C310.373 412.923 304.956 417.516 301.075 420.894C298.925 422.779 298.842 425.626 301.927 426.618C307.674 428.03 313.744 427.186 318.888 424.258C322.741 422.192 328.228 412.63 331.452 411.178C335.124 409.517 337.19 408.679 338.432 406.99C340.289 404.449 340.764 402.551 339.172 399.591C337.441 396.366 334.831 391.383 333.756 391.927L334.091 392.96C333.253 395.598 326.064 398.67 322.378 397.93L321.792 396.059Z" fill="#37474F"/>
<path d="M349.935 413.928V412.155C349.586 414.849 346.013 423.128 341.127 427.595C337.232 431.141 331.927 435.231 330.573 439.182C329.219 443.132 336.841 444.933 341.866 444.43C346.752 443.831 351.253 441.474 354.528 437.799C357.725 434.142 357.669 431.629 359.163 429.619C360.657 427.609 364.091 425.333 364.9 423.002C365.347 421.718 364.817 418.912 364.189 416.538C363.56 414.165 363.002 411.96 362.262 412.155V413.551C360.504 414.929 358.326 415.663 356.092 415.631C354.291 415.659 349.921 415.296 349.935 413.928Z" fill="#37474F"/>
<path d="M370.149 284.784C371.95 267.125 375.566 239.107 371.545 219.326C351.136 216.24 330.922 213.476 310.289 210.95C305.319 236.58 302.946 304.845 305.556 314.407C312.788 343.723 316.487 365.612 320.801 394.845C321.2 396.8 320.862 398.833 319.851 400.554C318.216 403.403 316.258 406.054 314.016 408.456C312.285 410.298 310.652 412.35 308.781 414.151C308.595 414.331 308.45 414.548 308.356 414.789C308.262 415.031 308.221 415.289 308.237 415.547C308.586 418.339 312.62 417.893 315.44 416.943C319.011 415.606 322.102 413.234 324.319 410.131C326.203 407.73 329.903 403.388 331.857 400.82C332.636 399.836 333.319 398.779 333.895 397.665C334.553 396.2 334.687 394.553 334.272 393.002C334.195 392.596 334.139 392.186 334.105 391.773C333.993 387.767 337.986 344.156 336.799 334.202C335.501 323.397 334.007 320.326 330.391 311.294C332.932 292.685 335.333 272.946 337.818 254.058C338.251 274.468 338.335 297.753 340.959 317.339C343.053 333.016 344.072 343.863 345.733 359.219C347.325 373.947 349.251 401.099 349.433 405.133C349.588 407.68 349.513 410.236 349.209 412.769C347.986 418.415 345.189 423.599 341.14 427.72C340.205 428.572 339.186 429.451 338.167 430.345C336.101 432.648 336.687 434.659 341.545 435.077C346.403 435.496 350.689 432.565 354.375 428.097C356.022 426.087 362.262 415.785 362.262 413.691C362.262 413.076 362.262 412.504 362.262 412.001C362.3 408.165 362.641 404.337 363.281 400.554C365.319 388.493 369.703 366.743 370.429 357.097C371.587 341.741 370.429 334.328 366.534 322.197C368.013 307.12 368.39 301.941 370.149 284.784Z" fill="#FFA8A7"/>
<path d="M313.053 200.131C309.569 213.266 307.21 226.674 306.003 240.21C304.23 261.652 302.374 305.263 303.211 309.563C304.049 313.863 316.627 367.804 316.627 367.804C319.955 369.43 323.713 369.963 327.362 369.326C330.42 368.666 333.31 367.383 335.85 365.557C335.85 365.557 338.558 341.029 337.553 331.466C336.548 321.904 331.759 310.526 331.759 310.526L337.832 253.974C337.832 253.974 337.078 287.618 338.949 307.288C340.819 326.957 347.046 372.788 347.046 372.788C348.253 374.119 349.734 375.174 351.387 375.88C353.04 376.585 354.826 376.926 356.622 376.878C360.598 376.826 364.506 375.836 368.027 373.988C368.027 373.988 370.233 363.77 371.155 355.701C372.454 344.675 371.31 333.498 367.804 322.965C367.804 322.965 372.453 269.33 374.086 257.618C375.719 245.905 379.935 224.896 366.548 205.449C365.249 204.905 313.053 200.131 313.053 200.131Z" fill="#37474F"/>
<path d="M337.832 253.974V251.448C337.832 251.448 325.268 247.511 319.223 239.735C319.223 239.735 322.113 247.12 334.579 253.974C334.579 253.974 334.314 287.087 334.342 286.738C334.37 286.389 337.832 253.974 337.832 253.974Z" fill="#263238"/>
<path d="M306.101 145.728C301.62 158.921 294.137 196.822 294.137 196.822C294.137 196.822 280.177 217.19 275.403 223.039C273.016 225.984 267.851 231.834 267.851 231.834L279.535 241.019C287.995 231.247 300.754 218.279 306.059 211.55C308.572 208.325 310.666 205.561 311.336 202.727L316.655 169.014C316.655 169.014 316.655 142.071 320.843 138.525C325.031 134.979 326.147 134.253 326.147 134.253C320.745 133.876 309.619 135.412 306.101 145.728Z" fill="#FFA8A7"/>
<path d="M328.479 133.876C321.192 133.039 311.866 133.178 307.315 141.331C302.764 149.484 295.184 191.475 295.184 191.475C295.184 191.475 302.346 197.059 310.093 196.962L328.479 133.876Z" fill="#455A64"/>
<path d="M308.223 173.104C309.54 179.379 310.052 185.797 309.744 192.201C309.158 200.577 303.169 216.073 303.169 216.073C303.169 216.073 307.888 220.359 320.731 218.348C331.173 216.715 327.488 185.193 321.485 179.093C317.984 175.486 313.243 173.346 308.223 173.104Z" fill="#37474F"/>
<path d="M347.143 134.477C347.143 134.477 364.593 136.487 366.687 137.422C350.326 148.925 363.574 174.542 363.574 174.542L357.306 194.184C361.327 199.349 365.04 203.286 368.167 207.599C370.604 210.849 372.573 214.425 374.016 218.223C378.204 229.153 331.508 246.52 306.017 226.389C307.036 220.065 308.656 213.49 310.107 207.599C312.104 199.433 313.807 192.55 313.235 189.353C305.905 166.78 305.459 162.718 306.757 157.678C310.415 143.509 324.905 133.946 328.423 133.946L347.143 134.477Z" fill="#BAE8E8"/>
<path d="M347.143 134.477C347.143 134.477 363.477 135.873 366.687 137.422C369.898 138.972 375.217 148.144 370.443 161.531C365.668 174.919 361.355 190.638 361.843 193.807C362.332 196.976 373.709 213.351 373.709 213.351C370.401 215.487 366.897 217.706 363.239 218.376L357.376 205.603L358.772 219.13C358.772 219.13 348.288 221.671 340.792 221.029C340.778 221.029 335.235 169.125 347.143 134.477Z" fill="#455A64"/>
<path d="M305.724 129.605H332.751C336.978 129.605 341.164 128.772 345.07 127.154C348.975 125.536 352.524 123.165 355.514 120.176C358.503 117.187 360.874 113.638 362.492 109.732C364.11 105.826 364.942 101.64 364.942 97.4129C364.939 89.5612 361.818 82.0321 356.266 76.4801C350.714 70.9281 343.185 67.8074 335.333 67.8037C331.445 67.8037 327.595 68.5696 324.002 70.0576C320.41 71.5456 317.146 73.7266 314.396 76.476C311.647 79.2255 309.466 82.4896 307.978 86.0819C306.49 89.6743 305.724 93.5245 305.724 97.4129V129.605Z" fill="#263238"/>
<path d="M317.046 81.1774C313.905 83.0201 310.066 90.9494 310.429 107.38C310.75 121.34 315.287 124.802 317.562 125.808C319.838 126.813 324.221 126.198 328.479 125.486V133.862C328.479 133.862 322.588 140.703 322.895 144.556C323.202 148.409 331.396 149.302 336.855 145.547C342.313 141.792 347.018 134.463 347.018 134.463L346.934 115.184C346.934 115.184 349.433 117.613 353.691 113.9C357.208 110.828 358.395 105.649 355.659 102.857C354.948 102.191 354.089 101.704 353.153 101.437C352.217 101.169 351.23 101.128 350.275 101.318C349.319 101.508 348.423 101.922 347.66 102.527C346.897 103.132 346.289 103.911 345.887 104.798C345.887 104.798 343.514 98.2226 333.686 95.0257C324.961 92.136 320.145 88.7856 317.046 81.1774Z" fill="#FFA8A7"/>
<path d="M326.413 103.304C326.41 103.649 326.509 103.987 326.698 104.276C326.886 104.565 327.155 104.792 327.471 104.929C327.787 105.067 328.137 105.108 328.477 105.048C328.816 104.989 329.131 104.83 329.381 104.593C329.631 104.356 329.807 104.051 329.885 103.715C329.963 103.379 329.941 103.027 329.821 102.704C329.701 102.381 329.489 102.1 329.21 101.896C328.932 101.693 328.6 101.575 328.255 101.559C327.78 101.548 327.32 101.725 326.974 102.052C326.629 102.379 326.427 102.829 326.413 103.304Z" fill="#263238"/>
<path d="M325.561 115.714L321.485 117.013C321.557 117.287 321.684 117.543 321.858 117.767C322.032 117.99 322.249 118.176 322.497 118.313C322.745 118.45 323.018 118.536 323.3 118.564C323.582 118.592 323.867 118.563 324.137 118.479C324.687 118.293 325.143 117.901 325.409 117.385C325.675 116.869 325.729 116.27 325.561 115.714Z" fill="#F28F8F"/>
<path d="M312.187 99.116L315.747 96.6451C315.599 96.4058 315.403 96.1994 315.172 96.0386C314.941 95.8777 314.68 95.7657 314.404 95.7095C314.128 95.6533 313.844 95.654 313.568 95.7117C313.293 95.7693 313.032 95.8827 312.802 96.0448C312.326 96.3807 311.996 96.8865 311.882 97.4579C311.768 98.0293 311.877 98.6228 312.187 99.116Z" fill="#263238"/>
<path d="M331.145 99.7721L327.585 97.3012C327.736 97.0631 327.934 96.8579 328.166 96.698C328.399 96.5381 328.661 96.4268 328.937 96.3708C329.214 96.3147 329.499 96.3151 329.775 96.3718C330.051 96.4285 330.313 96.5405 330.545 96.7009C331.019 97.0389 331.345 97.5457 331.457 98.1169C331.568 98.6882 331.457 99.2805 331.145 99.7721Z" fill="#263238"/>
<path d="M313.123 102.913C313.121 103.257 313.219 103.595 313.407 103.883C313.595 104.172 313.863 104.399 314.178 104.537C314.494 104.674 314.843 104.716 315.182 104.658C315.521 104.599 315.836 104.442 316.086 104.206C316.337 103.97 316.513 103.666 316.593 103.331C316.673 102.996 316.652 102.646 316.534 102.322C316.417 101.999 316.206 101.717 315.93 101.512C315.654 101.307 315.323 101.187 314.979 101.168C314.503 101.157 314.041 101.333 313.693 101.66C313.346 101.987 313.141 102.437 313.123 102.913Z" fill="#263238"/>
<path d="M321.597 101.587L321.317 112.169L315.747 110.438L321.597 101.587Z" fill="#F28F8F"/>
<path d="M328.479 125.486C332.974 124.886 342.229 122.234 343.667 118.506C343.088 120.354 341.958 121.981 340.429 123.169C337.637 125.542 328.479 128.209 328.479 128.209V125.486Z" fill="#F28F8F"/>
<path d="M388.772 198.232C390.056 190.526 388.772 188.013 386.05 180.461L370.903 189.312C370.903 189.312 373.123 194.993 372.941 198.232C372.816 200.438 369.8 222.508 366.953 230.2C366.438 231.558 365.445 232.68 364.161 233.355C360.712 235.198 359.233 237.222 356.58 239.651C354.486 241.55 352.797 241.941 353.007 242.611C353.333 243.351 353.928 243.941 354.67 244.262C355.413 244.583 356.25 244.611 357.013 244.342C358.713 243.799 360.344 243.059 361.871 242.136C360.519 245.04 358.709 247.708 356.511 250.038C351.499 255.384 351.052 258.86 360.391 259.586C366.227 260.033 371.155 256.794 376.431 244.23C378.075 239.61 379.427 234.892 380.48 230.103C383.3 219.032 387.474 205.966 388.772 198.232Z" fill="#FFA8A7"/>
<path d="M366.673 137.422C373.249 140.382 375.468 146.063 378.86 154.984C382.029 163.36 389.051 188.949 389.051 188.949C389.051 188.949 381.094 196.808 371.964 194.533L360.322 166.124C360.322 166.124 354.849 147.557 366.673 137.422Z" fill="#37474F"/>
<path d="M130.791 514.51C129.8 514.887 129.228 516.771 128.781 521.364C128.502 524.156 127.539 527.967 131.88 530.271C133.467 531.089 135.23 531.508 137.016 531.491C138.801 531.474 140.556 531.022 142.127 530.173C145.882 527.842 147.055 522.523 151.466 519.005C155.333 515.976 161.545 512.946 163.709 508.27C165.496 504.417 165.496 498.903 159.088 499.196C151.285 499.559 146.859 505.715 141.568 505.841C138.609 505.952 131.796 514.147 130.791 514.51Z" fill="#263238"/>
<path d="M130.805 512.248V516.883C130.805 519.145 140.438 522.467 143.132 517.344C143.341 516.897 144.388 510.559 144.388 510.559L130.805 512.248Z" fill="#FFBDA7"/>
<path d="M175.435 541.48C175.435 541.48 173.607 541.481 172.895 548.949C172.615 551.741 171.931 557.632 172.895 559.754C173.858 561.876 179.135 562.797 185.04 563.328C189.451 563.719 193.416 565.855 197.506 568.158C201.373 570.339 205.716 571.538 210.154 571.648C215.738 571.648 220.47 571.09 224.449 567.935C226.571 566.259 229.251 562.728 227.241 560.075C226.423 559.265 225.384 558.716 224.253 558.498C221.769 557.576 219.27 556.725 216.729 555.929C212.943 554.815 209.247 553.415 205.673 551.741C200.466 549.172 194.658 546.297 190.722 541.899L175.435 541.48Z" fill="#263238"/>
<path d="M175.463 537.614C175.463 537.614 175.463 541.048 175.463 543.016C175.463 544.984 177.753 547.916 183.755 547.735C187.943 547.609 190.917 546.492 190.735 543.016V538.004L175.463 537.614Z" fill="#FFBDA7"/>
<path d="M128.111 450.768C129.175 442.572 131.045 434.502 133.695 426.673C133.695 426.673 132.145 405.845 131.461 386.106C130.842 365.881 131.406 345.637 133.15 325.477C133.15 325.477 200.158 319.112 201.317 343.765C202.476 368.418 200.829 431.113 199.921 441.932C199.014 452.751 198.19 462.872 195.901 483.03C193.932 500.368 190.749 538.004 190.749 538.004C188.356 539.212 185.702 539.808 183.022 539.74C180.343 539.672 177.722 538.941 175.393 537.614C175.393 537.614 170.34 487.078 169.809 474.598C169.056 458.404 172.839 449.47 172.839 449.47C172.839 449.47 171.443 439.293 168.902 418.353C167.143 403.556 164.798 386.706 164.798 386.706C164.798 386.706 162.508 407.562 161.112 419.191C159.828 429.968 157.636 438.484 154.398 458.572C151.606 476.008 143.942 512.89 143.942 512.89C136.054 517.078 130.777 512.248 130.777 512.248C130.777 512.248 125.905 465.887 128.111 450.768Z" fill="#37474F"/>
<path d="M164.826 386.692L161.657 366.115C161.657 366.115 148.604 361.927 141.959 354.193C141.959 354.193 145.505 363.239 157.664 368.153L162.536 385.491L163.374 399.8L164.826 386.692Z" fill="#263238"/>
<path d="M146.943 242.904C136.487 240.377 129.87 245.445 126.003 259.656C122.694 271.857 117.85 297.097 115.966 306.52C115.268 310.01 113.9 314.016 121.243 318.414C131.891 324.576 142.881 330.127 154.16 335.04L158.181 320.005L141.959 286.738L146.943 242.904Z" fill="#BAE8E8"/>
<path opacity="0.25" d="M146.943 242.904C136.487 240.377 129.87 245.445 126.003 259.656C122.694 271.857 117.85 297.097 115.966 306.52C115.268 310.01 113.9 314.016 121.243 318.414C131.891 324.576 142.881 330.127 154.16 335.04L158.181 320.005L141.959 286.738L146.943 242.904Z" fill="black"/>
<path d="M175.84 236.217L172.713 258.232L152.904 257.548L154.816 231.834L175.84 236.217Z" fill="#FFBDA7"/>
<path d="M190.051 209.051C190.051 209.051 195.37 216.841 194.784 217.622C194.198 218.404 190.4 219.158 190.4 219.158L190.051 209.051Z" fill="#F0997A"/>
<path d="M181.745 207.767C181.726 206.489 182.086 205.233 182.78 204.16C183.475 203.087 184.471 202.243 185.645 201.736C186.818 201.229 188.116 201.082 189.373 201.312C190.631 201.543 191.791 202.141 192.709 203.031C193.626 203.921 194.259 205.063 194.527 206.313C194.796 207.563 194.688 208.864 194.216 210.052C193.745 211.241 192.932 212.262 191.88 212.989C190.828 213.715 189.585 214.113 188.306 214.132C187.458 214.145 186.615 213.991 185.825 213.678C185.036 213.365 184.317 212.9 183.707 212.309C183.098 211.718 182.611 211.012 182.274 210.233C181.938 209.454 181.758 208.616 181.745 207.767ZM183.141 207.767C183.158 208.76 183.469 209.727 184.035 210.544C184.601 211.361 185.396 211.992 186.321 212.357C187.245 212.722 188.257 212.804 189.229 212.594C190.2 212.384 191.087 211.891 191.778 211.176C192.469 210.462 192.933 209.558 193.111 208.581C193.288 207.603 193.172 206.594 192.777 205.682C192.381 204.77 191.724 203.996 190.889 203.458C190.053 202.92 189.077 202.641 188.083 202.657C186.76 202.69 185.503 203.244 184.586 204.198C183.668 205.152 183.164 206.429 183.183 207.753L183.141 207.767Z" fill="#263238"/>
<path d="M175.31 187.497C185.836 189.549 188.949 194.114 190.191 210.782C191.503 228.19 189.814 233.69 187.567 236.078C186.045 237.683 177.46 238.102 173.104 236.985C167.66 235.589 155.333 231.401 149.456 222.746C142.476 212.541 140.549 198.595 147.683 192.746C157.748 184.509 171.024 186.673 175.31 187.497Z" fill="#FFBDA7"/>
<path d="M175.673 237.432C180.21 237.92 186.296 237.432 187.567 236.036C182.499 236.357 176.287 233.816 176.287 233.816L175.673 237.432Z" fill="#F0997A"/>
<path d="M191.824 191.699L191.503 192.034C189.423 194.072 186.743 195.384 184.523 197.311C182.156 199.456 180.468 202.246 179.665 205.338C178.981 207.878 178.744 210.922 176.008 212.094C176.008 212.094 174.165 205.38 168.497 206.315C162.829 207.25 162.145 214.565 165.817 218.879C169.488 223.192 172.797 221.489 172.797 221.489C172.797 221.489 172.797 231.136 168.609 236.65C168.609 236.65 163.779 238.297 154.816 236.538C149.232 235.449 141.429 228.721 138.064 221.503C130.917 206.231 130.219 192.411 139.963 188.097C140.912 181.005 146.44 177.739 152.778 176.175C162.257 173.844 171.247 179.344 180.614 177.097C182.583 176.622 184.481 175.882 186.478 175.603C186.701 175.54 186.938 175.54 187.162 175.603C187.65 175.84 187.622 176.524 187.497 176.999C187.018 178.892 186.094 180.643 184.802 182.108C188.411 182.265 192.017 181.754 195.44 180.601C195.692 182.603 195.499 184.636 194.874 186.554C194.249 188.473 193.207 190.229 191.824 191.699Z" fill="#263238"/>
<path d="M141.387 191.587L135.049 187.985C135.286 187.569 135.602 187.204 135.979 186.91C136.357 186.616 136.789 186.399 137.251 186.272C137.712 186.145 138.194 186.11 138.669 186.169C139.144 186.229 139.603 186.381 140.019 186.617C140.435 186.854 140.8 187.17 141.094 187.548C141.388 187.925 141.605 188.357 141.732 188.819C141.859 189.28 141.894 189.762 141.835 190.237C141.776 190.712 141.623 191.171 141.387 191.587Z" fill="#263238"/>
<path d="M176.147 215.863L175.84 208.576C176.319 208.556 176.796 208.63 177.246 208.795C177.696 208.959 178.109 209.211 178.462 209.535C178.814 209.859 179.099 210.249 179.301 210.684C179.503 211.118 179.617 211.588 179.637 212.066C179.657 212.545 179.583 213.023 179.419 213.472C179.254 213.922 179.003 214.335 178.679 214.688C178.355 215.04 177.964 215.326 177.53 215.527C177.096 215.729 176.626 215.843 176.147 215.863Z" fill="#263238"/>
<path d="M194.044 206.231L174.556 209.065L175.366 210.419L194.072 207.697L194.044 206.231Z" fill="#263238"/>
<path d="M131.043 254.421C133.36 245.375 136.627 242.429 144.486 242.22C148.543 242.496 152.58 243.014 156.575 243.77C157.399 247.581 167.269 250.177 177.25 248.111C180.224 248.977 188.083 251.126 190.54 252.02C197.604 254.575 201.038 261.918 201.499 285.203C201.499 285.203 202.895 340.429 201.499 349.963C183.686 356.943 165.203 356.594 154.984 354.319C133.737 349.558 131.252 340.722 131.252 340.722C131.252 340.722 132.369 318.553 133.081 301.704C132.02 290.968 130.414 282.899 129.842 274.328C129.318 267.669 129.723 260.969 131.043 254.421Z" fill="#BAE8E8"/>
<path d="M251.601 250.61C253.318 246.254 255.789 238.493 259.893 233.188C263.998 227.883 265.477 223.988 267.055 226.306C269.177 229.377 264.388 235.519 265.449 236.078C266.51 236.636 270.503 244.775 270.908 249.27C271.313 253.765 259.405 265.072 259.405 265.072L251.601 250.61Z" fill="#FFBDA7"/>
<path d="M190.54 252.02C194.178 252.719 197.582 254.322 200.438 256.683C205.393 260.871 230.41 280.415 230.41 280.415L252.885 247.818L263.886 260.48C263.886 260.48 247.413 291.834 240.517 303.56C238.367 307.232 232.923 307.916 223.528 302.499C215.71 297.99 190.024 281.866 190.024 281.866C190.024 281.866 183.616 263.23 190.54 252.02Z" fill="#FFBDA7"/>
<path d="M189.186 251.559C191.782 251.707 194.322 252.377 196.655 253.528C200.382 255.426 230.41 279.856 230.41 279.856L238.074 269.344C244.258 270.908 248.795 273.742 253.542 279.982C253.542 279.982 245.166 297.865 241.648 303.881C238.13 309.898 235.086 308.6 228.414 305.724C221.741 302.848 194.225 286.738 194.225 286.738C194.225 286.738 186.394 281.392 185.165 272.457C182.876 255.468 189.186 251.559 189.186 251.559Z" fill="#BAE8E8"/>
<path opacity="0.1" d="M189.186 251.559C191.782 251.707 194.322 252.377 196.655 253.528C200.382 255.426 230.41 279.856 230.41 279.856L238.074 269.344C244.258 270.908 248.795 273.742 253.542 279.982C253.542 279.982 245.166 297.865 241.648 303.881C238.13 309.898 235.086 308.6 228.414 305.724C221.741 302.848 194.225 286.738 194.225 286.738C194.225 286.738 186.394 281.392 185.165 272.457C182.876 255.468 189.186 251.559 189.186 251.559Z" fill="black"/>
<path opacity="0.1" d="M230.41 279.856C232.649 282.035 234.769 284.332 236.762 286.738C236.762 286.738 236.594 282.439 231.736 278.041L230.41 279.856Z" fill="black"/>
<path d="M238.074 269.344L241.983 263.676C245.227 264.187 248.312 265.433 251.001 267.32C253.483 268.883 255.529 271.049 256.948 273.616L253.542 279.982C249.389 275.162 244.061 271.497 238.074 269.344Z" fill="#BAE8E8"/>
<path opacity="0.25" d="M238.074 269.344L241.983 263.676C245.227 264.187 248.312 265.433 251.001 267.32C253.483 268.883 255.529 271.049 256.948 273.616L253.542 279.982C249.389 275.162 244.061 271.497 238.074 269.344Z" fill="black"/>
<path d="M254.589 274.328C254.589 274.606 254.478 274.872 254.282 275.068C254.086 275.265 253.819 275.375 253.542 275.375C253.264 275.375 252.998 275.265 252.801 275.068C252.605 274.872 252.495 274.606 252.495 274.328C252.495 274.05 252.605 273.784 252.801 273.588C252.998 273.391 253.264 273.281 253.542 273.281C253.819 273.281 254.086 273.391 254.282 273.588C254.478 273.784 254.589 274.05 254.589 274.328Z" fill="#455A64"/>
<path d="M154.356 238.046L154.188 240.168C154.188 240.168 155.235 243.155 161.168 244.272C171.275 246.157 174.807 243.016 174.807 243.016L175.058 241.201C175.058 241.201 176.036 240.796 177.669 242.052C180.155 244.644 182.486 247.38 184.649 250.247C184.649 250.247 182.722 249.675 176.413 252.369C170.111 254.819 163.168 255.08 156.701 253.109C154.9 252.508 153.288 251.446 152.027 250.028C150.765 248.609 149.898 246.884 149.512 245.026C149.372 243.183 152.611 237.32 154.356 238.046Z" fill="#BAE8E8"/>
<path opacity="0.25" d="M154.356 238.046L154.188 240.168C154.188 240.168 155.235 243.155 161.168 244.272C171.275 246.157 174.807 243.016 174.807 243.016L175.058 241.201C175.058 241.201 176.036 240.796 177.669 242.052C180.155 244.644 182.486 247.38 184.649 250.247C184.649 250.247 182.722 249.675 176.413 252.369C170.111 254.819 163.168 255.08 156.701 253.109C154.9 252.508 153.288 251.446 152.027 250.028C150.765 248.609 149.898 246.884 149.512 245.026C149.372 243.183 152.611 237.32 154.356 238.046Z" fill="black"/>
<path d="M265.114 235.435C265.114 235.435 279.507 234.193 281.615 235.435C283.723 236.678 283.081 242.904 281.615 246.729C280.149 250.554 272.806 253.039 265.994 257.646C265.98 256.962 265.114 235.435 265.114 235.435Z" fill="#FFBDA7"/>
<path d="M265.994 257.618C268.786 255.566 268.786 253.053 269.372 249.046C269.958 245.04 280.917 240.67 281.266 243.714C281.615 246.757 282.662 249.2 279.228 252.816C275.794 256.431 271.033 260.312 265.994 257.618Z" fill="#FFA8A7"/>
<path d="M266.762 231.834C264.137 235.24 263.69 239.26 262.308 241.48C260.926 243.7 258.818 246.254 261.862 246.659C264.905 247.064 268.604 243.099 270.238 239.484C271.083 237.45 272.67 235.813 274.677 234.905C273.281 234.416 273.993 228.679 272.988 227.925C273.03 227.897 267.851 230.005 266.762 231.834Z" fill="#FFA8A7"/>
</svg>
