<svg width="698" height="698" viewBox="0 0 698 698" fill="none" xmlns="http://www.w3.org/2000/svg">
<path d="M349 667.19C530.637 667.19 677.884 582.176 677.884 477.306C677.884 372.436 530.637 287.422 349 287.422C167.363 287.422 20.1164 372.436 20.1164 477.306C20.1164 582.176 167.363 667.19 349 667.19Z" fill="#A8D1D1"/>
<path d="M280.945 621.192C343.58 621.192 394.356 591.879 394.356 555.72C394.356 519.56 343.58 490.247 280.945 490.247C218.31 490.247 167.534 519.56 167.534 555.72C167.534 591.879 218.31 621.192 280.945 621.192Z" fill="#6A9898"/>
<path d="M603.463 473.802L590.159 466.124C590.159 466.124 586.906 437.646 589.07 415.589C592.113 384.598 612.132 347.297 636.004 356.064C659.875 364.831 625.059 396.38 617.311 422.667C609.563 448.954 603.463 473.802 603.463 473.802Z" fill="#BAE8E8"/>
<path opacity="0.15" d="M603.463 473.802L590.159 466.124C590.159 466.124 586.906 437.646 589.07 415.589C592.113 384.598 612.132 347.297 636.004 356.064C659.875 364.831 625.059 396.38 617.311 422.667C609.563 448.954 603.463 473.802 603.463 473.802Z" fill="black"/>
<path d="M596.469 470.578C596.681 470.567 596.881 470.473 597.024 470.316C597.168 470.159 597.244 469.952 597.237 469.74C594.905 400.875 629.191 366.227 629.526 365.892C629.678 365.74 629.763 365.534 629.763 365.319C629.763 365.105 629.678 364.899 629.526 364.747C629.452 364.672 629.364 364.613 629.267 364.572C629.17 364.532 629.066 364.511 628.961 364.511C628.856 364.511 628.752 364.532 628.655 364.572C628.558 364.613 628.469 364.672 628.395 364.747C628.033 365.082 593.258 400.233 595.617 469.796C595.621 469.903 595.646 470.009 595.691 470.107C595.736 470.205 595.8 470.293 595.879 470.366C595.958 470.438 596.051 470.495 596.153 470.531C596.254 470.567 596.361 470.583 596.469 470.578Z" fill="white"/>
<path d="M611.825 478.591L602.36 473.132C602.36 473.132 600.741 453.588 610.331 429.856C618.707 409.196 639.368 392.039 649.782 395.64C660.196 399.242 659.931 406.627 654.85 414.375C649.768 422.122 618.903 440.564 611.825 478.591Z" fill="#BAE8E8"/>
<path d="M606.827 476.525C607.041 476.521 607.245 476.435 607.396 476.283C607.547 476.132 607.633 475.929 607.637 475.715C607.441 432.16 648.33 402.732 648.749 402.439C648.836 402.379 648.911 402.302 648.967 402.213C649.024 402.124 649.062 402.024 649.079 401.919C649.096 401.815 649.092 401.708 649.066 401.605C649.041 401.503 648.994 401.406 648.931 401.322C648.807 401.15 648.621 401.033 648.412 400.996C648.203 400.96 647.988 401.007 647.814 401.127C647.395 401.42 605.836 431.35 606.018 475.715C606.018 475.93 606.103 476.136 606.255 476.287C606.407 476.439 606.613 476.525 606.827 476.525Z" fill="white"/>
<path d="M111.205 456.701L123.49 448.409C123.49 448.409 128.893 416.301 123.867 387.976C116.803 348.246 89.344 335.04 79.572 339.228C69.8 343.416 67.706 355.24 85.9517 377.911C96.7707 391.243 110.828 419.707 111.205 456.701Z" fill="#BAE8E8"/>
<g opacity="0.15">
<path d="M111.205 456.701L123.49 448.409C123.49 448.409 128.893 416.301 123.867 387.976C116.803 348.246 89.344 335.04 79.572 339.228C69.8 343.416 67.706 355.24 85.9517 377.911C96.7707 391.243 110.828 419.707 111.205 456.701Z" fill="black"/>
</g>
<path d="M115.421 440.787H115.296C115.17 440.779 115.048 440.745 114.936 440.686C114.825 440.628 114.727 440.547 114.65 440.448C114.572 440.349 114.516 440.235 114.485 440.113C114.455 439.991 114.45 439.864 114.472 439.74C118.911 402.341 103.123 361.745 85.9378 345.594C85.7724 345.427 85.6796 345.201 85.6796 344.966C85.6796 344.73 85.7724 344.505 85.9378 344.337C86.0197 344.254 86.1174 344.187 86.2253 344.142C86.3331 344.097 86.449 344.073 86.566 344.073C86.683 344.073 86.7988 344.097 86.9067 344.142C87.0145 344.187 87.1123 344.254 87.1942 344.337C104.7 360.782 120.782 402.048 116.287 439.991C116.26 440.205 116.159 440.402 116 440.548C115.842 440.694 115.637 440.779 115.421 440.787Z" fill="white"/>
<path d="M79.0415 478.395C77.0871 479.568 71.3914 475.338 69.814 474.319C67.1104 472.554 64.9082 470.121 63.4203 467.255C61.7511 464.006 61.1316 460.318 61.6474 456.701C61.9333 454.814 62.3484 452.948 62.8898 451.117C63.3784 449.289 63.867 447.46 64.2858 445.617C64.9049 443.825 65.1427 441.923 64.9838 440.033C64.4394 436.306 61.075 433.751 58.0038 431.559C54.6255 429.116 51.0238 425.892 51.0238 421.397C51.196 417.865 52.5478 414.493 54.8628 411.82C56.9568 409.028 59.4696 406.599 61.3542 403.681C62.8279 401.66 63.58 399.202 63.4901 396.701C63.2474 395.16 62.6966 393.683 61.8707 392.36C60.2234 389.456 58.0876 386.776 56.9289 383.691C55.7702 380.605 55.854 376.641 58.3249 374.337C60.2932 372.453 63.2946 372.146 66.0168 372.271C68.582 372.527 71.0599 373.342 73.276 374.659C80.4934 378.498 84.7372 386.873 92.3733 389.791C95.3189 390.908 98.5297 391.103 101.587 391.857C104.644 392.611 107.799 394.105 109.265 396.883C112.155 402.397 107.115 409.349 109.181 415.198C111.024 420.391 116.161 422.29 119.065 426.939C120.243 429.003 120.732 431.39 120.461 433.751C120.297 437.738 119.403 441.66 117.822 445.324C116.005 449.124 113.953 452.807 111.68 456.352C111.68 456.352 79.3347 478.214 79.0415 478.395Z" fill="#BAE8E8"/>
<path d="M97.9154 466.822C97.7981 466.821 97.6823 466.796 97.5746 466.749C97.4669 466.702 97.3694 466.635 97.2877 466.551C97.2061 466.467 97.1418 466.367 97.0986 466.258C97.0554 466.149 97.0341 466.032 97.036 465.915C97.8177 430.568 80.4236 391.927 68.1108 380.759C67.9358 380.601 67.8303 380.381 67.8172 380.145C67.8042 379.91 67.8846 379.679 68.041 379.503C68.1229 379.419 68.2207 379.353 68.3285 379.307C68.4364 379.262 68.5522 379.239 68.6692 379.239C68.7862 379.239 68.9021 379.262 69.0099 379.307C69.1178 379.353 69.2155 379.419 69.2974 379.503C81.8614 390.81 99.6046 430.122 98.8089 465.957C98.8071 466.072 98.7825 466.186 98.7366 466.292C98.6907 466.398 98.6244 466.494 98.5414 466.575C98.4585 466.655 98.3605 466.718 98.2531 466.761C98.1457 466.803 98.0309 466.824 97.9154 466.822Z" fill="white"/>
<path d="M91.3961 423.756C91.3136 423.776 91.2273 423.776 91.1448 423.756C79.7256 420.461 65.5701 420.126 65.4305 420.112C65.3138 420.11 65.1986 420.085 65.0917 420.039C64.9848 419.992 64.8882 419.924 64.8076 419.84C64.7271 419.755 64.6641 419.656 64.6225 419.547C64.5808 419.438 64.5613 419.322 64.565 419.205C64.5628 419.087 64.5851 418.97 64.6305 418.861C64.6759 418.752 64.7434 418.654 64.8287 418.573C64.914 418.491 65.0152 418.429 65.126 418.389C65.2368 418.348 65.3548 418.332 65.4724 418.339C65.612 418.339 79.9908 418.688 91.6334 422.039C91.8584 422.107 92.0476 422.261 92.16 422.467C92.2723 422.673 92.2988 422.916 92.2337 423.142C92.1794 423.321 92.0683 423.478 91.9173 423.588C91.7663 423.699 91.5834 423.758 91.3961 423.756Z" fill="white"/>
<path d="M420.419 432.397L415.129 429.34C414.247 428.767 413.513 427.995 412.987 427.085C412.46 426.175 412.156 425.154 412.099 424.105V204.207C412.157 203.159 412.46 202.14 412.983 201.23C413.507 200.321 414.237 199.547 415.115 198.972L562.183 114.067C563.12 113.592 564.155 113.345 565.205 113.345C566.256 113.345 567.291 113.592 568.228 114.067L573.519 117.124C574.4 117.697 575.134 118.469 575.66 119.379C576.187 120.289 576.491 121.31 576.548 122.359V342.257C576.49 343.305 576.187 344.325 575.664 345.234C575.14 346.143 574.41 346.917 573.533 347.492L426.464 432.411C425.527 432.887 424.491 433.134 423.44 433.131C422.389 433.129 421.354 432.877 420.419 432.397Z" fill="#455A64"/>
<path d="M576.548 121.871C576.339 120.307 575.068 119.735 573.547 120.614L426.464 205.533C425.575 206.091 424.84 206.864 424.328 207.781L412.979 201.233C413.486 200.31 414.222 199.531 415.115 198.972L562.183 114.067C563.12 113.592 564.155 113.345 565.206 113.345C566.256 113.345 567.291 113.592 568.228 114.067L573.519 117.124C574.336 117.65 575.03 118.347 575.553 119.166C576.075 119.985 576.415 120.908 576.548 121.871Z" fill="#455A64"/>
<path d="M425.948 432.648C425.054 433.01 424.093 433.176 423.13 433.135C422.167 433.095 421.223 432.847 420.364 432.411L415.059 429.34C414.181 428.764 413.451 427.991 412.928 427.081C412.404 426.172 412.101 425.153 412.043 424.105V204.207C412.079 203.157 412.382 202.134 412.923 201.233L424.272 207.781C423.721 208.682 423.413 209.712 423.379 210.768V430.666C423.435 432.397 424.524 433.193 425.948 432.648Z" fill="#263238"/>
<path d="M423.435 210.796V430.666C423.435 432.592 424.831 433.374 426.464 432.411L573.533 347.492C574.41 346.917 575.14 346.143 575.664 345.234C576.187 344.325 576.49 343.305 576.548 342.257V122.359C576.548 120.433 575.152 119.651 573.533 120.614L426.464 205.533C425.579 206.108 424.843 206.885 424.316 207.8C423.789 208.715 423.487 209.742 423.435 210.796Z" fill="#37474F"/>
<path d="M389.093 294.556C387.195 293.425 378.386 288.414 377.925 288.148C377.566 287.934 377.26 287.642 377.029 287.294C376.798 286.945 376.648 286.55 376.59 286.136C376.533 285.721 376.569 285.3 376.696 284.902C376.823 284.503 377.038 284.139 377.325 283.835L412.099 246.534L423.435 253.039L388.674 290.368C388.401 290.659 388.194 291.004 388.066 291.382C387.937 291.76 387.892 292.16 387.931 292.557C387.971 292.954 388.095 293.338 388.296 293.683C388.496 294.027 388.768 294.325 389.093 294.556Z" fill="#455A64"/>
<path d="M423.435 253.081L388.674 290.368C388.288 290.78 388.036 291.3 387.952 291.858C387.867 292.416 387.953 292.987 388.2 293.495C388.446 294.003 388.841 294.425 389.332 294.704C389.823 294.983 390.387 295.107 390.95 295.059L423.435 292.378V253.081Z" fill="#37474F"/>
<path d="M499.991 185.947C517.134 176.05 531.024 184.077 531.024 203.872C531.024 223.667 517.134 247.72 499.991 257.618C482.848 267.515 468.958 259.488 468.958 239.707C468.958 219.926 482.848 195.845 499.991 185.947Z" fill="#BAE8E8"/>
<path d="M499.768 201.527C505.352 198.316 509.833 200.912 509.833 207.334C509.643 210.825 508.632 214.221 506.884 217.248C505.135 220.275 502.697 222.848 499.768 224.756C494.184 227.967 489.689 225.37 489.689 218.949C489.881 215.457 490.893 212.059 492.645 209.032C494.396 206.005 496.836 203.433 499.768 201.527Z" fill="white"/>
<path d="M519.619 235.756C519.619 225.217 512.206 220.931 503.077 226.208L497.367 229.502C488.237 234.779 480.824 247.65 480.824 258.162V261.052C482.548 261.603 484.347 261.881 486.157 261.876C491.055 261.709 495.824 260.265 499.991 257.688C507.927 252.8 514.641 246.162 519.619 238.283V235.756Z" fill="white"/>
<path d="M480.336 355.603L519.647 332.904C521.322 331.941 522.676 332.723 522.676 334.649V347.311C522.619 348.36 522.315 349.382 521.789 350.291C521.262 351.201 520.529 351.973 519.647 352.546L480.336 375.245C478.66 376.208 477.306 375.426 477.306 373.5V360.838C477.363 359.789 477.667 358.767 478.194 357.858C478.72 356.948 479.454 356.175 480.336 355.603Z" fill="#BAE8E8"/>
<path d="M461.085 327.32L538.856 282.397C540.852 281.238 542.486 282.173 542.486 284.491V289.195C542.417 290.454 542.053 291.679 541.423 292.771C540.792 293.862 539.913 294.79 538.856 295.477L461.043 340.401C459.047 341.559 457.427 340.624 457.427 338.307V333.644C457.491 332.375 457.856 331.14 458.492 330.04C459.128 328.94 460.017 328.008 461.085 327.32Z" fill="#FAFAFA"/>
<path d="M470.187 294.807C471.248 294.193 472.071 294.095 472.658 294.528C473.244 294.961 473.537 295.924 473.537 297.404C473.567 298.754 473.265 300.092 472.658 301.299C472.109 302.39 471.249 303.293 470.187 303.895L468.093 305.11V309.619C468.089 309.774 468.051 309.927 467.981 310.066C467.932 310.192 467.844 310.299 467.73 310.373L466.669 310.987C466.633 311.014 466.589 311.029 466.543 311.029C466.498 311.029 466.454 311.014 466.418 310.987C466.342 310.892 466.307 310.772 466.32 310.652V297.599C466.319 297.445 466.352 297.292 466.418 297.153C466.47 297.028 466.558 296.922 466.669 296.845L470.187 294.807ZM468.093 302.583L470.117 301.41C470.606 301.134 471.019 300.741 471.318 300.266C471.635 299.705 471.79 299.067 471.764 298.423C471.764 297.669 471.611 297.236 471.318 297.111C471.11 297.06 470.895 297.058 470.686 297.104C470.478 297.15 470.284 297.243 470.117 297.376L468.093 298.549V302.583Z" fill="#FAFAFA"/>
<path d="M479.386 289.489C479.526 289.405 479.638 289.405 479.707 289.489C479.797 289.614 479.859 289.756 479.889 289.907L483.114 300.824C483.114 300.824 483.114 300.908 483.114 300.95C483.112 301.105 483.073 301.258 483.002 301.396C482.953 301.523 482.865 301.63 482.751 301.704L481.801 302.248C481.634 302.346 481.508 302.36 481.438 302.248C481.371 302.178 481.323 302.091 481.299 301.997L480.727 300.084L476.539 302.485L475.98 305.054C475.94 305.193 475.889 305.328 475.827 305.459C475.757 305.629 475.628 305.768 475.464 305.85L474.514 306.394C474.479 306.424 474.435 306.44 474.389 306.44C474.343 306.44 474.298 306.424 474.263 306.394C474.19 306.304 474.155 306.189 474.165 306.073C474.158 306.022 474.158 305.97 474.165 305.919L477.376 291.289C477.415 291.074 477.476 290.864 477.558 290.661C477.626 290.514 477.738 290.392 477.879 290.312L479.386 289.489ZM480.112 297.948L478.716 293.02L477.32 299.61L480.112 297.948Z" fill="#FAFAFA"/>
<path d="M488 284.309C488.467 284.015 488.999 283.837 489.549 283.793C489.939 283.758 490.329 283.846 490.666 284.044C490.972 284.243 491.211 284.53 491.35 284.868C491.503 285.211 491.588 285.581 491.601 285.957C491.611 286.112 491.577 286.266 491.504 286.403C491.454 286.53 491.366 286.637 491.252 286.71L490.331 287.241C490.177 287.325 490.066 287.339 489.996 287.241C489.91 287.184 489.838 287.108 489.787 287.018C489.731 286.892 489.65 286.779 489.549 286.685C489.448 286.592 489.33 286.52 489.2 286.473C488.775 286.412 488.343 286.523 488 286.78C487.773 286.926 487.559 287.09 487.358 287.269C487.15 287.46 486.967 287.675 486.813 287.911C486.665 288.138 486.543 288.382 486.45 288.637C486.368 288.88 486.325 289.134 486.324 289.391C486.308 289.626 486.351 289.861 486.45 290.075C486.493 290.15 486.554 290.213 486.627 290.259C486.7 290.306 486.783 290.333 486.869 290.34C487.128 290.385 487.392 290.385 487.651 290.34L488.865 290.075C489.318 289.941 489.79 289.884 490.261 289.907C490.598 289.906 490.926 290.014 491.197 290.214C491.452 290.429 491.637 290.716 491.727 291.038C491.864 291.49 491.925 291.962 491.908 292.434C491.908 293.058 491.818 293.678 491.643 294.277C491.473 294.892 491.224 295.483 490.903 296.036C490.565 296.602 490.162 297.126 489.703 297.599C489.233 298.086 488.698 298.504 488.111 298.842C487.681 299.104 487.209 299.288 486.715 299.386C486.314 299.463 485.899 299.43 485.515 299.288C485.166 299.126 484.877 298.857 484.691 298.521C484.463 298.09 484.339 297.612 484.328 297.125C484.327 296.966 484.36 296.809 484.426 296.664C484.488 296.545 484.579 296.444 484.691 296.371L485.613 295.84C485.752 295.757 485.864 295.729 485.948 295.771C486.031 295.812 486.087 295.882 486.143 296.008C486.201 296.151 486.276 296.287 486.366 296.413C486.453 296.534 486.575 296.627 486.715 296.678C486.899 296.72 487.09 296.72 487.274 296.678C487.57 296.608 487.853 296.49 488.111 296.329C488.382 296.175 488.639 295.997 488.879 295.798C489.349 295.427 489.722 294.948 489.968 294.402C490.08 294.123 490.137 293.824 490.136 293.523C490.149 293.414 490.139 293.303 490.108 293.197C490.077 293.092 490.025 292.993 489.954 292.909C489.879 292.842 489.79 292.793 489.693 292.764C489.597 292.735 489.495 292.727 489.396 292.741C489.079 292.754 488.765 292.806 488.46 292.895C488.097 292.979 487.679 293.076 487.19 293.16C486.816 293.254 486.429 293.282 486.045 293.244C485.743 293.224 485.457 293.101 485.236 292.895C484.994 292.658 484.825 292.358 484.747 292.029C484.635 291.544 484.583 291.047 484.593 290.549C484.593 289.935 484.682 289.323 484.859 288.735C485.025 288.129 485.269 287.547 485.585 287.004C485.887 286.464 486.252 285.963 486.673 285.51C487.056 285.049 487.503 284.645 488 284.309Z" fill="#FAFAFA"/>
<path d="M497.171 279.032C497.635 278.729 498.168 278.546 498.721 278.502C499.11 278.469 499.5 278.557 499.838 278.753C500.136 278.957 500.369 279.243 500.508 279.577C500.66 279.921 500.746 280.29 500.759 280.666C500.776 280.821 500.741 280.978 500.661 281.113C500.612 281.239 500.524 281.346 500.41 281.42L499.489 281.95C499.349 282.034 499.238 282.062 499.154 281.95C499.065 281.894 498.996 281.811 498.958 281.713C498.831 281.468 498.617 281.279 498.358 281.182C498.15 281.152 497.937 281.163 497.734 281.216C497.53 281.269 497.339 281.362 497.171 281.489C496.938 281.632 496.719 281.795 496.515 281.978C496.312 282.169 496.134 282.385 495.985 282.62C495.831 282.844 495.709 283.089 495.622 283.346C495.535 283.588 495.488 283.843 495.482 284.1C495.466 284.335 495.509 284.57 495.608 284.784C495.651 284.859 495.711 284.922 495.784 284.969C495.857 285.015 495.941 285.042 496.027 285.049C496.285 285.094 496.55 285.094 496.808 285.049L498.023 284.784C498.477 284.657 498.948 284.601 499.419 284.616C499.756 284.613 500.085 284.721 500.354 284.924C500.61 285.142 500.798 285.427 500.899 285.747C501.022 286.202 501.078 286.672 501.066 287.143C501.065 287.767 500.976 288.387 500.801 288.986C500.631 289.601 500.382 290.193 500.061 290.745C499.725 291.316 499.322 291.846 498.861 292.322C498.389 292.797 497.859 293.21 497.283 293.551C496.853 293.812 496.38 293.996 495.887 294.095C495.49 294.171 495.08 294.138 494.7 293.998C494.345 293.84 494.05 293.571 493.863 293.23C493.633 292.8 493.514 292.321 493.514 291.834C493.497 291.678 493.532 291.522 493.612 291.387C493.661 291.261 493.749 291.153 493.863 291.08L494.784 290.549C494.924 290.466 495.05 290.438 495.119 290.48C495.168 290.502 495.211 290.535 495.245 290.576C495.278 290.617 495.302 290.665 495.315 290.717C495.378 290.858 495.453 290.993 495.538 291.122C495.63 291.244 495.756 291.337 495.901 291.387C496.085 291.429 496.276 291.429 496.459 291.387C496.756 291.317 497.039 291.199 497.297 291.038C497.561 290.88 497.813 290.703 498.051 290.508C498.296 290.316 498.512 290.091 498.693 289.838C498.874 289.596 499.024 289.334 499.14 289.056C499.252 288.776 499.308 288.477 499.307 288.176C499.32 288.067 499.311 287.956 499.28 287.85C499.249 287.745 499.196 287.647 499.126 287.562C499.05 287.496 498.961 287.446 498.865 287.417C498.769 287.388 498.667 287.381 498.567 287.395C498.256 287.414 497.947 287.465 497.646 287.548C497.283 287.632 496.85 287.73 496.376 287.813C495.997 287.907 495.605 287.935 495.217 287.897C494.914 287.881 494.627 287.757 494.407 287.548C494.17 287.31 494.006 287.01 493.933 286.683C493.809 286.204 493.752 285.711 493.765 285.217C493.77 284.598 493.859 283.983 494.03 283.388C494.203 282.784 494.447 282.203 494.756 281.657C495.058 281.114 495.429 280.612 495.859 280.163C496.235 279.72 496.678 279.339 497.171 279.032Z" fill="#FAFAFA"/>
<path d="M507.348 280.777L506.218 287.464C506.184 287.665 506.128 287.862 506.05 288.051C505.996 288.201 505.893 288.329 505.757 288.414L504.696 289.028C504.556 289.112 504.459 289.112 504.389 289.028C504.295 288.913 504.241 288.771 504.235 288.623L502.56 276.827C502.56 276.827 502.56 276.715 502.56 276.673C502.564 276.518 502.602 276.365 502.672 276.227C502.725 276.102 502.812 275.996 502.923 275.919L503.886 275.361C503.967 275.328 504.057 275.328 504.137 275.361C504.221 275.361 504.277 275.473 504.305 275.696L505.408 283.639L506.371 277.678C506.396 277.53 506.438 277.385 506.497 277.246C506.552 277.069 506.672 276.92 506.832 276.827L507.907 276.199C508.06 276.115 508.172 276.129 508.242 276.199C508.302 276.287 508.345 276.387 508.367 276.492L509.345 281.336L510.447 272.122C510.461 271.941 510.513 271.765 510.601 271.606C510.666 271.501 510.752 271.411 510.852 271.341L511.815 270.782C511.852 270.755 511.896 270.74 511.941 270.74C511.986 270.74 512.031 270.755 512.067 270.782C512.106 270.828 512.137 270.881 512.156 270.939C512.175 270.996 512.183 271.057 512.178 271.117C512.184 271.173 512.184 271.229 512.178 271.285L510.503 285.007C510.475 285.208 510.424 285.405 510.35 285.594C510.286 285.743 510.179 285.869 510.043 285.957L508.968 286.571C508.842 286.641 508.744 286.641 508.674 286.571C508.604 286.443 508.548 286.307 508.507 286.166L507.348 280.777Z" fill="#FAFAFA"/>
<path d="M513.882 274.858C513.912 274.084 514.006 273.314 514.161 272.555C514.32 271.813 514.564 271.092 514.887 270.405C515.194 269.738 515.589 269.113 516.059 268.549C516.537 267.988 517.108 267.516 517.748 267.153C518.24 266.819 518.816 266.63 519.41 266.608C519.853 266.613 520.278 266.788 520.596 267.097C520.934 267.477 521.178 267.931 521.308 268.423C521.488 269.064 521.587 269.725 521.601 270.391C521.601 270.643 521.601 270.922 521.601 271.229C521.601 271.536 521.601 271.857 521.601 272.192C521.601 272.527 521.601 272.848 521.601 273.155C521.601 273.462 521.601 273.756 521.601 274.021C521.571 274.79 521.478 275.556 521.322 276.31C521.161 277.05 520.922 277.77 520.61 278.46C520.293 279.126 519.894 279.749 519.424 280.317C518.946 280.872 518.38 281.344 517.748 281.713C517.245 282.044 516.661 282.232 516.059 282.257C515.842 282.262 515.626 282.222 515.424 282.14C515.223 282.059 515.04 281.937 514.887 281.783C514.523 281.392 514.272 280.909 514.161 280.387C513.994 279.743 513.901 279.083 513.882 278.418C513.882 278.167 513.882 277.888 513.882 277.581C513.882 277.274 513.882 276.952 513.882 276.617C513.882 276.282 513.882 275.975 513.882 275.654C513.882 275.333 513.868 275.11 513.882 274.858ZM519.828 271.522C519.86 271.18 519.821 270.836 519.716 270.51C519.61 270.184 519.439 269.882 519.214 269.623C518.851 269.302 518.349 269.316 517.748 269.623C517.097 270.006 516.58 270.582 516.269 271.271C515.873 272.085 515.663 272.976 515.654 273.881C515.654 274.398 515.654 274.97 515.654 275.598C515.654 276.227 515.654 276.785 515.654 277.287C515.623 277.629 515.662 277.973 515.767 278.3C515.873 278.626 516.043 278.927 516.269 279.186C516.632 279.493 517.134 279.465 517.748 279.116C518.389 278.731 518.9 278.162 519.214 277.483C519.61 276.674 519.82 275.787 519.828 274.886C519.828 274.356 519.828 273.784 519.828 273.155C519.828 272.527 519.842 272.025 519.828 271.522Z" fill="#FAFAFA"/>
<path d="M527.688 261.582C528.791 260.954 529.614 260.857 530.187 261.317C530.526 261.691 530.778 262.135 530.925 262.618C531.073 263.101 531.111 263.61 531.038 264.109C531.05 265.057 530.904 266.001 530.606 266.901C530.322 267.74 529.881 268.517 529.307 269.191L531.122 273.141C531.128 273.206 531.128 273.272 531.122 273.337C531.123 273.463 531.094 273.587 531.038 273.7C531 273.801 530.932 273.889 530.843 273.951L529.726 274.593C529.545 274.691 529.419 274.705 529.335 274.593C529.261 274.52 529.2 274.435 529.154 274.342L527.437 270.615L525.692 271.62V276.338C525.693 276.493 525.66 276.645 525.594 276.785C525.537 276.906 525.45 277.012 525.343 277.092L524.282 277.706C524.247 277.736 524.202 277.752 524.156 277.752C524.11 277.752 524.066 277.736 524.03 277.706C523.99 277.664 523.96 277.613 523.941 277.558C523.921 277.502 523.914 277.444 523.919 277.385V264.333C523.923 264.177 523.961 264.025 524.03 263.886C524.08 263.76 524.168 263.652 524.282 263.579L527.688 261.582ZM525.72 269.093L527.688 268.032C528.169 267.763 528.58 267.386 528.889 266.929C529.212 266.391 529.367 265.769 529.335 265.142C529.335 264.388 529.182 263.97 528.889 263.886C528.464 263.828 528.033 263.938 527.688 264.193L525.789 265.282L525.72 269.093Z" fill="#FAFAFA"/>
<path d="M537.041 256.208C537.548 255.877 538.128 255.676 538.73 255.622C539.167 255.605 539.593 255.761 539.917 256.054C540.287 256.443 540.543 256.926 540.657 257.45C540.845 258.143 540.948 258.855 540.964 259.572C540.964 260.549 540.964 261.555 540.964 262.574C540.935 263.405 540.833 264.232 540.657 265.045C540.497 265.8 540.254 266.535 539.931 267.236C539.619 267.88 539.225 268.481 538.758 269.023C538.292 269.578 537.735 270.05 537.111 270.419L533.803 272.22C533.767 272.25 533.723 272.266 533.677 272.266C533.631 272.266 533.586 272.25 533.551 272.22C533.51 272.178 533.479 272.127 533.46 272.072C533.441 272.016 533.434 271.957 533.44 271.899V258.846C533.444 258.691 533.482 258.539 533.551 258.4C533.6 258.273 533.688 258.166 533.803 258.092L537.041 256.208ZM539.191 260.549C539.185 260.171 539.129 259.796 539.024 259.433C538.959 259.158 538.818 258.906 538.619 258.707C538.531 258.619 538.426 258.55 538.311 258.505C538.196 258.459 538.073 258.438 537.949 258.441C537.599 258.465 537.262 258.58 536.971 258.777L535.212 259.782V268.884L537.041 267.837C537.395 267.631 537.711 267.366 537.977 267.055C538.237 266.749 538.457 266.411 538.633 266.05C538.807 265.665 538.938 265.262 539.024 264.849C539.121 264.418 539.177 263.979 539.191 263.537C539.233 262.518 539.233 261.527 539.191 260.549Z" fill="#FAFAFA"/>
<path d="M345.342 53.5924C347.752 54.1286 350.074 55.0028 352.239 56.189C354.312 57.3034 356.169 58.7783 357.725 60.5445C359.213 62.2435 360.318 64.2433 360.964 66.4077C361.622 68.7246 361.671 71.1724 361.103 73.5134C360.729 75.3693 359.994 77.1338 358.94 78.7065C357.977 80.0514 356.83 81.2544 355.533 82.2802C354.259 83.2693 352.9 84.143 351.471 84.8908L347.45 87.0266C346.239 87.6583 345.09 88.4014 344.016 89.2463C343.045 89.9912 342.301 90.9918 341.866 92.136C341.654 92.6587 341.301 93.1128 340.847 93.4482C340.633 93.6151 340.383 93.7307 340.117 93.7863C339.851 93.842 339.575 93.8361 339.312 93.7693L333.393 92.4571C333.108 92.3973 332.837 92.2814 332.598 92.116C332.358 91.9506 332.154 91.7391 331.997 91.4938C331.83 91.2658 331.719 91.0017 331.672 90.7228C331.626 90.4439 331.647 90.1581 331.731 89.8884C332.208 88.0553 333.048 86.3368 334.202 84.8349C335.255 83.5065 336.475 82.3194 337.832 81.303C339.154 80.3355 340.555 79.4809 342.02 78.7484C343.416 78.0364 344.812 77.3524 346.027 76.6683C347.156 76.0611 348.219 75.3357 349.195 74.5045C350.053 73.7869 350.647 72.8048 350.885 71.7125C351.107 70.7641 351.096 69.7759 350.853 68.8326C350.609 67.8894 350.141 67.019 349.489 66.296C347.856 64.5138 345.674 63.3294 343.29 62.9317C338.879 61.9545 335.156 63.4389 332.122 67.3849C331.829 67.8156 331.46 68.1894 331.033 68.4878C330.552 68.7266 329.995 68.7667 329.484 68.5994L323.188 67.2034C322.739 67.1167 322.342 66.8557 322.085 66.4775C321.948 66.2755 321.855 66.0462 321.814 65.8053C321.774 65.5645 321.785 65.3176 321.848 65.0815C322.383 63.1417 323.379 61.36 324.751 59.8884C326.299 58.1817 328.138 56.7637 330.182 55.7004C332.417 54.5311 334.826 53.7298 337.315 53.3272C339.983 52.8933 342.709 52.9834 345.342 53.5924ZM338.656 98.5157C339.209 98.6457 339.69 98.9873 339.996 99.4673C340.301 99.9473 340.406 100.528 340.289 101.084L338.781 107.925C338.73 108.211 338.619 108.484 338.456 108.724C338.292 108.965 338.08 109.168 337.832 109.321C337.598 109.482 337.334 109.592 337.055 109.645C336.776 109.698 336.489 109.692 336.213 109.628L329.456 108.078C329.169 108.03 328.895 107.92 328.654 107.756C328.413 107.592 328.211 107.378 328.06 107.129C327.904 106.893 327.797 106.628 327.746 106.35C327.696 106.071 327.703 105.785 327.767 105.51L329.288 98.6693C329.419 98.1148 329.76 97.6327 330.239 97.3252C330.719 97.0177 331.299 96.909 331.857 97.022L338.656 98.5157Z" fill="#BAE8E8"/>
<path d="M352.797 119.079C354.478 118.809 356.188 118.776 357.879 118.981C359.493 119.173 361.061 119.645 362.513 120.377C363.896 121.094 365.113 122.093 366.087 123.309C366.963 124.498 367.579 125.859 367.896 127.301C368.214 128.744 368.225 130.237 367.93 131.685C367.664 132.797 367.236 133.865 366.659 134.854C366.104 135.815 365.459 136.722 364.733 137.562C364.021 138.399 363.337 139.195 362.709 139.963C362.094 140.678 361.547 141.449 361.075 142.266C360.633 142.982 360.41 143.812 360.433 144.654C360.421 145.047 360.311 145.431 360.112 145.77C360.011 145.927 359.878 146.06 359.722 146.161C359.565 146.262 359.389 146.329 359.205 146.357L355.017 147.027C354.821 147.062 354.62 147.058 354.426 147.015C354.232 146.972 354.048 146.89 353.886 146.775C353.721 146.672 353.583 146.53 353.484 146.363C353.384 146.195 353.326 146.007 353.314 145.812C353.138 144.513 353.233 143.192 353.593 141.931C353.921 140.815 354.39 139.746 354.989 138.748C355.576 137.791 356.249 136.889 356.999 136.054C357.739 135.217 358.395 134.435 359.037 133.681C359.611 133.008 360.107 132.273 360.517 131.489C360.88 130.815 361.013 130.04 360.894 129.284C360.789 128.618 360.525 127.987 360.124 127.445C359.723 126.903 359.197 126.466 358.591 126.17C357.09 125.445 355.391 125.239 353.76 125.584C352.284 125.8 350.911 126.467 349.828 127.495C348.746 128.522 348.008 129.859 347.716 131.322C347.634 131.674 347.492 132.009 347.297 132.313C347.048 132.578 346.71 132.742 346.348 132.774L341.936 133.486C341.626 133.545 341.305 133.48 341.043 133.304C340.908 133.212 340.795 133.092 340.711 132.952C340.627 132.812 340.573 132.656 340.554 132.494C340.423 131.109 340.639 129.713 341.182 128.432C341.734 126.941 342.548 125.561 343.584 124.356C344.719 123.036 346.057 121.905 347.548 121.005C349.157 120.03 350.939 119.375 352.797 119.079ZM360.001 149.581C360.193 149.551 360.389 149.559 360.578 149.604C360.768 149.65 360.946 149.732 361.103 149.847C361.268 149.955 361.408 150.097 361.513 150.263C361.619 150.429 361.689 150.615 361.718 150.81L362.499 155.598C362.56 155.987 362.465 156.383 362.235 156.702C362.005 157.021 361.659 157.236 361.271 157.301L356.594 158.069C356.206 158.129 355.81 158.034 355.491 157.804C355.329 157.694 355.192 157.552 355.089 157.386C354.986 157.22 354.918 157.034 354.891 156.841L354.109 152.052C354.074 151.86 354.079 151.663 354.125 151.473C354.171 151.283 354.256 151.104 354.375 150.949C354.484 150.788 354.627 150.65 354.792 150.547C354.958 150.444 355.144 150.376 355.338 150.349L360.001 149.581Z" fill="#BAE8E8"/>
<g opacity="0.2">
<path d="M352.797 119.079C354.478 118.809 356.188 118.776 357.879 118.981C359.493 119.173 361.061 119.645 362.513 120.377C363.896 121.094 365.113 122.093 366.087 123.309C366.963 124.498 367.579 125.859 367.896 127.301C368.214 128.744 368.225 130.237 367.93 131.685C367.664 132.797 367.236 133.865 366.659 134.854C366.104 135.815 365.459 136.722 364.733 137.562C364.021 138.399 363.337 139.195 362.709 139.963C362.094 140.678 361.547 141.449 361.075 142.266C360.633 142.982 360.41 143.812 360.433 144.654C360.421 145.047 360.311 145.431 360.112 145.77C360.011 145.927 359.878 146.06 359.722 146.161C359.565 146.262 359.389 146.329 359.205 146.357L355.017 147.027C354.821 147.062 354.62 147.058 354.426 147.015C354.232 146.972 354.048 146.89 353.886 146.775C353.721 146.672 353.583 146.53 353.484 146.363C353.384 146.195 353.326 146.007 353.314 145.812C353.138 144.513 353.233 143.192 353.593 141.931C353.921 140.815 354.39 139.746 354.989 138.748C355.576 137.791 356.249 136.889 356.999 136.054C357.739 135.217 358.395 134.435 359.037 133.681C359.611 133.008 360.107 132.273 360.517 131.489C360.88 130.815 361.013 130.04 360.894 129.284C360.789 128.618 360.525 127.987 360.124 127.445C359.723 126.903 359.197 126.466 358.591 126.17C357.09 125.445 355.391 125.239 353.76 125.584C352.284 125.8 350.911 126.467 349.828 127.495C348.746 128.522 348.008 129.859 347.716 131.322C347.634 131.674 347.492 132.009 347.297 132.313C347.048 132.578 346.71 132.742 346.348 132.774L341.936 133.486C341.626 133.545 341.305 133.48 341.043 133.304C340.908 133.212 340.795 133.092 340.711 132.952C340.627 132.812 340.573 132.656 340.554 132.494C340.423 131.109 340.639 129.713 341.182 128.432C341.734 126.941 342.548 125.561 343.584 124.356C344.719 123.036 346.057 121.905 347.548 121.005C349.157 120.03 350.939 119.375 352.797 119.079ZM360.001 149.581C360.193 149.551 360.389 149.559 360.578 149.604C360.768 149.65 360.946 149.732 361.103 149.847C361.268 149.955 361.408 150.097 361.513 150.263C361.619 150.429 361.689 150.615 361.718 150.81L362.499 155.598C362.56 155.987 362.465 156.383 362.235 156.702C362.005 157.021 361.659 157.236 361.271 157.301L356.594 158.069C356.206 158.129 355.81 158.034 355.491 157.804C355.329 157.694 355.192 157.552 355.089 157.386C354.986 157.22 354.918 157.034 354.891 156.841L354.109 152.052C354.074 151.86 354.079 151.663 354.125 151.473C354.171 151.283 354.256 151.104 354.375 150.949C354.484 150.788 354.627 150.65 354.792 150.547C354.958 150.444 355.144 150.376 355.338 150.349L360.001 149.581Z" fill="black"/>
</g>
<path d="M392.276 126.603C392.466 126.736 392.628 126.905 392.75 127.102C392.872 127.299 392.953 127.519 392.988 127.748C393.032 127.975 393.029 128.209 392.979 128.435C392.928 128.661 392.832 128.874 392.695 129.06L389.372 133.737C389.24 133.927 389.07 134.088 388.873 134.211C388.677 134.333 388.457 134.414 388.228 134.449C388.001 134.493 387.767 134.49 387.541 134.44C387.315 134.389 387.102 134.292 386.915 134.156L382.337 130.903C382.146 130.772 381.985 130.603 381.865 130.405C381.744 130.208 381.667 129.988 381.639 129.758C381.594 129.531 381.597 129.297 381.648 129.071C381.698 128.846 381.795 128.633 381.932 128.446L385.296 123.769C385.568 123.39 385.979 123.134 386.438 123.055C386.898 122.977 387.371 123.083 387.753 123.351L392.276 126.603ZM411.597 94.928C413.266 96.0981 414.753 97.5095 416.008 99.116C417.232 100.61 418.178 102.313 418.8 104.142C419.379 105.894 419.575 107.751 419.372 109.586C419.136 111.543 418.395 113.404 417.223 114.989C416.351 116.269 415.231 117.362 413.928 118.199C412.781 118.918 411.535 119.464 410.229 119.819C408.956 120.151 407.658 120.375 406.348 120.489L402.634 120.824C401.521 120.913 400.418 121.104 399.34 121.396C398.345 121.622 397.435 122.125 396.715 122.848C396.39 123.178 395.979 123.41 395.529 123.518C395.314 123.58 395.089 123.589 394.87 123.545C394.651 123.501 394.446 123.406 394.272 123.267L390.224 120.391C389.837 120.115 389.572 119.7 389.484 119.232C389.432 119.006 389.434 118.77 389.49 118.545C389.545 118.319 389.653 118.11 389.805 117.934C390.751 116.707 391.933 115.682 393.281 114.919C394.495 114.256 395.79 113.754 397.134 113.425C398.431 113.11 399.753 112.91 401.085 112.825C402.397 112.741 403.626 112.643 404.77 112.532C405.818 112.439 406.852 112.233 407.855 111.917C408.733 111.625 409.489 111.051 410.005 110.284C410.472 109.636 410.775 108.886 410.889 108.096C411.004 107.306 410.925 106.5 410.661 105.747C410.001 103.886 408.738 102.299 407.074 101.238C404.058 99.0881 400.768 99.0183 397.204 101.029C396.845 101.257 396.448 101.418 396.031 101.503C395.814 101.518 395.597 101.49 395.391 101.421C395.184 101.351 394.994 101.242 394.831 101.098L390.531 98.0411C390.375 97.9377 390.242 97.8041 390.139 97.6483C390.036 97.4924 389.965 97.3174 389.931 97.1337C389.897 96.9437 389.904 96.7489 389.949 96.5615C389.995 96.3741 390.079 96.1981 390.196 96.0448C391.211 94.745 392.529 93.7143 394.035 93.0434C395.746 92.2682 397.579 91.7959 399.451 91.6474C401.512 91.4752 403.587 91.6403 405.594 92.136C407.761 92.6581 409.801 93.6073 411.597 94.928Z" fill="#BAE8E8"/>
<g opacity="0.6">
<path d="M392.276 126.603C392.466 126.736 392.628 126.905 392.75 127.102C392.872 127.299 392.953 127.519 392.988 127.748C393.032 127.975 393.029 128.209 392.979 128.435C392.928 128.661 392.832 128.874 392.695 129.06L389.372 133.737C389.24 133.927 389.07 134.088 388.873 134.211C388.677 134.333 388.457 134.414 388.228 134.449C388.001 134.493 387.767 134.49 387.541 134.44C387.315 134.389 387.102 134.292 386.915 134.156L382.337 130.903C382.146 130.772 381.985 130.603 381.865 130.405C381.744 130.208 381.667 129.988 381.639 129.758C381.594 129.531 381.597 129.297 381.648 129.071C381.698 128.846 381.795 128.633 381.932 128.446L385.296 123.769C385.568 123.39 385.979 123.134 386.438 123.055C386.898 122.977 387.371 123.083 387.753 123.351L392.276 126.603ZM411.597 94.928C413.266 96.0981 414.753 97.5095 416.008 99.116C417.232 100.61 418.178 102.313 418.8 104.142C419.379 105.894 419.575 107.751 419.372 109.586C419.136 111.543 418.395 113.404 417.223 114.989C416.351 116.269 415.231 117.362 413.928 118.199C412.781 118.918 411.535 119.464 410.229 119.819C408.956 120.151 407.658 120.375 406.348 120.489L402.634 120.824C401.521 120.913 400.418 121.104 399.34 121.396C398.345 121.622 397.435 122.125 396.715 122.848C396.39 123.178 395.979 123.41 395.529 123.518C395.314 123.58 395.089 123.589 394.87 123.545C394.651 123.501 394.446 123.406 394.272 123.267L390.224 120.391C389.837 120.115 389.572 119.7 389.484 119.232C389.432 119.006 389.434 118.77 389.49 118.545C389.545 118.319 389.653 118.11 389.805 117.934C390.751 116.707 391.933 115.682 393.281 114.919C394.495 114.256 395.79 113.754 397.134 113.425C398.431 113.11 399.753 112.91 401.085 112.825C402.397 112.741 403.626 112.643 404.77 112.532C405.818 112.439 406.852 112.233 407.855 111.917C408.733 111.625 409.489 111.051 410.005 110.284C410.472 109.636 410.775 108.886 410.889 108.096C411.004 107.306 410.925 106.5 410.661 105.747C410.001 103.886 408.738 102.299 407.074 101.238C404.058 99.0881 400.768 99.0183 397.204 101.029C396.845 101.257 396.448 101.418 396.031 101.503C395.814 101.518 395.597 101.49 395.391 101.421C395.184 101.351 394.994 101.242 394.831 101.098L390.531 98.0411C390.375 97.9377 390.242 97.8041 390.139 97.6483C390.036 97.4924 389.965 97.3174 389.931 97.1337C389.897 96.9437 389.904 96.7489 389.949 96.5615C389.995 96.3741 390.079 96.1981 390.196 96.0448C391.211 94.745 392.529 93.7143 394.035 93.0434C395.746 92.2682 397.579 91.7959 399.451 91.6474C401.512 91.4752 403.587 91.6403 405.594 92.136C407.761 92.6581 409.801 93.6073 411.597 94.928Z" fill="white"/>
</g>
<path d="M288.316 250.177H238.716V130.009C238.716 119.572 242.862 109.563 250.242 102.183C257.622 94.8024 267.632 90.6562 278.069 90.6562H282.648C293.085 90.6562 303.095 94.8024 310.475 102.183C317.855 109.563 322.001 119.572 322.001 130.009V216.561C321.983 225.483 318.426 234.033 312.11 240.336C305.795 246.638 297.238 250.177 288.316 250.177Z" fill="#263238"/>
<path d="M233.886 539.47C233.009 544.449 232.542 549.492 232.49 554.547C232.308 563.705 230.633 566.957 230.41 574.468C230.145 583.053 231.638 586.264 235.114 591.094C238.59 595.925 247.678 600.294 251.615 592.141C255.552 583.989 254.979 578.642 253.737 570.224C252.467 561.513 252.341 556.697 251.559 550.066C250.917 544.217 250.163 539.763 250.163 539.763L233.886 539.47Z" fill="#263238"/>
<path d="M259.879 478.647L229.726 478.102C230.172 498.232 233.369 520.582 233.914 539.526C234.025 543.086 233.83 567.153 235.17 574.426C237.194 585.427 250.233 583.933 250.931 577.358C251.629 570.783 250.093 542.681 250.135 539.777C250.01 527.66 255.719 507.209 258.665 485.459C258.79 484.412 259.74 479.694 259.879 478.647Z" fill="#FFA8A7"/>
<path d="M298.618 523.807C298.618 523.807 297.432 523.165 297.222 524.435C296.929 525.943 296.482 529.056 295.826 531.541C294.961 534.989 294.235 540.671 294.751 543.491C295.268 546.311 301.829 549.912 306.087 551.225C311.334 552.844 316.12 555.692 320.047 559.531C324.235 563.495 333.351 567.237 339.591 567.195C346.92 567.195 352.029 564.752 354.444 560.829C356.859 556.906 352.239 556.432 343.863 551.057L337.371 546.869C324.095 538.2 319.223 533.565 315.496 524.896L298.618 523.807Z" fill="#263238"/>
<path d="M315.608 518.433C315.384 512.206 319.684 459.284 319.684 459.284L291.052 472.337C297.18 508.94 298.493 517.581 298.59 523.57C298.465 524.071 298.413 524.589 298.437 525.105C298.437 532.211 306.492 536.05 312.746 540.796C318.062 544.961 323.728 548.66 329.679 551.853C334.23 554.128 343.472 554.338 344.617 551.42C336.994 545.599 325.91 536.888 319.852 530.243C316.892 527.116 315.831 524.673 315.608 518.433Z" fill="#FFA8A7"/>
<path d="M242.08 282.215C231.08 306.352 231.08 325.031 232.909 355.84C234.528 384.109 237.222 409.028 237.222 409.028C236.803 414.04 229.837 423.826 228.93 445.994C228.092 466.711 230.326 493.053 230.326 493.053C230.326 493.053 245.975 501.722 257.548 492.969C257.548 492.969 268.716 439.656 271.983 413.719C274.775 391.089 279.8 362.178 279.8 362.178L290.368 413.565C288.087 420.856 286.434 428.328 285.426 435.901C283.946 451.159 292.49 481.117 292.49 481.117C292.49 481.117 308.656 485.934 318.525 477.181C318.525 477.181 322.211 428.474 323.593 410.103C325.436 385.491 321.555 318.874 318.525 283.597L242.08 282.215Z" fill="#455A64"/>
<path d="M279.828 362.136L284.17 323.411C284.17 323.411 303.63 320.815 312.453 312.523C309.928 316.473 306.564 319.82 302.6 322.324C298.636 324.828 294.169 326.429 289.516 327.013L283.234 363.044L290.368 413.565L279.828 362.136Z" fill="#263238"/>
<path d="M358.632 272.695C359.436 265.628 359.791 258.517 359.693 251.406C359.261 245.263 358.158 244.258 349.572 233.383C337.986 218.683 328.088 205.463 317.618 192.327C310.135 182.946 302.262 181.508 294.612 181.927C289.251 182.22 299.721 208.004 304.984 223.262L335.04 255.622C335.971 256.899 336.399 258.474 336.241 260.047L334.426 287.576L343.43 299.637C343.43 299.637 357.069 287.883 358.632 272.695Z" fill="#FFA8A7"/>
<path d="M265.631 182.764C259.81 183.169 249.228 184.16 249.228 184.16C243.127 187.567 241.578 190.373 240.447 198.469C239.958 201.931 242.778 211.131 245.193 224.212L249.772 248.46L249.27 260.494C246.897 267.837 241.522 276.952 236.776 290.396C260.089 303.407 279.633 303.895 297.362 301.564C310.875 299.819 318.037 296.552 320.424 293.314C319.921 280.038 319.028 271.829 318.749 257.953C318.651 252.132 319 246.24 319.237 239.54C328.297 232.085 328.409 219.689 323.425 211.62C311.936 193.011 300.754 181.299 293.355 181.899L265.631 182.764Z" fill="#BAE8E8"/>
<path opacity="0.6" d="M265.631 182.764C259.81 183.169 249.228 184.16 249.228 184.16C243.127 187.567 241.578 190.373 240.447 198.469C239.958 201.931 242.778 211.131 245.193 224.212L249.772 248.46L249.27 260.494C246.897 267.837 241.522 276.952 236.776 290.396C260.089 303.407 279.633 303.895 297.362 301.564C310.875 299.819 318.037 296.552 320.424 293.314C319.921 280.038 319.028 271.829 318.749 257.953C318.651 252.132 319 246.24 319.237 239.54C328.297 232.085 328.409 219.689 323.425 211.62C311.936 193.011 300.754 181.299 293.355 181.899L265.631 182.764Z" fill="white"/>
<path opacity="0.1" d="M301.187 239.721C301.187 239.721 290.549 247.985 278.39 243.672C274.976 242.596 271.897 240.657 269.451 238.043C267.006 235.428 265.276 232.227 264.43 228.749C264.43 228.749 263.146 242.639 278.46 247.371C293.3 251.936 301.187 239.721 301.187 239.721Z" fill="black"/>
<path d="M315.622 144.64C315.161 164.798 308.642 169.768 305.347 171.164C302.053 172.56 295.743 171.722 289.6 170.703V182.876C289.6 182.876 296.692 190.303 296.161 195.845C295.631 201.387 284.993 202.015 277.064 196.585C272.689 193.579 268.732 190.007 265.296 185.961C264.636 185.181 264.275 184.191 264.277 183.169V154.691C264.277 154.691 260.912 158.251 254.965 154.174C253.682 153.355 252.584 152.278 251.739 151.012C250.895 149.745 250.323 148.317 250.06 146.818C249.798 145.318 249.85 143.781 250.214 142.303C250.578 140.824 251.245 139.438 252.173 138.232C254.77 135.175 261.359 134.965 264.514 139.628C266.301 143.104 266.538 146.608 268.535 145.212C273.839 141.387 270.992 132.648 277.399 128.46C279.502 127.362 281.686 126.429 283.932 125.668C295.366 121.717 305.277 118.395 307.664 110.577C312.16 113.146 316.18 120.866 315.622 144.64Z" fill="#FFA8A7"/>
<path d="M293.076 162.648C294.541 162.648 295.729 161.46 295.729 159.996C295.729 158.531 294.541 157.343 293.076 157.343C291.611 157.343 290.424 158.531 290.424 159.996C290.424 161.46 291.611 162.648 293.076 162.648Z" fill="#B16668"/>
<path d="M291.317 141.582C291.317 142.128 291.156 142.662 290.855 143.118C290.554 143.574 290.126 143.931 289.623 144.146C289.121 144.361 288.567 144.423 288.03 144.327C287.492 144.23 286.995 143.977 286.6 143.601C286.204 143.224 285.928 142.74 285.805 142.208C285.682 141.675 285.718 141.119 285.908 140.607C286.098 140.095 286.434 139.65 286.874 139.327C287.315 139.004 287.84 138.818 288.386 138.79C288.764 138.771 289.142 138.83 289.497 138.961C289.852 139.093 290.177 139.296 290.451 139.557C290.725 139.818 290.943 140.132 291.092 140.481C291.241 140.829 291.318 141.204 291.317 141.582Z" fill="#263238"/>
<path d="M312.467 141.862C312.495 142.203 312.456 142.547 312.35 142.873C312.244 143.199 312.075 143.501 311.851 143.761C311.628 144.021 311.355 144.233 311.048 144.387C310.742 144.54 310.408 144.631 310.066 144.654C309.721 144.685 309.373 144.643 309.045 144.531C308.717 144.418 308.418 144.236 308.165 143.999C307.913 143.761 307.714 143.473 307.582 143.152C307.45 142.832 307.388 142.487 307.399 142.141C307.363 141.797 307.398 141.449 307.501 141.119C307.604 140.788 307.774 140.483 307.999 140.22C308.225 139.958 308.501 139.744 308.812 139.593C309.123 139.441 309.462 139.354 309.807 139.338C310.153 139.322 310.498 139.377 310.822 139.499C311.146 139.621 311.441 139.807 311.69 140.047C311.939 140.288 312.136 140.576 312.27 140.895C312.403 141.214 312.47 141.557 312.467 141.903V141.862Z" fill="#263238"/>
<path d="M287.73 148.758C285.322 148.758 283.012 147.802 281.308 146.101C279.604 144.4 278.645 142.092 278.642 139.684C278.642 133.513 285.007 133.513 287.73 133.513C290.452 133.513 296.804 133.513 296.804 139.684C296.8 142.089 295.843 144.395 294.142 146.096C292.441 147.797 290.135 148.754 287.73 148.758ZM287.73 134.937C282.146 134.937 280.079 136.333 280.079 139.684C280.079 141.72 280.888 143.673 282.328 145.113C283.768 146.553 285.721 147.362 287.757 147.362C289.794 147.362 291.747 146.553 293.187 145.113C294.627 143.673 295.435 141.72 295.435 139.684C295.38 136.264 293.23 134.937 287.73 134.937Z" fill="#455A64"/>
<path d="M310.778 148.758C308.37 148.758 306.06 147.802 304.356 146.101C302.652 144.4 301.693 142.092 301.69 139.684C301.69 133.513 308.055 133.513 310.778 133.513C313.5 133.513 319.852 133.513 319.852 139.684C319.848 142.089 318.891 144.395 317.19 146.096C315.489 147.797 313.183 148.754 310.778 148.758ZM310.778 134.937C305.277 134.937 303.127 136.333 303.127 139.684C303.127 141.72 303.936 143.673 305.376 145.113C306.816 146.553 308.769 147.362 310.805 147.362C312.842 147.362 314.795 146.553 316.235 145.113C317.675 143.673 318.483 141.72 318.483 139.684C318.428 136.264 316.278 134.937 310.778 134.937Z" fill="#455A64"/>
<path d="M298.214 136.752L298.66 153.714L307.581 150.949L298.214 136.752Z" fill="#F28F8F"/>
<path d="M289.586 170.745C283.109 169.893 269.777 166.068 267.697 160.791C268.534 163.458 270.166 165.806 272.374 167.52C276.352 170.94 289.586 174.779 289.586 174.779V170.745Z" fill="#F28F8F"/>
<path d="M289.907 128.516L283.988 132.131C283.522 131.319 283.386 130.358 283.61 129.448C283.833 128.538 284.399 127.749 285.189 127.245C285.579 127.008 286.014 126.853 286.466 126.789C286.918 126.725 287.379 126.753 287.82 126.871C288.261 126.99 288.673 127.197 289.032 127.48C289.391 127.762 289.689 128.115 289.907 128.516Z" fill="#263238"/>
<path d="M313.988 132.536L307.399 130.233C307.527 129.796 307.742 129.39 308.032 129.04C308.323 128.689 308.681 128.402 309.087 128.196C309.492 127.989 309.935 127.868 310.389 127.839C310.843 127.81 311.299 127.874 311.727 128.027C312.611 128.345 313.338 128.99 313.759 129.829C314.18 130.669 314.262 131.638 313.988 132.536Z" fill="#263238"/>
<path d="M296.092 140.41C295.997 140.41 295.903 140.391 295.816 140.354C295.729 140.318 295.649 140.264 295.583 140.196C295.517 140.129 295.465 140.048 295.43 139.96C295.395 139.873 295.378 139.778 295.38 139.684C295.38 138.525 297.669 137.771 299.735 137.771C301.801 137.771 303.127 138.525 303.127 139.684C303.084 139.835 302.993 139.969 302.867 140.064C302.741 140.159 302.587 140.21 302.429 140.21C302.272 140.21 302.118 140.159 301.992 140.064C301.866 139.969 301.775 139.835 301.731 139.684C301.731 139.544 301.02 139.195 299.777 139.195C298.777 139.174 297.782 139.344 296.845 139.698C296.846 139.795 296.826 139.891 296.788 139.98C296.749 140.069 296.693 140.15 296.622 140.217C296.552 140.283 296.468 140.335 296.377 140.368C296.286 140.401 296.189 140.415 296.092 140.41Z" fill="#455A64"/>
<path d="M279.381 139.795H279.298L263.341 138.399C262.596 137.66 261.708 137.081 260.731 136.696L279.465 138.427C279.653 138.452 279.824 138.549 279.941 138.697C280.059 138.846 280.113 139.035 280.093 139.223C280.061 139.387 279.972 139.534 279.841 139.638C279.711 139.743 279.548 139.799 279.381 139.795Z" fill="#455A64"/>
<path d="M213.867 156.436C219.088 149.456 222.648 144.193 227.408 138.288C230.117 134.895 231.848 132.466 234.388 128.99C236.175 126.589 237.18 124.565 239.219 123.825C241.421 122.923 243.405 121.562 245.04 119.833C246.045 118.721 246.977 117.546 247.832 116.315C250.824 112.287 254.378 108.71 258.386 105.691C262.574 102.536 267.25 100.107 271.564 97.1057C274.133 95.3049 276.883 92.3175 273.756 89.5255C272.796 88.7178 271.649 88.1655 270.419 87.9201C262.811 86.2728 256.194 88.8833 248.753 90.7819C245.521 91.5886 242.36 92.6577 239.302 93.9787C237.798 94.5736 236.388 95.3823 235.114 96.3798C233.334 98.1747 231.875 100.262 230.801 102.55C227.548 108.358 220.568 113.551 215.682 118.143C209.972 123.518 204.863 128.446 198.344 134.365C192.48 139.712 186.743 144.626 181.368 150.461C176.915 155.277 178.576 159.046 179.163 160.359C182.792 167.813 186.855 170.493 191.727 175.114C200.103 183.113 229.07 206.133 238.66 213.742C240.721 215.36 242.339 217.473 243.365 219.884L245.207 224.142C256.152 226.152 263.453 209.721 254.393 189.94C252.893 186.741 250.601 183.978 247.734 181.913C236.287 173.579 213.867 156.436 213.867 156.436Z" fill="#FFA8A7"/>
<path d="M213.867 156.436C210.384 160.721 205.741 163.915 200.494 165.635C200.494 165.635 207.474 167.422 217.036 158.837L213.867 156.436Z" fill="#F28F8F"/>
<path d="M355.785 258.134L353.998 256.599C353.731 256.423 353.426 256.312 353.108 256.276C352.791 256.239 352.469 256.278 352.169 256.389L332.779 261.666C331.802 261.992 330.907 262.525 330.155 263.228C329.403 263.932 328.813 264.789 328.423 265.743L314.463 305.989C314.295 306.317 314.229 306.688 314.274 307.054C314.318 307.42 314.472 307.764 314.714 308.041L316.557 309.633C316.825 309.818 317.134 309.935 317.458 309.974C317.781 310.012 318.109 309.972 318.414 309.856L337.832 304.579C338.809 304.254 339.704 303.721 340.455 303.017C341.207 302.314 341.798 301.456 342.188 300.503C344.98 292.588 353.356 268.172 356.148 260.256C356.483 259.265 356.315 258.511 355.785 258.134Z" fill="#455A64"/>
<path d="M316.292 307.539L330.252 267.292C330.64 266.34 331.23 265.483 331.982 264.782C332.734 264.08 333.63 263.551 334.607 263.23L353.984 257.953C355.785 257.464 356.776 258.497 356.134 260.256C353.342 268.172 344.966 292.588 342.174 300.503C341.784 301.456 341.193 302.314 340.441 303.017C339.69 303.721 338.795 304.254 337.818 304.579L318.442 309.912C316.655 310.331 315.691 309.298 316.292 307.539Z" fill="#BAE8E8"/>
<path d="M332.499 264.347C331.491 265.11 330.71 266.133 330.238 267.306L316.278 307.539C316.118 307.858 316.051 308.216 316.086 308.572C316.121 308.928 316.255 309.266 316.473 309.549L314.742 308.069C314.494 307.795 314.336 307.451 314.288 307.085C314.241 306.718 314.307 306.346 314.477 306.017L328.437 265.77C328.878 264.676 329.595 263.715 330.517 262.978L332.499 264.347Z" fill="#37474F"/>
<path d="M350.466 276.478C349.07 280.568 344.226 283.304 336.213 285.203C328.2 287.101 323.774 295.603 325.045 298.186C326.315 300.768 339.27 303.183 344.449 302.443C349.628 301.704 354.821 294.221 356.399 291.904C357.976 289.586 359.791 273.421 358.13 271.201C356.469 268.981 352.965 269.33 352.965 269.33L350.466 276.478Z" fill="#F28F8F"/>
</svg>
