<svg xmlns="http://www.w3.org/2000/svg" width="42" height="52" fill="none"><rect width="42" height="51.333" fill="#fff" rx="4"/><path fill="#2C698D" d="M10.294 4.253c.028.027 1.634.99 3.566 2.138l3.524 2.085H23.933l3.865-2.085c2.131-1.149 3.893-2.11 3.921-2.138.029-.026-4.788-.053-10.712-.053-5.925 0-10.741.027-10.713.053Z"/><path fill="#2C698D" d="M9.143 4.908c0 .094.228 1.59.512 3.34.298 1.738.497 3.208.454 3.234-.042.04-.653.12-1.35.174l-1.292.093 3.239 7.055c1.762 3.875 3.254 7.069 3.282 7.109.043.026.412-1.724.824-3.915.412-2.178 1.407-7.51 1.435-7.55.114-.093-.213 3.822.611 5.212l.739 1.242h6.407l.896-1.47c.838-1.39.424-5.117.566-4.983.029.04 1.053 5.184 1.437 7.268.398 2.085.767 3.929.824 4.076.071.227.867-1.377 3.296-6.721a1406.44 1406.44 0 0 0 3.24-7.122c.028-.054-.526-.134-1.237-.147-.696-.027-1.307-.08-1.35-.12-.042-.04.171-1.577.484-3.408.298-1.844.525-3.353.511-3.367-.028-.026-7.771 4.49-7.942 4.623-.057.067.085 1.123.327 2.365.227 1.243.426 2.365.426 2.486 0 .227-.313.24-4.617.24-3.61 0-4.618-.04-4.618-.174.014-.08.227-1.242.483-2.565l.455-2.405-.64-.388C12.78 6.832 9.143 4.775 9.143 4.908Z"/><path fill="#2C698D" d="M18.236 22.065c-.014.066-.483 3.18-1.037 6.948l-1.037 6.827 2.216 5.465c1.222 2.993 2.26 5.572 2.33 5.72.128.293.015.534 3.04-6.949l1.72-4.276-1.023-6.88-1.023-6.882-2.6-.04c-1.42-.014-2.586.013-2.586.067Z"/></svg>