<svg xmlns="http://www.w3.org/2000/svg" width="246" height="92" fill="none"><path fill="#2C698D" d="M6.559.115c.06.057 3.5 2.118 7.641 4.58l7.55 4.467H35.787l8.281-4.466C48.634 2.233 52.41.172 52.47.115 52.53.057 42.21 0 29.514 0 16.82 0 6.498.057 6.56.115Z"/><path fill="#2C698D" d="M4.093 1.518c0 .2.487 3.407 1.096 7.158.639 3.722 1.065 6.871.974 6.928-.092.086-1.4.258-2.892.373l-2.771.2 6.941 15.118c3.776 8.303 6.973 15.146 7.033 15.232.092.057.883-3.693 1.766-8.389.883-4.667 3.014-16.091 3.075-16.177.244-.2-.457 8.189 1.31 11.166l1.582 2.663h13.731l1.918-3.15c1.797-2.977.944-11.109 1.248-10.822.061.086 2.223 11.252 3.045 15.719.852 4.466 1.644 8.418 1.766 8.733.152.486 1.857-2.95 7.063-14.402 3.775-8.246 6.88-15.118 6.942-15.261.06-.115-1.127-.287-2.65-.315-1.49-.058-2.8-.172-2.891-.258-.092-.086.365-3.379 1.035-7.301.64-3.951 1.126-7.187 1.096-7.215-.061-.058-16.654 9.62-17.02 9.906-.12.143.184 2.405.701 5.068.487 2.663.913 5.068.913 5.326 0 .486-.67.515-9.894.515-7.733 0-9.895-.086-9.895-.372.03-.172.487-2.663 1.035-5.497l.974-5.154-1.37-.83C11.886 5.64 4.093 1.23 4.093 1.517Z"/><path fill="#2C698D" d="M23.578 38.281c-.03.143-1.036 6.815-2.223 14.889L19.132 67.8l4.75 11.71c2.618 6.414 4.84 11.94 4.993 12.255.274.63.03 1.145 6.515-14.889l3.684-9.162-2.192-14.746-2.192-14.745-5.571-.086c-3.045-.029-5.541.029-5.541.143ZM127.721 60.234v7.889c-.31.373-.788.78-1.435 1.217-.647.428-1.481.797-2.502 1.107-1.021.31-2.256.465-3.705.465-1.285 0-2.457-.21-3.514-.629a7.588 7.588 0 0 1-2.734-1.873c-.757-.82-1.34-1.823-1.75-3.008-.41-1.194-.616-2.556-.616-4.088V60.07c0-1.531.196-2.894.588-4.088.401-1.194.971-2.201 1.709-3.021a7.321 7.321 0 0 1 2.639-1.873c1.021-.429 2.156-.643 3.404-.643 1.732 0 3.154.283 4.266.848 1.112.556 1.96 1.33 2.543 2.324.592.984.957 2.114 1.094 3.39h-3.979c-.1-.674-.292-1.262-.574-1.763a2.97 2.97 0 0 0-1.217-1.176c-.519-.282-1.194-.424-2.023-.424-.684 0-1.295.142-1.832.424-.529.274-.976.68-1.34 1.217-.365.538-.643 1.203-.834 1.996-.192.793-.287 1.714-.287 2.762v1.271c0 1.04.1 1.96.3 2.762.201.793.497 1.463.889 2.01a3.87 3.87 0 0 0 1.477 1.216c.583.274 1.262.41 2.037.41.647 0 1.185-.054 1.613-.163.438-.11.789-.242 1.053-.397.273-.164.483-.319.629-.465V63.16h-3.746v-2.926h7.847Zm18.906 7.205v3.2h-10.595v-3.2h10.595Zm-9.256-16.707v19.906h-4.101V50.732h4.101Zm7.875 8.108v3.117h-9.214V58.84h9.214Zm1.368-8.108v3.213h-10.582v-3.213h10.582Zm20.847 0v19.906h-4.101l-7.999-13.343v13.343h-4.101V50.732h4.101l8.012 13.358V50.732h4.088Zm10.17 0v19.906h-4.088V50.732h4.088ZM197.07 67.44v3.2h-10.596v-3.2h10.596Zm-9.256-16.707v19.906h-4.101V50.732h4.101Zm7.875 8.108v3.117h-9.215V58.84h9.215Zm1.367-8.108v3.213h-10.582v-3.213h10.582ZM195.681 11.242c0 .187-1.553 4.077-3.469 8.621-2.609 6.163-3.402 8.403-3.137 8.715.429.466 3.633 5.477 3.633 5.664 0 .249 2.708 4.45 2.973 4.606.132.093.991-.965 1.849-2.334.892-1.37 1.784-2.428 1.982-2.365.198.062 3.567 2.458 7.465 5.29 3.93 2.833 7.399 5.167 7.696 5.167.462 0 .363-.342-.595-1.93a2594.39 2594.39 0 0 1-7.927-13.632 958.157 958.157 0 0 0-3.138-5.446 293.845 293.845 0 0 0-2.972-5.135c-.43-.779-1.553-2.74-2.445-4.358-1.783-3.205-1.915-3.392-1.915-2.863ZM133.815 13.639c-2.708 2.52-5.218 5.602-6.011 7.407-1.156 2.614-.396 4.917 2.477 7.532 2.643 2.427 3.964 4.17 3.964 5.228 0 1.525-1.288 3.58-3.667 5.976l-2.213 2.21 2.346 1.182 2.345 1.214 2.708-2.676c1.718-1.712 3.105-3.393 3.733-4.638 2.213-4.201 1.849-5.602-2.445-9.866-2.576-2.552-3.137-3.299-3.137-4.077 0-1.68 1.552-3.953 5.02-7.345l1.982-1.899-1.619-.871c-.858-.498-1.882-1.058-2.279-1.307-.627-.374-.858-.218-3.204 1.93ZM70.167 27.8v14.005h4.954v-9.337h4.823l3.402 4.668 3.435 4.669h3.104c1.685 0 3.072-.062 3.072-.125 0-.093-1.552-2.178-3.468-4.7-1.916-2.49-3.468-4.668-3.468-4.823 0-.156.495-.436 1.123-.623 4.294-1.338 7.035-6.287 5.813-10.488-.99-3.424-2.873-5.447-6.077-6.598-1.718-.592-2.543-.654-9.282-.654h-7.431V27.8Zm15.193-8.31c1.553.715 2.313 1.992 2.313 3.797 0 1.245-.166 1.618-1.09 2.49-1.454 1.369-2.973 1.711-7.564 1.711H75.12v-4.14c0-2.302.1-4.263.231-4.387.132-.125 2.18-.187 4.558-.125 3.27.062 4.559.218 5.45.654ZM107.788 14.074c-3.138.591-7.003 3.3-8.786 6.163-4.063 6.504-1.982 15.748 4.36 19.545 2.642 1.587 4.723 2.085 8.026 1.96 2.477-.093 3.204-.248 5.186-1.151 2.279-1.058 6.11-4.264 6.11-5.104 0-.374-1.057-1.4-2.84-2.801-.628-.498-.694-.467-1.85.996-1.717 2.147-3.931 3.143-7.101 3.143-3.535 0-6.144-1.463-7.63-4.264-.859-1.618-1.222-3.517-.661-3.517.231-.03 5.153 0 10.966 0l10.504.032-.232-1.961a28.186 28.186 0 0 0-.825-3.89c-1.949-6.661-8.225-10.427-15.227-9.15Zm6.573 5.633c1.387.747 2.774 2.335 3.204 3.642l.198.716h-7.432c-4.096 0-7.465-.125-7.465-.25 0-.995 3.171-4.014 4.955-4.699 1.387-.56 5.02-.218 6.54.591ZM144.583 22.726c.198 9.773.463 11.547 2.312 14.504 3.138 5.01 10.339 6.038 15.26 2.147l.991-.778.099 1.587.099 1.619h5.252V13.794h-5.285v7.22c0 3.984-.165 8.093-.33 9.12-.661 3.859-3.006 6.318-6.243 6.629-2.048.187-3.336-.28-4.657-1.68-1.751-1.9-1.982-3.362-1.982-12.792v-8.497h-5.714l.198 8.932ZM228.38 14.385c-5.483 1.65-9.281 6.412-9.81 12.325-.462 5.26 2.478 10.862 7.036 13.414 4.096 2.272 9.678 2.272 13.806-.03 1.388-.748 5.153-4.265 5.153-4.763 0-.124-.826-.902-1.85-1.743-1.651-1.37-1.882-1.462-2.18-.996-1.486 2.49-4.624 4.264-7.63 4.295-4.326.063-7.53-2.24-8.653-6.287l-.43-1.556h21.734v-1.462c0-1.899-.859-5.136-1.883-7.034-2.84-5.353-9.347-7.968-15.293-6.163Zm6.408 4.731c1.486.374 3.832 2.49 4.393 3.953l.363.996h-7.398c-8.324 0-8.159.062-6.309-2.241 2.015-2.521 5.549-3.61 8.951-2.708Z"/><path fill="#2C698D" d="M182.832 22.882c-.429 1.058-5.285 11.298-7.927 16.713-1.288 2.646-2.279 4.855-2.213 4.918.033.062 8.885.062 19.62.03l19.553-.093-6.143-4.45c-3.402-2.459-6.177-4.42-6.243-4.358-.033.063-.859 1.308-1.817 2.802-.957 1.525-1.783 2.738-1.849 2.738-.033 0-1.024-1.431-2.147-3.205-1.156-1.743-2.18-3.237-2.312-3.33-.231-.156-3.402-5.042-4.691-7.159-1.486-2.49-3.303-5.29-3.402-5.29-.099 0-.264.31-.429.684Z"/></svg>