<svg xmlns="http://www.w3.org/2000/svg" width="1536" height="864"><path fill="#F1FFFE" d="m464.757 864 12.474-72c12.657-72 37.603-216 9.538-360S377.26 144 336.722 72L296 0h1240v864H464.757Z"/><path fill="#DFF8F7" fill-opacity=".8" d="m325 864 60.413-72c60.412-72 181.238-216 251.262-360 70.023-144 89.246-288 98.857-360l9.611-72H1536v864H325Z"/><path fill="#CDF0EF" fill-opacity=".5" d="m999.193 864 17.157-72c16.88-72 51.19-216-21.861-360-72.773-144-252.631-288-342.56-360L562 0h974v864H999.193Z"/><path fill="#BAE8E8" fill-opacity=".3" d="m1417.1 864-12.08-72c-12.27-72-36.43-216-94.35-360-57.91-144-149.2-288-195.03-360L1070 0h466v864h-118.9Z"/></svg>