<svg xmlns="http://www.w3.org/2000/svg" width="698" height="698"><path fill="#A8D1D1" d="M349 667.19c181.637 0 328.884-85.014 328.884-189.884 0-104.87-147.247-189.884-328.884-189.884S20.116 372.436 20.116 477.306c0 104.87 147.247 189.884 328.884 189.884Z"/><path fill="#6A9898" d="M280.945 621.192c62.635 0 113.411-29.313 113.411-65.472 0-36.16-50.776-65.473-113.411-65.473S167.534 519.56 167.534 555.72c0 36.159 50.776 65.472 113.411 65.472Z"/><path fill="#BAE8E8" d="m603.463 473.802-13.304-7.678s-3.253-28.478-1.089-50.535c3.043-30.991 23.062-68.292 46.934-59.525 23.871 8.767-10.945 40.316-18.693 66.603-7.748 26.287-13.848 51.135-13.848 51.135Z"/><path fill="#000" d="m603.463 473.802-13.304-7.678s-3.253-28.478-1.089-50.535c3.043-30.991 23.062-68.292 46.934-59.525 23.871 8.767-10.945 40.316-18.693 66.603-7.748 26.287-13.848 51.135-13.848 51.135Z" opacity=".15"/><path fill="#fff" d="M596.469 470.578a.808.808 0 0 0 .768-.838c-2.332-68.865 31.954-103.513 32.289-103.848a.81.81 0 0 0-.565-1.381.803.803 0 0 0-.566.236c-.362.335-35.137 35.486-32.778 105.049a.82.82 0 0 0 .262.57.807.807 0 0 0 .59.212Z"/><path fill="#BAE8E8" d="m611.825 478.591-9.465-5.459s-1.619-19.544 7.971-43.276c8.376-20.66 29.037-37.817 39.451-34.216 10.414 3.602 10.149 10.987 5.068 18.735-5.082 7.747-35.947 26.189-43.025 64.216Z"/><path fill="#fff" d="M606.827 476.525a.822.822 0 0 0 .81-.81c-.196-43.555 40.693-72.983 41.112-73.276a.782.782 0 0 0 .182-1.117.811.811 0 0 0-1.117-.195c-.419.293-41.978 30.223-41.796 74.588a.81.81 0 0 0 .809.81Z"/><path fill="#BAE8E8" d="m111.205 456.701 12.285-8.292s5.403-32.108.377-60.433c-7.064-39.73-34.523-52.936-44.295-48.748-9.772 4.188-11.866 16.012 6.38 38.683 10.819 13.332 24.876 41.796 25.253 78.79Z"/><path fill="#000" d="m111.205 456.701 12.285-8.292s5.403-32.108.377-60.433c-7.064-39.73-34.523-52.936-44.295-48.748-9.772 4.188-11.866 16.012 6.38 38.683 10.819 13.332 24.876 41.796 25.253 78.79Z" opacity=".15"/><path fill="#fff" d="M115.421 440.787h-.125a.891.891 0 0 1-.824-1.047c4.439-37.399-11.349-77.995-28.534-94.146a.893.893 0 0 1 .628-1.521.886.886 0 0 1 .628.264c17.506 16.445 33.588 57.711 29.093 95.654a.91.91 0 0 1-.866.796Z"/><path fill="#BAE8E8" d="M79.041 478.395c-1.954 1.173-7.65-3.057-9.227-4.076a18.757 18.757 0 0 1-6.394-7.064 17.645 17.645 0 0 1-1.773-10.554 41.753 41.753 0 0 1 1.243-5.584c.488-1.828.977-3.657 1.396-5.5.619-1.792.857-3.694.698-5.584-.545-3.727-3.909-6.282-6.98-8.474-3.378-2.443-6.98-5.667-6.98-10.162a15.804 15.804 0 0 1 3.839-9.577c2.094-2.792 4.607-5.221 6.491-8.139a11.165 11.165 0 0 0 2.136-6.98 11.61 11.61 0 0 0-1.62-4.341c-1.647-2.904-3.782-5.584-4.941-8.669-1.159-3.086-1.075-7.05 1.396-9.354 1.968-1.884 4.97-2.191 7.692-2.066a17.637 17.637 0 0 1 7.259 2.388c7.217 3.839 11.461 12.214 19.097 15.132 2.946 1.117 6.157 1.312 9.214 2.066 3.057.754 6.212 2.248 7.678 5.026 2.89 5.514-2.15 12.466-.084 18.315 1.843 5.193 6.98 7.092 9.884 11.741a11.174 11.174 0 0 1 1.396 6.812 32.588 32.588 0 0 1-2.639 11.573 101.76 101.76 0 0 1-6.142 11.028s-32.345 21.862-32.639 22.043Z"/><path fill="#fff" d="M97.915 466.822a.904.904 0 0 1-.817-.564.893.893 0 0 1-.062-.343c.782-35.347-16.612-73.988-28.925-85.156a.893.893 0 0 1-.07-1.256.886.886 0 0 1 .628-.264.885.885 0 0 1 .628.264c12.564 11.307 30.308 50.619 29.512 86.454a.878.878 0 0 1-.894.865Z"/><path fill="#fff" d="M91.396 423.756a.534.534 0 0 1-.251 0c-11.42-3.295-25.575-3.63-25.715-3.644a.897.897 0 0 1-.338-.073.892.892 0 0 1-.47-.492.878.878 0 0 1-.057-.342.853.853 0 0 1 .907-.866c.14 0 14.519.349 26.161 3.7a.895.895 0 0 1 .6 1.103.861.861 0 0 1-.837.614Z"/><path fill="#455A64" d="m420.419 432.397-5.29-3.057a6.67 6.67 0 0 1-3.03-5.235V204.207a6.696 6.696 0 0 1 3.016-5.235l147.068-84.905a6.682 6.682 0 0 1 6.045 0l5.291 3.057a6.676 6.676 0 0 1 3.029 5.235v219.898a6.703 6.703 0 0 1-3.015 5.235l-147.069 84.919a6.642 6.642 0 0 1-6.045-.014Z"/><path fill="#455A64" d="M576.548 121.871c-.209-1.564-1.48-2.136-3.001-1.257l-147.083 84.919a6.255 6.255 0 0 0-2.136 2.248l-11.349-6.548a6.178 6.178 0 0 1 2.136-2.261l147.068-84.905a6.683 6.683 0 0 1 6.045 0l5.291 3.057a6.749 6.749 0 0 1 3.029 4.747Z"/><path fill="#263238" d="M425.948 432.648a6.744 6.744 0 0 1-5.584-.237l-5.305-3.071a6.699 6.699 0 0 1-3.016-5.235V204.207a6.188 6.188 0 0 1 .88-2.974l11.349 6.548a6.104 6.104 0 0 0-.893 2.987v219.898c.056 1.731 1.145 2.527 2.569 1.982Z"/><path fill="#37474F" d="M423.435 210.796v219.87c0 1.926 1.396 2.708 3.029 1.745l147.069-84.919a6.703 6.703 0 0 0 3.015-5.235V122.359c0-1.926-1.396-2.708-3.015-1.745l-147.069 84.919a6.677 6.677 0 0 0-3.029 5.263Z"/><path fill="#455A64" d="M389.093 294.556c-1.898-1.131-10.707-6.142-11.168-6.408a2.79 2.79 0 0 1-.6-4.313l34.774-37.301 11.336 6.505-34.761 37.329a2.787 2.787 0 0 0-.743 2.189 2.792 2.792 0 0 0 1.162 1.999Z"/><path fill="#37474F" d="m423.435 253.081-34.761 37.287a2.787 2.787 0 0 0-.722 1.49 2.79 2.79 0 0 0 2.998 3.201l32.485-2.681v-39.297Z"/><path fill="#BAE8E8" d="M499.991 185.947c17.143-9.897 31.033-1.87 31.033 17.925s-13.89 43.848-31.033 53.746c-17.143 9.897-31.033 1.87-31.033-17.911 0-19.781 13.89-43.862 31.033-53.76Z"/><path fill="#fff" d="M499.768 201.527c5.584-3.211 10.065-.615 10.065 5.807a22.242 22.242 0 0 1-10.065 17.422c-5.584 3.211-10.079.614-10.079-5.807a22.233 22.233 0 0 1 10.079-17.422Zm19.851 34.229c0-10.539-7.413-14.825-16.542-9.548l-5.71 3.294c-9.13 5.277-16.543 18.148-16.543 28.66v2.89c1.724.551 3.523.829 5.333.824a28.124 28.124 0 0 0 13.834-4.188 61.155 61.155 0 0 0 19.628-19.405v-2.527Z"/><path fill="#BAE8E8" d="m480.336 355.603 39.311-22.699c1.675-.963 3.029-.181 3.029 1.745v12.662a6.675 6.675 0 0 1-3.029 5.235l-39.311 22.699c-1.676.963-3.03.181-3.03-1.745v-12.662a6.664 6.664 0 0 1 .888-2.98 6.66 6.66 0 0 1 2.142-2.255Z"/><path fill="#FAFAFA" d="m461.085 327.32 77.771-44.923c1.996-1.159 3.63-.224 3.63 2.094v4.704a8.009 8.009 0 0 1-3.63 6.282l-77.813 44.924c-1.996 1.158-3.616.223-3.616-2.094v-4.663a8.005 8.005 0 0 1 3.658-6.324Zm9.102-32.513c1.061-.614 1.884-.712 2.471-.279.586.433.879 1.396.879 2.876a8.263 8.263 0 0 1-.879 3.895 6.174 6.174 0 0 1-2.471 2.596l-2.094 1.215v4.509a1.055 1.055 0 0 1-.112.447.645.645 0 0 1-.251.307l-1.061.614a.21.21 0 0 1-.251 0 .457.457 0 0 1-.098-.335v-13.053a1.025 1.025 0 0 1 .098-.446.706.706 0 0 1 .251-.308l3.518-2.038Zm-2.094 7.776 2.024-1.173a3.385 3.385 0 0 0 1.201-1.144 3.462 3.462 0 0 0 .446-1.843c0-.754-.153-1.187-.446-1.312a1.39 1.39 0 0 0-1.201.265l-2.024 1.173v4.034Zm11.293-13.094c.14-.084.252-.084.321 0 .09.125.152.267.182.418l3.225 10.917v.126a1.005 1.005 0 0 1-.112.446.643.643 0 0 1-.251.308l-.95.544c-.167.098-.293.112-.363 0a.566.566 0 0 1-.139-.251l-.572-1.913-4.188 2.401-.559 2.569c-.04.139-.091.274-.153.405a.761.761 0 0 1-.363.391l-.95.544a.194.194 0 0 1-.251 0 .448.448 0 0 1-.098-.321.567.567 0 0 1 0-.154l3.211-14.63a3.2 3.2 0 0 1 .182-.628.775.775 0 0 1 .321-.349l1.507-.823Zm.726 8.459-1.396-4.928-1.396 6.59 2.792-1.662ZM488 284.309a3.423 3.423 0 0 1 1.549-.516c.39-.035.78.053 1.117.251a1.8 1.8 0 0 1 .684.824c.153.343.238.713.251 1.089a.834.834 0 0 1-.097.446.644.644 0 0 1-.252.307l-.921.531c-.154.084-.265.098-.335 0a.656.656 0 0 1-.209-.223 1.022 1.022 0 0 0-.587-.545 1.619 1.619 0 0 0-1.2.307c-.227.146-.441.31-.642.489a3.376 3.376 0 0 0-.545.642 3.57 3.57 0 0 0-.363.726 2.385 2.385 0 0 0-.126.754c-.016.235.027.47.126.684a.529.529 0 0 0 .419.265c.259.045.523.045.782 0l1.214-.265a4.2 4.2 0 0 1 1.396-.168c.337-.001.665.107.936.307.255.215.44.502.53.824.137.452.198.924.181 1.396a6.57 6.57 0 0 1-.265 1.843 7.467 7.467 0 0 1-.74 1.759 8.51 8.51 0 0 1-1.2 1.563 7.213 7.213 0 0 1-1.592 1.243c-.43.262-.902.446-1.396.544a2.241 2.241 0 0 1-1.2-.098 1.816 1.816 0 0 1-.824-.767 3.137 3.137 0 0 1-.363-1.396 1.095 1.095 0 0 1 .098-.461.778.778 0 0 1 .265-.293l.922-.531c.139-.083.251-.111.335-.069.083.041.139.111.195.237.058.143.133.279.223.405a.745.745 0 0 0 .349.265c.184.042.375.042.559 0 .296-.07.579-.188.837-.349.271-.154.528-.332.768-.531a3.73 3.73 0 0 0 1.089-1.396 2.34 2.34 0 0 0 .168-.879.818.818 0 0 0-.182-.614.694.694 0 0 0-.558-.168 3.913 3.913 0 0 0-.936.154c-.363.084-.781.181-1.27.265a3.344 3.344 0 0 1-1.145.084 1.314 1.314 0 0 1-.809-.349 1.789 1.789 0 0 1-.489-.866 6.038 6.038 0 0 1-.154-1.48c0-.614.089-1.226.266-1.814a7.25 7.25 0 0 1 .726-1.731 7.752 7.752 0 0 1 1.088-1.494c.383-.461.83-.865 1.327-1.201Zm9.171-5.277a3.317 3.317 0 0 1 1.55-.53c.389-.033.779.055 1.117.251.298.204.531.49.67.824.152.344.238.713.251 1.089a.723.723 0 0 1-.098.447.645.645 0 0 1-.251.307l-.921.53c-.14.084-.251.112-.335 0a.49.49 0 0 1-.196-.237 1.116 1.116 0 0 0-.6-.531 1.581 1.581 0 0 0-1.187.307 4.526 4.526 0 0 0-.656.489 3.33 3.33 0 0 0-.53.642 2.955 2.955 0 0 0-.363.726 2.395 2.395 0 0 0-.14.754c-.016.235.027.47.126.684a.537.537 0 0 0 .176.185.538.538 0 0 0 .243.08c.258.045.523.045.781 0l1.215-.265a4.635 4.635 0 0 1 1.396-.168 1.53 1.53 0 0 1 .935.308c.256.218.444.503.545.823.123.455.179.925.167 1.396a6.607 6.607 0 0 1-.265 1.843 7.45 7.45 0 0 1-.74 1.759 8.367 8.367 0 0 1-1.2 1.577 7.893 7.893 0 0 1-1.578 1.229c-.43.261-.903.445-1.396.544a2.223 2.223 0 0 1-1.187-.097 1.778 1.778 0 0 1-.837-.768 2.957 2.957 0 0 1-.349-1.396.722.722 0 0 1 .098-.447.64.64 0 0 1 .251-.307l.921-.531c.14-.083.266-.111.335-.069a.35.35 0 0 1 .196.237c.063.141.138.276.223.405a.77.77 0 0 0 .363.265c.184.042.375.042.558 0 .297-.07.58-.188.838-.349a6.27 6.27 0 0 0 .754-.53c.245-.192.461-.417.642-.67.181-.242.331-.504.447-.782.112-.28.168-.579.167-.88a.817.817 0 0 0-.181-.614.697.697 0 0 0-.559-.167c-.311.019-.62.07-.921.153-.363.084-.796.182-1.27.265a3.427 3.427 0 0 1-1.159.084 1.274 1.274 0 0 1-.81-.349 1.773 1.773 0 0 1-.474-.865 5.292 5.292 0 0 1-.168-1.466 6.82 6.82 0 0 1 .265-1.829 7.972 7.972 0 0 1 .726-1.731 7.268 7.268 0 0 1 1.103-1.494 5.609 5.609 0 0 1 1.312-1.131Zm10.177 1.745-1.13 6.687c-.034.201-.09.398-.168.587a.713.713 0 0 1-.293.363l-1.061.614c-.14.084-.237.084-.307 0a.683.683 0 0 1-.154-.405l-1.675-11.796v-.154c.004-.155.042-.308.112-.446a.713.713 0 0 1 .251-.308l.963-.558a.33.33 0 0 1 .251 0c.084 0 .14.112.168.335l1.103 7.943.963-5.961c.025-.148.067-.293.126-.432a.739.739 0 0 1 .335-.419l1.075-.628c.153-.084.265-.07.335 0a.82.82 0 0 1 .125.293l.978 4.844 1.102-9.214c.014-.181.066-.357.154-.516a.907.907 0 0 1 .251-.265l.963-.559a.212.212 0 0 1 .252 0 .47.47 0 0 1 .111.335.786.786 0 0 1 0 .168l-1.675 13.722a2.59 2.59 0 0 1-.153.587.816.816 0 0 1-.307.363l-1.075.614c-.126.07-.224.07-.294 0a2.02 2.02 0 0 1-.167-.405l-1.159-5.389Zm6.534-5.919c.03-.774.124-1.544.279-2.303a9.956 9.956 0 0 1 .726-2.15 8.366 8.366 0 0 1 1.172-1.856 6.304 6.304 0 0 1 1.689-1.396 3.168 3.168 0 0 1 1.662-.545c.443.005.868.18 1.186.489.338.38.582.834.712 1.326.18.641.279 1.302.293 1.968v3.63c-.03.769-.123 1.535-.279 2.289-.161.74-.4 1.46-.712 2.15a8.941 8.941 0 0 1-1.186 1.857 6.613 6.613 0 0 1-1.676 1.396 3.324 3.324 0 0 1-1.689.544 1.59 1.59 0 0 1-1.172-.474 2.95 2.95 0 0 1-.726-1.396 8.847 8.847 0 0 1-.279-1.969v-2.764c0-.321-.014-.544 0-.796Zm5.946-3.336a2.531 2.531 0 0 0-.614-1.899c-.363-.321-.865-.307-1.466 0a3.659 3.659 0 0 0-1.479 1.648 6.103 6.103 0 0 0-.615 2.61v3.406a2.54 2.54 0 0 0 .615 1.899c.363.307.865.279 1.479-.07a3.733 3.733 0 0 0 1.466-1.633 6.028 6.028 0 0 0 .614-2.597v-1.731c0-.628.014-1.13 0-1.633Zm7.86-9.94c1.103-.628 1.926-.725 2.499-.265a3.42 3.42 0 0 1 .851 2.792 8.54 8.54 0 0 1-.432 2.792 6.987 6.987 0 0 1-1.299 2.29l1.815 3.95a1.07 1.07 0 0 1 0 .196.802.802 0 0 1-.084.363.537.537 0 0 1-.195.251l-1.117.642c-.181.098-.307.112-.391 0a.934.934 0 0 1-.181-.251l-1.717-3.727-1.745 1.005v4.718a1.03 1.03 0 0 1-.098.447.823.823 0 0 1-.251.307l-1.061.614a.194.194 0 0 1-.252 0 .407.407 0 0 1-.089-.148.407.407 0 0 1-.022-.173v-13.052c.004-.156.042-.308.111-.447a.648.648 0 0 1 .252-.307l3.406-1.997Zm-1.968 7.511 1.968-1.061a3.526 3.526 0 0 0 1.201-1.103c.323-.538.478-1.16.446-1.787 0-.754-.153-1.172-.446-1.256a1.646 1.646 0 0 0-1.201.307l-1.899 1.089-.069 3.811Zm11.321-12.885a3.693 3.693 0 0 1 1.689-.586c.437-.017.863.139 1.187.432.37.389.626.872.74 1.396.188.693.291 1.405.307 2.122v3.002a13.983 13.983 0 0 1-.307 2.471c-.16.755-.403 1.49-.726 2.191a8.243 8.243 0 0 1-1.173 1.787 6.413 6.413 0 0 1-1.647 1.396l-3.308 1.801a.196.196 0 0 1-.252 0 .399.399 0 0 1-.111-.321v-13.053c.004-.155.042-.307.111-.446a.64.64 0 0 1 .252-.308l3.238-1.884Zm2.15 4.341a4.258 4.258 0 0 0-.167-1.116 1.524 1.524 0 0 0-.405-.726.9.9 0 0 0-.67-.266c-.35.024-.687.139-.978.336l-1.759 1.005v9.102l1.829-1.047c.354-.206.67-.471.936-.782a4.8 4.8 0 0 0 .656-1.005c.174-.385.305-.788.391-1.201a6.98 6.98 0 0 0 .167-1.312c.042-1.019.042-2.01 0-2.988Z"/><path fill="#BAE8E8" d="M345.342 53.592c2.41.537 4.732 1.41 6.897 2.597a19.815 19.815 0 0 1 5.486 4.355 15.726 15.726 0 0 1 3.239 5.864 13.96 13.96 0 0 1 .139 7.105 14.459 14.459 0 0 1-2.163 5.194 17.679 17.679 0 0 1-3.407 3.573 27.152 27.152 0 0 1-4.062 2.61l-4.021 2.137a22.04 22.04 0 0 0-3.434 2.22 6.595 6.595 0 0 0-2.15 2.889 3.064 3.064 0 0 1-1.019 1.312 1.78 1.78 0 0 1-1.535.321l-5.919-1.312a2.187 2.187 0 0 1-1.396-.963 1.815 1.815 0 0 1-.325-.771 1.814 1.814 0 0 1 .059-.835 14.137 14.137 0 0 1 2.471-5.053 19.71 19.71 0 0 1 3.63-3.532 29.212 29.212 0 0 1 4.188-2.555c1.396-.712 2.792-1.396 4.007-2.08a18.137 18.137 0 0 0 3.168-2.164 5.037 5.037 0 0 0 1.69-2.791 6.033 6.033 0 0 0-1.396-5.417 10.823 10.823 0 0 0-6.199-3.364c-4.411-.977-8.134.507-11.168 4.453-.293.43-.662.804-1.089 1.103a2.05 2.05 0 0 1-1.549.111l-6.296-1.396a1.73 1.73 0 0 1-1.374-1.398c-.04-.24-.029-.487.034-.724a12.482 12.482 0 0 1 2.903-5.193 19.451 19.451 0 0 1 5.431-4.188 23.474 23.474 0 0 1 7.133-2.373 20.8 20.8 0 0 1 8.027.265Zm-6.686 44.924a2.179 2.179 0 0 1 1.633 2.568l-1.508 6.841a2.071 2.071 0 0 1-.949 1.396 2.041 2.041 0 0 1-1.619.307l-6.757-1.55a2.019 2.019 0 0 1-1.396-.949 2.085 2.085 0 0 1-.293-1.619l1.521-6.84a2.192 2.192 0 0 1 2.569-1.647l6.799 1.493Zm14.141 20.563a18.216 18.216 0 0 1 5.082-.098c1.614.192 3.182.664 4.634 1.396 1.383.717 2.6 1.716 3.574 2.932a10.566 10.566 0 0 1 1.843 8.376 11.682 11.682 0 0 1-1.271 3.169c-.555.961-1.2 1.868-1.926 2.708-.712.837-1.396 1.633-2.024 2.401a15.165 15.165 0 0 0-1.634 2.303 4.321 4.321 0 0 0-.642 2.388 2.346 2.346 0 0 1-.321 1.116 1.31 1.31 0 0 1-.907.587l-4.188.67a1.507 1.507 0 0 1-1.131-.252 1.219 1.219 0 0 1-.572-.963 9.493 9.493 0 0 1 .279-3.881 13.679 13.679 0 0 1 1.396-3.183 18.535 18.535 0 0 1 2.01-2.694c.74-.837 1.396-1.619 2.038-2.373a11.812 11.812 0 0 0 1.48-2.192 3.503 3.503 0 0 0 .377-2.205 4.189 4.189 0 0 0-2.303-3.114 7.526 7.526 0 0 0-4.831-.586 7.231 7.231 0 0 0-6.044 5.738 3.166 3.166 0 0 1-.419.991 1.481 1.481 0 0 1-.949.461l-4.412.712a1.2 1.2 0 0 1-.893-.182 1.152 1.152 0 0 1-.489-.81 8.385 8.385 0 0 1 .628-4.062 13.377 13.377 0 0 1 2.402-4.076 16.415 16.415 0 0 1 3.964-3.351 14.544 14.544 0 0 1 5.249-1.926Zm7.204 30.502a1.473 1.473 0 0 1 1.102.266 1.398 1.398 0 0 1 .615.963l.781 4.788a1.491 1.491 0 0 1-1.228 1.703l-4.677.768a1.495 1.495 0 0 1-1.103-.265 1.393 1.393 0 0 1-.6-.963l-.782-4.789a1.395 1.395 0 0 1 .266-1.103 1.402 1.402 0 0 1 .963-.6l4.663-.768Z"/><path fill="#000" d="M352.797 119.079a18.216 18.216 0 0 1 5.082-.098c1.614.192 3.182.664 4.634 1.396 1.383.717 2.6 1.716 3.574 2.932a10.566 10.566 0 0 1 1.843 8.376 11.682 11.682 0 0 1-1.271 3.169c-.555.961-1.2 1.868-1.926 2.708-.712.837-1.396 1.633-2.024 2.401a15.165 15.165 0 0 0-1.634 2.303 4.321 4.321 0 0 0-.642 2.388 2.346 2.346 0 0 1-.321 1.116 1.31 1.31 0 0 1-.907.587l-4.188.67a1.507 1.507 0 0 1-1.131-.252 1.219 1.219 0 0 1-.572-.963 9.493 9.493 0 0 1 .279-3.881 13.679 13.679 0 0 1 1.396-3.183 18.535 18.535 0 0 1 2.01-2.694c.74-.837 1.396-1.619 2.038-2.373a11.812 11.812 0 0 0 1.48-2.192 3.503 3.503 0 0 0 .377-2.205 4.189 4.189 0 0 0-2.303-3.114 7.526 7.526 0 0 0-4.831-.586 7.231 7.231 0 0 0-6.044 5.738 3.166 3.166 0 0 1-.419.991 1.481 1.481 0 0 1-.949.461l-4.412.712a1.2 1.2 0 0 1-.893-.182 1.152 1.152 0 0 1-.489-.81 8.385 8.385 0 0 1 .628-4.062 13.377 13.377 0 0 1 2.402-4.076 16.415 16.415 0 0 1 3.964-3.351 14.544 14.544 0 0 1 5.249-1.926Zm7.204 30.502a1.473 1.473 0 0 1 1.102.266 1.398 1.398 0 0 1 .615.963l.781 4.788a1.491 1.491 0 0 1-1.228 1.703l-4.677.768a1.495 1.495 0 0 1-1.103-.265 1.393 1.393 0 0 1-.6-.963l-.782-4.789a1.395 1.395 0 0 1 .266-1.103 1.402 1.402 0 0 1 .963-.6l4.663-.768Z" opacity=".2"/><path fill="#BAE8E8" d="M392.276 126.603a1.708 1.708 0 0 1 .712 1.145 1.674 1.674 0 0 1-.293 1.312l-3.323 4.677a1.709 1.709 0 0 1-1.144.712 1.691 1.691 0 0 1-1.313-.293l-4.578-3.253a1.626 1.626 0 0 1-.698-1.145 1.673 1.673 0 0 1 .293-1.312l3.364-4.677a1.774 1.774 0 0 1 2.457-.418l4.523 3.252Zm19.321-31.675a20.614 20.614 0 0 1 4.411 4.188 16.123 16.123 0 0 1 2.792 5.026c.579 1.752.775 3.609.572 5.444a11.378 11.378 0 0 1-2.149 5.403 11.528 11.528 0 0 1-3.295 3.21 13.759 13.759 0 0 1-3.699 1.62 23.424 23.424 0 0 1-3.881.67l-3.714.335c-1.113.089-2.216.28-3.294.572a5.387 5.387 0 0 0-2.625 1.452c-.325.33-.736.562-1.186.67a1.399 1.399 0 0 1-1.257-.251l-4.048-2.876a1.84 1.84 0 0 1-.74-1.159 1.477 1.477 0 0 1 .321-1.298 11.611 11.611 0 0 1 3.476-3.015 15.95 15.95 0 0 1 3.853-1.494 22.926 22.926 0 0 1 3.951-.6c1.312-.084 2.541-.182 3.685-.293a14.542 14.542 0 0 0 3.085-.615 4.18 4.18 0 0 0 2.15-1.633 4.95 4.95 0 0 0 .656-4.537 8.86 8.86 0 0 0-3.587-4.509c-3.016-2.15-6.306-2.22-9.87-.209a3.486 3.486 0 0 1-1.173.474 1.654 1.654 0 0 1-1.2-.405l-4.3-3.057a1.391 1.391 0 0 1-.6-.907 1.397 1.397 0 0 1 .265-1.09 10.07 10.07 0 0 1 3.839-3 16.236 16.236 0 0 1 5.416-1.397 19.017 19.017 0 0 1 6.143.489 16.757 16.757 0 0 1 6.003 2.792Z"/><path fill="#fff" d="M392.276 126.603a1.708 1.708 0 0 1 .712 1.145 1.674 1.674 0 0 1-.293 1.312l-3.323 4.677a1.709 1.709 0 0 1-1.144.712 1.691 1.691 0 0 1-1.313-.293l-4.578-3.253a1.626 1.626 0 0 1-.698-1.145 1.673 1.673 0 0 1 .293-1.312l3.364-4.677a1.774 1.774 0 0 1 2.457-.418l4.523 3.252Zm19.321-31.675a20.614 20.614 0 0 1 4.411 4.188 16.123 16.123 0 0 1 2.792 5.026c.579 1.752.775 3.609.572 5.444a11.378 11.378 0 0 1-2.149 5.403 11.528 11.528 0 0 1-3.295 3.21 13.759 13.759 0 0 1-3.699 1.62 23.424 23.424 0 0 1-3.881.67l-3.714.335c-1.113.089-2.216.28-3.294.572a5.387 5.387 0 0 0-2.625 1.452c-.325.33-.736.562-1.186.67a1.399 1.399 0 0 1-1.257-.251l-4.048-2.876a1.84 1.84 0 0 1-.74-1.159 1.477 1.477 0 0 1 .321-1.298 11.611 11.611 0 0 1 3.476-3.015 15.95 15.95 0 0 1 3.853-1.494 22.926 22.926 0 0 1 3.951-.6c1.312-.084 2.541-.182 3.685-.293a14.542 14.542 0 0 0 3.085-.615 4.18 4.18 0 0 0 2.15-1.633 4.95 4.95 0 0 0 .656-4.537 8.86 8.86 0 0 0-3.587-4.509c-3.016-2.15-6.306-2.22-9.87-.209a3.486 3.486 0 0 1-1.173.474 1.654 1.654 0 0 1-1.2-.405l-4.3-3.057a1.391 1.391 0 0 1-.6-.907 1.397 1.397 0 0 1 .265-1.09 10.07 10.07 0 0 1 3.839-3 16.236 16.236 0 0 1 5.416-1.397 19.017 19.017 0 0 1 6.143.489 16.757 16.757 0 0 1 6.003 2.792Z" opacity=".6"/><path fill="#263238" d="M288.316 250.177h-49.6V130.009a39.351 39.351 0 0 1 39.353-39.353h4.579a39.352 39.352 0 0 1 39.353 39.353v86.552a33.684 33.684 0 0 1-33.685 33.616Zm-54.43 289.293a92.397 92.397 0 0 0-1.396 15.077c-.182 9.158-1.857 12.41-2.08 19.921-.265 8.585 1.228 11.796 4.704 16.626 3.476 4.831 12.564 9.2 16.501 1.047 3.937-8.152 3.364-13.499 2.122-21.917-1.27-8.711-1.396-13.527-2.178-20.158-.642-5.849-1.396-10.303-1.396-10.303l-16.277-.293Z"/><path fill="#FFA8A7" d="m259.879 478.647-30.153-.545c.446 20.13 3.643 42.48 4.188 61.424.111 3.56-.084 27.627 1.256 34.9 2.024 11.001 15.063 9.507 15.761 2.932.698-6.575-.838-34.677-.796-37.581-.125-12.117 5.584-32.568 8.53-54.318.125-1.047 1.075-5.765 1.214-6.812Z"/><path fill="#263238" d="M298.618 523.807s-1.186-.642-1.396.628c-.293 1.508-.74 4.621-1.396 7.106-.865 3.448-1.591 9.13-1.075 11.95.517 2.82 7.078 6.421 11.336 7.734a34.54 34.54 0 0 1 13.96 8.306c4.188 3.964 13.304 7.706 19.544 7.664 7.329 0 12.438-2.443 14.853-6.366 2.415-3.923-2.205-4.397-10.581-9.772l-6.492-4.188c-13.276-8.669-18.148-13.304-21.875-21.973l-16.878-1.089Z"/><path fill="#FFA8A7" d="M315.608 518.433c-.224-6.227 4.076-59.149 4.076-59.149l-28.632 13.053c6.128 36.603 7.441 45.244 7.538 51.233a5.325 5.325 0 0 0-.153 1.535c0 7.106 8.055 10.945 14.309 15.691a117.637 117.637 0 0 0 16.933 11.057c4.551 2.275 13.793 2.485 14.938-.433-7.623-5.821-18.707-14.532-24.765-21.177-2.96-3.127-4.021-5.57-4.244-11.81Z"/><path fill="#455A64" d="M242.08 282.215c-11 24.137-11 42.816-9.171 73.625 1.619 28.269 4.313 53.188 4.313 53.188-.419 5.012-7.385 14.798-8.292 36.966-.838 20.717 1.396 47.059 1.396 47.059s15.649 8.669 27.222-.084c0 0 11.168-53.313 14.435-79.25 2.792-22.63 7.817-51.541 7.817-51.541l10.568 51.387a134.032 134.032 0 0 0-4.942 22.336c-1.48 15.258 7.064 45.216 7.064 45.216s16.166 4.817 26.035-3.936c0 0 3.686-48.707 5.068-67.078 1.843-24.612-2.038-91.229-5.068-126.506l-76.445-1.382Z"/><path fill="#263238" d="m279.828 362.136 4.342-38.725s19.46-2.596 28.283-10.888a31.941 31.941 0 0 1-22.937 14.49l-6.282 36.031 7.134 50.521-10.54-51.429Z"/><path fill="#FFA8A7" d="M358.632 272.695a167.874 167.874 0 0 0 1.061-21.289c-.432-6.143-1.535-7.148-10.121-18.023-11.586-14.7-21.484-27.92-31.954-41.056-7.483-9.381-15.356-10.819-23.006-10.4-5.361.293 5.109 26.077 10.372 41.335l30.056 32.36a6.421 6.421 0 0 1 1.201 4.425l-1.815 27.529 9.004 12.061s13.639-11.754 15.202-26.942Z"/><path fill="#BAE8E8" d="M265.631 182.764c-5.821.405-16.403 1.396-16.403 1.396-6.101 3.407-7.65 6.213-8.781 14.309-.489 3.462 2.331 12.662 4.746 25.743l4.579 24.248-.502 12.034c-2.373 7.343-7.748 16.458-12.494 29.902 23.313 13.011 42.857 13.499 60.586 11.168 13.513-1.745 20.675-5.012 23.062-8.25-.503-13.276-1.396-21.485-1.675-35.361-.098-5.821.251-11.713.488-18.413 9.06-7.455 9.172-19.851 4.188-27.92-11.489-18.609-22.671-30.321-30.07-29.721l-27.724.865Z"/><path fill="#fff" d="M265.631 182.764c-5.821.405-16.403 1.396-16.403 1.396-6.101 3.407-7.65 6.213-8.781 14.309-.489 3.462 2.331 12.662 4.746 25.743l4.579 24.248-.502 12.034c-2.373 7.343-7.748 16.458-12.494 29.902 23.313 13.011 42.857 13.499 60.586 11.168 13.513-1.745 20.675-5.012 23.062-8.25-.503-13.276-1.396-21.485-1.675-35.361-.098-5.821.251-11.713.488-18.413 9.06-7.455 9.172-19.851 4.188-27.92-11.489-18.609-22.671-30.321-30.07-29.721l-27.724.865Z" opacity=".6"/><path fill="#000" d="M301.187 239.721s-10.638 8.264-22.797 3.951a20.81 20.81 0 0 1-13.96-14.923s-1.284 13.89 14.03 18.622c14.84 4.565 22.727-7.65 22.727-7.65Z" opacity=".1"/><path fill="#FFA8A7" d="M315.622 144.64c-.461 20.158-6.98 25.128-10.275 26.524-3.294 1.396-9.604.558-15.747-.461v12.173s7.092 7.427 6.561 12.969c-.53 5.542-11.168 6.17-19.097.74a60.059 60.059 0 0 1-11.768-10.624 4.31 4.31 0 0 1-1.019-2.792v-28.478s-3.365 3.56-9.312-.517a10.986 10.986 0 0 1-4.905-7.356 10.978 10.978 0 0 1 2.113-8.586c2.597-3.057 9.186-3.267 12.341 1.396 1.787 3.476 2.024 6.98 4.021 5.584 5.304-3.825 2.457-12.564 8.864-16.752a46.028 46.028 0 0 1 6.533-2.792c11.434-3.951 21.345-7.273 23.732-15.091 4.496 2.569 8.516 10.289 7.958 34.063Z"/><path fill="#B16668" d="M293.076 162.648a2.653 2.653 0 1 0 0-5.306 2.653 2.653 0 0 0 0 5.306Z"/><path fill="#263238" d="M291.317 141.582a2.789 2.789 0 0 1-1.694 2.564 2.796 2.796 0 0 1-3.023-.545 2.79 2.79 0 0 1 .274-4.274 2.8 2.8 0 0 1 2.623-.366 2.798 2.798 0 0 1 1.595 1.52c.149.348.226.723.225 1.101Zm21.15.28a2.586 2.586 0 0 1-2.401 2.792 2.475 2.475 0 0 1-1.021-.123 2.443 2.443 0 0 1-1.646-2.39 2.543 2.543 0 0 1 3.423-2.642 2.538 2.538 0 0 1 1.645 2.404v-.041Z"/><path fill="#455A64" d="M287.73 148.758a9.091 9.091 0 0 1-9.088-9.074c0-6.171 6.365-6.171 9.088-6.171 2.722 0 9.074 0 9.074 6.171a9.09 9.09 0 0 1-9.074 9.074Zm0-13.821c-5.584 0-7.651 1.396-7.651 4.747a7.678 7.678 0 0 0 15.356 0c-.055-3.42-2.205-4.747-7.705-4.747Zm23.048 13.821a9.091 9.091 0 0 1-9.088-9.074c0-6.171 6.365-6.171 9.088-6.171 2.722 0 9.074 0 9.074 6.171a9.09 9.09 0 0 1-9.074 9.074Zm0-13.821c-5.501 0-7.651 1.396-7.651 4.747a7.678 7.678 0 0 0 15.356 0c-.055-3.42-2.205-4.747-7.705-4.747Z"/><path fill="#F28F8F" d="m298.214 136.752.446 16.962 8.921-2.765-9.367-14.197Zm-8.628 33.993c-6.477-.852-19.809-4.677-21.889-9.954a13.72 13.72 0 0 0 4.677 6.729c3.978 3.42 17.212 7.259 17.212 7.259v-4.034Z"/><path fill="#263238" d="m289.907 128.516-5.919 3.615a3.642 3.642 0 0 1 1.201-4.886 3.37 3.37 0 0 1 2.631-.374 3.38 3.38 0 0 1 2.087 1.645Zm24.081 4.02-6.589-2.303a3.34 3.34 0 0 1 1.688-2.037 3.325 3.325 0 0 1 2.64-.169 3.658 3.658 0 0 1 2.261 4.509Z"/><path fill="#455A64" d="M296.092 140.41a.706.706 0 0 1-.509-.214.711.711 0 0 1-.203-.512c0-1.159 2.289-1.913 4.355-1.913 2.066 0 3.392.754 3.392 1.913a.725.725 0 0 1-1.396 0c0-.14-.711-.489-1.954-.489-1-.021-1.995.149-2.932.503a.7.7 0 0 1-.223.519.713.713 0 0 1-.53.193Zm-16.711-.615h-.083l-15.957-1.396a7.728 7.728 0 0 0-2.61-1.703l18.734 1.731a.73.73 0 0 1 .628.796.7.7 0 0 1-.252.415.706.706 0 0 1-.46.157Z"/><path fill="#FFA8A7" d="M213.867 156.436c5.221-6.98 8.781-12.243 13.541-18.148 2.709-3.393 4.44-5.822 6.98-9.298 1.787-2.401 2.792-4.425 4.831-5.165a16.75 16.75 0 0 0 5.821-3.992 35.153 35.153 0 0 0 2.792-3.518 52.473 52.473 0 0 1 10.554-10.624c4.188-3.155 8.864-5.584 13.178-8.585 2.569-1.801 5.319-4.788 2.192-7.58a7.445 7.445 0 0 0-3.337-1.606c-7.608-1.647-14.225.963-21.666 2.862a61.214 61.214 0 0 0-9.451 3.197 16.84 16.84 0 0 0-4.188 2.4 22.098 22.098 0 0 0-4.313 6.171c-3.253 5.808-10.233 11.001-15.119 15.593-5.71 5.375-10.819 10.303-17.338 16.222-5.864 5.347-11.601 10.261-16.976 16.096-4.453 4.816-2.792 8.585-2.205 9.898 3.629 7.454 7.692 10.134 12.564 14.755 8.376 7.999 37.343 31.019 46.933 38.628a15.548 15.548 0 0 1 4.705 6.142l1.842 4.258c10.945 2.01 18.246-14.421 9.186-34.202a20.747 20.747 0 0 0-6.659-8.027c-11.447-8.334-33.867-25.477-33.867-25.477Z"/><path fill="#F28F8F" d="M213.867 156.436a28.794 28.794 0 0 1-13.373 9.199s6.98 1.787 16.542-6.798l-3.169-2.401Z"/><path fill="#455A64" d="m355.785 258.134-1.787-1.535a2.033 2.033 0 0 0-1.829-.21l-19.39 5.277a7.148 7.148 0 0 0-4.356 4.077l-13.96 40.246a1.843 1.843 0 0 0 .251 2.052l1.843 1.592a2.008 2.008 0 0 0 1.857.223l19.418-5.277a7.147 7.147 0 0 0 4.356-4.076c2.792-7.915 11.168-32.331 13.96-40.247.335-.991.167-1.745-.363-2.122Z"/><path fill="#BAE8E8" d="m316.292 307.539 13.96-40.247a7.089 7.089 0 0 1 4.355-4.062l19.377-5.277c1.801-.489 2.792.544 2.15 2.303-2.792 7.916-11.168 32.332-13.96 40.247a7.147 7.147 0 0 1-4.356 4.076l-19.376 5.333c-1.787.419-2.751-.614-2.15-2.373Z"/><path fill="#37474F" d="M332.499 264.347a6.977 6.977 0 0 0-2.261 2.959l-13.96 40.233a1.891 1.891 0 0 0 .195 2.01l-1.731-1.48a1.82 1.82 0 0 1-.265-2.052l13.96-40.247a6.858 6.858 0 0 1 2.08-2.792l1.982 1.369Z"/><path fill="#F28F8F" d="M350.466 276.478c-1.396 4.09-6.24 6.826-14.253 8.725-8.013 1.898-12.439 10.4-11.168 12.983 1.27 2.582 14.225 4.997 19.404 4.257 5.179-.739 10.372-8.222 11.95-10.539 1.577-2.318 3.392-18.483 1.731-20.703-1.661-2.22-5.165-1.871-5.165-1.871l-2.499 7.148Z"/></svg>