<svg xmlns="http://www.w3.org/2000/svg" width="698" height="698"><path fill="#BAE8E8" d="M668.349 384.682c-18.832 57.096-59.414 119.665-119.149 140.046-90.237 30.782-98.292 104.868-262.071 104.282a329.903 329.903 0 0 1-71.112-7.636 275.474 275.474 0 0 1-33.672-9.772C85.323 576.604 32.205 493.374 24.597 404.435 14.602 287.464 94.216 228.441 146.05 193.639c51.833-34.802 111.023-163.96 272.038-164.728a320.187 320.187 0 0 1 73.081 7.818c54.667 12.564 110.926 42.815 144.723 88.925a230.805 230.805 0 0 1 7.301 10.637c45.635 70.959 50.842 170.55 25.156 248.391Z"/><path fill="#6A9898" d="M668.349 384.682c-18.832 57.096-59.414 119.665-119.149 140.046-90.237 30.782-98.292 104.868-262.071 104.282a329.903 329.903 0 0 1-71.112-7.636 275.474 275.474 0 0 1-33.672-9.772C85.323 576.604 32.205 493.374 24.597 404.435 14.602 287.464 94.216 228.441 146.05 193.639c51.833-34.802 111.023-163.96 272.038-164.728a320.187 320.187 0 0 1 73.081 7.818c54.667 12.564 110.926 42.815 144.723 88.925a230.805 230.805 0 0 1 7.301 10.637c45.635 70.959 50.842 170.55 25.156 248.391Z" opacity=".7"/><path fill="#263238" d="M194.686 484.147H56.301a.698.698 0 0 1-.698-.698V281.21a.71.71 0 0 1 .698-.698h138.385a.7.7 0 0 1 .698.698v202.239a.696.696 0 0 1-.698.698Zm-137.687-1.396h137.045V281.908H56.999v200.843Z"/><path fill="#263238" d="M187.064 472.993H63.937a.715.715 0 0 1-.698-.698V292.378a.697.697 0 0 1 .698-.698h123.127a.7.7 0 0 1 .698.698v179.917a.7.7 0 0 1-.698.698Zm-122.415-1.396h121.717V293.076H64.635l.014 178.521Z"/><path fill="#263238" d="M157.05 429.158H93.937a.697.697 0 0 1-.698-.698v-92.247a.698.698 0 0 1 .698-.698h63.113a.699.699 0 0 1 .698.698v92.247a.699.699 0 0 1-.698.698Zm-62.415-1.396h61.717v-90.851H94.635v90.851ZM654.207 484.147H515.822a.7.7 0 0 1-.698-.698V281.21a.7.7 0 0 1 .698-.698h138.385a.711.711 0 0 1 .698.698v202.239a.696.696 0 0 1-.698.698Zm-137.687-1.396h136.989V281.908H516.52v200.843Z"/><path fill="#263238" d="M646.571 472.993H523.5a.712.712 0 0 1-.698-.698V292.378a.7.7 0 0 1 .698-.698h123.113a.7.7 0 0 1 .698.698v179.917a.701.701 0 0 1-.223.504.708.708 0 0 1-.517.194Zm-122.415-1.396h121.717V293.076H524.156v178.521Z"/><path fill="#263238" d="M616.571 429.158h-63.113a.696.696 0 0 1-.698-.698v-92.247a.698.698 0 0 1 .698-.698h63.113a.699.699 0 0 1 .698.698v92.247a.699.699 0 0 1-.698.698Zm-62.415-1.396h61.717v-90.851h-61.661l-.056 90.851Z"/><path fill="#263238" d="M591.806 74.337H119.609a11.375 11.375 0 0 0-11.377 11.391V453.31a11.372 11.372 0 0 0 7.023 10.511c1.381.572 2.86.866 4.354.866h286.418l33.504 26.05-5.068-26.05h157.343a11.376 11.376 0 0 0 11.378-11.377V85.729a11.373 11.373 0 0 0-7.021-10.525 11.372 11.372 0 0 0-4.357-.867Z"/><path fill="#263238" d="M439.517 491.392a.708.708 0 0 1-.433-.154l-33.309-25.895h-286.18a12.088 12.088 0 0 1-12.103-12.034V85.729a12.106 12.106 0 0 1 12.075-12.09h472.239a12.105 12.105 0 0 1 12.076 12.09v367.58a12.09 12.09 0 0 1-12.076 12.075H435.287l4.914 25.212a.675.675 0 0 1-.321.726.692.692 0 0 1-.363.07ZM119.609 75.035a10.69 10.69 0 0 0-9.904 6.595 10.696 10.696 0 0 0-.817 4.098V453.31a10.692 10.692 0 0 0 10.679 10.679h286.46a.71.71 0 0 1 .418.14l32.025 24.919-4.705-24.179a.71.71 0 0 1 .14-.572.75.75 0 0 1 .245-.184.755.755 0 0 1 .299-.068h157.357a10.692 10.692 0 0 0 10.68-10.679V85.728a10.695 10.695 0 0 0-10.68-10.693H119.609Z"/><path fill="#BAE8E8" d="M600.099 62.946H127.902a11.38 11.38 0 0 0-11.378 11.377v367.581a11.378 11.378 0 0 0 11.378 11.377h286.403l33.504 26.05-5.054-26.05h157.344a11.377 11.377 0 0 0 11.377-11.377V74.323a11.38 11.38 0 0 0-11.377-11.377Z"/><path fill="#fff" d="M246.115 242.29s-12.704-21.164-32.108-22.336c-19.405-1.173-22.978 15.719-29.623 19.963-6.645 4.243-12.09-3.63-20.563-.615-8.474 3.016-7.26 7.86-13.96 10.889-6.701 3.029-11.489-4.844-18.148-1.815-6.659 3.03-8.46 6.645-8.46 6.645h149.372s-4.188-11.489-10.889-13.29c-6.701-1.8-8.362 6.003-15.621.559ZM583.528 163.89s-9.283-15.481-23.453-16.375c-14.169-.893-16.822 11.517-21.68 14.616-4.858 3.1-8.85-2.666-15.049-.446-6.198 2.219-5.318 5.751-10.176 7.971-4.858 2.22-8.376-3.546-13.276-1.396s-6.199 4.872-6.199 4.872h109.377s-3.099-8.376-7.957-9.772c-4.858-1.396-6.212 4.523-11.587.53ZM540.894 105.147s-17.157-28.604-43.276-30.238c-26.119-1.633-31.075 21.247-40.065 26.999-8.99 5.752-16.347-4.9-27.78-.81-11.434 4.091-9.772 10.624-18.791 14.7-9.018 4.076-15.523-6.533-24.513-2.443-8.991 4.09-11.434 8.99-11.434 8.99h201.806s-5.723-15.523-14.7-17.98c-8.976-2.457-11.447 8.125-21.247.782Z"/><g fill="#000" opacity=".15"><path d="M168.344 398.614a4.802 4.802 0 0 0-6.98-1.717c-2.429 1.521-3.462 4.9-3.7 7.608-.279 3.169 2.164 9.87 2.164 9.87s3.937-2.946 4.188-3.155c2.597-2.541 6.142-8.963 4.328-12.606Z"/><path d="M129.828 434.002a67.245 67.245 0 0 0 1.228-1.675c1.843-3.127 3.546-10.246.838-13.29a4.804 4.804 0 0 0-7.147.182c-1.941 2.108-2.053 5.584-1.564 8.306.489 2.722 3.63 7.413 4.481 8.641l-1.815 1.815c-2.792 2.792-5.584 5.696-8.376 8.376.236.536.511 1.054.824 1.55l.126-.112a877.29 877.29 0 0 0 8.487-8.865l2.611-2.708c.293.475 3.755 6.087 6.296 7.776 2.247 1.507 5.584 2.792 8.25 1.87a4.828 4.828 0 0 0 3.002-6.505c-1.717-3.685-8.935-4.942-12.564-4.495-.266 0-3.937.907-4.858 1.187 1.912-1.997 3.839-3.965 5.807-5.822a87.516 87.516 0 0 1 8.376-7.05c.139.224 3.741 6.101 6.338 7.832 2.247 1.508 5.584 2.792 8.25 1.871a4.817 4.817 0 0 0 3.001-6.506c-1.717-3.685-8.934-4.942-12.564-4.495-.279 0-4.188.991-4.927 1.215.167-.126.335-.28.516-.391a61.413 61.413 0 0 1 9.577-5.431 74.3 74.3 0 0 1 5.416-2.233c.559 1.158 3.183 6.435 5.333 8.264 2.15 1.829 5.207 3.392 7.999 2.792a4.826 4.826 0 0 0 3.221-2.246 4.805 4.805 0 0 0 .478-3.896c-1.298-3.853-8.376-5.891-11.963-5.836-.196 0-2.206.238-3.658.447.81-.293 1.633-.6 2.401-.851 2.918-.992 5.584-1.704 8.069-2.318a112.7 112.7 0 0 1 3.811-.879c1.145.865 5.794 4.188 8.502 4.858 2.708.67 6.184.614 8.376-1.243a4.81 4.81 0 0 0 1.521-5.446 4.82 4.82 0 0 0-1.074-1.687c-2.932-2.792-10.121-1.396-13.318.321-.279.139-4.328 2.959-4.272 3.001h.07c-1.145.21-2.359.461-3.672.754-2.443.572-5.193 1.229-8.138 2.15a83.38 83.38 0 0 0-9.368 3.42 63.757 63.757 0 0 0-9.772 5.277l-.111.084c.754-.936 2.792-3.602 2.876-3.811 1.842-3.141 3.559-10.261.851-13.304a4.805 4.805 0 0 0-3.621-1.506 4.82 4.82 0 0 0-3.54 1.687c-1.927 2.108-2.053 5.584-1.564 8.306.558 3.016 4.342 8.446 4.649 8.879a83.77 83.77 0 0 0-8.879 7.092c-1.619 1.549-3.225 3.085-4.816 4.648ZM116.524 435.44v6.464c-.001.74.069 1.479.21 2.205.823-2.973 1.074-6.477-.21-8.669ZM176.622 308.516c3.657-5.221 7.65-17.45 3.336-23.146a8.446 8.446 0 0 0-12.564-.684c-3.685 3.42-4.383 9.591-3.894 14.323.572 5.584 6.98 16.333 6.98 16.333s5.821-6.323 6.142-6.826Z"/><path d="M224.421 291.987c-5.961-3.908-17.897.922-22.853 4.914-.418.349-6.505 6.534-6.379 6.589h.125a190.77 190.77 0 0 0-6.086 2.513c-4.021 1.773-8.544 3.811-13.332 6.366a149.362 149.362 0 0 0-15.021 8.976 109.078 109.078 0 0 0-15.216 12.313l-.168.167c.991-1.842 3.56-7.091 3.713-7.51 2.15-6.003 2.792-18.86-2.889-23.202a8.377 8.377 0 0 0-12.285 2.639c-2.652 4.286-1.689 10.414 0 14.853 1.926 4.998 10.247 13.137 10.917 13.793a149.053 149.053 0 0 0-12.997 15.119c-2.345 3.085-4.607 6.282-6.84 9.492.795-1.619 1.507-3.071 1.577-3.294 2.15-5.989 2.792-18.846-2.89-23.188a7.873 7.873 0 0 0-7.301-1.256v26.133c2.276 2.694 4.635 5.081 5.584 6.045-.837 1.242-1.689 2.471-2.527 3.727l-3.071 4.565v4.858c1.717-2.68 3.448-5.361 5.165-8.055 1.187-1.857 2.388-3.685 3.588-5.584.656.726 8.488 9.269 13.416 11.363 4.383 1.857 10.484 3.016 14.853.503a8.37 8.37 0 0 0 4.375-8.931 8.35 8.35 0 0 0-1.346-3.256c-4.188-5.794-17.017-5.584-23.089-3.644-.447.14-6.492 2.862-7.985 3.63 2.638-4.062 5.318-8.083 8.11-11.936a147.383 147.383 0 0 1 12.243-14.909c.307.335 8.376 9.283 13.486 11.433 4.369 1.857 10.47 3.015 14.839.503a8.386 8.386 0 0 0 4.272-5.407 8.384 8.384 0 0 0-1.229-6.78c-4.188-5.794-17.031-5.584-23.09-3.644-.474.14-6.98 3.085-8.11 3.699.265-.279.502-.586.754-.851a109.663 109.663 0 0 1 14.755-12.48c2.89-2.094 5.78-3.923 8.614-5.584 1.396 1.828 7.58 10.093 11.907 12.564 4.328 2.471 10.08 4.188 14.7 2.136a8.394 8.394 0 0 0 2.947-1.934 8.37 8.37 0 0 0 1.409-9.849c-3.49-6.226-16.305-7.44-22.546-6.17-.349.07-3.713 1.159-6.156 1.982 1.284-.754 2.611-1.563 3.867-2.261 4.705-2.653 9.172-4.789 13.136-6.645 2.276-1.033 4.342-1.927 6.296-2.792 2.248 1.089 11.378 5.416 16.25 5.584 4.872.167 10.861-.963 13.96-4.886a8.462 8.462 0 0 0 2.018-6.526 8.44 8.44 0 0 0-3.47-5.885ZM116.524 388.702v15.58c.393.231.799.44 1.215.628 4.383 1.857 10.484 3.015 14.853.502a8.368 8.368 0 0 0 4.375-8.931 8.362 8.362 0 0 0-1.346-3.256c-3.378-4.718-12.536-5.472-19.097-4.523ZM119.651 449.721a11.303 11.303 0 0 0 8.251 3.56h3.559c-2.373-2.917-8.515-3.937-11.81-3.56ZM522.676 274.817c.154 0-6.296-8.376-6.77-8.879-5.403-5.584-19.125-13.108-26.915-9.242-5.584 2.792-6.868 9.772-3.672 14.84 3.197 5.067 10.47 7.427 16.25 7.915 6.77.587 21.107-4.634 21.107-4.634ZM611.448 441.569v-5.696a443.046 443.046 0 0 0-8.013-3.825 110.28 110.28 0 0 0 2.862-12.815c1.748-.19 3.473-.55 5.151-1.075V400.01c-3.71-1.808-7.689-3-11.782-3.532a12.345 12.345 0 0 0-1.885-1.27c-5.263-2.89-12.159-1.187-14.588 4.578-3.378 8 4.998 21.234 10.875 26.301.335.293 4.467 3.113 7.091 4.858-1.703-.796-3.336-1.577-5.109-2.359-3.462-1.578-6.98-3.057-10.749-4.663l-5.584-2.15c-1.857-.753-3.909-1.312-5.891-1.996a184.375 184.375 0 0 0-14.128-3.909c1.396-3.043 6.101-13.96 6.143-19.739.042-5.779-1.55-13.178-6.408-16.906-4.858-3.727-11.838-3.001-15.119 2.318-4.565 7.399 1.717 21.749 6.757 27.654.307.363 4.397 4.188 6.687 6.241-2.89-.684-5.766-1.396-8.711-1.969-8.516-1.717-17.171-3.183-25.812-4.69-2.639-.461-5.277-.95-7.902-1.396.503-1.075 6.408-13.891 6.436-20.396 0-5.793-1.536-13.192-6.408-16.905a10.253 10.253 0 0 0-8.077-2.222 10.25 10.25 0 0 0-7.041 4.539c-4.551 7.399 1.717 21.75 6.756 27.641.391.446 6.282 5.933 7.846 7.259-5.808-1.061-11.573-2.178-17.227-3.504a181.947 181.947 0 0 1-22.489-6.715c.237-.502 6.463-13.848 6.505-20.521 0-5.793-1.55-13.178-6.422-16.906a10.269 10.269 0 0 0-8.069-2.214 10.263 10.263 0 0 0-7.035 4.532c-4.565 7.399 1.717 21.749 6.756 27.641.391.46 6.743 6.365 7.971 7.357-.432-.154-.893-.28-1.312-.447a132.754 132.754 0 0 1-20.94-10.694c-3.699-2.261-7.119-4.634-10.386-6.98 1.396-2.373 7.748-13.262 8.446-19.264.67-5.752-.07-13.262-4.509-17.506-4.44-4.244-11.434-4.286-15.273.656-5.346 6.84-.684 21.805 3.672 28.213.237.349 3.043 3.63 5.123 5.989-1.466-1.103-2.987-2.206-4.369-3.281-5.179-4.034-9.675-8.055-13.625-11.642-2.234-2.052-4.188-3.965-6.045-5.766.182-3.043.74-15.356-1.396-20.94-2.136-5.584-6.184-11.74-12.075-13.457-5.891-1.717-12.132 1.396-13.262 7.608-1.578 8.543 9.437 19.67 16.263 23.341.6.321 10.386 4.188 10.4 4.076.014-.111 0-.139 0-.181a276.084 276.084 0 0 0 5.682 5.654c3.881 3.685 8.376 7.817 13.416 11.977a183.91 183.91 0 0 0 17.142 12.648 132.963 132.963 0 0 0 20.94 11.294l.266.098c-2.527-.238-9.633-.657-10.191-.629-7.734.405-22.462 5.766-24.681 14.156a10.286 10.286 0 0 0 8.739 12.564c6.058.963 12.494-2.988 16.668-6.98 4.704-4.537 9.925-17.702 10.344-18.749a181.517 181.517 0 0 0 23.174 7.511c4.579 1.173 9.213 2.22 13.876 3.211-2.192-.14-4.188-.238-4.439-.224-7.748.419-22.462 5.766-24.682 14.156-1.605 6.058 2.793 11.615 8.739 12.564 5.947.949 12.495-2.988 16.669-6.98 4.174-3.993 8.906-15.217 10.107-18.148l5.374 1.089c8.614 1.703 17.213 3.364 25.603 5.235 2.959.67 5.849 1.396 8.739 2.177-1.954-.111-3.602-.195-3.853-.181-7.734.405-22.462 5.766-24.681 14.155-1.606 6.045 2.792 11.615 8.739 12.564 5.947.95 12.564-2.987 16.668-6.98 4.104-3.992 8.446-14.127 9.898-17.645 2.931.852 5.877 1.717 8.683 2.68 1.898.698 3.783 1.243 5.653 2.052l5.584 2.262c3.477 1.577 7.078 3.183 10.429 4.802 2.345 1.103 4.551 2.206 6.784 3.309-2.931-.698-8.711-1.941-9.213-1.983-7.706-.767-23.076 2.29-26.524 10.261a9.582 9.582 0 0 0 .572 8.795h24.318c5.124-4.188 11.517-14.923 12.341-16.333 3.127 1.437 6.226 2.973 9.018 4.495Z"/><path d="M598.214 360.978c0 .474 1.396 5.919 2.136 8.892-2.038-2.164-4.049-4.327-6.185-6.449-6.142-6.129-12.564-12.132-18.929-18.148a441.946 441.946 0 0 1-5.808-5.584c1.005-.629 12.997-8.055 16.627-13.472 3.224-4.802 5.989-11.838 3.978-17.631-2.01-5.794-8.208-9.046-13.96-6.408-7.873 3.658-10.553 19.083-9.604 26.789.07.573 1.954 8.376 2.541 10.373-4.188-4.077-8.46-8.195-12.439-12.411a181.219 181.219 0 0 1-14.923-17.994c.475-.279 13.025-7.985 16.752-13.527 3.211-4.817 5.989-11.839 3.979-17.632-2.011-5.793-8.223-9.046-13.891-6.408-7.887 3.658-10.567 19.084-9.618 26.79.084.6 2.108 9.032 2.596 10.526-.265-.363-.586-.726-.851-1.089a134.04 134.04 0 0 1-11.573-20.48c-1.843-3.936-3.378-7.789-4.802-11.586 2.485-1.187 13.778-6.771 17.673-11.392 3.895-4.621 7.259-11.168 5.905-17.087-1.354-5.919-7.175-9.898-13.108-7.901-8.237 2.792-12.564 17.813-12.564 25.574 0 .419.53 4.705.963 7.804-.614-1.717-1.27-3.476-1.829-5.137-2.094-6.226-3.629-12.048-4.942-17.227a224.78 224.78 0 0 1-1.856-8.138c1.829-2.443 9.06-12.383 10.358-18.148 1.298-5.766 1.396-13.193-2.638-17.883-4.035-4.691-10.917-5.473-15.259-.963-6.03 6.254-2.973 21.61.684 28.45.322.586 6.324 9.255 6.422 9.13l.112-.14c.474 2.429.991 5.026 1.619 7.846 1.215 5.221 2.625 11.168 4.593 17.394a181.543 181.543 0 0 0 7.315 19.977 133.74 133.74 0 0 0 11.266 20.94c.06.071.116.145.167.223-1.982-1.591-7.664-5.863-8.138-6.142-6.687-3.923-21.918-7.595-28.409-1.815a10.284 10.284 0 0 0-2.25 11.947 10.278 10.278 0 0 0 2.627 3.409c4.523 4.188 12.061 4.383 17.757 3.336 6.436-1.172 18.05-9.283 18.972-9.925a183.532 183.532 0 0 0 15.132 18.985 327.067 327.067 0 0 0 9.772 10.331c-1.745-1.326-3.336-2.499-3.574-2.639-6.686-3.922-21.917-7.58-28.394-1.801-4.677 4.188-4.062 11.168.363 15.356 4.425 4.188 12.075 4.384 17.771 3.337 5.696-1.047 15.817-7.762 18.455-9.577l3.881 3.881c6.254 6.171 12.564 12.299 18.469 18.483 2.094 2.192 4.09 4.412 6.087 6.631-1.564-1.172-2.89-2.15-3.114-2.275-6.686-3.923-21.917-7.581-28.394-1.801-4.677 4.188-4.063 11.168.363 15.286 4.425 4.118 12.075 4.398 17.771 3.351 5.696-1.047 14.839-7.12 17.98-9.256 1.983 2.331 3.965 4.663 5.78 6.98 1.144 1.564 2.345 3.001 3.42 4.607v-6.98a1.063 1.063 0 0 1-.112-.154c-3.029-3.769-6.282-7.44-9.646-11.056a115.04 115.04 0 0 0 9.772-6.882v-31.131a9.65 9.65 0 0 0-3.644.893c-7.873 3.602-10.553 19.042-9.604 26.748ZM285.929 451.313c-2.066-1.271-3.979-2.597-5.808-3.923.796-1.396 4.342-7.413 4.733-10.777.391-3.364 0-7.427-2.527-9.772a5.765 5.765 0 0 0-8.557.363c-2.988 3.839-.377 12.201 2.066 15.789.125.195 1.703 2.038 2.792 3.35-.824-.614-1.676-1.228-2.443-1.829-2.904-2.261-5.417-4.509-7.623-6.519a116.318 116.318 0 0 1-3.378-3.225c.098-1.703.405-8.571-.768-11.684-1.172-3.113-3.462-6.562-6.756-7.525a5.75 5.75 0 0 0-7.427 4.188c-.879 4.775 5.291 11.001 9.102 13.067.335.181 5.807 2.359 5.821 2.275v-.097c.977.991 2.024 2.038 3.183 3.168 2.178 2.053 4.649 4.356 7.511 6.687a99.379 99.379 0 0 0 9.59 7.092l2.094 1.298h1.717a81.17 81.17 0 0 1-3.322-1.926Z"/><path d="M279.2 447.516c0-.07-5.584-1.983-5.905-2.052-4.188-.922-12.969-.21-15.356 3.992a5.348 5.348 0 0 0-.586 3.825h17.003a62.71 62.71 0 0 0 4.844-5.765ZM354.584 428.572c-1.103-1.033-2.178-2.08-3.253-3.113.559-.349 7.273-4.509 9.298-7.538 1.8-2.695 3.35-6.618 2.233-9.87a5.746 5.746 0 0 0-5.427-4.046 5.754 5.754 0 0 0-2.348.472c-4.412 2.038-5.906 10.679-5.375 14.979 0 .321 1.089 4.705 1.396 5.807-2.387-2.275-4.732-4.578-6.98-6.98a103.774 103.774 0 0 1-8.376-10.093c.265-.153 7.287-4.467 9.367-7.566 1.801-2.694 3.351-6.631 2.22-9.87a5.755 5.755 0 0 0-5.415-4.052 5.737 5.737 0 0 0-2.347.465c-4.411 2.052-5.919 10.693-5.389 14.993 0 .335 1.187 5.053 1.396 5.891l-.474-.614a74.56 74.56 0 0 1-6.478-11.462c-1.033-2.191-1.884-4.355-2.68-6.477 1.396-.67 7.706-3.783 9.884-6.366 2.177-2.582 4.062-6.226 3.308-9.562a5.778 5.778 0 0 0-2.685-3.849 5.77 5.77 0 0 0-4.658-.577c-4.607 1.55-6.98 9.968-6.98 14.309 0 .238.293 2.625.531 4.37-.335-.963-.712-1.941-1.019-2.876-1.173-3.476-2.038-6.743-2.792-9.632a186.26 186.26 0 0 1-1.047-4.565c1.019-1.396 5.081-6.98 5.807-10.163s.74-7.385-1.48-10.01a5.76 5.76 0 0 0-4.15-2.178 5.758 5.758 0 0 0-4.393 1.634c-3.379 3.504-1.661 12.103.391 15.928.167.321 3.532 5.18 3.587 5.11v-.084c.252 1.396.545 2.792.908 4.397.67 2.918 1.466 6.199 2.568 9.772a104.45 104.45 0 0 0 4.077 11.168 76.44 76.44 0 0 0 6.31 11.741l.097.125c-1.102-.893-4.285-3.28-4.551-3.434-3.741-2.205-12.27-4.188-15.9-1.019a5.766 5.766 0 0 0 .209 8.558c2.527 2.317 6.757 2.457 9.94 1.87 3.602-.656 10.093-5.193 10.609-5.584a101.678 101.678 0 0 0 8.474 10.624c1.773 1.968 3.616 3.881 5.486 5.779-.977-.74-1.87-1.396-1.996-1.466-3.755-2.205-12.271-4.188-15.9-1.019a5.766 5.766 0 0 0 .209 8.558c2.527 2.317 6.757 2.457 9.94 1.871 3.183-.587 8.85-4.342 10.33-5.361l2.178 2.178c3.49 3.448 6.98 6.868 10.33 10.344a121.39 121.39 0 0 1 3.406 3.713c-.879-.67-1.619-1.214-1.745-1.284-3.741-2.192-12.256-4.188-15.886-1.005a5.743 5.743 0 0 0-1.804 4.325 5.753 5.753 0 0 0 2.013 4.232c2.527 2.318 6.743 2.457 9.94 1.871 3.197-.586 8.306-3.993 10.065-5.179 1.103 1.298 2.206 2.61 3.225 3.923.614.851 1.27 1.633 1.857 2.498h2.959l-.838-1.172c-.628-.922-1.396-1.815-2.135-2.792a106.373 106.373 0 0 0-5.389-6.198c1.591-.992 7.148-4.607 8.962-7.315 1.815-2.709 3.351-6.631 2.234-9.87a5.775 5.775 0 0 0-3.09-3.523 5.767 5.767 0 0 0-4.686-.065c-4.411 2.052-5.919 10.693-5.374 14.993 0 .265.753 3.323 1.186 4.984-1.131-1.215-2.261-2.429-3.462-3.616-3.294-3.266-6.882-6.631-10.428-10.037ZM324.654 451.955c0-3.239-.866-7.371-3.588-9.465a5.759 5.759 0 0 0-4.518-1.231 5.767 5.767 0 0 0-3.942 2.529c-1.479 2.415-.907 6.143.391 9.493h11.531c.073-.438.115-.882.126-1.326ZM407.632 396.939c5.584 2.526 12.843.404 17.925-2.374 5.975-3.252 15.049-15.495 15.049-15.509 0-.014-9.94-3.532-10.638-3.672-7.58-1.647-23.188-.377-27.557 7.134a10.303 10.303 0 0 0 5.221 14.421ZM393.546 445.324a5.742 5.742 0 0 0-5.971-3.191 5.755 5.755 0 0 0-2.251.818c-2.708 1.801-3.672 6.324-3.672 10.358h12.02a10.52 10.52 0 0 0-.126-7.985Z"/><path d="M313.346 391.787c3.783.321 11.81-2.596 11.81-2.596s-3.532-4.705-3.783-4.97c-3.029-3.113-10.707-7.343-15.063-5.179a5.744 5.744 0 0 0-2.923 3.722 5.737 5.737 0 0 0-.072 2.419c.147.803.464 1.564.929 2.235 1.829 2.834 5.863 4.09 9.102 4.369ZM345.719 447.641a5.74 5.74 0 0 0-2.128-1.099 5.742 5.742 0 0 0-6.331 2.398 7.341 7.341 0 0 0-.838 4.341h12.494a9.561 9.561 0 0 0-3.197-5.64ZM302.192 446.12c0-3.239-.865-7.371-3.588-9.451a5.727 5.727 0 0 0-4.52-1.245 5.746 5.746 0 0 0-3.939 2.543c-2.513 4.076.865 11.936 3.671 15.356h6.547a24.455 24.455 0 0 0 1.829-7.203ZM118.143 152.332c1.047-1.704 2.136-3.267 3.225-4.775 1.089.656 6.087 3.574 8.851 3.895 2.764.321 6.1 0 8.041-2.08a4.712 4.712 0 0 0 1.398-3.555 4.713 4.713 0 0 0-1.691-3.425c-3.141-2.457-10.024-.307-12.969 1.689-.154.112-1.661 1.396-2.792 2.359.502-.67 1.005-1.396 1.508-2.01 1.856-2.387 3.699-4.453 5.346-6.268.949-1.019 1.829-1.926 2.653-2.792 1.396.084 7.049.335 9.604-.628 2.555-.963 5.389-2.792 6.184-5.584a4.713 4.713 0 0 0-1.708-5.287 4.724 4.724 0 0 0-1.796-.8c-3.922-.726-9.046 4.342-10.735 7.469-.139.279-1.94 4.774-1.87 4.788h.083c-.809.796-1.675 1.661-2.596 2.611-1.703 1.787-3.588 3.825-5.501 6.17a81.654 81.654 0 0 0-5.821 7.887 51.24 51.24 0 0 0-1.075 1.718v1.396c.573-.936 1.117-1.871 1.661-2.778Z"/><path d="M121.257 146.803s1.633-4.537 1.689-4.844c.768-3.49.181-10.665-3.281-12.661a4.353 4.353 0 0 0-3.141-.489v13.96a52.566 52.566 0 0 0 4.733 4.034ZM136.808 208.716l2.555-2.666c.293.474 3.699 5.974 6.184 7.65 2.22 1.479 5.444 2.792 8.111 1.828a4.712 4.712 0 0 0 2.897-2.532 4.709 4.709 0 0 0 .048-3.847c-1.675-3.63-8.767-4.858-12.312-4.426-.266 0-3.867.908-4.775 1.173 1.885-1.968 3.769-3.895 5.71-5.724a86.139 86.139 0 0 1 8.278-6.98c.14.224 3.672 5.989 6.226 7.706 2.22 1.48 5.445 2.792 8.111 1.829a4.74 4.74 0 0 0 2.892-2.543 4.761 4.761 0 0 0 .054-3.851c-1.69-3.615-8.781-4.858-12.313-4.411-.279 0-4.188.963-4.844 1.187l.502-.391a60.344 60.344 0 0 1 9.409-5.319c1.815-.852 3.588-1.55 5.333-2.206.545 1.145 3.113 6.338 5.235 8.125 2.122 1.787 5.109 3.337 7.86 2.708a4.735 4.735 0 0 0 3.629-6.016c-1.284-3.784-8.194-5.794-11.754-5.752-.196 0-2.164.251-3.602.447.796-.279 1.606-.587 2.373-.838 2.792-.963 5.584-1.675 7.916-2.275 1.396-.335 2.582-.615 3.741-.852 1.117.838 5.696 4.188 8.376 4.76 2.68.573 6.073.615 8.222-1.214a4.739 4.739 0 0 0 1.765-3.391 4.735 4.735 0 0 0-1.318-3.589c-2.876-2.792-9.939-1.396-13.08.321-.266.154-4.258 2.918-4.188 2.96-1.117.223-2.304.46-3.602.753-2.401.559-5.109 1.201-7.999 2.108a83.292 83.292 0 0 0-9.2 3.365 60.102 60.102 0 0 0-9.646 5.179l-.112.07c.74-.908 2.708-3.518 2.792-3.742 1.801-3.071 3.49-10.079.824-13.052a4.727 4.727 0 0 0-3.527-1.46 4.731 4.731 0 0 0-3.453 1.627c-1.913 2.08-2.024 5.584-1.536 8.167.545 2.959 4.188 8.292 4.565 8.725a82.237 82.237 0 0 0-8.725 6.98c-1.619 1.396-3.197 2.973-4.76 4.509.614-.81 1.158-1.536 1.214-1.647 1.815-3.071 3.49-10.079.838-13.053a4.736 4.736 0 0 0-5.424-1.006 4.73 4.73 0 0 0-1.556 1.174c-1.899 2.08-2.01 5.584-1.536 8.166.475 2.583 3.574 7.273 4.398 8.488l-1.773 1.787c-2.792 2.862-5.584 5.751-8.502 8.487-1.005.964-2.024 1.871-3.043 2.792l1.047-1.396c1.801-3.071 3.476-10.079.824-13.052a4.721 4.721 0 0 0-5.426-1.011 4.714 4.714 0 0 0-1.554 1.178c-1.913 2.08-2.025 5.584-1.55 8.167.475 2.583 3.281 6.826 4.188 8.264-1.075.908-2.15 1.829-3.225 2.653-.698.516-1.396 1.047-2.052 1.521v2.443l.963-.698c.754-.516 1.494-1.158 2.248-1.745 1.745-1.396 3.42-2.889 5.095-4.425.81 1.298 3.783 5.863 6.003 7.357 2.22 1.494 5.444 2.792 8.111 1.829a4.726 4.726 0 0 0 3.331-4.451 4.704 4.704 0 0 0-.386-1.929c-1.675-3.63-8.78-4.858-12.312-4.425-.224 0-2.723.628-4.091.991l2.96-2.792c2.764-2.89 5.556-5.835 8.348-8.767ZM117.613 184.146c2.666 0 6.059-.698 7.776-2.945a4.728 4.728 0 0 0 1.033-3.732 4.713 4.713 0 0 0-2.108-3.248c-1.983-1.215-5.04-.74-7.79.321v9.479c.36.067.724.109 1.089.125ZM123.085 240.754a4.71 4.71 0 0 0 2.48-2.945 4.716 4.716 0 0 0-.539-3.811c-1.396-2.22-5.179-3.03-8.502-3.016v9.856a8.666 8.666 0 0 0 6.561-.084Z"/><path d="M167.045 174.863c-.265 3.113 2.136 9.772 2.136 9.772s3.867-2.904 4.091-3.113c2.54-2.485 6.016-8.795 4.188-12.369a4.743 4.743 0 0 0-3.034-2.372 4.732 4.732 0 0 0-3.793.669c-2.331 1.466-3.35 4.747-3.588 7.413ZM121.159 201.457a4.716 4.716 0 0 0 1.039-3.729 4.72 4.72 0 0 0-2.1-3.251 5.898 5.898 0 0 0-3.574-.698v10.26a7.856 7.856 0 0 0 4.635-2.582ZM122.401 165.691c2.667 0 6.059-.698 7.776-2.945a4.716 4.716 0 0 0 1.039-3.729 4.715 4.715 0 0 0-2.1-3.251c-3.364-2.066-9.772.712-12.564 3.001v5.389a19.87 19.87 0 0 0 5.849 1.535Z"/></g><path fill="#263238" d="M447.795 480.028a.681.681 0 0 1-.419-.139l-33.308-25.91h-286.18a12.09 12.09 0 0 1-12.02-12.075V74.323a12.09 12.09 0 0 1 12.075-12.075h472.156a12.09 12.09 0 0 1 12.075 12.075v367.581a12.09 12.09 0 0 1-12.075 12.075h-156.52l4.914 25.226a.74.74 0 0 1-.321.726.703.703 0 0 1-.377.097ZM127.902 63.644a10.695 10.695 0 0 0-10.638 10.679v367.581a10.694 10.694 0 0 0 10.679 10.679h286.362c.158 0 .31.054.433.154l31.982 24.904-4.704-24.22a.727.727 0 0 1 .139-.587.74.74 0 0 1 .545-.251h157.399a10.694 10.694 0 0 0 10.679-10.679V74.323a10.695 10.695 0 0 0-10.679-10.68H127.902Z"/><path fill="#263238" d="M499.433 143.858H396.534a47.755 47.755 0 0 0-74.965 0h-102.9a12.648 12.648 0 0 0-12.564 12.564v216.38a12.654 12.654 0 0 0 3.68 8.905 12.655 12.655 0 0 0 8.884 3.729h280.764a12.65 12.65 0 0 0 12.564-12.634v-216.38a12.648 12.648 0 0 0-12.564-12.564Z"/><path fill="#fff" d="M504.375 137.995h-280.75c-6.592 0-11.936 5.343-11.936 11.935v216.366c0 6.592 5.344 11.936 11.936 11.936h280.75c6.592 0 11.936-5.344 11.936-11.936V149.93c0-6.592-5.344-11.935-11.936-11.935Z"/><path fill="#263238" d="M504.375 378.93h-280.75a12.646 12.646 0 0 1-12.634-12.634v-216.38a12.648 12.648 0 0 1 12.634-12.633h280.75a12.646 12.646 0 0 1 12.634 12.633v216.38a12.65 12.65 0 0 1-12.634 12.634Zm-280.75-240.237a11.248 11.248 0 0 0-11.238 11.237v216.38a11.253 11.253 0 0 0 11.238 11.238h280.75a11.253 11.253 0 0 0 11.238-11.238V149.93a11.253 11.253 0 0 0-11.238-11.237h-280.75Z"/><path fill="#fff" d="M411.15 166.99a47.158 47.158 0 1 1-47.143-47.157 46.952 46.952 0 0 1 43.607 29.083 46.957 46.957 0 0 1 3.536 18.074Z"/><path fill="#263238" d="M364.007 214.83a47.88 47.88 0 0 1-41.236-72.297 47.881 47.881 0 0 1 58.452-20.249 47.885 47.885 0 0 1 29.643 54.295 47.881 47.881 0 0 1-17.32 28.019 47.808 47.808 0 0 1-29.539 10.232Zm0-94.299a46.447 46.447 0 0 0-43.917 31.262 46.45 46.45 0 0 0 15.215 51.716 45.87 45.87 0 0 0 28.702 9.925 46.46 46.46 0 0 0 0-92.903Z"/><path fill="#263238" d="M383.691 159.605a19.707 19.707 0 0 0-3.314-10.949 19.696 19.696 0 0 0-34.579 18.479 19.69 19.69 0 0 0 18.209 12.153 19.684 19.684 0 0 0 19.684-19.683Z"/><path fill="#263238" d="M364.007 179.986a20.375 20.375 0 0 1-18.83-12.582 20.382 20.382 0 1 1 39.212-7.799 20.422 20.422 0 0 1-20.382 20.381Zm0-39.367a18.987 18.987 0 0 0-18.621 22.69 18.99 18.99 0 0 0 14.917 14.916 18.98 18.98 0 0 0 19.49-8.073 18.984 18.984 0 0 0 3.2-10.547 19.017 19.017 0 0 0-18.986-18.986Z"/><path fill="#263238" d="M393.128 204.053a47.098 47.098 0 0 1-58.242 0 29.82 29.82 0 0 1 58.242 0Z"/><path fill="#263238" d="M364.007 214.83a47.809 47.809 0 0 1-29.553-10.232.692.692 0 0 1-.226-.313.693.693 0 0 1-.026-.385 30.504 30.504 0 0 1 59.596 0 .703.703 0 0 1-.238.698 47.837 47.837 0 0 1-29.553 10.232Zm-28.353-11.014a45.813 45.813 0 0 0 28.353 9.66 46.413 46.413 0 0 0 28.339-9.66A29.118 29.118 0 0 0 364 181.368a29.119 29.119 0 0 0-28.346 22.448ZM444.696 292.713H283.304a.696.696 0 0 1-.698-.698v-25.379a.7.7 0 0 1 .698-.698h161.392a.7.7 0 0 1 .698.698v25.365a.705.705 0 0 1-.2.503.699.699 0 0 1-.498.209Zm-160.694-1.396h159.996v-23.969H284.002v23.969ZM444.696 342.341H283.304a.696.696 0 0 1-.698-.698v-25.379a.7.7 0 0 1 .698-.698h161.392a.696.696 0 0 1 .698.698v25.379a.7.7 0 0 1-.698.698Zm-160.694-1.396h159.996v-23.983H284.002v23.983Z"/><path fill="#CCC" d="M337.958 285.636a3.45 3.45 0 0 1-2.011-.517 2.627 2.627 0 0 1-.949-1.466 8.732 8.732 0 0 1-.251-2.219v-7.986h1.605v8.069c-.004.468.028.934.098 1.396.046.375.207.726.461 1.005a1.66 1.66 0 0 0 2.108 0c.244-.284.399-.633.446-1.005.07-.462.102-.928.098-1.396v-8.069h1.591v7.986a8.732 8.732 0 0 1-.251 2.219c-.14.583-.475 1.1-.949 1.466a3.34 3.34 0 0 1-1.996.517ZM345.775 285.636a3.162 3.162 0 0 1-1.731-.447 2.796 2.796 0 0 1-1.061-1.243 4.838 4.838 0 0 1-.405-1.828l1.48-.391c.027.415.097.827.21 1.228.081.364.254.7.502.977a1.535 1.535 0 0 0 1.996 0c.241-.293.361-.668.335-1.047a2.16 2.16 0 0 0-.376-1.396 8.724 8.724 0 0 0-.936-1.005l-2.024-1.787a3.143 3.143 0 0 1-.879-1.13c-.204-.481-.299-1-.28-1.522a2.705 2.705 0 0 1 .754-2.052 2.793 2.793 0 0 1 2.066-.74c.427-.005.852.061 1.257.195.346.11.659.307.907.573.268.276.469.61.586.977.153.452.251.921.294 1.396l-1.396.391a6.418 6.418 0 0 0-.168-1.103 1.753 1.753 0 0 0-.475-.796 1.395 1.395 0 0 0-2.289 1.019c-.009.314.058.626.195.908.157.275.36.521.601.726l2.038 1.787c.463.407.867.877 1.2 1.396.363.586.547 1.265.531 1.954a2.945 2.945 0 0 1-.377 1.536c-.236.422-.59.767-1.019.991a3.08 3.08 0 0 1-1.536.433ZM349.963 285.496v-12.048h4.621v1.243h-2.932v3.992h2.429v1.187h-2.429v4.425h3.016v1.201h-4.705ZM355.98 285.496v-12.048h2.429a5.204 5.204 0 0 1 1.996.322c.495.192.905.553 1.159 1.019.286.575.42 1.214.391 1.856a5.09 5.09 0 0 1-.154 1.271c-.086.351-.248.68-.474.963a1.79 1.79 0 0 1-.866.572l1.717 6.045h-1.591l-1.578-5.584h-1.298v5.584h-1.731Zm1.689-6.854h.628c.399.016.798-.046 1.173-.182a1.126 1.126 0 0 0 .698-.656c.157-.38.229-.79.209-1.201a2.423 2.423 0 0 0-.377-1.521 1.918 1.918 0 0 0-1.535-.475h-.74l-.056 4.035ZM363.742 285.496v-12.048h1.158l3.421 8v-8h1.396v12.048h-1.075l-3.462-8.222v8.222h-1.438ZM370.945 285.496l2.569-12.048h1.619l2.569 12.048h-1.592l-.544-3.029h-2.457l-.586 3.029h-1.578Zm2.387-4.188h2.011l-1.02-5.43-.991 5.43ZM378.902 285.496l.224-12.048h1.647l2.122 9.772 2.15-9.772h1.647l.223 12.048h-1.396l-.139-8.753-2.038 8.753h-.95l-2.024-8.753-.126 8.753h-1.34ZM388.744 285.496v-12.048h4.677v1.243h-2.988v3.992h2.415v1.187h-2.415v4.425h3.016v1.201h-4.705ZM333.644 335.375v-12.061h2.987a3.28 3.28 0 0 1 1.731.39c.437.264.771.668.95 1.145.21.577.31 1.188.293 1.801a3.77 3.77 0 0 1-.335 1.647c-.21.453-.557.829-.991 1.075a3.068 3.068 0 0 1-1.634.391h-1.396v5.584l-1.605.028Zm1.675-6.826h.768c.392.011.783-.041 1.159-.154.263-.106.474-.312.586-.572.138-.37.2-.764.181-1.159a5.322 5.322 0 0 0-.125-1.326.954.954 0 0 0-.531-.642 3.36 3.36 0 0 0-1.242-.182h-.796v4.035ZM339.605 335.375l2.555-12.061h1.619l2.583 12.061h-1.55l-.558-3.043h-2.457l-.573 3.043h-1.619Zm2.373-4.188h2.01l-1.005-5.43-1.005 5.43ZM350.396 335.501a3.154 3.154 0 0 1-1.731-.447 2.794 2.794 0 0 1-1.047-1.229 4.978 4.978 0 0 1-.419-1.842l1.48-.391c.027.416.097.827.209 1.228.079.365.252.702.503.978a1.54 1.54 0 0 0 1.996 0 1.48 1.48 0 0 0 .335-1.047 2.09 2.09 0 0 0-.377-1.313 6.843 6.843 0 0 0-.935-1.005l-2.024-1.787a3.551 3.551 0 0 1-.88-1.144 3.78 3.78 0 0 1-.279-1.522 2.783 2.783 0 0 1 .754-2.052 2.8 2.8 0 0 1 2.066-.726c.426-.01.851.052 1.256.181.347.11.66.307.908.573.265.278.465.612.586.977.153.452.251.921.293 1.396l-1.396.391a6.355 6.355 0 0 0-.167-1.089 1.73 1.73 0 0 0-.475-.81 1.398 1.398 0 0 0-.963-.307 1.196 1.196 0 0 0-1.361.823c-.058.186-.07.382-.035.573-.009.314.058.625.195.908.153.277.357.523.601.725l2.038 1.787a6.64 6.64 0 0 1 1.2 1.396c.361.587.545 1.266.531 1.955a3.024 3.024 0 0 1-.377 1.549 2.57 2.57 0 0 1-1.019.991c-.46.207-.962.302-1.466.28ZM357.46 335.501a3.154 3.154 0 0 1-1.731-.447 2.787 2.787 0 0 1-1.047-1.229 5.243 5.243 0 0 1-.419-1.842l1.48-.391c.033.415.103.826.209 1.228.083.366.261.703.517.978a1.507 1.507 0 0 0 1.982 0 1.48 1.48 0 0 0 .335-1.047 2.096 2.096 0 0 0-.377-1.313 6.898 6.898 0 0 0-.935-1.005l-2.024-1.787a3.551 3.551 0 0 1-.88-1.144 3.746 3.746 0 0 1-.279-1.522 2.783 2.783 0 0 1 .754-2.052 2.89 2.89 0 0 1 2.08-.726c.426-.01.85.052 1.256.181.345.113.657.31.908.573a2.8 2.8 0 0 1 .572.977c.159.45.258.92.293 1.396l-1.396.391a6.364 6.364 0 0 0-.181-1.089 1.736 1.736 0 0 0-.475-.81 1.396 1.396 0 0 0-.949-.307 1.402 1.402 0 0 0-.978.335 1.297 1.297 0 0 0-.349.991c-.013.313.049.624.182.908.152.277.356.524.6.726l2.038 1.787c.468.406.877.876 1.215 1.396.349.591.528 1.267.516 1.954a3.03 3.03 0 0 1-.377 1.55c-.24.419-.593.762-1.019.991-.47.241-.993.36-1.521.349ZM363.225 335.375l-1.968-12.061h1.396l1.298 8.655 1.62-8.614h1.186l1.647 8.67 1.257-8.711h1.396l-1.927 12.061h-1.228l-1.675-8.934-1.703 8.934h-1.299ZM375.524 335.501a3.519 3.519 0 0 1-1.954-.475 2.572 2.572 0 0 1-1.033-1.396 6.12 6.12 0 0 1-.322-2.066v-4.579a5.957 5.957 0 0 1 .322-2.038 2.52 2.52 0 0 1 1.047-1.312 3.569 3.569 0 0 1 1.94-.447 3.515 3.515 0 0 1 1.926.461 2.6 2.6 0 0 1 1.047 1.298c.22.656.324 1.346.308 2.038v4.593a6.106 6.106 0 0 1-.308 2.052 2.685 2.685 0 0 1-1.047 1.396 3.283 3.283 0 0 1-1.926.475Zm0-1.396a1.5 1.5 0 0 0 1.005-.279c.244-.19.408-.464.461-.768.089-.385.131-.778.125-1.173v-5.221a4.663 4.663 0 0 0-.125-1.159 1.177 1.177 0 0 0-.461-.74 1.667 1.667 0 0 0-1.005-.265 1.75 1.75 0 0 0-1.019.265 1.262 1.262 0 0 0-.475.74c-.077.382-.115.77-.111 1.159v5.277a5.77 5.77 0 0 0 .111 1.173c.069.301.236.571.475.767.295.215.655.319 1.019.294v-.07ZM380.41 335.375v-12.061h2.429a5.311 5.311 0 0 1 1.982.321c.505.188.922.556 1.173 1.033.274.574.404 1.207.377 1.842.007.428-.04.855-.14 1.271a2.555 2.555 0 0 1-.474.977 1.964 1.964 0 0 1-.866.572l1.703 6.045h-1.619l-1.578-5.668h-1.312v5.668h-1.675Zm1.675-6.868h.642a3.01 3.01 0 0 0 1.159-.182 1.16 1.16 0 0 0 .656-.6c.157-.385.228-.799.21-1.215a2.349 2.349 0 0 0-.391-1.521 1.94 1.94 0 0 0-1.522-.475h-.754v3.993ZM388.088 335.375v-12.061h2.624c.73-.03 1.456.108 2.122.404.504.268.899.702 1.117 1.229a5.42 5.42 0 0 1 .321 2.038v4.439a6.117 6.117 0 0 1-.321 2.164 2.634 2.634 0 0 1-1.089 1.326c-.62.336-1.32.496-2.024.461h-2.75Zm1.675-1.215h.963c.466.046.932-.078 1.313-.349.272-.283.436-.654.46-1.047.061-.546.089-1.097.084-1.647v-3.923a7.328 7.328 0 0 0-.126-1.507 1.232 1.232 0 0 0-.516-.852 2.278 2.278 0 0 0-1.256-.265h-.922v9.59Z"/><path fill="#263238" d="M338.516 247.664V228.12h2.722v17.576h4.97v1.94l-7.692.028ZM352.937 247.888a5.583 5.583 0 0 1-3.155-.768 4.185 4.185 0 0 1-1.689-2.206 10.192 10.192 0 0 1-.489-3.406v-7.399a9.433 9.433 0 0 1 .53-3.322 4.188 4.188 0 0 1 1.676-2.122 5.902 5.902 0 0 1 3.155-.726 5.67 5.67 0 0 1 3.127.74 4.103 4.103 0 0 1 1.675 2.122 9.326 9.326 0 0 1 .516 3.308v7.399a9.673 9.673 0 0 1-.516 3.336c-.301.9-.89 1.675-1.675 2.206a5.59 5.59 0 0 1-3.155.838Zm0-2.15a2.48 2.48 0 0 0 1.633-.447c.392-.317.659-.762.754-1.256a8.24 8.24 0 0 0 .195-1.885v-8.557a8.119 8.119 0 0 0-.195-1.871 2.045 2.045 0 0 0-.754-1.201 2.653 2.653 0 0 0-1.633-.418 2.797 2.797 0 0 0-1.648.418 2 2 0 0 0-.767 1.201 8.065 8.065 0 0 0-.196 1.871v8.557a8.24 8.24 0 0 0 .196 1.885c.094.498.367.945.767 1.256a2.54 2.54 0 0 0 1.648.405v.042ZM365.598 247.916a4.971 4.971 0 0 1-2.931-.782 4.331 4.331 0 0 1-1.592-2.29 11.292 11.292 0 0 1-.502-3.587v-6.534a13.195 13.195 0 0 1 .447-3.657 4.187 4.187 0 0 1 1.591-2.29 5.582 5.582 0 0 1 3.197-.795 6.057 6.057 0 0 1 2.959.614 3.572 3.572 0 0 1 1.62 1.871 8.78 8.78 0 0 1 .502 3.196v.726h-2.554v-.6a10.807 10.807 0 0 0-.168-2.094 1.937 1.937 0 0 0-.684-1.2 2.665 2.665 0 0 0-1.619-.391 2.411 2.411 0 0 0-1.759.544 2.59 2.59 0 0 0-.67 1.508c-.094.717-.141 1.44-.14 2.164v7.189a10.92 10.92 0 0 0 .209 2.331c.09.543.367 1.036.782 1.396a2.592 2.592 0 0 0 1.647.461 2.402 2.402 0 0 0 1.634-.503c.423-.396.702-.921.796-1.493.165-.808.24-1.632.223-2.457v-1.396h-2.485v-1.927h4.942v9.661h-1.717l-.265-2.234a4.112 4.112 0 0 1-1.201 1.787 3.396 3.396 0 0 1-2.262.782ZM373.974 247.664V228.12h2.681v19.544h-2.681ZM379.81 247.664V228.12h1.856l5.584 12.969V228.12h2.234v19.544h-1.745l-5.584-13.331v13.331h-2.345ZM510.112 515.417c2.022.53 4.11.761 6.199.684 0 0-.936-2.875-1.02-3.057-.977-2.024-4.02-5.361-6.505-5.026a2.99 2.99 0 0 0-2.025 1.331 2.974 2.974 0 0 0-.362 2.397 6.21 6.21 0 0 0 1.451 2.246 6.21 6.21 0 0 0 2.262 1.425Z"/><path fill="#263238" d="M511.634 528.163c2.069-.01 4.126-.33 6.1-.95a54.267 54.267 0 0 0 2.388 6.59 99.046 99.046 0 0 0 1.731 3.741l-.74-1.061c-1.466-1.689-5.291-4.104-7.608-3.127a2.984 2.984 0 0 0-1.313 4.188 6.18 6.18 0 0 0 4.551 2.554c2.013 0 4.013-.306 5.933-.907l.712 1.396c1.131 2.276 2.276 4.523 3.337 6.771.377.795.712 1.591 1.047 2.387-.321-.475-.587-.866-.642-.922-1.466-1.689-5.291-4.104-7.595-3.113a2.956 2.956 0 0 0-1.585 1.803 2.957 2.957 0 0 0 .273 2.385 6.186 6.186 0 0 0 4.551 2.555c1.96.012 3.909-.28 5.779-.865.322.823.643 1.647.922 2.457.181.558.391 1.088.53 1.647.14.558.307 1.131.461 1.675.265 1.075.531 2.178.754 3.225.167.74.307 1.396.447 2.136-.349-.796-1.103-2.332-1.173-2.443-1.187-1.899-4.607-4.872-6.98-4.188a2.959 2.959 0 0 0-1.941 3.964 6.226 6.226 0 0 0 4.105 3.225c2.041.302 4.115.302 6.156 0 .223 1.159.447 2.289.628 3.364.419 2.374.74 4.509.978 6.31h1.647c-.293-1.87-.67-4.09-1.159-6.575a150.224 150.224 0 0 0-.796-3.741 31.08 31.08 0 0 0 3.435-1.606 21.943 21.943 0 0 0 4.997 3.225c-.446 1.089-.893 2.164-1.396 3.155-.907 2.094-1.773 3.951-2.527 5.584h1.773c.656-1.466 1.396-3.127 2.122-4.956a103.74 103.74 0 0 0 1.396-3.559c2.007.466 4.074.626 6.129.474a6.181 6.181 0 0 0 4.341-2.903 2.985 2.985 0 0 0 .091-2.42 2.981 2.981 0 0 0-1.738-1.685c-2.373-.795-6.003 1.899-7.329 3.714-.084.097-.81 1.396-1.242 2.15.181-.517.377-1.006.558-1.522.377-1.033.726-2.08 1.103-3.211.167-.544.335-1.089.502-1.661.168-.573.294-1.145.447-1.731.321-1.396.586-2.792.824-4.188a19.059 19.059 0 0 0 5.821 1.396 6.151 6.151 0 0 0 4.719-2.22 2.969 2.969 0 0 0 .466-2.371 2.967 2.967 0 0 0-1.458-1.929c-2.233-1.144-6.226.978-7.817 2.555-.098.098-1.117 1.396-1.647 2.066.125-.851.265-1.703.376-2.554.308-2.485.545-5.012.782-7.539.084-.768.168-1.535.238-2.303a21.239 21.239 0 0 0 6.016 1.396 6.246 6.246 0 0 0 4.733-2.22 2.953 2.953 0 0 0 .466-2.371 2.967 2.967 0 0 0-1.457-1.929c-2.234-1.158-6.227.964-7.818 2.541-.126.126-1.578 1.941-1.927 2.415.182-1.689.377-3.378.643-5.025a52.012 52.012 0 0 1 1.396-6.631 20.96 20.96 0 0 0 6.058 1.396 6.154 6.154 0 0 0 4.719-2.22 2.953 2.953 0 0 0 .466-2.372 2.97 2.97 0 0 0-1.457-1.928c-2.234-1.144-6.227.978-7.818 2.555-.126.126-1.689 2.08-1.94 2.457 0-.126 0-.265.097-.391a37.327 37.327 0 0 1 2.625-6.268 43.674 43.674 0 0 1 1.787-3.141c1.8.955 3.734 1.633 5.737 2.01a6.17 6.17 0 0 0 2.656-.291 6.172 6.172 0 0 0 2.286-1.384 2.965 2.965 0 0 0 .723-2.314 2.957 2.957 0 0 0-1.24-2.083c-2.094-1.396-6.295.279-8.054 1.675l-1.606 1.605c.279-.446.573-.907.852-1.326 1.047-1.577 2.108-2.959 3.057-4.188.544-.698 1.047-1.298 1.522-1.871a19.968 19.968 0 0 0 5.988-.851 6.193 6.193 0 0 0 3.602-3.769 2.961 2.961 0 0 0-2.471-3.658c-2.499-.265-5.458 3.155-6.38 5.193-.069.182-.991 3.085-.935 3.085-.46.545-.963 1.117-1.494 1.759-.977 1.201-2.08 2.569-3.155 4.188a52.647 52.647 0 0 0-3.28 5.207 38.67 38.67 0 0 0-2.792 6.296v.07-2.945c-.293-2.22-2.15-6.338-4.621-6.799a2.968 2.968 0 0 0-2.331.636 2.969 2.969 0 0 0-1.089 2.156 6.187 6.187 0 0 0 2.373 4.649 20.806 20.806 0 0 0 5.584 2.568 52.767 52.767 0 0 0-1.647 6.813 152.214 152.214 0 0 0-.628 4.076v-1.284c-.294-2.234-2.15-6.352-4.621-6.813a2.968 2.968 0 0 0-2.331.636 2.962 2.962 0 0 0-.773.963 2.956 2.956 0 0 0-.316 1.193 6.2 6.2 0 0 0 2.387 4.649 20.195 20.195 0 0 0 5.458 2.527l-.209 1.563c-.293 2.527-.587 5.04-.949 7.497-.126.865-.28 1.703-.433 2.555v-1.117c-.293-2.22-2.15-6.338-4.621-6.799a2.968 2.968 0 0 0-2.331.636 2.962 2.962 0 0 0-.773.963 2.956 2.956 0 0 0-.316 1.193 6.186 6.186 0 0 0 2.387 4.649 19.402 19.402 0 0 0 5.291 2.471c-.182.865-.363 1.731-.573 2.555-.167.572-.279 1.116-.474 1.675-.196.558-.349 1.103-.531 1.647-.377 1.033-.754 2.108-1.158 3.113-.266.698-.531 1.396-.796 2.024.126-.865.363-2.554.363-2.694a11.355 11.355 0 0 0-1.55-5.584 3.423 3.423 0 0 0 0-.656 2.979 2.979 0 0 0-1.261-2.069 2.983 2.983 0 0 0-2.382-.444c-2.415.642-3.951 4.9-4.077 7.134 0 .139.084 1.577.154 2.485-.126-.531-.237-1.047-.363-1.592-.251-1.061-.544-2.136-.838-3.266l-.502-1.662c-.168-.558-.391-1.13-.586-1.703a62.504 62.504 0 0 0-1.62-3.909 19.78 19.78 0 0 0 5.584-2.108 6.161 6.161 0 0 0 2.722-4.453 2.95 2.95 0 0 0-.927-2.233 2.953 2.953 0 0 0-2.283-.796c-2.499.265-4.663 4.188-5.11 6.435 0 .14-.181 1.745-.237 2.625-.363-.768-.712-1.55-1.103-2.331-1.103-2.248-2.303-4.482-3.49-6.715l-1.075-2.066a20.398 20.398 0 0 0 5.794-2.136 6.233 6.233 0 0 0 2.722-4.467 2.966 2.966 0 0 0-3.211-3.03c-2.485.266-4.649 4.188-5.109 6.436 0 .167-.238 2.485-.266 3.071a106.523 106.523 0 0 1-2.247-4.551 52.614 52.614 0 0 1-2.457-6.324 20.52 20.52 0 0 0 5.835-2.15 6.194 6.194 0 0 0 2.722-4.453 2.972 2.972 0 0 0-3.197-3.043c-2.498.279-4.662 4.188-5.109 6.435 0 .182-.265 2.667-.279 3.127 0-.125-.084-.251-.126-.376a38.348 38.348 0 0 1-1.27-6.673c-.14-1.257-.195-2.443-.237-3.616a19.9 19.9 0 0 0 5.891-1.48 6.252 6.252 0 0 0 3.197-4.188 3.01 3.01 0 0 0-.095-1.234 2.983 2.983 0 0 0-2.767-2.144c-2.499 0-5.096 3.713-5.78 5.849 0 .112-.293 1.326-.46 2.22v-1.578c0-1.898.125-3.629.251-5.165.07-.879.153-1.661.237-2.401a20.23 20.23 0 0 0 4.523-4.006 6.266 6.266 0 0 0 .936-5.138 2.97 2.97 0 0 0-2.9-1.974 2.983 2.983 0 0 0-1.205.299c-2.233 1.159-2.792 5.584-2.443 7.846 0 .195.866 3.127.908 3.099-.098.712-.196 1.396-.279 2.303-.154 1.536-.308 3.267-.349 5.179-.076 2.049-.03 4.1.139 6.143a37.807 37.807 0 0 0 1.145 6.798v.07c-.391-.614-1.55-2.317-1.647-2.429-1.466-1.703-5.305-4.104-7.609-3.127a2.973 2.973 0 0 0-1.312 4.188 6.186 6.186 0 0 0 4.607 2.513Z"/><path fill="#263238" d="M554.645 516.38s.809-2.917.823-3.113c.321-2.219-.39-6.686-2.652-7.775a2.96 2.96 0 0 0-4.034 1.787 6.15 6.15 0 0 0 1.074 5.109 21.115 21.115 0 0 0 4.789 3.992ZM545.585 569.833h-18.679l1.857 43.22h14.951l1.871-43.22Z"/><path fill="#455A64" d="M569.4 614.338H327.585v46.85H569.4v-46.85Z"/><path fill="#263238" d="M569.4 661.886H327.585a.697.697 0 0 1-.698-.698v-46.85a.7.7 0 0 1 .698-.698H569.4a.697.697 0 0 1 .698.698v46.85a.696.696 0 0 1-.698.698Zm-241.117-1.396h240.419v-45.454H328.283v45.454Z"/><path fill="#263238" d="M569.4 614.338H327.585v15.635H569.4v-15.635Z"/><path fill="#263238" d="M569.4 630.671H327.585a.7.7 0 0 1-.698-.698v-15.635a.7.7 0 0 1 .698-.698H569.4a.697.697 0 0 1 .698.698v15.635a.699.699 0 0 1-.698.698Zm-241.117-1.396h240.419v-14.239H328.283v14.239Z"/><path fill="#455A64" d="M576.52 614.338H320.466v8.334H576.52v-8.334Z"/><path fill="#263238" d="M576.548 623.37H320.466a.7.7 0 0 1-.698-.698v-8.376a.699.699 0 0 1 .698-.698h256.082a.699.699 0 0 1 .698.698v8.376a.699.699 0 0 1-.698.698Zm-255.356-1.396h254.63v-6.98H321.164l.028 6.98Z"/><path fill="#263238" d="m487.707 598.493-30.196-75.161a2.087 2.087 0 0 0-1.069-1.418 2.09 2.09 0 0 0-2.521.434 2.084 2.084 0 0 0-.534 1.694c.04.304.147.596.313.854l30.182 75.161c.374.96.554 1.985.53 3.015a8.07 8.07 0 0 1-8.041 8.055H452.22v4.188h24.151a12.242 12.242 0 0 0 12.229-12.243 12.12 12.12 0 0 0-.893-4.579Z"/><path fill="#455A64" d="m466.413 448.975-7.985-.799-14.291 142.909 7.986.798 14.29-142.908Z"/><path fill="#263238" d="M451.243 588.735h-.07l-7.957-.782a.686.686 0 0 1-.475-.251.754.754 0 0 1-.153-.517l13.96-142.21a.714.714 0 0 1 .754-.628l7.957.782a.648.648 0 0 1 .475.251.727.727 0 0 1 .153.502l-13.96 142.225a.685.685 0 0 1-.684.628Zm-7.203-2.108 6.575.642 13.834-140.828-6.575-.642-13.834 140.828Z"/><path fill="#455A64" d="m425.431 606.632-77.995 3.434v3.923h77.995v-7.357Z"/><path fill="#263238" d="M425.431 614.687h-77.995a.697.697 0 0 1-.698-.698v-3.937a.7.7 0 0 1 .671-.698l77.994-3.434a.664.664 0 0 1 .517.195.681.681 0 0 1 .209.503v7.357a.696.696 0 0 1-.698.712Zm-77.297-1.396h76.599v-5.933l-76.599 3.378v2.555Z"/><path fill="#B2B2B2" d="m205.77 600.587-7.315 60.433h123.546l-37.077-17.827S288.637 638 289 634.65c.363-3.351-9.772-21.611-10.693-23.258l-.824-5.5s-1.773-26.008-.754-31.061c1.019-5.054 3.532-16.92-1.522-30.307-5.053-13.388-18.148-36.366-18.148-36.366l-39.088-11.363s-17.924 24.751-14.644 51.009a396.222 396.222 0 0 1 2.443 52.783Z"/><path fill="#263238" d="M322.001 661.704H198.455a.674.674 0 0 1-.521-.234.68.68 0 0 1-.163-.548l7.301-60.405a399.552 399.552 0 0 0-2.526-52.629c-3.281-26.231 14.588-51.261 14.769-51.512a.734.734 0 0 1 .768-.265l39.088 11.363a.684.684 0 0 1 .405.335c.126.223 13.22 23.174 18.232 36.464 5.011 13.289 2.624 25.281 1.605 30.39v.294c-.991 4.9.74 30.614.768 30.865l.796 5.319c2.694 4.872 11.084 20.382 10.721 23.578-.307 2.792-2.708 6.631-3.741 8.195l36.296 17.464a.697.697 0 0 1 .129 1.175.692.692 0 0 1-.436.151h.055Zm-122.75-1.396h119.693l-34.327-16.501a.706.706 0 0 1-.377-.446.793.793 0 0 1 .111-.587s3.616-5.081 3.965-8.208c.223-2.08-5.347-13.304-10.624-22.853a1.173 1.173 0 0 1 0-.237l-.837-5.5c-.07-1.117-1.759-26.217-.74-31.299v-.279c.991-4.998 3.336-16.752-1.55-29.637-4.69-12.438-16.57-33.504-17.994-36.017l-38.39-11.168c-2.248 3.281-17.227 26.217-14.239 50.103a402.151 402.151 0 0 1 2.54 52.88l-7.231 59.749Z"/><path fill="#263238" d="m322.001 661.02-37.077-17.827-30.768 17.827h67.845Z"/><path fill="#263238" d="M322.001 661.704h-67.845a.697.697 0 0 1-.349-1.298l30.712-17.827a.718.718 0 0 1 .656 0l37.078 17.827a.697.697 0 0 1-.307 1.326l.055-.028Zm-65.249-1.396h62.192l-33.992-16.333-28.2 16.333Z"/><path fill="#263238" d="M235.156 658.382a.707.707 0 0 1-.66-1.123.7.7 0 0 1 .465-.273l49.823-14.463a.713.713 0 0 1 .866.475.703.703 0 0 1-.475.865l-49.823 14.491-.196.028Z"/><path fill="#263238" d="M232.56 660.615a.712.712 0 0 1-.545-.265.679.679 0 0 1-.158-.509.68.68 0 0 1 .256-.468l10.4-8.544a.694.694 0 0 1 .977.098.681.681 0 0 1-.097.977l-10.401 8.544a.657.657 0 0 1-.432.167Z"/><path fill="#FFBDA7" d="M285.119 418.521a57.659 57.659 0 0 1 3.071 14.532c.838 8.976-.935 13.876 1.312 16.641 2.248 2.764 4.468 3.503 3.155 6.421-1.312 2.918-6.854 4.872-6.854 4.872s-5.291 11.894-8.474 15.635c-3.183 3.742-15.23 0-15.23 0l-4.104 12.774-28.046-13.569 3.63-13.067-5.584-17.087s12.815-38.041 57.124-27.152Z"/><path fill="#263238" d="M257.995 489.996a.756.756 0 0 1-.307 0l-28.046-13.569a.699.699 0 0 1-.377-.81l3.588-12.871-5.584-16.877a.809.809 0 0 1 0-.447c.125-.391 13.541-38.516 57.962-27.543a.71.71 0 0 1 .474.419 57.356 57.356 0 0 1 3.113 14.727c.274 3.059.335 6.133.182 9.2-.098 3.378-.168 5.584.991 7.064a23.412 23.412 0 0 0 1.633 1.759c1.494 1.493 2.792 2.792 1.606 5.388-1.187 2.597-5.766 4.677-6.98 5.138-.824 1.828-5.486 12.019-8.46 15.523-2.973 3.504-12.564 1.173-15.356.363l-3.909 12.117a.662.662 0 0 1-.391.433.591.591 0 0 1-.139-.014Zm-27.222-14.63 26.803 12.955 3.867-12.02a.689.689 0 0 1 .598-.478.672.672 0 0 1 .267.032c3.239 1.019 12.132 3.043 14.491.265 3.071-3.616 8.306-15.356 8.376-15.454a.707.707 0 0 1 .405-.377c1.466-.516 5.472-2.345 6.449-4.509.782-1.717.126-2.373-1.396-3.811-.516-.53-1.117-1.131-1.717-1.871-1.494-1.842-1.396-4.425-1.312-7.999a67.858 67.858 0 0 0-.168-9.018 59.455 59.455 0 0 0-2.903-13.96c-41.629-10.065-54.668 23.174-55.84 26.524l5.584 16.864a.682.682 0 0 1 0 .405l-3.504 12.452Z"/><path fill="#263238" d="m262.099 476.567-6.059-3.253 3.169 10.288 2.89-7.035Z"/><path fill="#263238" d="M259.209 484.3a.692.692 0 0 1-.642-.502l-3.169-10.275a.724.724 0 0 1 .224-.754.7.7 0 0 1 .781-.069l6.059 3.252a.7.7 0 0 1 .321.88l-2.904 6.98a.71.71 0 0 1-.67.488Zm-1.996-9.576 2.094 6.812 1.913-4.648-4.007-2.164ZM279.507 464.868c-4.3 0-7.496-4.188-7.622-4.314a.682.682 0 0 1-.139-.246.687.687 0 0 1 .053-.551.7.7 0 0 1 1.189-.054s2.973 3.895 6.631 3.769c.183 0 .358.072.489.199.13.128.205.302.209.485a.702.702 0 0 1-.19.502.69.69 0 0 1-.494.21h-.126ZM284.784 443.621c-.209 1.94-1.103 3.448-1.996 3.35-.894-.097-1.48-1.745-1.271-3.685.21-1.941 1.089-3.434 1.997-3.351.907.084 1.493 1.745 1.27 3.686ZM280.177 437.493a.734.734 0 0 1-.405-.126.713.713 0 0 1-.153-.977 5.804 5.804 0 0 1 4.02-2.387 4.36 4.36 0 0 1 3.434 2.024.696.696 0 0 1-.905 1.055.685.685 0 0 1-.197-.218 3.077 3.077 0 0 0-2.346-1.465 4.493 4.493 0 0 0-2.903 1.814.719.719 0 0 1-.545.28ZM245.836 393.393s-22.169-1.787-28.144 11.81c-5.975 13.597-6.142 32.373-3.769 38.962 2.373 6.59 9.772 16.487 12.718 19.335 2.945 2.848 7.873 4.886 12.131 3.029 4.258-1.856 9.409-9.939 10.707-15.132s.531-10.107 1.815-10.219c3.078.226 6.173.033 9.2-.572 6.212-1.145 18.72-6.701 25.532-16.152 6.813-9.451 5.584-19.977 3.002-24.053-2.583-4.077-30.238-14.561-43.192-7.008Z"/><path fill="#263238" d="M235.324 467.939a13.958 13.958 0 0 1-9.158-3.922c-3.127-2.96-10.54-13.053-12.899-19.614-2.485-6.98-2.248-25.743 3.797-39.479 5.849-13.318 26.119-12.411 28.604-12.243 13.109-7.371 40.945 2.68 43.946 7.343 2.792 4.397 3.825 15.356-3.015 24.849-6.701 9.269-19.223 15.174-25.98 16.417-2.68.587-5.429.789-8.166.6h-.992c-.26.979-.396 1.988-.404 3.001a37.46 37.46 0 0 1-.908 6.701c-1.396 5.486-6.631 13.667-11.098 15.607a9.466 9.466 0 0 1-3.727.74Zm8.11-73.918c-5.779 0-20.521 1.047-25.128 11.461-5.807 13.22-6.1 31.899-3.755 38.446 2.346 6.547 9.507 16.194 12.564 19.069 2.792 2.681 7.427 4.607 11.364 2.904 3.936-1.703 9.046-9.632 10.302-14.672.481-2.124.771-4.287.866-6.463.181-2.597.293-4.188 1.563-4.286a7.013 7.013 0 0 1 1.312 0 28.652 28.652 0 0 0 7.832-.586c6.533-1.201 18.623-6.911 25.128-15.873 6.505-8.962 5.584-19.195 2.987-23.271-2.596-4.077-29.846-13.96-42.256-6.785a.84.84 0 0 1-.419.098s-.936-.042-2.36-.042Z"/><path fill="#E6E6E6" d="M245.487 389.289s.265 4.858-2.792 7.831c-3.058 2.974-18.483 9.256-18.483 9.256s-5.068 12.173-6.98 15.788c-1.913 3.616-4.021 4.412-6.422 3.141-2.401-1.27-13.471-7.231-12.732-9.437.74-2.205 3.169-3.741 3.239-6.77.07-3.029-2.122-6.575-.377-8.669a53.015 53.015 0 0 1 5.584-5.263s-3.49-10.512-.516-12.243c2.973-1.731 9.981-.74 11.796-1.061 1.815-.321 4.495-9.186 12.815-8.572a14.047 14.047 0 0 1 11.461 6.98 3.713 3.713 0 0 1 4.314 2.471 9.58 9.58 0 0 1-.907 6.548Z"/><path fill="#263238" d="M212.834 426.562a4.971 4.971 0 0 1-2.359-.642c-9.325-4.886-13.723-8.376-13.081-10.275a9.792 9.792 0 0 1 1.494-2.569 6.975 6.975 0 0 0 1.717-4.048 14.266 14.266 0 0 0-.53-3.322c-.489-2.067-1.005-4.188.321-5.78a46.781 46.781 0 0 1 5.347-5.053c-.824-2.583-3.128-10.819 0-12.564 2.219-1.285 6.281-1.187 9.241-1.117.93.062 1.862.062 2.792 0a8.166 8.166 0 0 0 1.536-1.815c1.954-2.694 5.235-7.203 11.461-6.771a14.74 14.74 0 0 1 11.782 6.98 4.261 4.261 0 0 1 4.607 3.03 10.047 10.047 0 0 1-.894 6.868 11.614 11.614 0 0 1-3.071 8.167c-2.959 2.861-16.277 8.376-18.413 9.297-.782 1.843-5.123 12.229-6.882 15.565a7.845 7.845 0 0 1-3.351 3.714 3.772 3.772 0 0 1-1.717.335Zm-.195-44.058a14.26 14.26 0 0 0-6.254.977c-1.703.991-.545 7.273.823 11.406a.697.697 0 0 1-.223.767 53.175 53.175 0 0 0-5.584 5.152c-.88 1.061-.489 2.694 0 4.565.337 1.2.524 2.438.558 3.685a8.203 8.203 0 0 1-1.982 4.774 8.393 8.393 0 0 0-1.298 2.206c-.154.935 4.453 4.425 12.396 8.599.411.265.88.425 1.367.467a3 3 0 0 0 1.425-.229 6.564 6.564 0 0 0 2.695-3.085c1.87-3.546 6.896-15.608 6.98-15.733a.68.68 0 0 1 .157-.228.683.683 0 0 1 .233-.149c.14 0 15.273-6.254 18.246-9.116a10.42 10.42 0 0 0 2.625-7.287.72.72 0 0 1 .097-.377 8.99 8.99 0 0 0 .866-5.961 2.972 2.972 0 0 0-3.518-1.996.703.703 0 0 1-.754-.377 13.214 13.214 0 0 0-10.889-6.631c-5.444-.405-8.376 3.573-10.218 6.198-.964 1.396-1.606 2.219-2.429 2.359a19.578 19.578 0 0 1-3.044 0c-.698.098-1.466.014-2.275.014Z"/><path fill="#263238" d="M224.03 383.9h-.153l-6.199-1.396a.713.713 0 0 1-.231-1.3.713.713 0 0 1 .538-.096l6.199 1.396a.7.7 0 0 1 .621.775.706.706 0 0 1-.775.621Z"/><path fill="#263238" d="M204.291 410.424a.724.724 0 0 1-.531-.237.713.713 0 0 1 0-.991c3.937-3.435 14.295-16.222 17.325-21.373 3.029-5.151 2.596-8.376 2.596-8.376a.698.698 0 0 1 .614-.768.698.698 0 0 1 .768.614c0 .154.377 3.881-2.792 9.298-3.169 5.416-13.597 18.217-17.603 21.721a.722.722 0 0 1-.377.112Z"/><path fill="#263238" d="M206.608 395.864a.697.697 0 0 1-.517-1.173 13.62 13.62 0 0 1 12.732-3.783.718.718 0 0 1-.335 1.396 12.325 12.325 0 0 0-11.363 3.378.759.759 0 0 1-.517.182ZM209.065 418.214h-.112a.686.686 0 0 1-.256-.093.693.693 0 0 1-.33-.703c.572-3.769 4.383-7.05 8.795-10.833a85.24 85.24 0 0 0 7.399-6.91c6.491-7.106 15.732-18.037 15.816-18.148a.701.701 0 0 1 .991-.084.702.702 0 0 1 .084.991c-.098.112-9.339 11.057-15.858 18.148a84.476 84.476 0 0 1-7.525 6.98c-4.188 3.616-7.831 6.743-8.376 9.996a.695.695 0 0 1-.628.656Z"/><path fill="#263238" d="M233.649 391.564a.718.718 0 0 1-.545-.265.7.7 0 0 1 .112-.977c.321-.266 8.027-6.422 12.773-1.508a.7.7 0 0 1-.055.948.699.699 0 0 1-.95.015c-3.853-3.992-10.819 1.564-10.889 1.634a.78.78 0 0 1-.446.153Z"/><path fill="#FFBDA7" d="M258.79 447.278s-4.886-11.67-10.023-8.655c-5.137 3.016-3.671 15.873-1.242 19.419 2.429 3.545 7.05.474 7.05.474"/><path fill="#263238" d="M250.75 460.457a4.429 4.429 0 0 1-3.812-2.011c-1.814-2.68-3.043-9.772-1.884-14.979a7.988 7.988 0 0 1 3.364-5.444 4.008 4.008 0 0 1 3.448-.363c4.188 1.396 7.427 9.032 7.567 9.353a.711.711 0 0 1 .04.564.7.7 0 0 1-.955.394.695.695 0 0 1-.37-.427s-3.127-7.371-6.728-8.558a2.638 2.638 0 0 0-2.304.237 6.815 6.815 0 0 0-2.694 4.551c-1.061 4.775 0 11.49 1.675 13.877 1.996 2.931 5.933.405 6.101.293a.7.7 0 0 1 .911.229.695.695 0 0 1-.144.93 8.166 8.166 0 0 1-4.215 1.354Z"/><path fill="#B2B2B2" d="M225.356 472.979s37.092 9.842 39.395 12.829c2.304 2.987 1.773 5.584.503 7.329a48.523 48.523 0 0 0-3.281 7.818s1.773 5.584.768 7.831a7.673 7.673 0 0 1-7.831 3.546c-2.792-.754-35.864-12.117-37.12-12.871-1.256-.754-1.773-6.561.754-8.376 2.527-1.815 1.256.251 2.527-1.773 1.27-2.024-2.778-15.579 4.285-16.333Z"/><path fill="#263238" d="M256.18 513.226c-.471 0-.941-.061-1.396-.182-2.904-.796-35.961-12.159-37.301-12.955-.935-.558-1.326-2.359-1.396-3.839 0-.963 0-4.188 2.094-5.668a3.975 3.975 0 0 1 1.94-.921c.084-.14.21-.349.405-.642a13.963 13.963 0 0 0 0-4.021c-.321-4.83-.796-12.117 4.774-12.717a.761.761 0 0 1 .252 0c3.825 1.019 37.426 10.009 39.772 13.136 2.792 3.769 1.535 6.715.516 8.153a43.9 43.9 0 0 0-3.113 7.427c.349 1.186 1.661 5.849.656 8.11-1.005 2.262-4.383 4.119-7.203 4.119Zm-36.031-22.183c-.44.148-.848.381-1.2.684-1.187.824-1.55 2.792-1.508 4.439a4.446 4.446 0 0 0 .698 2.723c1.159.642 33.616 11.893 36.952 12.801a7.066 7.066 0 0 0 6.98-3.141c.74-1.661-.321-5.863-.782-7.329a.589.589 0 0 1 0-.433 47.327 47.327 0 0 1 3.379-8.013c.977-1.396 1.675-3.602-.503-6.505-1.536-2.052-24.611-8.795-38.879-12.564-3.783.516-3.783 5.584-3.406 11.238.168 2.652.238 4.062-.251 4.844-.712 1.144-.88 1.396-1.508 1.284l.028-.028Z"/><path fill="#FFBDA7" d="M339.228 582.034s18.371 2.373 19.544 2.178c1.173-.195 7.51 4.537 12.648 7.706 5.137 3.169 7.105 5.724 9.883 8.502 2.779 2.778 6.52 4.188 4.928 5.332-1.591 1.145-2.359 1.187-4.732.391a381.77 381.77 0 0 1-5.137-1.773 8.794 8.794 0 0 1-5.738 1.187 82.225 82.225 0 0 1-9.674-3.364 26.826 26.826 0 0 1-9.088-.601c-3.755-1.172-11.461-8.292-11.461-8.292l-4.551.391-1.396-10.47 4.774-1.187Z"/><path fill="#263238" d="M383.9 607.386a8.65 8.65 0 0 1-2.68-.587c-1.899-.628-4.063-1.396-4.844-1.661a9.33 9.33 0 0 1-5.947 1.103 79.147 79.147 0 0 1-9.647-3.336c-3.08.321-6.193.103-9.199-.643-3.532-1.116-10.149-6.98-11.489-8.236l-4.188.363a.726.726 0 0 1-.754-.6l-1.396-10.47a.698.698 0 0 1 .53-.768l4.747-1.187a.533.533 0 0 1 .251 0c6.98.894 18.399 2.29 19.362 2.178.964-.112 2.792 1.033 7.692 4.258 1.801 1.2 3.672 2.457 5.431 3.532a39.197 39.197 0 0 1 8.515 7.063c.489.517.978 1.02 1.494 1.536.94.902 1.953 1.724 3.029 2.457 1.494 1.089 2.485 1.801 2.485 2.792a1.402 1.402 0 0 1-.656 1.173 4.32 4.32 0 0 1-2.736 1.033Zm-7.594-3.714h.237s2.792.978 5.109 1.773c2.318.796 2.792.698 4.105-.293.097 0 .111-.112.111-.112a10.762 10.762 0 0 0-1.926-1.577 24.592 24.592 0 0 1-3.197-2.597l-1.508-1.563a37.035 37.035 0 0 0-8.236-6.827c-1.787-1.102-3.672-2.359-5.486-3.573-2.681-1.787-6.003-4.007-6.729-4.035-1.173.196-16.222-1.731-19.544-2.164l-4.021 1.006 1.215 9.185 3.881-.335a.777.777 0 0 1 .544.182c.07.069 7.622 6.98 11.168 8.152 2.878.691 5.853.879 8.795.559a.61.61 0 0 1 .349 0 79.946 79.946 0 0 0 9.549 3.322 8.19 8.19 0 0 0 5.221-1.089.606.606 0 0 1 .405-.014h-.042Z"/><path fill="#263238" d="M376.348 605.068a.697.697 0 0 1-.697-.772.705.705 0 0 1 .082-.261 1.2 1.2 0 0 0 .126-1.075c-.544-1.479-3.951-2.792-6.687-3.797a22.587 22.587 0 0 1-4.704-2.136 34.573 34.573 0 0 0-2.988-2.08.706.706 0 0 1-.46-.656.695.695 0 0 1 .698-.698c.237 0 .432 0 3.573 2.304a22.401 22.401 0 0 0 4.384 1.968c3.308 1.242 6.728 2.541 7.496 4.607a2.588 2.588 0 0 1-.223 2.233.709.709 0 0 1-.6.363Z"/><path fill="#FFBDA7" d="M392.974 595.98s.335 3.183-.168 4.021c-.502.837-2.331.837-3.336-1.173a16.756 16.756 0 0 1-1.173-5.36l4.677 2.512Z"/><path fill="#263238" d="M391.732 601.229h-.084a3.39 3.39 0 0 1-2.792-2.08 16.758 16.758 0 0 1-1.243-5.584v-1.228l6.087 3.266v.363c.084.796.321 3.49-.265 4.454a1.937 1.937 0 0 1-1.703.809Zm-2.625-6.533c.134 1.317.463 2.606.977 3.825.601 1.173 1.396 1.298 1.606 1.312a.628.628 0 0 0 .53-.195 9.753 9.753 0 0 0 .098-3.211l-3.211-1.731Z"/><path fill="#FFBDA7" d="M389.679 595.59a11.485 11.485 0 0 1-1.912 3.531c-.824.531-2.471-.279-2.499-2.526a16.653 16.653 0 0 1 1.312-5.319l3.099 4.314Z"/><path fill="#263238" d="M387.208 599.973c-.361 0-.716-.092-1.033-.265a3.426 3.426 0 0 1-1.605-3.113c.148-1.927.62-3.815 1.396-5.584l.489-1.131 4.034 5.584-.126.349c-.279.754-1.256 3.266-2.191 3.881a1.7 1.7 0 0 1-.964.279Zm-.432-7.231a13.136 13.136 0 0 0-.81 3.853 2.027 2.027 0 0 0 .866 1.884.64.64 0 0 0 .558 0 9.769 9.769 0 0 0 1.508-2.792l-2.122-2.945Z"/><path fill="#FFBDA7" d="M392.806 592.797s3.351 3.016 3.016 6.031c-.335 3.016-2.68 2.345-3.337.335a550.864 550.864 0 0 1-1.396-4.355l1.717-2.011Z"/><path fill="#263238" d="M394.342 601.578a2.95 2.95 0 0 1-2.527-2.191 169.736 169.736 0 0 1-1.396-4.384l-.111-.363 2.373-2.792.544.475c.14.139 3.602 3.294 3.239 6.617-.251 2.247-1.466 2.61-1.982 2.666l-.14-.028Zm-2.429-6.603c.209.726.726 2.457 1.229 3.965.279.823.851 1.256 1.256 1.242.405-.014.642-.586.74-1.396.209-1.94-1.396-3.978-2.276-4.9l-.949 1.089Z"/><path fill="#FFBDA7" d="M334.956 570.196s19.195-3.532 24.5-3.029c5.305.502 20.2 6.812 21.959 7.817 1.759 1.006 12.131 8.376 12.383 10.359a30.49 30.49 0 0 1-.517 6.31s5.054 1.019 3.295 3.28c-1.759 2.262-5.584 1.773-7.832 1.019-2.247-.753-9.604-5.584-11.363-6.31-1.759-.725-8.083.754-12.885-.767-4.803-1.522-12.369-8.586-12.369-8.586l-15.691 4.551-1.48-14.644Z"/><path fill="#263238" d="M392.444 597.293a12.503 12.503 0 0 1-3.923-.684 54.056 54.056 0 0 1-7.204-3.937c-1.814-1.075-3.531-2.094-4.188-2.387a12.384 12.384 0 0 0-3.741-.098c-3.039.307-6.108.09-9.074-.642-4.397-1.396-10.875-7.134-12.341-8.474l-16.081 4.677-1.704-16.18.643-.112c.781-.153 19.348-3.546 24.681-3.043 5.333.503 20.423 6.868 22.252 7.915.74.419 12.397 8.237 12.718 10.875.085 1.964-.05 3.93-.405 5.863 1.075.294 2.973.978 3.448 2.262a1.973 1.973 0 0 1-.405 1.982 5.69 5.69 0 0 1-4.676 1.983Zm-16.92-8.586a5.51 5.51 0 0 1 2.108.293c.768.321 2.443 1.327 4.369 2.471a56.428 56.428 0 0 0 6.98 3.811c2.36.796 5.584 1.061 7.05-.767.307-.391.238-.573.21-.643-.252-.67-1.983-1.312-3.072-1.535l-.67-.126.112-.67c.378-2.015.547-4.064.503-6.114-.224-1.508-9.772-8.502-12.034-9.772-1.731-.992-16.459-7.246-21.68-7.734-4.607-.447-20.312 2.289-23.732 2.903l1.396 13.165 15.231-4.426.293.28c0 .069 7.51 6.98 12.103 8.376 2.809.672 5.712.865 8.585.572.852-.042 1.634-.084 2.248-.084Z"/><path fill="#FFBDA7" d="M378.595 576.408a10.138 10.138 0 0 1 5.347 3.351c2.792 3.001 9.339 11.894 9.339 11.894-7.217-1.145-13.681-8.055-13.681-8.055"/><path fill="#263238" d="m394.845 592.616-1.662-.265c-7.384-1.173-13.834-7.985-14.099-8.278l1.019-.95s5.347 5.584 11.503 7.441c-1.968-2.666-6.087-8.139-8.167-10.33a9.862 9.862 0 0 0-4.942-3.141l.182-1.396a10.795 10.795 0 0 1 5.779 3.643c2.792 3.015 9.13 11.615 9.395 11.978l.992 1.298Z"/><path fill="#B2B2B2" d="M224.854 520.945s-7.315 14.142-3.281 49.502c4.035 35.361 18.148 56.064 26.259 56.315 8.111.251 68.683-17.171 74.756-20.717 6.072-3.545 18.148-7.063 18.929-7.315.782-.251 2.792-7.58 1.019-17.422a113.844 113.844 0 0 0-2.792-12.885l-23.732 4.3-36.1 6.059a3.322 3.322 0 0 0-1.773-3.532 41.015 41.015 0 0 0-7.329-2.527s-6.561-44.672-20.2-56.315"/><path fill="#263238" d="M248.013 627.46h-.195c-8.376-.265-22.797-20.689-26.943-56.929-4.006-35.165 3.057-49.32 3.364-49.893a.71.71 0 0 1 .685-.428.683.683 0 0 1 .497.251.697.697 0 0 1 .061.805c-.084.14-7.176 14.435-3.211 49.098 4.188 36.687 18.665 55.477 25.589 55.7 7.859.196 68.404-17.115 74.365-20.619 2.526-1.466 7.789-3.909 18.539-7.217l.418-.126c.657-.977 2.262-7.761.657-16.682-1.313-7.371-2.22-10.917-2.583-12.201l-23.118 4.188-36.114 6.059a.693.693 0 0 1-.629-.21.69.69 0 0 1-.167-.628 2.635 2.635 0 0 0-1.396-2.792 41.252 41.252 0 0 0-7.162-2.457.698.698 0 0 1-.516-.572c-.07-.447-6.687-44.574-19.963-55.84a.696.696 0 0 1-.21-.747.694.694 0 0 1 .347-.406.688.688 0 0 1 .533-.041.69.69 0 0 1 .238.133c13.08 11.168 19.544 51.247 20.367 56.287a36.661 36.661 0 0 1 6.98 2.47 4.098 4.098 0 0 1 2.15 3.281l35.249-5.919 23.732-4.286a.714.714 0 0 1 .782.461 112.77 112.77 0 0 1 2.792 12.983c1.703 9.493 0 17.715-1.48 18.148l-.572.181c-10.624 3.267-15.775 5.654-18.232 7.092-6.226 3.727-65.835 20.856-74.854 20.856Z"/><path fill="#263238" d="M242.276 588.568a.716.716 0 0 1-.684-.573.7.7 0 0 1 .558-.81c7.846-1.479 28.074-14.909 28.283-15.048a.695.695 0 0 1 1.02.722.702.702 0 0 1-.252.436c-.838.559-20.661 13.737-28.786 15.259l-.139.014ZM239.498 603.966a.676.676 0 0 1-.614-.377.698.698 0 0 1 .293-.936 46.903 46.903 0 0 0 5.584-3.42.695.695 0 0 1 .523-.119.701.701 0 0 1 .286 1.264 49.848 49.848 0 0 1-5.695 3.518.649.649 0 0 1-.377.07ZM248.237 598.2a.729.729 0 0 1-.308-.072.729.729 0 0 1-.251-.193.711.711 0 0 1 .126-.991 175.077 175.077 0 0 0 19.963-18.888.695.695 0 0 1 .755-.195.688.688 0 0 1 .401.358.697.697 0 0 1 .03.536.721.721 0 0 1-.139.236 176.792 176.792 0 0 1-20.158 19.055.7.7 0 0 1-.419.154ZM267.781 601.439a.705.705 0 0 1-.559-.266.713.713 0 0 1 .14-.977c.996-.773 1.9-1.658 2.694-2.638a.706.706 0 0 1 1.166.114c.043.082.07.171.08.263a.701.701 0 0 1-.157.516 18.014 18.014 0 0 1-2.931 2.792.702.702 0 0 1-.433.196ZM272.681 595.799a.785.785 0 0 1-.377-.112.714.714 0 0 1-.224-.963 52.36 52.36 0 0 0 5.584-13.834.717.717 0 1 1 1.396.321 53.62 53.62 0 0 1-5.807 14.253.7.7 0 0 1-.572.335ZM324.347 597.656a.713.713 0 0 1-.491-.229.692.692 0 0 1-.179-.511c.083-1.396.111-2.876.111-4.188a.69.69 0 0 1 .419-.645.689.689 0 0 1 .265-.053.659.659 0 0 1 .712.684c0 1.396 0 2.792-.111 4.341a.684.684 0 0 1-.726.601ZM324.165 588.233a.686.686 0 0 1-.684-.629c-1.103-10.4-5.095-13.806-5.123-13.834a.696.696 0 0 1-.256-.47.696.696 0 0 1 .622-.77.699.699 0 0 1 .513.151c.182.14 4.467 3.727 5.584 14.784a.696.696 0 0 1-.614.768h-.042ZM201.429 661.188h-22.741s-14.742-58.772-8.809-104.1a8.755 8.755 0 0 1 8.697-7.594 8.725 8.725 0 0 1 8.094 5.431 8.73 8.73 0 0 1 .645 3.363c-.111 16.152 1.368 53.467 14.114 102.9Z"/><path fill="#263238" d="M201.429 661.886h-22.741a.702.702 0 0 1-.67-.531c-.154-.586-14.714-59.428-8.823-104.365a9.455 9.455 0 0 1 6.359-7.71 9.452 9.452 0 0 1 9.723 2.308 9.347 9.347 0 0 1 2.792 6.7c-.098 17.52 1.592 54.165 14.114 102.732a.673.673 0 0 1-.126.6.677.677 0 0 1-.628.266Zm-22.211-1.396h21.303c-12.354-48.288-13.96-84.724-13.96-102.202a8.014 8.014 0 0 0-2.331-5.726 8.018 8.018 0 0 0-5.71-2.37 8.084 8.084 0 0 0-7.999 6.98c-5.528 42.41 7.26 97.343 8.697 103.318Z"/><path fill="#263238" d="M676.334 661.886H18.148a.698.698 0 0 1 0-1.396h658.186a.71.71 0 0 1 .698.698.696.696 0 0 1-.698.698Z"/></svg>