<svg xmlns="http://www.w3.org/2000/svg" width="698" height="698"><path fill="#A8D1D1" d="M352.644 681.206c182.678 0 330.768-87.864 330.768-196.25 0-108.385-148.09-196.249-330.768-196.249-182.679 0-330.769 87.864-330.769 196.249 0 108.386 148.09 196.25 330.769 196.25Z"/><path fill="#6A9898" d="M608.572 550.345c32.019 0 57.976-14.988 57.976-33.476s-25.957-33.476-57.976-33.476-57.976 14.988-57.976 33.476 25.957 33.476 57.976 33.476ZM279.996 630.49 68.962 508.647c-8.013-4.635-8.013-12.201 0-16.836l320.41-184.956a13.28 13.28 0 0 1 12.006 0l223.89 129.255c.95.559.95 1.396 0 1.983L292.001 630.49a13.366 13.366 0 0 1-12.005 0ZM144.109 74.267l-13.136 7.58c0-.586.111-1.172.111-1.744v-3.798c0-6.784-4.76-9.52-10.623-6.142a20.616 20.616 0 0 0-6.338 6.087c-.963-8.516-7.65-11.685-15.76-6.98-8.782 5.067-15.901 17.394-15.901 27.529v5.695a14.863 14.863 0 0 0 1.396 6.589l-10.917 6.31a13.006 13.006 0 0 0-5.933 10.247c0 3.755 2.638 5.277 5.891 3.406l71.196-41.126a13.011 13.011 0 0 0 5.891-10.205c.014-3.81-2.624-5.332-5.877-3.448ZM223.681 88.115l-9.925 5.724c.055-.435.083-.873.083-1.312v-2.792c0-5.123-3.587-7.19-8.013-4.635a15.55 15.55 0 0 0-4.802 4.523c-.726-6.421-5.765-8.823-11.894-5.29-6.617 3.824-11.992 13.136-11.992 20.786v4.3a11.16 11.16 0 0 0 1.02 4.969l-8.237 4.761a9.86 9.86 0 0 0-4.453 7.706c0 2.792 1.996 3.978 4.453 2.568l53.746-31.033a9.864 9.864 0 0 0 4.453-7.65c0-2.89-1.968-4.034-4.439-2.624Z"/><path fill="#BAE8E8" d="M92.597 453.993s1.033-24.514-8.013-45.091c-9.047-20.577-23.732-34.816-38.851-38.431-15.119-3.616-29.79 8.557-14.881 20.842 14.909 12.285 42.564 26.761 50.256 65.165l11.489-2.485Z"/><path fill="#000" d="M92.597 453.993s1.033-24.514-8.013-45.091c-9.047-20.577-23.732-34.816-38.851-38.431-15.119-3.616-29.79 8.557-14.881 20.842 14.909 12.285 42.564 26.761 50.256 65.165l11.489-2.485Z" opacity=".15"/><path fill="#fff" d="M89.079 447.027h.167a.838.838 0 0 0 .615-1.005c-9.954-42.466-38.209-63.979-51.75-69.409a.809.809 0 0 0-1.075.461.837.837 0 0 0 .46 1.075c13.276 5.332 40.96 26.454 50.745 68.236a.839.839 0 0 0 .838.642Z"/><path fill="#BAE8E8" d="M64.216 491.615c2.303 7.427 7.915 11.476 15.524 12.955 4.844.936 12.564 0 16.752-3.029 5.695-4.188 7.622-7.259 8.808-11.377a68.924 68.924 0 0 0 2.471-16.836c.14-4.188-2.122-7.846-3.825-10.261a31.608 31.608 0 0 0-2.959-3.28c-1.16-1.243-2.457-2.318-3.686-3.476a13.349 13.349 0 0 1-3.909-5.584c-.949-3.086 0-6.408 0-9.633a14.744 14.744 0 0 0-11.35-13.918 67.973 67.973 0 0 0-9.645-1.703c-4.845-.447-10.066.963-14.784-.517-4.719-1.479-8.809-3.88-13.639-4.802-5.054-.963-10.665-.195-14.616 3.309a9.094 9.094 0 0 0-3.364 7.859c.53 3.239 3.294 5.584 5.919 7.539 2.624 1.954 5.486 4.076 6.351 7.231 1.731 6.366-5.584 12.759-3.56 19.041a10.297 10.297 0 0 0 5.724 5.71 66.7 66.7 0 0 0 6.492 2.345c1.061.263 2.138.459 3.224.587 3.17.362 6.506 1.088 8.893 3.392 3.783 3.56 3.63 9.465 5.179 14.448Z"/><path fill="#fff" d="M80.005 453.7a.946.946 0 0 0-.238-.293c-14.309-18.036-35.598-25.784-42.703-26.957a.755.755 0 0 0-.852.614.756.756 0 0 0 .614.852c6.73 1.103 26.524 8.25 40.485 24.723a40.48 40.48 0 0 0-32.109 4.677.723.723 0 0 0-.167 1.019.745.745 0 0 0 .614.307.796.796 0 0 0 .419-.14 39.257 39.257 0 0 1 32.918-3.867c.572.182 1.465 1.955 1.814 2.443.67.95 1.313 1.913 1.927 2.876a62.394 62.394 0 0 1 3.35 6.059 61.007 61.007 0 0 1 2.722 6.659c.308.879 1.396 6.296 2.067 6.351a.874.874 0 0 0 .823-.711c.447-1.899-1.075-4.928-1.703-6.701a61.513 61.513 0 0 0-2.792-6.659 64.41 64.41 0 0 0-3.434-5.877c-.586-.936-1.2-1.843-1.843-2.792a19.167 19.167 0 0 1-1.912-2.583Z"/><path fill="#37474F" d="M87.78 498.735c0 4.872 3.63 10.917 8.125 13.513l177.083 102.257a17.982 17.982 0 0 0 16.277 0L601.09 434.421c4.495-2.582 8.138-8.641 8.138-13.499 0-4.858-3.643-10.917-8.138-13.513L424.007 305.193a17.953 17.953 0 0 0-16.263 0L95.905 485.222c-4.495 2.596-8.139 8.641-8.124 13.513Z"/><path fill="#455A64" d="m95.905 494.617 177.083 102.271a18.071 18.071 0 0 0 16.277 0L601.09 416.804c4.495-2.597 4.495-6.799 0-9.395L424.007 305.193a17.953 17.953 0 0 0-16.263 0L95.905 485.222c-4.495 2.596-4.495 6.798 0 9.395Z"/><path fill="#263238" d="M281.127 598.884v17.604a16.531 16.531 0 0 1-8.125-1.941L95.905 512.248c-4.495-2.596-8.139-8.641-8.139-13.513 0-4.565 3.211-10.163 7.316-12.983-3.644 2.611-3.365 6.45.823 8.865l177.097 102.271a16.544 16.544 0 0 0 8.125 1.996Z"/><path fill="#37474F" d="M80.144 485.515c-4.188-2.429-3.978-6.533-3.978-11.727V229.195a17.997 17.997 0 0 1 8.138-14.099L396.13 35.012c4.495-2.597 11.559-2.723 15.775-.294 4.216 2.43 3.978 6.548 3.978 11.727v244.663a18.012 18.012 0 0 1-8.124 14.086L95.905 485.222c-4.495 2.596-11.545 2.736-15.76.293Z"/><path fill="#455A64" d="M415.868 46.5c0-5.178-3.643-7.272-8.124-4.704L95.905 221.852a16.539 16.539 0 0 0-5.751 6.073l-11.601-6.743a16.583 16.583 0 0 1 5.752-6.086L396.129 35.012c4.523-2.541 11.503-2.667 15.691-.238 4.188 2.43 4.048 6.548 4.048 11.727Z"/><path fill="#263238" d="M94.928 485.724c-4.481 2.094-10.875 2.066-14.798-.209-4.188-2.429-3.978-6.533-3.978-11.727V229.181c.088-2.828.91-5.585 2.387-7.999l11.6 6.715a16.642 16.642 0 0 0-2.373 8.027v244.607c0 4.816 3.141 6.966 7.162 5.193Z"/><path fill="#BAE8E8" d="M100.289 231.219 400.931 57.697c2.695-1.564 4.872-.294 4.872 2.792v220.568a10.754 10.754 0 0 1-4.872 8.376L100.289 462.997c-2.709 1.55-4.886.294-4.886-2.792V239.679a10.777 10.777 0 0 1 4.886-8.46Z"/><path fill="#000" d="M100.289 231.219 400.931 57.697c2.695-1.564 4.872-.294 4.872 2.792v220.568a10.754 10.754 0 0 1-4.872 8.376L100.289 462.997c-2.709 1.55-4.886.294-4.886-2.792V239.679a10.777 10.777 0 0 1 4.886-8.46Z" opacity=".3"/><path fill="#263238" d="m118.409 485.71 289.446-167.115a8.995 8.995 0 0 1 8.139 0l4.816 2.652c2.248 1.299 2.248 3.393 0 4.691L131.322 493.025a8.966 8.966 0 0 1-8.125 0l-4.774-2.624c-2.248-1.298-2.248-3.392-.014-4.691ZM141.122 499.21l289.432-167.116a8.374 8.374 0 0 1 7.441-.404l75.384 43.499c1.857 1.075 1.536 3.001-.712 4.286L223.528 546.366a8.376 8.376 0 0 1-7.441.419l-75.663-43.276c-1.857-1.089-1.55-3.001.698-4.299Z"/><path fill="#455A64" d="m391.927 402.285 9.06-5.235c.391-.223.419-.558.084-.754l-8.683-5.011a1.495 1.495 0 0 0-1.313 0l-9.06 5.235c-.39.223-.418.572-.083.768l8.669 4.997a1.47 1.47 0 0 0 1.326 0Zm-13.234-18.148-9.06 5.347c-.391.223-.419.558-.084.754l8.669 5.011a1.47 1.47 0 0 0 1.326 0l9.061-5.235c.376-.223.418-.558.069-.753l-8.669-5.012a1.397 1.397 0 0 0-1.312-.07v-.042Zm-29.316 16.906-15.356 8.851c-.391.223-.419.572-.084.767l8.683 4.998a1.393 1.393 0 0 0 1.313 0l15.356-8.851c.39-.223.418-.558.083-.767l-8.669-4.998a1.393 1.393 0 0 0-1.284.042l-.042-.042Zm16.026-9.256-9.06 5.235c-.391.224-.419.559-.084.754l8.669 5.012a1.483 1.483 0 0 0 1.327 0l9.06-5.235c.39-.223.418-.559.083-.768l-8.683-4.998a1.4 1.4 0 0 0-1.27.042l-.042-.042Zm-35.556 20.522-9.06 5.235c-.377.223-.419.558 0 .767l8.669 4.998a1.39 1.39 0 0 0 1.312 0l9.06-5.235c.391-.223.419-.558.084-.754l-8.669-5.011a1.477 1.477 0 0 0-1.354.041l-.042-.041Zm-13.234 7.65-9.074 5.235c-.377.223-.419.558-.07.754l8.669 5.011a1.39 1.39 0 0 0 1.312 0l9.06-5.235c.391-.223.419-.558.084-.754l-8.669-5.011a1.386 1.386 0 0 0-1.27.042l-.042-.042Zm33.978 20.423 9.06-5.235c.391-.209.419-.558.084-.754l-8.669-5.011a1.47 1.47 0 0 0-1.326 0l-9.06 5.221c-.377.223-.419.572 0 .768l8.669 5.011a1.4 1.4 0 0 0 1.284.042l-.042-.042Zm-13.206 7.734 9.06-5.235c.391-.223.419-.558.084-.754l-8.697-5.053a1.492 1.492 0 0 0-1.312 0l-9.074 5.235c-.377.223-.419.572-.07.767l8.669 4.998a1.393 1.393 0 0 0 1.34.042Zm-13.248 7.65 9.06-5.235c.391-.223.433-.558.084-.754l-8.669-5.011a1.39 1.39 0 0 0-1.312 0l-9.06 5.235c-.391.223-.433.558-.084.767l8.669 4.998a1.401 1.401 0 0 0 1.312-.042v.042Zm-13.234 7.65 9.06-5.235c.377-.223.419-.558.07-.768l-8.725-5.039a1.39 1.39 0 0 0-1.312 0l-9.06 5.235c-.391.223-.419.558-.084.754l8.669 5.011a1.474 1.474 0 0 0 1.382 0v.042Zm67.776-53.439 9.06-5.235c.391-.223.419-.558.084-.754l-8.669-5.011a1.48 1.48 0 0 0-1.396 0l-9.06 5.235c-.377.223-.419.558-.07.768l8.669 4.997c.214.114.454.17.696.162.243-.007.479-.077.686-.204v.042Zm-14.798 22.783 20.214-11.685c.377-.223.419-.558.07-.753l-21.051-12.16a1.405 1.405 0 0 0-1.313 0l-10.456 6.045c-.391.224-.419.559-.083.754l11.168 6.436c.335.195.307.544-.084.767l-8.376 4.831c-.391.223-.419.558-.084.753l8.669 5.012a1.539 1.539 0 0 0 1.326 0Zm-60.474-5.137-9.06 5.235c-.391.223-.419.558-.084.754l8.669 5.011a1.492 1.492 0 0 0 1.312 0l9.074-5.235c.377-.223.419-.572.07-.768l-8.669-4.997a1.386 1.386 0 0 0-1.312.028v-.028Zm-13.248 7.65-9.06 5.235c-.391.209-.419.558-.084.754l8.669 5.011a1.478 1.478 0 0 0 1.396 0l9.06-5.221c.377-.223.419-.572.07-.768l-8.669-4.997a1.39 1.39 0 0 0-1.382.014v-.028Zm-73.29 81.638a1.402 1.402 0 0 0 1.312 0l9.06-5.235c.391-.223.419-.559.084-.754l-8.669-5.012a1.483 1.483 0 0 0-1.327 0l-9.06 5.221c-.377.224-.419.573-.07.768l8.67 5.012Zm-32.597-20.438-9.074 5.235c-.377.224-.419.559 0 .754l8.669 5.012a1.402 1.402 0 0 0 1.312 0l9.06-5.235c.391-.223.419-.558.084-.768l-8.669-4.998a1.405 1.405 0 0 0-1.382 0Zm16.752 15.356a1.39 1.39 0 0 0 1.312 0l9.06-5.235c.391-.223.419-.558.084-.753l-8.669-5.012a1.539 1.539 0 0 0-1.326 0l-9.06 5.235c-.377.223-.419.572 0 .768l8.599 4.997Zm36.547 8.223 9.06-5.235c.377-.223.419-.559 0-.754l-8.669-5.012a1.4 1.4 0 0 0-1.312 0l-9.06 5.221c-.391.224-.419.573-.084.768l8.669 4.998c.213.108.448.163.686.161a1.49 1.49 0 0 0 .682-.175l.028.028Zm-14.602 7.636a1.483 1.483 0 0 0 1.326 0l9.06-5.235c.377-.223.419-.558.084-.754l-8.683-5.025a1.39 1.39 0 0 0-1.312 0l-9.06 5.235c-.391.223-.419.558-.084.767l8.669 5.012Zm-25.533-38.893-9.06 5.235c-.377.224-.419.559-.07.768l8.67 4.97a1.39 1.39 0 0 0 1.312 0l9.06-5.235c.391-.223.419-.558.084-.754l-8.669-5.011a1.489 1.489 0 0 0-1.327.055v-.028Zm66.227-38.236-9.06 5.235c-.377.223-.419.558 0 .768l8.669 4.997a1.39 1.39 0 0 0 1.312 0l9.06-5.235c.391-.223.419-.558.084-.753l-8.669-5.012a1.474 1.474 0 0 0-1.396.028v-.028Zm-53.048 30.6-9.06 5.221c-.391.224-.419.573-.084.768l8.683 4.998a1.402 1.402 0 0 0 1.312 0l9.06-5.235c.391-.223.419-.559.084-.754l-8.669-5.012a1.478 1.478 0 0 0-1.257.042l-.069-.028Zm66.226-38.236-8.99 5.193c-.391.223-.419.572-.084.768l8.669 4.997a1.398 1.398 0 0 0 1.326 0l9.06-5.235c.391-.223.419-.558.084-.753l-8.669-5.012a1.488 1.488 0 0 0-1.326.07l-.07-.028Zm-26.524 15.286-9.074 5.235c-.377.223-.419.558 0 .754l8.669 5.012a1.4 1.4 0 0 0 1.312 0l9.06-5.235c.391-.224.433-.559.084-.768l-8.669-4.998a1.398 1.398 0 0 0-1.271.028l-.111-.028Zm-13.248 7.65-9.06 5.235c-.391.224-.419.559-.084.754l8.669 5.012a1.4 1.4 0 0 0 1.312 0l9.074-5.221c.377-.224.419-.573.07-.768l-8.669-4.998a1.405 1.405 0 0 0-1.201.014l-.111-.028Zm-13.248 7.65-8.949 5.319c-.391.223-.418.572-.083.768l8.669 5.011a1.475 1.475 0 0 0 1.396 0l9.06-5.235c.377-.209.419-.558.07-.753l-8.67-5.012a1.406 1.406 0 0 0-1.382-.07l-.111-.028Zm60.474 5.124 9.06-5.235c.391-.21.419-.559.084-.754l-8.557-4.984a1.483 1.483 0 0 0-1.326 0l-9.06 5.221c-.377.223-.419.572 0 .768l8.669 4.998a1.39 1.39 0 0 0 1.242.013l-.112-.027Zm123.56-111.387-9.06 5.235c-.377.223-.418.558-.069.768l8.669 4.997a1.39 1.39 0 0 0 1.312 0l9.06-5.235c.391-.223.419-.558.084-.754l-8.669-5.011a1.472 1.472 0 0 0-1.215.028l-.112-.028Zm-16.026 9.255-9.06 5.235c-.391.224-.419.573-.083.768l8.669 4.998a1.4 1.4 0 0 0 1.312 0l9.074-5.235c.377-.224.419-.559.07-.754l-8.669-5.012a1.507 1.507 0 0 0-1.201.028l-.112-.028Zm29.316-16.891-9.06 5.221c-.391.223-.419.572-.084.767l8.67 4.998a1.48 1.48 0 0 0 1.326 0l9.06-5.235c.377-.223.419-.558.07-.754l-8.669-5.011a1.387 1.387 0 0 0-1.243.042l-.07-.028Zm-73.206 67.999 9.06-5.221c.391-.224.419-.573.084-.768l-8.669-4.998a1.397 1.397 0 0 0-1.327 0l-9.06 5.235c-.39.224-.418.559-.083.754l8.669 5.012a1.486 1.486 0 0 0 1.396.014l-.07-.028Zm87.767-75.691a1.394 1.394 0 0 0-1.313 0l-9.06 5.235c-.391.209-.419.558-.083.753l8.669 5.012a1.39 1.39 0 0 0 1.312 0l9.074-5.221c.377-.223.419-.572.07-.768l-8.669-5.011ZM297.655 471.01l9.06-5.221c.377-.223.419-.572 0-.767l-8.669-4.998a1.39 1.39 0 0 0-1.312 0l-9.06 5.235c-.391.223-.419.558-.084.754l8.669 5.011a1.47 1.47 0 0 0 1.396-.014Zm162.425-93.769 9.06-5.235c.391-.223.419-.558.084-.754l-8.67-5.011a1.475 1.475 0 0 0-1.396 0l-9.06 5.235c-.377.223-.418.558-.069.767l8.669 4.998a1.392 1.392 0 0 0 1.382 0Zm-25.631.489 9.06-5.221c.391-.224.419-.573.084-.768l-8.669-4.998a1.397 1.397 0 0 0-1.326 0l-9.06 5.235c-.377.224-.419.559-.07.754l8.669 5.012a1.393 1.393 0 0 0 1.312-.014Zm13.667-18.637a1.402 1.402 0 0 0-1.312 0l-9.018 5.263c-.391.223-.419.558-.084.754l8.669 5.011a1.524 1.524 0 0 0 1.326 0l9.06-5.235c.377-.223.419-.572.07-.767l-8.711-5.026Zm2.792-1.619 21.052 12.159a1.48 1.48 0 0 0 1.326 0l9.06-5.235c.391-.223.419-.559.084-.754l-21.066-12.159a1.39 1.39 0 0 0-1.312 0l-9.06 5.235c-.349.223-.377.558-.084.754Zm-30.586 16.961-9.074 5.221c-.377.224-.419.573-.07.768l8.669 4.998a1.4 1.4 0 0 0 1.312 0l9.06-5.235c.391-.224.419-.559.084-.754l-8.669-5.012a1.395 1.395 0 0 0-1.27.014h-.042Zm-99.689 57.543-9.074 5.235c-.377.224-.418.573-.069.768l8.669 4.998a1.402 1.402 0 0 0 1.312 0l9.06-5.235c.391-.224.419-.559.084-.754l-8.669-5.012a1.406 1.406 0 0 0-1.271 0h-.042Zm124.845-47.045a1.39 1.39 0 0 0 1.312 0l9.06-5.235c.391-.223.419-.558.084-.768l-8.67-4.997a1.39 1.39 0 0 0-1.312 0l-9.074 5.235c-.377.223-.419.558-.07.753l8.67 5.012Zm-111.569 39.451-9.06 5.221c-.377.223-.419.572 0 .768l8.669 4.998a1.404 1.404 0 0 0 1.313 0l9.06-5.235c.391-.224.418-.559.083-.754l-8.669-5.012a1.482 1.482 0 0 0-1.396.014Zm-103.806 84.961a1.482 1.482 0 0 0 1.326 0l9.06-5.221c.377-.224.419-.573 0-.768l-8.669-4.998a1.393 1.393 0 0 0-1.312 0l-9.06 5.235c-.391.223-.419.558-.084.754l8.739 4.998Zm-15.356-16.138-9.102 5.165c-.391.209-.419.558-.084.754l8.683 5.011a1.39 1.39 0 0 0 1.312 0l9.06-5.221c.391-.223.419-.572.084-.767l-8.669-5.012a1.475 1.475 0 0 0-1.326.028l.042.042Zm29.972 8.446 9.06-5.235c.377-.224.419-.573.07-.768l-8.669-4.998a1.406 1.406 0 0 0-1.313 0l-9.06 5.235c-.391.223-.419.559-.084.754l8.67 5.012a1.476 1.476 0 0 0 1.284-.042l.042.042Zm13.234-7.65 9.06-5.235c.391-.224.433-.559.084-.754l-8.711-4.998a1.393 1.393 0 0 0-1.313 0l-9.06 5.235c-.39.223-.432.558-.083.754l8.669 5.011a1.392 1.392 0 0 0 1.312-.055l.042.042Zm13.248-7.651 9.06-5.235c.391-.223.419-.558.084-.753l-8.669-5.012a1.48 1.48 0 0 0-1.396 0l-9.06 5.235c-.377.223-.419.572 0 .768l8.669 4.997a1.39 1.39 0 0 0 1.27-.041l.042.041Zm-43.276-.795-9.06 5.235c-.391.223-.419.558-.084.754l8.669 5.011a1.48 1.48 0 0 0 1.396 0l9.06-5.221c.377-.223.419-.572.07-.768l-8.669-4.997a1.393 1.393 0 0 0-1.354-.056l-.028.042Zm13.248-7.65-9.06 5.235c-.391.223-.419.558-.084.753l8.669 5.012a1.393 1.393 0 0 0 1.313 0l9.074-5.235c.376-.223.418-.558.069-.768l-8.669-4.997a1.383 1.383 0 0 0-1.284-.042l-.028.042Zm52.978-30.587-9.06 5.235c-.391.224-.419.559-.084.754l8.67 5.012a1.538 1.538 0 0 0 1.396 0l9.06-5.235c.376-.224.418-.573 0-.768l-8.67-4.998a1.394 1.394 0 0 0-1.284-.042l-.028.042Zm-13.248 7.65-9.06 5.235c-.391.21-.419.559-.084.754l8.669 5.012a1.484 1.484 0 0 0 1.327 0l9.06-5.221c.391-.224.419-.573.083-.768l-8.683-4.998a1.403 1.403 0 0 0-1.284-.056l-.028.042Zm26.524-15.356-9.06 5.235c-.391.224-.419.559-.084.754l8.669 5.012a1.406 1.406 0 0 0 1.313 0l9.074-5.235c.377-.223.419-.559.07-.754l-8.67-5.012a1.392 1.392 0 0 0-1.312.014v-.014Zm-52.978 30.587-9.074 5.235c-.377.223-.419.558-.07.768l8.669 4.997a1.393 1.393 0 0 0 1.313 0l9.06-5.235c.39-.223.418-.558.083-.754l-8.669-5.011a1.386 1.386 0 0 0-1.312.014v-.014Zm13.234-7.636-9.06 5.221c-.377.223-.419.572 0 .767l8.669 4.998a1.39 1.39 0 0 0 1.312 0l9.06-5.235c.391-.223.419-.558.084-.754l-8.669-5.011a1.473 1.473 0 0 0-1.396.028v-.014Zm-16.906 49.767 9.074-5.221c.377-.223.419-.572.07-.768l-8.641-4.956a1.4 1.4 0 0 0-1.312 0l-9.06 5.235c-.391.21-.433.559-.084.754l8.669 5.012a1.388 1.388 0 0 0 1.284-.056Zm-69.8-3.295-8.669-4.997a1.39 1.39 0 0 0-1.312 0l-9.06 5.319c-.391.223-.419.558-.084.753l8.669 5.012a1.394 1.394 0 0 0 1.313 0l9.074-5.221c.335-.279.377-.628.028-.824l.041-.042Zm17.255 4.384-8.669-5.012a1.402 1.402 0 0 0-1.312 0l-13.96 8.055c-.391.224-.419.559-.084.754l8.669 5.012a1.483 1.483 0 0 0 1.326 0l13.96-8.055c.349-.224.377-.559.07-.754Zm-30.209-14.225-8.698-5.012a1.387 1.387 0 0 0-1.312 0l-11.168 6.436c-.391.223-.419.558-.084.753l8.67 5.012a1.475 1.475 0 0 0 1.396 0l11.168-6.449c.307-.168.349-.545 0-.74h.028Zm8.557-4.942a1.402 1.402 0 0 0 1.312 0l9.06-5.235c.391-.224.419-.559.084-.754l-8.669-5.012a1.48 1.48 0 0 0-1.396 0l-9.06 5.221c-.377.224-.419.573 0 .768l8.669 5.012Zm37.525 24.304-8.67-5.011a1.39 1.39 0 0 0-1.312 0l-17.436 10.065c-.377.223-.419.558-.07.768l8.669 4.997a1.394 1.394 0 0 0 1.313 0l17.394-10.065c.391-.223.419-.558.084-.754h.028Zm6.114 10.763-8.669-4.997a1.48 1.48 0 0 0-1.396 0l-11.168 6.435c-.377.224-.419.573-.07.768l8.669 4.998a1.404 1.404 0 0 0 1.312 0l11.168-6.436c.503-.223.503-.558.126-.768h.028Zm54.793-91.912a1.4 1.4 0 0 0 1.312 0l9.074-5.235c.377-.21.419-.559.07-.754l-8.669-5.012a1.402 1.402 0 0 0-1.312 0l-9.06 5.221c-.391.224-.419.573-.084.768l8.669 5.012Zm-26.524 15.286a1.402 1.402 0 0 0 1.312 0l9.06-5.235c.391-.223.419-.559.084-.754l-8.669-5.012a1.482 1.482 0 0 0-1.326 0l-9.06 5.235c-.391.224-.419.559-.084.768l8.683 4.998Zm-58.632 33.923a1.478 1.478 0 0 0 1.396 0l9.06-5.221c.391-.224.419-.573.084-.768l-8.669-4.998a1.404 1.404 0 0 0-1.396 0l-9.06 5.235c-.391.21-.419.559-.084.754l8.669 4.998Zm71.992-41.573a1.483 1.483 0 0 0 1.326 0l9.046-5.305c.377-.223.419-.558 0-.754l-8.669-5.011a1.492 1.492 0 0 0-1.312 0l-9.06 5.235c-.391.223-.419.572-.084.767l8.753 5.068Zm-26.524 15.356a1.402 1.402 0 0 0 1.312 0l9.06-5.305c.391-.223.419-.558.084-.768l-8.669-4.997a1.48 1.48 0 0 0-1.396 0l-9.06 5.235c-.377.223-.419.558 0 .753l8.669 5.082Zm-8.6 69.521a1.47 1.47 0 0 0-1.326 0l-13.96 8.055c-.391.223-.419.558-.084.753l8.67 5.012a1.39 1.39 0 0 0 1.312 0l13.96-8.041c.391-.223.419-.572.084-.768l-8.656-5.011Zm-10.414-58.549a1.393 1.393 0 0 0 1.312 0l9.074-5.235c.377-.223.419-.558 0-.753l-8.669-5.012a1.39 1.39 0 0 0-1.312 0l-9.06 5.235c-.391.223-.419.558-.084.754l8.739 5.011Zm-13.248 7.65a1.47 1.47 0 0 0 1.326 0l9.06-5.235c.377-.223.419-.572.07-.767l-8.669-4.998a1.39 1.39 0 0 0-1.312 0l-9.088 5.221c-.391.223-.419.558-.084.754l8.697 5.025Zm269.037-90.74a1.4 1.4 0 0 0-1.312 0l-22.336 12.872c-.391.223-.419.558-.084.767l8.683 4.998a1.394 1.394 0 0 0 1.313 0l22.336-12.885c.377-.223.418-.558.069-.754l-8.669-4.998Zm-29.316 16.906a1.39 1.39 0 0 0-1.312 0l-9.046 5.235c-.391.223-.433.572-.084.768l8.669 4.997a1.394 1.394 0 0 0 1.313 0l9.06-5.235c.391-.223.432-.558.083-.753l-8.683-5.012Zm-178.757 99.549 9.06-5.235c.39-.224.418-.573.083-.768l-8.669-4.998a1.402 1.402 0 0 0-1.312 0l-9.074 5.235c-.377.224-.419.559-.07.754l8.669 5.012a1.495 1.495 0 0 0 1.313 0Zm152.275-84.347a1.4 1.4 0 0 0-1.312 0l-9.06 5.235c-.391.224-.419.559-.084.754l8.669 5.012a1.483 1.483 0 0 0 1.326 0l9.061-5.235c.376-.223.418-.572.069-.768l-8.669-4.998Zm69.018-39.841a1.39 1.39 0 0 0-1.312 0l-9.06 5.235c-.391.209-.419.558-.084.753l8.67 5.012a1.387 1.387 0 0 0 1.312 0l9.074-5.221c.377-.223.419-.572.07-.768l-8.67-5.011Zm21.918-2.653-21.052-12.145a1.483 1.483 0 0 0-1.326 0l-9.06 5.235c-.377.209-.419.558-.07.754l21.052 12.159a1.49 1.49 0 0 0 1.312 0l9.06-5.235c.391-.223.419-.572.084-.768Zm-140.424 71.071a1.39 1.39 0 0 0-1.312 0l-11.168 6.435c-.391.223-.419.572-.084.768l8.669 4.998a1.4 1.4 0 0 0 1.312 0l11.168-6.436c.391-.223.419-.572.084-.768l-8.669-4.997Zm33.504-19.321a1.39 1.39 0 0 0-1.312 0l-13.96 8.055c-.391.223-.419.558-.084.754l8.711 5.053a1.539 1.539 0 0 0 1.326 0l13.96-8.055c.391-.223.419-.558.084-.768l-8.725-5.039Zm-64.132 37.022a1.483 1.483 0 0 0-1.326 0l-74.589 43.052c-.377.224-.419.573 0 .768l8.669 4.998a1.394 1.394 0 0 0 1.313 0l74.588-43.067c.391-.223.419-.558.084-.753l-8.739-4.998Zm-78.777 45.482a1.49 1.49 0 0 0-1.312 0l-11.168 6.449c-.391.223-.433.558-.084.754l8.67 5.012a1.502 1.502 0 0 0 1.312 0l11.168-6.45c.391-.223.419-.558.084-.754l-8.67-5.011Zm94.063-54.263a1.39 1.39 0 0 0-1.312 0l-11.168 6.45c-.391.223-.419.558-.084.753l8.669 5.012a1.483 1.483 0 0 0 1.326 0l11.168-6.436c.377-.223.419-.558.07-.753l-8.669-5.026Zm-109.446 63.183a1.394 1.394 0 0 0-1.313 0l-11.168 6.436c-.391.223-.419.558-.083.753l8.669 5.012a1.483 1.483 0 0 0 1.326 0l11.168-6.436c.377-.223.419-.572.07-.767l-8.669-4.998Zm140.116-80.884a1.39 1.39 0 0 0-1.312 0l-11.168 6.435c-.377.224-.419.559-.07.754l8.725 4.928a1.39 1.39 0 0 0 1.312 0l11.168-6.436c.391-.223.419-.572.084-.767l-8.739-4.914Zm47.464-27.376a1.402 1.402 0 0 0-1.312 0l-9.06 5.235c-.391.224-.419.559-.084.754l8.669 5.012a1.4 1.4 0 0 0 1.312 0l9.074-5.235c.377-.224.419-.559.07-.754l-8.669-5.012Zm29.679-20.772 9.074-5.235c.377-.224.419-.559.07-.754l-8.739-4.942a1.39 1.39 0 0 0-1.312 0l-9.06 5.235c-.391.223-.419.558-.084.768l8.669 4.997a1.394 1.394 0 0 0 1.382-.069Zm-54.039 2.596 9.06-5.235c.377-.209.419-.558 0-.754l-8.669-5.011a1.393 1.393 0 0 0-1.313 0l-9.06 5.221c-.39.223-.418.572-.083.768l8.669 4.997a1.399 1.399 0 0 0 1.326.014h.07Zm-35.193 48.86 26.524-15.356c.391-.223.419-.572.083-.768l-8.669-4.997a1.483 1.483 0 0 0-1.326 0L360.14 437.66c-.391.223-.419.572-.084.768l8.669 4.997a1.398 1.398 0 0 0 1.215.126l.112-.056Zm74.672-43.82a1.475 1.475 0 0 0 1.396 0l9.06-5.235c.377-.224.419-.559.07-.768l-8.67-4.998a1.4 1.4 0 0 0-1.312 0l-9.06 5.235c-.391.224-.419.559-.084.754l8.6 5.012Zm-11.071-7.204 9.074-5.221c.377-.223.419-.572.07-.767l-8.669-4.998a1.39 1.39 0 0 0-1.312 0l-9.06 5.235c-.391.223-.433.558-.084.754l8.669 5.011a1.388 1.388 0 0 0 1.243.042l.069-.056Zm-76.78 58.632 9.061-5.235c.376-.223.418-.558 0-.753l-8.67-5.012a1.39 1.39 0 0 0-1.312 0l-9.06 5.235c-.391.223-.419.572-.084.768l8.669 4.997a1.487 1.487 0 0 0 1.271.098l.125-.098Zm58.632-34.565a1.497 1.497 0 0 0 1.313 0l9.06-5.235c.391-.223.419-.572.083-.767l-8.669-4.998a1.39 1.39 0 0 0-1.312 0l-9.074 5.235c-.377.223-.419.558-.07.754l8.669 5.011Zm-124.983 72.9 9.06-5.235c.377-.224.418-.559.069-.754l-8.669-5.012a1.402 1.402 0 0 0-1.312 0l-9.074 5.277c-.391.223-.419.558-.084.768l8.669 4.997a1.475 1.475 0 0 0 1.341-.041Zm13.248-7.65 9.06-5.235c.377-.224.418-.559 0-.754l-8.669-5.012a1.394 1.394 0 0 0-1.313 0l-8.99 5.249c-.391.223-.419.572-.084.768l8.669 4.997a1.402 1.402 0 0 0 1.327-.013Zm-26.524 15.356 9.06-5.235c.391-.224.418-.559.083-.768l-8.585-5.054a1.478 1.478 0 0 0-1.396 0l-9.046 5.305c-.377.223-.419.558-.07.754l8.669 5.012c.208.096.436.141.665.129.229-.013.451-.081.648-.199l-.028.056Zm52.978-30.587 9.06-5.235c.391-.223.419-.572.084-.768l-8.67-4.997a1.47 1.47 0 0 0-1.326 0l-9.06 5.235c-.377.223-.419.558-.07.754l8.67 5.011a1.485 1.485 0 0 0 1.34-.056l-.028.056Zm-13.248 7.636 9.06-5.221c.391-.223.433-.572.084-.768l-8.67-4.997a1.39 1.39 0 0 0-1.312 0l-9.018 5.221c-.391.223-.433.558-.084.754l8.669 5.011a1.402 1.402 0 0 0 1.299-.056l-.028.056Zm26.524-15.286 9.06-5.235c.391-.223.419-.558.084-.754l-8.67-5.011a1.475 1.475 0 0 0-1.396 0l-8.934 5.221c-.377.223-.419.558-.07.753l8.669 5.012a1.398 1.398 0 0 0 1.257-.042v.056Zm72.271-106.389a1.483 1.483 0 0 0 1.326 0l9.06-5.235c.391-.223.419-.558.084-.754l-2.318-1.396a1.402 1.402 0 0 0-1.312 0l-9.06 5.263c-.391.223-.419.572-.084.768l2.304 1.354Zm-65.822 41.684a1.393 1.393 0 0 0 1.313 0l9.06-5.235c.39-.223.418-.558.083-.753l-8.613-5.11a1.478 1.478 0 0 0-1.396 0l-9.06 5.235c-.377.224-.419.559-.07.768l8.683 5.095Zm26.524-15.286a1.48 1.48 0 0 0 1.396 0l9.06-5.221c.377-.223.419-.572.07-.768l-8.669-5.011a1.39 1.39 0 0 0-1.312 0l-9.06 5.235c-.391.209-.419.558-.084.754l8.599 5.011Zm-42.703 24.528a1.39 1.39 0 0 0 1.312 0l9.074-5.235c.377-.223.419-.558.07-.754l-8.669-5.011a1.394 1.394 0 0 0-1.313 0l-9.06 5.235c-.391.223-.419.558-.083.753l8.669 5.012Zm29.413-16.989a1.397 1.397 0 0 0 1.327 0l9.06-5.235c.377-.224.418-.559 0-.754l-8.6-4.942a1.39 1.39 0 0 0-1.312 0l-9.074 5.207c-.391.223-.419.572-.084.768l8.683 4.956ZM307.274 418.8a1.477 1.477 0 0 0 1.326 0l9.06-5.221c.391-.223.419-.572.084-.768l-8.67-4.998a1.4 1.4 0 0 0-1.396 0l-8.934 5.208c-.391.223-.419.558-.084.753l8.614 5.026Zm13.248-7.65a1.538 1.538 0 0 0 1.396 0l9.06-5.235c.377-.223.418-.558.069-.768l-8.669-4.998a1.4 1.4 0 0 0-1.312 0l-9.06 5.235c-.391.224-.419.559-.084.754l8.6 5.012Zm68.767-43.374a1.39 1.39 0 0 0 1.312 0l9.06-5.235c.391-.223.419-.558.084-.768l-2.304-1.326a1.483 1.483 0 0 0-1.326 0l-9.06 5.235c-.377.224-.419.559-.07.754l2.304 1.34Zm39.73-22.964a1.483 1.483 0 0 0 1.326 0l9.06-5.221c.377-.223.419-.572.07-.768l-2.304-1.396a1.402 1.402 0 0 0-1.312 0l-9.06 5.235c-.391.224-.433.559-.084.754l2.304 1.396Zm18.218 10.512a1.49 1.49 0 0 0 1.312 0l9.06-5.235c.391-.223.433-.572.084-.768l-8.67-4.998a1.4 1.4 0 0 0-1.312 0l-9.074 5.235c-.377.224-.419.559 0 .754l8.6 5.012Zm25.225 29.051 9.06-5.235c.391-.224.433-.559.084-.754l-8.669-5.012a1.492 1.492 0 0 0-1.312 0l-9.074 5.235c-.377.224-.419.573 0 .768l8.669 4.998a1.397 1.397 0 0 0 1.242.014v-.014Zm-69.925-24.207a1.39 1.39 0 0 0 1.312 0l9.06-5.235c.391-.223.419-.558.084-.754l-2.318-1.396a1.402 1.402 0 0 0-1.312 0l-9.06 5.235c-.391.224-.419.573-.084.768l2.318 1.382Zm-108.497 66.31a1.387 1.387 0 0 0 1.312 0l9.06-5.235c.391-.223.419-.558.084-.754l-8.67-5.011a1.47 1.47 0 0 0-1.326 0l-9.06 5.221c-.377.223-.419.572-.07.767l8.67 5.012Z"/><path fill="#37474F" d="m333.239 494.742 1.857 1.075 49.348 28.479 87.767-50.675 1.829-1.033-51.206-29.567-89.595 51.721Z"/><path fill="#263238" d="m335.096 495.817 49.348 28.479 87.767-50.675-49.377-28.492-87.738 50.688Z"/><path fill="#F0F0F0" d="M126.408 475.52a5.755 5.755 0 0 1-2.555.781 6.457 6.457 0 0 1-3.741-.656 6.974 6.974 0 0 1-3.057-5.584V289.489l6.114 3.531v180.615c0 1.48.74 2.331 1.801 2.331a3.144 3.144 0 0 0 1.438-.446Z"/><path fill="#FAFAFA" d="M431.364 295.505a7.2 7.2 0 0 1-3.239 5.584L126.408 475.52c-1.787 1.033-3.253.195-3.253-1.885V271.857l8.962-5.165c1.787-1.033 4.705-16.752 6.506-17.855l77.603-44.812c1.815-1.033 6.045 10.61 7.832 9.577L431.364 93.713v201.792Z"/><path fill="#E0E0E0" d="M429.828 96.324v199.181a5.714 5.714 0 0 1-2.498 4.328L125.64 474.221c-.207.14-.448.222-.698.238-.293 0-.293-.782-.293-.824V272.723l8.222-4.691c1.299-.754 2.108-3.281 3.923-9.772a48.368 48.368 0 0 1 2.694-8.125l76.892-44.476a35.059 35.059 0 0 1 2.443 3.909c2.094 3.685 3.267 5.584 4.97 5.584.348.002.691-.089.991-.266L429.828 96.324Zm1.536-2.652L224.058 213.588a.474.474 0 0 1-.237.07c-1.829 0-5.584-9.772-7.343-9.772a.56.56 0 0 0-.252.07l-77.603 44.881c-1.815 1.047-4.719 16.822-6.506 17.799l-8.962 5.165v201.834c0 1.48.74 2.331 1.801 2.331a2.934 2.934 0 0 0 1.396-.446l301.676-174.375a7.196 7.196 0 0 0 3.238-5.584V93.714l.098-.042Z"/><path fill="#BAE8E8" d="M120.056 281.866a6.975 6.975 0 0 1-3.001-5.458v-25.449a7.185 7.185 0 0 1 3.266-5.584L421.969 70.931a6.113 6.113 0 0 1 9.353 5.402v25.407a7.167 7.167 0 0 1-3.239 5.584L126.408 281.755a6.986 6.986 0 0 1-6.352.111Z"/><path fill="#fff" d="M431.364 75.803c-.223-1.675-1.591-2.29-3.211-1.396l-301.745 174.43a6.84 6.84 0 0 0-2.304 2.443l-6.1-3.532a6.682 6.682 0 0 1 2.303-2.429L421.983 70.945a6.058 6.058 0 0 1 9.381 4.858Z" opacity=".4"/><path fill="#000" d="M124.104 251.28a6.616 6.616 0 0 0-.949 3.197v38.543l-6.114-3.531v-38.921c.025-.272.067-.543.125-.81a7.184 7.184 0 0 1 .824-2.01l6.114 3.532Z" opacity=".1"/><path fill="#BAE8E8" d="M431.364 76.333v17.38L224.058 213.589c-1.787 1.033-3.239.195-3.239-1.885v-6.491c0-2.08-1.465-2.918-3.266-1.885l-78.93 45.51a7.186 7.186 0 0 0-3.267 5.584v6.631a7.192 7.192 0 0 1-3.239 5.584l-8.962 5.165v-17.324a7.217 7.217 0 0 1 3.253-5.584L428.083 74.449c1.787-1.033 3.281-.196 3.281 1.884Z"/><path fill="#fff" d="M416.078 87.236c2.261-1.312 4.09-.251 4.09 2.36a9.04 9.04 0 0 1-4.09 7.091c-2.262 1.312-4.104.251-4.104-2.36a9.038 9.038 0 0 1 4.104-7.09ZM401.336 95.738c2.262-1.313 4.09-.252 4.09 2.359a9.063 9.063 0 0 1-4.09 7.092c-2.261 1.298-4.09.251-4.09-2.36a9.03 9.03 0 0 1 4.09-7.091ZM386.594 104.225c2.262-1.298 4.091-.237 4.091 2.374a9.064 9.064 0 0 1-4.091 7.091c-2.261 1.299-4.09.238-4.09-2.373a9.063 9.063 0 0 1 4.09-7.092Z"/><path fill="#E6E6E6" d="M431.364 93.713v21.164L123.155 293.02v-21.163l6.673-3.825c1.787-1.047 2.387-2.624 3.253-5.584l2.331-7.971c.712-2.792 1.466-4.607 3.267-5.584l77.603-44.812c1.815-1.033 3.211-1.144 4.593 1.117l2.792 5.054c1.019 1.759 1.536 2.792 3.323 1.759L431.364 93.714Z"/><path fill="#E0E0E0" d="M123.155 271.857v21.163l-6.114-3.531v-21.15l6.114 3.518Z"/><path fill="#000" d="m138.078 273.379-5.109 3.029 1.954-3.755a.906.906 0 0 0 0-.908c-.139-.181-.404 0-.572.28l-2.792 5.318a.803.803 0 0 0 0 .196 1.086 1.086 0 0 0 0 .279.591.591 0 0 0 0 .237.301.301 0 0 0 0 .112l2.792 2.122a.239.239 0 0 0 .265 0 .735.735 0 0 0 .307-.391c.154-.349.14-.74 0-.865l-1.954-1.508 5.109-2.946a1.085 1.085 0 0 0 .419-.865c0-.279-.195-.461-.419-.335ZM142.392 270.922l5.109-2.946-1.954-1.494a.847.847 0 0 1 0-.879c.154-.349.419-.517.586-.391l2.792 2.136a.301.301 0 0 1 0 .112c.009.079.009.158 0 .237.007.093.007.186 0 .279a.803.803 0 0 1 0 .196l-2.792 5.332a.848.848 0 0 1-.279.307.22.22 0 0 1-.307 0 .955.955 0 0 1 0-.907l1.954-3.755-5.109 3.071c-.237.126-.419 0-.419-.405a1.047 1.047 0 0 1 .419-.893ZM159.144 256.208c0-.307-.307-.265-.433.07l-.712 1.717c-1.186-.14-2.638 1.033-3.601 3.099-1.271 2.68-1.271 5.849 0 7.064a1.811 1.811 0 0 0 2.289.139 6.333 6.333 0 0 0 2.289-2.792.829.829 0 0 0 0-.893c-.153-.154-.418 0-.572.335-.949 1.996-2.485 2.89-3.434 1.982-.949-.907-.935-3.28 0-5.277.67-1.396 1.647-2.261 2.485-2.317l-.531 1.284c-.139.335 0 .656.21.517l2.08-1.396a.732.732 0 0 0 .237-.573l-.307-2.959ZM213.993 213.686l1.857-3.937a1.187 1.187 0 0 0 0-1.228c-.21-.224-.573 0-.796.46l-1.857 3.937-1.857-1.787c-.223-.223-.586 0-.809.461a1.23 1.23 0 0 0 0 1.214l1.87 1.801-1.87 3.937a1.256 1.256 0 0 0 0 1.228.32.32 0 0 0 .405 0 1.13 1.13 0 0 0 .404-.488l1.857-3.937 1.857 1.787a.307.307 0 0 0 .405 0c.174-.122.309-.292.391-.489a1.184 1.184 0 0 0 0-1.228l-1.857-1.731Z" opacity=".2"/><path fill="#FAFAFA" d="M165.873 261.052v-6.589a7.232 7.232 0 0 1 3.252-5.584l240.643-139.111c1.801-1.033 3.253-.196 3.253 1.884v6.575a7.178 7.178 0 0 1-3.253 5.584L169.125 262.937c-1.786 1.033-3.252.195-3.252-1.885Z"/><path fill="#E0E0E0" d="M405.343 124.37a.663.663 0 0 1-.294 0 .868.868 0 0 1-.488-.978l.321-2.68-1.257-.893a.976.976 0 0 1-.349-.726 1.48 1.48 0 0 1 .545-1.145l1.912-1.396a.429.429 0 0 0 .084-.154l.852-2.792a1.2 1.2 0 0 1 .963-.907.78.78 0 0 1 .754.447l.712 1.535 1.619-.628a.754.754 0 0 1 .852.196 1.175 1.175 0 0 1 0 1.396l-1.396 2.596a.497.497 0 0 0 0 .154l.321 2.345a1.4 1.4 0 0 1-.405 1.173.891.891 0 0 1-.754.293l-1.563-.196-1.69 2.15a.952.952 0 0 1-.739.21Zm-.922-5.431 1.243.908a.88.88 0 0 1 .335.893l-.21 1.773 1.131-1.396a.981.981 0 0 1 .866-.405l1.549.196a.374.374 0 0 0 0-.182l-.307-2.387c-.033-.29.026-.583.168-.838l1.214-2.275-1.242.474a.768.768 0 0 1-.992-.39l-.572-1.201-.754 2.485c-.08.281-.246.53-.474.712l-1.913 1.48a.411.411 0 0 0-.042.153Z"/><g fill="#000" opacity=".5"><path d="M416.86 108.972a1.138 1.138 0 0 1-.903-1.819c.09-.117.202-.216.33-.289l9.158-5.277a1.123 1.123 0 1 1 1.131 1.94l-9.172 5.361c-.173.07-.359.098-.544.084ZM416.86 114.263a1.138 1.138 0 0 1-.903-1.819c.09-.117.202-.216.33-.289l9.158-5.291a1.13 1.13 0 0 1 1.131 1.954l-9.172 5.291a1.198 1.198 0 0 1-.544.154ZM416.86 119.539a1.115 1.115 0 0 1-1.062-1.551c.098-.23.27-.421.489-.543l9.158-5.29a1.128 1.128 0 0 1 1.611 1.269 1.132 1.132 0 0 1-.48.685l-9.172 5.291a1.188 1.188 0 0 1-.544.139Z" opacity=".2"/></g><path fill="#BAE8E8" d="M290.898 218.111c-6.407 5.752-11.935 5.444-15.356 2.792-3.462 6.645-8.99 13.332-15.356 14.979l-3.713 9.814s1.955 2.262 1.955 7.65a26.882 26.882 0 0 1-.894 6.701 35.508 35.508 0 0 0-1.536 10.023 17.51 17.51 0 0 0 1.997 8.921 10.8 10.8 0 0 0 4.006 4.006l-5.584-3.197a11.166 11.166 0 0 1-4.188-4.188 17.514 17.514 0 0 1-1.996-8.92 35.36 35.36 0 0 1 1.536-10.023c.582-2.187.887-4.438.907-6.701 0-5.403-1.968-7.664-1.968-7.664l3.657-9.87c6.394-1.633 11.922-8.376 15.356-14.979 3.448 2.666 8.976 2.973 15.356-2.792l5.821 3.448Z"/><path fill="#fff" d="m271.773 218.739-2.024-1.172c.62.479 1.3.873 2.024 1.172Z" opacity=".8"/><path fill="#fff" d="M285.133 214.789c-5.263 4.732-9.94 5.36-13.36 3.95l3.742 2.164c3.448 2.652 8.976 2.96 15.356-2.792l-5.738-3.322Z" opacity=".85"/><path fill="#fff" d="M269.749 217.567c-3.462 6.659-8.99 13.345-15.356 14.979l5.766 3.336c6.393-1.647 11.921-8.376 15.356-14.979l-5.766-3.336Z" opacity=".65"/><path fill="#fff" d="m254.365 232.546-3.657 9.869 5.765 3.337 3.658-9.87-5.766-3.336Z" opacity=".55"/><path fill="#fff" d="M257.995 279.046a17.505 17.505 0 0 1-1.997-8.92c.03-3.397.547-6.773 1.536-10.023.579-2.187.879-4.439.894-6.701 0-5.389-1.955-7.65-1.955-7.65l-5.765-3.337s1.968 2.262 1.968 7.664a26.976 26.976 0 0 1-.907 6.701 35.367 35.367 0 0 0-1.536 10.024 17.516 17.516 0 0 0 1.996 8.92 11.18 11.18 0 0 0 4.188 4.188l5.584 3.197a10.805 10.805 0 0 1-4.006-4.063Z" opacity=".4"/><path fill="#000" d="M257.995 279.046a17.505 17.505 0 0 1-1.997-8.92c.03-3.397.547-6.773 1.536-10.023.579-2.187.879-4.439.894-6.701 0-5.389-1.955-7.65-1.955-7.65l-5.765-3.337s1.968 2.262 1.968 7.664a26.976 26.976 0 0 1-.907 6.701 35.367 35.367 0 0 0-1.536 10.024 17.516 17.516 0 0 0 1.996 8.92 11.18 11.18 0 0 0 4.188 4.188l5.584 3.197a10.805 10.805 0 0 1-4.006-4.063Z" opacity=".05"/><path fill="#BAE8E8" d="M275.515 285.817c-9.563.098-15.035-2.429-17.52-6.771a17.494 17.494 0 0 1-1.996-8.92 35.471 35.471 0 0 1 1.535-10.023 26.92 26.92 0 0 0 .908-6.687c0-5.403-1.969-7.664-1.969-7.664l3.658-9.87c6.393-1.647 11.921-8.376 15.356-14.979 3.448 2.666 8.976 2.96 15.356-2.792l3.657 5.584a27.74 27.74 0 0 0-1.968 9.926c-.025 1.9.282 3.789.907 5.584a19.53 19.53 0 0 1 1.522 8.264 33.104 33.104 0 0 1-1.982 11.168c-2.43 7.399-7.902 16.235-17.464 27.18Z"/><path fill="#fff" d="M275.515 285.817c-9.563.098-15.035-2.429-17.52-6.771a17.494 17.494 0 0 1-1.996-8.92 35.471 35.471 0 0 1 1.535-10.023 26.92 26.92 0 0 0 .908-6.687c0-5.403-1.969-7.664-1.969-7.664l3.658-9.87c6.393-1.647 11.921-8.376 15.356-14.979 3.448 2.666 8.976 2.96 15.356-2.792l3.657 5.584a27.74 27.74 0 0 0-1.968 9.926c-.025 1.9.282 3.789.907 5.584a19.53 19.53 0 0 1 1.522 8.264 33.104 33.104 0 0 1-1.982 11.168c-2.43 7.399-7.902 16.235-17.464 27.18Z" opacity=".75"/><path fill="#BAE8E8" d="M274.384 283.388c-7.413-.098-12.201-1.94-14.239-5.584a14.938 14.938 0 0 1-1.662-7.692 30.61 30.61 0 0 1 1.229-8.516c.07-.307.153-.6.223-.907.636-2.377.965-4.826.977-7.287a16.9 16.9 0 0 0-1.689-7.943l2.792-7.581c6.855-2.373 11.81-9.143 14.435-13.583 1.411.607 2.931.916 4.467.908a16.019 16.019 0 0 0 9.381-3.434l1.396 2.289a30.705 30.705 0 0 0-1.675 9.618 18.717 18.717 0 0 0 1.047 6.478 8.6 8.6 0 0 1 .237.656 16.361 16.361 0 0 1 1.145 6.785 30.69 30.69 0 0 1-1.843 10.4c-2.359 7.119-7.845 15.621-16.221 25.393Z"/><path fill="#fff" d="M274.384 283.388c-7.413-.098-12.201-1.94-14.239-5.584a14.938 14.938 0 0 1-1.662-7.692 30.61 30.61 0 0 1 1.229-8.516c.07-.307.153-.6.223-.907.636-2.377.965-4.826.977-7.287a16.9 16.9 0 0 0-1.689-7.943l2.792-7.581c6.855-2.373 11.81-9.143 14.435-13.583 1.411.607 2.931.916 4.467.908a16.019 16.019 0 0 0 9.381-3.434l1.396 2.289a30.705 30.705 0 0 0-1.675 9.618 18.717 18.717 0 0 0 1.047 6.478 8.6 8.6 0 0 1 .237.656 16.361 16.361 0 0 1 1.145 6.785 30.69 30.69 0 0 1-1.843 10.4c-2.359 7.119-7.845 15.621-16.221 25.393Z" opacity=".4"/><path fill="#000" d="M274.384 283.388c-7.413-.098-12.201-1.94-14.239-5.584a14.938 14.938 0 0 1-1.662-7.692 30.61 30.61 0 0 1 1.229-8.516c.07-.307.153-.6.223-.907.636-2.377.965-4.826.977-7.287a16.9 16.9 0 0 0-1.689-7.943l2.792-7.581c6.855-2.373 11.81-9.143 14.435-13.583 1.411.607 2.931.916 4.467.908a16.019 16.019 0 0 0 9.381-3.434l1.396 2.289a30.705 30.705 0 0 0-1.675 9.618 18.717 18.717 0 0 0 1.047 6.478 8.6 8.6 0 0 1 .237.656 16.361 16.361 0 0 1 1.145 6.785 30.69 30.69 0 0 1-1.843 10.4c-2.359 7.119-7.845 15.621-16.221 25.393Z" opacity=".15"/><path fill="#fff" d="M261.848 279.87c2.526 2.22 6.714 3.392 12.564 3.462l-3.714-2.122a26.995 26.995 0 0 1-8.85-1.34Z" opacity=".8"/><path fill="#000" d="m289.851 222.955 1.927 1.103-1.466-2.275-.837.586.376.586Z" opacity=".15"/><path fill="#455A64" d="M289.223 239.051a18.735 18.735 0 0 1-1.047-6.477 30.384 30.384 0 0 1 1.675-9.619l-.376-.586a15.527 15.527 0 0 1-8.544 2.792 11.154 11.154 0 0 1-4.467-.908c-2.625 4.44-7.58 11.168-14.435 13.584l-2.792 7.58a16.913 16.913 0 0 1 1.689 7.943 28.735 28.735 0 0 1-.977 7.287c0 .307-.153.6-.223.908a30.598 30.598 0 0 0-1.229 8.515 14.936 14.936 0 0 0 1.662 7.692 8.441 8.441 0 0 0 2.415 2.625 24.959 24.959 0 0 0 9.883 1.773c8.376-9.703 13.863-18.148 16.306-25.324a30.695 30.695 0 0 0 1.856-10.4 16.595 16.595 0 0 0-1.144-6.785 3.36 3.36 0 0 1-.252-.6Z"/><path fill="#37474F" d="m262.029 237.892-2.792 7.581a16.913 16.913 0 0 1 1.689 7.943 28.735 28.735 0 0 1-.977 7.287c0 .307-.153.6-.223.907a30.61 30.61 0 0 0-1.229 8.516 14.938 14.938 0 0 0 1.662 7.692 8.427 8.427 0 0 0 2.415 2.624 24.941 24.941 0 0 0 9.883 1.773v-27.92l4.021-1.214v-28.772a44.756 44.756 0 0 1-4.021 5.738 24.565 24.565 0 0 1-10.428 7.845Z"/><path fill="#263238" d="M282.132 243.979a1.229 1.229 0 0 0-.154-.223 1.662 1.662 0 0 0-.405-.322l-1.396-.781c-.242-.131-.5-.23-.768-.293l-.488-.07v-3.979a4.747 4.747 0 0 0-2.066-4.327 4.187 4.187 0 0 0-4.37.279 11.478 11.478 0 0 0-5.109 9.199v4.691l-2.68 1.536-.224.153h-.07a.997.997 0 0 0-.377.74v16.082c-.006.07-.006.14 0 .209.092.272.274.504.517.656l.14.098.656.377.698.391c.262.154.551.258.851.307.825.187 1.69.078 2.443-.307l12.187-6.98a1.176 1.176 0 0 0 .684-.949V244.3a.956.956 0 0 0-.069-.321Zm-12.118-.545a8.898 8.898 0 0 1 3.797-6.98 1.86 1.86 0 0 1 1.731-.279 2.328 2.328 0 0 1 .754 2.052v4.691l-3.462 1.996-2.792 1.634-.028-3.114Z"/><path fill="#BAE8E8" d="M283.639 245.068a1.148 1.148 0 0 0-.684-.949l-1.396-.782a3.691 3.691 0 0 0-3.294 0l-12.187 6.98a1.155 1.155 0 0 0-.684.949v16.096a1.148 1.148 0 0 0 .684.949l1.396.782a3.642 3.642 0 0 0 3.308 0l12.173-6.98a1.15 1.15 0 0 0 .684-.949v-16.096Z"/><path fill="#fff" d="m267.474 253.053-1.396-.768a1.016 1.016 0 0 1-.484-1.539c.119-.171.288-.301.484-.373l12.187-6.98a3.691 3.691 0 0 1 3.294 0l1.396.781a.995.995 0 0 1 .706.95.99.99 0 0 1-.706.949l-12.173 6.98a3.642 3.642 0 0 1-3.308 0Z" opacity=".4"/><path fill="#000" d="M269.135 253.444v16.096a3.392 3.392 0 0 1-1.661-.391l-1.396-.782a1.134 1.134 0 0 1-.684-.949V251.28c.017.207.089.406.21.575.12.17.284.304.474.388l1.396.768a3.399 3.399 0 0 0 1.661.433Z" opacity=".1"/><path fill="#455A64" d="m277.999 261.415-2.917 1.675.447-5.263a1.393 1.393 0 0 1-.559-1.284 3.782 3.782 0 0 1 1.564-3.015c.879-.489 1.577 0 1.577 1.2a3.952 3.952 0 0 1-.572 1.941l.46 4.746Z"/><path fill="#37474F" d="m277.999 261.415-2.638-1.522-.279 3.197 2.917-1.675ZM276.534 253.528a3.512 3.512 0 0 0-1.396 1.787l2.345 1.396a3.952 3.952 0 0 0 .572-1.941c.056-1.2-.642-1.731-1.521-1.242Z"/><path fill="#E0E0E0" d="M280.345 245.431v-6.436a4.712 4.712 0 0 0-2.066-4.327 4.183 4.183 0 0 0-4.356.265 11.476 11.476 0 0 0-5.123 9.2v6.477a.647.647 0 0 0 .391.53 2.065 2.065 0 0 0 1.856 0 .628.628 0 0 0 .391-.53v-6.477a8.907 8.907 0 0 1 3.797-6.911 1.859 1.859 0 0 1 1.731-.279 2.32 2.32 0 0 1 .754 2.052v6.436a.628.628 0 0 0 .391.53 2.065 2.065 0 0 0 1.857 0 .624.624 0 0 0 .377-.53Z"/><path fill="#455A64" d="M180.559 353.188c.181-.098.321-.112.418 0 .089.101.156.22.196.349l2.959 11.489a.77.77 0 0 1 0 .279.924.924 0 0 1-.083.377.484.484 0 0 1-.21.251l-1.717.992c-.181.111-.307.125-.391 0a.443.443 0 0 1-.139-.252l-.377-1.521-3.56 1.996-.391 1.968c-.018.148-.066.29-.14.419a.834.834 0 0 1-.39.405l-1.704.991a.179.179 0 0 1-.223 0 .391.391 0 0 1-.084-.279 1.444 1.444 0 0 1 0-.335l2.96-14.909c.049-.198.12-.39.209-.573a.967.967 0 0 1 .405-.474l2.262-1.173Zm-2.206 10.428 2.206-1.27-1.103-4.398-1.103 5.668ZM185.668 354.584c.004-.16.042-.317.112-.461a.698.698 0 0 1 .265-.321l1.717-.991a.2.2 0 0 1 .126-.046c.046 0 .09.017.125.046a.467.467 0 0 1 .112.335v5.291a2.53 2.53 0 0 0 .251 1.298c.182.266.461.279.866 0 .399-.23.701-.597.851-1.033.176-.512.261-1.05.252-1.591v-5.319a1.094 1.094 0 0 1 .097-.461.805.805 0 0 1 .266-.321l1.717-.991a.196.196 0 0 1 .125-.046.2.2 0 0 1 .126.046.453.453 0 0 1 .112.335v9.772c-.004.16-.042.317-.112.461a.64.64 0 0 1-.251.307l-1.578.907a.191.191 0 0 1-.132.052.192.192 0 0 1-.133-.052.47.47 0 0 1-.112-.335v-.474a4.392 4.392 0 0 1-.265.6 3.174 3.174 0 0 1-.377.614 4.409 4.409 0 0 1-.544.614c-.22.206-.464.384-.726.531-.88.502-1.578.53-2.094 0a4.353 4.353 0 0 1-.796-3.169v-5.598ZM198.232 353.328c-.022.226.022.454.126.656.097.125.251.125.46 0l1.075-.628a.194.194 0 0 1 .265 0 .443.443 0 0 1 .112.335v2.108a1.117 1.117 0 0 1-.112.46.62.62 0 0 1-.265.321l-1.284.74a2.521 2.521 0 0 1-1.159.391 1.243 1.243 0 0 1-.893-.293 2.144 2.144 0 0 1-.573-.977 5.222 5.222 0 0 1-.209-1.606v-3.518l-1.005.587a.198.198 0 0 1-.251 0 .408.408 0 0 1-.112-.335v-2.108a.925.925 0 0 1 .112-.461.68.68 0 0 1 .251-.321l1.005-.572v-3.421c.004-.159.042-.317.112-.46a.625.625 0 0 1 .265-.321l1.703-.992a.211.211 0 0 1 .265 0 .467.467 0 0 1 .112.335v3.407l1.536-.88a.196.196 0 0 1 .251 0 .453.453 0 0 1 .112.335v2.108c-.001.16-.039.318-.112.461a.62.62 0 0 1-.251.321l-1.536.893v3.435ZM209.4 350.591c-.004.16-.042.317-.112.461a.65.65 0 0 1-.265.307l-1.703.991h-.265a.451.451 0 0 1-.112-.335v-5.304a2.219 2.219 0 0 0-.279-1.271c-.196-.251-.489-.265-.908 0a2.01 2.01 0 0 0-.879 1.061 4.194 4.194 0 0 0-.279 1.606v5.29c-.004.16-.042.317-.112.461a.694.694 0 0 1-.265.321l-1.703.991a.221.221 0 0 1-.265 0 .496.496 0 0 1-.112-.335v-13.792c.002-.16.04-.318.112-.461a.568.568 0 0 1 .265-.321l1.703-.991a.205.205 0 0 1 .132-.047c.049 0 .096.016.133.047a.458.458 0 0 1 .112.335v4.467a6.26 6.26 0 0 1 .712-1.27 3.842 3.842 0 0 1 1.131-1.061c.361-.23.773-.369 1.2-.405a1.208 1.208 0 0 1 .935.335c.3.315.507.706.601 1.131.161.657.236 1.333.223 2.01v5.779ZM213.686 344.407c-.013.253.029.506.125.74a.6.6 0 0 0 .294.321c.125.05.265.05.39 0 .145-.044.285-.1.419-.167.238-.136.454-.305.642-.503.16-.177.296-.374.405-.586.061-.129.136-.251.224-.363a.637.637 0 0 1 .223-.196l1.773-1.019c.195-.111.293-.014.293.293a3.197 3.197 0 0 1-.195.88 7.98 7.98 0 0 1-.643 1.396 9.526 9.526 0 0 1-1.102 1.577 6.26 6.26 0 0 1-1.62 1.396 3.153 3.153 0 0 1-1.563.517 1.522 1.522 0 0 1-1.159-.447 2.788 2.788 0 0 1-.712-1.396 9.27 9.27 0 0 1-.237-2.233c.001-.802.081-1.601.237-2.388a9.133 9.133 0 0 1 .712-2.191 7.87 7.87 0 0 1 1.159-1.857 5.936 5.936 0 0 1 1.563-1.396 2.793 2.793 0 0 1 1.689-.461 1.728 1.728 0 0 1 1.145.67c.323.434.543.935.642 1.466.131.625.196 1.261.196 1.899v.586a.939.939 0 0 1-.112.461.685.685 0 0 1-.251.321l-4.537 2.68Zm1.228-4.718c-.395.232-.7.591-.865 1.019a4.175 4.175 0 0 0-.363 1.396l2.457-1.396a1.672 1.672 0 0 0-.363-.977c-.196-.252-.489-.266-.796-.042h-.07ZM227.757 339.982a1.1 1.1 0 0 1-.111.461.59.59 0 0 1-.265.307l-1.704.991a.21.21 0 0 1-.265 0 .453.453 0 0 1-.112-.335v-5.305a2.098 2.098 0 0 0-.279-1.27c-.195-.252-.488-.266-.893 0a1.983 1.983 0 0 0-.894 1.061 4.189 4.189 0 0 0-.279 1.605v5.291c-.004.16-.042.317-.111.461a.687.687 0 0 1-.252.321l-1.717.991a.21.21 0 0 1-.265 0 .488.488 0 0 1-.112-.335v-9.772c.004-.16.042-.317.112-.461a.796.796 0 0 1 .265-.321l1.647-.949a.196.196 0 0 1 .252 0 .465.465 0 0 1 .111.335v.488c.07-.181.168-.391.266-.6.116-.225.252-.44.404-.642.165-.21.342-.411.531-.6.22-.199.458-.377.712-.531a2.795 2.795 0 0 1 1.2-.405 1.216 1.216 0 0 1 .936.335c.299.316.507.707.6 1.131.168.656.243 1.333.223 2.01v5.738ZM233.132 333.183a1.28 1.28 0 0 0 .126.67c.093.112.246.112.46 0l1.075-.628h.266a.47.47 0 0 1 .111.335v2.122c-.004.16-.042.317-.111.461a.593.593 0 0 1-.266.307l-1.284.754c-.351.217-.748.35-1.159.391a1.316 1.316 0 0 1-.893-.307 2.092 2.092 0 0 1-.573-.964 5.372 5.372 0 0 1-.209-1.619v-3.518l-1.005.586a.194.194 0 0 1-.251 0 .403.403 0 0 1-.112-.335v-2.122a.924.924 0 0 1 .112-.46.746.746 0 0 1 .251-.321l1.005-.573v-3.42c.004-.16.042-.317.112-.461a.59.59 0 0 1 .265-.307l1.703-.991a.21.21 0 0 1 .265 0 .467.467 0 0 1 .112.335v3.42l1.536-.893a.194.194 0 0 1 .251 0 .458.458 0 0 1 .112.335v2.122c-.004.16-.042.317-.112.461a.645.645 0 0 1-.251.307l-1.536.893v3.42ZM239.47 321.178a1.11 1.11 0 0 1-.112.46.696.696 0 0 1-.265.322l-1.703.991a.21.21 0 0 1-.265 0 .467.467 0 0 1-.112-.335v-2.108c.004-.16.042-.317.112-.461a.624.624 0 0 1 .265-.321l1.703-.991a.207.207 0 0 1 .265 0 .458.458 0 0 1 .112.335v2.108Zm0 12.033c-.004.16-.042.317-.112.461a.629.629 0 0 1-.265.321l-1.703.991h-.265a.478.478 0 0 1-.09-.156.472.472 0 0 1-.022-.179v-9.772a1.11 1.11 0 0 1 .112-.46.622.622 0 0 1 .265-.322l1.703-.991a.196.196 0 0 1 .265 0 .425.425 0 0 1 .112.335v9.772ZM243.881 325.059V326.524a1.323 1.323 0 0 0 .377.992c.21.181.503.167.866 0 .268-.143.502-.343.684-.587.166-.241.297-.504.391-.782.04-.129.091-.255.153-.376a.563.563 0 0 1 .237-.266l1.787-1.033a.216.216 0 0 1 .133-.047c.048 0 .095.017.133.047.04.045.07.099.086.157a.398.398 0 0 1 .011.178 7.173 7.173 0 0 1-.181 1.089 6.852 6.852 0 0 1-.573 1.62 8.146 8.146 0 0 1-1.088 1.745 6.44 6.44 0 0 1-1.773 1.493c-.423.266-.9.433-1.396.489a1.832 1.832 0 0 1-1.159-.293 2.397 2.397 0 0 1-.782-1.075 5.047 5.047 0 0 1-.279-1.815V326.385a8.768 8.768 0 0 1 .321-2.178 9.489 9.489 0 0 1 .782-1.968 8.345 8.345 0 0 1 1.159-1.634 6.091 6.091 0 0 1 1.396-1.158 3.001 3.001 0 0 1 1.772-.545c.41.018.798.187 1.089.475.276.257.474.586.573.949.092.286.152.581.181.88a.917.917 0 0 1-.098.46.781.781 0 0 1-.265.321l-1.787 1.033a.209.209 0 0 1-.237 0 .813.813 0 0 1-.154-.209.642.642 0 0 0-.39-.335.98.98 0 0 0-.684.209 2.062 2.062 0 0 0-.866.95 3.49 3.49 0 0 0-.419 1.424ZM250.121 324.528a5.586 5.586 0 0 1 .698-2.68 9.047 9.047 0 0 1 2.234-2.611l1.591-1.396a1.131 1.131 0 0 0-.181-.726c-.112-.139-.321-.139-.614 0a1.576 1.576 0 0 0-.475.419 2.919 2.919 0 0 0-.251.391 1.488 1.488 0 0 1-.238.335 1.195 1.195 0 0 1-.251.196l-1.731.991h-.223a.34.34 0 0 1 0-.293c.026-.403.116-.799.265-1.173.181-.485.405-.952.67-1.396a8.982 8.982 0 0 1 1.019-1.326 5.89 5.89 0 0 1 1.284-1.033 3.46 3.46 0 0 1 1.396-.517c.359-.04.719.06 1.006.279.296.256.505.598.6.978.133.515.194 1.045.181 1.577v6.338c.002.159-.032.316-.097.461a.805.805 0 0 1-.266.321l-1.717.991a.196.196 0 0 1-.125.046.2.2 0 0 1-.126-.046.4.4 0 0 1-.094-.155.394.394 0 0 1-.018-.18v-.447a6.334 6.334 0 0 1-.809 1.396 3.93 3.93 0 0 1-1.271 1.103 2.207 2.207 0 0 1-1.047.349 1.014 1.014 0 0 1-.754-.251 1.607 1.607 0 0 1-.474-.768 4.023 4.023 0 0 1-.182-1.173Zm3.113-1.312c.212-.125.401-.286.559-.475.173-.211.322-.441.447-.684a4.2 4.2 0 0 0 .293-.823c.071-.274.109-.555.111-.838l-1.256 1.005c-.226.205-.423.44-.586.698a1.523 1.523 0 0 0-.224.782c0 .26.056.414.168.461a.624.624 0 0 0 .488-.126ZM262.532 316.208c-.025.232.024.467.139.67.084.126.238.126.447 0l1.089-.628a.194.194 0 0 1 .251 0 .406.406 0 0 1 .112.335v2.108a.941.941 0 0 1-.112.461.685.685 0 0 1-.251.321l-1.298.74a2.486 2.486 0 0 1-1.159.39 1.25 1.25 0 0 1-.893-.293 2.26 2.26 0 0 1-.573-.977 5.274 5.274 0 0 1-.195-1.605v-3.49l-1.019.572a.194.194 0 0 1-.252 0 .455.455 0 0 1-.111-.335v-2.108c.004-.16.042-.317.111-.461a.62.62 0 0 1 .252-.321l1.019-.586v-3.406a1.08 1.08 0 0 1 .098-.461.781.781 0 0 1 .265-.321l1.717-.991a.193.193 0 0 1 .251 0 .486.486 0 0 1 .112.335v3.42l1.535-.893a.21.21 0 0 1 .133-.048.21.21 0 0 1 .133.048c.075.094.11.214.097.335v2.108a1.09 1.09 0 0 1-.097.46.791.791 0 0 1-.266.321l-1.535.894v3.406ZM268.535 312.704c-.017.252.021.504.111.74a.703.703 0 0 0 .293.335.609.609 0 0 0 .391 0c.146-.039.287-.095.419-.168.245-.13.466-.3.656-.502.156-.177.287-.375.391-.586.066-.126.141-.248.223-.363a.808.808 0 0 1 .224-.196l1.773-1.019c.209-.112.307 0 .307.293-.03.302-.1.597-.21.88a8.962 8.962 0 0 1-.628 1.396 9.654 9.654 0 0 1-1.117 1.577 6.25 6.25 0 0 1-1.619 1.326 3.108 3.108 0 0 1-1.563.517 1.522 1.522 0 0 1-1.159-.447 3.076 3.076 0 0 1-.712-1.396 9.27 9.27 0 0 1-.237-2.233c.001-.802.081-1.601.237-2.388.157-.754.396-1.489.712-2.191a7.87 7.87 0 0 1 1.159-1.857 6.178 6.178 0 0 1 1.563-1.396 2.794 2.794 0 0 1 1.703-.461 1.72 1.72 0 0 1 1.131.67c.318.41.538.888.642 1.396.137.624.203 1.261.196 1.899v.586c.001.159-.032.316-.098.461a.79.79 0 0 1-.265.321l-4.523 2.806Zm1.214-4.718c-.395.232-.7.591-.865 1.019a4.24 4.24 0 0 0-.349 1.396l2.443-1.396a1.781 1.781 0 0 0-.349-.978c-.21-.209-.489-.223-.88 0v-.041ZM282.243 312.564a3.546 3.546 0 0 1-.139.419.637.637 0 0 1-.266.307l-1.772 1.033a.18.18 0 0 1-.238 0 .453.453 0 0 1-.098-.307v-.153l1.034-4.342-2.792-8.236a.366.366 0 0 1 0-.14.83.83 0 0 1 .097-.405.59.59 0 0 1 .224-.279l1.786-1.033h.252a.69.69 0 0 1 .139.265l1.522 4.635 1.494-6.31c.029-.14.076-.276.139-.405a.756.756 0 0 1 .252-.321l1.8-1.033a.184.184 0 0 1 .238 0c.07.081.105.186.097.293a.497.497 0 0 1 0 .154l-3.769 15.858ZM294.556 295.757v1.605a8.901 8.901 0 0 1-.293 2.066 9.895 9.895 0 0 1-.754 1.968 7.923 7.923 0 0 1-1.145 1.704 6.086 6.086 0 0 1-1.507 1.242c-.447.291-.962.46-1.494.489a1.623 1.623 0 0 1-1.145-.377 2.438 2.438 0 0 1-.754-1.103 5.125 5.125 0 0 1-.293-1.717v-1.606a8.178 8.178 0 0 1 .279-2.052 9.554 9.554 0 0 1 .754-1.968 8.598 8.598 0 0 1 1.159-1.717 6.008 6.008 0 0 1 1.494-1.257 3.255 3.255 0 0 1 1.507-.488c.42-.006.829.132 1.159.391.35.287.607.67.74 1.103.193.552.292 1.132.293 1.717Zm-4.984 4.383a1.318 1.318 0 0 0 .377 1.019c.21.182.503.154.866 0 .42-.226.754-.584.949-1.019.229-.456.358-.956.377-1.466v-1.424a1.402 1.402 0 0 0-.377-1.033.767.767 0 0 0-.879 0 2.25 2.25 0 0 0-.866.964 3.555 3.555 0 0 0-.377 1.465v.726c0 .265-.084.545-.07.768ZM296.413 290.577a.934.934 0 0 1 .111-.46.644.644 0 0 1 .252-.307l1.717-.991a.194.194 0 0 1 .251 0 .389.389 0 0 1 .094.154c.02.058.026.12.018.181v5.304c-.037.445.055.891.265 1.285.167.265.461.279.851 0 .4-.23.703-.597.852-1.033a4.635 4.635 0 0 0 .251-1.592v-5.305c.004-.159.042-.316.112-.46a.636.636 0 0 1 .251-.307l1.717-.992a.216.216 0 0 1 .133-.047c.048 0 .095.017.133.047a.46.46 0 0 1 .097.335v9.772a1.09 1.09 0 0 1-.097.461.791.791 0 0 1-.266.321l-1.577.908a.198.198 0 0 1-.251 0 .408.408 0 0 1-.112-.335v-.489a5.069 5.069 0 0 1-.656 1.228 5.32 5.32 0 0 1-.531.601c-.224.21-.472.392-.74.544-.879.503-1.577.517-2.094 0a4.366 4.366 0 0 1-.781-3.169v-5.654ZM310.722 281.755a.194.194 0 0 1 .251 0 .389.389 0 0 1 .094.154c.02.058.026.12.018.181v2.122a.935.935 0 0 1-.112.46.756.756 0 0 1-.251.321l-1.243.712a2.794 2.794 0 0 0-1.242 2.639v5.151c-.004.16-.042.317-.112.461a.704.704 0 0 1-.265.321l-1.717.991a.194.194 0 0 1-.251 0 .46.46 0 0 1-.112-.335v-9.772c.004-.16.042-.317.112-.461a.68.68 0 0 1 .251-.321l1.591-.907a.194.194 0 0 1 .252 0 .453.453 0 0 1 .111.335v.488c.208-.425.461-.828.754-1.2a3.807 3.807 0 0 1 1.047-.894l.824-.446ZM315.496 286.766c0-.936.235-1.858.684-2.68a9.267 9.267 0 0 1 2.234-2.611l1.591-1.396a1.127 1.127 0 0 0-.181-.725c-.112-.14-.321-.14-.601 0a1.62 1.62 0 0 0-.488.418 3.098 3.098 0 0 0-.252.391 1.127 1.127 0 0 1-.237.335 1.221 1.221 0 0 1-.251.196l-1.731.991a.195.195 0 0 1-.224 0 .354.354 0 0 1 0-.293c.034-.402.123-.796.266-1.173.176-.489.406-.957.684-1.396a7.422 7.422 0 0 1 1.019-1.396 5.292 5.292 0 0 1 1.284-1.033 3.404 3.404 0 0 1 1.396-.516c.359-.041.719.059 1.005.279.301.251.512.594.601.977a5.71 5.71 0 0 1 .195 1.577v6.338c-.004.16-.042.317-.112.461a.796.796 0 0 1-.265.321l-1.717.991a.194.194 0 0 1-.251 0 .478.478 0 0 1-.09-.156.472.472 0 0 1-.022-.179v-.307c-.204.501-.476.97-.81 1.396a4.101 4.101 0 0 1-1.27 1.103c-.31.201-.665.321-1.033.349a1.051 1.051 0 0 1-.768-.251 1.607 1.607 0 0 1-.474-.768 4.547 4.547 0 0 1-.182-1.243Zm3.099-1.312c.212-.125.401-.286.559-.475.172-.211.322-.44.446-.684.126-.263.225-.539.293-.823.079-.272.116-.555.112-.838l-1.256 1.005c-.226.206-.423.44-.587.698a1.522 1.522 0 0 0-.223.782c0 .261.056.414.168.461a.611.611 0 0 0 .53-.126h-.042ZM326.846 277.148v1.466a1.401 1.401 0 0 0 .376 1.005c.21.181.503.167.866 0 .269-.143.502-.343.684-.586.166-.242.297-.505.391-.782a3.37 3.37 0 0 1 .153-.391.583.583 0 0 1 .238-.251l1.787-1.033a.206.206 0 0 1 .265 0 .408.408 0 0 1 .098.335 8.453 8.453 0 0 1-.74 2.708 9.322 9.322 0 0 1-1.103 1.745 6.688 6.688 0 0 1-1.801 1.466 3.465 3.465 0 0 1-1.396.488c-.41.037-.82-.072-1.159-.307a2.277 2.277 0 0 1-.781-1.061 5.062 5.062 0 0 1-.321-1.815V278.46a8.586 8.586 0 0 1 .321-2.178c.188-.686.45-1.351.781-1.982a8.686 8.686 0 0 1 1.159-1.619 6.024 6.024 0 0 1 1.396-1.159 3.123 3.123 0 0 1 1.773-.558c.41.032.797.199 1.103.474.267.267.459.599.558.964.093.285.154.58.182.879a.923.923 0 0 1-.098.461.802.802 0 0 1-.265.321l-1.787 1.019h-.237a.555.555 0 0 1-.154-.196.646.646 0 0 0-.391-.335 1.021 1.021 0 0 0-.684.196c-.38.225-.682.561-.865.963a3.452 3.452 0 0 0-.349 1.438ZM335.696 272.039V273.504a1.404 1.404 0 0 0 .377 1.006c.209.167.503.153.866 0 .271-.139.506-.34.684-.587a2.81 2.81 0 0 0 .391-.782c.04-.129.091-.256.153-.376a.655.655 0 0 1 .237-.266l1.787-1.033a.216.216 0 0 1 .133-.047c.048 0 .095.017.133.047a.41.41 0 0 1 .097.335 6.79 6.79 0 0 1-.167 1.089 8.388 8.388 0 0 1-.573 1.62 8.883 8.883 0 0 1-1.102 1.745 6.238 6.238 0 0 1-1.773 1.493 3.29 3.29 0 0 1-1.396.489 1.83 1.83 0 0 1-1.159-.293 2.434 2.434 0 0 1-.782-1.061 5.19 5.19 0 0 1-.321-1.829V273.379a8.762 8.762 0 0 1 .321-2.178 9.489 9.489 0 0 1 .782-1.968 8.315 8.315 0 0 1 1.159-1.634c.408-.45.878-.84 1.396-1.158a3.011 3.011 0 0 1 1.773-.545c.413.019.805.188 1.102.475.266.265.463.591.573.949.088.286.144.581.167.88a.927.927 0 0 1-.097.46.791.791 0 0 1-.266.321l-1.787 1.033a.209.209 0 0 1-.237 0 .787.787 0 0 1-.153-.209.622.622 0 0 0-.391-.335 1.044 1.044 0 0 0-.684.195 2.33 2.33 0 0 0-.866.964 3.482 3.482 0 0 0-.377 1.41ZM349.503 263.998v1.619a8.785 8.785 0 0 1-.294 2.052 9.233 9.233 0 0 1-.753 1.968 7.618 7.618 0 0 1-1.145 1.704 5.802 5.802 0 0 1-1.508 1.242c-.446.291-.961.46-1.494.489a1.717 1.717 0 0 1-1.158-.363 2.658 2.658 0 0 1-.74-1.117 5.465 5.465 0 0 1-.307-1.703v-1.62a8.837 8.837 0 0 1 .293-2.052c.18-.681.433-1.341.754-1.968.31-.62.7-1.197 1.158-1.717a6.026 6.026 0 0 1 1.494-1.257c.453-.287.972-.45 1.508-.474.418-.011.827.122 1.159.377.346.289.603.672.739 1.103.193.552.292 1.132.294 1.717Zm-4.942 4.369a1.378 1.378 0 0 0 .377 1.033c.209.168.502.154.865 0 .381-.228.687-.563.88-.963.221-.434.35-.91.377-1.396v-1.438a1.403 1.403 0 0 0-.377-1.019c-.224-.182-.517-.154-.88 0a2.205 2.205 0 0 0-.865.949c-.23.456-.358.956-.377 1.466a5.862 5.862 0 0 0 0 .726 5.289 5.289 0 0 0 0 .642ZM351.401 258.832a.935.935 0 0 1 .112-.46.685.685 0 0 1 .251-.321l1.717-.992a.198.198 0 0 1 .251 0 .456.456 0 0 1 .112.336v5.304c-.037.449.055.9.265 1.299.168.265.447.279.852 0 .402-.227.706-.595.851-1.033a4.66 4.66 0 0 0 .252-1.592v-5.291a.934.934 0 0 1 .111-.46.687.687 0 0 1 .252-.321l1.717-.992a.198.198 0 0 1 .251 0 .4.4 0 0 1 .094.155c.02.058.026.12.018.18v9.772a.936.936 0 0 1-.112.461.685.685 0 0 1-.251.321l-1.578.908a.21.21 0 0 1-.265 0 .466.466 0 0 1-.098-.335v-.475l-.265.6a4.98 4.98 0 0 1-.391.614 4.305 4.305 0 0 1-.544.601c-.219.21-.463.392-.726.544-.88.503-1.578.531-2.094 0a4.373 4.373 0 0 1-.782-3.169v-5.654ZM368.014 258.986c.001.159-.032.316-.098.461a.81.81 0 0 1-.265.321l-1.718.991a.196.196 0 0 1-.125.046.2.2 0 0 1-.126-.046.412.412 0 0 1-.111-.335v-5.291a2.272 2.272 0 0 0-.28-1.284c-.195-.252-.502-.252-.907 0a2.17 2.17 0 0 0-.894 1.061 4.459 4.459 0 0 0-.279 1.605v5.305c.002.159-.032.316-.097.461a.746.746 0 0 1-.266.307l-1.717.991a.196.196 0 0 1-.125.046.2.2 0 0 1-.126-.046.453.453 0 0 1-.112-.335v-9.772c.004-.16.042-.317.112-.461a.685.685 0 0 1 .251-.321l1.648-.949a.206.206 0 0 1 .265 0 .46.46 0 0 1 .097.335v.474c.084-.181.168-.377.28-.6.115-.218.245-.428.391-.628.162-.221.344-.427.544-.614.215-.201.454-.374.712-.517.364-.227.774-.37 1.201-.419a1.209 1.209 0 0 1 .921.335c.301.322.513.717.614 1.145.156.658.226 1.334.21 2.01v5.724ZM373.402 252.187c-.025.233.024.467.14.671.083.125.237.125.446 0l1.089-.629a.198.198 0 0 1 .252 0c.083 0 .111.168.111.335v2.108a.935.935 0 0 1-.111.461.687.687 0 0 1-.252.321l-1.298.74a2.487 2.487 0 0 1-1.159.391 1.225 1.225 0 0 1-.893-.307 2.132 2.132 0 0 1-.572-.964 5.792 5.792 0 0 1-.196-1.605v-3.518l-1.005.573a.211.211 0 0 1-.265 0 .453.453 0 0 1-.112-.336v-2.107c.001-.161.039-.319.112-.461a.629.629 0 0 1 .265-.321l1.005-.587v-3.406a.935.935 0 0 1 .112-.46.683.683 0 0 1 .251-.322l1.717-.991a.198.198 0 0 1 .251 0 .408.408 0 0 1 .112.335v3.421l1.536-.894a.205.205 0 0 1 .132-.047c.049 0 .095.016.133.047.075.095.11.215.098.335v2.122c.001.159-.032.316-.098.461a.704.704 0 0 1-.265.321l-1.536.893v3.42Z"/><path fill="#BAE8E8" d="M231.038 370.847a5.195 5.195 0 0 0-2.345-4.076l-1.913-1.103a5.18 5.18 0 0 0-4.704 0L192.76 382.63a5.224 5.224 0 0 0-1.656 1.76 5.224 5.224 0 0 0-.69 2.316v54.625a5.228 5.228 0 0 0 2.346 4.077l1.912 1.103a5.187 5.187 0 0 0 4.705 0l29.316-16.962a5.189 5.189 0 0 0 2.345-4.076v-54.626Z"/><path fill="#000" d="M190.4 441.331a5.228 5.228 0 0 0 2.346 4.077l1.912 1.103a5.243 5.243 0 0 0 4.3.181c-1.103.419-1.941-.195-1.941-1.536v-54.639a4.87 4.87 0 0 1 .685-2.317l-6.604-3.811a4.694 4.694 0 0 0-.698 2.317v54.625Z" opacity=".2"/><path fill="#fff" d="M230.968 370.177c-.279-1.005-1.186-1.312-2.275-.698l-29.316 16.976a4.664 4.664 0 0 0-1.662 1.745l-6.603-3.811a4.803 4.803 0 0 1 1.662-1.759l29.316-16.962a5.258 5.258 0 0 1 4.704 0l1.913 1.103a5.271 5.271 0 0 1 2.261 3.406Z" opacity=".3"/><path fill="#FAFAFA" d="M220.861 385.547a.535.535 0 0 1 .684 0 1.208 1.208 0 0 1 .279.88v3.615a5.58 5.58 0 0 1-.139 1.201 43.169 43.169 0 0 1-.433 1.745l-8.236 34.034a7.448 7.448 0 0 1-.377 1.117 1.632 1.632 0 0 1-.656.796l-2.96 1.703a.49.49 0 0 1-.67 0 1.115 1.115 0 0 1-.279-.865c.009-.245.042-.488.098-.726l8.278-34.105-11.168 6.436a.505.505 0 0 1-.67 0 1.158 1.158 0 0 1-.293-.88v-3.88c.003-.418.104-.829.293-1.201.126-.341.362-.631.67-.824l15.579-9.046Z"/><path fill="#BAE8E8" d="M278.725 343.304a5.218 5.218 0 0 0-2.317-4.076l-1.913-1.103a5.18 5.18 0 0 0-4.704 0l-29.316 16.962a5.18 5.18 0 0 0-1.657 1.751 5.175 5.175 0 0 0-.688 2.311v54.639a5.19 5.19 0 0 0 2.345 4.077l1.912 1.103a5.278 5.278 0 0 0 4.705 0l29.316-16.92a5.224 5.224 0 0 0 2.345-4.076l-.028-54.668Z"/><path fill="#000" d="M238.088 413.802c.042.816.277 1.611.685 2.319a5.183 5.183 0 0 0 1.66 1.758l1.913 1.102a5.223 5.223 0 0 0 4.299.182c-1.103.419-1.954-.195-1.954-1.536V362.96c.028-.82.269-1.618.698-2.317l-6.673-3.784a4.823 4.823 0 0 0-.684 2.304l.056 54.639Z" opacity=".2"/><path fill="#fff" d="M278.642 342.648c-.266-1.005-1.187-1.326-2.262-.698l-29.316 16.976a4.544 4.544 0 0 0-1.661 1.745l-6.603-3.811a4.762 4.762 0 0 1 1.647-1.759l29.316-16.962a5.232 5.232 0 0 1 4.691 0l1.954 1.089a5.2 5.2 0 0 1 2.234 3.42Z" opacity=".3"/><path fill="#FAFAFA" d="M253.402 368.237c.005-.422.105-.837.293-1.215.134-.336.368-.624.67-.823l13.36-7.706a.53.53 0 0 1 .684 0 1.206 1.206 0 0 1 .279.879v3.881a2.794 2.794 0 0 1-.279 1.201c-.14.341-.378.632-.684.837l-9.982 5.752-.39 7.231a9.762 9.762 0 0 1 1.898-1.801 28.33 28.33 0 0 1 1.55-1.005 9.266 9.266 0 0 1 3.699-1.312 4.186 4.186 0 0 1 2.946.726 5.922 5.922 0 0 1 1.954 2.792 14.73 14.73 0 0 1 .712 4.997 26.962 26.962 0 0 1-.726 6.422 22.928 22.928 0 0 1-1.996 5.249 17.131 17.131 0 0 1-2.974 4.062 16.636 16.636 0 0 1-3.615 2.792 10.522 10.522 0 0 1-4.188 1.564 4.315 4.315 0 0 1-2.918-.698 5.094 5.094 0 0 1-1.731-2.443 11.802 11.802 0 0 1-.656-3.699 2.236 2.236 0 0 1 .265-1.229c.148-.328.385-.609.684-.81l2.876-1.661a.597.597 0 0 1 .642 0 1.078 1.078 0 0 1 .391.74c.079.604.314 1.177.684 1.661.272.327.645.553 1.061.642a2.62 2.62 0 0 0 1.396-.153 9.846 9.846 0 0 0 1.564-.74 8.373 8.373 0 0 0 3.266-3.588 11.585 11.585 0 0 0 1.243-5.36 3.993 3.993 0 0 0-1.243-3.393 2.907 2.907 0 0 0-3.266.196 8.035 8.035 0 0 0-2.709 2.373c-.251.377-.488.698-.712.991-.211.297-.488.54-.809.712l-3.267 1.899a.535.535 0 0 1-.684 0 1.198 1.198 0 0 1-.279-.866l.991-19.097Z"/><path fill="#BAE8E8" d="M183.281 398.376a5.222 5.222 0 0 0-.686-2.318 5.217 5.217 0 0 0-1.659-1.758l-1.913-1.103a5.261 5.261 0 0 0-4.704 0l-29.316 16.962a5.21 5.21 0 0 0-2.346 4.076v54.639a5.202 5.202 0 0 0 2.346 4.063l1.912 1.103a5.187 5.187 0 0 0 4.705 0l29.316-16.962a5.201 5.201 0 0 0 2.345-4.062v-54.64Z"/><path fill="#000" d="M142.643 468.875a5.202 5.202 0 0 0 2.346 4.062l1.912 1.103a5.25 5.25 0 0 0 2.129.56 5.25 5.25 0 0 0 2.171-.365c-1.103.419-1.941-.209-1.941-1.549v-54.64a4.767 4.767 0 0 1 .684-2.317l-6.617-3.811a4.869 4.869 0 0 0-.684 2.317v54.64Z" opacity=".2"/><path fill="#fff" d="M183.197 397.706c-.265-.991-1.173-1.312-2.261-.684l-29.316 16.962a4.59 4.59 0 0 0-1.662 1.759l-6.603-3.825a4.75 4.75 0 0 1 1.648-1.745l29.316-16.976a5.258 5.258 0 0 1 4.704 0l1.913 1.117a5.123 5.123 0 0 1 2.261 3.392Z" opacity=".3"/><path fill="#FAFAFA" d="M173.104 413.076a.504.504 0 0 1 .67 0 1.195 1.195 0 0 1 .293.88v3.615a6.55 6.55 0 0 1-.139 1.201 51.646 51.646 0 0 1-.433 1.759l-8.25 34.034a6.593 6.593 0 0 1-.363 1.117c-.128.325-.359.6-.657.782l-2.959 1.703a.5.5 0 0 1-.67 0 1.163 1.163 0 0 1-.293-.879 4.27 4.27 0 0 1 .111-.712l8.279-34.119-11.168 6.45a.492.492 0 0 1-.67 0 1.11 1.11 0 0 1-.294-.866v-3.894c.007-.417.107-.828.294-1.201a1.7 1.7 0 0 1 .67-.824l15.579-9.046Z"/><path fill="#BAE8E8" d="M358.186 297.432a5.204 5.204 0 0 0-2.346-4.077l-1.912-1.102a5.232 5.232 0 0 0-4.691 0l-29.316 16.961a5.189 5.189 0 0 0-2.345 4.076v54.64a5.192 5.192 0 0 0 2.345 4.062l1.913 1.103a5.155 5.155 0 0 0 4.69 0l29.316-16.962a5.198 5.198 0 0 0 2.36-4.062l-.014-54.639Z"/><path fill="#000" d="M317.562 367.93a5.192 5.192 0 0 0 2.345 4.062l1.913 1.103a5.245 5.245 0 0 0 4.3.195c-1.117.419-1.955-.209-1.955-1.549v-54.64a4.92 4.92 0 0 1 .684-2.317l-6.561-3.811a4.722 4.722 0 0 0-.684 2.317l-.042 54.64Z" opacity=".2"/><path fill="#fff" d="M358.116 296.762c-.279-.992-1.187-1.313-2.262-.684l-29.316 16.961a4.723 4.723 0 0 0-1.647 1.745l-6.603-3.811a4.769 4.769 0 0 1 1.661-1.745l29.316-16.975a5.265 5.265 0 0 1 4.705 0l1.926 1.116a5.117 5.117 0 0 1 2.22 3.393Z" opacity=".3"/><path fill="#FAFAFA" d="M342.439 332.248a11.96 11.96 0 0 0 1.396-3.476c.185-.887.288-1.789.307-2.694a5.046 5.046 0 0 0-.893-3.281c-.587-.698-1.578-.656-2.946.14a6.741 6.741 0 0 0-2.862 3.127 16.765 16.765 0 0 0-1.298 4.523 3.388 3.388 0 0 1-.433 1.326 1.985 1.985 0 0 1-.642.726l-2.792 1.619a.583.583 0 0 1-.684 0c-.209-.153-.293-.46-.265-.921.077-1.733.348-3.451.809-5.123a25.408 25.408 0 0 1 1.899-4.914 21.837 21.837 0 0 1 2.792-4.188 13.41 13.41 0 0 1 3.448-2.946 6.606 6.606 0 0 1 3.881-1.117 4.186 4.186 0 0 1 2.694 1.396 7.192 7.192 0 0 1 1.578 3.03 14.7 14.7 0 0 1 .516 3.992c0 .908 0 1.801-.098 2.666a15.365 15.365 0 0 1-.502 2.792 28.259 28.259 0 0 1-1.131 3.225 44.337 44.337 0 0 1-1.996 4.021L338.6 349l9.884-5.696a.504.504 0 0 1 .67 0 1.17 1.17 0 0 1 .293.88v3.881a2.68 2.68 0 0 1-.293 1.2 1.93 1.93 0 0 1-.67.838l-16.599 9.576a.53.53 0 0 1-.684 0 1.194 1.194 0 0 1-.279-.879v-3.337a4.9 4.9 0 0 1 .363-1.828c.163-.449.364-.883.6-1.299l10.554-20.088Z"/><path fill="#BAE8E8" d="M405.873 269.903a5.192 5.192 0 0 0-2.345-4.077l-1.913-1.103a5.27 5.27 0 0 0-4.704 0l-29.316 16.962a5.206 5.206 0 0 0-2.359 4.076v54.64a5.2 5.2 0 0 0 2.359 4.062l1.912 1.103a5.156 5.156 0 0 0 4.691 0l29.316-16.962a5.188 5.188 0 0 0 2.345-4.062l.014-54.639Z"/><path fill="#000" d="M365.236 340.401a5.2 5.2 0 0 0 2.359 4.062l1.912 1.103a5.2 5.2 0 0 0 4.286.195c-1.103.419-1.94-.209-1.94-1.549v-54.64a4.864 4.864 0 0 1 .684-2.317l-6.603-3.867a4.742 4.742 0 0 0-.698 2.317v54.696Z" opacity=".2"/><path fill="#fff" d="M405.803 269.233c-.279-.992-1.186-1.313-2.275-.698l-29.316 16.975a4.769 4.769 0 0 0-1.661 1.745l-6.617-3.867a4.66 4.66 0 0 1 1.661-1.745l29.316-16.975a5.258 5.258 0 0 1 4.704 0l1.913 1.116a5.195 5.195 0 0 1 2.275 3.449Z" opacity=".3"/><path fill="#FAFAFA" d="M397.441 297.878v9.745a45.04 45.04 0 0 1-.628 6.24 24.998 24.998 0 0 1-1.633 5.584 19.197 19.197 0 0 1-2.904 4.788 16.086 16.086 0 0 1-4.397 3.657 8.274 8.274 0 0 1-4.398 1.396 3.892 3.892 0 0 1-2.903-1.396 8.88 8.88 0 0 1-1.634-3.769 31.18 31.18 0 0 1-.628-5.584c0-1.396-.07-2.917-.07-4.69 0-1.773 0-3.351.07-4.775.066-2.11.276-4.214.628-6.296a26.372 26.372 0 0 1 1.634-5.723 20.073 20.073 0 0 1 2.903-4.872 15.72 15.72 0 0 1 4.398-3.728 8.517 8.517 0 0 1 4.397-1.396 3.839 3.839 0 0 1 2.904 1.396 8.504 8.504 0 0 1 1.633 3.756c.382 1.866.592 3.763.628 5.667Zm-14.323 17.73a11.163 11.163 0 0 0 1.229 5.402c.698 1.033 1.87 1.075 3.532.112a7.985 7.985 0 0 0 3.545-4.188 21.847 21.847 0 0 0 1.215-6.799c0-1.396.07-2.959.07-4.648 0-1.69 0-3.197-.07-4.551a11.022 11.022 0 0 0-1.215-5.389c-.711-1.033-1.884-1.075-3.545-.126a7.955 7.955 0 0 0-3.532 4.188 22.345 22.345 0 0 0-1.229 6.813c0 1.396-.07 2.959-.07 4.635 0 1.675.028 3.197.07 4.551Z"/><path fill="#BAE8E8" d="M453.56 242.373a5.24 5.24 0 0 0-2.345-4.076l-1.912-1.103a5.266 5.266 0 0 0-4.705 0l-29.316 16.962a5.189 5.189 0 0 0-2.345 4.076v54.639a5.192 5.192 0 0 0 2.345 4.063l1.913 1.103a5.18 5.18 0 0 0 4.704 0l29.316-16.962a5.193 5.193 0 0 0 2.345-4.062v-54.64Z"/><path fill="#000" d="M412.923 312.872a5.192 5.192 0 0 0 2.345 4.062l1.913 1.103a5.245 5.245 0 0 0 4.299.195c-1.103.419-1.954-.209-1.954-1.549v-54.64c.028-.82.269-1.618.698-2.317l-6.617-3.811a4.869 4.869 0 0 0-.684 2.317v54.64Z" opacity=".2"/><path fill="#fff" d="M453.477 241.703c-.266-.991-1.173-1.312-2.262-.698l-29.316 16.976a4.66 4.66 0 0 0-1.661 1.745l-6.603-3.811a4.624 4.624 0 0 1 1.647-1.745l29.316-16.976a5.231 5.231 0 0 1 4.691 0l1.926 1.117a5.126 5.126 0 0 1 2.262 3.392Z" opacity=".3"/><path fill="#455A64" d="m288.274 357.571 13.96-8.082a3.27 3.27 0 0 1 3.015 0l2.653 1.535a3.31 3.31 0 0 1 1.507 2.611v3.057a3.34 3.34 0 0 1-1.507 2.624l-13.96 8.069a3.301 3.301 0 0 1-3.03 0l-2.638-1.521a3.366 3.366 0 0 1-1.522-2.625v-3.071a3.333 3.333 0 0 1 1.522-2.597Z"/><path fill="#263238" d="M293.481 367.567a3.227 3.227 0 0 1-2.555-.182l-2.652-1.521a3.354 3.354 0 0 1-1.508-2.625v-3.071c.018-.526.167-1.04.433-1.494l5.668 3.281c-.265.45-.413.958-.433 1.48v3.071c0 .796.433 1.186 1.047 1.061Z"/><path fill="#37474F" d="M292.434 366.52v-3.057a3.353 3.353 0 0 1 1.508-2.625l13.96-8.083c.837-.474 1.507-.084 1.507.88v3.057a3.34 3.34 0 0 1-1.507 2.624l-13.96 8.069c-.782.489-1.508.098-1.508-.865Z"/><path fill="#000" d="M608.516 416.971a17.903 17.903 0 0 0-7.426-9.521l-42.69-24.653a43.345 43.345 0 0 0-7.957-.516c-9.395.293-18.358 3.936-26.776 8.11-19.111 9.507-38.641 16.264-56.244 28.507-2.234 1.563-8.376 5.291-4.858 9.116a11.332 11.332 0 0 0 7.58 2.875c5.584-.432 16.612-9.325 14.867-6.7a9.547 9.547 0 0 0-1.493 5.053 3.674 3.674 0 0 0 2.107 3.336c1.536.517 2.206-2.624 2.876-4.397a16.472 16.472 0 0 1 6.38-7.943 21.974 21.974 0 0 1 15.272-2.667 65.794 65.794 0 0 1 15.049 4.859c8.013 3.322 13.402 5.165 21.01 9.311 3.518 1.912 13.388 8.069 13.96 8.739.851 1.019.67 8.222.768 9.535l.502 7.356 39.675-22.908a17.619 17.619 0 0 0 6.77-7.845c0-.321.112-.657.154-.978.444-2.867.603-5.77.474-8.669Z" opacity=".15"/><path fill="#263238" d="M578.405 463.639c-1.117.936-2.401 2.039-2.415 3.365a13.429 13.429 0 0 0 2.792 7.887c2.443 3.309 3.629 9.214 3.713 13.151.084 3.936-.642 13.862 3.853 18.287 4.495 4.425 16.194 7.692 16.989.489.796-7.204-10.4-36.52-10.4-36.52l-14.532-6.659Z"/><path fill="#9A4A4D" d="M584.505 469.056a107.703 107.703 0 0 1 3.113 16.026c.587 5.919 1.843 10.191 4.621 12.075 2.778 1.885 7.217 2.081 6.003-2.038-1.215-4.118-5.347-24.765-5.347-24.765l-8.39-1.298Z"/><path fill="#B16668" d="M557.199 366.282s22.267 13.318 33.002 20.689c10.735 7.371 20.94 14.56 22.643 19.74 1.815 5.486-.154 17.84-2.722 29.651-2.569 11.81-7.525 33.001-7.525 33.001l-27.92-53.718-31.116-25.854 13.638-23.509Z"/><path fill="#BAE8E8" d="m570.964 411.666-27.836-18.999 14.085-26.385s20.633 11.866 35.864 22.057c12.34 8.251 21.163 14.672 21.233 20.061.07 5.388-1.983 23.899-5.068 31.577 0 0-12.173 3.993-22.838-.74l-15.44-27.571Z"/><path fill="#fff" d="m570.964 411.666-27.836-18.999 14.085-26.385s20.633 11.866 35.864 22.057c12.34 8.251 21.163 14.672 21.233 20.061.07 5.388-1.983 23.899-5.068 31.577 0 0-12.173 3.993-22.838-.74l-15.44-27.571Z" opacity=".6"/><path fill="#000" d="M595.352 422.709c-2.457-8.027-9.688-12.941-15.97-17.841-4.984-3.909-16.989-12.676-21.889-16.291a13.005 13.005 0 0 0 .851-7.79c-2.624 6.882-4.411 8.488-4.411 8.488l31.256 29.162 18.902 44.742s-6.282-32.457-8.739-40.47Z" opacity=".15"/><path fill="#263238" d="M601.327 507.139c-1.033.53-1.159 2.945-1.256 4.704-.098 1.759-1.62 3.909.628 6.897 2.247 2.987 6.505 3.685 9.562 7.747 3.058 4.063 7.637 11.462 17.115 12.997 9.479 1.536 16.487-1.912 18.148-4.788 1.662-2.876-.083-5.458-6.254-8.585-6.547-3.337-8.376-4.328-8.376-4.328l-29.567-14.644Z"/><path fill="#B16668" d="M610.485 487.358s5.151 12.326 8.18 17.952a66.311 66.311 0 0 0 12.732 15.719c1.103 1.061 3.574 2.988 4.481 3.839a1.798 1.798 0 0 1 .07 2.792c-1.843 2.136-10.428 3.42-15.607.251-5.18-3.169-10.568-9.604-13.737-12.243l-4.188-3.531a3.924 3.924 0 0 1-1.326-3.63c0-.377.139-.838.209-1.396.405-2.792-4.355-13.96-4.355-13.96l13.541-5.793Z"/><path fill="#B16668" d="M504.528 372.732c-1.284 7.65-3.713 15.454.866 24.835 4.425 9.074 17.087 16.487 30.949 22.908 11.475 5.319 28.367 12.955 31.759 14.086 3.393 1.131 3.909 3.071 4.035 9.311.125 6.24 3.238 16.194 11.335 28.241a299.582 299.582 0 0 1 16.082 27.697s9.772 1.075 14.156-4.998c0 0-20.047-66.826-23.579-74.672-3.532-7.845-36.491-31.159-36.491-31.159a43.454 43.454 0 0 0 3.559-22.726l-52.671 6.477Z"/><path fill="#BAE8E8" d="M558.219 431.573s-25.128-10.581-40.121-19.935c-20.647-12.815-16.752-25.127-14.658-38.376l53.759-6.98c3.169 14.407-2.987 22.853-2.987 22.853l19.195 14.49c9.995 7.692 16.752 12.006 18.776 18.358 2.024 6.352 8.53 30.293 8.53 30.293a38.649 38.649 0 0 1-23.732 8.502s-4.677-7.581-5.431-13.095c-.753-5.514.461-9.869-1.8-11.07-2.262-1.201-5.249-2.303-11.531-5.04Z"/><path fill="#fff" d="M558.219 431.573s-25.128-10.581-40.121-19.935c-20.647-12.815-16.752-25.127-14.658-38.376l53.759-6.98c3.169 14.407-2.987 22.853-2.987 22.853l19.195 14.49c9.995 7.692 16.752 12.006 18.776 18.358 2.024 6.352 8.53 30.293 8.53 30.293a38.649 38.649 0 0 1-23.732 8.502s-4.677-7.581-5.431-13.095c-.753-5.514.461-9.869-1.8-11.07-2.262-1.201-5.249-2.303-11.531-5.04Z" opacity=".6"/><path fill="#B16668" d="M538.144 296.664c3.941-.39 7.911-.39 11.852 0a21.46 21.46 0 0 1 8.111 3.295c6.575 4.369 21.931 16.933 31.48 24.122 0 0 8.041-4.034 13.485-7.357 4.872-2.973 7.441 16.752-1.396 22.253-9.66 6.016-10.931 6.003-17.911 2.443-7.343-3.742-22.001-13.095-28.045-16.892l-17.576-27.864Z"/><path fill="#9A4A4D" d="M589.587 324.081c-3.253 1.969-5.152 7.79-5.152 7.79s-.572-6.17 3.937-8.711l1.215.921Z"/><path fill="#455A64" d="m620.997 302.304-1.396-.977a1.491 1.491 0 0 0-1.396 0l-13.849 5.584a5.277 5.277 0 0 0-2.861 3.378l-6.799 30.879a1.401 1.401 0 0 0 .363 1.494l1.494 1.019a1.5 1.5 0 0 0 1.396 0l13.848-5.584a5.309 5.309 0 0 0 2.862-3.378c1.396-6.073 5.5-24.821 6.854-30.894a1.399 1.399 0 0 0-.516-1.521Z"/><path fill="#263238" d="M604.342 308.893a5.144 5.144 0 0 0-1.396 2.373l-6.854 30.88a1.402 1.402 0 0 0 .307 1.479l-1.396-.949a1.392 1.392 0 0 1-.363-1.494l6.841-30.893a5.187 5.187 0 0 1 1.284-2.248l1.577.852Z"/><path fill="#37474F" d="m596.092 342.16 6.84-30.852a5.327 5.327 0 0 1 2.876-3.378l13.848-5.584c1.285-.517 2.081.167 1.787 1.521-1.396 6.073-5.5 24.821-6.854 30.894a5.316 5.316 0 0 1-2.862 3.378l-13.848 5.584c-1.284.461-2.08-.223-1.787-1.563Z"/><path fill="#B16668" d="M619.894 310.805c2.792-.991 4.676 1.899 4.802 7.19.126 5.291-2.345 15.258-10.637 13.332-3.225-.74-5.836-5.864-2.681-8.376a54.515 54.515 0 0 0 7.315-6.701l1.201-5.445Z"/><path fill="#37474F" d="m560.871 368.376-6.478-6.812-2.722-7.245-1.396-13.416c7.483-4.844 10.219-13.96 7.259-21.038a46.774 46.774 0 0 0-8.376-13.136c-5.863-6.771-8.794-9.032-11.028-10.121-3.071-.251-5.361-.209-5.361-.209s-12.773 1.019-18.078 1.773a89.576 89.576 0 0 0-9.241 1.786c4.02 5.654 6.058 15.775 3.169 24.403a14.272 14.272 0 0 1-10.149 9.911s.823 12.871 1.298 19.321c.768 10.232.489 18.608 1.675 33.071 12.006 4.425 31.271 1.256 44.77-5.877 13.29-6.952 14.658-12.411 14.658-12.411Z"/><path fill="#263238" d="M538.856 341.14a22.22 22.22 0 0 1-25.309-.879 15.194 15.194 0 0 0 12.424 7.776c10.735.391 12.885-6.897 12.885-6.897ZM539.038 236.161a6.77 6.77 0 0 1-2.164-.293 39.416 39.416 0 0 0-8.516-1.801 30.713 30.713 0 0 0-14.407 1.857 26.96 26.96 0 0 0-15.998 17.869c-2.485 9.241.726 17.869 6.031 24.723 2.792 3.588 7.873 7.078 9.898 8.488l1.912-2.094a21.467 21.467 0 0 0 10.512 2.275c3.518-.098 6.98.363 10.344-1.089a14.021 14.021 0 0 0 7.916-8.823c.259-1.327.671-2.62 1.228-3.852a13.56 13.56 0 0 1 3.127-3.197 23.4 23.4 0 0 0 7.706-14.281 8.704 8.704 0 0 0-.419-4.9 4.057 4.057 0 0 0-3.922-2.527 17.593 17.593 0 0 0 2.177-5.738 6.04 6.04 0 0 0-1.926-5.584 8.449 8.449 0 0 0-5.068-1.27h-5.807c-.893.126-1.759.223-2.624.237Z"/><path fill="#B16668" d="M542.541 246.408c3.281 1.773 8.027 7.399 7.832 24.332-.168 14.03-4.649 18.511-6.98 19.614-2.331 1.103-5.779.935-10.177.377l-.307 6.017c10.707 7.761 13.388 17.212 3.49 16.277-12.564-1.187-22.336-12.145-22.336-13.262l-.335-18.818a6.033 6.033 0 0 1-7.064-1.396c-3.211-3.699-4.188-9.186-1.521-12.145 2.666-2.96 7.245-1.913 9.451 1.103 0 0 5.807-.14 14.895-5.584 9.088-5.445 11.154-9.842 13.052-16.515Z"/><path fill="#263238" d="m514.649 268.451-.097 6.77a4.811 4.811 0 0 0 4.492-2.908 4.809 4.809 0 0 0 .394-1.838l.111-8.097-4.9 6.073ZM548.628 261.345l-4.188-1.591a2.132 2.132 0 0 1 1.945-1.466c.289-.011.577.036.847.139a2.333 2.333 0 0 1 1.396 2.918Z"/><path fill="#9A4A4D" d="m532.365 279.619 6.296 1.256a3.085 3.085 0 0 1-3.658 2.569 3.38 3.38 0 0 1-2.638-3.825ZM537.809 264.43l.866 11.755 5.723-1.773-6.589-9.982ZM533.272 290.731c-4.635-.419-14.239-2.792-15.859-6.45a9.774 9.774 0 0 0 3.518 4.649c2.932 2.317 12.173 5.123 12.173 5.123l.168-3.322Z"/><path fill="#263238" d="M533.007 268.562a1.922 1.922 0 0 1-1.183 1.792 1.929 1.929 0 0 1-2.521-2.521 1.925 1.925 0 0 1 1.791-1.183 1.913 1.913 0 0 1 1.913 1.912ZM545.668 268.967a1.912 1.912 0 1 0 .002-3.824 1.912 1.912 0 0 0-.002 3.824ZM507.474 239.651c-6.631 4.607-11.168 10.54-12.494 26.092-1.005 11.88 1.689 19.544 4.579 22.671 2.889 3.127 15.202 10.805 20.8 6.156a8.178 8.178 0 0 1-4.858-4.356 25.884 25.884 0 0 1-1.689-8.054s-5.696.083-7.985-2.416c-2.29-2.498-4.649-13.15-4.188-18.399.6-6.156 5.835-21.694 5.835-21.694Z"/><path fill="#BAE8E8" d="M514.649 268.451s-1.256-10.61 3.435-18.148c4.69-7.539 13.569-13.96 20.94-14.156 0 0-5.194-3.615-14.184-2.261 0 0-17.296 6.282-13.401 32.108a8.165 8.165 0 0 1 3.21 2.457Z"/><path fill="#B16668" d="M505.464 300.014c-7.664 1.969-13.807 3.951-16.361 11.461-1.396 3.909-3.602 45.105-3.867 51.652-.266 6.548-.335 41.559-.81 42.704-.977 2.373-10.791 6.589-14.197 8.697a27.55 27.55 0 0 0-7.985 7.469c-1.522 2.345 3.769 6.114 8.585 5.793 2.792-.195 13.066-7.105 16.752-7.44 2.373-.21-1.564 4.104-1.703 7.496-.112 2.457 2.122 3.211 2.694 1.829.726-1.731 5.584-7.594 6.98-9.381 2.066-2.457 5.486-7.567 5.486-12.411 0-6.254.824-20.814 2.792-41.587 1.634-17.422 2.988-30.516 2.988-30.516a51.661 51.661 0 0 0 4.118-18.888 24.672 24.672 0 0 0-5.472-16.878Z"/><path fill="#BAE8E8" d="M605.696 232.155a.733.733 0 0 1-.307-.307l-3.867-14.072v-3.685l11.364-4.44v3.672l-1.396 3.978 6.757-3.895.404 2.276-4.02 20.535a.883.883 0 0 1-.198.312.875.875 0 0 1-.676.253.868.868 0 0 1-.355-.104l-7.706-4.523Z"/><path fill="#000" d="M605.696 232.155a.733.733 0 0 1-.307-.307l-3.867-14.072v-3.685l11.364-4.44v3.672l-1.396 3.978 6.757-3.895.404 2.276-4.02 20.535a.883.883 0 0 1-.198.312.875.875 0 0 1-.676.253.868.868 0 0 1-.355-.104l-7.706-4.523Z" opacity=".3"/><path fill="#BAE8E8" d="m618.274 213.406.405 2.276-4.02 20.535a.842.842 0 0 1-.716.562.833.833 0 0 1-.806-.422l-4.369-14.951.502-2.792 9.004-5.208Z"/><path fill="#BAE8E8" d="M643.221 137.897a8.138 8.138 0 0 0-3.672-6.366 8.133 8.133 0 0 0-7.356 0l-53.439 30.531a8.135 8.135 0 0 0-3.672 6.365v59.861a8.146 8.146 0 0 0 3.672 6.38 8.145 8.145 0 0 0 7.357 0l53.774-30.712c3.308-1.885 3.336-3.784 3.336-6.129v-59.93Z"/><path fill="#000" d="M575.152 228.288a8.145 8.145 0 0 0 3.671 6.38 8.23 8.23 0 0 0 3.332.872 8.23 8.23 0 0 0 3.397-.565c-1.731.656-3.043-.335-3.043-2.443v-59.861a7.407 7.407 0 0 1 1.075-3.615l-7.357-4.188a7.417 7.417 0 0 0-1.075 3.615v59.805Z" opacity=".2"/><path fill="#fff" d="M643.109 136.808c-.432-1.563-1.856-2.052-3.56-1.075l-53.438 30.531a7.27 7.27 0 0 0-2.597 2.792l-7.343-4.188a7.553 7.553 0 0 1 2.583-2.792l53.425-30.531a8.254 8.254 0 0 1 7.37 0 8.113 8.113 0 0 1 3.56 5.263Z" opacity=".5"/><path fill="#FAFAFA" d="M596.595 181.145a6.297 6.297 0 0 1 2.373-5.04c1.326-.753 2.387.266 2.387 2.29a6.248 6.248 0 0 1-2.387 5.039c-1.312.754-2.373-.265-2.373-2.289Zm-3.574 2.178c0 3.964 1.2 6.798 3.085 7.985h.112l.209.125.237.098.238.098.293.084h.223a4.197 4.197 0 0 0 1.564 0 3.31 3.31 0 0 0 .502-.112c.186-.048.368-.109.545-.181a7.318 7.318 0 0 0 1.005-.475c2.638-1.536 4.984-4.844 6.463-8.725 0-.098.07-.196.098-.293.338-.912.617-1.845.838-2.792l4.439-2.555.879-3.671 2.653-1.536 2.15 1.912 1.717-.991 1.563-2.666 2.722-1.633 1.033 1.242 3.072-1.787 3.127-6.589v-3.448l-22.992 13.276a10.234 10.234 0 0 0-.81-2.513l-.209-.391a10.1 10.1 0 0 0-.475-.74c-.168-.237-.168-.209-.265-.307l-.224-.251h-.083a2.877 2.877 0 0 0-.559-.461c-.098-.083-.209-.139-.307-.209h-.14a4.718 4.718 0 0 0-4.69.377c-3.783 2.192-6.98 8.041-7.832 13.96a21.792 21.792 0 0 0-.181 3.169Z"/><path fill="#455A64" d="M587.353 223.36a4.04 4.04 0 0 1 .084-.558l3.308-15.091-3.364 1.94c-.168.098-.293 0-.363-.069a2.357 2.357 0 0 1-.112-.866v-.405c-.008-.334.03-.667.112-.991a.837.837 0 0 1 .363-.489l5.416-3.127c.084 0 .182.154.294.615.116.418.177.85.181 1.284.014.111.014.224 0 .335l-3.546 16.026a1.15 1.15 0 0 1-.293.544 2.735 2.735 0 0 1-.614.461l-.573.335c-.53.391-.893.405-.893.056ZM595.338 218.781c.016-.188.049-.375.098-.558l3.294-15.077-3.364 1.94c-.153.098-.279.07-.349-.083a2.024 2.024 0 0 1-.112-.852v-.419a3.102 3.102 0 0 1 .112-.977.861.861 0 0 1 .349-.502l5.431-3.128c.083 0 .181.21.293.629.105.415.161.842.167 1.27.015.111.015.224 0 .335l-3.518 16.04a1.158 1.158 0 0 1-.293.545c-.178.176-.38.326-.6.446l-.586.335c-.615.349-.922.363-.922.056ZM603.547 214.146c-.531 0-.796-.293-.796-.781a3.51 3.51 0 0 1 .14-.768c.091-.353.207-.698.349-1.033.056-.229.183-.434.362-.587a1.26 1.26 0 0 1 .336 0c.221.037.448.037.67 0a2.24 2.24 0 0 0 .851-.307c.45-.29.789-.722.963-1.228a5.3 5.3 0 0 0 .349-2.024 3.035 3.035 0 0 0-.363-1.801c-.237-.307-.642-.307-1.2 0l-1.48.851c-.223.131-.377.131-.461 0a1.174 1.174 0 0 1-.125-.684l.307-7.343a2 2 0 0 1 .181-.851c.101-.214.267-.39.475-.503l4.188-2.415c.168-.098.293 0 .363.07.091.279.129.573.112.866v.642c.008.274-.03.548-.112.809a.795.795 0 0 1-.363.433l-2.792 1.578-.154 3.545.238-.125c1.131-.656 1.996-.74 2.596-.265.601.474.894 1.703.894 3.657a10.486 10.486 0 0 1-.419 3.518 8.225 8.225 0 0 1-1.396 2.513 6.312 6.312 0 0 1-1.745 1.535 3.76 3.76 0 0 1-1.968.698ZM610.75 204.891a2.313 2.313 0 0 1-.112-.866v-.209c-.008-.329.03-.658.112-.977a.745.745 0 0 1 .349-.489l2.68-1.549c.154-.098.28-.07.349.083.091.279.129.573.112.866v.167c.008.33-.029.659-.112.978a.77.77 0 0 1-.349.488l-2.68 1.55c-.168.139-.279.112-.349-.042ZM615.636 206.734a7.108 7.108 0 0 1-.14-1.285.99.99 0 0 1 0-.391l3.421-9.632c.189-.521.347-1.052.474-1.591.091-.389.138-.787.14-1.187 0-.558-.112-.921-.335-1.075-.224-.153-.531-.112-.908.098a2.777 2.777 0 0 0-.725.628 9.073 9.073 0 0 0-.685.935 2.247 2.247 0 0 1-.404.531c-.238.139-.447 0-.629-.224a1.657 1.657 0 0 1-.279-.921 3.496 3.496 0 0 1 .963-2.178 7.875 7.875 0 0 1 2.122-1.828c1.033-.605 1.829-.661 2.388-.168a3.56 3.56 0 0 1 .851 2.722 12.385 12.385 0 0 1-.837 4.188l-2.723 7.734 3.155-1.829c.182-.097.293 0 .363.084.098.273.136.563.112.852v.418c.015.33-.022.66-.112.978a.767.767 0 0 1-.363.502l-5.584 3.239c-.111.056-.265-.14-.265-.6ZM624.403 200.382a15.982 15.982 0 0 1-.796-5.975 24.778 24.778 0 0 1 .796-6.868 5.818 5.818 0 0 1 2.415-3.63c1.075-.628 1.885-.335 2.415.852.641 1.913.911 3.932.796 5.947a24.853 24.853 0 0 1-.796 6.868 5.873 5.873 0 0 1-2.415 3.643c-1.089.629-1.885.349-2.415-.837Zm2.876-2.722c.16-.612.249-1.239.265-1.871 0-.865.084-2.094.084-3.699 0-1.606 0-2.792-.084-3.602a4.9 4.9 0 0 0-.265-1.564c-.112-.237-.266-.307-.461-.181a1.188 1.188 0 0 0-.475.726c-.146.614-.234 1.24-.265 1.871 0 .865-.084 2.107-.084 3.699 0 1.591 0 2.792.084 3.602a5.85 5.85 0 0 0 .265 1.563c.112.237.28.307.475.196.237-.184.4-.447.461-.74ZM633.24 197.311c-.41.134-.847.163-1.271.083-.349-.083-.516-.363-.516-.837a3.77 3.77 0 0 1 .125-.754c.079-.331.177-.657.293-.977.056-.214.178-.405.349-.545a.536.536 0 0 1 .336 0c.234.079.478.126.725.14.284-.021.557-.112.796-.265a2.651 2.651 0 0 0 1.061-1.229 4.517 4.517 0 0 0 .391-1.954 2.333 2.333 0 0 0-.405-1.62c-.279-.251-.712-.195-1.326.154l-.544.307c-.168.098-.294.07-.363-.07a2.349 2.349 0 0 1-.112-.865v-.419a3.538 3.538 0 0 1 .112-.977.82.82 0 0 1 .363-.503l.404-.237a2.79 2.79 0 0 0 1.103-1.187 3.473 3.473 0 0 0 .405-1.689 2.038 2.038 0 0 0-.293-1.27c-.196-.224-.489-.238-.866 0-.257.135-.484.32-.67.544a5.507 5.507 0 0 0-.474.642c-.079.148-.183.28-.307.391-.154.098-.322 0-.503-.363a2.154 2.154 0 0 1-.279-1.019c.052-.671.344-1.3.823-1.773a7.696 7.696 0 0 1 1.969-1.605c.907-.517 1.619-.545 2.164-.098a3.414 3.414 0 0 1 .795 2.625 7.258 7.258 0 0 1-.391 2.387 5.972 5.972 0 0 1-1.075 1.982v.098a1.507 1.507 0 0 1 1.396.879c.342.753.5 1.576.461 2.401a9.883 9.883 0 0 1-.907 4.272 6.055 6.055 0 0 1-2.373 2.792 7.129 7.129 0 0 1-1.396.559Z"/></svg>