<svg xmlns="http://www.w3.org/2000/svg" width="698" height="698"><path fill="#EBEBEB" d="M561.29 492.76h49.083v-15.621H561.29v15.621Z"/><path fill="#6A9898" d="M588.665 223.346h49.084v-15.621h-49.084v15.621Z"/><path fill="#EBEBEB" d="m588.665 512.472 24.71-.419 12.215-.168h12.159l-.642.642v-15.621l.698.698-24.542-.098-12.271-.125-12.271-.154.335-.321-.391 15.566Zm0 0-.321-15.622v-.335h.335l12.271-.153 12.271-.112 24.542-.098h.698V513.1H625.45l-12.327-.168-24.458-.46Z"/><path fill="#6A9898" d="m181.271 473.453 24.709-.404 12.215-.168 12.159-.07-.642.642v-15.621l.698.698-24.542-.098-12.271-.111-12.271-.154.335-.335-.39 15.621Zm0 0-.335-15.565v-.335h.335l12.27-.154 12.271-.111 24.542-.098h.698v16.961H217.957l-12.326-.167-24.36-.531ZM208.646 493.151l24.709-.405 12.215-.167 12.16-.07-.643.642V477.53l.698.698-24.653-.098-12.271-.112-12.271-.153.335-.335-.279 15.621Zm0 0-.321-15.621v-.335h.335l12.271-.154 12.271-.112 24.541-.097h.698v16.961h-13.01l-12.327-.167-24.458-.475ZM235.91 473.453h49.083v-15.621H235.91v15.621Z"/><path fill="#EBEBEB" d="M60.251 512.458h49.084v-15.622H60.251v15.622Z"/><path fill="#6A9898" d="M87.627 78.358h49.083V62.736H87.627v15.622Z"/><path fill="#EBEBEB" d="m60.251 98.041 24.71-.405 12.215-.167h12.159l-.642.628V82.476l.698.698-24.542-.098-12.257-.168-12.27-.153.264-.391-.335 15.677Zm0 0-.335-15.677v-.321h.335l12.341-.098 12.27-.125 24.543-.098h.698v16.905H97.092l-12.327-.167-24.514-.419ZM561.29 78.344l24.709-.405 12.215-.168h12.159l-.642.628V62.78l.698.697-24.542-.098-12.271-.111-12.27-.154.335-.335-.391 15.566Zm0 0-.335-15.622v-.32h.335l12.271-.154 12.27-.126 24.542-.098h.698v.698l-.07 15.622v.642h-13.01l-12.327-.168-24.374-.474Z"/><path fill="#6A9898" d="M599.277 171.318c31.828-9.525 49.908-43.047 40.383-74.874-9.524-31.828-43.047-49.908-74.874-40.383-31.827 9.524-49.907 43.047-40.383 74.874 9.525 31.827 43.047 49.907 74.874 40.383Z"/><path fill="#83A3A3" d="M635.252 142.406c15.09-27.873 4.727-62.701-23.146-77.79-27.873-15.09-62.701-4.728-77.791 23.145-15.089 27.873-4.726 62.701 23.147 77.791 27.872 15.09 62.7 4.727 77.79-23.146Z"/><path fill="#fff" d="M601.669 166.167c28.196-9.325 43.495-39.742 34.17-67.939-9.326-28.196-39.743-43.494-67.939-34.17-28.197 9.326-43.495 39.743-34.17 67.94 9.325 28.196 39.742 43.494 67.939 34.169Z"/><path fill="#EBEBEB" d="M637.344 103.667c-24.486 14.839-64.733 39.172-87.222 52.517a53.728 53.728 0 0 1-14.686-19.753l74.379-68.948a53.878 53.878 0 0 1 27.529 36.184ZM638.516 116.957a53.065 53.065 0 0 1-3.545 17.478l-67.008 31.717a52.952 52.952 0 0 1-8.474-3.644c20.2-11.74 57.222-33.001 79.027-45.551Z" opacity=".5"/><path fill="#C7C7C7" d="M585.301 65.221h-1.033v8.153h1.033V65.22ZM560.298 71.604l-.907.524 4.076 7.06.907-.523-4.076-7.06ZM541.841 89.674l-.516.895 7.06 4.076.517-.894-7.061-4.077ZM543.072 114.556h-8.153v1.033h8.153v-1.033ZM550.611 136.108l-7.093 4.077.517.899 7.092-4.077-.516-.899ZM563.493 150.955l-4.072 7.063.895.516 4.072-7.063-.895-.516ZM585.301 156.799h-1.033v8.152h1.033v-8.152ZM606.089 150.945l-.895.516 4.077 7.06.894-.516-4.076-7.06ZM621.218 135.526l-.517.894 7.06 4.078.516-.895-7.059-4.077ZM634.663 114.556h-8.152v1.033h8.152v-1.033ZM627.727 89.741l-7.06 4.078.517.894 7.06-4.077-.517-.895ZM609.258 71.618l-4.073 7.063.895.516 4.073-7.062-.895-.517Z"/><path fill="#C7C7C7" d="m585.566 68.907 1.773 49.809-5.095-.07 1.94-49.753 1.382.014Z"/><path fill="#A6A6A6" d="m616.599 97.72-33.518 21.373-2.429-4.467 35.277-18.135.67 1.229Z"/><path fill="#C7C7C7" d="M586.529 115.086a1.745 1.745 0 1 1-1.745-1.745 1.726 1.726 0 0 1 1.616 1.075c.087.213.131.441.129.67Z"/><path fill="#263238" d="m51.247 646.027 74.435-.349 74.435-.112L349 645.329l148.869.223 74.449.126 74.435.349-74.435.335-74.449.126-148.869.237-148.883-.237-74.435-.126-74.435-.335Z"/><path fill="#455A64" d="M99.116 468.567s1.284 0 2.792 5.584c.796 3.058-3.895 28.981-3.434 56.51.349 20.661 1.396 43.276 2.945 56.189 0 0 1.508 3.03 6.464 2.108a322.284 322.284 0 0 1-6.464-59.036c-.209-19.363 3.714-41.476 3.602-56.538a13.1 13.1 0 0 1 1.27-5.249l-7.175.432Z"/><path fill="#BAE8E8" d="M103.695 461.392s-5.793-4.314-5.584-10.903c.21-6.589 2.513-11.698 5.737-14.811 3.225-3.113 4.356-2.918 4.356-2.918s3.616-.475 5.807 7.106c2.192 7.58 4.356 13.96 1.745 17.868-5.011 7.357-12.061 3.658-12.061 3.658Z"/><path fill="#000" d="M103.695 461.392s-5.793-4.314-5.584-10.903c.21-6.589 2.513-11.698 5.737-14.811 3.225-3.113 4.356-2.918 4.356-2.918s3.616-.475 5.807 7.106c2.192 7.58 4.356 13.96 1.745 17.868-5.011 7.357-12.061 3.658-12.061 3.658Z" opacity=".3"/><path fill="#BAE8E8" d="M94.049 451.536s-2.485-6.421-.252-11.293c2.234-4.873 3.895-4.886 4.384-5.012.488-.126 3.657.796 4.83 5.472 1.172 4.677 1.145 7.985.391 9.926-.754 1.94-3.825 3.378-3.825 3.378a6.226 6.226 0 0 1-5.528-2.471Z"/><path fill="#000" d="M94.049 451.536s-2.485-6.421-.252-11.293c2.234-4.873 3.895-4.886 4.384-5.012.488-.126 3.657.796 4.83 5.472 1.172 4.677 1.145 7.985.391 9.926-.754 1.94-3.825 3.378-3.825 3.378a6.226 6.226 0 0 1-5.528-2.471Z" opacity=".2"/><path fill="#BAE8E8" d="M94.328 438.218s-2.625.684-3.393 5.18a30.475 30.475 0 0 0 .489 10.707c.28.963 1.033 10.191 5.85 13.862 4.815 3.672 5.751 1.396 5.751 1.396a9.919 9.919 0 0 0 4.188-7.762 36.067 36.067 0 0 0-1.396-13.82c-1.312-3.951-1.829-6.17-4.523-7.594-2.694-1.424-6.017-2.471-6.966-1.969Z"/><path fill="#000" d="M94.328 438.218s-2.625.684-3.393 5.18a30.475 30.475 0 0 0 .489 10.707c.28.963 1.033 10.191 5.85 13.862 4.815 3.672 5.751 1.396 5.751 1.396a9.919 9.919 0 0 0 4.188-7.762 36.067 36.067 0 0 0-1.396-13.82c-1.312-3.951-1.829-6.17-4.523-7.594-2.694-1.424-6.017-2.471-6.966-1.969Z" opacity=".1"/><path fill="#BAE8E8" d="M106.487 470.452s-5.807.921-7.483-7.399c-1.675-8.32.307-11.056.698-12.229.391-1.172-.097-2.471.824-3.895.921-1.424 1.508-1.116 2.666-3.029 1.159-1.912 1.522-4.732 2.471-5.584a3.916 3.916 0 0 1 3.169-1.145 32.665 32.665 0 0 1 4.942 2.052c1.396.531.991 3.197 1.913 4.342.921 1.145 3.601 4.453 2.484 10.791-1.116 6.338-1.898 10.582-4.704 12.969-2.806 2.387-5.068 3.127-6.98 3.127Z"/><path fill="#BAE8E8" d="M98.264 470.033c-1.005.154-3.42.238-6.351-3.336-3.588-4.37-3.225-10.638-3.462-12.243a56.947 56.947 0 0 0-1.522-9.13c-.88-2.387-.656-3.755-.391-3.923.265-.167 2.443.642 3.602 3.462 1.158 2.82 3.63 5.431 4.034 9.577.405 4.146.21 10.093 2.499 12.564 2.29 2.471 4.788 1.857 4.188 3.001a21.63 21.63 0 0 1-2.597.028Z"/><path fill="#455A64" d="M100.261 535.785s-3.462-11.168 7.343-31.564c10.805-20.395 20.605-26.524 20.605-26.524s-.098 11.35-9.591 30.196c-9.493 18.846-16.905 27.054-18.357 27.892Z"/><path fill="#37474F" d="M122.918 486.436c.321-.586.447 0 .139.559-3.839 7.231-17.087 29.036-21.358 44.071-.182.629-.698 0-.489-.642 8.376-25.351 17.813-36.631 21.708-43.988Z"/><path fill="#BAE8E8" d="M127.455 517.33s.726-14.226-3.169-17.827c-3.895-3.602-4.733-2.667-5.877-2.946a10.794 10.794 0 0 0-4.021.768s5.891 1.326 7.232 5.333l5.835 14.672Z"/><path fill="#000" d="M127.455 517.33s.726-14.226-3.169-17.827c-3.895-3.602-4.733-2.667-5.877-2.946a10.794 10.794 0 0 0-4.021.768s5.891 1.326 7.232 5.333l5.835 14.672Z" opacity=".2"/><path fill="#455A64" d="M133.667 521.657a9.337 9.337 0 0 1 1.256 6.464c-3.169 30.712-10.986 47.045-23.801 67.008 0 0-2.527 6.449.628 4.997 0 0 20.214-21.358 25.477-70.539 0 0 .237-5.584 3.881-7.958 0 .014-6.841-1.619-7.441.028Z"/><path fill="#BAE8E8" d="M132.62 491.001a3.423 3.423 0 0 1 3.574 2.988c.754 3.294 6.715 21.163 4.188 26.3-2.527 5.137-3.574 2.932-5.836 3.211-2.47.363-7.817-3.225-8.725-6.142-.907-2.918-2.47-8.907-1.996-12.327.475-3.42-.488-13.918 8.795-14.03Z"/><path fill="#000" d="M132.62 491.001a3.423 3.423 0 0 1 3.574 2.988c.754 3.294 6.715 21.163 4.188 26.3-2.527 5.137-3.574 2.932-5.836 3.211-2.47.363-7.817-3.225-8.725-6.142-.907-2.918-2.47-8.907-1.996-12.327.475-3.42-.488-13.918 8.795-14.03Z" opacity=".1"/><path fill="#BAE8E8" d="M148.213 489.256s2.946 2.485 3.058 5.305c.111 2.82 1.605 15.356-1.634 21.512-3.238 6.157-5.947 7.86-10.484 7.832-4.537-.028 3.448-31.55 3.448-31.55s3.979-4.858 5.612-3.099Z"/><path fill="#000" d="M148.213 489.256s2.946 2.485 3.058 5.305c.111 2.82 1.605 15.356-1.634 21.512-3.238 6.157-5.947 7.86-10.484 7.832-4.537-.028 3.448-31.55 3.448-31.55s3.979-4.858 5.612-3.099Z" opacity=".2"/><path fill="#BAE8E8" d="M141.834 491.043s4.453.209 6.086 3.518a26.837 26.837 0 0 1 2.359 14.183c-.753 4.789-1.773 16.515-12.047 15.119-7.762-1.061-9.465-11.531-9.088-20.186.265-6.352 4.188-7.329 6.394-9.605a9.768 9.768 0 0 1 6.296-3.029Z"/><path fill="#BAE8E8" d="M138.12 523.751s-8.557 1.229-12.312-3.978c-3.756-5.207-2.499-8.907-3.128-12.564a23.918 23.918 0 0 0-2.024-6.38s2.346 1.131 4.188 8.167c1.843 7.035 7.776 14.113 13.276 14.755Z"/><path fill="#455A64" d="M111.848 599.177s3.713-15.761 19.544-30.628c15.09-14.239 24.583-14.672 27.291-16.082l.321-.195c2.192-1.578-10.023 15.356-20.619 24.96-10.595 9.604-19.25 18.595-26.537 21.945Z"/><path fill="#37474F" d="M147.334 561.681c-13.318 8.543-22.853 19.334-31.061 31.396-.377.558-.768 1.703-.391 1.158a140.22 140.22 0 0 1 31.131-31.87c.53-.405.879-1.033.321-.684Z"/><path fill="#BAE8E8" d="M80.703 496.334s6.798-2.415 8.543-8.781c1.745-6.366 1.033-11.922-1.13-15.859-2.164-3.936-3.281-4.118-3.281-4.118s-3.309-1.521-7.636 5.082c-4.328 6.603-8.278 12.075-6.98 16.556 2.652 8.572 10.484 7.12 10.484 7.12Z"/><path fill="#000" d="M80.703 496.334s6.798-2.415 8.543-8.781c1.745-6.366 1.033-11.922-1.13-15.859-2.164-3.936-3.281-4.118-3.281-4.118s-3.309-1.521-7.636 5.082c-4.328 6.603-8.278 12.075-6.98 16.556 2.652 8.572 10.484 7.12 10.484 7.12Z" opacity=".3"/><path fill="#455A64" d="M83.104 502.993s-1.284 0-2.792 5.584c-1.396 5.36-7.58 42.969 6.743 74.476 0 0 1.312 5.389-3.644 4.482 0 0-15.258-36.687-6.212-79.726a7.845 7.845 0 0 0-1.27-5.249l7.175.433Z"/><path fill="#BAE8E8" d="M92.82 489.759s4.272-5.347 3.504-10.722c-.768-5.374-2.29-5.821-2.792-6.086-.503-.265-3.727-.321-6.226 3.811s-3.434 7.301-3.295 9.367c.14 2.066 2.667 4.356 2.667 4.356a6.286 6.286 0 0 0 6.142-.726Z"/><path fill="#000" d="M92.82 489.759s4.272-5.347 3.504-10.722c-.768-5.374-2.29-5.821-2.792-6.086-.503-.265-3.727-.321-6.226 3.811s-3.434 7.301-3.295 9.367c.14 2.066 2.667 4.356 2.667 4.356a6.286 6.286 0 0 0 6.142-.726Z" opacity=".2"/><path fill="#BAE8E8" d="M96.478 476.943s2.303 1.396 1.717 5.947a30.45 30.45 0 0 1-3.63 10.079c-.53.852-3.979 9.437-9.674 11.531-5.696 2.094-5.891-.363-5.891-.363a9.933 9.933 0 0 1-1.773-8.669 35.842 35.842 0 0 1 5.416-12.801c2.415-3.392 3.574-5.361 6.561-5.919 2.988-.558 6.52-.572 7.274.195Z"/><path fill="#000" d="M96.478 476.943s2.303 1.396 1.717 5.947a30.45 30.45 0 0 1-3.63 10.079c-.53.852-3.979 9.437-9.674 11.531-5.696 2.094-5.891-.363-5.891-.363a9.933 9.933 0 0 1-1.773-8.669 35.842 35.842 0 0 1 5.416-12.801c2.415-3.392 3.574-5.361 6.561-5.919 2.988-.558 6.52-.572 7.274.195Z" opacity=".1"/><path fill="#BAE8E8" d="M75.384 504.151s5.277 2.597 9.325-4.872c4.049-7.468 2.96-10.651 2.946-11.894-.014-1.242.81-2.317.363-3.964-.447-1.647-1.131-1.508-1.675-3.672-.545-2.163 0-4.983-.726-6.016a3.892 3.892 0 0 0-2.695-2.039c-1.784.017-3.564.19-5.318.517-1.508.084-1.885 2.792-3.113 3.588-1.229.795-4.76 3.197-5.584 9.562-.824 6.366-1.299 10.68.684 13.793 1.982 3.113 3.936 4.467 5.793 4.997Z"/><path fill="#BAE8E8" d="M83.355 506.176c.908.446 3.183 1.242 7.05-1.313 4.718-3.113 6.212-9.213 6.896-10.679 1.17-2.899 2.571-5.7 4.188-8.376 1.536-2.024 1.717-3.392 1.522-3.63-.196-.237-2.527-.111-4.453 2.262-1.927 2.373-5.026 4.16-6.701 7.985-1.675 3.825-3.17 9.591-6.087 11.28s-5.11.363-4.886 1.633c.804.334 1.63.614 2.471.838Z"/><path fill="#455A64" d="M79.209 567.055s3.462-11.168-7.357-31.563c-10.819-20.396-20.605-26.524-20.605-26.524s.112 11.349 9.605 30.195c9.492 18.846 16.905 27.055 18.357 27.892Z"/><path fill="#37474F" d="M56.538 517.693c-.307-.573-.433 0-.126.572 3.825 7.231 17.073 29.023 21.345 44.072.182.628.698 0 .503-.642-8.39-25.352-17.827-36.645-21.722-44.002Z"/><path fill="#BAE8E8" d="M59.456 646.027h98.027l-4.328-46.71-.949-10.303H64.733l-.95 10.303-4.327 46.71Z"/><path fill="#000" d="m64.076 596.022 89.079 3.295-.949-10.303H64.733l-.657 7.008Z" opacity=".1"/><path fill="#BAE8E8" d="M59.12 592.658h98.684v-12.411H59.121v12.411Z"/><path fill="#fff" d="M580.652 77.45H117.348v339.144h463.304V77.45Z"/><path fill="#263238" d="m580.652 416.608-463.304.21h-.21v-.21l-.139-339.158v-.349h.349l463.304.21h.154v.14l-.154 339.157Zm0 0-.153-339.158.153.154-463.304.195.349-.349-.14 339.228-.209-.223 463.304.153Z"/><path fill="#263238" d="M580.652 77.45H117.348v13.053h463.304V77.45Z"/><path fill="#BAE8E8" d="M129.94 83.983a2.638 2.638 0 1 1-5.276 0 2.638 2.638 0 0 1 5.276 0Z"/><path fill="#fff" d="M140.675 83.983a2.638 2.638 0 1 1-5.276 0 2.638 2.638 0 0 1 5.276 0Z"/><path fill="#455A64" d="M151.41 83.983a2.636 2.636 0 0 1-3.153 2.588 2.638 2.638 0 1 1 3.153-2.588Z"/><path fill="#263238" d="M180.363 160.54a1.998 1.998 0 0 1-1.256 2.513 2.794 2.794 0 0 1-.782.111 2.512 2.512 0 0 1-1.396-.404 3.4 3.4 0 0 1-1.145-1.243 9.66 9.66 0 0 1-.754-4.299 3.042 3.042 0 0 0-.432-1.536 3.232 3.232 0 0 0-1.075-1.047 6.68 6.68 0 0 0-1.996-.852h-4.188v7.762a2 2 0 0 1-3.403 1.392 1.969 1.969 0 0 1-.576-1.392v-21.093a1.945 1.945 0 0 1 1.211-1.827c.24-.097.498-.146.757-.142h6.38a7.65 7.65 0 0 1 4.858 13.569c.497.389.922.862 1.256 1.396a6.798 6.798 0 0 1 1.187 3.867 8.711 8.711 0 0 0 .14 2.108 1.968 1.968 0 0 1 1.214 1.117Zm-5.011-14.393a3.694 3.694 0 0 0-1.07-2.624 3.692 3.692 0 0 0-2.616-1.089h-4.411v7.371h4.453a3.668 3.668 0 0 0 2.563-1.071 3.667 3.667 0 0 0 1.081-2.559v-.028ZM186.157 161.573v-21.121a1.927 1.927 0 0 1 .568-1.401 1.953 1.953 0 0 1 1.4-.568h11.712a1.981 1.981 0 0 1 1.969 1.969 2.027 2.027 0 0 1-1.969 2.01h-9.772v6.547h8.376a2 2 0 0 1 1.83 1.989 1.998 1.998 0 0 1-1.83 1.99h-8.376v6.589h9.772a1.986 1.986 0 0 1 1.983 1.982 1.982 1.982 0 0 1-1.983 1.982h-11.67a1.965 1.965 0 0 1-2.01-1.968ZM206.608 157.315a1.87 1.87 0 0 1 2.611-.251 11.776 11.776 0 0 0 6.84 2.792 7.746 7.746 0 0 0 4.467-1.326 3.253 3.253 0 0 0 1.55-2.583 2.116 2.116 0 0 0-.321-1.145 3.564 3.564 0 0 0-1.075-1.074 14.55 14.55 0 0 0-4.914-1.69h-.07a19.592 19.592 0 0 1-4.621-1.396 7.64 7.64 0 0 1-3.322-2.792 5.402 5.402 0 0 1-.824-2.931 6.646 6.646 0 0 1 2.862-5.235 10.612 10.612 0 0 1 6.198-1.885 13.962 13.962 0 0 1 7.804 2.792 1.844 1.844 0 0 1 .502 2.541 1.817 1.817 0 0 1-1.877.805 1.817 1.817 0 0 1-.663-.275 10.433 10.433 0 0 0-5.766-2.289 6.973 6.973 0 0 0-4.02 1.214 2.855 2.855 0 0 0-1.396 2.262 1.73 1.73 0 0 0 .251 1.005c.261.364.588.677.963.921 1.404.849 2.967 1.4 4.593 1.62 1.703.299 3.362.805 4.942 1.507a8.382 8.382 0 0 1 3.574 2.974c.569.913.869 1.968.865 3.043a6.888 6.888 0 0 1-3.085 5.584 11.167 11.167 0 0 1-6.617 2.052 15.437 15.437 0 0 1-9.172-3.587 1.903 1.903 0 0 1-.279-2.653ZM231.275 161.573v-21.121a1.924 1.924 0 0 1 1.969-1.969h11.712a1.981 1.981 0 0 1 1.968 1.969 2.026 2.026 0 0 1-1.968 2.01h-9.702v6.547h8.376a1.995 1.995 0 0 1 0 3.979h-8.376v6.589h9.702a1.981 1.981 0 1 1 0 3.964H233.272a1.952 1.952 0 0 1-1.997-1.968ZM267.837 142.462h-5.696v19.111a1.97 1.97 0 0 1-3.937 0v-19.111h-5.668a1.997 1.997 0 0 1-1.968-2.01 1.945 1.945 0 0 1 1.211-1.827c.24-.097.498-.146.757-.142h15.356a1.96 1.96 0 0 1 1.396.573 1.947 1.947 0 0 1 .573 1.396 2.027 2.027 0 0 1-2.024 2.01ZM172.155 191.098h-4.398v7.776a1.996 1.996 0 0 1-3.978 0v-21.135a1.969 1.969 0 0 1 1.968-1.969h6.408a7.678 7.678 0 0 1 0 15.356v-.028Zm-4.398-4.034h4.398a3.686 3.686 0 1 0 0-7.371h-4.398v7.371ZM194.937 194.937h-8.711l-1.745 4.691a1.995 1.995 0 0 1-3.591.053 1.995 1.995 0 0 1-.136-1.449l7.915-21.08c.149-.379.412-.703.751-.928a1.99 1.99 0 0 1 1.148-.328 1.957 1.957 0 0 1 1.899 1.256l7.915 21.08a2.052 2.052 0 0 1-1.187 2.583c-.22.076-.451.114-.684.111a1.956 1.956 0 0 1-1.829-1.256l-1.745-4.733Zm-1.396-3.95-2.903-7.692-2.904 7.692h5.807ZM203.886 194.602a1.871 1.871 0 0 1 2.61-.251 11.601 11.601 0 0 0 6.841 2.792 7.792 7.792 0 0 0 4.481-1.326 3.197 3.197 0 0 0 1.535-2.583 2.093 2.093 0 0 0-.321-1.144 3.696 3.696 0 0 0-1.075-1.075 14.55 14.55 0 0 0-4.913-1.676h-.07a19.592 19.592 0 0 1-4.621-1.396 7.727 7.727 0 0 1-3.322-2.792 5.47 5.47 0 0 1-.824-2.945 6.621 6.621 0 0 1 2.862-5.221 10.628 10.628 0 0 1 6.198-1.899 14.106 14.106 0 0 1 7.804 2.792 1.844 1.844 0 0 1 .502 2.541 1.799 1.799 0 0 1-2.541.544 10.43 10.43 0 0 0-5.765-2.289 6.824 6.824 0 0 0-4.007 1.215 2.798 2.798 0 0 0-1.396 2.247 1.71 1.71 0 0 0 .252 1.005c.256.373.583.69.963.936a12.478 12.478 0 0 0 4.509 1.591h.07c1.702.295 3.361.796 4.942 1.494a8.371 8.371 0 0 1 3.573 2.973 5.78 5.78 0 0 1 .866 3.043 6.889 6.889 0 0 1-3.085 5.584 11.168 11.168 0 0 1-6.617 2.039 15.473 15.473 0 0 1-9.172-3.574 1.913 1.913 0 0 1-.279-2.625ZM227.408 194.602a1.876 1.876 0 0 1 2.611-.251 11.6 11.6 0 0 0 6.84 2.792 7.787 7.787 0 0 0 4.481-1.326 3.2 3.2 0 0 0 1.536-2.583 2.102 2.102 0 0 0-.321-1.144 3.696 3.696 0 0 0-1.075-1.075 14.474 14.474 0 0 0-4.9-1.676h-.084a19.278 19.278 0 0 1-4.606-1.396 7.684 7.684 0 0 1-3.337-2.792 5.595 5.595 0 0 1-.824-2.945 6.622 6.622 0 0 1 2.862-5.221 10.63 10.63 0 0 1 6.199-1.899 14.103 14.103 0 0 1 7.803 2.792 1.846 1.846 0 0 1 .503 2.541 1.804 1.804 0 0 1-2.541.544 10.433 10.433 0 0 0-5.765-2.289 6.869 6.869 0 0 0-4.007 1.215 2.79 2.79 0 0 0-1.396 2.247c-.023.353.065.704.251 1.005.256.373.584.69.964.936 1.379.806 2.9 1.341 4.481 1.577h.069c1.703.295 3.362.796 4.942 1.494a8.463 8.463 0 0 1 3.588 2.973c.556.918.85 1.97.852 3.044a6.985 6.985 0 0 1-3.072 5.584 11.272 11.272 0 0 1-6.631 2.038 15.47 15.47 0 0 1-9.171-3.574 1.912 1.912 0 0 1-.252-2.611ZM284.198 178.688l-8.781 20.94a.936.936 0 0 1-.168.335 2.15 2.15 0 0 1-.181.223v.098c-.09.051-.175.112-.251.182-.112 0-.182.181-.322.209a1.759 1.759 0 0 0-.293.07.891.891 0 0 1-.349 0 .943.943 0 0 1-.335 0h-.097a1.386 1.386 0 0 0-.252-.07h-.07a.619.619 0 0 1-.321-.209l-.251-.182v-.098c0-.083-.112-.153-.139-.223-.028-.07-.07 0-.07 0a.922.922 0 0 1-.154-.335l-4.69-11.168-5.026 11.168a1.784 1.784 0 0 1-.14.335l-.223.223v.098a.89.89 0 0 0-.223.182h-.07c-.112 0-.21.181-.279.209a.62.62 0 0 0-.28.07h-.111a.866.866 0 0 1-.321 0c-.12.02-.243.02-.363 0h-.098a1.354 1.354 0 0 0-.251-.07h-.07a.847.847 0 0 1-.321-.209c-.112-.07-.14-.14-.251-.182v-.098c-.07-.083-.112-.153-.182-.223a3.483 3.483 0 0 1-.181-.335l-8.809-20.94a1.94 1.94 0 0 1 1.075-2.541 1.921 1.921 0 0 1 2.541 1.033l6.98 16.585 4.369-10.889a1.969 1.969 0 0 1 1.857-1.228 2.061 2.061 0 0 1 1.87 1.228l4.621 10.987 7.008-16.571a1.996 1.996 0 0 1 2.611-1.033 1.926 1.926 0 0 1 .991 2.429ZM309.144 178.883a13.123 13.123 0 0 1 0 18.148 11.695 11.695 0 0 1-8.557 3.839 12.053 12.053 0 0 1-8.767-3.839 13.344 13.344 0 0 1 0-18.148 11.954 11.954 0 0 1 3.983-2.829 11.952 11.952 0 0 1 4.784-.996 11.609 11.609 0 0 1 8.557 3.825Zm-.46 9.06a9.298 9.298 0 0 0-2.43-6.268 7.728 7.728 0 0 0-8.864-1.876 7.726 7.726 0 0 0-2.597 1.876 9.102 9.102 0 0 0-2.429 6.268 8.966 8.966 0 0 0 2.429 6.241 7.683 7.683 0 0 0 8.871 1.896 7.679 7.679 0 0 0 2.59-1.896 9.157 9.157 0 0 0 2.43-6.241ZM336.436 197.869a1.958 1.958 0 0 1-1.256 2.499 2.8 2.8 0 0 1-.782.112 2.633 2.633 0 0 1-1.396-.391 3.69 3.69 0 0 1-1.145-1.257 9.602 9.602 0 0 1-.754-4.299 2.945 2.945 0 0 0-.419-1.536 3.323 3.323 0 0 0-1.074-1.033 6.84 6.84 0 0 0-2.011-.866h-4.188v7.776a1.998 1.998 0 0 1-2.751 1.822 1.949 1.949 0 0 1-1.213-1.822v-21.135a1.93 1.93 0 0 1 .568-1.401 1.935 1.935 0 0 1 1.4-.568h6.408a7.655 7.655 0 0 1 5.434 2.26 7.659 7.659 0 0 1 2.23 5.446 7.569 7.569 0 0 1-2.792 5.863 6.03 6.03 0 0 1 1.256 1.396 6.858 6.858 0 0 1 1.173 3.867 9.793 9.793 0 0 0 .139 2.122 1.865 1.865 0 0 1 1.173 1.145Zm-5.012-14.393a3.672 3.672 0 0 0-1.064-2.633 3.686 3.686 0 0 0-2.621-1.094h-4.411v7.315h4.411a3.669 3.669 0 0 0 3.643-3.588h.042ZM342.201 198.874v-21.135a1.95 1.95 0 0 1 .569-1.401 1.935 1.935 0 0 1 1.4-.568h4.188a12.565 12.565 0 0 1 0 25.128h-4.188a1.953 1.953 0 0 1-1.969-2.024Zm4.007-2.038h2.22a8.558 8.558 0 0 0 0-17.115h-2.22v17.115Z"/><path fill="#000" d="M163.667 236.371v6.714a.28.28 0 1 1-.558 0v-7.524a.294.294 0 0 1 .097-.321.317.317 0 0 1 .215-.038.316.316 0 0 1 .19.108l4.97 6.896v-6.673a.295.295 0 0 1 .159-.328.295.295 0 0 1 .356.081.285.285 0 0 1 .057.247v7.552a.282.282 0 0 1-.086.203.278.278 0 0 1-.207.077.27.27 0 0 1-.223-.112l-4.97-6.882ZM171.568 240.503a2.796 2.796 0 0 1 2.688-2.897 2.795 2.795 0 0 1 2.896 2.687.266.266 0 0 1-.279.266h-4.746a2.277 2.277 0 0 0 2.233 2.205 2.15 2.15 0 0 0 1.843-1.047.278.278 0 0 1 .51.085.296.296 0 0 1-.035.223 2.799 2.799 0 0 1-2.318 1.298 2.795 2.795 0 0 1-2.587-1.743 2.799 2.799 0 0 1-.205-1.077Zm.601-.461h4.341a2.203 2.203 0 0 0-2.15-1.856 2.234 2.234 0 0 0-2.191 1.926v-.07ZM180.74 243.323a.282.282 0 0 1-.112-.14l-2.149-5.123a.26.26 0 0 1-.01-.212.26.26 0 0 1 .059-.091.276.276 0 0 1 .303-.058.28.28 0 0 1 .15.151l1.899 4.524 1.396-3.155a.306.306 0 0 1 .558 0l1.396 3.155 1.885-4.524a.309.309 0 0 1 .377-.153.259.259 0 0 1 .09.06.26.26 0 0 1 .076.198.277.277 0 0 1-.027.105l-2.136 5.109a.347.347 0 0 1-.111.14.256.256 0 0 1-.14 0 .282.282 0 0 1-.223-.182l-1.326-3.169-1.327 3.169a.282.282 0 0 1-.251.182h-.098l-.279.014ZM192.564 235.449a.28.28 0 0 1 .279-.279h2.318a2.331 2.331 0 0 1 0 4.663h-2.024v3.225a.282.282 0 0 1-.294.279.28.28 0 0 1-.279-.279v-7.609Zm2.597 3.839a1.798 1.798 0 0 0 1.773-1.787 1.774 1.774 0 0 0-1.773-1.758h-2.024v3.545h2.024ZM204.081 237.906v5.179a.28.28 0 1 1-.558 0v-.851a2.797 2.797 0 0 1-2.164 1.131 2.877 2.877 0 0 1 0-5.738 2.802 2.802 0 0 1 2.164 1.117v-.838a.28.28 0 0 1 .558 0Zm-.558 2.583a2.16 2.16 0 0 0-2.672-1.948 2.158 2.158 0 0 0-1.619 1.733 2.163 2.163 0 0 0 2.127 2.532 2.247 2.247 0 0 0 2.164-2.317ZM206.119 242.164a.286.286 0 0 1 .203-.087.278.278 0 0 1 .202.087 3.013 3.013 0 0 0 1.745.67c.399.011.789-.117 1.103-.363a.843.843 0 0 0 .433-.698.905.905 0 0 0-.419-.698 2.6 2.6 0 0 0-1.214-.419 3.3 3.3 0 0 1-1.299-.446 1.19 1.19 0 0 1-.614-1.033 1.396 1.396 0 0 1 .614-1.131c.42-.258.904-.388 1.396-.377.617.029 1.21.243 1.703.614.065.043.11.11.126.185a.299.299 0 0 1-.042.22.28.28 0 0 1-.377.084 2.495 2.495 0 0 0-1.396-.586 1.713 1.713 0 0 0-1.089.335.833.833 0 0 0-.363.656.672.672 0 0 0 .321.572c.356.221.757.36 1.173.405.491.062.965.218 1.396.461a1.4 1.4 0 0 1 .628 1.165 1.39 1.39 0 0 1-.628 1.166 2.36 2.36 0 0 1-1.396.461 3.44 3.44 0 0 1-2.108-.824.258.258 0 0 1-.167-.182.249.249 0 0 1 .004-.127.246.246 0 0 1 .065-.11ZM211.773 242.164a.254.254 0 0 1 .089-.063.264.264 0 0 1 .302.063c.503.4 1.117.635 1.759.67.395.014.781-.115 1.089-.363a.85.85 0 0 0 .433-.698.895.895 0 0 0-.405-.698 2.658 2.658 0 0 0-1.215-.419 3.234 3.234 0 0 1-1.298-.446 1.2 1.2 0 0 1-.628-1.033 1.394 1.394 0 0 1 .628-1.131 2.544 2.544 0 0 1 1.396-.377 3.118 3.118 0 0 1 1.717.614.293.293 0 0 1-.307.489 2.41 2.41 0 0 0-1.396-.586 1.764 1.764 0 0 0-1.089.335.878.878 0 0 0-.363.656.681.681 0 0 0 .335.572c.356.221.757.36 1.173.405.491.058.966.214 1.396.461a1.394 1.394 0 0 1 .642 1.172 1.406 1.406 0 0 1-.642 1.159 2.392 2.392 0 0 1-1.396.461 3.52 3.52 0 0 1-2.122-.824.272.272 0 0 1-.156-.185.26.26 0 0 1 .001-.124c.01-.04.03-.078.057-.11ZM219.675 243.323a.277.277 0 0 1-.112-.14l-2.15-5.123a.277.277 0 0 1-.027-.105.277.277 0 0 1 .076-.198.276.276 0 0 1 .304-.058.28.28 0 0 1 .15.151l1.898 4.524 1.326-3.155a.308.308 0 0 1 .559 0l1.326 3.155 1.885-4.524a.293.293 0 0 1 .363-.153.253.253 0 0 1 .094.057.257.257 0 0 1 .084.198.267.267 0 0 1-.025.108l-2.066 5.109a.34.34 0 0 1-.112.14.253.253 0 0 1-.139 0 .278.278 0 0 1-.224-.182l-1.326-3.169-1.396 3.169a.282.282 0 0 1-.251.182h-.098l-.139.014ZM230.005 237.627a2.877 2.877 0 1 1-2.722 2.862 2.792 2.792 0 0 1 2.722-2.862Zm0 5.179a2.318 2.318 0 1 0-2.15-2.317 2.245 2.245 0 0 0 2.15 2.317ZM234.654 237.92a.277.277 0 0 1 .293-.279c.036 0 .071.007.105.022a.254.254 0 0 1 .087.061.26.26 0 0 1 .073.196v1.257l.084-.14a2.796 2.796 0 0 1 2.289-1.396.268.268 0 0 1 .202.077.27.27 0 0 1 .077.202.283.283 0 0 1-.081.198.283.283 0 0 1-.198.081 2.064 2.064 0 0 0-1.661.936 4.582 4.582 0 0 0-.684 1.396.134.134 0 0 0 0 .084v2.526a.28.28 0 0 1-.265.28.279.279 0 0 1-.111-.018.28.28 0 0 1-.16-.152.274.274 0 0 1-.022-.11l-.028-5.221ZM244.091 242.248a2.8 2.8 0 0 1-2.206 1.117 2.877 2.877 0 0 1 0-5.738 2.8 2.8 0 0 1 2.206 1.117v-3.295a.28.28 0 0 1 .086-.202.283.283 0 0 1 .207-.077.28.28 0 0 1 .279.279v7.636a.28.28 0 0 1-.279.28.278.278 0 0 1-.293-.28v-.837Zm0-1.647v-.196a2.292 2.292 0 0 0-3.924-1.504 2.29 2.29 0 1 0 3.924 1.7Z"/><path fill="#EBEBEB" d="M367.497 249.284H162.313v22.447h205.184v-22.447Z"/><path fill="#000" d="M166.976 282.467c.96 0 1.892.32 2.652.907a.294.294 0 0 1-.092.469.282.282 0 0 1-.221 0 .293.293 0 0 1-.092-.064 3.728 3.728 0 0 0-2.289-.796 3.587 3.587 0 1 0 0 7.176 3.505 3.505 0 0 0 2.275-.796.305.305 0 0 1 .39.077.31.31 0 0 1 .067.201.312.312 0 0 1-.08.197 4.344 4.344 0 0 1-2.652.893 4.188 4.188 0 1 1 0-8.376l.042.112ZM174.305 285.049a2.873 2.873 0 0 1 3.006 3.332 2.882 2.882 0 0 1-3.907 2.209 2.88 2.88 0 0 1-1.808-2.679 2.794 2.794 0 0 1 2.709-2.862Zm0 5.179a2.313 2.313 0 0 0 2.256-1.308 2.317 2.317 0 1 0-4.406-1.009 2.257 2.257 0 0 0 2.15 2.317ZM183.295 287.395a1.77 1.77 0 0 0-1.815-1.773 1.8 1.8 0 0 0-1.787 1.773v3.28a.24.24 0 0 1-.091.082.244.244 0 0 1-.118.03h-.07a.294.294 0 0 1-.182-.154v-5.291a.256.256 0 0 1 .018-.109.257.257 0 0 1 .06-.093.282.282 0 0 1 .092-.06.273.273 0 0 1 .11-.017.25.25 0 0 1 .104.022.27.27 0 0 1 .161.257v.545a2.33 2.33 0 0 1 4.118 1.508v3.113a.28.28 0 0 1-.558 0l-.042-3.113ZM188.907 282.885a.296.296 0 0 1-.279.28c-.405 0-.615.083-.726.223a1.396 1.396 0 0 0-.238.949v.615h.796a.285.285 0 0 1 .247.057.289.289 0 0 1 .11.229.295.295 0 0 1-.227.285.3.3 0 0 1-.13.001h-.81v4.998a.29.29 0 0 1-.279.279.292.292 0 0 1-.293-.279v-4.998h-.768a.278.278 0 0 1-.202-.087.279.279 0 0 1-.077-.206.28.28 0 0 1 .279-.279h.754v-.615a1.955 1.955 0 0 1 .363-1.396 1.564 1.564 0 0 1 1.173-.419.304.304 0 0 1 .302.229.32.32 0 0 1 .005.134ZM190.624 283.458a.285.285 0 0 1 .057-.247.295.295 0 0 1 .458 0 .297.297 0 0 1 .057.117.3.3 0 0 1 0 .13v.265a.3.3 0 0 1 0 .13.297.297 0 0 1-.159.198.295.295 0 0 1-.356-.081.285.285 0 0 1-.057-.247v-.265Zm0 1.87a.257.257 0 0 1 .077-.201.264.264 0 0 1 .202-.078.278.278 0 0 1 .293.279v5.18a.28.28 0 0 1-.086.202.283.283 0 0 1-.207.077.28.28 0 0 1-.279-.279v-5.18ZM193.904 285.342a.282.282 0 0 1 .294-.279.28.28 0 0 1 .279.279v1.257c.02-.048.044-.095.07-.14a2.788 2.788 0 0 1 2.303-1.396.271.271 0 0 1 .202.077.27.27 0 0 1 .077.202.28.28 0 0 1-.279.28 2.046 2.046 0 0 0-1.661.935 5.116 5.116 0 0 0-.698 1.396.237.237 0 0 0 0 .084v2.526a.297.297 0 0 1-.103.166.297.297 0 0 1-.367 0 .297.297 0 0 1-.103-.166l-.014-5.221ZM207.264 287.395a1.817 1.817 0 0 0-1.787-1.787 1.787 1.787 0 0 0-1.759 1.787v3.182a.303.303 0 0 1-.139.154.277.277 0 0 1-.14 0h-.084V287.506a1.771 1.771 0 0 0-3.026-1.253 1.777 1.777 0 0 0-.52 1.253v3.127a.27.27 0 0 1-.125.224h-.112a.307.307 0 0 1-.237-.21v-5.249c0-.07.028-.138.078-.187a.263.263 0 0 1 .187-.078.27.27 0 0 1 .258.16.273.273 0 0 1 .021.105v.545a2.298 2.298 0 0 1 1.773-.81 2.328 2.328 0 0 1 2.052 1.215 2.37 2.37 0 0 1 2.052-1.215 2.309 2.309 0 0 1 1.653.679 2.304 2.304 0 0 1 .679 1.652v3.127a.268.268 0 0 1-.279.266.265.265 0 0 1-.266-.266l-.279-3.196ZM214.44 283.793v6.715a.28.28 0 0 1-.559 0v-7.525a.294.294 0 0 1 .098-.321.322.322 0 0 1 .405.07l4.969 6.896v-6.673a.3.3 0 0 1 .058-.247.289.289 0 0 1 .229-.11.287.287 0 0 1 .228.11.3.3 0 0 1 .058.247v7.553a.282.282 0 0 1-.293.279.273.273 0 0 1-.126-.028.273.273 0 0 1-.098-.084l-4.969-6.882ZM222.341 287.925a2.794 2.794 0 1 1 5.584-.209.28.28 0 0 1-.279.265h-4.719a2.261 2.261 0 0 0 2.234 2.206 2.161 2.161 0 0 0 1.843-1.047.28.28 0 0 1 .376-.098c.065.043.11.108.128.183a.302.302 0 0 1-.03.222 2.79 2.79 0 0 1-2.317 1.298 2.795 2.795 0 0 1-2.613-1.736 2.798 2.798 0 0 1-.207-1.084Zm.6-.461h4.342a2.206 2.206 0 0 0-2.15-1.856 2.23 2.23 0 0 0-2.192 1.856ZM231.513 290.745a.277.277 0 0 1-.112-.14l-2.15-5.123a.277.277 0 0 1-.027-.105.28.28 0 0 1 .076-.198.277.277 0 0 1 .454.094l1.898 4.523 1.326-3.155a.308.308 0 0 1 .559 0l1.312 3.155 1.899-4.523a.293.293 0 0 1 .363-.154.267.267 0 0 1 .153.363l-2.136 5.109a.347.347 0 0 1-.111.14.301.301 0 0 1-.14 0 .278.278 0 0 1-.223-.182l-1.327-3.168-1.396 3.168a.273.273 0 0 1-.098.129.272.272 0 0 1-.153.053h-.098l-.069.014ZM243.337 282.871a.28.28 0 0 1 .279-.279h2.317a2.332 2.332 0 1 1 0 4.663h-2.024v3.225a.277.277 0 0 1-.293.279.28.28 0 0 1-.279-.279v-7.609Zm2.596 3.839a1.798 1.798 0 0 0 1.773-1.786 1.77 1.77 0 0 0-1.773-1.759h-2.024v3.545h2.024ZM254.854 285.328v5.18a.298.298 0 0 1-.103.165.297.297 0 0 1-.367 0 .298.298 0 0 1-.103-.165v-.852a2.684 2.684 0 0 1-2.149 1.131 2.873 2.873 0 0 1-2.676-2.869 2.873 2.873 0 0 1 2.676-2.869 2.666 2.666 0 0 1 2.149 1.117v-.838a.282.282 0 0 1 .294-.279.28.28 0 0 1 .279.279Zm-.573 2.583a2.155 2.155 0 0 0-2.662-1.919 2.15 2.15 0 0 0 .513 4.236 2.223 2.223 0 0 0 1.555-.713 2.219 2.219 0 0 0 .594-1.604ZM256.864 289.586a.282.282 0 0 1 .313-.064.293.293 0 0 1 .092.064 3.013 3.013 0 0 0 1.745.67c.395.014.781-.115 1.089-.363a.815.815 0 0 0 .432-.698.844.844 0 0 0-.404-.698 2.656 2.656 0 0 0-1.215-.418 3.32 3.32 0 0 1-1.298-.447 1.186 1.186 0 0 1-.614-1.033 1.396 1.396 0 0 1 .614-1.131 2.561 2.561 0 0 1 1.396-.377c.616.029 1.21.243 1.703.614a.306.306 0 0 1 .12.187.303.303 0 0 1-.036.218.306.306 0 0 1-.391.084 2.412 2.412 0 0 0-1.396-.586 1.71 1.71 0 0 0-1.089.335.833.833 0 0 0-.363.656.67.67 0 0 0 .321.572c.356.221.756.36 1.173.405.49.062.965.218 1.396.461a1.4 1.4 0 0 1 .628 1.165 1.402 1.402 0 0 1-.628 1.166c-.405.298-.894.46-1.396.461a3.435 3.435 0 0 1-2.108-.824.26.26 0 0 1-.104-.072.256.256 0 0 1-.048-.24.262.262 0 0 1 .068-.107ZM262.546 289.586a.274.274 0 0 1 .195-.086.267.267 0 0 1 .196.086 3.087 3.087 0 0 0 1.759.67 1.64 1.64 0 0 0 1.088-.363.846.846 0 0 0 .433-.698.895.895 0 0 0-.405-.698 2.664 2.664 0 0 0-1.228-.418 3.225 3.225 0 0 1-1.298-.447 1.203 1.203 0 0 1-.629-1.033 1.396 1.396 0 0 1 .629-1.131c.418-.26.903-.391 1.396-.377.62.029 1.218.243 1.717.614a.31.31 0 0 1 .083.405.3.3 0 0 1-.18.114.301.301 0 0 1-.21-.03 2.412 2.412 0 0 0-1.396-.586 1.764 1.764 0 0 0-1.089.335.888.888 0 0 0-.363.656.68.68 0 0 0 .335.572c.355.221.756.36 1.172.405.492.057.967.214 1.396.461a1.391 1.391 0 0 1 .461 1.827 1.386 1.386 0 0 1-.461.504 2.318 2.318 0 0 1-1.396.461 3.522 3.522 0 0 1-2.122-.824.284.284 0 0 1-.096-.076.272.272 0 0 1-.047-.235.268.268 0 0 1 .06-.108ZM270.447 290.745a.282.282 0 0 1-.112-.14l-2.163-5.123a.28.28 0 0 1-.009-.221.287.287 0 0 1 .061-.095.263.263 0 0 1 .095-.063.264.264 0 0 1 .221.005.276.276 0 0 1 .148.165l1.899 4.523 1.326-3.155a.308.308 0 0 1 .265-.182.32.32 0 0 1 .293.182l1.312 3.155 1.899-4.523a.29.29 0 0 1 .152-.147.29.29 0 0 1 .211-.007.28.28 0 0 1 .154.363l-2.136 5.109a.544.544 0 0 1-.112.14.301.301 0 0 1-.14 0 .275.275 0 0 1-.136-.06.272.272 0 0 1-.087-.122l-1.396-3.168-1.312 3.168a.28.28 0 0 1-.251.182h-.098l-.084.014ZM280.777 285.049a2.877 2.877 0 1 1-2.722 2.862 2.792 2.792 0 0 1 2.722-2.862Zm0 5.179a2.318 2.318 0 1 0-2.163-2.317 2.247 2.247 0 0 0 2.163 2.317ZM285.412 285.342a.282.282 0 0 1 .293-.279.28.28 0 0 1 .28.279v1.257a.508.508 0 0 1 .083-.14 2.796 2.796 0 0 1 2.29-1.396.271.271 0 0 1 .202.077.271.271 0 0 1 .077.202.28.28 0 0 1-.279.28 2.046 2.046 0 0 0-1.661.935 5.116 5.116 0 0 0-.698 1.396.237.237 0 0 0 0 .084v2.526a.297.297 0 0 1-.103.166.298.298 0 0 1-.367 0 .297.297 0 0 1-.103-.166l-.014-5.221ZM294.863 289.67a2.797 2.797 0 0 1-2.206 1.117 2.873 2.873 0 0 1-1.902-.908 2.872 2.872 0 0 1 0-3.922 2.873 2.873 0 0 1 1.902-.908 2.797 2.797 0 0 1 2.206 1.117v-3.295a.282.282 0 0 1 .293-.279.278.278 0 0 1 .279.279v7.637a.278.278 0 0 1-.279.279.28.28 0 0 1-.27-.169.282.282 0 0 1-.023-.11v-.838Zm0-1.647v-.196a2.286 2.286 0 0 0-2.336-2.191 2.293 2.293 0 0 0-2.241 2.289 2.29 2.29 0 0 0 4.577.098Z"/><path fill="#EBEBEB" d="M367.497 296.706H162.313v22.448h205.184v-22.448Z"/><path fill="#DBDBDB" d="M490.094 215.305v37.497h-10.61v-37.497c0-14.267-10.833-25.868-24.151-25.868-13.317 0-24.164 11.601-24.164 25.868v37.497h-10.596v-37.497c0-20.423 15.593-37.036 34.76-37.036 19.167 0 34.761 16.613 34.761 37.036Z"/><path fill="#C7C7C7" d="m420.573 225.049 10.596.433v27.32h-10.596v-27.753ZM490.08 227.883v24.919h-10.596V227.45l10.596.433Z"/><path fill="#BAE8E8" d="M503.677 238.925H406.99v80.242h96.687v-80.242Z"/><path fill="#000" d="M455.333 238.925H406.99v80.242h48.343v-80.242Z" opacity=".1"/><path fill="#263238" d="m459.87 278.516 4.049 19.209H446.72l4.048-19.209a8.602 8.602 0 0 1-3.724-9.664 8.596 8.596 0 0 1 8.268-6.236 8.596 8.596 0 0 1 8.269 6.236 8.604 8.604 0 0 1-3.725 9.664h.014Z"/><path fill="#37474F" d="m540.489 244.3-4.327-.698a32.738 32.738 0 0 0-60.587-21.638l-3.881-2.038a37.125 37.125 0 0 1 44.525-16.398 37.12 37.12 0 0 1 24.27 40.772Z"/><path fill="#37474F" d="m535.003 244.426.168-.992a31.733 31.733 0 0 0-20.694-34.789 31.73 31.73 0 0 0-38.036 13.849l-.489.824-5.654-2.973.531-.908a38.128 38.128 0 0 1 45.786-16.847 38.124 38.124 0 0 1 24.865 41.975l-.167.991-6.31-1.13Zm-24.067-38.977a33.743 33.743 0 0 1 26.343 37.315l2.345.377a36.103 36.103 0 0 0-23.691-38.756 36.1 36.1 0 0 0-42.843 15.094l2.094 1.103a33.705 33.705 0 0 1 35.752-15.133Z"/><path fill="#37474F" d="m531.094 240.419 2.01-1.577 4.747 6.365 5.989-5.095 1.466 1.996-8.014 6.799-6.198-8.488Z"/><path fill="#37474F" d="m537.125 250.373-7.413-10.135 3.574-2.792 4.732 6.324 5.975-5.082 2.681 3.602-9.549 8.083Zm-4.649-9.772 4.998 6.826 6.477-5.5-.279-.363-5.989 5.081-4.774-6.393-.433.349ZM466.85 233.495l4.328.698a32.738 32.738 0 0 0 21.299 35.976 32.734 32.734 0 0 0 39.287-14.296l3.881 2.038a37.12 37.12 0 0 1-68.795-24.416Z"/><path fill="#37474F" d="M495.468 276.603a38.094 38.094 0 0 1-29.595-43.276l.154-.991 6.31 1.005-.168.992a31.73 31.73 0 0 0 58.73 21.023l.488-.837 5.654 2.973-.53.908a38.013 38.013 0 0 1-41.043 18.203Zm-27.766-41.88a36.115 36.115 0 0 0 66.547 23.537l-2.108-1.103a33.744 33.744 0 0 1-39.974 13.921 33.744 33.744 0 0 1-22.12-36.089l-2.345-.266Z"/><path fill="#37474F" d="m476.245 237.362-2.01 1.577-4.746-6.365-5.975 5.095-1.48-1.996 8.013-6.799 6.198 8.488Z"/><path fill="#37474F" d="m463.346 239.121-2.666-3.602 9.549-8.111 7.412 10.135-3.573 2.792-4.719-6.324-6.003 5.11Zm0-3.281.28.363 5.974-5.081 4.775 6.393.433-.349-4.942-6.826-6.52 5.5Z"/><path fill="#263238" d="M177.892 257.506a13.383 13.383 0 0 1-6.003 6.003 11.62 11.62 0 0 1 2.499-3.49 11.896 11.896 0 0 1 3.504-2.513Z"/><path fill="#263238" d="M171.889 257.506a11.988 11.988 0 0 1 3.49 2.513c1.048.997 1.9 2.181 2.513 3.49a13.21 13.21 0 0 1-6.003-6.003Z"/><path fill="#263238" d="M179.135 260.508a12.264 12.264 0 0 1-4.188.698 11.852 11.852 0 0 1-4.188-.698c1.34-.49 2.761-.727 4.188-.698 1.426-.02 2.845.216 4.188.698Z"/><path fill="#263238" d="M174.891 256.264a13.244 13.244 0 0 1 0 8.487 13.244 13.244 0 0 1 0-8.487ZM192.522 257.506a11.818 11.818 0 0 1-2.512 3.49 11.634 11.634 0 0 1-3.49 2.513 13.385 13.385 0 0 1 6.002-6.003Z"/><path fill="#263238" d="M186.52 257.506a13.385 13.385 0 0 1 6.002 6.003 11.634 11.634 0 0 1-3.49-2.513 11.818 11.818 0 0 1-2.512-3.49Z"/><path fill="#263238" d="M193.765 260.508a12.216 12.216 0 0 1-4.188.698 11.901 11.901 0 0 1-4.188-.698 11.563 11.563 0 0 1 4.188-.698 11.86 11.86 0 0 1 4.188.698Z"/><path fill="#263238" d="M189.521 256.264c.476 1.344.712 2.762.698 4.188a11.928 11.928 0 0 1-.698 4.188 11.631 11.631 0 0 1-.698-4.188 12.188 12.188 0 0 1 .698-4.188ZM207.152 257.506a12.03 12.03 0 0 1-2.498 3.49 11.896 11.896 0 0 1-3.504 2.513 11.631 11.631 0 0 1 2.512-3.49 12.015 12.015 0 0 1 3.49-2.513Z"/><path fill="#263238" d="M201.15 257.506a11.896 11.896 0 0 1 3.504 2.513 11.6 11.6 0 0 1 2.498 3.49 13.385 13.385 0 0 1-6.002-6.003Z"/><path fill="#263238" d="M208.395 260.508a12.164 12.164 0 0 1-4.188.698 11.947 11.947 0 0 1-4.188-.698 11.606 11.606 0 0 1 4.188-.698 11.811 11.811 0 0 1 4.188.698Z"/><path fill="#263238" d="M204.151 256.264a13.244 13.244 0 0 1 0 8.487 13.244 13.244 0 0 1 0-8.487ZM221.796 257.506a13.385 13.385 0 0 1-6.002 6.003 11.586 11.586 0 0 1 2.499-3.49 11.879 11.879 0 0 1 3.503-2.513Z"/><path fill="#263238" d="M215.794 257.506a12.015 12.015 0 0 1 3.49 2.513 11.631 11.631 0 0 1 2.512 3.49 11.879 11.879 0 0 1-3.503-2.513 12.015 12.015 0 0 1-2.499-3.49Z"/><path fill="#263238" d="M223.039 260.508a12.264 12.264 0 0 1-4.188.698 11.852 11.852 0 0 1-4.188-.698 11.52 11.52 0 0 1 4.188-.698c1.426-.02 2.845.216 4.188.698Z"/><path fill="#263238" d="M218.795 256.264a13.244 13.244 0 0 1 0 8.487 13.244 13.244 0 0 1 0-8.487ZM236.427 257.506a11.821 11.821 0 0 1-2.513 3.49 11.634 11.634 0 0 1-3.49 2.513 11.617 11.617 0 0 1 2.513-3.49 11.796 11.796 0 0 1 3.49-2.513Z"/><path fill="#263238" d="M230.424 257.506a13.393 13.393 0 0 1 6.003 6.003 11.622 11.622 0 0 1-3.49-2.513 11.803 11.803 0 0 1-2.513-3.49Z"/><path fill="#263238" d="M237.669 260.508a12.212 12.212 0 0 1-4.188.698 11.901 11.901 0 0 1-4.188-.698 11.563 11.563 0 0 1 4.188-.698 11.856 11.856 0 0 1 4.188.698Z"/><path fill="#263238" d="M233.425 256.264c.476 1.344.712 2.762.698 4.188a11.631 11.631 0 0 1-.698 4.188 11.928 11.928 0 0 1-.698-4.188 12.188 12.188 0 0 1 .698-4.188ZM251.057 257.506a11.76 11.76 0 0 1-2.499 3.49 12.015 12.015 0 0 1-3.49 2.513 11.348 11.348 0 0 1 2.499-3.49 11.988 11.988 0 0 1 3.49-2.513Z"/><path fill="#263238" d="M245.068 257.506a12.015 12.015 0 0 1 3.49 2.513 11.603 11.603 0 0 1 2.499 3.49 11.988 11.988 0 0 1-3.49-2.513 11.76 11.76 0 0 1-2.499-3.49Z"/><path fill="#263238" d="M252.299 260.508a12.164 12.164 0 0 1-4.188.698 11.807 11.807 0 0 1-4.188-.698 11.478 11.478 0 0 1 4.188-.698 11.807 11.807 0 0 1 4.188.698Z"/><path fill="#263238" d="M248.055 256.264a13.244 13.244 0 0 1 0 8.487 13.244 13.244 0 0 1 0-8.487ZM265.701 257.506a13.393 13.393 0 0 1-6.003 6.003 11.586 11.586 0 0 1 2.499-3.49 11.883 11.883 0 0 1 3.504-2.513Z"/><path fill="#263238" d="M259.656 257.506a12.001 12.001 0 0 1 3.49 2.513 11.652 11.652 0 0 1 2.513 3.49 11.883 11.883 0 0 1-3.504-2.513 12.015 12.015 0 0 1-2.499-3.49Z"/><path fill="#263238" d="M266.943 260.508a12.264 12.264 0 0 1-4.188.698 11.856 11.856 0 0 1-4.188-.698 11.52 11.52 0 0 1 4.188-.698c1.427-.02 2.845.216 4.188.698Z"/><path fill="#263238" d="M262.699 256.264a13.244 13.244 0 0 1 0 8.487 13.244 13.244 0 0 1 0-8.487ZM177.892 304.942a12.234 12.234 0 0 1-2.513 3.49 11.97 11.97 0 0 1-3.49 2.513 11.847 11.847 0 0 1 2.499-3.504 12.091 12.091 0 0 1 3.504-2.499Z"/><path fill="#263238" d="M171.889 304.942a12.22 12.22 0 0 1 3.49 2.499 11.878 11.878 0 0 1 2.513 3.504 13.21 13.21 0 0 1-6.003-6.003Z"/><path fill="#263238" d="M179.135 307.944a13.26 13.26 0 0 1-8.488 0 13.247 13.247 0 0 1 8.488 0Z"/><path fill="#263238" d="M174.891 303.7a13.244 13.244 0 0 1 0 8.487 13.244 13.244 0 0 1 0-8.487ZM192.522 304.942a11.98 11.98 0 0 1-2.512 3.49 11.617 11.617 0 0 1-3.49 2.513 13.203 13.203 0 0 1 6.002-6.003Z"/><path fill="#263238" d="M186.52 304.942a13.203 13.203 0 0 1 6.002 6.003 11.617 11.617 0 0 1-3.49-2.513 11.98 11.98 0 0 1-2.512-3.49Z"/><path fill="#263238" d="M193.765 307.944a13.26 13.26 0 0 1-8.488 0 13.247 13.247 0 0 1 8.488 0Z"/><path fill="#263238" d="M189.521 303.7a12.14 12.14 0 0 1 .698 4.188 11.928 11.928 0 0 1-.698 4.188 11.631 11.631 0 0 1-.698-4.188 12.14 12.14 0 0 1 .698-4.188ZM207.152 304.942a12.198 12.198 0 0 1-2.498 3.49 11.878 11.878 0 0 1-3.504 2.513 11.875 11.875 0 0 1 2.512-3.504 12.249 12.249 0 0 1 3.49-2.499Z"/><path fill="#263238" d="M201.15 304.942a12.105 12.105 0 0 1 3.504 2.499 11.826 11.826 0 0 1 2.498 3.504 11.996 11.996 0 0 1-3.49-2.513 12.25 12.25 0 0 1-2.512-3.49Z"/><path fill="#263238" d="M208.395 307.944a13.26 13.26 0 0 1-8.488 0 13.247 13.247 0 0 1 8.488 0Z"/><path fill="#263238" d="M204.151 303.7a13.244 13.244 0 0 1 0 8.487 13.244 13.244 0 0 1 0-8.487ZM221.796 304.942a12.25 12.25 0 0 1-2.512 3.49 11.996 11.996 0 0 1-3.49 2.513 11.829 11.829 0 0 1 2.499-3.504 12.087 12.087 0 0 1 3.503-2.499Z"/><path fill="#263238" d="M215.794 304.942a12.249 12.249 0 0 1 3.49 2.499 11.875 11.875 0 0 1 2.512 3.504 11.861 11.861 0 0 1-3.503-2.513 12.182 12.182 0 0 1-2.499-3.49Z"/><path fill="#263238" d="M223.039 307.944a13.26 13.26 0 0 1-8.488 0 13.247 13.247 0 0 1 8.488 0Z"/><path fill="#263238" d="M218.795 303.7a13.244 13.244 0 0 1 0 8.487 13.244 13.244 0 0 1 0-8.487ZM223.5 300.684h-.922v14.519h.922v-14.519Z"/><path fill="#6A9898" d="M242.262 337.986h-79.558v22.964h79.558v-22.964Z"/><path fill="#fff" d="M171.247 350.201a4.37 4.37 0 0 1 4.37-4.3 4.428 4.428 0 0 1 2.792.935.697.697 0 0 1 .125.949.694.694 0 0 1-.949.14 2.985 2.985 0 0 0-1.926-.656 3.124 3.124 0 0 0-2.15.852c-.55.553-.861 1.3-.866 2.08a2.894 2.894 0 0 0 .866 2.066 3.14 3.14 0 0 0 2.15.865 3.019 3.019 0 0 0 1.926-.656.682.682 0 0 1 1.057.643.682.682 0 0 1-.233.446 4.415 4.415 0 0 1-2.792.921 4.34 4.34 0 0 1-4.37-4.285ZM187.148 347.185a4.383 4.383 0 0 1 0 6.031 3.92 3.92 0 0 1-2.792 1.27 4.088 4.088 0 0 1-2.932-1.27 4.47 4.47 0 0 1 0-6.031 3.99 3.99 0 0 1 2.932-1.284 3.835 3.835 0 0 1 2.792 1.284Zm-.154 3.016a3.125 3.125 0 0 0-.809-2.094 2.606 2.606 0 0 0-1.885-.838 2.618 2.618 0 0 0-1.941.838 3.056 3.056 0 0 0-.809 2.094c-.011.768.279 1.51.809 2.066a2.608 2.608 0 0 0 1.913.921 2.567 2.567 0 0 0 1.885-.866 2.997 2.997 0 0 0 .907-2.121h-.07ZM191.699 353.83a.66.66 0 0 1-.922.692.648.648 0 0 1-.357-.413.659.659 0 0 1-.02-.279v-6.98a.633.633 0 0 1 .266-.544.642.642 0 0 1 .893.139l3.881 5.347v-4.886a.655.655 0 0 1 1.312 0v6.98a.668.668 0 0 1-.656.656.601.601 0 0 1-.488-.237l-3.812-5.291-.097 4.816ZM204.556 347.464h-1.885v6.366a.656.656 0 1 1-1.312 0v-6.366h-1.885a.655.655 0 0 1-.656-.67.645.645 0 0 1 .656-.656h5.082a.656.656 0 0 1 .656.656.671.671 0 0 1-.656.67ZM207.264 346.794a.645.645 0 0 1 .656-.656.671.671 0 0 1 .67.656v6.98a.656.656 0 0 1-.67.656.632.632 0 0 1-.61-.402.65.65 0 0 1-.046-.254v-6.98ZM212.192 353.83a.657.657 0 0 1-1.146.524.658.658 0 0 1-.152-.524v-6.98a.621.621 0 0 1 .265-.544.657.657 0 0 1 .907.139l3.853 5.333v-4.872a.655.655 0 0 1 1.299 0v6.98a.657.657 0 0 1-.657.656.634.634 0 0 1-.488-.237l-3.881-5.417v4.942ZM222.871 354.486a3.44 3.44 0 0 1-2.442-1.006 3.442 3.442 0 0 1-1.006-2.442v-4.188a.642.642 0 0 1 .656-.656.671.671 0 0 1 .67.656v4.188a2.139 2.139 0 0 0 .477 1.717 2.116 2.116 0 0 0 1.617.748 2.123 2.123 0 0 0 2.094-2.465v-4.188a.697.697 0 1 1 1.396 0v4.188a3.432 3.432 0 0 1-1.014 2.443 3.454 3.454 0 0 1-2.448 1.005ZM228.511 353.83v-6.98a.656.656 0 0 1 .656-.656h3.965c.185 0 .363.074.494.204a.703.703 0 0 1 0 .988.703.703 0 0 1-.494.204h-3.239v2.178h2.792a.668.668 0 0 1 .469 1.129.656.656 0 0 1-.469.197h-2.792v2.094h3.239a.656.656 0 1 1 0 1.312h-3.909a.64.64 0 0 1-.271-.034.645.645 0 0 1-.39-.367.654.654 0 0 1-.051-.269Z"/><path fill="#EBEBEB" d="M269.428 350.201a4.37 4.37 0 0 1 4.369-4.3 4.424 4.424 0 0 1 2.792.935.698.698 0 0 1 .126.949.693.693 0 0 1-.949.14 2.988 2.988 0 0 0-1.927-.656 3.122 3.122 0 0 0-2.149.852 2.973 2.973 0 0 0-.866 2.08 2.895 2.895 0 0 0 .866 2.066 3.14 3.14 0 0 0 2.149.865 3.02 3.02 0 0 0 1.927-.656.679.679 0 0 1 .492-.103.686.686 0 0 1 .331 1.192 4.412 4.412 0 0 1-2.792.921 4.34 4.34 0 0 1-4.369-4.285ZM283.109 352.518h-2.904l-.586 1.549a.67.67 0 0 1-.614.419.68.68 0 0 1-.238 0 .694.694 0 0 1-.391-.865l2.639-6.98a.669.669 0 0 1 .628-.419.65.65 0 0 1 .642.419l2.625 6.98a.667.667 0 0 1-.169.727.674.674 0 0 1-.222.138.529.529 0 0 1-.224 0 .636.636 0 0 1-.614-.419l-.572-1.549Zm-.489-1.312-.977-2.555-.963 2.555h1.94ZM287.855 353.83a.657.657 0 0 1-1.146.524.658.658 0 0 1-.152-.524v-6.98a.622.622 0 0 1 .265-.544.658.658 0 0 1 .908.139l3.852 5.333v-4.872a.65.65 0 0 1 .189-.454.628.628 0 0 1 .454-.188.658.658 0 0 1 .656.642v6.98a.656.656 0 0 1-.929.596.598.598 0 0 1-.216-.177l-3.825-5.291-.056 4.816ZM295.366 350.201a4.395 4.395 0 0 1 4.383-4.3 4.454 4.454 0 0 1 2.792.935.7.7 0 0 1 .112.949.686.686 0 0 1-.949.14 2.92 2.92 0 0 0-1.913-.656 3.126 3.126 0 0 0-2.15.852 2.915 2.915 0 0 0-.879 2.08 2.794 2.794 0 0 0 .879 2.066 3.14 3.14 0 0 0 2.15.865 2.945 2.945 0 0 0 1.913-.656.689.689 0 0 1 .963.126c.111.144.16.327.136.507a.682.682 0 0 1-.262.456 4.441 4.441 0 0 1-2.792.921 4.352 4.352 0 0 1-4.383-4.285ZM304.928 353.83v-6.98a.645.645 0 0 1 .656-.656h3.895a.699.699 0 0 1 0 1.396h-3.225v2.178h2.792a.685.685 0 0 1 .657.656.67.67 0 0 1-.657.67h-2.792v2.094h3.225a.656.656 0 1 1 0 1.312h-3.895a.64.64 0 0 1-.656-.67ZM311.992 353.83v-6.98a.668.668 0 0 1 .663-.573.671.671 0 0 1 .663.573v6.338h3.239a.656.656 0 1 1 0 1.312h-3.853a.644.644 0 0 1-.506-.176.664.664 0 0 1-.206-.494Z"/><path fill="#D3766A" d="M501.164 463.067c-3.644 44.016-32.108 139.907-51.973 156.268-12.815 10.526-67.748 22.211-96.534 22.253-11.81 0-20.577-80.899-2.792-82.057 30.559-1.983 52.183-4.775 60.322-8.977 6.337-3.28 22.252-33.797 65.36-91.954 15.915-21.652 27.627-20.256 25.617 4.467Z"/><path fill="#D3766A" d="M368.209 639.885c-1.494.376-22.671 5.667-35.193 6.435-9.353.572-36.296 1.508-37.957-8.711-1.131-6.98 14.658-9.395 25.77-11.349 5.863-1.033 13.722-5.152 12.927-8.963-1.396-6.631-16.571-3.685-26.817-.446-19.838 6.254-47.325 19.362-56.036 8.054-3.294-4.271 2.792-9.339 11.015-13.806-12.746 4.495-25.938 7.566-29.777 2.96-2.22-2.625-1.717-5.431.488-8.279-3.699.349-6.7-.558-8.376-3.28-2.792-4.607.252-9.772 5.515-14.672a4.462 4.462 0 0 1-2.792-2.904c-5.012-13.443 41.056-38.46 55.016-38.613 41.224-.531 82.099 12.215 82.099 12.215 12.606 15.733 4.146 81.331 4.118 81.359Z"/><path fill="#263238" d="M318.735 590.927a68.194 68.194 0 0 0-28.353 4.188c-11.391 4.313-19.698 10.498-29.763 16.361a.237.237 0 0 0 .238.405c4.788-2.792 24.318-12.885 29.316-15.063a64.919 64.919 0 0 1 28.604-5.738c.069.028.069-.139-.042-.153ZM315.175 572.681c-10.917.517-22.099.991-32.736 3.713-11.643 2.974-21.764 9.772-31.689 16.376a504.134 504.134 0 0 0-17.59 12.187c-.237.181 0 .586.237.418a596.369 596.369 0 0 1 30.88-19.474 85.607 85.607 0 0 1 31.675-11.238c6.394-.921 12.843-1.396 19.279-1.786.056 0 .07-.196-.056-.196ZM307.441 555.692c-10.456-.182-19.544-.391-29.623 2.987-13.304 4.453-27.292 13.862-32.206 17.213-5.444 3.685-10.749 7.566-15.998 11.517-.209.167.07.544.293.377a340.578 340.578 0 0 1 37.259-23.355 67.951 67.951 0 0 1 19.544-7.259 121.355 121.355 0 0 1 20.745-1.396l-.014-.084Z"/><path fill="#BAE8E8" d="m485.682 565.017-55.184-54.081s32.862-46.654 55.031-67.008c12.424-11.433 21.456-1.927 21.387 13.332-.252 53.411-21.234 107.757-21.234 107.757Z"/><path fill="#BAE8E8" d="m485.682 565.017-55.184-54.081s32.862-46.654 55.031-67.008c12.424-11.433 21.456-1.927 21.387 13.332-.252 53.411-21.234 107.757-21.234 107.757Z"/><path fill="#000" d="M489.172 492.397a50.313 50.313 0 0 1 4.872-4.272c-1.116.908-2.191 1.885-3.266 2.792l-1.606 1.48Zm17.408-24.234a41.732 41.732 0 0 0-3.657-1.396v.265a.198.198 0 0 1 0 .084c.03.114.053.231.07.349.153.865.307 1.717.446 2.582a62.438 62.438 0 0 0 2.164 10.009c-.13 1.275-.27 2.546-.419 3.812a34.148 34.148 0 0 1-3.043-10.443 112.584 112.584 0 0 1-10.4 41.699.691.691 0 0 1 .14.265c4.299 15.286-.475 27.92-12.969 37.176 0 .153-.07.293-.112.432-.112.391-.684.21-.656-.167 1.075-13.178-2.276-28.353 11.377-35.444a205.624 205.624 0 0 0 7.287-25.031c-6.044 11.796-14.364 19.544-28.199 24.095a.454.454 0 0 1-.419.269.455.455 0 0 1-.418-.269.245.245 0 0 1 0-.237 46.887 46.887 0 0 1 12.452-25.854c5.04-5.221 11.252-6.296 18.148-5.766a132.68 132.68 0 0 0 .154-45.076c-18.302 22.908-30.028 49.893-42.243 76.445v.153c.307 6.687 2.233 14.156.781 20.94l-1.842-1.801c1.005-5.486 0-11.391-.391-16.947a111.929 111.929 0 0 1-1.871 14.728l-.349-.349a135.98 135.98 0 0 0 1.829-14.03 235.845 235.845 0 0 0-5.263 10.665l-.126-.111c1.745-3.63 3.56-7.218 5.417-10.791l.084-.698c-.405.544-.81 1.06-1.229 1.577a105.955 105.955 0 0 0-5.319 8.879l-.349-.335c1.187-2.164 2.457-4.3 3.797-6.366-1.605 1.801-3.266 3.532-4.816 5.374l-1.605-1.591a79.83 79.83 0 0 1 9.772-9.423.301.301 0 0 0 0-.112.158.158 0 0 1 .092-.113.16.16 0 0 1 .075-.01.14.14 0 0 1 .07.026l.866-.754a338.087 338.087 0 0 1 7.594-19.544c-4.635 4.928-9.311 10.288-15.203 13.387-3.755 1.969-10.302 3.393-15.746 4.286l-1.061-1.033a63.07 63.07 0 0 0 13.96-4.048c6.351-2.932 12.368-8.67 17.589-13.737a78.317 78.317 0 0 1-9.967 6.98v-.07c3.587-2.415 6.98-5.011 10.316-7.762-6.98 2.374-14.169 4.007-20.73 7.413a83.743 83.743 0 0 0-8.376 4.998l.418-.572a77.136 77.136 0 0 1 7.832-4.775 105.002 105.002 0 0 1 21.457-7.552 36.3 36.3 0 0 0-21.206 3.992 37.632 37.632 0 0 0-3.755 2.415l.628-.837a31.278 31.278 0 0 1 4.314-2.471 35.14 35.14 0 0 1 20.074-3.155l.349-.293c-8.487-2.136-15.747-1.606-22.629 3.001a176.039 176.039 0 0 1 2.792-3.685c5.696-3.113 12.257-3.755 20.326.307a239.217 239.217 0 0 1 31.55-53.216 8.051 8.051 0 0 1 3.866 1.271 140.137 140.137 0 0 1 2.15 24.346c.07.307.126.628.196.935a19.88 19.88 0 0 1 4.02.629c0 .698-.042 1.395-.084 2.08Zm-15.844 49.934v-.195l-.279.195h-.084c-.231.141-.45.3-.656.475-.09.051-.175.112-.251.182-6.185 4.634-8.977 10.833-9.242 18.804-.07 1.926 0 3.839-.112 5.723a38.106 38.106 0 0 1-.809 8.027c4.188-5.263 9.157-9.143 11.168-15.942a36.745 36.745 0 0 0 .265-17.269Zm-21.303-3.95c3.713-6.98 5.821-14.756 11.74-20.438a28.999 28.999 0 0 1 13.444-7.384c-7.511.628-12.439 3.099-17.478 10.679-3.644 5.472-5.584 11.14-7.706 17.143Zm0 .67a98.098 98.098 0 0 1 13.122-16.166c2.122-2.178 4.356-4.188 6.631-6.254-2.247 2.192-4.341 4.523-6.338 6.561a127.981 127.981 0 0 0-12.564 15.105c4.914-4.076 10.429-7.315 14.91-11.978a107.785 107.785 0 0 0 12.145-15.914h-.363a29.422 29.422 0 0 0-2.918 1.94 25.944 25.944 0 0 1 2.541-1.87 29.693 29.693 0 0 0-16.166 8.781c-5.402 5.737-7.259 13.373-11.168 19.976l.168-.181Zm28.464-28.66h-.251a115.08 115.08 0 0 1-11.754 15.803 93.166 93.166 0 0 1-15.957 12.647l-.209.294c4.998-2.876 10.526-5.207 14.937-8.837 6.338-5.193 9.521-12.815 13.22-19.907h.014Zm-46.612 16.138c-5.863 4.327-13.095 6.98-20.228 9.199l-.545-.53c7.148-2.317 14.365-4.09 20.717-8.641l.056-.028Zm39.674 15.356-.209.474c-.154.321-.307.643-.447.978-.321 5.43-.502 10.791-2.457 15.984a76.903 76.903 0 0 1-8.515 15.914c-.02.132-.048.263-.084.391.008.102.008.205 0 .307 0 .098-.168.07-.154 0a2.675 2.675 0 0 0 0-.335.122.122 0 0 1-.113-.029.12.12 0 0 1-.04-.11.082.082 0 0 1-.016-.049c0-.018.005-.035.016-.049.097-.363.223-.726.321-1.103.223-2.206.488-4.411.837-6.603 1.396-8.795 4.035-17.297 9.354-24.528.293-.433.614-.851.949-1.27v-.894h.07v.81c.251-.321.488-.642.753-.963h.084c-.293.349-.572.712-.851 1.061v.6l.083-.153c.112-.196.224-.405.335-.587.112-.181.126 0 .07.126l.014.028Zm-.74 1.619c-4.341 9.772-6.98 20.047-10.553 30.084 0 .279-.098.572-.168.851a92.119 92.119 0 0 0 8.013-15.23 53.966 53.966 0 0 0 2.694-15.663l.014-.042Zm.07-1.047v-.461c-.237.308-.474.629-.684.936a41.176 41.176 0 0 0-7.092 14.574c-1.13 4.509-1.661 9.13-2.429 13.695 1.396-4.691 3.016-9.353 4.551-14.03a79.988 79.988 0 0 1 5.584-14.588s.056-.098.056-.154l.014.028Zm12.704-51.107h-.112a.194.194 0 0 1 0 .083l.154.321a93.177 93.177 0 0 0 3.182 6.227 3.93 3.93 0 0 0 0 .376 104.865 104.865 0 0 1-2.959-5.891c.879 2.611 1.773 5.249 2.792 7.846l-.084.991a66.46 66.46 0 0 1-2.457-6.98 53.553 53.553 0 0 1-.851-3.085l-.922-.391.908.363v-.14c0-.153-.126-.293-.182-.432-.056-.14 0-.084.07 0 0 0 .098-.084.112 0 .014.083.181.502.265.753h.126a33.293 33.293 0 0 1 3.587 1.801.675.675 0 0 1 0 .168 28.678 28.678 0 0 0-3.643-2.038l.014.028Z" opacity=".1"/><path fill="#000" d="m435.803 516.129 49.879 48.86s20.94-54.346 21.234-107.743c0-5.71-1.215-10.61-3.435-13.96l-67.678 72.843Z" opacity=".1"/><path fill="#263238" d="M440.927 504.165c9.171 7.609 33.504 28.981 47.464 44.938.083.097-.238.446-.335.377-13.625-11.517-39.088-36.408-47.604-44.784-.168-.154.307-.74.475-.531Z"/><path fill="#BAE8E8" d="m632.835 647.144-189.856-.489 11.489-71.503s-16.417-19.949-13.318-41.601c3.406-23.732 46.068-83.76 49.712-87.208 14.49-13.583 29.651-17.213 43.429-10.093 47.366 24.43 98.544 210.894 98.544 210.894Z"/><path fill="#000" d="M562.393 561.429a51.02 51.02 0 0 1 .474 6.464c0-1.396-.195-2.876-.307-4.3l-.167-2.164Zm13.513 85.575h-2.318a27.335 27.335 0 0 0-2.973-1.871c-6.882-3.699-12.397-2.596-19.111-2.191l-1.257.07.754.795v.084c.977 1.047 1.871 2.08 2.792 3.057h-1.996a15.19 15.19 0 0 1-2.792-4.942c7.203-1.284 13.583-2.108 20.395.992a30.303 30.303 0 0 1 6.506 4.006Zm5.695 0h-2.163a97.806 97.806 0 0 1-4.984-14.183h-.126c-5.989-2.667-12.731-6.352-15.747-12.564-3.015-6.212-1.87-15.077-1.172-21.764a.348.348 0 0 1 .349-.335.322.322 0 0 1 .279.14c10.456 8.781 19.195 18.525 16.989 32.68a104.074 104.074 0 0 0 6.575 16.04v-.014Zm-8.013-16.012.419.195a.372.372 0 0 1 0-.335.472.472 0 0 1 .21-.195c-.182-7.148-.573-12.857-5.347-18.986-3.043-3.881-6.366-7.58-9.772-11.168l-.531-.558-.279-.307-.083-.084-.126-.14v.168c.007.07.007.14 0 .209.293 5.85-.237 11.852 1.396 17.506 1.94 6.631 7.943 10.903 14.113 13.695Zm8.781-125.961c-2.331 6.575-4.872 12.983-5.053 20.242 0-7.106 2.205-14.281 4.634-21.149.182.251.266.544.419.851v.056Zm40.917 110.033a68.91 68.91 0 0 1-4.537 1.242h-.084a72.482 72.482 0 0 1-12.564 28.66c0 .726 0 1.396-.083 2.164h-2.443a149.759 149.759 0 0 0-2.374-36.757c-.488-2.541-1.061-5.053-1.661-7.552a.885.885 0 0 1-.405-.084 141.713 141.713 0 0 1-22.475-13.834l-.866-.419c-11.028 12.955-27.92 4.509-40.107-1.815a.64.64 0 0 1 0-1.201h.098l.195-.083c7.259-3.113 13.821-7.176 22.015-6.101a33.093 33.093 0 0 1 11.81 4.188 112.733 112.733 0 0 1-26.97-33.434.728.728 0 0 1-.294 0c-14.797-5.779-22.015-17.199-21.875-32.736l-.279-.349c-.237-.335.251-.684.53-.433 9.884 8.795 24.012 15.244 21.443 30.433a208.403 208.403 0 0 0 15.607 20.94c-5.779-11.936-6.98-23.272-2.261-37.022a.459.459 0 0 1 .034-.488.455.455 0 0 1 .454-.182.337.337 0 0 1 .238.084 46.775 46.775 0 0 1 13.108 25.463c1.131 7.175-1.759 12.773-6.352 18.008a132.735 132.735 0 0 0 35.905 27.264c-7.273-28.409-21.777-53.997-35.626-79.74 0 0-.097 0-.139-.069-6.464-4.398-15.091-7.706-19.223-14.784-4.467-7.664-3.783-18.274-3.727-26.803 0 0 .404-.238.418-.14 6.98 5.347 14.463 11.308 18.86 19.042 3.811 6.7 4.328 14.183 4.817 21.679l.083.084a.141.141 0 0 1 .048.055.147.147 0 0 1 0 .142.146.146 0 0 1-.048.054c0 .377 0 .754.07 1.131a325.22 325.22 0 0 1 11.015 17.827c-1.145-6.687-2.611-13.639-1.536-20.2.768-4.718 4.272-11.88 6.98-16.989l.628 1.396a63.35 63.35 0 0 0-5.305 13.82c-1.479 6.841-.516 15.105.377 22.336a79.174 79.174 0 0 1 .391-12.201h.084c-.237 4.314-.209 8.599 0 12.913 2.303-6.98 5.333-13.723 6.575-21.01a82.22 82.22 0 0 0 1.033-8.962l.21.475a70.137 70.137 0 0 1-.866 8.543 104.62 104.62 0 0 1-6.896 21.694 36.292 36.292 0 0 0 9.59-19.335c.272-2.016.37-4.053.293-6.086.126.293.266.6.391.907a33.89 33.89 0 0 1-.684 6.701 35.224 35.224 0 0 1-9.618 17.967v.446c7.608-6.128 11.643-13.038 11.266-22.81.516 1.214 1.033 2.415 1.535 3.643-.084 7.957-3.141 15.021-12.773 19.781 17.506 31.299 29.316 65.724 28.911 100.512a127.184 127.184 0 0 0 12.201-43.276c.684 2.067 1.396 4.091 1.968 6.059a100.11 100.11 0 0 1-1.172 8.153c.628-2.136 1.172-4.188 1.759-6.31.181.558.349 1.117.516 1.661a65.19 65.19 0 0 1-1.563 4.37v.069c-.168.433-.349.852-.531 1.271l.196-.07a79.411 79.411 0 0 0 3.364-1.131c.028.237.168.712.321 1.173v.056Zm-81.345-134.31a98.795 98.795 0 0 1 19.935 33.169c-1.075-5.402-1.689-10.819-4.649-15.97-3.978-6.966-9.506-12.047-15.286-17.254v.055Zm20.424 37.776c-5.375-4.872-11.168-9.869-14.686-16.221-3.644-6.729-5.179-14.91-6.911-22.336.782 7.608 1.466 18.413 5.18 25.044 3.532 6.226 10.525 9.59 16.417 13.457v.056Zm-14.644-16.975c3.378 6.519 9.255 11.419 14.602 16.445a356.975 356.975 0 0 0-21.219-37.622c1.94 7.007 3.224 14.574 6.617 21.121v.056Zm15.286 17.087a42.307 42.307 0 0 1-.517-1.913 112.025 112.025 0 0 0-20.619-35.458 278.876 278.876 0 0 1 20.633 36.896l.503.475Zm-22.085 28.59.182.084a3.12 3.12 0 0 0 0-.335.322.322 0 0 0 0-.098v-.07c.013-.26.013-.521 0-.782a2.864 2.864 0 0 0 0-.321c0-7.761-3.239-13.722-9.451-18.734-1.522-1.228-3.058-2.373-4.537-3.546a39.701 39.701 0 0 1-5.85-5.514c1.717 6.491 1.801 12.815 6.017 18.483a36.915 36.915 0 0 0 13.639 10.833Zm15.984-14.644c3.379 7.203 8.279 13.541 9.242 21.694a28.823 28.823 0 0 1-2.164 15.16c4.02-6.379 5.012-11.796 1.996-20.381-2.205-6.212-5.556-11.168-9.074-16.487v.014Zm5.361 39.381a114.779 114.779 0 0 1-5.584-18.902 93.67 93.67 0 0 1-.503-20.367c0-.112-.069-.224-.097-.335-.712 5.723-2.178 11.531-1.941 17.24.321 8.209 4.495 15.356 7.929 22.56l.196-.196Zm.558-.907a29.749 29.749 0 0 0 2.722-18.148c-1.326-7.776-6.295-13.863-9.185-20.94v.293a98.883 98.883 0 0 1 5.011 20.214c.447 3.001.74 6.017 1.006 9.046-.419-3.099-1.006-6.184-1.396-9.004a129.169 129.169 0 0 0-4.537-19.251c.279 6.38-.447 12.746.586 19.125 1.196 6.579 3 13.033 5.388 19.279l.238-.335c.14-1.163.21-2.333.209-3.504.051 1.07.037 2.142-.042 3.211v.014Zm11.769 16.822-.252-.126h-.07l-.293-.154a86.847 86.847 0 0 1-2.261-1.158c-4.495-2.374-8.893-4.761-14.156-5.445-6.184-.795-11.349 1.731-16.752 3.895-1.005.391-2.01.782-3.043 1.131l.154.084.251.125 3.281 1.773c4.858 2.625 9.869 5.165 15.356 5.584 6.84.517 12.284-2.08 17.785-5.723v.014Zm-32.332-40.094-.614-.558c.098.405.209.796.307 1.187 0 0-.084.097-.098 0a19.8 19.8 0 0 0-.335-1.327l-.363-.321-.083-.069.069.167c.101.2.189.405.266.614 0 .14-.14.21-.21.084l-.251-.447-.503-.949c-4.188-3.532-8.306-6.896-11.293-11.587a77.497 77.497 0 0 1-7.581-16.375l-.265-.307-.209-.237c0-.07 0-.168.112-.112l.251.237a.127.127 0 0 1 .105-.056.123.123 0 0 1 .104.056h.098l.67.922a117.49 117.49 0 0 1 4.76 4.634c6.199 6.422 11.42 13.681 13.96 22.336.168.489.307.992.433 1.494l.67.614Zm-1.94-1.675c-5.138-9.311-11.782-17.659-17.66-26.524l-.586-.642a91.991 91.991 0 0 0 7.343 15.551 54.211 54.211 0 0 0 10.903 11.601v.014Zm1.144.991a15.103 15.103 0 0 0-.321-1.075 41.196 41.196 0 0 0-7.398-14.504c-2.918-3.63-6.282-6.826-9.465-10.205 2.875 3.979 5.584 8.055 8.459 12.076 2.96 4.271 6.157 8.501 8.251 13.29l.139.125.335.293Zm33.812 40.722c.069 0 0 .125 0 .111l-.768-.251h-.126a31.718 31.718 0 0 1-17.436 4.272 35.912 35.912 0 0 1-9.618-1.941c-1.871-.628-3.965-1.27-5.905-2.108a17.172 17.172 0 0 1-3.281-1.772l-.223-.14-1.494.475c-.182 0-.279-.224-.098-.28l1.019-.335a.105.105 0 0 1 .07 0h.042l-.209-.153.321.167a94.804 94.804 0 0 1 3.015-.935 45.11 45.11 0 0 1 14.728-2.22 54.333 54.333 0 0 1 16.221 3.77c.978.349 1.941.739 2.876 1.13l.88-.502-.838.502.14.07.46.098v.098l.224-.056Zm-35.933-2.206a101.905 101.905 0 0 1 33.922 1.661c-5.765-1.898-11.726-3.95-17.785-4.188a47.455 47.455 0 0 0-16.137 2.513v.014Zm35.039 2.038h-.084l-.321-.07a115.866 115.866 0 0 0-35.737-1.605h-.154c11.406 6.156 24.584 8.083 36.184 1.717l.112-.042Zm.461 44.337-.754-.642v.824a.141.141 0 0 1-.133.096.138.138 0 0 1-.081-.027.135.135 0 0 1-.051-.069c0-.377-.084-.754-.126-1.131.004.06.004.121 0 .181 0 0-.07.084-.084 0l-.083-.279c-4.328-3.741-8.572-7.845-11.168-13.025-2.792-5.584-3.56-11.852-4.119-17.994l-.153-.181s-.126-.14-.182-.224c-.055-.084 0-.125.098-.084l.07.098.139.154a.791.791 0 0 0 0-.182v.307l.475.531-.223-.405-.363-.684h.07c.279.433.558.865.823 1.298.126.182.238.377.363.573 7.65 8.376 13.5 18.231 14.505 29.804v.21l.907.823c.293-.056.168.112.07.014v.014Zm-1.117-1.284a50.652 50.652 0 0 0-4.635-15.887 61.287 61.287 0 0 0-8.85-12.647c2.066 3.476 3.853 7.091 5.653 10.735-2.038-4.035-4.355-7.929-6.547-11.88-.279-.349-.572-.684-.851-1.019.837 5.584 1.619 11.433 3.908 16.752 2.457 5.584 6.659 9.772 11.099 13.736a76.035 76.035 0 0 0-5.584-13.359 67.544 67.544 0 0 1 5.653 13.485l.154.084Zm-2.527 16.291h-1.061a29.892 29.892 0 0 0-2.931-1.145 57.377 57.377 0 0 0-13.388-2.289c4.027.916 7.998 2.063 11.894 3.434h-2.01c-3.979-1.396-8.041-2.541-12.187-3.616h-.81a54.587 54.587 0 0 0 4.579 3.658h-.6a48.988 48.988 0 0 1-3.672-3.071v-.084l-.572-.53h-.447c-.195 0-.195-.224-.07-.322a.113.113 0 0 1-.028-.037.123.123 0 0 1-.01-.046c0-.016.004-.032.01-.046a.108.108 0 0 1 .028-.038l-.237-.251a.13.13 0 0 1-.018-.023.068.068 0 0 1-.007-.028c-.001-.01 0-.02.004-.029a.077.077 0 0 1 .014-.025.068.068 0 0 1 .051-.025c.01-.001.019 0 .029.004a.089.089 0 0 1 .025.014l.432.391.657.126h.67a59.424 59.424 0 0 1 15.9 2.484c1.285.404 2.54.899 3.755 1.48v.014Zm51.555-33.657c-1.021.451-2.07.834-3.141 1.144l-.14.238a1.878 1.878 0 0 1-.126.223c-.097.154-.363 0-.265-.126l.126-.223-.349.098-.224.181c-.083 0-.153 0-.167-.084-.503.126-1.005.252-1.508.335-.502.084-.349-.418 0-.474.768-.14 1.536-.335 2.29-.545l.544-.474a.5.5 0 0 1 .07-.112v-.07a121.21 121.21 0 0 0 1.857-3.504l.167.545c-.461.851-.921 1.689-1.396 2.513l1.703-1.536c0 .126.084.251.112.363a55.81 55.81 0 0 1-2.234 1.912l-.084.14a23.486 23.486 0 0 0 2.625-1.047c0 .181.098.335.14.489v.014ZM490.778 490.973c1.075-.949 2.15-1.926 3.266-2.792a50.044 50.044 0 0 0-4.872 4.272l1.606-1.48Zm-34.454 25.128c.363 7.818 2.932 16.752-.237 24.249-2.401 5.737-7.468 10.316-12.648 14.281a33.33 33.33 0 0 1-.432-1.396c4.411-4.188 8.878-9.004 10.958-13.737 2.904-6.603 1.396-14.211.908-21.247-.643 7.217-1.103 14.923-4.091 21.484a59.454 59.454 0 0 1-8.124 12.341c0-.167-.098-.335-.14-.516a60.311 60.311 0 0 0 7.622-11.392c3.183-6.617 3.546-14.281 4.342-21.568a310.693 310.693 0 0 0-12.969 28.632l-.126-.684c3.853-9.591 8.376-18.916 13.123-28.115l.083-.698c-.404.544-.809 1.06-1.228 1.577a105.377 105.377 0 0 0-12.285 25.058c0-.516-.112-1.033-.167-1.549a103.691 103.691 0 0 1 10.581-21.331c-3.657 4.104-7.622 7.859-9.953 13.332a44.656 44.656 0 0 0-.698 1.745c0-.978.167-1.969.307-2.96.205-1.326.48-2.64.824-3.937 3.196-5.486 8.013-9.646 12.843-13.82a.301.301 0 0 0 0-.112.158.158 0 0 1 .092-.113.16.16 0 0 1 .075-.01.14.14 0 0 1 .07.026l.866-.754a337.805 337.805 0 0 1 7.594-19.544 86.26 86.26 0 0 1-11.657 11.168 204.366 204.366 0 0 1 2.262-4.188c3.155-2.527 6.142-5.403 8.906-8.083a77.242 77.242 0 0 1-7.44 5.472l.265-.488a130.606 130.606 0 0 0 7.482-5.78c-1.689.572-3.392 1.103-5.095 1.647.126-.237.265-.46.405-.698 1.759-.502 3.518-.977 5.249-1.396a44.11 44.11 0 0 0-4.3-.181l.14-.237a29.46 29.46 0 0 1 4.299.349l.349-.294a39.775 39.775 0 0 0-4.188-.837c.238-.391.461-.796.712-1.187a28.567 28.567 0 0 1 3.937 1.648 249.178 249.178 0 0 1 25.659-45.538c.114-.132.235-.258.362-.377a66.182 66.182 0 0 1 6.52-5.416c-17.66 22.545-29.135 49.069-41.098 75.035l.041.139Zm68.097-16.752h-.097a.454.454 0 0 1-.182-.098c-6.854-3.922-14.058-6.714-18.148-13.96a32.922 32.922 0 0 1-3.811-11.907 112.581 112.581 0 0 1-10.442 41.74.691.691 0 0 1 .14.265c4.299 15.286-.475 27.92-12.969 37.176 0 .153-.07.293-.112.432-.112.391-.684.21-.656-.167 1.075-13.178-2.276-28.353 11.377-35.444a205.624 205.624 0 0 0 7.287-25.031c-6.044 11.796-14.364 19.544-28.199 24.095a.454.454 0 0 1-.419.269.455.455 0 0 1-.418-.269.245.245 0 0 1 0-.237 46.887 46.887 0 0 1 12.452-25.854c5.04-5.221 11.252-6.296 18.148-5.766a132.875 132.875 0 0 0 .251-44.504 26.507 26.507 0 0 1 1.536-1.019 140.518 140.518 0 0 1 2.345 25.449c.07.307.126.628.196.935 16.989 1.019 20.395 19.544 22.685 33.127v.084a.623.623 0 0 1-.21.724.624.624 0 0 1-.754.002v-.042Zm-33.685 18.707v-.196l-.279.196h-.084c-.231.141-.45.299-.656.474-.09.051-.175.112-.252.182-6.184 4.634-8.976 10.833-9.241 18.804-.07 1.926 0 3.839-.112 5.723a38.106 38.106 0 0 1-.809 8.027c4.188-5.262 9.157-9.143 11.168-15.942a36.725 36.725 0 0 0 .265-17.227v-.041Zm-21.303-3.951c3.713-6.98 5.821-14.756 11.74-20.438a28.999 28.999 0 0 1 13.444-7.384c-7.511.628-12.439 3.099-17.478 10.679-3.644 5.514-5.584 11.182-7.706 17.185v-.042Zm0 .67a98.098 98.098 0 0 1 13.122-16.166c2.122-2.177 4.356-4.188 6.631-6.254-2.247 2.192-4.341 4.523-6.338 6.561a128.062 128.062 0 0 0-12.564 15.105c4.914-4.076 10.429-7.315 14.91-11.978a107.785 107.785 0 0 0 12.145-15.914h-.363a29.257 29.257 0 0 0-2.918 1.941c.808-.675 1.657-1.3 2.541-1.871a29.693 29.693 0 0 0-16.166 8.781c-5.402 5.737-7.259 13.373-11.168 19.976l.168-.181Zm28.464-28.66h-.251a115.08 115.08 0 0 1-11.754 15.803 93.22 93.22 0 0 1-15.957 12.648l-.209.293c4.998-2.876 10.526-5.207 14.937-8.837 6.338-5.151 9.521-12.773 13.22-19.865l.014-.042Zm23.132 9.507c.88.53 1.759 1.075 2.611 1.661V496.976c-.224-1.326-.419-2.666-.615-4.007-.823-5.402-1.828-10.86-4.718-15.356-3.755-5.905-9.102-8.683-15.356-10.874v.265a.198.198 0 0 1 0 .084c.03.115.053.231.07.349.153.865.307 1.717.446 2.582.81 4.984 1.55 9.898 4.188 14.477 3.113 5.5 8.321 8.083 13.36 11.168l.014-.042Zm17.422-35.654c-3.169 6.226-10.903 10.568-16.682 14.044a.336.336 0 0 1-.531-.279.35.35 0 0 1 0-.112c.698-13.639 3.225-26.524 15.859-33.239l1.201-1.717c.307.196.614.419.921.656l-.321.419c.002.042.002.084 0 .126 1.535 6.421 2.652 14.029-.461 20.144l.014-.042Zm-.516-18.413c0-.154-.07-.293-.098-.447a.396.396 0 0 1-.265.168.504.504 0 0 1-.321 0c-5.584 4.439-9.912 8.194-11.922 15.705-1.285 4.76-2.234 9.66-3.099 14.532l-.126.754a3.95 3.95 0 0 0-.07.391v.111a.791.791 0 0 1 0 .182l.14-.112.153-.125c4.495-3.77 9.591-6.98 13.165-11.615 4.16-5.556 3.894-12.885 2.429-19.502l.014-.042Zm-46.976 76.026-.209.475a20.74 20.74 0 0 0-.447.977c-.321 5.43-.502 10.791-2.457 15.984a76.903 76.903 0 0 1-8.515 15.914c-.02.132-.048.263-.084.391.008.102.008.205 0 .307 0 .098-.168.07-.154 0a2.675 2.675 0 0 0 0-.335.122.122 0 0 1-.113-.029.12.12 0 0 1-.04-.11.08.08 0 0 1-.016-.049c0-.018.005-.035.016-.049.097-.363.223-.726.321-1.103.223-2.205.488-4.411.837-6.603 1.396-8.795 4.035-17.296 9.354-24.528.293-.432.614-.851.949-1.27v-.893h.07v.809c.251-.321.488-.642.753-.963h.084c-.293.349-.572.712-.851 1.061v.6l.083-.153c.112-.196.224-.405.335-.587.112-.181.126.07.07.196l.014-.042Zm-.74 1.619c-4.341 9.772-6.98 20.047-10.553 30.084 0 .279-.098.572-.168.852a92.168 92.168 0 0 0 8.013-15.231 53.976 53.976 0 0 0 2.694-15.593l.014-.112Zm.07-1.047v-.46c-.237.307-.474.628-.684.935a41.19 41.19 0 0 0-7.092 14.644c-1.13 4.509-1.661 9.13-2.429 13.695 1.396-4.691 3.016-9.353 4.551-14.03a79.988 79.988 0 0 1 5.584-14.588s.056-.098.056-.154l.014-.042Zm34.439-19.781-.893-.614h-.07l-.125-.126v.265h-.07v-.349a95.93 95.93 0 0 1-2.457-1.759 45.636 45.636 0 0 1-10.777-10.525 54.189 54.189 0 0 1-6.743-15.119 54.392 54.392 0 0 1-.852-3.085l-.921-.391.907.363v-.14c0-.153-.125-.293-.181-.433-.056-.139 0-.083.07 0 0 0 .098-.083.111 0 .014.084.182.503.266.754h.125a31.938 31.938 0 0 1 13.96 11.35 35.977 35.977 0 0 1 4.188 8.864c.601 1.815 1.327 3.797 1.843 5.794.344 1.31.55 2.653.614 4.006v.126l1.285.893c.042-.083-.112.126-.28.126Zm-21.679-30.866a115.076 115.076 0 0 0 20.228 29.47l.125.098c-1.968-12.816-8.376-24.5-20.423-29.931h-.112a.198.198 0 0 1 0 .084l.182.279Zm19.292 28.814a102.128 102.128 0 0 1-19.097-28.102c1.954 5.752 3.909 11.741 7.315 16.752a47.456 47.456 0 0 0 11.782 11.28v.07Zm15.566-54.863v.084l.097-.154h.084l-.167.224c-.377 5.709-1.103 11.559-3.7 16.752-2.792 5.584-7.315 9.981-11.88 14.127v.237a2.615 2.615 0 0 0 0 .28h-.125a.38.38 0 0 1 0-.126.908.908 0 0 1 0-.195l-.14.125.084-.084c.043-.049.089-.096.139-.139l.126-.698-.195.447c-.112.223-.21.46-.321.684-.112.223-.098 0-.084 0 .167-.475.349-.936.53-1.396l.252-.67c2.121-11.168 6.421-21.75 15.09-29.526l.126-.125c0-.419 0-.824.112-1.229a.113.113 0 0 1 .104-.073.113.113 0 0 1 .105.073c0 .335 0 .67-.07 1.005l.614-.558c.14-.112.322.097.196.209l-.977.726Zm-.266.251a50.267 50.267 0 0 0-9.897 13.276 61.656 61.656 0 0 0-4.775 14.672c1.536-3.741 3.365-7.343 5.18-10.972-2.011 4.062-3.714 8.25-5.584 12.382-.098.433-.21.866-.307 1.299 4.006-4.077 8.166-8.181 10.972-13.179 3.001-5.332 3.769-11.168 4.3-17.129a75.545 75.545 0 0 0-7.329 12.481 67.802 67.802 0 0 1 7.357-12.564s.083-.266.083-.335v.069Zm-79.25 189.675c-1.061.977-2.108 1.954-3.197 2.89a51.865 51.865 0 0 0 4.802-4.356l-1.605 1.466Zm-11.573 15.356h-1.927a37.187 37.187 0 0 0-1.228-4.188l.558-3.434a31.88 31.88 0 0 1 2.597 7.552v.07Zm34.23-40.889a46.73 46.73 0 0 1-12.006 25.994c-4.97 5.304-11.168 6.477-18.148 6.072-.447 2.932-.81 5.849-1.061 8.795h-2.415a111.348 111.348 0 0 1 9.618-39.451.811.811 0 0 1-.139-.265c-4.551-15.217 0-27.92 12.34-37.399 0-.14.07-.279.112-.433.098-.377.684-.209.656.154-.851 13.206 2.792 28.325-10.791 35.64a205.566 205.566 0 0 0-6.854 25.128c5.835-11.894 13.96-19.824 27.78-24.556a.468.468 0 0 1 .419-.269.467.467 0 0 1 .419.269.306.306 0 0 1 .07.251v.07Zm-23.062-1.508v.182l.279-.21h.084a7.84 7.84 0 0 0 .67-.502c.1-.048.19-.114.265-.196 6.087-4.732 8.767-10.972 8.906-18.929v-5.78a38.2 38.2 0 0 1 .671-7.943c-4.063 5.347-9.005 9.297-10.875 16.124a36.993 36.993 0 0 0 0 17.185v.069Zm-6.366 32.025a115.945 115.945 0 0 1 11.503-15.985 93.547 93.547 0 0 1 15.705-12.996c.06-.097.126-.19.195-.28-4.941 2.946-10.428 5.375-14.783 9.074-6.268 5.305-9.312 12.969-12.913 20.131l.293.056Zm27.752-28.451c-3.601 7.106-5.584 14.854-11.419 20.633a28.83 28.83 0 0 1-13.318 7.608c7.511-.754 12.383-3.308 17.297-10.972 3.56-5.598 5.402-11.294 7.44-17.339v.07Zm.21-.865-.224.195a98.47 98.47 0 0 1-12.857 16.389c-2.08 2.206-4.285 4.3-6.505 6.352 2.192-2.234 4.258-4.579 6.212-6.673a127.751 127.751 0 0 0 12.271-15.356c-4.844 4.188-10.316 7.497-14.7 12.229a106.532 106.532 0 0 0-11.88 16.11h.405a29.991 29.991 0 0 0 2.904-1.996 28.102 28.102 0 0 1-2.527 1.912 29.754 29.754 0 0 0 16.026-9.046c5.291-5.849 7.022-13.513 10.875-20.186v.07Zm45.817.195c-.112.14-.489.684-.545.712-10.54 13.737-20.94 31.27-40.484 21.847a277.156 277.156 0 0 1-7.79 16.948h-2.666c6.743-13.36 12.648-27.208 18.692-40.931a.437.437 0 0 1 0-.153c-.502-7.804-3.21-16.641-.167-24.249 3.295-8.236 12.089-14.225 18.846-19.432 0 0 .433.181.363.251.07 8.781 0 18.357-3.406 26.524-2.932 7.134-8.516 12.131-14.128 17.143a.264.264 0 0 0 0 .112.153.153 0 0 1-.167.123.14.14 0 0 1-.07-.026l-.852.768a323.068 323.068 0 0 1-7.273 19.642c4.565-5.012 9.144-10.442 14.979-13.639 7.162-3.909 24.765-5.947 24.821-5.891.056.056-.07.139-.153.181v.07Zm-30.056-4.718a111.59 111.59 0 0 0 15.258-38.069 276.222 276.222 0 0 1-16.417 38.892v.698c.349-.544.754-1.075 1.159-1.591v.07Zm15.495-39.228c-4.341 5.933-9.548 11.559-12.634 18.26-3.085 6.7-3.294 14.253-4.02 21.512a356.91 356.91 0 0 0 16.654-39.842v.07Zm.224.907a98.947 98.947 0 0 1-13.891 36.073c3.588-4.188 7.497-7.985 9.772-13.499 2.96-7.441 3.56-14.896 4.119-22.643v.069Zm-17.213 39.34c.53-7.232.852-14.938 3.741-21.555 3.057-6.98 8.572-13.262 13.36-19.209-5.514 5.291-13.597 12.481-16.543 19.544-2.792 6.534-1.144 14.128-.558 21.15v.07Zm23.118 13.024a42.411 42.411 0 0 1-11.783 9.088 35.128 35.128 0 0 1-20.088 3.49l-.335.279c9.926 2.332 18.148 1.075 25.896-6.002a63.86 63.86 0 0 0 6.31-6.924v.069Zm4.481-5.584c-1.815 1.508-3.797 2.862-5.682 4.188a83.59 83.59 0 0 1-9.186 5.933 105.541 105.541 0 0 1-21.344 7.902 36.183 36.183 0 0 0 21.135-4.342c5.961-3.448 10.512-8.669 15.077-13.737v.056Zm2.792-3.28c-6.98 2.094-13.89 2.792-20.745 6.016-6.324 3.044-12.229 8.879-17.366 14.03a80.179 80.179 0 0 1 9.856-7.203c-3.546 2.485-6.896 5.137-10.191 7.929 6.98-2.471 14.1-4.188 20.605-7.748a75.68 75.68 0 0 0 16.919-12.187c-8.655 3.56-17.812 5.096-25.574 10.847 7.482-5.723 17.324-8.655 26.245-11.503l.251-.181Zm-54.877-36.589c-.098.376-.209.739-.307 1.116a102.67 102.67 0 0 1-.712 6.52c-1.228 8.822-3.727 17.38-8.906 24.709a29.41 29.41 0 0 1-.964 1.312v.894-.81c-.251.321-.488.656-.754.977h-.083c.293-.349.572-.712.837-1.075v-.6l-.083.153-.322.601c-.069.125-.251 0-.195-.126.074-.145.139-.294.195-.447.154-.335.308-.67.447-1.005.224-5.444.321-10.791 2.178-16.026a77.594 77.594 0 0 1 8.25-16.054 3.28 3.28 0 0 1 .084-.391 1.967 1.967 0 0 1 0-.307c0-.098.154-.07.154 0a2.675 2.675 0 0 0 0 .335.129.129 0 0 1 .113.029.127.127 0 0 1 .04.111l-.014.028.042.056Zm-1.145 4.188c-1.396 4.718-2.875 9.409-4.327 14.099-1.536 4.956-2.904 10.093-5.389 14.672v.642c.238-.321.475-.642.684-.963a41.263 41.263 0 0 0 6.841-14.714c.991-4.634 1.451-9.269 2.149-13.89l.042.154Zm.377-2.346c0-.293.098-.572.154-.865a91.697 91.697 0 0 0-7.748 15.356 53.677 53.677 0 0 0-2.499 15.621c4.174-9.772 6.673-20.144 10.051-30.223l.042.111Zm-24.667 73.695h-.503c-.083-.251-.195-.488-.293-.74l.126-.837c.237.53.461 1.047.67 1.577Z" opacity=".1"/><path fill="#263238" d="M487.33 569.694a174.85 174.85 0 0 1 25.211 4.188c4.105 1.061 8.139 2.303 12.16 3.629 2.01.656 4.034 1.257 6.058 1.829a27.032 27.032 0 0 0 6.492 1.228.154.154 0 0 1 .108.263.157.157 0 0 1-.108.045 46.786 46.786 0 0 1-6.254-.112 45.193 45.193 0 0 1-5.961-1.131c-4.188-1.033-8.376-2.247-12.467-3.322-8.376-2.164-16.752-4.328-25.337-5.877a.372.372 0 0 1-.321-.419.354.354 0 0 1 .047-.138.362.362 0 0 1 .226-.174.36.36 0 0 1 .146-.009ZM466.348 577.232a185.944 185.944 0 0 1 21.051-1.019c3.532 0 6.98.293 10.526.628 1.675.168 3.337.349 5.012.573 1.675.223 3.63.711 5.472.921.196 0 .196.321 0 .307-1.745-.154-3.518 0-5.263 0l-5.249-.14c-3.504-.083-6.98-.139-10.526-.251-6.98-.237-13.96-.405-21.037-.405-.377-.042-.349-.586.014-.614Z"/><path fill="#D3766A" d="M557.339 456.646c47.338 60.321 101.07 172.447 85.924 194.169-16.878 24.193-84.067-51.652-81.317-55.156 2.331-3.001-17.771-75.565-31.941-128.25-14.169-52.685 15.636-25.687 27.334-10.763Z"/><path fill="#BAE8E8" d="m615.482 529.084-76.905 6.338s-13.723-55.449-14.602-85.575c-.489-16.892 9.367-16.64 20.842-6.589 40.107 35.221 70.665 85.826 70.665 85.826Z"/><path fill="#000" d="M584.924 496.767s-.181-.684-.223-.866c0-.084 0-.112-.14 0s-9.297 15.133-10.61 23.188a43.485 43.485 0 0 0 .391 13.485l1.55-.126a52.216 52.216 0 0 1 .419-15.188c1.619-7.441 5.416-13.304 8.027-20.061v.335c-3.253 8.781-6.98 18.344-7.078 27.767.237-9.674 4.663-17.827 7.189-26.845a76.502 76.502 0 0 1-.795 20.842 75.265 75.265 0 0 1-3.658 12.801h.6a77.749 77.749 0 0 0 3.435-12.703c.57-3.604.896-7.242.977-10.889.097-2.317.237-4.719.167-7.092 1.187 6.729 2.499 13.597 1.55 20.34a32.663 32.663 0 0 1-3.169 10.093h.265a38.66 38.66 0 0 0 2.904-8.557c.9-4.922.929-9.964.084-14.896a64.219 64.219 0 0 1 1.521 9.2 25.529 25.529 0 0 1-2.582 14.086l2.471-.196c4.313-10.093-.238-22.964-3.295-34.718Zm-7.859 30.53a73.65 73.65 0 0 0-.377 4.998h.307c0-1.647.07-3.295.153-4.956.014-.084-.07-.098-.07-.042h-.013Zm-12.564-5.919c0-.377 0-.754-.07-1.131a.154.154 0 0 0 0-.251l-.084-.084c-.489-7.496-1.005-14.979-4.816-21.68-4.398-7.733-11.894-13.694-18.86-19.041 0-.098-.447.112-.419.14 0 8.529-.74 19.139 3.727 26.803 4.188 7.077 12.76 10.386 19.223 14.783 0 0 .098 0 .14.07l6.407 11.88 1.871-.153a297.857 297.857 0 0 0-7.147-11.336h.028Zm-7.246-23.481c2.96 5.152 3.574 10.568 4.649 15.971a98.775 98.775 0 0 0-19.935-33.169c5.752 5.207 11.28 10.288 15.258 17.198h.028Zm-11.279 6.98c-3.714-6.631-4.398-17.436-5.18-25.044 1.731 7.441 3.267 15.621 6.911 22.336 3.448 6.352 9.311 11.35 14.686 16.222-5.92-3.784-12.913-7.148-16.445-13.444l.028-.07Zm-4.845-24.625a357.027 357.027 0 0 1 21.192 37.664c-5.347-5.026-11.168-9.926-14.602-16.445-3.435-6.519-4.677-14.086-6.617-21.149l.027-.07Zm21.401 37.79a278.951 278.951 0 0 0-20.633-36.897 112.019 112.019 0 0 1 20.619 35.459c.154.642.335 1.284.517 1.912l-.503-.474Zm-2.792 15.579a35.777 35.777 0 0 0-3.392-3.699.333.333 0 0 0-.237-.084.459.459 0 0 0-.489.67 54.087 54.087 0 0 0-1.103 3.56l1.396-.112c.084-.558.154-1.103.223-1.661 0 .111.07.223.098.335 0 .433 0 .865-.07 1.298h.294v-.628c0 .209.125.405.181.614h.377a37.292 37.292 0 0 0-.628-1.745v-.293c.279.684.572 1.396.893 2.024h.293c-.223-.433-.432-.865-.642-1.298l.852 1.284 1.954-.265Zm-22.336-3.336c.447 1.912.796 3.35 1.005 4.188.168.279.321.558.461.851l1.871-.153a22.863 22.863 0 0 0-3.379-4.817l.042-.069Zm1.592-90.447a1.324 1.324 0 0 0 0-.126c.153-.195.321-.405.46-.614a17.4 17.4 0 0 0-.977-.586l-1.284 1.842a26.678 26.678 0 0 0-12.829 15.133c.097 1.396.209 2.792.349 4.188.223-.921.446-1.829.698-2.792 2.01-7.511 6.323-11.266 11.921-15.705a.504.504 0 0 0 .321 0 .389.389 0 0 0 .266-.168c0 .154.069.294.097.447 1.466 6.617 1.731 13.96-2.498 19.544a49.48 49.48 0 0 1-9.647 8.795c.07.53.14 1.061.224 1.605 4.872-3.029 10.009-6.7 12.438-11.489 3.015-6.017 1.898-13.625.419-20.004l.042-.07Zm-.21.712c.126-.112 0-.321-.195-.21l-.614.559c0-.335 0-.67.069-1.005a.108.108 0 0 0-.041-.053.11.11 0 0 0-.127 0 .108.108 0 0 0-.041.053c0 .404-.07.809-.112 1.228l-.125.126a45.847 45.847 0 0 0-12.76 20.353v.545a43.816 43.816 0 0 1 2.89-7.301 50.233 50.233 0 0 1 9.898-13.276v.223a67.802 67.802 0 0 0-7.357 12.564 75.536 75.536 0 0 1 7.329-12.48c-.531 5.947-1.299 11.796-4.3 17.129a49.701 49.701 0 0 1-7.664 9.772 3.387 3.387 0 0 0 0 .377 41.623 41.623 0 0 0 8.488-10.959c2.596-5.151 3.322-11 3.699-16.752l.167-.223s0-.098-.083 0l-.098.153v-.083l.977-.74Zm-10.595 17.994c-1.02 2.038-2.039 4.062-3.016 6.115v.488c.963-2.205 1.941-4.411 3.016-6.575.027.042-.028 0-.042.042l.042-.07Z" opacity=".1"/><path fill="#263238" d="M540.252 523.095c11.754-1.954 43.779-6.352 64.956-6.477.126 0 .181.488 0 .502-17.604 2.792-53.048 5.766-64.928 6.687-.154.028-.237-.684-.028-.712Z"/><path fill="#263238" d="M547.944 534.668c-3.136 0-6.273.065-9.409.195l.6.447c-1.396-8.474-3.169-16.864-5.067-25.226-1.899-8.362-3.993-16.752-6.492-24.932 1.173 8.515 2.792 16.947 4.509 25.351 1.717 8.404 3.714 16.752 5.933 25.058l.126.517.475-.07a233.5 233.5 0 0 0 9.325-1.34Z"/><path fill="#263238" d="M531.01 501.946a23.505 23.505 0 0 0-2.121-5.026 34.402 34.402 0 0 0-3.002-4.579 9.78 9.78 0 0 0 .642 2.695c.31.859.693 1.69 1.145 2.484a17.512 17.512 0 0 0 3.336 4.426Z"/><path fill="#D3766A" d="M526.627 444.137c-.405 3.644-14.588 28.646-30.852 29.805-5.304.363-8.599-28.506-8.599-28.506l-.74-2.08-10.205-29.065 32.374-26.636 4.704-3.587s2.262 8.138 4.984 18.301c.139.475.265.935.391 1.396.125.461.335 1.103.474 1.647.419 1.508.852 3.058 1.243 4.607.307 1.173.614 2.318.879 3.56.266 1.242.587 2.471.894 3.713 2.722 12.397 4.607 25.31 4.453 26.845Z"/><path fill="#263238" d="M518.293 402.369a61.699 61.699 0 0 1-31.857 40.987l-10.205-29.065 32.374-26.636 4.704-3.587s2.262 8.208 4.984 18.301Z"/><path fill="#263238" d="M521.364 389.484a11.385 11.385 0 0 1 2.15 3.881c2.052 6.463-.838 13.108-4.467 18.371-3.895 5.584-9.367 10.708-11.252 17.436a11.282 11.282 0 0 0 .335 8.027c1.396 2.792 4.188 4.188 7.05 5.012 2.862.824 6.798 1.228 8.864 3.923a8.827 8.827 0 0 1 .866 7.943c-2.066 6.687-9.27 10.177-13.555 15.356a35.514 35.514 0 0 0-8.181 19.307 34.463 34.463 0 0 0 3.839 19.278 33.796 33.796 0 0 0 5.654 7.916c2.527 2.596 5.584 4.606 8.222 7.077 2.639 2.471 4.761 5.403 4.663 8.935 0 2.722-5.584 11.168-17.157 15.356-.823.293-.237 1.773.712 1.773a44.627 44.627 0 0 0 5.459-.238 47.474 47.474 0 0 0 36.296-23.564 49.436 49.436 0 0 0 6.309-23.034c.112-4.481-.139-9.018.726-13.444a24.865 24.865 0 0 1 5.124-10.539c4.704-5.933 10.791-10.68 14.462-17.422a41.606 41.606 0 0 0 4.803-19.754 49.191 49.191 0 0 0-17.45-37.05c-10.722-9.255-44.002-15.188-43.472-14.546Z"/><path fill="#263238" d="M521.657 389.847a19.211 19.211 0 0 1 3.365 8.055 15.926 15.926 0 0 1-1.145 7.817c-2.206 5.584-6.45 9.772-10.512 13.96-3.811 3.979-7.65 8.376-8.53 14.03-.432 2.42-.17 4.912.754 7.19a10.139 10.139 0 0 0 5.766 5.179c4.579 1.857 10.958 2.792 12.717 8.194 1.759 5.403-2.68 10.345-5.821 14.03-7.664 9.004-18.944 19.544-15.9 32.708 1.549 6.659 5.919 12.899 10.372 17.953 3.211 3.658 7.315 8.236 6.449 13.499 0 .196-.321.098-.293-.083.824-5.584-4.076-9.465-7.524-13.053a46.43 46.43 0 0 1-9.772-14.658 22.559 22.559 0 0 1 .349-17.087c2.289-5.654 6.114-10.386 10.135-14.895 2.066-2.318 4.188-4.593 6.17-6.98a19.092 19.092 0 0 0 4.314-7.218 6.59 6.59 0 0 0-2.792-7.301c-2.415-1.661-5.277-2.289-7.985-3.308a13.248 13.248 0 0 1-6.254-4.258 12.152 12.152 0 0 1-2.234-5.78 19.15 19.15 0 0 1 3.811-13.29c3.881-5.444 9.465-9.45 13.248-14.965a19.203 19.203 0 0 0 3.685-9.534c.21-3.644-1.396-6.701-2.959-9.856a.367.367 0 0 1 .025-.217.366.366 0 0 1 .358-.213.357.357 0 0 1 .203.081ZM571.034 403.863c11.056 9.144 15.356 24.276 12.843 38.111a49.6 49.6 0 0 1-9.688 21.163c-4.453 5.807-9.772 11.168-12.955 17.855-3.476 7.427-2.262 15.44-2.248 23.355a44.18 44.18 0 0 1-3.992 18.525 47.16 47.16 0 0 1-26.357 24.444 41.715 41.715 0 0 1-4.547 1.41.15.15 0 0 1-.117-.058.142.142 0 0 1-.03-.06.156.156 0 0 1 .027-.129.15.15 0 0 1 .116-.06c11.964-3.183 21.959-11.992 27.697-22.839a44.315 44.315 0 0 0 5.053-17.255c.573-7.454-1.06-14.979.489-22.336 1.396-6.98 5.961-12.633 10.4-17.938 4.858-5.794 9.605-11.531 12.299-18.693 5.012-13.289 3.281-28.869-5.947-39.939-10.302-12.355-26.622-16.04-41.88-17.59l-6.128-.6c-.224 0-.238-.377 0-.363 15.579.796 32.471 2.666 44.965 12.997Z"/><path fill="#BAE8E8" d="M524.393 381.527c2.374.53 4.97 2.973 5.012 4.607.042 1.633-7.636 11.698-10.777 11.949-3.141.252-4.439-5.43-4.439-5.43l10.204-11.126Z"/><path fill="#D3766A" d="M427.902 375.524c5.682 53.76 38.502 56.454 50.074 55.226 10.512-1.117 46.166-6.24 46.068-60.307-.097-54.068-26.859-68.404-51.037-67.148-24.179 1.256-50.787 18.483-45.105 72.229Z"/><path fill="#263238" d="M433.821 369.745a33.377 33.377 0 0 0 3.476-1.313 5.909 5.909 0 0 0 3.281-1.996 1.917 1.917 0 0 0-.349-2.303 4.734 4.734 0 0 0-4.789-.391 6.98 6.98 0 0 0-3.95 3.085 2.04 2.04 0 0 0 .211 2.221 2.035 2.035 0 0 0 2.12.697ZM470.229 364.077a36.576 36.576 0 0 1-3.714-.21 6.045 6.045 0 0 1-3.741-.935 1.927 1.927 0 0 1-.335-2.317 4.754 4.754 0 0 1 4.439-1.801 6.978 6.978 0 0 1 4.691 1.787c.278.279.47.633.552 1.018a2.041 2.041 0 0 1-1.892 2.458ZM463.793 378.386c0-.14.307.139.321.293.349 3.644 1.396 7.748 4.802 8.53.112 0 .126.209 0 .209-4.048-.042-5.374-5.514-5.123-9.032Z"/><path fill="#263238" d="M466.543 374.128c5.78-1.201 7.748 10.442 2.387 11.559-5.36 1.117-7.231-10.498-2.387-11.559Z"/><path fill="#263238" d="M468.93 374.407c1.131.489 2.332 1.494 3.574 1.396 1.243-.097 2.304-1.493 3.043-2.792.07-.139.182 0 .21.098.419 2.234 0 4.663-2.387 5.402-2.388.74-4.035-1.047-4.97-3.196-.168-.419.084-1.103.53-.908ZM443.621 381.01c0-.125-.251.224-.223.363.753 3.588 1.005 7.818-2.039 9.591-.097 0 0 .237 0 .195 3.965-1.27 3.546-6.868 2.262-10.149Z"/><path fill="#263238" d="M439.74 377.813c-5.877.587-4.272 12.285 1.159 11.755 5.43-.531 3.755-12.243-1.159-11.755Z"/><path fill="#263238" d="M437.409 378.916c-.852.754-1.606 1.997-2.709 2.234-1.102.237-2.387-.88-3.364-1.982-.098-.112-.181 0-.167.153.251 2.234 1.312 4.467 3.517 4.607 2.206.14 3.183-1.996 3.407-4.3.056-.419-.349-1.005-.684-.712ZM471.974 404.84c-.587 1.075-1.075 2.471-2.304 2.973a9.764 9.764 0 0 1-4.034.28c-.112 0-.196.153-.084.223a4.917 4.917 0 0 0 5.012.531 3.9 3.9 0 0 0 1.787-3.951c0-.196-.294-.182-.377-.056ZM454.049 396.785s.586 5.486 1.215 7.985c0 .238.684.196 1.549 0h.098a12.266 12.266 0 0 0 10.442-7.329c.112-.293-.279-.46-.461-.251a18.534 18.534 0 0 1-10.079 5.821c-.349-.656-.698-9.423-1.103-9.353a22.435 22.435 0 0 0-5.36 2.694c-1.564-11.377-1.285-22.922-3.002-34.244a.35.35 0 0 0-.698 0c-1.144 12.076.363 25.226 1.675 37.022.154 1.522 4.831-1.675 5.724-2.345Z"/><path fill="#263238" d="M448.856 322.979s.167 8.501 4.495 13.443c8.907 10.163 22.127 3.085 28.255 6.366 5.738 3.071 6.715 12.564 12.034 15.747 7.37 4.425 14.406-.098 16.486 3.699 2.08 3.797 8.265 12.327 13.891 12.564 5.625.237 7.217-89.972-62.025-71.196a47.349 47.349 0 0 0-22.336 11.308c-13.332 12.717-12.689 43.597-12.689 43.597s.223-.461 1.954-3.155c2.443-3.797 2.946-6.813 4.788-9.353 2.918-3.993 5.291-3.462 8.376-7.427 4.635-6.143 6.771-15.593 6.771-15.593Z"/><path fill="#263238" d="M448.828 318.944c-.1 3.659.223 7.318.963 10.903a19.654 19.654 0 0 0 4.272 9.646 14.48 14.48 0 0 0 9.409 3.923c3.532.279 7.161-.377 11 0 1.985.192 3.878.926 5.473 2.122a14.771 14.771 0 0 1 3.448 4.649c1.689 3.266 3.392 6.477 6.38 8.306a12.048 12.048 0 0 0 10.107 1.242c3.392-.949 6.868-2.973 10.609-2.415-3.769-.251-6.896 1.955-10.358 3.225a13.091 13.091 0 0 1-11.028-.907c-3.518-1.885-5.375-5.584-7.078-8.698a13.145 13.145 0 0 0-3.113-4.104 9.238 9.238 0 0 0-4.649-1.703c-3.462-.433-7.147.168-10.917-.167a18.73 18.73 0 0 1-5.584-1.285 11.42 11.42 0 0 1-4.76-3.238 20.751 20.751 0 0 1-4.118-10.415 47.127 47.127 0 0 1-.056-11.084Z"/><path fill="#263238" d="M448.409 322.392a38.369 38.369 0 0 1-.628 10.247 17.97 17.97 0 0 1-4.649 9.367 25.096 25.096 0 0 1-4.188 3.141 8.253 8.253 0 0 0-2.945 3.476 26.496 26.496 0 0 1-1.801 4.83 11.388 11.388 0 0 1-3.574 3.714 12.568 12.568 0 0 0 2.792-4.091 25.186 25.186 0 0 0 1.298-4.858 8.794 8.794 0 0 1 3.239-4.369 28.932 28.932 0 0 0 3.895-3.044 19.19 19.19 0 0 0 4.509-8.501 74.57 74.57 0 0 0 2.052-9.912Z"/><path fill="#D3766A" d="M514.831 375.524s8.376-18.804 16.668-16.124c8.292 2.681 4.272 28.367-3.909 33.365a9.13 9.13 0 0 1-12.955-2.499l.196-14.742Z"/><path fill="#263238" d="M530.159 366.701c.139 0 .195.154.084.224-5.696 3.699-7.832 10.065-8.949 16.458 1.396-2.652 3.644-4.383 7.134-2.792.181.084.084.363-.098.363a5.585 5.585 0 0 0-5.696 3.1 27.07 27.07 0 0 0-1.926 5.43c-.182.6-1.242.503-1.145-.181v-.14c-1.647-7.804 2.29-20.033 10.596-22.462Z"/><path fill="#D3766A" d="M642.244 652.77c-18.148 10.944-79.223 3.825-160.931-14.756-11.308-2.569 15.663-80.968 27.92-78.804 15.356 2.68 74.504 16.403 78.706 17.952 35.361 13.067 66.576 68.181 54.305 75.608Z"/><path fill="#D3766A" d="M530.061 566.86s-4.914-1.815-29.316-15.621c-16.863-9.549-64.062-22.015-106.319 12.34-16.194 13.178-14.03 30.279 5.221 19.544 13.555-7.538 22.336-13.96 27.417-15.132 0 0-9.06 21.945-1.731 33.587a255.914 255.914 0 0 0 21.387 29.121 54.014 54.014 0 0 0 5.793-3.504 28.945 28.945 0 0 0 28.8 10.777l48.748-71.112Z"/><path fill="#D3766A" d="M483.197 544.705c-9.953 2.038-30.893 6.715-46.821 16.487-17.618 10.889-48.609 36.645-40.484 49.558 5.988 9.479 18.692.684 18.692.684s-10.568 13.346-3.281 20.717c6.645 6.728 16.068-.67 16.068-.67s-5.025 9.199 2.625 14.434c9.186 6.31 18.148-13.96 33.029-15.663 3.393-.321 20.172-85.547 20.172-85.547Z"/><path fill="#263238" d="M450.992 577.944c-9.032 3.462-27.557 16.584-36.38 33.141-.195.363 0 .726.237.419a203.341 203.341 0 0 1 36.296-33.392c.042-.07-.042-.168-.153-.168ZM461.49 596.092c-7.497 3.783-25.994 18.148-34.342 35.235-.195.391 0 .726.251.419a216.675 216.675 0 0 1 34.202-35.486c.084-.168-.028-.266-.111-.168Z"/><path fill="#263238" d="M427.399 631.69a17.821 17.821 0 0 1-9.409 3.281 9.478 9.478 0 0 1-8.459-4.872 10.165 10.165 0 0 1-1.006-5.012 19.168 19.168 0 0 1 1.061-4.998 31.32 31.32 0 0 1 4.956-8.864l.545.6a24.236 24.236 0 0 1-8.851 3.811c-1.61.349-3.276.349-4.886 0a9 9 0 0 1-4.286-2.485 10.44 10.44 0 0 1-2.485-4.286 12.222 12.222 0 0 1-.279-4.927 24.147 24.147 0 0 1 3.574-8.963 43.676 43.676 0 0 1 6.003-7.468 216.439 216.439 0 0 1 6.742-6.673 174.893 174.893 0 0 1 14.323-12.564l.684 1.186a139.035 139.035 0 0 0-13.541 6.98 70.52 70.52 0 0 0-6.338 4.188 45.075 45.075 0 0 1-6.645 4.021 27.026 27.026 0 0 1-7.398 2.485c-1.335.23-2.7.23-4.035 0a5.906 5.906 0 0 1-3.546-2.164 6.607 6.607 0 0 1-1.326-3.909c-.023-1.35.2-2.694.656-3.965a24.459 24.459 0 0 1 3.839-6.784 52.844 52.844 0 0 1 11.35-10.414 110.081 110.081 0 0 1 13.094-7.985 89.922 89.922 0 0 1 29.009-9.451 89.668 89.668 0 0 0-28.674 10.065 109.362 109.362 0 0 0-12.913 8.097 51.904 51.904 0 0 0-10.986 10.344 23.061 23.061 0 0 0-3.588 6.505c-.81 2.276-.935 4.942.503 6.743 1.438 1.801 4.048 2.094 6.421 1.717a25.106 25.106 0 0 0 6.98-2.401 43.128 43.128 0 0 0 6.422-3.923 75.612 75.612 0 0 1 6.435-4.258 125.342 125.342 0 0 1 13.681-6.98l5.584-2.47-4.83 3.448a179.633 179.633 0 0 0-14.239 12.326 225.76 225.76 0 0 0-6.729 6.617 41.692 41.692 0 0 0-5.877 7.246 22.807 22.807 0 0 0-3.434 8.473 11.181 11.181 0 0 0 .195 4.454 9.194 9.194 0 0 0 2.164 3.853 8.003 8.003 0 0 0 3.755 2.247c1.474.354 3.007.387 4.495.098a23.345 23.345 0 0 0 8.516-3.504l2.164-1.396-1.62 1.982a31.374 31.374 0 0 0-4.927 8.572 18.924 18.924 0 0 0-1.131 4.802 9.593 9.593 0 0 0 .851 4.76 9.15 9.15 0 0 0 8.041 4.858 17.741 17.741 0 0 0 9.395-3.043ZM616.46 598.689c-2.792-3.141-10.875-13.081-23.732-19.544-11.252-5.584-27.264-8.614-35.612-9.619-.21 0-.307.21-.098.279 7.203 2.457 21.875 5.584 33.923 11.392a106.181 106.181 0 0 1 25.295 17.687c.14.126.349 0 .224-.195Z"/><path fill="#fff" d="M313.5 339.772a50.664 50.664 0 0 0 80.87 40.694l24.821 6.338-10.331-23.118a50.68 50.68 0 0 0 1.647-44.422 50.673 50.673 0 0 0-56.814-29.055 50.692 50.692 0 0 0-20.684 9.621 50.687 50.687 0 0 0-14.368 17.718 50.662 50.662 0 0 0-5.141 22.224Z"/><path fill="#263238" d="M313.5 339.772a51.017 51.017 0 0 0 7.636 26.524 55.66 55.66 0 0 0 4.034 5.682 56.896 56.896 0 0 0 4.858 5.012c.894.754 1.676 1.619 2.639 2.289l2.792 2.066c.935.698 1.982 1.229 2.959 1.843l1.494.893c.517.294 1.047.517 1.577.768 1.047.489 2.095 1.005 3.155 1.48l3.267 1.187c1.094.397 2.213.719 3.35.963 1.131.265 2.234.628 3.379.782a48.13 48.13 0 0 0 6.91.753c2.325.165 4.66.132 6.98-.097a50.429 50.429 0 0 0 13.485-3.141 51.456 51.456 0 0 0 12.076-6.729l.181-.14h.238l24.848 6.227-.712.851-10.386-23.104-.139-.293.167-.293a50.166 50.166 0 0 0 1.661-43.848 52.225 52.225 0 0 0-13.471-18.148 50.091 50.091 0 0 0-20.061-10.387 50.678 50.678 0 0 0-22.657-.6 50.508 50.508 0 0 0-40.246 49.335l-.014.125Zm0 0a50.903 50.903 0 0 1 19.544-39.995 50.497 50.497 0 0 1 43.541-9.409 50.922 50.922 0 0 1 20.549 10.33 51.143 51.143 0 0 1 18.357 41.071 50.369 50.369 0 0 1-6.044 22.336v-.601l10.274 23.146.517 1.159-1.229-.321-24.793-6.45.419-.084a50.7 50.7 0 0 1-26.091 9.772 45.43 45.43 0 0 1-6.98 0 51.011 51.011 0 0 1-6.98-.851c-1.159-.168-2.275-.559-3.42-.824a28.004 28.004 0 0 1-3.351-1.019l-3.294-1.228c-1.061-.489-2.108-1.033-3.155-1.536-.517-.265-1.061-.502-1.564-.782l-1.493-.921c-.992-.642-2.025-1.187-2.96-1.885l-2.792-2.122a31.552 31.552 0 0 1-2.638-2.289 57.103 57.103 0 0 1-4.858-5.054 58.497 58.497 0 0 1-4.021-5.737 50.93 50.93 0 0 1-7.538-26.706Z"/><path fill="#6A9898" d="M340.792 316.711a16.65 16.65 0 0 0-3.612 18.15 16.65 16.65 0 0 0 15.387 10.281 16.656 16.656 0 0 0 16.334-19.904 16.657 16.657 0 0 0-4.559-8.527 16.64 16.64 0 0 0-23.55 0Zm3.378 3.392a3.112 3.112 0 1 1 4.394 4.409 3.112 3.112 0 0 1-4.394-4.409Z"/><path fill="#6A9898" d="m355.801 342.557 3.563 3.564 10.809-10.809-3.563-3.564-10.809 10.809Z"/><path fill="#EBEBEB" d="m368.46 337.022-7.329 7.329 1.801 1.801 3.029-.935-.935 3.029L368 351.22l4.034-.824-.838 4.02.67.671 3.03-.936-.936 3.03 3.044-.936-.95 3.044 2.374 2.359 4.02-.838-.837 4.021 2.066 2.066 8.166.823-.837-8.152-22.546-22.546Z"/><path fill="#DBDBDB" d="m365.778 341.736 21.006 21.006.503-.504-21.006-21.005-.503.503Z"/><path fill="#BAE8E8" d="M338.083 328.493a14.553 14.553 0 0 0 4.272 10.205 14.323 14.323 0 0 0 20.242-.168 14.334 14.334 0 0 0 0-20.061 14.338 14.338 0 0 0-20.242-.181 14.55 14.55 0 0 0-4.272 10.205Zm0 0a14.629 14.629 0 0 1 14.477-14.644 14.644 14.644 0 1 1-14.477 14.644Z" opacity=".1"/><path fill="#455A64" d="M514.286 641.099H326.845v8.404h187.441v-8.404Z"/><path fill="#37474F" d="M421.187 641.099h-94.342v8.404h94.342v-8.404Z"/><path fill="#37474F" d="M415.464 649.489H232.783l-23.872-124.062h182.667l23.886 124.062Z"/><path fill="#455A64" d="M408.037 649.489H225.356l-23.885-124.062h182.68l23.886 124.062Z"/><path fill="#fff" d="M315.873 587.465a10.035 10.035 0 0 1-5.992 10.346 10.035 10.035 0 0 1-4.157.822 12.37 12.37 0 0 1-12.089-11.168 10.018 10.018 0 0 1 5.989-10.351 10.01 10.01 0 0 1 4.16-.817 12.378 12.378 0 0 1 8.168 3.285 12.377 12.377 0 0 1 3.921 7.883Z"/></svg>