<svg xmlns="http://www.w3.org/2000/svg" width="698" height="698"><path fill="#A8D1D1" d="M348.93 669.312c160.566 0 290.731-77.207 290.731-172.448 0-95.24-130.165-172.448-290.731-172.448S58.2 401.624 58.2 496.864c0 95.241 130.164 172.448 290.73 172.448Z"/><path fill="#6A9898" d="M179.149 588.205c47.963 0 86.845-22.451 86.845-50.145 0-27.694-38.882-50.144-86.845-50.144-47.964 0-86.846 22.45-86.846 50.144s38.882 50.145 86.846 50.145ZM462.523 616.557a18.551 18.551 0 0 1-9.13-2.275L220.484 479.805a10.132 10.132 0 0 1-4.192-14.534 10.125 10.125 0 0 1 4.192-3.739l140.536-81.136a19.373 19.373 0 0 1 18.273 0l232.909 134.463c3.657 2.108 8.25 4.118 8.25 9.144 0 5.025-4.593 6.98-8.25 9.129L471.667 614.24a18.608 18.608 0 0 1-9.144 2.317Z"/><path fill="#37474F" d="m578.628 467.492-17.213-9.925s-5.584-26.859-1.815-53.802c6.324-45.914 31.257-52.783 40.778-49.53 9.52 3.253 12.326 14.309-3.365 37.008-9.297 13.388-20.577 41.266-18.385 76.249Z"/><path fill="#fff" d="M567.809 452.485h.112a.864.864 0 0 0 .726-.963c-5.012-35.346 9.074-74.141 25.002-89.818a.844.844 0 0 0 .182-.915.833.833 0 0 0-.182-.272.833.833 0 0 0-.593-.252.832.832 0 0 0-.594.252c-16.221 15.956-30.586 55.393-25.505 91.257a.838.838 0 0 0 .852.711Z"/><path fill="#455A64" d="M610.527 485.808c1.926.963 6.98-3.42 8.376-4.481a17.845 17.845 0 0 0 5.584-7.12 16.755 16.755 0 0 0 .935-10.107 39.194 39.194 0 0 0-1.55-5.263l-1.717-5.137a12.84 12.84 0 0 1-1.033-5.165c.251-3.574 3.267-6.212 6.003-8.502 3.029-2.541 6.156-5.835 5.905-10.093a14.937 14.937 0 0 0-4.188-8.711c-2.164-2.471-4.704-4.621-6.701-7.245a10.588 10.588 0 0 1-2.499-6.506 10.974 10.974 0 0 1 1.229-4.188c1.396-2.792 3.197-5.5 4.076-8.529.88-3.029.531-6.743-1.898-8.753-2.011-1.647-4.858-1.731-7.427-1.396a16.894 16.894 0 0 0-6.701 2.792c-6.547 4.118-9.981 12.341-17.003 15.607-2.708 1.271-5.724 1.675-8.572 2.597-2.847.921-5.709 2.541-6.91 5.291-2.61 6.016 3.56 11.754-.809 17.603-1.396 1.815-3.114 3.281-4.551 5.012-4.063 4.914-5.864 10.065-4.719 18.036a19.955 19.955 0 0 0 9.06 14.128l35.11 20.13Z"/><path fill="#fff" d="M591.904 476.148a.854.854 0 0 0 .768-.922c-3.183-33.35 10.595-71.098 21.484-82.433a.877.877 0 0 0 .206-.281.85.85 0 0 0-.188-.968.848.848 0 0 0-1.246.076c-11.098 11.559-25.128 49.935-21.931 83.76a.836.836 0 0 0 .907.768Z"/><path fill="#fff" d="M595.073 434.994h.251a113.283 113.283 0 0 1 24.053-5.207.852.852 0 0 0 .754-.922.819.819 0 0 0-.579-.735.828.828 0 0 0-.328-.033 115.74 115.74 0 0 0-24.486 5.305.849.849 0 0 0-.489 1.089.828.828 0 0 0 .824.503Z"/><path fill="#BAE8E8" d="m134.156 514.203 10.902-3.923a171.86 171.86 0 0 0-.74-39.339c-4.425-29.288-25.658-54.207-43.806-57.725-23.397-4.495-19.823 17.241-6.659 26.943 20.996 15.481 37.078 38.669 40.303 74.044Z"/><path fill="#000" d="m134.156 514.203 10.902-3.923a171.86 171.86 0 0 0-.74-39.339c-4.425-29.288-25.658-54.207-43.806-57.725-23.397-4.495-19.823 17.241-6.659 26.943 20.996 15.481 37.078 38.669 40.303 74.044Z" opacity=".2"/><path fill="#fff" d="M139.502 512.849h-.125a1.273 1.273 0 0 1-.978-1.522c5.85-26.803-14.937-77.38-44.197-92.387a1.29 1.29 0 0 1-.558-1.731 1.286 1.286 0 0 1 1.73-.559c30.154 15.468 51.555 67.608 45.524 95.221a1.283 1.283 0 0 1-1.396.978Z"/><path fill="#BAE8E8" d="M141.122 511.69c.53-3.169.851-7.832.949-8.976a29.542 29.542 0 0 0-1.396-11.978 23.468 23.468 0 0 0-9.619-12.355c-2.456-1.521-5.346-2.652-6.98-5.081-1.396-2.094-1.396-4.719-1.633-7.19-.377-4.048-1.521-8.376-4.676-10.888-3.155-2.513-7.525-2.792-11.545-2.429-5.794.446-11.168 1.075-16.543-1.717a116.403 116.403 0 0 0-13.15-6.38c-5.71-2.15-18.567-5.347-21.513 2.68a7.83 7.83 0 0 0 .992 6.645 22.907 22.907 0 0 0 4.718 5.068l8.809 7.775a11.376 11.376 0 0 1 2.666 2.946c1.675 3.043.321 6.812.614 10.274a12.241 12.241 0 0 0 5.361 8.781 16.478 16.478 0 0 0 10.037 2.722c4.719-.181 12.564-3.587 15.245 2.067a17.765 17.765 0 0 1 1.228 6.002c.063 2.066.68 4.077 1.787 5.822 1.815 2.401 5.053 3.169 8.041 3.559 4.188.559 8.488.712 12.368 2.36 1.592.67 2.555 2.792 3.463 4.188 2.945-1.033 6.212-2.122 10.777-3.895Z"/><path fill="#fff" d="M135.97 514.649a1.184 1.184 0 0 1-.991-.753c-10.665-28.186-36.03-50.717-71.42-63.449a1.17 1.17 0 0 1-.682-1.493 1.173 1.173 0 0 1 1.479-.712c36.044 12.968 61.898 35.989 72.815 64.83a1.186 1.186 0 0 1-.684 1.508 1.394 1.394 0 0 1-.517.069Z"/><path fill="#BAE8E8" d="M459.41 602.918 226.501 468.442a12.806 12.806 0 0 1-5.793-10.037v-30.531a12.801 12.801 0 0 1 5.793-10.037l140.535-81.136a12.755 12.755 0 0 1 11.587 0l232.909 134.463a12.795 12.795 0 0 1 5.793 10.037v30.531a12.799 12.799 0 0 1-5.793 10.037l-140.536 81.149a12.824 12.824 0 0 1-11.586 0Z"/><path fill="#000" d="M617.325 481.201v30.545a12.79 12.79 0 0 1-5.793 10.023l-140.536 81.136a11.788 11.788 0 0 1-5.793 1.396v-43.919a11.884 11.884 0 0 0 5.793-1.396l140.536-81.135c3.001-1.731 3.197-4.453.586-6.31a12.88 12.88 0 0 1 5.207 9.66Z" opacity=".2"/><path fill="#000" d="M465.203 560.382V604.3a11.734 11.734 0 0 1-5.793-1.396L226.501 468.442a12.76 12.76 0 0 1-5.793-10.024V427.86a12.92 12.92 0 0 1 5.207-9.646c-2.597 1.856-2.387 4.579.586 6.31L459.424 559a11.88 11.88 0 0 0 5.779 1.382Z" opacity=".1"/><path fill="#BAE8E8" d="M611.532 477.851 470.996 559a12.824 12.824 0 0 1-11.586 0L226.501 424.524c-3.197-1.843-3.197-4.845 0-6.687l140.535-81.136a12.755 12.755 0 0 1 11.587 0l232.909 134.463c3.197 1.843 3.197 4.872 0 6.687ZM311.406 474.403c-3.057-1.773-5.905-1.843-8.223-.489-.781.447-4.034 2.29-4.872 2.792-2.526 1.564-4.383 4.858-5.109 9.549a16.62 16.62 0 0 0-2.96-3.407l.838-.474c1.675-.977 2.471-3.434 2.471-6.743 0-8.069-3.741-12.955-8.488-15.691l-8.543-4.844-4.007 2.303v-4.62l-6.282-3.616-4.69 2.708v9.772l-6.324-18.874-6.282-3.615-4.635 2.652v4.579c-2.401-7.887-6.84-14.714-11.936-17.659a7.931 7.931 0 0 0-8.083-.545l-.181.098-4.593 2.638c-2.387 1.173-5.737 5.403-5.737 14.491 0 12.382 5.751 25.309 13.96 30.014 3.168 1.829 6.002 1.926 8.278.6.782-.461 3.825-2.22 4.579-2.638a9.314 9.314 0 0 0 3.769-4.398v15.272l6.282 3.616 4.69-2.708v-9.772l6.213 18.79 6.282 3.616 4.006-2.304v4.621l10.456 6.031c2.569 1.493 4.649 1.717 6.157.865.823-.446 3.992-2.303 4.774-2.792a4.184 4.184 0 0 0 1.396-1.27c2.275 7.971 6.673 14.881 12.159 18.064 3.057 1.759 5.807 1.899 8.041.726.88-.461 4.048-2.359 4.802-2.792 3.504-1.912 5.71-7.134 5.71-14.686-.056-12.299-6.268-25.435-13.918-29.86Zm-77.716-10.47a7.12 7.12 0 0 1-1.396-.601c-5.137-2.973-7.105-10.428-7.105-16.752a17.062 17.062 0 0 1 1.061-6.421c.489.134.958.331 1.396.586 4.872 2.792 7.078 10.414 7.078 16.752a17.942 17.942 0 0 1-1.034 6.436Zm49.112 29.679v-3.993a8.223 8.223 0 0 1 1.842 5.068l-1.842-1.075Zm29.986 15.998a6.46 6.46 0 0 1-1.396-.614c-5.137-2.96-7.106-10.429-7.106-16.752a17.087 17.087 0 0 1 1.061-6.422c.484.147.952.343 1.396.586 4.886 2.792 7.078 10.414 7.078 16.752a18.017 18.017 0 0 1-1.033 6.45ZM454.747 576.548l4.579-2.597 4.146-4.523c-2.401-5.863-5.766-10.595-10.61-13.387-2.889-1.661-5.486-1.787-7.608-.67-.879.474-4.188 2.387-4.97 2.861a9.511 9.511 0 0 0-3.615 4.37v-15.133l-6.282-3.629-4.691 2.708v9.772l-6.366-18.86-6.282-3.616-4.02 2.332v-4.635l-6.268-3.616-4.691 2.695v4.872c-2.443-7.72-6.98-14.281-11.977-17.199l-7.985-4.607-4.677 2.708v30.629l-5.724-13.877 2.234-1.27c1.94-1.089 3.127-3.909 3.127-8.516 0-8.376-3.881-14.839-8.99-17.785l-9.842-5.681-4.705 2.666v23.202l-7.51-32.974-5.807-3.35-4.691 2.708-11.168 36.003 6.743 3.895 4.69-2.709.74-2.652 7.092 4.104 2.038 9.646 6.743 3.895 1.075-.614v1.243l6.282 3.615 4.69-2.708v-1.996l3.714 9.562 7.985 4.607 1.242-.712v1.396l7.971 4.621c3.127 1.801 6.045 1.968 8.376.684l4.858-2.792a9.1 9.1 0 0 0 3.421-3.923v15.691l6.268 3.616 4.006-2.304v4.621l6.282 3.63 4.691-2.708v-9.772l6.324 18.859 6.282 3.63 4.69-2.708v-4.509c2.345 7.748 6.603 14.504 11.503 17.338 2.792 1.619 5.738 2.066 8.097.726.796-.447 3.797-2.234 4.551-2.638 2.247-1.187 4.02-3.937 4.76-8.781v-9.2l-10.721-6.254Zm-93.532-53.83-.726-.433v-4.369a9.606 9.606 0 0 1 1.243 5.067v.126l-.517-.391Zm23.174 9.968a24.05 24.05 0 0 1 4.188 13.611 14.452 14.452 0 0 1-1.159 6.086 6.686 6.686 0 0 1-2.01-.768l-.964-.572-.055-18.357Zm70.065 56.58a9.923 9.923 0 0 1-.279 2.47 5.342 5.342 0 0 1-1.006-.46 12.232 12.232 0 0 1-4.299-5.235l5.584 3.225Zm-1.647-13.835-4.691 2.75v6.185a28.107 28.107 0 0 1-1.954-10.149 16.498 16.498 0 0 1 1.298-6.98c.353.111.694.256 1.019.432 2.401 1.396 4.481 4.049 6.073 8.781l-1.745-1.019Z"/><path fill="#000" d="M306.715 477.111c7.65 4.411 13.862 17.562 13.862 29.944 0 7.552-2.205 12.774-5.723 14.686.991-.53 3.978-2.303 4.704-2.708 3.504-1.913 5.71-7.134 5.71-14.686 0-12.383-6.212-25.533-13.862-29.944-3.058-1.773-5.905-1.843-8.223-.489-.781.447-4.034 2.29-4.872 2.792 2.318-1.438 5.249-1.424 8.404.405Z" opacity=".2"/><path fill="#000" d="M282.802 493.612v-3.993a10.51 10.51 0 0 0-2.792-2.192l-1.969-1.13v10.023l1.969 1.131c2.973 1.717 4.606 1.27 4.606-2.066v-.712l-1.814-1.061Z" opacity=".3"/><path fill="#000" d="m261.485 478.074.056.042v-16.529l-6.324-18.86-6.282-3.615-4.677 2.708 6.268 3.616 10.959 32.638Z" opacity=".2"/><path fill="#000" d="m250.526 445.436 4.691-2.709 6.324 18.86v16.529l-11.015-32.68Z" opacity=".1"/><path fill="#000" d="M282.788 475.827a7.358 7.358 0 0 0-4.188-6.729l-.503-.279v9.143l.503.294c2.708 1.563 4.188 1.116 4.188-2.429Z" opacity=".3"/><path fill="#000" d="M293.16 486.283a15.769 15.769 0 0 0-2.946-3.407l.866-.502c1.647-.977 2.443-3.42 2.443-6.715 0-8.069-3.741-12.955-8.488-15.691l-8.515-4.872-4.007 2.303v-4.62l-6.282-3.616-4.69 2.708 6.282 3.616v42.41l4.006-2.303v-37.86l8.544 4.942c4.746 2.792 8.487 7.609 8.487 15.691 0 3.895-1.103 6.603-3.448 7.106 3.448 2.918 5.877 7.245 5.877 14.086 0 3.88-1.019 6.491-2.889 7.51.823-.447 3.992-2.303 4.774-2.792a4.195 4.195 0 0 0 1.396-1.27 43.757 43.757 0 0 1-1.717-11.964 31.445 31.445 0 0 1 .307-4.76Z" opacity=".2"/><path fill="#000" d="M311.406 508.996c-5.138-2.96-7.106-10.429-7.106-16.752a17.087 17.087 0 0 1 1.061-6.422c.209.07.419.14.642.237-4.341-1.912-6.394 2.904-6.394 8.893 0 6.324 1.969 13.792 7.106 16.752 3.057 1.759 5.012.544 6.073-2.094a6.472 6.472 0 0 1-1.382-.614Z" opacity=".3"/><path fill="#000" d="M232.308 428.726c-3.001-1.731-5.779-1.829-8.069-.573l-.265.154-4.481 2.568a6.983 6.983 0 0 1 2.471-.823 9.073 9.073 0 0 1 5.682 1.396c7.636 4.425 13.848 17.561 13.848 29.958 0 7.482-2.178 12.676-5.584 14.63.782-.461 3.811-2.22 4.565-2.638a9.328 9.328 0 0 0 3.783-4.398v-22.629c-2.415-7.887-6.868-14.714-11.95-17.645Z" opacity=".2"/><path fill="#000" d="M225.203 446.58a17.062 17.062 0 0 1 1.061-6.421c.213.062.423.136.628.223-4.342-1.898-6.38 2.904-6.38 8.907 0 6.324 1.969 13.778 7.106 16.752 3.043 1.759 4.997.53 6.072-2.108a7.12 7.12 0 0 1-1.396-.601c-5.123-2.973-7.091-10.428-7.091-16.752Z" opacity=".3"/><path fill="#000" d="m367.72 533.146 2.22-1.27c1.94-1.089 3.127-3.909 3.127-8.516 0-8.376-3.881-14.839-8.99-17.785l-9.842-5.681-4.705 2.666 9.856 5.682c5.096 2.945 8.977 9.451 8.977 17.785 0 6.366-2.276 9.325-5.584 9.018l9.478 23.006 1.243-.712v-10.358l-5.78-13.835Z" opacity=".2"/><path fill="#000" d="m447.474 567.265.46.167c-3.601-1.549-6.449 2.499-6.449 9.493s3.141 14.867 6.98 17.101c2.457 1.396 4.886.824 5.696-2.248a5.368 5.368 0 0 1-1.005-.46 12.234 12.234 0 0 1-4.3-5.235l-.754-.447v-1.27a28.107 28.107 0 0 1-1.954-10.149 16.494 16.494 0 0 1 1.326-6.952Z" opacity=".3"/><path fill="#000" d="m386.106 518.293-7.985-4.607-4.677 2.708 7.971 4.607c7.552 4.356 13.89 16.864 13.89 29.204 0 7.567-2.359 12.425-5.919 14.086l.419-.181 4.858-2.792a9.104 9.104 0 0 0 3.42-3.923v-21.903c-2.443-7.72-6.938-14.281-11.977-17.199Z" opacity=".2"/><path fill="#000" d="M384.403 551.085v-18.357a12.214 12.214 0 0 0-3.714-3.504l-.977-.559v25.128l.977.559c2.988 1.731 5.361.823 6.687-1.927a6.686 6.686 0 0 1-2.01-.768l-.963-.572ZM355.812 548.628l4.691-2.708v-1.997l-4.691-12.047v16.752Z" opacity=".3"/><path fill="#000" d="m414.64 540.182 10.945 32.653.069.042v-16.529l-6.324-18.874-6.282-3.616-4.006 2.318v-4.635l-6.268-3.616-4.691 2.709 6.268 3.615v42.411l4.007-2.304v-37.789l6.282 3.615Z" opacity=".2"/><path fill="#000" d="m329.191 524.784-2.038 7.301 4.69-2.694.74-2.652-3.392-1.955ZM334.398 506.971l-3.071 10.568 6.212 3.588-3.071-14.114-.07-.042ZM414.64 556.278v26.329l4.69-2.709v-9.8l-4.62-13.778-.07-.042Z" opacity=".3"/><path fill="#000" d="M436.627 562.588v-15.119l-6.282-3.629-4.691 2.708 6.282 3.63v42.41l4.691-2.708v-4.509a42.986 42.986 0 0 1-1.913-12.369 25.034 25.034 0 0 1 1.913-10.414ZM342.034 492.858l-5.821-3.365-4.677 2.709 5.807 3.35 11.113 48.832 1.074-.614v-17.967l-7.496-32.945Z" opacity=".2"/><path fill="#000" d="M360.503 522.327v-4.411a10.331 10.331 0 0 0-3.965-3.49l-.726-.419v11.168l.726.419c2.346 1.396 5.152 2.792 5.207-2.415l-.516-.279-.726-.573Z" opacity=".3"/><path fill="#000" d="m454.747 576.548 4.579-2.597 4.146-4.523c-2.401-5.863-5.765-10.595-10.61-13.387-2.889-1.661-5.486-1.787-7.608-.67-.796.432-3.588 2.052-4.69 2.694 2.136-1.117 4.718-.977 7.608.684 4.844 2.792 8.208 7.524 10.609 13.374l-4.104 4.579a1.489 1.489 0 0 1-.07-.224l-1.745-1.005-4.746 2.708 12.718 7.343v9.172c-.726 4.802-2.485 7.552-4.705 8.753h.084c.795-.447 3.797-2.234 4.551-2.639 2.247-1.186 4.02-3.936 4.76-8.78v-9.2l-10.777-6.282Z" opacity=".2"/><path fill="#000" d="M244.3 468.958v-22.587a43.242 43.242 0 0 0-1.047-3.043l-4.691 2.68a43.264 43.264 0 0 1 2.974 15.356c0 7.483-2.178 12.676-5.584 14.63.782-.461 3.825-2.22 4.579-2.638a9.314 9.314 0 0 0 3.769-4.398ZM267.823 455.417l4.69-2.708v4.621l-.684.404v37.776l-4.006 2.318v-42.411ZM337.343 495.552l4.691-2.694 7.496 32.945v17.967l-1.074.614-11.113-48.832ZM367.72 533.146l-2.387 1.396a3.697 3.697 0 0 1-2.61.559l9.479 23.006 1.242-.712v-10.358l-5.724-13.891ZM409.042 531.541l-4.691 2.708v42.411l4.007-2.304v-37.789l.684-.391v-4.635ZM414.64 540.182l4.69-2.708 6.324 18.874v16.529l-11.014-32.695ZM458.74 572.123l4.69-2.709-4.104 4.579-4.691 2.709 4.105-4.579ZM460.848 594.696c-.726 4.802-2.485 7.552-4.705 8.753h.084c.795-.447 3.797-2.234 4.551-2.639 2.247-1.186 4.02-3.936 4.76-8.78v-9.2l-4.69 2.708v9.158ZM395.305 550.205c0 7.567-2.359 12.425-5.919 14.086l.419-.181 4.858-2.792a9.104 9.104 0 0 0 3.42-3.923v-21.903a40.552 40.552 0 0 0-.851-2.415l-4.691 2.694a40.81 40.81 0 0 1 2.764 14.434ZM325.268 504.347a43.262 43.262 0 0 0-2.792-14.784l-4.691 2.708a43.267 43.267 0 0 1 2.792 14.784c0 7.552-2.205 12.774-5.723 14.686.991-.53 3.978-2.303 4.704-2.708 3.504-1.913 5.71-7.134 5.71-14.686ZM291.289 499.559c0 3.88-1.019 6.491-2.889 7.51.823-.447 3.992-2.303 4.774-2.792a4.195 4.195 0 0 0 1.396-1.27 43.757 43.757 0 0 1-1.717-11.964 31.465 31.465 0 0 1 .349-4.76 15.769 15.769 0 0 0-2.946-3.407l-3.783 2.192h-.139a.856.856 0 0 1-.196.098c-.223.12-.463.205-.712.251 3.434 2.974 5.863 7.371 5.863 14.142Z" opacity=".1"/><path fill="#000" d="M250.526 461.532v26.314l4.691-2.708v-9.786l-4.621-13.793-.07-.027Z" opacity=".3"/><path fill="#000" d="M431.936 550.178v42.41l4.691-2.708v-4.509a42.986 42.986 0 0 1-1.913-12.369 25.036 25.036 0 0 1 1.913-10.4v-15.133l-4.691 2.709Z" opacity=".1"/><path fill="#BAE8E8" d="M227.618 431.434c7.65 4.425 13.862 17.561 13.862 29.958 0 12.396-5.947 18.567-13.862 13.96-8.139-4.705-13.96-17.632-13.96-30.014 0-12.383 6.38-18.274 13.96-13.904Zm0 34.607c5.011 2.889 7.078-2.234 7.078-8.558s-2.206-13.96-7.078-16.752c-4.872-2.792-7.106 2.22-7.106 8.544s1.969 13.792 7.106 16.766ZM250.526 487.846l-6.282-3.615v-42.425l6.282 3.63 10.945 32.638v-26.273l6.282 3.616v42.411l-6.282-3.616-10.945-32.653v26.287ZM280.373 462.676c4.746 2.792 8.487 7.608 8.487 15.691 0 3.895-1.103 6.603-3.448 7.106 3.448 2.918 5.877 7.245 5.877 14.086 0 6.84-3.294 9.925-9.004 6.617l-10.456-6.031v-42.411l8.544 4.942Zm-1.759 15.58c2.694 1.563 4.188 1.116 4.188-2.429a7.358 7.358 0 0 0-4.188-6.729l-.503-.279v9.143l.503.294Zm1.396 19.195c2.973 1.717 4.606 1.27 4.606-2.066a8.379 8.379 0 0 0-4.606-7.958l-1.969-1.13v10.023l1.969 1.131ZM306.715 477.111c7.65 4.411 13.862 17.562 13.862 29.944 0 12.383-5.947 18.581-13.862 13.96-8.139-4.69-13.876-17.631-13.876-30.014 0-12.382 6.31-18.274 13.876-13.89Zm0 34.593c5.012 2.889 7.078-2.234 7.078-8.558s-2.192-13.96-7.078-16.752c-4.886-2.792-7.106 2.22-7.106 8.544s1.927 13.806 7.106 16.766ZM348.456 544.44l-6.743-3.895-2.038-9.646-10.484-6.059-2.038 7.315-6.743-3.895 11.168-36.002 5.807 3.35 11.071 48.832Zm-13.96-37.371h-.07l-3.071 10.568 6.212 3.588-3.071-14.156ZM359.386 508.284c5.096 2.945 8.977 9.451 8.977 17.785 0 6.365-2.276 9.325-5.584 9.018l9.478 23.006-7.985-4.607-8.376-21.61v16.752l-6.282-3.616V502.56l9.772 5.724Zm-2.792 17.17c2.373 1.396 5.207 2.792 5.207-2.54 0-5.333-2.792-7.19-5.207-8.558l-.726-.419v11.168l.726.349ZM381.415 521.001c7.552 4.356 13.89 16.864 13.89 29.204 0 12.341-6.31 17.59-13.89 13.207l-7.971-4.607v-42.411l7.971 4.607Zm-.726 33.351c4.635 2.68 7.804-.936 7.846-8.013.042-7.078-3.239-14.463-7.846-17.115l-.977-.559v25.128l.977.559ZM404.351 576.66l-6.268-3.616V530.62l6.268 3.629v42.411ZM414.612 582.607l-6.282-3.63v-42.41l6.282 3.685 10.945 32.652h.069v-26.356l6.282 3.63v42.41l-6.282-3.63-10.944-32.638h-.07v26.287ZM460.848 594.696c-1.508 9.884-7.316 11.168-12.718 7.985-7.413-4.286-13.416-17.576-13.416-29.707s5.668-18.72 13.416-14.253c4.844 2.792 8.208 7.525 10.61 13.374l-4.105 4.579c-1.605-4.886-3.699-7.595-6.142-9.005-3.867-2.233-6.98 1.871-6.98 9.228 0 7.357 3.141 14.867 6.98 17.101 3.015 1.731 5.975.461 5.975-4.732l-6.352-3.63v-7.455l12.718 7.343.014 9.172Z"/><path fill="#000" d="M337.343 460.191c36.561 0 66.199-17.112 66.199-38.222 0-21.11-29.638-38.223-66.199-38.223-36.56 0-66.198 17.113-66.198 38.223s29.638 38.222 66.198 38.222ZM460.834 533.356c41.086 0 74.392-19.232 74.392-42.955s-33.306-42.955-74.392-42.955-74.393 19.232-74.393 42.955 33.307 42.955 74.393 42.955Z" opacity=".1"/><path fill="#BAE8E8" d="m214.23 34.69 49.614 28.535a4.39 4.39 0 0 1 1.982 3.434v67.748a4.31 4.31 0 0 1-1.996 3.406l-7.078 3.979a4.483 4.483 0 0 1-3.978 0l-49.6-28.562a4.333 4.333 0 0 1-1.982-3.435V42.047a4.332 4.332 0 0 1 1.982-3.406l7.092-3.978a4.41 4.41 0 0 1 3.964.028Z"/><path fill="#BAE8E8" d="M254.686 140.619V72.871a4.345 4.345 0 0 0-2.01-3.42l-49.502-28.548c-1.103-.628-1.982-.112-1.982 1.145v67.747a4.333 4.333 0 0 0 1.982 3.435l49.502 28.534c1.131.628 2.01.125 2.01-1.145Z"/><path fill="#000" d="M252.676 141.764a4.527 4.527 0 0 0 3.979 0l7.077-3.979a4.315 4.315 0 0 0 1.997-3.406V66.645a4.183 4.183 0 0 0-.629-2.01l-11.028 6.296c.36.585.562 1.254.586 1.94v67.748c.028 1.159-.781 1.773-1.982 1.145Z" opacity=".2"/><path fill="#fff" d="M201.219 41.685c.154-.992.964-1.397 1.955-.782l49.502 28.548a3.967 3.967 0 0 1 1.396 1.48l11.042-6.296a4.013 4.013 0 0 0-1.396-1.396L214.23 34.677a4.412 4.412 0 0 0-3.964 0l-7.092 3.978a4.355 4.355 0 0 0-1.955 3.03Z" opacity=".4"/><path fill="#BAE8E8" d="M271.173 116.901c1.242-.74 10.554-5.989 10.861-6.156a1.841 1.841 0 0 0 .391-2.792l-16.836-21.038-10.903 6.184 16.836 21.024a1.894 1.894 0 0 1 .444 1.467 1.895 1.895 0 0 1-.793 1.311Z"/><path fill="#fff" d="M271.173 116.901c1.242-.74 10.554-5.989 10.861-6.156a1.841 1.841 0 0 0 .391-2.792l-16.836-21.038-10.903 6.184 16.836 21.024a1.894 1.894 0 0 1 .444 1.467 1.895 1.895 0 0 1-.793 1.311Z" opacity=".4"/><path fill="#BAE8E8" d="m254.686 93.113 16.836 20.94a1.768 1.768 0 0 1 .414 1.88 1.773 1.773 0 0 1-1.545 1.15l-15.705 1.703V93.113Z"/><path fill="#FAFAFA" d="M222.983 80.396c0-3.91 2.066-5.892 4.607-4.426 2.541 1.466 4.593 5.822 4.593 9.772 0 3.951-2.052 5.891-4.593 4.426-2.541-1.466-4.607-5.864-4.607-9.772ZM233.132 115.114l-11.168-6.449a6.78 6.78 0 0 1-2.499-5.836l.531-6.03c.377-4.356 2.917-6.324 5.919-4.593l3.266 1.884c3.002 1.745 5.584 6.631 5.919 11.434l.531 6.645c.293 2.429-.935 3.825-2.499 2.945ZM234.947 79.81c0-4.3 2.261-6.478 5.053-4.859 2.792 1.62 5.054 6.408 5.054 10.694 0 4.285-2.262 6.477-5.054 4.872-2.792-1.606-5.053-6.408-5.053-10.708ZM245.822 117.767l-7.385-4.272-.531-6.617a24.952 24.952 0 0 0-5.193-13.346 3.61 3.61 0 0 1 2.39-1.584 3.597 3.597 0 0 1 2.789.663l3.616 2.08c3.295 1.912 6.073 7.273 6.491 12.564l.587 7.287c.209 2.722-1.089 4.188-2.764 3.225ZM220.945 73.29c0-4.09-2.15-8.641-4.802-10.163-2.653-1.522-4.803.53-4.803 4.62 0 4.091 2.15 8.628 4.803 10.164 2.652 1.535 4.802-.53 4.802-4.621Z"/><path fill="#FAFAFA" d="M223.067 88.8c-2.611.111-4.565 2.666-4.942 6.98l-.503 5.695-6.98-4.048a6.984 6.984 0 0 1-2.638-6.115l.558-6.268c.391-4.565 3.044-6.603 6.171-4.802l3.42 1.982a12.957 12.957 0 0 1 4.914 6.575Z"/><path fill="#BAE8E8" d="M563.188 158.893v-19.726l-16.654-1.396a1.14 1.14 0 0 0-.698.14c-.642.349-14.058 8.069-14.267 8.194a1.22 1.22 0 0 0-.579.872 1.21 1.21 0 0 0 .314.999l17.645 19.153 14.239-8.236Z"/><path fill="#BAE8E8" d="m548.949 167.073-17.645-19.097a1.218 1.218 0 0 1 .288-1.884c.213-.121.458-.175.703-.154l16.654 1.396v19.739Z"/><path fill="#BAE8E8" d="m563.174 139.167-14.225 8.181-16.654-1.396a1.26 1.26 0 0 0-.573.084c1.327-.782 13.514-7.79 14.114-8.111a1.14 1.14 0 0 1 .698-.14l16.64 1.382Z"/><path fill="#fff" d="m563.174 139.167-14.225 8.181-16.654-1.396a1.26 1.26 0 0 0-.573.084c1.327-.782 13.514-7.79 14.114-8.111a1.14 1.14 0 0 1 .698-.14l16.64 1.382Z" opacity=".5"/><path fill="#BAE8E8" d="m561.792 112.657 49.544 28.534a4.428 4.428 0 0 1 1.983 3.435v67.747a4.287 4.287 0 0 1-1.997 3.407l-7.091 3.978a4.459 4.459 0 0 1-3.965 0l-49.544-28.506a4.382 4.382 0 0 1-1.982-3.42v-67.776a4.32 4.32 0 0 1 1.996-3.406l7.092-3.965a4.404 4.404 0 0 1 3.964-.028Z"/><path fill="#BAE8E8" d="M602.248 218.6v-67.762a4.383 4.383 0 0 0-1.968-3.42l-49.558-28.549c-1.089-.628-1.982-.111-1.982 1.145v67.762a4.375 4.375 0 0 0 1.982 3.476l49.558 28.492c1.075.629 1.968.112 1.968-1.144Z"/><path fill="#000" d="M600.28 219.744a4.54 4.54 0 0 0 3.965 0l7.091-3.978a4.332 4.332 0 0 0 1.997-3.393v-67.747a4.046 4.046 0 0 0-.643-2.025l-11.014 6.296c.36.585.562 1.254.586 1.941v67.748c-.014 1.158-.837 1.828-1.982 1.158Z" opacity=".2"/><path fill="#fff" d="M548.768 119.665c.153-1.005.977-1.396 1.954-.796l49.558 28.549c.58.371 1.059.879 1.396 1.479l11.028-6.296a4.005 4.005 0 0 0-1.396-1.396l-49.516-28.548a4.454 4.454 0 0 0-3.964 0l-7.092 3.979a4.39 4.39 0 0 0-1.968 3.029Z" opacity=".4"/><path fill="#fff" d="m555.203 163.625 2.08 6.98a1.305 1.305 0 0 0 .922.782l4.104.991c.433.114.807.389 1.047.768a34.195 34.195 0 0 0 2.205 3.839c.216.319.301.709.238 1.089l-1.326 4.509a1.213 1.213 0 0 0 .363 1.047l4.802 5.081a.598.598 0 0 0 .698.21.324.324 0 0 0 .097-.098l2.248-3.42c.154-.252.558-.224.921 0 .363.223.894.572 1.327.823.432.252.921.517 1.396.74.414.193.752.517.963.922l2.359 6.351a1.24 1.24 0 0 0 .963.657l4.37.432c.13.052.275.052.405 0a.389.389 0 0 0 .181-.432l-1.396-6.255a.698.698 0 0 1 .461-.781 6.86 6.86 0 0 0 1.898-1.117.81.81 0 0 1 .978.167l4.467 4.077c.128.136.302.22.488.237h.168a.34.34 0 0 0 .112-.126l1.996-4.397a1.137 1.137 0 0 0-.265-1.033l-4.188-5.081a1.716 1.716 0 0 1-.405-1.103 20.831 20.831 0 0 0 0-3.602.606.606 0 0 1 .386-.576.606.606 0 0 1 .242-.038l3.755-.21c.377 0 .614-.307.503-.628l-2.066-6.98a1.306 1.306 0 0 0-.922-.768l-4.104-.991a1.786 1.786 0 0 1-1.047-.782 33.863 33.863 0 0 0-2.206-3.825 1.537 1.537 0 0 1-.237-1.088l1.396-4.523a1.402 1.402 0 0 0-.377-1.061l-4.802-5.068c-.279-.293-.642-.349-.81-.098l-2.233 3.407c-.154.251-.559.223-.936 0a20.057 20.057 0 0 0-2.694-1.578 1.999 1.999 0 0 1-.963-.921l-2.359-6.352a1.24 1.24 0 0 0-.964-.656l-4.369-.433a.624.624 0 0 0-.405 0 .367.367 0 0 0-.195.433l1.396 6.254a.707.707 0 0 1-.085.47.709.709 0 0 1-.362.312 6.74 6.74 0 0 0-1.913 1.116.796.796 0 0 1-.977-.167l-4.467-4.076c-.237-.21-.475-.28-.642-.196a.275.275 0 0 0-.126.126l-1.982 4.397a1.18 1.18 0 0 0 .251 1.047l4.188 5.054c.259.314.402.709.405 1.117 0 .6-.084 1.228-.084 1.856 0 .628 0 1.159.098 1.745a.627.627 0 0 1-.049.242.616.616 0 0 1-.593.372l-3.742.21a.738.738 0 0 0-.265 0 .48.48 0 0 0-.321.6Zm16.445 12.76c-4.481-4.719-6.603-11.88-4.746-15.971a4.386 4.386 0 0 1 3.434-2.792h.516a6.885 6.885 0 0 1 3.099.67c.38.161.749.348 1.103.559a15.174 15.174 0 0 1 3.309 2.68 19.546 19.546 0 0 1 5.416 12.411 9.14 9.14 0 0 1-.07 1.27 7.764 7.764 0 0 1-.6 2.289 4.4 4.4 0 0 1-4.118 2.792H578.125l-.376-.069h-.419a12.4 12.4 0 0 1-5.682-3.839Z"/><path fill="#B16668" d="M443.788 170.661c-9.213 1.815-15.174 6.673-17.156 21.108-2.36 17.338-6.129 43.987-6.129 43.987s-12.243 34.691-18.483 42.481a42.66 42.66 0 0 1-5.947 5.681c-5.737 7.19-19.083 11.978-13.025 16.027 4.649 3.099 11.671 3.713 18.316 0 8.976-4.998 12.648-10.764 17.101-18.148 5.584-9.2 24.751-43.625 24.751-43.625l.572-67.511Z"/><path fill="#B16668" d="M404.24 274.817c-1.187 1.982-5.277 2.47-9.172 3.252-3.895.782-6.882 3.071-9.591 3.63-2.331.474-1.661 3.253 2.499 3.476 4.16.223 9.06-2.946 9.87 0 .81 2.945 8.502-5.082 6.394-10.358Z"/><path fill="#EBEBEB" d="m412.378 255.998-2.484 5.78c3.978.265 13.652 5.095 15.356 8.376l3.42-5.947-16.292-8.209Z"/><path fill="#37474F" d="M443.788 170.661s-9.367-.293-13.89 7.748-10.121 57.236-10.121 57.236l-9.032 22.908c3.811-.265 15.482 5.682 16.989 9.298l15.747-25.799.307-71.391Z"/><path fill="#B16668" d="M500.494 469.824h-13.667v23.397h13.667v-23.397ZM446.008 459.759l-13.653.46-.684-24.751 14.337-.474v24.765Z"/><path fill="#37474F" d="M499.991 272.052c0 13.053-.53 119.694-.53 119.694.321 3.755 3.937 10.442 4.188 23.969.419 19.544-2.597 65.807-2.597 65.807a17.974 17.974 0 0 1-15.216.307s-10.735-65.36-13.192-84.765c-2.136-16.947-8.083-92.945-8.083-92.945l-10.456 72.284a77.61 77.61 0 0 1 1.703 21.722c-.642 8.977-8.962 53.956-8.962 53.956a18.646 18.646 0 0 1-15.775 1.214s-.81-70.61-.977-78.846c-.182-9.395 1.968-105.216 1.968-105.216l67.929 2.819Z"/><path fill="#263238" d="M486.827 486.478v-1.954c-.74 0-1.187.712-1.466 2.471a41.525 41.525 0 0 1-.809 3.866 44.613 44.613 0 0 1-2.388 6.98c-1.926 4.761-3.545 6.534-7.971 12.104a53.68 53.68 0 0 0-4.188 4.886c-.823 1.466-1.117 5.584.279 6.505 5.166 3.434 12.997 3.532 18.539 1.899a11.169 11.169 0 0 0 8.055-9.032c.196-1.257.126-2.555.266-3.825a18.14 18.14 0 0 1 3.42-7.93 23.736 23.736 0 0 0 2.638-4.327c1.145-2.792.224-5.961-.516-8.767-.629-2.415-1.313-5.068-2.136-4.844v1.493c-.991 1.103-3.742 2.192-6.841 2.304-2.052.098-6.896-.307-6.882-1.829ZM432.216 456.003c0 .363-1.271 1.48-2.792 2.792a55.407 55.407 0 0 1-4.691 3.63 87.74 87.74 0 0 1-10.456 6.561c-4.314 2.373-8.209 3.811-13.374 6.143a4.069 4.069 0 0 0-1.396.963 2.79 2.79 0 0 0-.628 1.284 5.318 5.318 0 0 0 2.164 5.151 14.19 14.19 0 0 0 5.388 2.304 27.786 27.786 0 0 0 13.444.405 35.042 35.042 0 0 0 10.233-4.998 24.322 24.322 0 0 1 9.241-3.979c2.904-.418 6.464-.279 8.976-2.01 2.792-1.926 1.676-6.031.894-9.562-.866-3.853-1.941-9.87-3.225-9.605v1.396c-1.633 2.485-10.121 3.504-13.723 1.675l-.055-2.15ZM464.589 304.119a50.75 50.75 0 0 1-19.042-10.959s3.672 6.882 14.603 13.276l-5.291 65.961 9.73-68.278Z"/><path fill="#F5F5F5" d="M476.287 171.931c4.649 1.117 14.03 2.653 16.124 11.922 2.527 11.168 3.35 35.347 3.35 35.347l.866 53.913c-9.409 6.855-45.928 10.582-65.738-3.88 0 0 4.37-64.733 4.37-74.812 0-10.079 5.584-22.169 21.065-23.076l19.963.586Z"/><path fill="#455A64" d="M456.492 170.312a40.333 40.333 0 0 0-7.678 14.937c-1.871 8.153-3.644 100.68-3.644 100.68s-10.567-1.285-15.09-4.83c0 0-.922-75.622.963-87.376 3.364-20.787 3.113-22.853 25.449-24.807v1.396ZM480.364 168.916s-12.885 7.915-13.025 39.451c-.126 27.25.293 81.471.293 81.471s21.387 1.396 34.9-6.743c0 0-2.792-34.426-3.001-53.676 5.584-27.334 10.47-53.984 2.61-56.147-7.859-2.164-21.777-4.356-21.777-4.356Z"/><path fill="#37474F" d="m481.801 186.198-5.891 7.302 2.946 8.32-7.748 19.865 9.353-19.865-3.28-7.846 4.62-7.776ZM440.201 183.853l1.284 7.553-5.109 6.645 7.105 22.377-5.5-22.126 4.719-6.212-2.499-8.237Z"/><path fill="#263238" d="M472.965 124.705a18.788 18.788 0 0 1-32.072 13.305 18.788 18.788 0 0 1 2.841-28.914 18.793 18.793 0 0 1 23.722 2.331 18.79 18.79 0 0 1 5.509 13.278ZM486.646 138.064s-3.044 14.295-4.272 16.641a6.45 6.45 0 0 1-3.741 3.029l.223-10.065 7.79-9.605ZM482.821 117.571a7.074 7.074 0 0 1 5.779 2.052c2.513 2.569 1.103 10.582-2.01 18.441l-5.738.657 1.969-21.15Z"/><path fill="#B16668" d="M479.191 138.721c1.145.684 2.792-1.522 4.188-3.002 1.396-1.48 6.045-3.504 8.376 1.396 2.331 4.9-2.038 11.503-5.682 12.648-6.282 1.968-7.217-2.052-7.217-2.052l-.475 25.644c-4.341 5.584-14.085 12.118-19.334 11.168-4.188-.754-5.11-7.831-1.103-12.466v-9.2c-2.786.461-5.612.62-8.432.475-4.621-.712-7.538-4.356-8.92-9.353-2.122-7.636-2.792-16.208-1.201-30.307 1.968-17.325 22.224-17.478 33.085-10.638 10.861 6.841 6.715 25.687 6.715 25.687Z"/><path fill="#263238" d="M479.191 140.661c.572 0 2.792-3.644 4.188-4.942 1.982-1.801-.572-18.148-.572-18.148a7.904 7.904 0 0 0-1.396-8.809c-2.709-3.001-6.506-6.645-18.818-5.193-8.795 1.047-18.358 3.783-26.078 0a13.15 13.15 0 0 0 4.579 13.96s2.792 1.801 10.149 2.695c6.791.512 13.615.381 20.382-.391 2.136-.28 2.582 1.787 3.741 7.426 1.047 4.956 1.885 13.36 3.825 13.402Z"/><path fill="#263238" d="m482.807 118.841 6.98-3.727a3.837 3.837 0 0 0-2.261-1.993 3.824 3.824 0 0 0-3.002.262 4.184 4.184 0 0 0-1.717 5.458Z"/><path fill="#9A4A4D" d="M457.958 162.829s10.316-2.08 13.96-3.992a11.857 11.857 0 0 0 4.97-4.928 16.177 16.177 0 0 1-2.792 5.807c-2.639 3.365-16.068 6.059-16.068 6.059l-.07-2.946Z"/><path fill="#263238" d="M456.981 135.566c.019.403.156.793.394 1.12a2.073 2.073 0 0 0 2.131.796 2.07 2.07 0 0 0 .678-3.738 2.064 2.064 0 0 0-1.137-.342 2.12 2.12 0 0 0-2.066 2.164ZM458.754 129.507l4.411 2.443a2.64 2.64 0 0 0-1.089-3.518 2.45 2.45 0 0 0-1.887-.161 2.448 2.448 0 0 0-1.435 1.236Z"/><path fill="#9A4A4D" d="m458.893 150.419-4.718 1.745a2.48 2.48 0 0 0 3.21 1.564 2.652 2.652 0 0 0 1.508-3.309Z"/><path fill="#263238" d="m440.173 131.043 4.634-2.094a2.44 2.44 0 0 0-3.28-1.396 2.668 2.668 0 0 0-1.354 3.49ZM441.136 135.566a2.064 2.064 0 0 0 1.341 1.837 2.066 2.066 0 1 0 .725-4.001 2.122 2.122 0 0 0-2.066 2.164Z"/><path fill="#9A4A4D" d="m450.95 134.449-.67 12.424-6.492-2.219 7.162-10.205Z"/><path fill="#37474F" d="M451.536 183.071c1.271 3.002 3.602 4.188 7.846 4.705a15.736 15.736 0 0 0 11.726-4.076l-4.006-3.993-7.958 3.783-2.163-5.081-5.445 4.662Z"/><path fill="#455A64" d="M454.859 181.48a13.946 13.946 0 0 0-.698 5.584 9.69 9.69 0 0 0 1.884 4.705 5.121 5.121 0 0 0 4.551.488 12.436 12.436 0 0 0 3.202-4.236 12.436 12.436 0 0 0 1.14-5.187l-5.794.656-4.285-2.01Z"/><path fill="#455A64" d="M456.045 191.769c-4.509 17.673-7.231 47.743-6.687 50.772.545 3.029 3.937 13.96 6.548 13.96 2.61 0 7.203-10.819 6.854-13.583-.656-5.263-3.253-51.177-2.164-50.703l-4.551-.446Z"/><path fill="#37474F" d="M460.596 192.257a4.576 4.576 0 0 1-4.551-.488l-.153.586a4.398 4.398 0 0 0 4.481 1.159l.223-1.257Z"/><path fill="#E0E0E0" d="M459.144 183.49c8.181-4.118 18.065-10.135 19.377-16.752l.07-3.685s3.211 1.019 4.048 6.421c-.698 8.097-6.324 16.417-13.639 20.591l-4.062-7.189-5.794.614ZM457.972 165.37a7.651 7.651 0 0 0-3.295 2.597c-4.9 6.533-4.439 17.701-4.439 17.701l4.621-4.188 4.285 2.066a18.663 18.663 0 0 1-1.2-11.461l.028-6.715Z"/><path fill="#B16668" d="M502.127 173.327c6.394 1.648 10.624 2.164 15.007 10.526 3.811 7.273 21.401 37.692 25.128 44.993 1.871 3.616 3.728 7.748-1.214 12.76-3.965 3.992-30.056 28.492-34.314 32.68a17.965 17.965 0 0 1-11.671 5.584c-6.631.586-9.869-1.759-11.042-3.197-6.98-8.641 6.422-9.953 11.042-12.815a23.288 23.288 0 0 0 5.668-4.872l-.279-4.579s4.886 0 6.45-1.242c1.563-1.243 15.481-19.335 15.481-19.335s-19.907-26.203-22.461-31.689c-2.555-5.486-5.459-24.598 2.205-28.814Z"/><path fill="#EBEBEB" d="m510.475 247.888-3.197 4.383a11.174 11.174 0 0 0 2.597 7.678 19.227 19.227 0 0 0 6.98 5.584l4.188-4.034-10.568-13.611Z"/><path fill="#37474F" d="M508.633 249.563s1.033 11.475 10.93 14.644c0 0 23.537-22.462 25.743-25.505 2.205-3.043.67-6.24-4.063-14.546-4.732-8.306-23.327-42.215-26.412-45.747-3.085-3.532-8.069-4.188-15.231-5.724a30.226 30.226 0 0 0-2.973 21.024c2.792 11.475 5.347 14.518 5.347 14.518l18.273 25.896-11.614 15.44ZM321.792 396.059a6.979 6.979 0 0 1-1.047 4.104 50.806 50.806 0 0 1-6.757 8.865c-3.615 3.895-9.032 8.488-12.913 11.866-2.15 1.885-2.233 4.732.852 5.724a23.13 23.13 0 0 0 16.961-2.36c3.853-2.066 9.34-11.628 12.564-13.08 3.672-1.661 5.738-2.499 6.98-4.188 1.857-2.541 2.332-4.439.74-7.399-1.731-3.225-4.341-8.208-5.416-7.664l.335 1.033c-.838 2.638-8.027 5.71-11.713 4.97l-.586-1.871ZM349.935 413.928v-1.773c-.349 2.694-3.922 10.973-8.808 15.44-3.895 3.546-9.2 7.636-10.554 11.587-1.354 3.95 6.268 5.751 11.293 5.248a20.263 20.263 0 0 0 12.662-6.631c3.197-3.657 3.141-6.17 4.635-8.18 1.494-2.01 4.928-4.286 5.737-6.617.447-1.284-.083-4.09-.711-6.464-.629-2.373-1.187-4.578-1.927-4.383v1.396a9.775 9.775 0 0 1-6.17 2.08c-1.801.028-6.171-.335-6.157-1.703Z"/><path fill="#FFA8A7" d="M370.149 284.784c1.801-17.659 5.417-45.677 1.396-65.458a2177.455 2177.455 0 0 0-61.256-8.376c-4.97 25.63-7.343 93.895-4.733 103.457 7.232 29.316 10.931 51.205 15.245 80.438a8.08 8.08 0 0 1-.95 5.709 42.807 42.807 0 0 1-5.835 7.902c-1.731 1.842-3.364 3.894-5.235 5.695a1.795 1.795 0 0 0-.544 1.396c.349 2.792 4.383 2.346 7.203 1.396a19.177 19.177 0 0 0 8.879-6.812c1.884-2.401 5.584-6.743 7.538-9.311a19.553 19.553 0 0 0 2.038-3.155 6.979 6.979 0 0 0 .377-4.663 11.782 11.782 0 0 1-.167-1.229c-.112-4.006 3.881-47.617 2.694-57.571-1.298-10.805-2.792-13.876-6.408-22.908 2.541-18.609 4.942-38.348 7.427-57.236.433 20.41.517 43.695 3.141 63.281 2.094 15.677 3.113 26.524 4.774 41.88 1.592 14.728 3.518 41.88 3.7 45.914.155 2.547.08 5.103-.224 7.636a30.564 30.564 0 0 1-8.069 14.951c-.935.852-1.954 1.731-2.973 2.625-2.066 2.303-1.48 4.314 3.378 4.732 4.858.419 9.144-2.512 12.83-6.98 1.647-2.01 7.887-12.312 7.887-14.406v-1.69a72.961 72.961 0 0 1 1.019-11.447c2.038-12.061 6.422-33.811 7.148-43.457 1.158-15.356 0-22.769-3.895-34.9 1.479-15.077 1.856-20.256 3.615-37.413Z"/><path fill="#37474F" d="M313.053 200.131a239.188 239.188 0 0 0-7.05 40.079c-1.773 21.442-3.629 65.053-2.792 69.353.838 4.3 13.416 58.241 13.416 58.241a17.573 17.573 0 0 0 10.735 1.522 22.773 22.773 0 0 0 8.488-3.769s2.708-24.528 1.703-34.091c-1.005-9.562-5.794-20.94-5.794-20.94l6.073-56.552s-.754 33.644 1.117 53.314c1.87 19.669 8.097 65.5 8.097 65.5a12.475 12.475 0 0 0 9.576 4.09 25.252 25.252 0 0 0 11.405-2.89s2.206-10.218 3.128-18.287a75.635 75.635 0 0 0-3.351-32.736s4.649-53.635 6.282-65.347c1.633-11.713 5.849-32.722-7.538-52.169-1.299-.544-53.495-5.318-53.495-5.318Z"/><path fill="#263238" d="M337.832 253.974v-2.526s-12.564-3.937-18.609-11.713c0 0 2.89 7.385 15.356 14.239 0 0-.265 33.113-.237 32.764.028-.349 3.49-32.764 3.49-32.764Z"/><path fill="#FFA8A7" d="M306.101 145.728c-4.481 13.193-11.964 51.094-11.964 51.094s-13.96 20.368-18.734 26.217c-2.387 2.945-7.552 8.795-7.552 8.795l11.684 9.185c8.46-9.772 21.219-22.74 26.524-29.469 2.513-3.225 4.607-5.989 5.277-8.823l5.319-33.713s0-26.943 4.188-30.489c4.188-3.546 5.304-4.272 5.304-4.272-5.402-.377-16.528 1.159-20.046 11.475Z"/><path fill="#455A64" d="M328.479 133.876c-7.287-.837-16.613-.698-21.164 7.455-4.551 8.153-12.131 50.144-12.131 50.144s7.162 5.584 14.909 5.487l18.386-63.086Z"/><path fill="#37474F" d="M308.223 173.104a75.353 75.353 0 0 1 1.521 19.097c-.586 8.376-6.575 23.872-6.575 23.872s4.719 4.286 17.562 2.275c10.442-1.633 6.757-33.155.754-39.255a19.81 19.81 0 0 0-13.262-5.989Z"/><path fill="#BAE8E8" d="M347.143 134.477s17.45 2.01 19.544 2.945c-16.361 11.503-3.113 37.12-3.113 37.12l-6.268 19.642c4.021 5.165 7.734 9.102 10.861 13.415a43.406 43.406 0 0 1 5.849 10.624c4.188 10.93-42.508 28.297-67.999 8.166 1.019-6.324 2.639-12.899 4.09-18.79 1.997-8.166 3.7-15.049 3.128-18.246-7.33-22.573-7.776-26.635-6.478-31.675 3.658-14.169 18.148-23.732 21.666-23.732l18.72.531Z"/><path fill="#455A64" d="M347.143 134.477s16.334 1.396 19.544 2.945c3.211 1.55 8.53 10.722 3.756 24.109-4.775 13.388-9.088 29.107-8.6 32.276.489 3.169 11.866 19.544 11.866 19.544-3.308 2.136-6.812 4.355-10.47 5.025l-5.863-12.773 1.396 13.527s-10.484 2.541-17.98 1.899c-.014 0-5.557-51.904 6.351-86.552Z"/><path fill="#263238" d="M305.724 129.605h27.027a32.19 32.19 0 0 0 32.191-32.192 29.62 29.62 0 0 0-29.609-29.61 29.613 29.613 0 0 0-27.355 18.279 29.61 29.61 0 0 0-2.254 11.33v32.193Z"/><path fill="#FFA8A7" d="M317.046 81.177c-3.141 1.843-6.98 9.772-6.617 26.203.321 13.96 4.858 17.422 7.133 18.428 2.276 1.005 6.659.39 10.917-.322v8.376s-5.891 6.841-5.584 10.694c.307 3.853 8.501 4.746 13.96.991 5.458-3.755 10.163-11.084 10.163-11.084l-.084-19.279s2.499 2.429 6.757-1.284c3.517-3.072 4.704-8.251 1.968-11.043a6.123 6.123 0 0 0-5.384-1.539 6.13 6.13 0 0 0-4.388 3.48s-2.373-6.575-12.201-9.772c-8.725-2.89-13.541-6.24-16.64-13.849Z"/><path fill="#263238" d="M326.413 103.304a1.755 1.755 0 0 0 2.064 1.744 1.753 1.753 0 0 0 1.408-1.333 1.761 1.761 0 0 0-1.63-2.156 1.804 1.804 0 0 0-1.842 1.745Z"/><path fill="#F28F8F" d="m325.561 115.714-4.076 1.299a2.098 2.098 0 0 0 1.815 1.551c.282.028.567-.001.837-.085a2.237 2.237 0 0 0 1.424-2.765Z"/><path fill="#263238" d="m312.187 99.116 3.56-2.47a2.06 2.06 0 0 0-1.343-.936 2.067 2.067 0 0 0-1.602.335 2.276 2.276 0 0 0-.615 3.071ZM331.145 99.772l-3.56-2.47a2.098 2.098 0 0 1 2.19-.93c.276.056.538.168.77.329a2.277 2.277 0 0 1 .6 3.071ZM313.123 102.913a1.756 1.756 0 0 0 1.055 1.624 1.756 1.756 0 0 0 2.415-1.206 1.754 1.754 0 0 0-.663-1.819 1.759 1.759 0 0 0-.951-.344 1.816 1.816 0 0 0-1.856 1.745Z"/><path fill="#F28F8F" d="m321.597 101.587-.28 10.582-5.57-1.731 5.85-8.851ZM328.479 125.486c4.495-.6 13.75-3.252 15.188-6.98a9.504 9.504 0 0 1-3.238 4.663c-2.792 2.373-11.95 5.04-11.95 5.04v-2.723Z"/><path fill="#FFA8A7" d="M388.772 198.232c1.284-7.706 0-10.219-2.722-17.771l-15.147 8.851s2.22 5.681 2.038 8.92c-.125 2.206-3.141 24.276-5.988 31.968a5.945 5.945 0 0 1-2.792 3.155c-3.449 1.843-4.928 3.867-7.581 6.296-2.094 1.899-3.783 2.29-3.573 2.96a3.21 3.21 0 0 0 4.006 1.731 22.805 22.805 0 0 0 4.858-2.206 29.918 29.918 0 0 1-5.36 7.902c-5.012 5.346-5.459 8.822 3.88 9.548 5.836.447 10.764-2.792 16.04-15.356a117.23 117.23 0 0 0 4.049-14.127c2.82-11.071 6.994-24.137 8.292-31.871Z"/><path fill="#37474F" d="M366.673 137.422c6.576 2.96 8.795 8.641 12.187 17.562 3.169 8.376 10.191 33.965 10.191 33.965s-7.957 7.859-17.087 5.584l-11.642-28.409s-5.473-18.567 6.351-28.702Z"/><path fill="#263238" d="M130.791 514.51c-.991.377-1.563 2.261-2.01 6.854-.279 2.792-1.242 6.603 3.099 8.907a10.982 10.982 0 0 0 10.247-.098c3.755-2.331 4.928-7.65 9.339-11.168 3.867-3.029 10.079-6.059 12.243-10.735 1.787-3.853 1.787-9.367-4.621-9.074-7.803.363-12.229 6.519-17.52 6.645-2.959.111-9.772 8.306-10.777 8.669Z"/><path fill="#FFBDA7" d="M130.805 512.248v4.635c0 2.262 9.633 5.584 12.327.461.209-.447 1.256-6.785 1.256-6.785l-13.583 1.689Z"/><path fill="#263238" d="M175.435 541.48s-1.828.001-2.54 7.469c-.28 2.792-.964 8.683 0 10.805.963 2.122 6.24 3.043 12.145 3.574 4.411.391 8.376 2.527 12.466 4.83a27.114 27.114 0 0 0 12.648 3.49c5.584 0 10.316-.558 14.295-3.713 2.122-1.676 4.802-5.207 2.792-7.86a5.808 5.808 0 0 0-2.988-1.577 153.086 153.086 0 0 0-7.524-2.569 77.922 77.922 0 0 1-11.056-4.188c-5.207-2.569-11.015-5.444-14.951-9.842l-15.287-.419Z"/><path fill="#FFBDA7" d="M175.463 537.614v5.402c0 1.968 2.29 4.9 8.292 4.719 4.188-.126 7.162-1.243 6.98-4.719v-5.012l-15.272-.39Z"/><path fill="#37474F" d="M128.111 450.768a125.568 125.568 0 0 1 5.584-24.095s-1.55-20.828-2.234-40.567a519.182 519.182 0 0 1 1.689-60.629s67.008-6.365 68.167 18.288c1.159 24.653-.488 87.348-1.396 98.167-.907 10.819-1.731 20.94-4.02 41.098-1.969 17.338-5.152 54.974-5.152 54.974a16.23 16.23 0 0 1-15.356-.39s-5.053-50.536-5.584-63.016c-.753-16.194 3.03-25.128 3.03-25.128s-1.396-10.177-3.937-31.117c-1.759-14.797-4.104-31.647-4.104-31.647s-2.29 20.856-3.686 32.485c-1.284 10.777-3.476 19.293-6.714 39.381-2.792 17.436-10.456 54.318-10.456 54.318-7.888 4.188-13.165-.642-13.165-.642s-4.872-46.361-2.666-61.48Z"/><path fill="#263238" d="m164.826 386.692-3.169-20.577s-13.053-4.188-19.698-11.922c0 0 3.546 9.046 15.705 13.96l4.872 17.338.838 14.309 1.452-13.108Z"/><path fill="#BAE8E8" d="M146.943 242.904c-10.456-2.527-17.073 2.541-20.94 16.752-3.309 12.201-8.153 37.441-10.037 46.864-.698 3.49-2.066 7.496 5.277 11.894a324.213 324.213 0 0 0 32.917 16.626l4.021-15.035-16.222-33.267 4.984-43.834Z"/><path fill="#000" d="M146.943 242.904c-10.456-2.527-17.073 2.541-20.94 16.752-3.309 12.201-8.153 37.441-10.037 46.864-.698 3.49-2.066 7.496 5.277 11.894a324.213 324.213 0 0 0 32.917 16.626l4.021-15.035-16.222-33.267 4.984-43.834Z" opacity=".25"/><path fill="#FFBDA7" d="m175.84 236.217-3.127 22.015-19.809-.684 1.912-25.714 21.024 4.383Z"/><path fill="#F0997A" d="M190.051 209.051s5.319 7.79 4.733 8.571c-.586.782-4.384 1.536-4.384 1.536l-.349-10.107Z"/><path fill="#263238" d="M181.745 207.767a6.466 6.466 0 0 1 7.628-6.455 6.462 6.462 0 0 1 4.843 8.74 6.463 6.463 0 0 1-12.471-2.285Zm1.396 0a5.029 5.029 0 0 0 3.18 4.59 5.026 5.026 0 1 0 1.762-9.7 5.025 5.025 0 0 0-4.9 5.096l-.042.014Z"/><path fill="#FFBDA7" d="M175.31 187.497c10.526 2.052 13.639 6.617 14.881 23.285 1.312 17.408-.377 22.908-2.624 25.296-1.522 1.605-10.107 2.024-14.463.907-5.444-1.396-17.771-5.584-23.648-14.239-6.98-10.205-8.907-24.151-1.773-30 10.065-8.237 23.341-6.073 27.627-5.249Z"/><path fill="#F0997A" d="M175.673 237.432c4.537.488 10.623 0 11.894-1.396-5.068.321-11.28-2.22-11.28-2.22l-.614 3.616Z"/><path fill="#263238" d="m191.824 191.699-.321.335c-2.08 2.038-4.76 3.35-6.98 5.277a16.392 16.392 0 0 0-4.858 8.027c-.684 2.54-.921 5.584-3.657 6.756 0 0-1.843-6.714-7.511-5.779-5.668.935-6.352 8.25-2.68 12.564 3.671 4.313 6.98 2.61 6.98 2.61s0 9.647-4.188 15.161c0 0-4.83 1.647-13.793-.112-5.584-1.089-13.387-7.817-16.752-15.035-7.147-15.272-7.845-29.092 1.899-33.406.949-7.092 6.477-10.358 12.815-11.922 9.479-2.331 18.469 3.169 27.836.922 1.969-.475 3.867-1.215 5.864-1.494.223-.063.46-.063.684 0 .488.237.46.921.335 1.396a12.277 12.277 0 0 1-2.695 5.109 29.33 29.33 0 0 0 10.638-1.507 13.695 13.695 0 0 1-3.616 11.098Z"/><path fill="#263238" d="m141.387 191.587-6.338-3.602a3.646 3.646 0 0 1 6.338 3.602ZM176.147 215.863l-.307-7.287a3.64 3.64 0 0 1 2.622.959 3.65 3.65 0 0 1 .217 5.153 3.647 3.647 0 0 1-2.532 1.175Z"/><path fill="#263238" d="m194.044 206.231-19.488 2.834.81 1.354 18.706-2.722-.028-1.466Z"/><path fill="#BAE8E8" d="M131.043 254.421c2.317-9.046 5.584-11.992 13.443-12.201 4.057.276 8.094.794 12.089 1.55.824 3.811 10.694 6.407 20.675 4.341 2.974.866 10.833 3.015 13.29 3.909 7.064 2.555 10.498 9.898 10.959 33.183 0 0 1.396 55.226 0 64.76-17.813 6.98-36.296 6.631-46.515 4.356-21.247-4.761-23.732-13.597-23.732-13.597s1.117-22.169 1.829-39.018c-1.061-10.736-2.667-18.805-3.239-27.376a72.113 72.113 0 0 1 1.201-19.907Z"/><path fill="#FFBDA7" d="M251.601 250.61c1.717-4.356 4.188-12.117 8.292-17.422 4.105-5.305 5.584-9.2 7.162-6.882 2.122 3.071-2.667 9.213-1.606 9.772 1.061.558 5.054 8.697 5.459 13.192.405 4.495-11.503 15.802-11.503 15.802l-7.804-14.462Z"/><path fill="#FFBDA7" d="M190.54 252.02a22.07 22.07 0 0 1 9.898 4.663c4.955 4.188 29.972 23.732 29.972 23.732l22.475-32.597 11.001 12.662s-16.473 31.354-23.369 43.08c-2.15 3.672-7.594 4.356-16.989-1.061-7.818-4.509-33.504-20.633-33.504-20.633s-6.408-18.636.516-29.846Z"/><path fill="#BAE8E8" d="M189.186 251.559c2.596.148 5.136.818 7.469 1.969 3.727 1.898 33.755 26.328 33.755 26.328l7.664-10.512c6.184 1.564 10.721 4.398 15.468 10.638 0 0-8.376 17.883-11.894 23.899-3.518 6.017-6.562 4.719-13.234 1.843-6.673-2.876-34.189-18.986-34.189-18.986s-7.831-5.346-9.06-14.281c-2.289-16.989 4.021-20.898 4.021-20.898Z"/><path fill="#000" d="M189.186 251.559c2.596.148 5.136.818 7.469 1.969 3.727 1.898 33.755 26.328 33.755 26.328l7.664-10.512c6.184 1.564 10.721 4.398 15.468 10.638 0 0-8.376 17.883-11.894 23.899-3.518 6.017-6.562 4.719-13.234 1.843-6.673-2.876-34.189-18.986-34.189-18.986s-7.831-5.346-9.06-14.281c-2.289-16.989 4.021-20.898 4.021-20.898Z" opacity=".1"/><path fill="#000" d="M230.41 279.856a87.406 87.406 0 0 1 6.352 6.882s-.168-4.299-5.026-8.697l-1.326 1.815Z" opacity=".1"/><path fill="#BAE8E8" d="m238.074 269.344 3.909-5.668a21.532 21.532 0 0 1 9.018 3.644 17.373 17.373 0 0 1 5.947 6.296l-3.406 6.366a36.901 36.901 0 0 0-15.468-10.638Z"/><path fill="#000" d="m238.074 269.344 3.909-5.668a21.532 21.532 0 0 1 9.018 3.644 17.373 17.373 0 0 1 5.947 6.296l-3.406 6.366a36.901 36.901 0 0 0-15.468-10.638Z" opacity=".25"/><path fill="#455A64" d="M254.589 274.328a1.047 1.047 0 1 1-2.094-.001 1.047 1.047 0 0 1 2.094.001Z"/><path fill="#BAE8E8" d="m154.356 238.046-.168 2.122s1.047 2.987 6.98 4.104c10.107 1.885 13.639-1.256 13.639-1.256l.251-1.815s.978-.405 2.611.851a91.134 91.134 0 0 1 6.98 8.195s-1.927-.572-8.236 2.122a30.147 30.147 0 0 1-19.712.74 10.85 10.85 0 0 1-7.189-8.083c-.14-1.843 3.099-7.706 4.844-6.98Z"/><path fill="#000" d="m154.356 238.046-.168 2.122s1.047 2.987 6.98 4.104c10.107 1.885 13.639-1.256 13.639-1.256l.251-1.815s.978-.405 2.611.851a91.134 91.134 0 0 1 6.98 8.195s-1.927-.572-8.236 2.122a30.147 30.147 0 0 1-19.712.74 10.85 10.85 0 0 1-7.189-8.083c-.14-1.843 3.099-7.706 4.844-6.98Z" opacity=".25"/><path fill="#FFBDA7" d="M265.114 235.435s14.393-1.242 16.501 0c2.108 1.243 1.466 7.469 0 11.294s-8.809 6.31-15.621 10.917c-.014-.684-.88-22.211-.88-22.211Z"/><path fill="#FFA8A7" d="M265.994 257.618c2.792-2.052 2.792-4.565 3.378-8.572.586-4.006 11.545-8.376 11.894-5.332.349 3.043 1.396 5.486-2.038 9.102-3.434 3.615-8.195 7.496-13.234 4.802ZM266.762 231.834c-2.625 3.406-3.072 7.426-4.454 9.646-1.382 2.22-3.49 4.774-.446 5.179 3.043.405 6.742-3.56 8.376-7.175a8.682 8.682 0 0 1 4.439-4.579c-1.396-.489-.684-6.226-1.689-6.98.042-.028-5.137 2.08-6.226 3.909Z"/></svg>