<svg xmlns="http://www.w3.org/2000/svg" width="24" height="24"><path d="M23.995 24H22c0-3.104.119-3.55-1.761-3.986-2.877-.664-5.594-1.291-6.584-3.458-.361-.791-.601-2.095.31-3.814 2.042-3.857 2.554-7.165 1.403-9.076-1.341-2.229-5.413-2.241-6.766.034-1.154 1.937-.635 5.227 1.424 9.025.93 1.712.697 3.02.338 3.815-.982 2.178-3.675 2.799-6.525 3.456C1.875 20.45 2 20.866 2 24H.005L0 22.759c0-2.52.199-3.975 3.178-4.663 3.365-.777 6.688-1.473 5.09-4.418C3.535 4.949 6.918 0 12 0c4.983 0 8.451 4.766 3.732 13.678-1.551 2.928 1.65 3.624 5.09 4.418 2.979.688 3.178 2.143 3.178 4.663L23.995 24zm-13.478-6 .91 2h1.164l.92-2h-2.994zm2.995 6-.704-3h-1.615l-.704 3h3.023z"/></svg>