<svg width="500" height="500" viewBox="0 0 500 500" fill="none" xmlns="http://www.w3.org/2000/svg">
<path d="M450.6 219.14C452.67 191.6 446.26 162.82 437.68 137.14C424.93 99.09 400.17 60 358.48 51C334.48 45.8 309.98 51.37 289.37 64.39C269.55 76.92 254.09 93.1 229.73 96.24C205.08 99.41 179.79 98.13 155.01 98.13C91.3101 98.13 39.6101 165.06 52.5301 234.77C65.4501 304.48 126.39 352.77 178.09 352.77C224.54 352.77 262.76 324.9 306.89 317.41C328.77 313.7 350.74 318.09 372.4 312.53C397.56 306.07 421.23 290.65 435.17 268.32C444.68 253.16 449.3 236.39 450.6 219.14Z" fill="#54B862"/>
<path opacity="0.7" d="M450.6 219.14C452.67 191.6 446.26 162.82 437.68 137.14C424.93 99.09 400.17 60 358.48 51C334.48 45.8 309.98 51.37 289.37 64.39C269.55 76.92 254.09 93.1 229.73 96.24C205.08 99.41 179.79 98.13 155.01 98.13C91.3101 98.13 39.6101 165.06 52.5301 234.77C65.4501 304.48 126.39 352.77 178.09 352.77C224.54 352.77 262.76 324.9 306.89 317.41C328.77 313.7 350.74 318.09 372.4 312.53C397.56 306.07 421.23 290.65 435.17 268.32C444.68 253.16 449.3 236.39 450.6 219.14Z" fill="white"/>
<path d="M98.0598 274.19C98.0598 274.19 102.74 270.49 103.94 268.12C104.94 266.12 105.7 263.25 104.64 261.12C104.413 260.609 104.081 260.151 103.666 259.776C103.251 259.401 102.762 259.117 102.231 258.942C101.699 258.768 101.137 258.707 100.581 258.764C100.024 258.82 99.4855 258.992 98.9998 259.27C96.1198 261.07 95.8198 267.17 96.5498 270.11C96.5598 270.37 97.9998 274.22 98.0598 274.19Z" fill="#54B862"/>
<path d="M54.81 305C55.01 305.18 58.34 307.6 58.36 307.54C58.38 307.48 60.22 301.88 59.92 299.24C59.65 296.99 58.7 294.24 56.63 292.99C56.1546 292.686 55.6203 292.486 55.0622 292.404C54.5041 292.321 53.9348 292.358 53.3918 292.511C52.8488 292.664 52.3442 292.93 51.9113 293.292C51.4784 293.653 51.127 294.103 50.88 294.61C49.47 297.65 52.58 302.92 54.81 305Z" fill="#54B862"/>
<path d="M152.83 279.78C152.83 279.78 135.7 297.46 135.83 319.17C135.96 340.88 153.2 358.42 153.2 358.42C153.2 358.42 170.32 340.74 170.2 319.02C170.08 297.3 152.83 279.78 152.83 279.78Z" fill="#54B862"/>
<path d="M128.41 332.18C128.636 331.936 128.843 331.675 129.03 331.4C130.28 329.51 131.34 326.76 130.54 324.5C130.376 323.958 130.099 323.458 129.727 323.032C129.355 322.605 128.897 322.262 128.382 322.026C127.868 321.79 127.31 321.665 126.744 321.661C126.178 321.656 125.618 321.772 125.1 322C122.78 323.09 121.63 326.82 121.39 329.87C120.46 329.66 119.62 329.5 118.91 329.38L117.98 327.29C117.64 326.57 117.4 325.84 117.11 325.11C116.7 324.02 116.33 322.88 115.96 321.75C117.31 321.14 121.26 319.3 122.73 317.67C124.2 316.04 125.73 313.44 125.26 311.08C125.175 310.523 124.974 309.99 124.669 309.516C124.364 309.042 123.962 308.638 123.49 308.33C123.018 308.022 122.486 307.818 121.93 307.73C121.373 307.642 120.804 307.673 120.26 307.82C117.01 308.82 115.1 314.6 115.03 317.63C115.03 317.73 115.03 318.37 115.15 319.13C114.82 318.01 114.49 316.89 114.15 315.75C113.32 312.49 112.57 309.16 111.8 305.82C111.64 305.12 111.47 304.43 111.31 303.73C112.45 303.23 116.74 301.27 118.31 299.56C119.88 297.85 121.31 295.33 120.85 292.97C120.765 292.413 120.564 291.88 120.259 291.406C119.954 290.932 119.552 290.528 119.08 290.22C118.608 289.912 118.076 289.708 117.52 289.62C116.963 289.532 116.394 289.563 115.85 289.71C112.6 290.71 110.69 296.49 110.62 299.52C110.62 299.63 110.69 300.39 110.76 301.25C110.32 299.44 109.86 297.64 109.34 295.87C108.48 292.828 107.414 289.847 106.15 286.95C106.55 286.77 111.63 284.58 113.34 282.68C114.86 281.01 116.34 278.45 115.88 276.09C115.795 275.533 115.594 275 115.289 274.526C114.984 274.052 114.582 273.648 114.11 273.34C113.638 273.032 113.106 272.828 112.55 272.74C111.993 272.652 111.424 272.683 110.88 272.83C107.63 273.83 105.72 279.61 105.65 282.64C105.65 282.85 105.9 285.64 106.02 286.64C106.024 286.603 106.024 286.566 106.02 286.53C104.708 283.714 103.148 281.02 101.36 278.48C99.7546 276.22 98.0183 274.057 96.16 272C94.4799 270.06 92.8099 268.38 91.3299 266.91C90.5199 266.12 89.7599 265.41 89.0499 264.76H89.1199C89.1899 264.76 87.5399 260.98 87.4099 260.76C85.8899 258.14 81.4099 253.97 78.0999 254.69C77.5519 254.823 77.0381 255.07 76.5924 255.416C76.1467 255.762 75.7791 256.197 75.5137 256.695C75.2484 257.193 75.0912 257.741 75.0527 258.304C75.0141 258.866 75.095 259.431 75.2899 259.96C76.0299 262.24 78.5499 263.77 80.6899 264.51C82.8299 265.25 87.6899 264.9 88.8499 264.8C89.5799 265.49 90.3399 266.24 91.1699 267.09C92.6199 268.59 94.2399 270.29 95.8799 272.27C96.3199 272.79 96.7699 273.37 97.2099 273.93C96.2699 273.15 94.9599 272.09 94.8199 272C92.2599 270.38 86.3699 268.74 83.7599 270.91C83.3299 271.28 82.9836 271.738 82.744 272.253C82.5045 272.767 82.3772 273.327 82.3706 273.894C82.3639 274.462 82.4782 275.024 82.7056 275.544C82.9331 276.064 83.2687 276.53 83.6899 276.91C85.3999 278.59 88.3399 278.79 90.5799 278.46C92.8199 278.13 97.0799 275.51 97.9899 274.93C98.9899 276.18 99.9299 277.48 100.85 278.93C102.562 281.477 104.044 284.171 105.28 286.98C105.35 287.14 105.4 287.32 105.47 287.48C105.07 287.02 102.69 284.61 102.47 284.48C100.11 282.59 94.4699 280.31 91.5999 282.18C91.1365 282.502 90.7464 282.918 90.4552 283.401C90.1641 283.884 89.9784 284.424 89.9104 284.984C89.8424 285.544 89.8936 286.112 90.0607 286.65C90.2278 287.189 90.507 287.687 90.8799 288.11C92.3899 289.96 95.2899 290.49 97.5499 290.4C100.16 290.31 105.29 287.72 105.49 287.62C106.64 290.455 107.605 293.361 108.38 296.32C108.97 298.51 109.47 300.75 109.95 303C109.42 302.41 107.2 300.17 107.03 300C104.66 298.1 99.0299 295.83 96.1499 297.69C95.6865 298.012 95.2964 298.428 95.0053 298.911C94.7141 299.394 94.5284 299.933 94.4604 300.494C94.3924 301.054 94.4436 301.622 94.6107 302.16C94.7778 302.699 95.057 303.197 95.4299 303.62C96.9399 305.48 99.8499 306 102.11 305.92C104.65 305.83 109.58 303.37 109.99 303.16C110.21 304.16 110.44 305.16 110.65 306.23C111.34 309.58 112.02 312.95 112.79 316.23C113.06 317.38 113.36 318.49 113.67 319.61C112.83 318.75 111.29 317.19 111.15 317.08C108.78 315.18 103.15 312.9 100.27 314.77C99.8065 315.092 99.4165 315.508 99.1253 315.991C98.8341 316.474 98.6484 317.014 98.5804 317.574C98.5124 318.134 98.5636 318.702 98.7307 319.24C98.8978 319.779 99.177 320.277 99.5499 320.7C101.06 322.56 103.97 323.08 106.23 323C108.49 322.92 112.69 320.94 113.86 320.36C114.37 322.22 114.93 324.06 115.55 325.84C115.84 326.6 116.09 327.39 116.41 328.11L116.88 329.25L116.23 329.18C116.23 329.18 116.18 330.24 116.23 331.97C113.74 330.19 110.15 328.66 107.81 329.74C107.304 329.988 106.855 330.34 106.494 330.773C106.134 331.207 105.869 331.711 105.717 332.254C105.564 332.797 105.529 333.366 105.612 333.924C105.696 334.481 105.896 335.015 106.2 335.49C106.355 335.742 106.529 335.983 106.72 336.21C107.163 338.836 108.272 341.304 109.94 343.38C110.07 343.53 111.76 345.09 112.65 345.87C111.79 345.41 110.94 344.95 110.06 344.45C108.79 343.75 107.47 342.96 106.18 342.21L104.18 340.95C103.5 340.53 102.9 340.06 102.25 339.61C101.31 338.93 100.37 338.18 99.4399 337.44C100.23 336.19 102.51 332.44 102.83 330.31C103.15 328.18 102.99 325.13 101.32 323.41C100.945 322.984 100.483 322.643 99.9657 322.41C99.4485 322.176 98.8875 322.056 98.3199 322.056C97.7524 322.056 97.1914 322.176 96.6742 322.41C96.157 322.643 95.6953 322.984 95.3199 323.41C93.1399 326.01 94.7599 331.91 96.3199 334.48C96.3199 334.56 96.7699 335.07 97.2499 335.66C96.3599 334.91 95.4599 334.16 94.5799 333.37C92.0899 331.12 89.5799 328.75 87.1399 326.37L85.5799 324.9C86.2599 323.9 88.7599 319.9 89.0999 317.58C89.4399 315.26 89.2499 312.4 87.5799 310.69C87.2046 310.264 86.7429 309.923 86.2257 309.69C85.7085 309.456 85.1474 309.336 84.5799 309.336C84.0124 309.336 83.4514 309.456 82.9342 309.69C82.417 309.923 81.9553 310.264 81.5799 310.69C79.3999 313.29 81.0099 319.19 82.5799 321.75C82.5799 321.84 83.1099 322.45 83.6499 323.12C82.2799 321.85 80.8999 320.61 79.4999 319.42C77.0987 317.357 74.5631 315.456 71.9099 313.73C72.1499 313.37 75.1699 308.73 75.5499 306.21C75.8899 303.97 75.7099 301.03 74.0299 299.32C73.6546 298.894 73.1929 298.553 72.6757 298.32C72.1585 298.086 71.5974 297.966 71.0299 297.966C70.4624 297.966 69.9014 298.086 69.3842 298.32C68.8669 298.553 68.4053 298.894 68.0299 299.32C65.8499 301.92 67.4699 307.82 69.0799 310.38C69.1899 310.56 70.9299 312.73 71.5799 313.49L71.4899 313.42C68.8368 311.798 66.046 310.413 63.1499 309.28C60.5737 308.252 57.9391 307.378 55.2599 306.66C52.7799 305.97 50.4599 305.49 48.4199 305.08C47.2999 304.87 46.2799 304.7 45.3299 304.54H45.3899C45.3899 304.54 41.9799 302.26 41.7399 302.14C39.0299 300.79 32.9999 299.79 30.6299 302.21C30.2453 302.623 29.9524 303.113 29.7706 303.647C29.5887 304.182 29.5221 304.749 29.575 305.311C29.6279 305.873 29.7991 306.417 30.0775 306.908C30.3558 307.399 30.7349 307.826 31.1899 308.16C33.0699 309.65 36.0099 309.54 38.1899 308.98C40.3699 308.42 44.1899 305.45 45.1899 304.71C46.1899 304.89 47.1899 305.09 48.3899 305.34C50.3899 305.79 52.7199 306.34 55.1799 307.06L57.1799 307.71C55.9599 307.58 54.2899 307.43 54.1199 307.43C51.1199 307.49 45.2799 309.37 44.2899 312.62C44.1426 313.162 44.1113 313.73 44.198 314.285C44.2847 314.841 44.4876 315.372 44.7933 315.844C45.099 316.315 45.5007 316.717 45.9723 317.023C46.4438 317.33 46.9746 317.533 47.5299 317.62C49.8799 318.07 52.4499 316.62 54.1299 315.11C55.8099 313.6 57.9299 309.06 58.3699 308.11C59.8599 308.62 61.3699 309.18 62.9399 309.85C65.7755 311.027 68.4997 312.456 71.0799 314.12C71.2299 314.22 71.3699 314.34 71.5199 314.43C70.9199 314.27 67.6099 313.57 67.3699 313.55C64.3699 313.27 58.3699 314.55 57.0299 317.63C56.8311 318.172 56.7519 318.75 56.7978 319.326C56.8437 319.901 57.0135 320.46 57.2957 320.963C57.5779 321.467 57.9656 321.903 58.4324 322.243C58.8992 322.582 59.434 322.817 59.9999 322.93C62.2899 323.64 64.9999 322.48 66.8399 321.16C68.9599 319.65 71.8399 314.66 71.9199 314.47C74.445 316.196 76.8536 318.087 79.1299 320.13C80.8299 321.63 82.4799 323.22 84.1299 324.83C83.3499 324.63 80.2699 323.99 80.0499 323.97C77.0499 323.69 71.0499 324.92 69.7099 328.04C69.5013 328.563 69.4055 329.124 69.4288 329.687C69.4521 330.25 69.5939 330.801 69.845 331.305C70.0961 331.809 70.4508 332.255 70.8859 332.612C71.321 332.97 71.8267 333.231 72.3699 333.38C74.6599 334.1 77.3699 332.93 79.2099 331.62C81.2799 330.14 84.0299 325.37 84.2099 324.96C84.9599 325.7 85.7099 326.42 86.4499 327.16C88.8799 329.58 91.2999 332.01 93.7699 334.34C94.6199 335.14 95.4899 335.9 96.3599 336.67C95.1899 336.41 93.0499 335.96 92.8599 335.95C89.8599 335.67 83.8599 336.9 82.5199 340.02C82.3115 340.544 82.216 341.106 82.2399 341.669C82.2639 342.232 82.4065 342.784 82.6586 343.288C82.9108 343.792 83.2666 344.238 83.7028 344.595C84.1391 344.952 84.6458 345.212 85.1899 345.36C87.4699 346.08 90.1899 344.91 92.0199 343.6C93.8499 342.29 96.27 338.32 96.9399 337.19C98.3899 338.46 99.8599 339.68 101.37 340.82C102.03 341.3 102.67 341.82 103.37 342.24L105.32 343.55C106.68 344.39 107.94 345.18 109.23 345.93L111.13 347.02C109.98 346.58 108.13 345.9 107.98 345.86C105.04 345.12 98.9799 345.44 97.1399 348.32C96.8559 348.808 96.6783 349.35 96.619 349.912C96.5596 350.473 96.6197 351.041 96.7954 351.577C96.9711 352.114 97.2584 352.607 97.6383 353.025C98.0183 353.442 98.4823 353.775 98.9999 354C101.15 355.05 104 354.31 106 353.29C108.22 352.17 111.57 348.02 112 347.51C113.55 348.4 115.08 349.25 116.52 350.02C120.36 352.07 123.71 353.71 126.32 354.94C134.77 362.25 146.68 363.05 146.68 363.05C146.68 363.05 147.3 348.8 138.91 339.41C135.982 336.26 132.397 333.792 128.41 332.18ZM113.31 346.08C113.57 345.5 115.6 340.97 115.74 338.41C116.21 338.33 116.68 338.23 117.14 338.12C117.999 342.622 119.787 346.897 122.39 350.67C120.86 349.94 119.19 349.13 117.39 348.23C116.11 347.57 114.72 346.84 113.31 346.08Z" fill="#54B862"/>
<path d="M190.79 329.45C190.79 329.45 176.52 329.89 167.79 338.96C159.06 348.03 159.17 362.3 159.17 362.3C159.17 362.3 173.43 361.86 182.17 352.79C190.91 343.72 190.79 329.45 190.79 329.45Z" fill="#54B862"/>
<g opacity="0.5">
<path d="M98.0598 274.19C98.0598 274.19 102.74 270.49 103.94 268.12C104.94 266.12 105.7 263.25 104.64 261.12C104.413 260.609 104.081 260.151 103.666 259.776C103.251 259.401 102.762 259.117 102.231 258.942C101.699 258.768 101.137 258.707 100.581 258.764C100.024 258.82 99.4855 258.992 98.9998 259.27C96.1198 261.07 95.8198 267.17 96.5498 270.11C96.5598 270.37 97.9998 274.22 98.0598 274.19Z" fill="white"/>
<path d="M54.81 305C55.01 305.18 58.34 307.6 58.36 307.54C58.38 307.48 60.22 301.88 59.92 299.24C59.65 296.99 58.7 294.24 56.63 292.99C56.1546 292.686 55.6203 292.486 55.0622 292.404C54.5041 292.321 53.9348 292.358 53.3918 292.511C52.8488 292.664 52.3442 292.93 51.9113 293.292C51.4784 293.653 51.127 294.103 50.88 294.61C49.47 297.65 52.58 302.92 54.81 305Z" fill="white"/>
<path d="M152.83 279.78C152.83 279.78 135.7 297.46 135.83 319.17C135.96 340.88 153.2 358.42 153.2 358.42C153.2 358.42 170.32 340.74 170.2 319.02C170.08 297.3 152.83 279.78 152.83 279.78Z" fill="white"/>
<path d="M128.41 332.18C128.636 331.936 128.843 331.675 129.03 331.4C130.28 329.51 131.34 326.76 130.54 324.5C130.376 323.958 130.099 323.458 129.727 323.032C129.355 322.605 128.897 322.262 128.382 322.026C127.868 321.79 127.31 321.665 126.744 321.661C126.178 321.656 125.618 321.772 125.1 322C122.78 323.09 121.63 326.82 121.39 329.87C120.46 329.66 119.62 329.5 118.91 329.38L117.98 327.29C117.64 326.57 117.4 325.84 117.11 325.11C116.7 324.02 116.33 322.88 115.96 321.75C117.31 321.14 121.26 319.3 122.73 317.67C124.2 316.04 125.73 313.44 125.26 311.08C125.175 310.523 124.974 309.99 124.669 309.516C124.364 309.042 123.962 308.638 123.49 308.33C123.018 308.022 122.486 307.818 121.93 307.73C121.373 307.642 120.804 307.673 120.26 307.82C117.01 308.82 115.1 314.6 115.03 317.63C115.03 317.73 115.03 318.37 115.15 319.13C114.82 318.01 114.49 316.89 114.15 315.75C113.32 312.49 112.57 309.16 111.8 305.82C111.64 305.12 111.47 304.43 111.31 303.73C112.45 303.23 116.74 301.27 118.31 299.56C119.88 297.85 121.31 295.33 120.85 292.97C120.765 292.413 120.564 291.88 120.259 291.406C119.954 290.932 119.552 290.528 119.08 290.22C118.608 289.912 118.076 289.708 117.52 289.62C116.963 289.532 116.394 289.563 115.85 289.71C112.6 290.71 110.69 296.49 110.62 299.52C110.62 299.63 110.69 300.39 110.76 301.25C110.32 299.44 109.86 297.64 109.34 295.87C108.48 292.828 107.414 289.847 106.15 286.95C106.55 286.77 111.63 284.58 113.34 282.68C114.86 281.01 116.34 278.45 115.88 276.09C115.795 275.533 115.594 275 115.289 274.526C114.984 274.052 114.582 273.648 114.11 273.34C113.638 273.032 113.106 272.828 112.55 272.74C111.993 272.652 111.424 272.683 110.88 272.83C107.63 273.83 105.72 279.61 105.65 282.64C105.65 282.85 105.9 285.64 106.02 286.64C106.024 286.603 106.024 286.566 106.02 286.53C104.708 283.714 103.148 281.02 101.36 278.48C99.7546 276.22 98.0183 274.057 96.16 272C94.4799 270.06 92.8099 268.38 91.3299 266.91C90.5199 266.12 89.7599 265.41 89.0499 264.76H89.1199C89.1899 264.76 87.5399 260.98 87.4099 260.76C85.8899 258.14 81.4099 253.97 78.0999 254.69C77.5519 254.823 77.0381 255.07 76.5924 255.416C76.1467 255.762 75.7791 256.197 75.5137 256.695C75.2484 257.193 75.0912 257.741 75.0527 258.304C75.0141 258.866 75.095 259.431 75.2899 259.96C76.0299 262.24 78.5499 263.77 80.6899 264.51C82.8299 265.25 87.6899 264.9 88.8499 264.8C89.5799 265.49 90.3399 266.24 91.1699 267.09C92.6199 268.59 94.2399 270.29 95.8799 272.27C96.3199 272.79 96.7699 273.37 97.2099 273.93C96.2699 273.15 94.9599 272.09 94.8199 272C92.2599 270.38 86.3699 268.74 83.7599 270.91C83.3299 271.28 82.9836 271.738 82.744 272.253C82.5045 272.767 82.3772 273.327 82.3706 273.894C82.3639 274.462 82.4782 275.024 82.7056 275.544C82.9331 276.064 83.2687 276.53 83.6899 276.91C85.3999 278.59 88.3399 278.79 90.5799 278.46C92.8199 278.13 97.0799 275.51 97.9899 274.93C98.9899 276.18 99.9299 277.48 100.85 278.93C102.562 281.477 104.044 284.171 105.28 286.98C105.35 287.14 105.4 287.32 105.47 287.48C105.07 287.02 102.69 284.61 102.47 284.48C100.11 282.59 94.4699 280.31 91.5999 282.18C91.1365 282.502 90.7464 282.918 90.4552 283.401C90.1641 283.884 89.9784 284.424 89.9104 284.984C89.8424 285.544 89.8936 286.112 90.0607 286.65C90.2278 287.189 90.507 287.687 90.8799 288.11C92.3899 289.96 95.2899 290.49 97.5499 290.4C100.16 290.31 105.29 287.72 105.49 287.62C106.64 290.455 107.605 293.361 108.38 296.32C108.97 298.51 109.47 300.75 109.95 303C109.42 302.41 107.2 300.17 107.03 300C104.66 298.1 99.0299 295.83 96.1499 297.69C95.6865 298.012 95.2964 298.428 95.0053 298.911C94.7141 299.394 94.5284 299.933 94.4604 300.494C94.3924 301.054 94.4436 301.622 94.6107 302.16C94.7778 302.699 95.057 303.197 95.4299 303.62C96.9399 305.48 99.8499 306 102.11 305.92C104.65 305.83 109.58 303.37 109.99 303.16C110.21 304.16 110.44 305.16 110.65 306.23C111.34 309.58 112.02 312.95 112.79 316.23C113.06 317.38 113.36 318.49 113.67 319.61C112.83 318.75 111.29 317.19 111.15 317.08C108.78 315.18 103.15 312.9 100.27 314.77C99.8065 315.092 99.4165 315.508 99.1253 315.991C98.8341 316.474 98.6484 317.014 98.5804 317.574C98.5124 318.134 98.5636 318.702 98.7307 319.24C98.8978 319.779 99.177 320.277 99.5499 320.7C101.06 322.56 103.97 323.08 106.23 323C108.49 322.92 112.69 320.94 113.86 320.36C114.37 322.22 114.93 324.06 115.55 325.84C115.84 326.6 116.09 327.39 116.41 328.11L116.88 329.25L116.23 329.18C116.23 329.18 116.18 330.24 116.23 331.97C113.74 330.19 110.15 328.66 107.81 329.74C107.304 329.988 106.855 330.34 106.494 330.773C106.134 331.207 105.869 331.711 105.717 332.254C105.564 332.797 105.529 333.366 105.612 333.924C105.696 334.481 105.896 335.015 106.2 335.49C106.355 335.742 106.529 335.983 106.72 336.21C107.163 338.836 108.272 341.304 109.94 343.38C110.07 343.53 111.76 345.09 112.65 345.87C111.79 345.41 110.94 344.95 110.06 344.45C108.79 343.75 107.47 342.96 106.18 342.21L104.18 340.95C103.5 340.53 102.9 340.06 102.25 339.61C101.31 338.93 100.37 338.18 99.4399 337.44C100.23 336.19 102.51 332.44 102.83 330.31C103.15 328.18 102.99 325.13 101.32 323.41C100.945 322.984 100.483 322.643 99.9657 322.41C99.4485 322.176 98.8875 322.056 98.3199 322.056C97.7524 322.056 97.1914 322.176 96.6742 322.41C96.157 322.643 95.6953 322.984 95.3199 323.41C93.1399 326.01 94.7599 331.91 96.3199 334.48C96.3199 334.56 96.7699 335.07 97.2499 335.66C96.3599 334.91 95.4599 334.16 94.5799 333.37C92.0899 331.12 89.5799 328.75 87.1399 326.37L85.5799 324.9C86.2599 323.9 88.7599 319.9 89.0999 317.58C89.4399 315.26 89.2499 312.4 87.5799 310.69C87.2046 310.264 86.7429 309.923 86.2257 309.69C85.7085 309.456 85.1474 309.336 84.5799 309.336C84.0124 309.336 83.4514 309.456 82.9342 309.69C82.417 309.923 81.9553 310.264 81.5799 310.69C79.3999 313.29 81.0099 319.19 82.5799 321.75C82.5799 321.84 83.1099 322.45 83.6499 323.12C82.2799 321.85 80.8999 320.61 79.4999 319.42C77.0987 317.357 74.5631 315.456 71.9099 313.73C72.1499 313.37 75.1699 308.73 75.5499 306.21C75.8899 303.97 75.7099 301.03 74.0299 299.32C73.6546 298.894 73.1929 298.553 72.6757 298.32C72.1585 298.086 71.5974 297.966 71.0299 297.966C70.4624 297.966 69.9014 298.086 69.3842 298.32C68.8669 298.553 68.4053 298.894 68.0299 299.32C65.8499 301.92 67.4699 307.82 69.0799 310.38C69.1899 310.56 70.9299 312.73 71.5799 313.49L71.4899 313.42C68.8368 311.798 66.046 310.413 63.1499 309.28C60.5737 308.252 57.9391 307.378 55.2599 306.66C52.7799 305.97 50.4599 305.49 48.4199 305.08C47.2999 304.87 46.2799 304.7 45.3299 304.54H45.3899C45.3899 304.54 41.9799 302.26 41.7399 302.14C39.0299 300.79 32.9999 299.79 30.6299 302.21C30.2453 302.623 29.9524 303.113 29.7706 303.647C29.5887 304.182 29.5221 304.749 29.575 305.311C29.6279 305.873 29.7991 306.417 30.0775 306.908C30.3558 307.399 30.7349 307.826 31.1899 308.16C33.0699 309.65 36.0099 309.54 38.1899 308.98C40.3699 308.42 44.1899 305.45 45.1899 304.71C46.1899 304.89 47.1899 305.09 48.3899 305.34C50.3899 305.79 52.7199 306.34 55.1799 307.06L57.1799 307.71C55.9599 307.58 54.2899 307.43 54.1199 307.43C51.1199 307.49 45.2799 309.37 44.2899 312.62C44.1426 313.162 44.1113 313.73 44.198 314.285C44.2847 314.841 44.4876 315.372 44.7933 315.844C45.099 316.315 45.5007 316.717 45.9723 317.023C46.4438 317.33 46.9746 317.533 47.5299 317.62C49.8799 318.07 52.4499 316.62 54.1299 315.11C55.8099 313.6 57.9299 309.06 58.3699 308.11C59.8599 308.62 61.3699 309.18 62.9399 309.85C65.7755 311.027 68.4997 312.456 71.0799 314.12C71.2299 314.22 71.3699 314.34 71.5199 314.43C70.9199 314.27 67.6099 313.57 67.3699 313.55C64.3699 313.27 58.3699 314.55 57.0299 317.63C56.8311 318.172 56.7519 318.75 56.7978 319.326C56.8437 319.901 57.0135 320.46 57.2957 320.963C57.5779 321.467 57.9656 321.903 58.4324 322.243C58.8992 322.582 59.434 322.817 59.9999 322.93C62.2899 323.64 64.9999 322.48 66.8399 321.16C68.9599 319.65 71.8399 314.66 71.9199 314.47C74.445 316.196 76.8536 318.087 79.1299 320.13C80.8299 321.63 82.4799 323.22 84.1299 324.83C83.3499 324.63 80.2699 323.99 80.0499 323.97C77.0499 323.69 71.0499 324.92 69.7099 328.04C69.5013 328.563 69.4055 329.124 69.4288 329.687C69.4521 330.25 69.5939 330.801 69.845 331.305C70.0961 331.809 70.4508 332.255 70.8859 332.612C71.321 332.97 71.8267 333.231 72.3699 333.38C74.6599 334.1 77.3699 332.93 79.2099 331.62C81.2799 330.14 84.0299 325.37 84.2099 324.96C84.9599 325.7 85.7099 326.42 86.4499 327.16C88.8799 329.58 91.2999 332.01 93.7699 334.34C94.6199 335.14 95.4899 335.9 96.3599 336.67C95.1899 336.41 93.0499 335.96 92.8599 335.95C89.8599 335.67 83.8599 336.9 82.5199 340.02C82.3115 340.544 82.216 341.106 82.2399 341.669C82.2639 342.232 82.4065 342.784 82.6586 343.288C82.9108 343.792 83.2666 344.238 83.7028 344.595C84.1391 344.952 84.6458 345.212 85.1899 345.36C87.4699 346.08 90.1899 344.91 92.0199 343.6C93.8499 342.29 96.27 338.32 96.9399 337.19C98.3899 338.46 99.8599 339.68 101.37 340.82C102.03 341.3 102.67 341.82 103.37 342.24L105.32 343.55C106.68 344.39 107.94 345.18 109.23 345.93L111.13 347.02C109.98 346.58 108.13 345.9 107.98 345.86C105.04 345.12 98.9799 345.44 97.1399 348.32C96.8559 348.808 96.6783 349.35 96.619 349.912C96.5596 350.473 96.6197 351.041 96.7954 351.577C96.9711 352.114 97.2584 352.607 97.6383 353.025C98.0183 353.442 98.4823 353.775 98.9999 354C101.15 355.05 104 354.31 106 353.29C108.22 352.17 111.57 348.02 112 347.51C113.55 348.4 115.08 349.25 116.52 350.02C120.36 352.07 123.71 353.71 126.32 354.94C134.77 362.25 146.68 363.05 146.68 363.05C146.68 363.05 147.3 348.8 138.91 339.41C135.982 336.26 132.397 333.792 128.41 332.18ZM113.31 346.08C113.57 345.5 115.6 340.97 115.74 338.41C116.21 338.33 116.68 338.23 117.14 338.12C117.999 342.622 119.787 346.897 122.39 350.67C120.86 349.94 119.19 349.13 117.39 348.23C116.11 347.57 114.72 346.84 113.31 346.08Z" fill="white"/>
<path d="M190.79 329.45C190.79 329.45 176.52 329.89 167.79 338.96C159.06 348.03 159.17 362.3 159.17 362.3C159.17 362.3 173.43 361.86 182.17 352.79C190.91 343.72 190.79 329.45 190.79 329.45Z" fill="white"/>
</g>
<path d="M153.53 338.64L167.54 326.04L166.94 325.38L153.53 337.44L153.45 320.93L153.53 320.98L165.38 303.65L164.63 303.15L153.45 319.5L153.28 279.78H152.38L152.49 306.75L143.57 299.03L142.99 299.71L152.5 307.94L152.58 327.22L139.06 315.25L138.47 315.93L152.59 328.42L152.66 345.97L142.5 338L141.95 338.71L152.67 347.12L152.72 358.42L153.62 358.41L153.53 338.63V338.64Z" fill="white"/>
<path d="M140.63 343.5L139.73 343.4L138.6 353.38L132.59 346.65H132.6L131.07 334.58L130.18 334.69L131.55 345.49L116.59 328.77L115.92 329.37L126.07 340.71L119.65 340.79L119.66 341.69L126.86 341.6L133.98 349.56L123.93 349.57L123.94 350.46L134.78 350.45L141.25 357.68L134.16 358.11L134.22 359.01L142.01 358.54L146.32 363.35L146.99 362.75L139.4 354.27L140.63 343.5Z" fill="white"/>
<path d="M174.48 347.06L186.41 344.64L186.23 343.75L175.56 345.92L191.11 329.76L190.47 329.14L179.91 340.1L179.35 333.7L178.46 333.78L179.09 340.96L171.69 348.65L170.92 338.63L170.03 338.7L170.85 349.52L164.12 356.51L163.17 349.48L162.28 349.6L163.33 357.33L158.85 361.99L159.49 362.61L167.38 354.41L178.22 354.83L178.25 353.93L168.22 353.55L174.48 347.05V347.06Z" fill="white"/>
<path d="M238.34 377.82C316.107 377.82 379.15 374.516 379.15 370.44C379.15 366.364 316.107 363.06 238.34 363.06C160.573 363.06 97.53 366.364 97.53 370.44C97.53 374.516 160.573 377.82 238.34 377.82Z" fill="#54B862"/>
<path opacity="0.5" d="M238.34 377.82C316.107 377.82 379.15 374.516 379.15 370.44C379.15 366.364 316.107 363.06 238.34 363.06C160.573 363.06 97.53 366.364 97.53 370.44C97.53 374.516 160.573 377.82 238.34 377.82Z" fill="white"/>
<path d="M272.42 337.64V313.94H202.62V337.64C202.62 345.37 192.5 350.86 186.74 358.13L183.07 362.77H292L288.33 358.13C282.54 350.86 272.42 345.37 272.42 337.64Z" fill="white" stroke="#263238" stroke-width="1.09543" stroke-linecap="round" stroke-linejoin="round"/>
<g style="mix-blend-mode:multiply">
<path d="M190.5 354.23H284.55C281.19 348.17 272.42 343.47 272.42 337.64V313.94H202.62V337.64C202.62 343.47 193.85 348.17 190.5 354.23Z" fill="#54B862"/>
</g>
<path d="M272.42 317.5H202.62V327.51H272.42V317.5Z" fill="#263238" stroke="#263238" stroke-width="1.09543" stroke-linecap="round" stroke-linejoin="round"/>
<path d="M368.51 111H106.54C101.409 111 97.25 115.159 97.25 120.29V312.12C97.25 317.251 101.409 321.41 106.54 321.41H368.51C373.641 321.41 377.8 317.251 377.8 312.12V120.29C377.8 115.159 373.641 111 368.51 111Z" fill="#263238" stroke="#263238" stroke-width="1.09543" stroke-linecap="round" stroke-linejoin="round"/>
<path d="M97.25 288.7H377.8V312.11C377.8 313.33 377.56 314.538 377.093 315.665C376.626 316.792 375.942 317.816 375.079 318.679C374.216 319.542 373.192 320.226 372.065 320.693C370.938 321.16 369.73 321.4 368.51 321.4H106.51C105.29 321.4 104.082 321.16 102.955 320.693C101.828 320.226 100.804 319.542 99.9409 318.679C99.0783 317.816 98.394 316.792 97.9271 315.665C97.4603 314.538 97.22 313.33 97.22 312.11V288.7H97.25Z" fill="white" stroke="#263238" stroke-width="1.09543" stroke-linecap="round" stroke-linejoin="round"/>
<path d="M363.68 134.09H111.36V282.74H363.68V134.09Z" fill="#263238" stroke="#263238" stroke-width="1.09543" stroke-linecap="round" stroke-linejoin="round"/>
<path opacity="0.6" d="M363.68 134.09H111.36V282.74H363.68V134.09Z" fill="white"/>
<path d="M242.7 305.06C242.702 304.035 242.4 303.033 241.832 302.179C241.264 301.326 240.456 300.661 239.509 300.267C238.563 299.874 237.521 299.77 236.516 299.968C235.51 300.167 234.586 300.66 233.861 301.384C233.135 302.108 232.641 303.031 232.44 304.036C232.24 305.041 232.342 306.083 232.733 307.03C233.125 307.977 233.789 308.787 234.641 309.356C235.493 309.926 236.495 310.23 237.52 310.23C238.892 310.23 240.208 309.686 241.179 308.716C242.151 307.747 242.697 306.432 242.7 305.06Z" fill="#263238" stroke="#263238" stroke-width="1.09543" stroke-linecap="round" stroke-linejoin="round"/>
<path d="M291.99 362.77H183.07V367.85H291.99V362.77Z" fill="white" stroke="#263238" stroke-width="1.09543" stroke-linecap="round" stroke-linejoin="round"/>
<mask id="mask0_230_1664" style="mask-type:luminance" maskUnits="userSpaceOnUse" x="111" y="134" width="253" height="149">
<path d="M363.68 134.09H111.36V282.74H363.68V134.09Z" fill="white"/>
</mask>
<g mask="url(#mask0_230_1664)">
<path d="M245.2 238C241.62 234.65 230.2 230.17 224.2 230.3C218.2 230.43 218.61 229.59 212.39 224.22C206.17 218.85 198.32 220.22 188.64 226.22C178.96 232.22 175.99 231.06 172.83 227.87C169.67 224.68 164.62 227.6 154.83 236.47C145.04 245.34 144.07 244 139 242C136.57 241.05 132.57 245 129.07 249.3L109.85 298.48L123.26 303.71C125.83 302.79 128.58 301.47 130.15 299.71C133.67 295.71 129.86 294.22 131.92 287.71C133.98 281.2 141.71 285.18 150.1 276.23C154.25 271.8 155.91 266.44 161.51 263.71C166.77 261.14 173.33 260.71 176.84 255.37C180.35 250.03 186.18 250.22 193.73 252.19C201.28 254.16 209.24 256.3 214.61 250.08C219.98 243.86 221.81 241.65 233.07 241.64C244.33 241.63 248.78 241.38 245.2 238Z" fill="#54B862"/>
<path opacity="0.5" d="M245.2 238C241.62 234.65 230.2 230.17 224.2 230.3C218.2 230.43 218.61 229.59 212.39 224.22C206.17 218.85 198.32 220.22 188.64 226.22C178.96 232.22 175.99 231.06 172.83 227.87C169.67 224.68 164.62 227.6 154.83 236.47C145.04 245.34 144.07 244 139 242C136.57 241.05 132.57 245 129.07 249.3L109.85 298.48L123.26 303.71C125.83 302.79 128.58 301.47 130.15 299.71C133.67 295.71 129.86 294.22 131.92 287.71C133.98 281.2 141.71 285.18 150.1 276.23C154.25 271.8 155.91 266.44 161.51 263.71C166.77 261.14 173.33 260.71 176.84 255.37C180.35 250.03 186.18 250.22 193.73 252.19C201.28 254.16 209.24 256.3 214.61 250.08C219.98 243.86 221.81 241.65 233.07 241.64C244.33 241.63 248.78 241.38 245.2 238Z" fill="black"/>
<path d="M232.52 235C219.589 234.164 206.604 235.031 193.9 237.58L198.61 229.69C198.676 229.574 198.694 229.437 198.66 229.308C198.627 229.179 198.544 229.069 198.43 229C198.316 228.934 198.18 228.916 198.053 228.95C197.925 228.984 197.817 229.066 197.75 229.18L192.57 237.86C181.518 240.194 170.756 243.739 160.48 248.43L165.28 236.14C165.309 236.078 165.326 236.01 165.328 235.941C165.33 235.873 165.318 235.804 165.293 235.74C165.267 235.676 165.229 235.619 165.18 235.57C165.131 235.522 165.073 235.484 165.009 235.459C164.945 235.434 164.876 235.423 164.807 235.426C164.739 235.429 164.671 235.446 164.609 235.476C164.547 235.506 164.492 235.548 164.448 235.601C164.403 235.653 164.37 235.714 164.35 235.78L159.21 248.93C159.21 248.93 159.21 248.99 159.21 249.02C154.21 251.38 149.63 253.82 145.63 256.19C140.217 259.385 134.997 262.898 130 266.71L135.8 254C135.838 253.884 135.833 253.757 135.784 253.645C135.736 253.532 135.648 253.441 135.537 253.39C135.426 253.338 135.299 253.329 135.182 253.364C135.065 253.399 134.964 253.476 134.9 253.58L128.28 268C123.182 271.947 118.406 276.294 114 281C113.908 281.095 113.856 281.222 113.856 281.355C113.856 281.487 113.908 281.615 114 281.71C114.096 281.788 114.216 281.83 114.34 281.83C114.409 281.83 114.478 281.816 114.542 281.789C114.605 281.761 114.663 281.721 114.71 281.67C119.09 277.043 123.839 272.779 128.91 268.92L145.29 272.44H145.39C145.505 272.44 145.617 272.4 145.706 272.327C145.795 272.254 145.857 272.153 145.88 272.04C145.894 271.976 145.896 271.91 145.885 271.846C145.874 271.781 145.85 271.72 145.814 271.665C145.779 271.61 145.733 271.562 145.679 271.526C145.625 271.489 145.564 271.463 145.5 271.45L130 268.07C139.316 260.939 149.374 254.833 160 249.86L170.94 256.47C171.054 256.537 171.19 256.557 171.319 256.525C171.448 256.493 171.559 256.412 171.63 256.3C171.697 256.185 171.716 256.049 171.685 255.92C171.653 255.792 171.572 255.68 171.46 255.61L161.1 249.36C170.996 244.803 181.357 241.33 192 239C191.995 239.036 191.995 239.073 192 239.11C192.02 239.177 192.054 239.238 192.101 239.29C192.148 239.342 192.205 239.383 192.27 239.41L204.41 244.64C204.473 244.67 204.54 244.687 204.61 244.69C204.742 244.716 204.88 244.689 204.993 244.614C205.105 244.539 205.183 244.423 205.21 244.29C205.236 244.157 205.209 244.02 205.134 243.907C205.059 243.795 204.942 243.716 204.81 243.69L193.24 238.69C206.132 236.028 219.325 235.123 232.46 236C232.525 236.004 232.591 235.995 232.653 235.973C232.716 235.952 232.773 235.918 232.822 235.875C232.871 235.831 232.911 235.778 232.94 235.719C232.969 235.66 232.986 235.596 232.99 235.53C232.994 235.464 232.985 235.398 232.963 235.336C232.942 235.274 232.908 235.217 232.865 235.168C232.821 235.118 232.768 235.078 232.709 235.049C232.65 235.021 232.585 235.004 232.52 235Z" fill="white"/>
<path d="M218.05 186.43C220.4 190.74 221.85 202.95 220.23 208.65C218.61 214.35 219.52 214.24 223.14 221.65C226.76 229.06 223.5 236.28 215.26 244.14C207.02 252 207.39 255.14 209.69 259.03C211.99 262.92 207.89 267.03 196.82 274.32C185.75 281.61 186.82 282.84 187.47 288.32C187.77 290.91 182.99 293.79 177.91 296.1L125.48 302.32L123.78 288.03C125.32 285.77 127.29 283.44 129.42 282.36C134.18 279.96 134.66 284.04 141.5 283.68C148.34 283.32 146.42 274.84 157.19 268.98C162.52 266.07 168.12 265.81 172.19 261.08C175.99 256.63 178.1 250.4 184.11 248.35C190.28 246.24 191.45 240.6 191.44 232.8C191.43 225 191.37 216.75 198.74 213.13C206.11 209.51 208.74 208.27 211.55 197.38C214.36 186.49 215.7 182.12 218.05 186.43Z" fill="#54B862"/>
<path opacity="0.5" d="M218.05 186.43C220.4 190.74 221.85 202.95 220.23 208.65C218.61 214.35 219.52 214.24 223.14 221.65C226.76 229.06 223.5 236.28 215.26 244.14C207.02 252 207.39 255.14 209.69 259.03C211.99 262.92 207.89 267.03 196.82 274.32C185.75 281.61 186.82 282.84 187.47 288.32C187.77 290.91 182.99 293.79 177.91 296.1L125.48 302.32L123.78 288.03C125.32 285.77 127.29 283.44 129.42 282.36C134.18 279.96 134.66 284.04 141.5 283.68C148.34 283.32 146.42 274.84 157.19 268.98C162.52 266.07 168.12 265.81 172.19 261.08C175.99 256.63 178.1 250.4 184.11 248.35C190.28 246.24 191.45 240.6 191.44 232.8C191.43 225 191.37 216.75 198.74 213.13C206.11 209.51 208.74 208.27 211.55 197.38C214.36 186.49 215.7 182.12 218.05 186.43Z" fill="white"/>
<path d="M214.39 233.62L205.57 236.19C211.235 224.536 215.341 212.186 217.78 199.46C217.793 199.396 217.793 199.329 217.781 199.265C217.768 199.2 217.743 199.139 217.707 199.084C217.671 199.029 217.624 198.982 217.57 198.945C217.515 198.909 217.454 198.883 217.39 198.87C217.259 198.849 217.125 198.879 217.015 198.953C216.906 199.027 216.829 199.141 216.8 199.27C214.328 212.187 210.119 224.711 204.29 236.5L202.38 224.05C202.369 223.985 202.345 223.922 202.31 223.866C202.275 223.811 202.229 223.762 202.175 223.724C202.121 223.686 202.06 223.659 201.996 223.644C201.931 223.63 201.865 223.628 201.8 223.64C201.735 223.65 201.673 223.672 201.617 223.706C201.561 223.74 201.513 223.785 201.474 223.838C201.436 223.891 201.409 223.952 201.395 224.016C201.38 224.079 201.378 224.145 201.39 224.21L203.39 237.27C203.4 237.34 203.425 237.408 203.463 237.468C203.501 237.528 203.551 237.58 203.61 237.62C203.643 237.624 203.677 237.624 203.71 237.62C198.779 247.361 192.811 256.541 185.91 265L182.46 253.4C182.441 253.334 182.41 253.273 182.368 253.219C182.326 253.166 182.274 253.121 182.214 253.087C182.155 253.054 182.089 253.033 182.022 253.024C181.954 253.016 181.885 253.021 181.82 253.04C181.754 253.058 181.693 253.089 181.639 253.132C181.585 253.174 181.541 253.226 181.507 253.285C181.474 253.345 181.452 253.41 181.444 253.478C181.436 253.546 181.441 253.614 181.46 253.68L185.14 266C177.659 275.015 169.231 283.198 160 290.41L160.68 274.52C160.682 274.454 160.672 274.389 160.649 274.327C160.627 274.265 160.592 274.209 160.548 274.16C160.503 274.112 160.449 274.073 160.39 274.046C160.33 274.018 160.265 274.002 160.2 274C160.068 273.999 159.942 274.049 159.845 274.138C159.749 274.227 159.69 274.349 159.68 274.48L158.96 291.21C153.935 295.152 148.598 298.677 143 301.75C142.882 301.81 142.793 301.914 142.752 302.039C142.71 302.165 142.72 302.302 142.78 302.42C142.823 302.501 142.888 302.57 142.967 302.617C143.047 302.665 143.137 302.69 143.23 302.69C143.309 302.693 143.388 302.675 143.46 302.64C149.114 299.533 154.508 295.974 159.59 292L175.23 289.23C175.295 289.219 175.358 289.195 175.415 289.159C175.471 289.124 175.52 289.078 175.558 289.023C175.597 288.969 175.624 288.908 175.639 288.843C175.654 288.778 175.656 288.711 175.645 288.645C175.634 288.579 175.61 288.516 175.574 288.46C175.539 288.404 175.493 288.355 175.438 288.316C175.384 288.278 175.322 288.25 175.258 288.235C175.193 288.221 175.125 288.219 175.06 288.23L161.29 290.67C166.234 286.791 170.949 282.627 175.41 278.2C178.71 274.91 182.22 271.13 185.76 266.85H185.85L199.85 265.18C199.915 265.172 199.979 265.151 200.037 265.119C200.094 265.086 200.145 265.043 200.186 264.991C200.227 264.939 200.257 264.879 200.275 264.816C200.292 264.752 200.298 264.686 200.29 264.62C200.282 264.554 200.261 264.491 200.229 264.433C200.196 264.375 200.153 264.325 200.101 264.284C200.049 264.243 199.989 264.213 199.926 264.195C199.862 264.177 199.795 264.172 199.73 264.18L186.62 265.73C193.769 256.991 199.933 247.49 205 237.4L214.7 234.58C214.811 234.535 214.902 234.452 214.958 234.346C215.013 234.239 215.028 234.116 215 234C214.987 233.934 214.961 233.871 214.922 233.815C214.884 233.76 214.835 233.712 214.778 233.677C214.72 233.641 214.656 233.618 214.59 233.608C214.523 233.598 214.455 233.602 214.39 233.62Z" fill="white"/>
<path d="M239.58 144C233.03 141.38 215.36 141.38 207.5 144.66C199.64 147.94 199.65 146.66 188.5 142.66C177.35 138.66 167.56 144.66 157.74 157.72C147.92 170.78 143.34 170.81 137.45 168.19C131.56 165.57 126.32 172.12 117.82 189.13C109.32 206.14 107.34 204.84 99.4898 204.84C95.7398 204.84 92.4398 212.15 90.0098 219.84V295.7H110.69C113.69 293.13 116.69 289.92 117.82 286.7C120.43 279.5 114.54 279.5 113.89 269.7C113.24 259.9 125.67 261.19 132.22 244.83C135.45 236.73 134.88 228.69 140.95 222.11C146.64 215.92 155.17 211.86 157.09 202.93C159.09 193.77 166.91 191.16 178.03 189.85C189.15 188.54 200.94 187.23 204.87 176.1C208.8 164.97 210.1 161.05 225.16 155.16C240.22 149.27 246.12 146.66 239.58 144Z" fill="#54B862"/>
<path d="M221.73 147.16C221.689 147.034 221.599 146.93 221.481 146.87C221.363 146.81 221.226 146.799 221.1 146.84C203.218 152.521 186.169 160.551 170.4 170.72L172.65 157.21C172.663 157.145 172.662 157.079 172.648 157.014C172.634 156.95 172.607 156.889 172.569 156.836C172.53 156.782 172.481 156.737 172.425 156.704C172.368 156.67 172.305 156.648 172.24 156.64C172.175 156.629 172.109 156.63 172.045 156.645C171.982 156.659 171.921 156.686 171.868 156.725C171.815 156.763 171.77 156.811 171.736 156.867C171.702 156.923 171.679 156.985 171.67 157.05L169.27 171.46C155.529 180.468 142.836 190.984 131.43 202.81V183.31C131.427 183.178 131.374 183.052 131.281 182.959C131.187 182.866 131.062 182.813 130.93 182.81C130.797 182.81 130.67 182.863 130.576 182.956C130.482 183.05 130.43 183.177 130.43 183.31V203.6C130.415 203.666 130.415 203.734 130.43 203.8C124.89 209.6 120.07 215.27 115.93 220.56C110.189 227.901 104.896 235.582 100.08 243.56L101.28 222.64C101.283 222.509 101.236 222.381 101.149 222.283C101.062 222.184 100.941 222.123 100.81 222.11C100.678 222.107 100.551 222.154 100.452 222.241C100.354 222.328 100.292 222.449 100.28 222.58L98.9998 245.39C94.2054 253.311 90.0554 261.604 86.5898 270.19C86.5448 270.315 86.5511 270.452 86.6073 270.572C86.6636 270.692 86.7652 270.785 86.8898 270.83H87.0598C87.1632 270.833 87.2649 270.803 87.3496 270.743C87.4343 270.684 87.4975 270.598 87.5298 270.5C90.9687 261.987 95.0852 253.764 99.8398 245.91L123.84 242.03C123.97 242.006 124.086 241.931 124.162 241.823C124.239 241.715 124.27 241.581 124.25 241.45C124.24 241.385 124.218 241.323 124.183 241.267C124.149 241.211 124.104 241.163 124.051 241.125C123.998 241.086 123.938 241.059 123.874 241.045C123.81 241.03 123.744 241.029 123.68 241.04L100.55 244.79C105.472 236.566 110.903 228.658 116.81 221.11C120.99 215.77 125.88 210.04 131.5 204.17L149.85 207.34H149.94C150.057 207.342 150.171 207.301 150.261 207.226C150.351 207.151 150.411 207.046 150.43 206.93C150.45 206.799 150.419 206.665 150.342 206.557C150.266 206.449 150.15 206.374 150.02 206.35L132.34 203.35C143.443 191.871 155.762 181.634 169.08 172.82C169.072 172.884 169.078 172.95 169.097 173.011C169.116 173.073 169.148 173.131 169.19 173.18C169.236 173.234 169.292 173.278 169.356 173.309C169.42 173.34 169.489 173.357 169.56 173.36L188.56 174.01C188.692 174.01 188.82 173.957 188.913 173.864C189.007 173.77 189.06 173.643 189.06 173.51C189.06 173.377 189.007 173.25 188.913 173.156C188.82 173.063 188.692 173.01 188.56 173.01L170.15 172.38L170.2 172.08C186.102 161.721 203.332 153.557 221.42 147.81C221.547 147.765 221.651 147.671 221.709 147.549C221.767 147.427 221.775 147.287 221.73 147.16Z" fill="white"/>
<path d="M363.68 194.19C362.75 200.14 361.06 210.19 359.16 218.45C356.28 230.95 354.84 260.75 354.84 260.75C354.84 260.75 349.07 229.5 335.61 203.06C322.15 176.62 274.08 148.26 274.08 148.26C274.08 148.26 288.98 161.72 306.76 186.26C324.54 210.8 332.24 264.62 332.24 264.62C332.24 264.62 322.15 244.41 303.4 229C284.65 213.59 231.29 198.24 231.29 198.24C231.29 198.24 269.29 225.16 286.57 244.39C296.335 255.429 303.479 268.532 307.47 282.72H363.68V194.19Z" fill="#54B862"/>
</g>
<path opacity="0.46" d="M349.08 224.15H290.32V258.77H349.08V224.15Z" fill="white"/>
<path d="M296 254.25C297.657 254.25 299 252.907 299 251.25C299 249.593 297.657 248.25 296 248.25C294.343 248.25 293 249.593 293 251.25C293 252.907 294.343 254.25 296 254.25Z" fill="white"/>
<path d="M262.84 137.26H352.43C353.801 137.26 355.116 137.805 356.086 138.774C357.055 139.744 357.6 141.059 357.6 142.43V263.84H257.67V142.43C257.67 141.059 258.215 139.744 259.184 138.774C260.154 137.805 261.469 137.26 262.84 137.26Z" fill="white" stroke="#263238" stroke-linecap="round" stroke-linejoin="round"/>
<path d="M309.5 163H330" stroke="#CCCCCC" stroke-miterlimit="10"/>
<path d="M309.5 167.5H341" stroke="#CCCCCC" stroke-miterlimit="10"/>
<path opacity="0.11" d="M282.67 185.67H263.5V259.89H282.67V185.67Z" fill="black"/>
<path opacity="0.18" d="M282.67 185.67H275.67V259.89H282.67V185.67Z" fill="black"/>
<path d="M282.67 194.51H275.67V245.72H282.67V194.51Z" fill="#263238"/>
<path d="M352.43 137.26H262.84C262.161 137.259 261.488 137.392 260.86 137.651C260.232 137.91 259.662 138.291 259.181 138.771C258.701 139.252 258.32 139.822 258.061 140.45C257.801 141.078 257.669 141.751 257.67 142.43V153H357.6V142.43C357.601 141.751 357.468 141.078 357.209 140.45C356.95 139.822 356.569 139.252 356.089 138.771C355.608 138.291 355.038 137.91 354.41 137.651C353.782 137.392 353.109 137.259 352.43 137.26Z" fill="#263238" stroke="#263238" stroke-linecap="round" stroke-linejoin="round"/>
<path d="M265.67 147C267.327 147 268.67 145.657 268.67 144C268.67 142.343 267.327 141 265.67 141C264.013 141 262.67 142.343 262.67 144C262.67 145.657 264.013 147 265.67 147Z" fill="#54B862" stroke="#263238" stroke-linecap="round" stroke-linejoin="round"/>
<path d="M274.33 147C275.987 147 277.33 145.657 277.33 144C277.33 142.343 275.987 141 274.33 141C272.673 141 271.33 142.343 271.33 144C271.33 145.657 272.673 147 274.33 147Z" fill="white" stroke="#263238" stroke-linecap="round" stroke-linejoin="round"/>
<path d="M283 147C284.657 147 286 145.657 286 144C286 142.343 284.657 141 283 141C281.343 141 280 142.343 280 144C280 145.657 281.343 147 283 147Z" fill="white" stroke="#263238" stroke-linecap="round" stroke-linejoin="round"/>
<path d="M349.46 146.79H329C328.35 146.79 327.727 146.532 327.268 146.072C326.808 145.613 326.55 144.99 326.55 144.34C326.55 143.69 326.808 143.067 327.268 142.608C327.727 142.148 328.35 141.89 329 141.89H349.48C350.13 141.89 350.753 142.148 351.212 142.608C351.672 143.067 351.93 143.69 351.93 144.34C351.93 144.663 351.866 144.984 351.742 145.282C351.617 145.581 351.435 145.852 351.205 146.08C350.976 146.307 350.703 146.487 350.404 146.609C350.104 146.731 349.783 146.793 349.46 146.79Z" fill="white" stroke="#263238" stroke-linecap="round" stroke-linejoin="round"/>
<path d="M349.08 185.48H290.32V220.1H349.08V185.48Z" fill="#263238"/>
<path opacity="0.46" d="M349.08 185.48H290.32V220.1H349.08V185.48Z" fill="white"/>
<mask id="mask1_230_1664" style="mask-type:luminance" maskUnits="userSpaceOnUse" x="290" y="185" width="60" height="36">
<path d="M349.08 185.48H290.32V220.1H349.08V185.48Z" fill="white"/>
</mask>
<g mask="url(#mask1_230_1664)">
<path d="M321.49 209.68C320.056 208.651 318.369 208.033 316.61 207.89C315.23 207.89 315.3 207.72 313.86 206.47C312.42 205.22 310.58 205.53 308.32 206.93C306.06 208.33 305.38 208.06 304.64 207.32C303.9 206.58 302.73 207.25 300.44 209.32C298.15 211.39 297.94 211.07 296.75 210.61C296.19 210.39 295.26 211.3 294.44 212.31L290 223.76L293.13 224.98C293.73 224.796 294.278 224.474 294.73 224.04C295.55 223.11 294.66 222.76 295.14 221.24C295.62 219.72 297.42 220.65 299.38 218.57C300.38 217.57 300.73 216.29 302.03 215.65C303.33 215.01 304.79 214.94 305.6 213.71C306.41 212.48 307.78 212.51 309.54 212.97C311.3 213.43 313.15 213.97 314.4 212.48C315.65 210.99 316.08 210.48 318.7 210.48C321.32 210.48 322.32 210.46 321.49 209.68Z" fill="#54B862"/>
<path opacity="0.5" d="M321.49 209.68C320.056 208.651 318.369 208.033 316.61 207.89C315.23 207.89 315.3 207.72 313.86 206.47C312.42 205.22 310.58 205.53 308.32 206.93C306.06 208.33 305.38 208.06 304.64 207.32C303.9 206.58 302.73 207.25 300.44 209.32C298.15 211.39 297.94 211.07 296.75 210.61C296.19 210.39 295.26 211.3 294.44 212.31L290 223.76L293.13 224.98C293.73 224.796 294.278 224.474 294.73 224.04C295.55 223.11 294.66 222.76 295.14 221.24C295.62 219.72 297.42 220.65 299.38 218.57C300.38 217.57 300.73 216.29 302.03 215.65C303.33 215.01 304.79 214.94 305.6 213.71C306.41 212.48 307.78 212.51 309.54 212.97C311.3 213.43 313.15 213.97 314.4 212.48C315.65 210.99 316.08 210.48 318.7 210.48C321.32 210.48 322.32 210.46 321.49 209.68Z" fill="black"/>
<path d="M318.53 209C315.517 208.801 312.49 209.003 309.53 209.6L310.63 207.76C310.648 207.737 310.658 207.709 310.658 207.68C310.658 207.651 310.648 207.623 310.63 207.6C310.608 207.58 310.58 207.569 310.55 207.569C310.521 207.569 310.492 207.58 310.47 207.6L309.26 209.6C306.687 210.146 304.182 210.974 301.79 212.07L302.91 209.2C302.92 209.171 302.918 209.139 302.905 209.111C302.892 209.083 302.869 209.061 302.84 209.05C302.811 209.04 302.779 209.042 302.751 209.055C302.723 209.068 302.701 209.091 302.69 209.12L301.49 212.18C300.32 212.73 299.26 213.3 298.33 213.85C297.069 214.593 295.853 215.411 294.69 216.3L296.04 213.3C296.047 213.287 296.051 213.273 296.052 213.258C296.053 213.243 296.052 213.228 296.047 213.214C296.042 213.2 296.035 213.188 296.025 213.176C296.015 213.165 296.003 213.156 295.99 213.15C295.976 213.143 295.96 213.14 295.944 213.139C295.928 213.138 295.912 213.141 295.898 213.147C295.883 213.152 295.869 213.161 295.858 213.172C295.846 213.182 295.837 213.196 295.83 213.21L294.29 216.57C293.097 217.474 291.983 218.477 290.96 219.57C290.948 219.579 290.938 219.591 290.931 219.605C290.924 219.619 290.92 219.634 290.92 219.65C290.92 219.666 290.924 219.681 290.931 219.695C290.938 219.709 290.948 219.721 290.96 219.73C290.983 219.738 291.007 219.738 291.03 219.73C291.044 219.737 291.06 219.741 291.075 219.741C291.091 219.741 291.106 219.737 291.12 219.73C292.138 218.64 293.246 217.637 294.43 216.73L298.24 217.55C298.265 217.543 298.287 217.527 298.302 217.507C298.318 217.486 298.326 217.461 298.326 217.435C298.326 217.409 298.318 217.384 298.302 217.363C298.287 217.343 298.265 217.327 298.24 217.32L294.62 216.54C296.791 214.875 299.139 213.453 301.62 212.3L304.16 213.84H304.22C304.24 213.84 304.259 213.836 304.276 213.827C304.294 213.819 304.309 213.806 304.32 213.79C304.331 213.78 304.34 213.767 304.346 213.754C304.352 213.74 304.355 213.725 304.355 213.71C304.355 213.695 304.352 213.68 304.346 213.666C304.34 213.653 304.331 213.64 304.32 213.63L301.91 212.17C304.221 211.112 306.638 210.304 309.12 209.76C309.132 209.795 309.157 209.824 309.19 209.84L312.02 211.05C312.044 211.052 312.067 211.046 312.087 211.033C312.106 211.02 312.122 211.002 312.13 210.98C312.141 210.952 312.14 210.921 312.129 210.893C312.118 210.866 312.097 210.843 312.07 210.83L309.37 209.67C312.371 209.046 315.442 208.831 318.5 209.03C318.525 209.023 318.547 209.007 318.562 208.987C318.578 208.966 318.586 208.941 318.586 208.915C318.586 208.889 318.578 208.864 318.562 208.843C318.547 208.823 318.525 208.807 318.5 208.8L318.53 209Z" fill="white"/>
<path d="M315.16 197.67C315.804 199.313 315.98 201.103 315.67 202.84C315.3 204.17 315.51 204.14 316.35 205.84C317.19 207.54 316.43 209.25 314.51 211.08C312.59 212.91 312.68 213.65 313.22 214.54C313.76 215.43 312.8 216.41 310.22 218.1C307.64 219.79 307.89 220.1 308.04 221.35C308.11 221.96 307.04 222.63 305.82 223.16L293.61 224.61L293.21 221.28C293.541 220.746 293.993 220.297 294.53 219.97C295.63 219.41 295.75 220.36 297.34 220.27C298.93 220.18 298.48 218.21 300.99 216.85C302.23 216.17 303.54 216.11 304.48 215.01C305.42 213.91 305.86 212.52 307.26 212.01C308.66 211.5 308.97 210.2 308.97 208.39C308.97 206.58 308.97 204.65 310.67 203.8C312.37 202.95 312.99 202.67 313.67 200.14C314.35 197.61 314.62 196.66 315.16 197.67Z" fill="#54B862"/>
<path opacity="0.5" d="M315.16 197.67C315.804 199.313 315.98 201.103 315.67 202.84C315.3 204.17 315.51 204.14 316.35 205.84C317.19 207.54 316.43 209.25 314.51 211.08C312.59 212.91 312.68 213.65 313.22 214.54C313.76 215.43 312.8 216.41 310.22 218.1C307.64 219.79 307.89 220.1 308.04 221.35C308.11 221.96 307.04 222.63 305.82 223.16L293.61 224.61L293.21 221.28C293.541 220.746 293.993 220.297 294.53 219.97C295.63 219.41 295.75 220.36 297.34 220.27C298.93 220.18 298.48 218.21 300.99 216.85C302.23 216.17 303.54 216.11 304.48 215.01C305.42 213.91 305.86 212.52 307.26 212.01C308.66 211.5 308.97 210.2 308.97 208.39C308.97 206.58 308.97 204.65 310.67 203.8C312.37 202.95 312.99 202.67 313.67 200.14C314.35 197.61 314.62 196.66 315.16 197.67Z" fill="white"/>
<path d="M314.31 208.66L312.26 209.25C313.581 206.538 314.536 203.663 315.1 200.7C315.103 200.685 315.103 200.671 315.1 200.656C315.097 200.642 315.091 200.628 315.083 200.616C315.074 200.604 315.064 200.593 315.051 200.586C315.039 200.578 315.025 200.572 315.01 200.57C314.98 200.566 314.95 200.573 314.924 200.59C314.898 200.606 314.879 200.631 314.87 200.66C314.297 203.668 313.318 206.585 311.96 209.33L311.51 206.43C311.509 206.415 311.505 206.399 311.497 206.386C311.49 206.372 311.48 206.36 311.468 206.351C311.455 206.341 311.441 206.335 311.426 206.331C311.411 206.327 311.395 206.327 311.38 206.33C311.364 206.332 311.349 206.338 311.336 206.346C311.322 206.355 311.31 206.366 311.301 206.379C311.291 206.392 311.285 206.407 311.281 206.422C311.278 206.438 311.277 206.454 311.28 206.47L311.75 209.47C311.761 209.5 311.778 209.527 311.8 209.55C310.651 211.82 309.259 213.959 307.65 215.93L306.85 213.23C306.846 213.215 306.838 213.201 306.828 213.189C306.818 213.176 306.806 213.166 306.792 213.159C306.778 213.151 306.763 213.147 306.747 213.145C306.731 213.144 306.715 213.145 306.7 213.15C306.686 213.153 306.672 213.16 306.659 213.169C306.647 213.178 306.637 213.189 306.63 213.202C306.622 213.216 306.617 213.23 306.616 213.245C306.614 213.26 306.616 213.276 306.62 213.29L307.47 216.15C305.726 218.251 303.762 220.159 301.61 221.84L301.77 218.14C301.77 218.11 301.759 218.081 301.739 218.058C301.718 218.036 301.69 218.022 301.66 218.02C301.645 218.019 301.63 218.02 301.615 218.025C301.601 218.03 301.587 218.038 301.576 218.048C301.565 218.059 301.556 218.071 301.549 218.085C301.543 218.099 301.54 218.115 301.54 218.13L301.37 222.03C300.204 222.949 298.963 223.769 297.66 224.48C297.634 224.496 297.615 224.522 297.606 224.551C297.597 224.58 297.598 224.612 297.61 224.64C297.62 224.66 297.636 224.676 297.656 224.687C297.676 224.698 297.698 224.702 297.72 224.7H297.77C299.086 223.98 300.34 223.154 301.52 222.23L305.16 221.58C305.176 221.579 305.191 221.574 305.204 221.567C305.218 221.56 305.23 221.55 305.239 221.537C305.249 221.525 305.255 221.511 305.259 221.496C305.263 221.481 305.263 221.465 305.26 221.45C305.258 221.434 305.252 221.419 305.244 221.406C305.235 221.393 305.224 221.381 305.211 221.373C305.198 221.364 305.183 221.359 305.167 221.357C305.151 221.354 305.135 221.355 305.12 221.36L302 222C303.153 221.098 304.251 220.13 305.29 219.1C306.05 218.33 306.87 217.45 307.7 216.46L310.96 216.07C310.976 216.069 310.991 216.064 311.004 216.057C311.018 216.05 311.03 216.04 311.039 216.027C311.049 216.015 311.056 216.001 311.059 215.986C311.063 215.971 311.063 215.955 311.06 215.94C311.059 215.925 311.055 215.911 311.048 215.899C311.041 215.886 311.032 215.874 311.021 215.865C311.01 215.856 310.997 215.849 310.983 215.844C310.969 215.84 310.955 215.839 310.94 215.84L307.88 216.2C309.542 214.16 310.974 211.944 312.15 209.59L314.41 208.93C314.439 208.921 314.462 208.901 314.477 208.875C314.492 208.85 314.497 208.819 314.49 208.79C314.496 208.767 314.494 208.743 314.486 208.72C314.478 208.698 314.463 208.679 314.444 208.665C314.425 208.651 314.402 208.643 314.378 208.642C314.354 208.641 314.33 208.647 314.31 208.66Z" fill="white"/>
<path d="M320.18 187.8C317.723 187.167 315.14 187.219 312.71 187.95C310.88 188.71 310.88 188.41 308.29 187.49C305.7 186.57 303.41 187.95 301.13 191C298.85 194.05 297.77 194.05 296.4 193.44C295.03 192.83 293.81 194.35 291.83 198.31C289.85 202.27 289.39 201.97 287.56 201.97C286.69 201.97 285.92 203.67 285.35 205.45V223.12H290.17C290.882 222.561 291.451 221.841 291.83 221.02C292.44 219.35 291.07 219.35 290.91 217.02C290.75 214.69 293.66 215.02 295.18 211.23C295.94 209.34 295.8 207.47 297.18 205.94C298.56 204.41 300.5 203.55 300.94 201.47C301.38 199.39 303.23 198.73 305.82 198.47C308.41 198.21 311.15 197.86 312.07 195.27C312.99 192.68 313.29 191.76 316.79 190.39C320.29 189.02 321.7 188.41 320.18 187.8Z" fill="#54B862"/>
<path d="M316 188.52C315.989 188.491 315.967 188.468 315.939 188.455C315.911 188.442 315.879 188.44 315.85 188.45C311.686 189.767 307.717 191.637 304.05 194.01L304.57 190.86C304.573 190.846 304.573 190.831 304.57 190.816C304.567 190.802 304.561 190.788 304.553 190.776C304.544 190.764 304.534 190.753 304.521 190.746C304.509 190.738 304.495 190.732 304.48 190.73C304.464 190.727 304.448 190.727 304.433 190.731C304.417 190.734 304.402 190.741 304.389 190.75C304.376 190.76 304.365 190.772 304.357 190.785C304.348 190.799 304.343 190.814 304.34 190.83L303.78 194.18C300.583 196.281 297.629 198.729 294.97 201.48V196.94C294.97 196.911 294.959 196.883 294.938 196.862C294.917 196.842 294.889 196.83 294.86 196.83C294.845 196.829 294.829 196.83 294.815 196.835C294.8 196.84 294.787 196.848 294.776 196.858C294.764 196.869 294.755 196.881 294.749 196.895C294.743 196.909 294.74 196.925 294.74 196.94V201.67C293.45 203.02 292.33 204.34 291.36 205.57C290.033 207.306 288.811 209.119 287.7 211L287.98 206.12C287.982 206.105 287.98 206.089 287.975 206.075C287.97 206.06 287.962 206.047 287.952 206.036C287.941 206.024 287.929 206.015 287.915 206.009C287.901 206.003 287.885 206 287.87 206C287.84 206 287.811 206.011 287.789 206.032C287.766 206.052 287.753 206.08 287.75 206.11L287.45 211.43C286.332 213.272 285.365 215.201 284.56 217.2C284.554 217.214 284.551 217.23 284.551 217.246C284.551 217.261 284.554 217.277 284.561 217.291C284.568 217.305 284.577 217.318 284.589 217.328C284.601 217.338 284.615 217.346 284.63 217.35C284.653 217.349 284.675 217.34 284.693 217.326C284.711 217.312 284.724 217.292 284.73 217.27C285.538 215.292 286.497 213.38 287.6 211.55L293.18 210.64C293.21 210.635 293.237 210.619 293.256 210.595C293.274 210.571 293.283 210.54 293.28 210.51C293.278 210.494 293.272 210.479 293.264 210.465C293.255 210.452 293.244 210.44 293.231 210.43C293.218 210.421 293.203 210.414 293.188 210.411C293.172 210.407 293.156 210.407 293.14 210.41L287.76 211.29C288.906 209.374 290.168 207.531 291.54 205.77C292.54 204.53 293.65 203.19 294.96 201.83L299.24 202.56C299.267 202.558 299.293 202.547 299.312 202.529C299.332 202.511 299.346 202.487 299.35 202.46C299.354 202.43 299.347 202.399 299.33 202.374C299.314 202.348 299.289 202.329 299.26 202.32L295.14 201.61C297.724 198.94 300.591 196.56 303.69 194.51C303.683 194.536 303.683 194.564 303.69 194.59C303.716 194.599 303.744 194.599 303.77 194.59L308.19 194.74C308.22 194.738 308.248 194.726 308.269 194.706C308.291 194.686 308.306 194.659 308.31 194.63C308.31 194.598 308.297 194.568 308.275 194.545C308.252 194.523 308.222 194.51 308.19 194.51L303.91 194.36V194.29C307.612 191.88 311.621 189.979 315.83 188.64C315.849 188.653 315.871 188.661 315.894 188.661C315.917 188.661 315.939 188.654 315.958 188.641C315.977 188.627 315.991 188.609 315.998 188.587C316.006 188.565 316.007 188.542 316 188.52Z" fill="white"/>
<path d="M349.08 199.48C348.86 200.86 348.47 203.21 348.02 205.12C347.492 208.381 347.158 211.67 347.02 214.97C346.089 210.325 344.584 205.814 342.54 201.54C339.4 195.39 328.21 188.78 328.21 188.78C331.021 191.479 333.569 194.439 335.82 197.62C339.96 203.33 341.76 215.87 341.76 215.87C340.055 212.716 337.776 209.907 335.04 207.59C330.67 204 318.25 200.42 318.25 200.42C318.25 200.42 327.09 206.69 331.12 211.17C333.399 213.741 335.068 216.793 336 220.1H349.09L349.08 199.48Z" fill="#54B862"/>
</g>
<path d="M298.93 158.33H261.99V180.09H298.93V158.33Z" fill="#263238"/>
<path opacity="0.46" d="M298.93 158.33H261.99V180.09H298.93V158.33Z" fill="white"/>
<mask id="mask2_230_1664" style="mask-type:luminance" maskUnits="userSpaceOnUse" x="261" y="158" width="38" height="23">
<path d="M298.93 158.33H261.99V180.09H298.93V158.33Z" fill="white"/>
</mask>
<g mask="url(#mask2_230_1664)">
<path d="M281.58 173.55C280.68 172.899 279.618 172.508 278.51 172.42C277.65 172.42 277.69 172.32 276.78 171.53C275.87 170.74 274.72 170.94 273.31 171.82C271.9 172.7 271.45 172.53 270.99 172.06C270.53 171.59 269.79 172.06 268.35 173.32C266.91 174.58 266.78 174.42 266.03 174.13C265.67 173.99 265.09 174.56 264.58 175.2L261.76 182.4L263.76 183.17C264.133 183.05 264.474 182.848 264.76 182.58C265.27 181.99 264.71 181.77 265.01 180.82C265.31 179.87 266.45 180.44 267.68 179.13C268.28 178.49 268.53 177.7 269.35 177.3C270.17 176.9 271.08 176.86 271.59 176.08C272.1 175.3 272.96 175.33 274.06 175.62C275.16 175.91 276.33 176.22 277.12 175.31C277.397 174.859 277.801 174.5 278.282 174.28C278.762 174.059 279.298 173.986 279.82 174.07C281.45 174.07 282.1 174 281.58 173.55Z" fill="#54B862"/>
<path opacity="0.5" d="M281.58 173.55C280.68 172.899 279.618 172.508 278.51 172.42C277.65 172.42 277.69 172.32 276.78 171.53C275.87 170.74 274.72 170.94 273.31 171.82C271.9 172.7 271.45 172.53 270.99 172.06C270.53 171.59 269.79 172.06 268.35 173.32C266.91 174.58 266.78 174.42 266.03 174.13C265.67 173.99 265.09 174.56 264.58 175.2L261.76 182.4L263.76 183.17C264.133 183.05 264.474 182.848 264.76 182.58C265.27 181.99 264.71 181.77 265.01 180.82C265.31 179.87 266.45 180.44 267.68 179.13C268.28 178.49 268.53 177.7 269.35 177.3C270.17 176.9 271.08 176.86 271.59 176.08C272.1 175.3 272.96 175.33 274.06 175.62C275.16 175.91 276.33 176.22 277.12 175.31C277.397 174.859 277.801 174.5 278.282 174.28C278.762 174.059 279.298 173.986 279.82 174.07C281.45 174.07 282.1 174 281.58 173.55Z" fill="black"/>
<path d="M279.73 173.11C277.835 172.982 275.932 173.107 274.07 173.48L274.76 172.33C274.767 172.323 274.772 172.316 274.775 172.307C274.779 172.298 274.781 172.289 274.781 172.28C274.781 172.271 274.779 172.261 274.775 172.253C274.772 172.244 274.767 172.236 274.76 172.23C274.746 172.219 274.728 172.212 274.71 172.212C274.692 172.212 274.674 172.219 274.66 172.23L273.91 173.5C272.292 173.845 270.716 174.365 269.21 175.05L269.91 173.25C269.916 173.244 269.921 173.237 269.925 173.23C269.928 173.222 269.93 173.213 269.93 173.205C269.93 173.196 269.928 173.188 269.925 173.18C269.921 173.173 269.916 173.166 269.91 173.16C269.903 173.153 269.896 173.148 269.887 173.144C269.878 173.141 269.869 173.139 269.86 173.139C269.851 173.139 269.841 173.141 269.833 173.144C269.824 173.148 269.816 173.153 269.81 173.16L269.06 175.09C268.375 175.404 267.708 175.755 267.06 176.14C266.268 176.61 265.504 177.124 264.77 177.68L265.63 175.82C265.641 175.806 265.647 175.788 265.647 175.77C265.647 175.752 265.641 175.734 265.63 175.72C265.623 175.713 265.616 175.708 265.607 175.704C265.598 175.701 265.589 175.699 265.58 175.699C265.571 175.699 265.561 175.701 265.553 175.704C265.544 175.708 265.536 175.713 265.53 175.72L264.53 177.83C263.784 178.403 263.085 179.035 262.44 179.72C262.426 179.735 262.418 179.754 262.418 179.775C262.418 179.795 262.426 179.815 262.44 179.83H262.49H262.55C263.193 179.153 263.889 178.528 264.63 177.96L267.02 178.48C267.037 178.48 267.053 178.474 267.066 178.463C267.079 178.452 267.087 178.437 267.09 178.42C267.09 178.42 267.09 178.35 267.03 178.34L264.76 177.85C266.122 176.803 267.594 175.908 269.15 175.18L270.75 176.18C270.759 176.186 270.769 176.19 270.78 176.19C270.791 176.19 270.801 176.186 270.81 176.18C270.821 176.166 270.827 176.148 270.827 176.13C270.827 176.112 270.821 176.094 270.81 176.08L269.29 175.17C270.746 174.505 272.267 173.996 273.83 173.65L275.6 174.42C275.611 174.426 275.623 174.429 275.635 174.429C275.647 174.429 275.659 174.426 275.67 174.42C275.677 174.413 275.682 174.406 275.685 174.397C275.689 174.388 275.691 174.379 275.691 174.37C275.691 174.361 275.689 174.351 275.685 174.343C275.682 174.334 275.677 174.326 275.67 174.32L273.98 173.59C275.867 173.202 277.797 173.067 279.72 173.19C279.72 173.19 279.79 173.19 279.79 173.12C279.782 173.113 279.772 173.109 279.761 173.107C279.751 173.105 279.74 173.106 279.73 173.11Z" fill="white"/>
<path d="M277.61 166C278.008 167.035 278.118 168.158 277.93 169.25C277.69 170.08 277.82 170.07 278.35 171.15C278.88 172.23 278.35 173.29 277.2 174.44C276.05 175.59 276.05 176.05 276.38 176.62C276.71 177.19 276.12 177.79 274.5 178.86C272.88 179.93 273.03 180.1 273.13 180.86C273.13 181.24 272.47 181.66 271.73 182L264.05 182.91L263.81 180.82C264.011 180.48 264.293 180.195 264.63 179.99C265.33 179.64 265.4 180.23 266.4 180.18C267.4 180.13 267.12 178.89 268.7 178.03C269.48 177.6 270.3 177.56 270.89 176.87C271.48 176.18 271.76 175.31 272.64 175.01C273.52 174.71 273.71 173.87 273.71 172.73C273.71 171.59 273.71 170.38 274.78 169.85C275.284 169.694 275.731 169.393 276.064 168.983C276.396 168.574 276.6 168.075 276.65 167.55C277.07 166 277.26 165.36 277.61 166Z" fill="#54B862"/>
<path opacity="0.5" d="M277.61 166C278.008 167.035 278.118 168.158 277.93 169.25C277.69 170.08 277.82 170.07 278.35 171.15C278.88 172.23 278.35 173.29 277.2 174.44C276.05 175.59 276.05 176.05 276.38 176.62C276.71 177.19 276.12 177.79 274.5 178.86C272.88 179.93 273.03 180.1 273.13 180.86C273.13 181.24 272.47 181.66 271.73 182L264.05 182.91L263.81 180.82C264.011 180.48 264.293 180.195 264.63 179.99C265.33 179.64 265.4 180.23 266.4 180.18C267.4 180.13 267.12 178.89 268.7 178.03C269.48 177.6 270.3 177.56 270.89 176.87C271.48 176.18 271.76 175.31 272.64 175.01C273.52 174.71 273.71 173.87 273.71 172.73C273.71 171.59 273.71 170.38 274.78 169.85C275.284 169.694 275.731 169.393 276.064 168.983C276.396 168.574 276.6 168.075 276.65 167.55C277.07 166 277.26 165.36 277.61 166Z" fill="white"/>
<path d="M277.07 172.9L275.78 173.28C276.608 171.572 277.21 169.764 277.57 167.9C277.57 167.9 277.57 167.83 277.51 167.82C277.49 167.817 277.47 167.821 277.453 167.832C277.436 167.844 277.425 167.86 277.42 167.88C277.058 169.771 276.442 171.604 275.59 173.33L275.31 171.5C275.31 171.5 275.31 171.44 275.23 171.44C275.21 171.445 275.193 171.457 275.182 171.473C275.171 171.49 275.167 171.51 275.17 171.53L275.46 173.44C275.455 173.456 275.455 173.474 275.46 173.49C274.736 174.913 273.861 176.254 272.85 177.49L272.35 175.79C272.341 175.772 272.327 175.757 272.309 175.748C272.29 175.738 272.27 175.736 272.25 175.74C272.25 175.74 272.19 175.8 272.25 175.83L272.78 177.63C271.681 178.951 270.444 180.151 269.09 181.21L269.19 178.88C269.19 178.861 269.182 178.844 269.169 178.83C269.156 178.817 269.138 178.81 269.12 178.81C269.101 178.81 269.083 178.817 269.07 178.83C269.057 178.844 269.05 178.861 269.05 178.88L268.94 181.32C268.207 181.9 267.428 182.418 266.61 182.87C266.598 182.884 266.592 182.902 266.592 182.92C266.592 182.938 266.598 182.956 266.61 182.97C266.621 182.975 266.633 182.978 266.645 182.978C266.657 182.978 266.669 182.975 266.68 182.97C267.505 182.514 268.294 181.996 269.04 181.42L271.33 181.01C271.347 181.005 271.363 180.995 271.374 180.98C271.385 180.966 271.39 180.948 271.39 180.93C271.385 180.91 271.373 180.894 271.357 180.882C271.34 180.871 271.32 180.867 271.3 180.87L269.3 181.22C270.023 180.656 270.711 180.048 271.36 179.4C271.85 178.92 272.36 178.4 272.88 177.74L274.94 177.49C274.94 177.49 275 177.49 275 177.41C275 177.4 274.999 177.39 274.994 177.381C274.99 177.372 274.984 177.364 274.976 177.358C274.968 177.353 274.959 177.349 274.949 177.347C274.939 177.346 274.929 177.347 274.92 177.35L273 177.58C274.043 176.295 274.941 174.9 275.68 173.42L277.1 173C277.109 173 277.118 172.998 277.127 172.995C277.135 172.991 277.143 172.986 277.149 172.979C277.156 172.973 277.161 172.965 277.165 172.957C277.168 172.948 277.17 172.939 277.17 172.93C277.17 172.921 277.168 172.912 277.165 172.903C277.161 172.895 277.156 172.887 277.149 172.88C277.143 172.874 277.135 172.869 277.127 172.865C277.118 172.862 277.109 172.86 277.1 172.86L277.07 172.9Z" fill="white"/>
<path d="M280.76 159.79C279.214 159.394 277.588 159.429 276.06 159.89C274.91 160.36 274.91 160.17 273.28 159.6C271.65 159.03 270.22 159.89 268.78 161.8C267.34 163.71 266.67 163.72 265.78 163.34C264.89 162.96 264.15 163.91 262.91 166.4C261.67 168.89 261.37 168.7 260.22 168.7C259.67 168.7 259.22 169.77 258.83 170.89V182H261.83C262.277 181.647 262.636 181.195 262.88 180.68C263.26 179.62 262.4 179.62 262.3 178.19C262.2 176.76 264.03 176.94 264.98 174.55C265.46 173.36 265.37 172.18 266.26 171.22C267.15 170.26 268.34 169.72 268.62 168.41C268.9 167.1 270.06 166.69 271.69 166.5C273.32 166.31 275.04 166.11 275.62 164.5C276.2 162.89 276.39 162.29 278.62 161.43C280.85 160.57 281.72 160.17 280.76 159.79Z" fill="#54B862"/>
<path d="M278.14 160.25C278.138 160.241 278.133 160.232 278.128 160.224C278.122 160.216 278.114 160.21 278.106 160.205C278.097 160.201 278.088 160.198 278.078 160.197C278.069 160.196 278.059 160.197 278.05 160.2C275.432 161.032 272.937 162.209 270.63 163.7L270.96 161.7C270.963 161.68 270.959 161.66 270.947 161.643C270.936 161.627 270.919 161.615 270.9 161.61C270.9 161.61 270.82 161.61 270.82 161.67L270.46 163.78C268.45 165.101 266.592 166.641 264.92 168.37V165.52C264.92 165.511 264.918 165.502 264.915 165.493C264.911 165.485 264.906 165.477 264.899 165.47C264.893 165.464 264.885 165.459 264.877 165.455C264.868 165.452 264.859 165.45 264.85 165.45C264.841 165.45 264.832 165.452 264.823 165.455C264.815 165.459 264.807 165.464 264.8 165.47C264.794 165.477 264.789 165.485 264.785 165.493C264.782 165.502 264.78 165.511 264.78 165.52V168.52C263.96 169.37 263.26 170.2 262.65 170.97C261.811 172.046 261.036 173.172 260.33 174.34L260.51 171.27C260.51 171.251 260.503 171.234 260.489 171.22C260.476 171.207 260.459 171.2 260.44 171.2C260.431 171.197 260.421 171.196 260.411 171.197C260.401 171.199 260.392 171.203 260.384 171.208C260.376 171.214 260.37 171.222 260.365 171.231C260.361 171.24 260.359 171.25 260.36 171.26L260.17 174.61C259.466 175.768 258.857 176.982 258.35 178.24C258.347 178.249 258.346 178.259 258.347 178.268C258.348 178.278 258.351 178.287 258.355 178.296C258.36 178.304 258.366 178.312 258.374 178.318C258.382 178.323 258.391 178.328 258.4 178.33C258.415 178.329 258.43 178.324 258.442 178.315C258.455 178.306 258.464 178.294 258.47 178.28C258.976 177.035 259.578 175.832 260.27 174.68L263.78 174.11C263.78 174.11 263.85 174.11 263.84 174.03C263.838 174.011 263.828 173.993 263.813 173.98C263.799 173.967 263.78 173.96 263.76 173.96L260.37 174.51C261.09 173.308 261.885 172.152 262.75 171.05C263.36 170.27 264.08 169.43 264.9 168.57L267.59 169.03C267.59 169.03 267.66 169.03 267.66 168.97C267.663 168.961 267.664 168.951 267.663 168.941C267.661 168.931 267.657 168.922 267.651 168.914C267.645 168.906 267.638 168.9 267.629 168.895C267.62 168.891 267.61 168.889 267.6 168.89L265.01 168.44C266.639 166.763 268.443 165.264 270.39 163.97C270.385 163.986 270.385 164.004 270.39 164.02C270.398 164.024 270.406 164.027 270.415 164.027C270.424 164.027 270.432 164.024 270.44 164.02L273.22 164.12C273.24 164.118 273.26 164.109 273.274 164.094C273.289 164.08 273.298 164.06 273.3 164.04C273.3 164.021 273.293 164.004 273.279 163.99C273.266 163.977 273.249 163.97 273.23 163.97L270.53 163.88V163.83C272.858 162.312 275.381 161.118 278.03 160.28C278.037 160.29 278.047 160.299 278.059 160.303C278.071 160.307 278.084 160.308 278.096 160.305C278.108 160.301 278.119 160.294 278.127 160.285C278.135 160.275 278.139 160.263 278.14 160.25Z" fill="white"/>
<path d="M298.93 167.13C298.79 168 298.54 169.48 298.26 170.68C297.928 172.732 297.718 174.803 297.63 176.88C297.051 173.957 296.107 171.118 294.82 168.43C292.82 164.56 285.82 160.43 285.82 160.43C287.585 162.128 289.186 163.99 290.6 165.99C293.21 169.58 294.33 177.46 294.33 177.46C293.266 175.472 291.834 173.704 290.11 172.25C287.37 170 279.55 167.75 279.55 167.75C282.429 169.776 285.138 172.033 287.65 174.5C289.079 176.12 290.125 178.041 290.71 180.12H298.94L298.93 167.13Z" fill="#54B862"/>
</g>
<path d="M349.07 225.19H290.04V260.29H349.07V225.19Z" fill="#263238"/>
<path opacity="0.18" d="M349.07 225.19H290.04V260.29H349.07V225.19Z" fill="white"/>
<path d="M339.51 245.76C337.64 244.34 335.59 242.95 333.6 241.61C326.79 236.99 319.79 232.24 317.95 225.19H312.84C314.63 234.76 323.16 240.57 330.84 245.74C332.84 247.11 334.76 248.4 336.53 249.74C340.34 252.63 342.19 256.39 341.26 259.34C341.157 259.689 341.013 260.025 340.83 260.34H346.17C347.36 255.42 344.82 249.78 339.51 245.76Z" fill="white"/>
<path d="M316.27 253.71C313.761 249.248 310.759 245.082 307.32 241.29C299.77 233.29 293.64 229.79 290.04 228.29V233.77C293.17 235.37 297.9 238.51 303.68 244.67C306.868 248.206 309.652 252.087 311.98 256.24C312.82 257.63 313.63 258.98 314.48 260.24H320.7C319.037 258.196 317.555 256.011 316.27 253.71Z" fill="white"/>
<path d="M349.08 243.13C347.08 240.33 346.5 236.27 345.65 230.13C345.44 228.61 345.2 226.96 344.93 225.2H339.87C340.19 227.2 340.46 229.1 340.69 230.81C341.91 239.57 342.8 245.97 349.08 249.88V243.13Z" fill="white"/>
<path d="M330.75 231C332.407 231 333.75 229.657 333.75 228C333.75 226.343 332.407 225 330.75 225C329.093 225 327.75 226.343 327.75 228C327.75 229.657 329.093 231 330.75 231Z" fill="white"/>
<path d="M328.25 257.25C329.907 257.25 331.25 255.907 331.25 254.25C331.25 252.593 329.907 251.25 328.25 251.25C326.593 251.25 325.25 252.593 325.25 254.25C325.25 255.907 326.593 257.25 328.25 257.25Z" fill="white"/>
<path d="M307.5 234C309.157 234 310.5 232.657 310.5 231C310.5 229.343 309.157 228 307.5 228C305.843 228 304.5 229.343 304.5 231C304.5 232.657 305.843 234 307.5 234Z" fill="white"/>
<path d="M356.63 410.33C382.957 410.33 404.3 403.032 404.3 394.03C404.3 385.028 382.957 377.73 356.63 377.73C330.303 377.73 308.96 385.028 308.96 394.03C308.96 403.032 330.303 410.33 356.63 410.33Z" fill="#54B862"/>
<path opacity="0.5" d="M356.63 410.33C382.957 410.33 404.3 403.032 404.3 394.03C404.3 385.028 382.957 377.73 356.63 377.73C330.303 377.73 308.96 385.028 308.96 394.03C308.96 403.032 330.303 410.33 356.63 410.33Z" fill="white"/>
<path d="M419.3 448.33C445.627 448.33 466.97 441.032 466.97 432.03C466.97 423.028 445.627 415.73 419.3 415.73C392.973 415.73 371.63 423.028 371.63 432.03C371.63 441.032 392.973 448.33 419.3 448.33Z" fill="#54B862"/>
<path opacity="0.5" d="M419.3 448.33C445.627 448.33 466.97 441.032 466.97 432.03C466.97 423.028 445.627 415.73 419.3 415.73C392.973 415.73 371.63 423.028 371.63 432.03C371.63 441.032 392.973 448.33 419.3 448.33Z" fill="white"/>
<path d="M394 390C394 390 387.94 383.33 370.51 377.51C353.08 371.69 327.56 379.78 321.29 384.59C315.02 389.4 314.6 391.95 322.61 394.52C330.62 397.09 342.99 399.52 356.89 407.07C370.79 414.62 380.94 418.39 393.4 411.3C405.86 404.21 399.23 395.08 394 390Z" fill="white" stroke="#263238" stroke-linecap="round" stroke-linejoin="round"/>
<path d="M353.86 400.1C341.32 393.26 325.94 393.18 319.86 393.47C320.771 393.854 321.702 394.188 322.65 394.47C330.65 397.03 343.03 399.47 356.93 407.02C366.64 412.31 374.51 415.72 382.62 414.9C364.06 411 366.21 406.85 353.86 400.1Z" fill="white"/>
<mask id="mask3_230_1664" style="mask-type:luminance" maskUnits="userSpaceOnUse" x="319" y="393" width="64" height="23">
<path d="M353.86 400.1C341.32 393.26 325.94 393.18 319.86 393.47C320.771 393.854 321.702 394.188 322.65 394.47C330.65 397.03 343.03 399.47 356.93 407.02C366.64 412.31 374.51 415.72 382.62 414.9C364.06 411 366.21 406.85 353.86 400.1Z" fill="white"/>
</mask>
<g mask="url(#mask3_230_1664)">
<path d="M353.86 400.1C341.32 393.26 325.94 393.18 319.86 393.47C320.771 393.854 321.702 394.188 322.65 394.47C330.65 397.03 343.03 399.47 356.93 407.02C366.64 412.31 374.51 415.72 382.62 414.9C364.06 411 366.21 406.85 353.86 400.1Z" fill="#263238" stroke="#263238" stroke-linecap="round" stroke-linejoin="round"/>
</g>
<path d="M353.86 400.1C341.32 393.26 325.94 393.18 319.86 393.47C320.771 393.854 321.702 394.188 322.65 394.47C330.65 397.03 343.03 399.47 356.93 407.02C366.64 412.31 374.51 415.72 382.62 414.9C364.06 411 366.21 406.85 353.86 400.1Z" stroke="#263238" stroke-linecap="round" stroke-linejoin="round"/>
<path d="M405.67 297.1C403.62 300.044 402.009 303.271 400.89 306.68C399.46 311.56 398.75 317.68 400.57 318.27C402.39 318.86 406.52 317.8 406.52 317.8L407.68 323.8L415.14 321.02L415.62 314.56C415.62 314.56 421.74 308.9 420.62 302.9C419.5 296.9 410.56 293.36 405.67 297.1Z" fill="white" stroke="#263238" stroke-linecap="round" stroke-linejoin="round"/>
<path d="M410.31 290.82C410.31 290.82 396.88 290.82 400.2 294.22C403.52 297.62 406.06 300.48 406.06 300.48C406.06 300.48 404.06 303.75 404.69 304.67C405.32 305.59 405.91 305.84 406 306.35C406.09 306.86 403.54 308.13 405.13 309.42C406.72 310.71 407.89 307.42 407.61 308.83C407.33 310.24 407.61 315.03 411.52 316.83C415.43 318.63 418.61 314.96 421.18 313.83C423.75 312.7 427.89 308.58 425.91 299.78C423.93 290.98 413.22 289.65 410.31 290.82Z" fill="#263238" stroke="#263238" stroke-linecap="round" stroke-linejoin="round"/>
<path d="M403.64 314C403.64 314 403.31 315.09 405.29 314.59C407.27 314.09 407.44 310.96 407.44 310.96" stroke="#263238" stroke-linecap="round" stroke-linejoin="round"/>
<path d="M402.79 328.57C402.79 328.57 404.17 324.38 405.9 323.41C407.63 322.44 416.15 319.82 417.83 319.54C419.51 319.26 421.83 323.17 421.83 323.17L402.79 328.57Z" fill="white" stroke="#263238" stroke-linecap="round" stroke-linejoin="round"/>
<path d="M382.27 381.94C382.087 382.259 381.843 382.538 381.551 382.761C381.259 382.985 380.926 383.147 380.57 383.24C379.77 383.46 378.13 384.01 377.46 384.18C376.79 384.35 376.78 384.05 376.87 383.59C376.96 383.13 377.97 382.66 378.39 382.59C377.17 381.06 372.89 380.94 371.77 380.59C370.65 380.24 371.08 380.19 371.51 379.93C371.94 379.67 374.29 380.09 374.99 380.16C373.691 379.896 372.447 379.412 371.31 378.73C370.53 378.11 371.48 378.18 371.67 378.02C372.989 378.599 374.41 378.908 375.85 378.93C374.554 378.75 373.317 378.278 372.23 377.55C372.04 377.13 372.35 376.99 372.73 376.95C373.841 377.473 375.03 377.811 376.25 377.95C375.343 377.622 374.474 377.196 373.66 376.68C374.12 376.38 373.77 376.18 374.66 376.36C375.899 376.678 377.117 377.068 378.31 377.53C379.741 378.306 380.992 379.376 381.98 380.67C382.58 381.48 382.57 381.38 382.27 381.94Z" fill="white" stroke="#263238" stroke-linecap="round" stroke-linejoin="round"/>
<path d="M382.27 381.94L396.86 368.6L406.94 355.6L398.59 345.92L391.36 364.38L380.52 379.43C380.52 379.43 379.42 380.75 382.27 381.94Z" fill="#54B862" stroke="#263238" stroke-linecap="round" stroke-linejoin="round"/>
<path d="M365.89 384C365.856 383.094 365.502 382.229 364.89 381.56L361.79 378.04C361.79 378.04 361.02 377.49 360.92 378.35C360.82 379.21 362.2 380.5 362.2 380.5H354.92C354.92 380.5 354.16 380.69 354.68 381.28C355.2 381.87 357.95 381.75 357.95 381.75L354.23 382.75C354.23 382.75 353.48 383.2 354.58 383.75L358.32 383.46L355.06 384.59C355.06 384.59 354.57 385.18 355.37 385.47L358.45 384.79L356.23 386.08C356.23 386.08 356.23 386.75 356.83 386.65C357.43 386.55 359.97 385.8 359.97 385.8C361.733 385.632 363.486 385.369 365.22 385.01C366.42 384.66 365.89 384 365.89 384Z" fill="white" stroke="#263238" stroke-linecap="round" stroke-linejoin="round"/>
<path d="M433.18 388.28L423.29 406.8L455.79 426.09L454.47 430.09C454.47 430.09 420.65 420.58 413.47 416.09C406.29 411.6 408.47 402.62 409.47 401.03C410.47 399.44 416.87 382.8 416.87 382.8C416.87 382.8 428.54 374.51 433.18 388.28Z" fill="#263238" stroke="#263238" stroke-linecap="round" stroke-linejoin="round"/>
<path d="M406.44 376.52L407.94 383.52C407.94 383.52 392.07 405.6 390.1 415C388.13 424.4 386.78 431.22 389.1 432.56C391.42 433.9 422.92 452.05 422.92 452.05L425.05 445.15C425.05 445.15 414.3 434.37 409.73 429.61C407.383 427.051 404.691 424.833 401.73 423.02L425.34 394.92C428.674 393.73 431.464 391.371 433.19 388.28C435.943 383.117 436.55 377.077 434.88 371.47C434.88 371.47 415.45 379 406.44 376.52Z" fill="#263238" stroke="#263238" stroke-linecap="round" stroke-linejoin="round"/>
<path d="M423.05 321.94C423.05 321.94 398.63 328.4 396.42 330.66C394.21 332.92 379.86 370.94 379.86 370.94L364 381.4C363.641 381.609 363.361 381.929 363.2 382.311C363.04 382.693 363.008 383.118 363.11 383.52C363.176 383.767 363.29 383.998 363.447 384.2C363.603 384.402 363.799 384.57 364.022 384.695C364.245 384.82 364.49 384.899 364.744 384.927C364.998 384.956 365.255 384.933 365.5 384.86L384.69 377.2L401.78 351.47L406.61 379.06C406.61 379.06 405.91 380.06 413 380.24C420.09 380.42 432.29 378.29 436.86 370.97C438.07 369.03 435.95 364.4 435.95 364.4C435.95 364.4 432.15 335.24 430.84 330.47C429.53 325.7 427 321.64 423.05 321.94Z" fill="#54B862" stroke="#263238" stroke-linecap="round" stroke-linejoin="round"/>
<path d="M397.08 335.87L401.77 351.47L396.23 345.2" stroke="#263238" stroke-linecap="round" stroke-linejoin="round"/>
<path d="M431.3 353.41C431.3 353.41 421.97 372.64 410.37 375.47" stroke="#263238" stroke-linecap="round" stroke-linejoin="round"/>
<path d="M423.31 444.6C423.31 444.6 426.82 440.45 429.61 442.09C432.4 443.73 432.83 447.63 433.31 450.49C433.79 453.35 436.47 454.37 436.36 457.49C436.25 460.61 435.17 462.94 433.77 463.38C432.37 463.82 430.65 459.7 427.42 456.67C425.813 455.214 424.3 453.658 422.89 452.01C422.89 452.01 421.1 447.69 423.31 444.6Z" fill="white" stroke="#263238" stroke-linecap="round" stroke-linejoin="round"/>
<path d="M433.77 463.42C435.17 462.98 436.26 460.7 436.36 457.53C436.46 454.36 433.78 453.35 433.31 450.53C432.84 447.71 432.39 443.76 429.61 442.13C429.336 441.969 429.034 441.861 428.72 441.81C428.032 442.29 427.537 442.999 427.324 443.811C427.112 444.623 427.195 445.484 427.56 446.24C429.09 450.39 431.56 452.91 432.86 456.69C433.69 459.18 432.97 461.69 433.02 463.3C433.128 463.374 433.252 463.423 433.381 463.444C433.511 463.465 433.644 463.457 433.77 463.42Z" fill="white" stroke="#263238" stroke-linecap="round" stroke-linejoin="round"/>
<path d="M455.36 425.26C455.36 425.26 459.02 421.26 461.74 422.99C464.46 424.72 464.74 428.65 465.12 431.53C465.5 434.41 468.12 435.53 467.91 438.68C467.7 441.83 466.5 444.07 465.09 444.46C463.68 444.85 460.49 437.46 457.38 434.28C454.27 431.1 454.47 430.05 454.47 430.05C454.47 430.05 453 428.26 455.36 425.26Z" fill="white" stroke="#263238" stroke-linecap="round" stroke-linejoin="round"/>
<path d="M465.09 444.46C466.5 444.07 467.68 441.84 467.91 438.68C468.14 435.52 467.91 435 466.07 430.77C464.93 428.1 464.47 424.77 461.74 422.99C461.473 422.82 461.179 422.698 460.87 422.63C460.165 423.086 459.644 423.777 459.401 424.581C459.157 425.385 459.207 426.249 459.54 427.02C460.91 431.23 463.33 433.84 464.44 437.66C465.17 440.18 464.36 442.66 464.35 444.28C464.452 444.363 464.571 444.423 464.7 444.454C464.828 444.485 464.961 444.487 465.09 444.46Z" fill="white" stroke="#263238" stroke-linecap="round" stroke-linejoin="round"/>
<path d="M410.87 413.53L429.9 391.73" stroke="white" stroke-linecap="round" stroke-linejoin="round"/>
<path d="M117.81 388.82C117.81 393.41 104.08 397.13 87.14 397.13C70.2 397.13 56.47 393.41 56.47 388.82C56.47 384.23 70.2 380.52 87.14 380.52C104.08 380.52 117.81 384.24 117.81 388.82Z" fill="#54B862"/>
<path opacity="0.5" d="M117.81 388.82C117.81 393.41 104.08 397.13 87.14 397.13C70.2 397.13 56.47 393.41 56.47 388.82C56.47 384.23 70.2 380.52 87.14 380.52C104.08 380.52 117.81 384.24 117.81 388.82Z" fill="white"/>
<path d="M82.26 235.07C82.26 235.07 81.26 245.7 81.4699 252.59C81.6799 259.48 82.8499 277.79 75.9599 277.79C69.0699 277.79 62.5699 267.79 65.3299 255.35C68.0899 242.91 76.55 239.4 78.12 235.47C78.6898 233.919 79.3579 232.406 80.12 230.94C80.12 230.94 81.4699 228.18 82.26 235.07Z" fill="#263238" stroke="#263238" stroke-linecap="round" stroke-linejoin="round"/>
<path d="M106.67 283.3C107.802 290.078 108.58 296.911 109 303.77C109.39 312.83 104.08 329.95 102.5 333.1C100.92 336.25 99.3499 347.47 99.3499 347.47C98.658 351.456 97.7398 355.399 96.5999 359.28C95.0199 364.2 92.8499 377.5 92.8499 377.5C92.8499 377.5 97.5799 382.31 99.1599 383.89C100.74 385.47 103.68 386.84 102.5 387.82C101.32 388.8 91.2799 385.66 88.7199 384.48C88.0923 384.116 87.5659 383.6 87.1886 382.98C86.8114 382.36 86.5952 381.655 86.5599 380.93V376.41C86.5599 376.41 86.1599 357.9 86.5599 351.6C86.9599 345.3 89.5599 341.6 89.5599 339.79C89.5599 337.98 77.3599 311.45 77.9499 300.62C78.2884 294.166 80.1785 287.888 83.4599 282.32C83.4599 282.32 93.4799 290 106.67 283.3Z" fill="#263238" stroke="#263238" stroke-linecap="round" stroke-linejoin="round"/>
<path d="M78.12 243.93C78.12 243.93 85.8 241.18 90.72 240.93C95.64 240.68 99.38 242.31 100.96 245.26C102.54 248.21 105.88 255.49 107.45 259.04C109.02 262.59 109.82 266.91 108.24 270.45C107.426 272.341 106.505 274.184 105.48 275.97C105.48 275.97 107.26 283.05 106.67 284.04C106.08 285.03 101.35 288 94.46 288C87.57 288 83.83 286.23 82.46 284.26C81.09 282.29 74 263.62 72.81 257.91C71.62 252.2 74.58 247.28 78.12 243.93Z" fill="#54B862" stroke="#263238" stroke-linecap="round" stroke-linejoin="round"/>
<path d="M84.62 256.92L86 288.61L93.08 314L89.93 315.18L76.35 286.65C76.35 286.65 73.2 257.12 73.2 254.17C73.2 251.22 74.38 247.47 78.12 246.69" fill="#54B862"/>
<path d="M84.62 256.92L86 288.61L93.08 314L89.93 315.18L76.35 286.65C76.35 286.65 73.2 257.12 73.2 254.17C73.2 251.22 74.38 247.47 78.12 246.69" stroke="#263238" stroke-linecap="round" stroke-linejoin="round"/>
<path d="M102.53 333.1C102.53 333.1 103.71 313.81 97.8101 299.64" stroke="white" stroke-linecap="round" stroke-linejoin="round"/>
<path d="M93.08 314L96.08 318.52L96.86 321.87C96.86 321.87 96.78 322.52 96.31 322.42C95.84 322.32 95.44 321.6 95.44 321.6C95.44 321.6 95.9 324.22 95.9 324.6C95.9 324.98 96.11 326.45 95.75 326.66C95.39 326.87 94.75 325.78 94.15 325.12C93.55 324.46 91.7 323.31 91 322C90.3 320.69 90 315.22 90 315.22L93.08 314Z" fill="white" stroke="#263238" stroke-linecap="round" stroke-linejoin="round"/>
<path d="M100.74 268C98.9673 271.385 96.0819 274.055 92.5701 275.56" stroke="#263238" stroke-linecap="round" stroke-linejoin="round"/>
<path d="M86.5898 380.93V379C90.8198 379.36 92.8798 377.51 92.8798 377.51C92.8798 377.51 97.6098 382.32 99.1898 383.9C100.77 385.48 103.71 386.85 102.53 387.83C101.35 388.81 91.3098 385.67 88.7498 384.49C88.1209 384.125 87.5936 383.607 87.2162 382.985C86.8389 382.363 86.6235 381.657 86.5898 380.93Z" fill="white" stroke="#263238" stroke-linecap="round" stroke-linejoin="round"/>
<path d="M92.3201 240.25C92.3201 240.25 94.8301 239.92 95.3201 241.93C95.8101 243.94 98.3201 247.8 98.5001 248.64C98.6801 249.48 95.1501 246.64 95.1501 246.64C93.4749 244.916 92.4712 242.649 92.3201 240.25Z" stroke="#263238" stroke-linecap="round" stroke-linejoin="round"/>
<path d="M84.77 241.93L85.44 238.41L85.95 235.73L86.45 233.04C86.45 233.04 95.34 215.44 101.2 220.3C102.209 223.435 102.609 226.734 102.38 230.02C101.88 234.89 101.88 237.91 99.19 237.74C97.3989 237.578 95.646 237.125 94 236.4L93.22 241.26L96.22 250.98L84.77 241.93Z" fill="white" stroke="#263238" stroke-linecap="round" stroke-linejoin="round"/>
<path d="M84.4398 238.91L91.1398 244.44C91.1398 244.44 97.0098 251.15 96.1398 250.98C94.7819 250.33 93.4922 249.546 92.2898 248.64L91.6199 252.64L82.5898 242.1L84.4398 238.91Z" fill="white" stroke="#263238" stroke-linecap="round" stroke-linejoin="round"/>
<path d="M93.1601 211.41C93.1601 211.41 99.16 207.89 102.38 211.08C105.6 214.27 102.21 220.63 99.86 222.81C97.51 224.99 95.5 232.54 90.86 235.73C86.22 238.92 83.98 236.23 80.96 233.04C77.94 229.85 76.22 221 78.06 215.77C79.9 210.54 88.1301 208.23 93.1601 211.41Z" fill="#263238" stroke="#263238" stroke-linecap="round" stroke-linejoin="round"/>
</svg>
