<svg width="500" height="334" viewBox="0 0 500 334" fill="none" xmlns="http://www.w3.org/2000/svg">
<path d="M461.447 225.049C461.447 225.049 457.107 223.166 454.02 233.333C450.933 243.499 450.093 249.164 450.093 249.164C450.093 249.164 449.193 251.342 447.627 250.306C446.06 249.271 443.587 245.978 441.427 247.033C439.267 248.089 438.88 250.908 440.02 254.702C441.16 258.496 443.353 266.906 443.54 267.668C443.727 268.429 443.5 269.612 442.32 269.077C441.14 268.543 433.893 262.872 431.42 266.479C428.947 270.086 433.847 280.139 434.367 281.248C434.887 282.357 434.74 282.891 434.24 283.252C433.74 283.613 431.48 281.509 429.36 279.979C427.24 278.449 424.5 277.053 423.24 279.258C421.98 281.462 422.887 289.498 432.733 301.061L437.647 306.118L444.533 304.488C459.06 300.106 464.16 293.833 464.293 291.308C464.427 288.783 461.373 288.469 458.76 288.596C456.147 288.723 453.1 289.264 452.887 288.703C452.673 288.142 452.847 287.581 453.88 286.926C454.913 286.272 464.473 280.48 464.333 276.105C464.193 271.729 455.047 272.564 453.767 272.377C452.487 272.19 452.933 271.041 453.5 270.533C454.067 270.026 460.46 264.114 463.5 261.542C466.54 258.97 467.753 256.465 466.46 254.328C465.167 252.19 461.353 253.693 459.48 253.713C457.607 253.733 458.02 251.422 458.02 251.422C458.02 251.422 460.387 246.178 463.287 235.958C466.187 225.737 461.333 225.016 461.333 225.016" fill="#C1ECC7"/>
<path d="M458.667 234.147C458.667 234.147 458.667 234.221 458.613 234.361L458.447 235.029C458.293 235.59 458.073 236.405 457.78 237.447C457.2 239.552 456.334 242.591 455.26 246.338C453.1 253.833 450.034 264.161 446.594 275.557C443.154 286.953 440.08 297.28 437.88 304.768C436.787 308.503 435.88 311.529 435.287 313.633L434.573 316.038L434.387 316.666C434.34 316.806 434.313 316.873 434.313 316.873C434.313 316.873 434.313 316.799 434.36 316.659C434.407 316.519 434.46 316.298 434.527 316.024C434.687 315.463 434.907 314.648 435.193 313.606C435.773 311.502 436.634 308.462 437.714 304.715C439.874 297.22 442.94 286.893 446.38 275.49C449.82 264.087 452.894 253.773 455.094 246.292L457.687 237.421C457.994 236.385 458.234 235.577 458.394 235.016C458.48 234.749 458.54 234.542 458.587 234.388C458.633 234.234 458.667 234.147 458.667 234.147Z" fill="#062C0B"/>
<path d="M444.707 251.796C444.809 251.933 444.896 252.081 444.967 252.237C445.12 252.524 445.333 252.952 445.593 253.479C446.107 254.528 446.78 256.004 447.487 257.648C448.193 259.291 448.82 260.727 449.287 261.856C449.5 262.357 449.687 262.778 449.833 263.125C449.918 263.275 449.978 263.438 450.013 263.606C449.909 263.47 449.822 263.322 449.753 263.165C449.593 262.878 449.38 262.457 449.127 261.923C448.627 260.867 447.973 259.384 447.267 257.741C446.56 256.098 445.933 254.675 445.44 253.546L444.88 252.277C444.798 252.126 444.74 251.964 444.707 251.796Z" fill="#062C0B"/>
<path d="M450.667 263.613C450.667 263.553 453.613 262.03 457.333 260.219C461.053 258.409 464.047 256.973 464.073 257.033C464.1 257.093 461.133 258.616 457.407 260.433C453.68 262.25 450.707 263.673 450.667 263.613Z" fill="#062C0B"/>
<path d="M444.627 280.881C444.791 280.822 444.961 280.781 445.133 280.76L446.527 280.513C447.7 280.306 449.32 280.012 451.1 279.625C452.88 279.237 454.473 278.836 455.633 278.536L456.967 278.182C457.134 278.13 457.306 278.094 457.48 278.075C457.327 278.16 457.163 278.225 456.993 278.269C456.68 278.382 456.213 278.529 455.66 278.696C454.52 279.044 452.92 279.471 451.14 279.859C449.36 280.246 447.72 280.527 446.54 280.687C445.947 280.767 445.467 280.827 445.133 280.854C444.966 280.885 444.796 280.894 444.627 280.881Z" fill="#062C0B"/>
<path d="M436.88 271.388C436.88 271.388 437.013 271.495 437.22 271.722C437.427 271.95 437.727 272.284 438.093 272.698C438.82 273.533 439.807 274.702 440.893 275.984C441.98 277.267 442.94 278.456 443.633 279.324C443.98 279.758 444.26 280.106 444.447 280.353C444.552 280.476 444.644 280.61 444.72 280.754C444.591 280.655 444.475 280.54 444.373 280.413C444.167 280.186 443.867 279.852 443.507 279.438C442.78 278.603 441.787 277.434 440.707 276.151C439.627 274.869 438.653 273.68 437.96 272.811C437.613 272.384 437.34 272.03 437.153 271.783C437.048 271.662 436.956 271.53 436.88 271.388Z" fill="#062C0B"/>
<path d="M429.607 285.951C429.768 286.077 429.914 286.223 430.04 286.385L431.16 287.634C432.093 288.696 433.373 290.179 434.78 291.822C436.187 293.466 437.447 294.962 438.347 296.051C438.767 296.572 439.12 297.006 439.407 297.347C439.542 297.502 439.663 297.67 439.767 297.848C439.608 297.719 439.462 297.573 439.333 297.414L438.213 296.158C437.28 295.096 436 293.619 434.593 291.976C433.187 290.333 431.927 288.836 431.027 287.748L430 286.445C429.853 286.293 429.722 286.128 429.607 285.951Z" fill="#062C0B"/>
<path d="M439.607 297.494C439.823 297.417 440.046 297.362 440.273 297.327L442.027 296.953C443.507 296.632 445.553 296.191 447.793 295.617C450.033 295.042 452.053 294.515 453.513 294.107L455.24 293.626C455.457 293.555 455.68 293.504 455.907 293.472C455.707 293.57 455.5 293.65 455.287 293.713C454.887 293.853 454.307 294.047 453.58 294.267C452.133 294.722 450.12 295.296 447.873 295.851C445.627 296.405 443.573 296.826 442.08 297.1C441.34 297.233 440.747 297.34 440.313 297.4C440.083 297.461 439.845 297.493 439.607 297.494Z" fill="#062C0B"/>
<path d="M259.007 251.689H172.273V291.769H259.007V251.689Z" fill="#F5F5F5"/>
<path d="M256.947 289.912H174.28V253.84H256.947V289.912ZM174.8 289.371H256.407V254.368H174.8V289.371Z" fill="#E0E0E0"/>
<path d="M280.194 251.689H259.007V291.769H280.194V251.689Z" fill="#E0E0E0"/>
<path d="M174.527 264.962H256.667C256.691 264.956 256.713 264.942 256.729 264.922C256.744 264.902 256.753 264.877 256.753 264.852C256.753 264.827 256.744 264.802 256.729 264.782C256.713 264.762 256.691 264.748 256.667 264.742H174.527C174.502 264.748 174.48 264.762 174.465 264.782C174.449 264.802 174.441 264.827 174.441 264.852C174.441 264.877 174.449 264.902 174.465 264.922C174.48 264.942 174.502 264.956 174.527 264.962Z" fill="#E0E0E0"/>
<path d="M215.867 264.855C216.094 261.23 216.106 257.594 215.9 253.967C215.9 253.937 215.888 253.908 215.867 253.887C215.846 253.865 215.817 253.853 215.787 253.853C215.757 253.853 215.728 253.865 215.707 253.887C215.685 253.908 215.673 253.937 215.673 253.967C215.468 257.594 215.479 261.23 215.707 264.855C215.707 264.876 215.715 264.897 215.73 264.912C215.745 264.927 215.765 264.935 215.787 264.935C215.808 264.935 215.828 264.927 215.843 264.912C215.858 264.897 215.867 264.876 215.867 264.855Z" fill="#E0E0E0"/>
<path d="M238 259.411C238 259.633 237.934 259.85 237.811 260.035C237.688 260.219 237.513 260.363 237.309 260.448C237.104 260.533 236.879 260.555 236.662 260.512C236.444 260.468 236.245 260.362 236.088 260.205C235.931 260.048 235.825 259.848 235.782 259.63C235.738 259.412 235.76 259.187 235.845 258.982C235.93 258.777 236.074 258.601 236.258 258.478C236.442 258.355 236.659 258.289 236.88 258.289C237.027 258.289 237.173 258.318 237.309 258.374C237.445 258.431 237.568 258.513 237.672 258.618C237.776 258.722 237.858 258.845 237.915 258.982C237.971 259.118 238 259.264 238 259.411Z" fill="#E0E0E0"/>
<path d="M194.867 259.411C194.867 259.633 194.801 259.851 194.677 260.035C194.554 260.22 194.379 260.364 194.174 260.449C193.969 260.533 193.743 260.555 193.526 260.511C193.308 260.467 193.109 260.36 192.952 260.202C192.796 260.045 192.69 259.844 192.647 259.626C192.605 259.408 192.628 259.182 192.714 258.977C192.8 258.772 192.944 258.597 193.129 258.475C193.314 258.352 193.532 258.288 193.753 258.289C194.049 258.291 194.332 258.41 194.541 258.62C194.75 258.83 194.867 259.115 194.867 259.411Z" fill="#E0E0E0"/>
<path d="M216.72 271.836C216.72 272.058 216.654 272.275 216.531 272.459C216.408 272.644 216.233 272.788 216.029 272.873C215.824 272.958 215.599 272.98 215.381 272.937C215.164 272.893 214.965 272.786 214.808 272.629C214.651 272.472 214.545 272.272 214.502 272.055C214.458 271.837 214.48 271.611 214.565 271.406C214.65 271.201 214.794 271.026 214.978 270.903C215.162 270.779 215.378 270.714 215.6 270.714C215.747 270.714 215.893 270.743 216.029 270.799C216.164 270.855 216.288 270.938 216.392 271.042C216.496 271.147 216.578 271.27 216.635 271.406C216.691 271.543 216.72 271.688 216.72 271.836Z" fill="#E0E0E0"/>
<path d="M182.64 291.769L178.173 316.933H180.687L188.92 291.769H182.64Z" fill="#E0E0E0"/>
<path d="M252.873 291.769L256.607 316.973H254.094L246.594 291.769H252.873Z" fill="#E0E0E0"/>
<path d="M269.64 291.769L273.873 316.973H271.36L263.36 291.769H269.64Z" fill="#E0E0E0"/>
<path d="M216.667 283.179C216.667 283.401 216.601 283.618 216.478 283.802C216.355 283.987 216.18 284.131 215.975 284.215C215.771 284.3 215.546 284.323 215.328 284.279C215.111 284.236 214.911 284.129 214.755 283.972C214.598 283.815 214.491 283.615 214.448 283.398C214.405 283.18 214.427 282.954 214.512 282.749C214.597 282.544 214.74 282.369 214.925 282.246C215.109 282.122 215.325 282.056 215.547 282.056C215.694 282.056 215.839 282.085 215.975 282.142C216.111 282.198 216.235 282.281 216.339 282.385C216.443 282.489 216.525 282.613 216.582 282.749C216.638 282.885 216.667 283.031 216.667 283.179Z" fill="#E0E0E0"/>
<path d="M174.527 277.374H256.667C256.691 277.368 256.713 277.353 256.729 277.334C256.744 277.314 256.753 277.289 256.753 277.264C256.753 277.238 256.744 277.214 256.729 277.194C256.713 277.174 256.691 277.159 256.667 277.153H174.527C174.502 277.159 174.48 277.174 174.465 277.194C174.449 277.214 174.441 277.238 174.441 277.264C174.441 277.289 174.449 277.314 174.465 277.334C174.48 277.353 174.502 277.368 174.527 277.374Z" fill="#E0E0E0"/>
<path d="M441.767 56.6531H386.927V130.347H441.767V56.6531Z" fill="#EBEBEB"/>
<path d="M438.907 59.5522H389.78V127.454H438.907V59.5522Z" fill="#DCEFDE"/>
<path d="M424.453 83.0391H405.7V104.515H424.453V83.0391Z" fill="#237E30"/>
<path d="M417.88 147.815V183.5H465.647V147.815H417.88Z" fill="#EBEBEB"/>
<path d="M463.767 149.679H419.76V181.649H463.767V149.679Z" fill="#DCEFDE"/>
<path d="M434.987 159.084V171.289H448.907V159.084H434.987Z" fill="#237E30"/>
<path d="M70.3934 85.1165H35.6001V131.876H70.3934V85.1165Z" fill="#EBEBEB"/>
<path d="M68.5867 86.9536H37.4133V130.04H68.5867V86.9536Z" fill="#DCEFDE"/>
<path d="M59.4134 101.857H47.5134V115.484H59.4134V101.857Z" fill="#237E30"/>
<path d="M229.267 228.91L226.894 250.961H257.28L259.8 228.91H229.267Z" fill="#EBEBEB"/>
<path d="M230.513 230.493L228.207 249.792H255.627L257.847 230.493H230.513Z" fill="#FAFAFA"/>
<path d="M235.127 233.74L233.707 246.546H251.013L251.9 233.74H235.127Z" fill="#E0E0E0"/>
<path d="M258.713 238.409L264.987 251.048L257.28 250.961L258.807 237.581" fill="#F5F5F5"/>
<path d="M453.753 316.806C453.753 316.899 359.833 316.979 244.013 316.979C128.193 316.979 34.2466 316.899 34.2466 316.806C34.2466 316.712 128.147 316.632 244 316.632C359.853 316.632 453.753 316.712 453.753 316.806Z" fill="#263238"/>
<path d="M339.96 51.7097H89.1133V217.153H339.96V51.7097Z" fill="#DCEFDE"/>
<path d="M339.96 217.16C339.96 216.024 339.907 152.631 339.82 51.7098L339.96 51.85H89.1332L89.3066 51.6764C89.3066 110.534 89.3066 166.572 89.3066 217.127L89.1466 216.966L339.993 217.127L89.1466 217.28H88.9866V217.127C88.9866 166.539 88.9866 110.534 88.9866 51.6764V51.5027H89.1799L340.007 51.5428H340.14V51.6764C340 152.631 339.96 216.031 339.96 217.16Z" fill="#263238"/>
<path d="M339.96 66.4325C339.96 66.526 283.8 66.6061 214.54 66.6061C145.28 66.6061 89.1133 66.526 89.1133 66.4325C89.1133 66.3389 145.26 66.2588 214.54 66.2588C283.82 66.2588 339.96 66.3389 339.96 66.4325Z" fill="#263238"/>
<path d="M322.78 90.908H112.487V119.746H322.78V90.908Z" fill="#237E30"/>
<path d="M155.573 170.18H108.886V216.96H155.573V170.18Z" fill="#237E30"/>
<path d="M210.76 170.18H164.073V216.96H210.76V170.18Z" fill="#237E30"/>
<path d="M264.3 170.18H217.613V216.96H264.3V170.18Z" fill="#237E30"/>
<path d="M192.367 150.353H141.76C139.715 150.353 137.755 149.54 136.308 148.092C134.862 146.644 134.048 144.68 134.047 142.631C134.055 140.587 134.872 138.63 136.318 137.188C137.763 135.745 139.72 134.936 141.76 134.936H192.367C194.412 134.936 196.374 135.75 197.821 137.199C199.267 138.649 200.08 140.615 200.08 142.665C200.069 144.707 199.252 146.663 197.807 148.104C196.361 149.544 194.405 150.353 192.367 150.353Z" fill="#54B862"/>
<path d="M251.527 150.353L252.193 150.307C252.427 150.307 252.7 150.226 253.033 150.173C254.504 149.863 255.852 149.129 256.911 148.06C257.97 146.992 258.694 145.637 258.993 144.161C259.358 142.313 259.041 140.395 258.1 138.764C257.539 137.803 256.777 136.977 255.865 136.343C254.953 135.708 253.914 135.28 252.82 135.09C251.586 134.97 250.345 134.932 249.106 134.976H245.106H236.44L141.7 135.029C139.736 135.015 137.843 135.77 136.427 137.133C135.01 138.496 134.18 140.36 134.115 142.327C134.05 144.294 134.754 146.209 136.078 147.663C137.401 149.118 139.239 149.997 141.2 150.113C142.273 150.166 143.387 150.113 144.473 150.113H169.626L212.22 150.153L240.933 150.206L248.74 150.24L240.933 150.273L212.22 150.327H169.626H144.473C143.38 150.327 142.3 150.327 141.18 150.327C140.048 150.256 138.946 149.942 137.947 149.405C136.405 148.567 135.186 147.239 134.482 145.629C133.778 144.02 133.629 142.221 134.06 140.517C134.491 138.814 135.476 137.303 136.859 136.223C138.243 135.143 139.946 134.556 141.7 134.555L236.44 134.602H245.106H249.106C250.357 134.555 251.609 134.6 252.853 134.736C253.881 134.917 254.862 135.304 255.738 135.873C256.613 136.442 257.366 137.182 257.951 138.048C258.536 138.914 258.942 139.889 259.144 140.915C259.346 141.941 259.34 142.997 259.126 144.021C258.801 145.512 258.053 146.878 256.973 147.955C256.178 148.734 255.225 149.333 254.18 149.712C253.81 149.845 253.431 149.952 253.047 150.033C252.707 150.08 252.426 150.133 252.2 150.146L251.527 150.353Z" fill="#263238"/>
<path d="M184 155.757H184.58L183.873 159.291H186.06L185.96 159.792H183.2L184 155.757Z" fill="#263238"/>
<path d="M186.5 158.51C186.492 158.271 186.532 158.033 186.619 157.811C186.706 157.589 186.838 157.387 187.006 157.218C187.174 157.049 187.375 156.916 187.597 156.828C187.818 156.74 188.055 156.699 188.293 156.706C188.478 156.686 188.664 156.705 188.84 156.764C189.016 156.823 189.177 156.919 189.313 157.046C189.448 157.172 189.555 157.327 189.625 157.499C189.695 157.671 189.728 157.856 189.72 158.042C189.729 158.281 189.689 158.518 189.603 158.741C189.517 158.963 189.386 159.166 189.218 159.335C189.051 159.505 188.85 159.639 188.629 159.727C188.408 159.816 188.171 159.859 187.933 159.852C187.749 159.866 187.565 159.842 187.391 159.78C187.217 159.719 187.057 159.622 186.923 159.496C186.788 159.37 186.681 159.217 186.608 159.047C186.535 158.877 186.498 158.694 186.5 158.51ZM189.167 158.055C189.177 157.936 189.16 157.815 189.117 157.703C189.074 157.59 189.007 157.489 188.92 157.406C188.833 157.323 188.728 157.261 188.614 157.225C188.5 157.188 188.379 157.177 188.26 157.194C188.095 157.194 187.933 157.229 187.782 157.295C187.631 157.361 187.495 157.457 187.384 157.578C187.272 157.699 187.186 157.842 187.131 157.998C187.077 158.153 187.055 158.318 187.067 158.483C187.058 158.602 187.075 158.722 187.119 158.834C187.162 158.946 187.229 159.047 187.316 159.129C187.403 159.212 187.507 159.274 187.62 159.311C187.734 159.348 187.855 159.36 187.973 159.345C188.137 159.344 188.3 159.31 188.45 159.244C188.601 159.177 188.736 159.081 188.847 158.96C188.959 158.839 189.044 158.696 189.098 158.54C189.152 158.385 189.173 158.22 189.16 158.055H189.167Z" fill="#263238"/>
<path d="M193.633 156.739L193.033 159.792H192.5L192.573 159.418C192.43 159.555 192.262 159.661 192.078 159.732C191.894 159.803 191.697 159.837 191.5 159.832C191.322 159.843 191.144 159.816 190.977 159.752C190.811 159.689 190.659 159.591 190.533 159.465C190.407 159.339 190.31 159.187 190.246 159.02C190.183 158.853 190.156 158.675 190.167 158.496C190.154 158.262 190.189 158.028 190.27 157.808C190.352 157.589 190.477 157.388 190.639 157.219C190.801 157.05 190.996 156.916 191.212 156.825C191.427 156.735 191.659 156.69 191.893 156.693C192.109 156.672 192.327 156.712 192.522 156.809C192.716 156.906 192.879 157.055 192.993 157.24L193.093 156.726L193.633 156.739ZM192.813 158.075C192.822 157.955 192.804 157.835 192.761 157.722C192.717 157.61 192.649 157.509 192.562 157.426C192.474 157.344 192.369 157.282 192.255 157.245C192.14 157.208 192.019 157.197 191.9 157.214C191.736 157.215 191.574 157.25 191.424 157.317C191.274 157.383 191.139 157.48 191.028 157.601C190.917 157.722 190.832 157.864 190.777 158.019C190.723 158.174 190.701 158.339 190.713 158.503C190.704 158.622 190.722 158.742 190.765 158.854C190.808 158.966 190.876 159.067 190.963 159.149C191.049 159.232 191.153 159.294 191.267 159.331C191.381 159.368 191.501 159.38 191.62 159.365C191.787 159.365 191.952 159.331 192.104 159.264C192.257 159.197 192.394 159.099 192.507 158.975C192.619 158.852 192.704 158.706 192.757 158.548C192.81 158.389 192.829 158.222 192.813 158.055V158.075Z" fill="#263238"/>
<path d="M197.806 155.517L196.953 159.792H196.427L196.5 159.418C196.208 159.693 195.82 159.841 195.42 159.832C195.242 159.843 195.064 159.816 194.897 159.752C194.731 159.689 194.579 159.591 194.453 159.465C194.327 159.339 194.229 159.187 194.166 159.02C194.103 158.853 194.076 158.675 194.086 158.496C194.075 158.263 194.111 158.029 194.192 157.809C194.274 157.59 194.399 157.39 194.561 157.221C194.723 157.052 194.917 156.918 195.133 156.827C195.348 156.736 195.58 156.691 195.813 156.693C196.031 156.672 196.25 156.713 196.446 156.811C196.642 156.909 196.806 157.06 196.92 157.247L197.266 155.504L197.806 155.517ZM196.733 158.055C196.743 157.936 196.726 157.815 196.684 157.703C196.641 157.59 196.574 157.489 196.487 157.406C196.399 157.323 196.295 157.261 196.181 157.225C196.066 157.188 195.945 157.177 195.826 157.194C195.662 157.194 195.499 157.229 195.348 157.295C195.198 157.361 195.062 157.458 194.95 157.578C194.838 157.699 194.752 157.842 194.698 157.998C194.643 158.153 194.621 158.318 194.633 158.483C194.624 158.603 194.642 158.724 194.685 158.836C194.729 158.948 194.797 159.05 194.885 159.132C194.972 159.215 195.077 159.277 195.192 159.314C195.306 159.35 195.427 159.361 195.547 159.345C195.711 159.344 195.873 159.31 196.024 159.244C196.174 159.177 196.309 159.081 196.421 158.96C196.532 158.839 196.617 158.696 196.671 158.54C196.725 158.385 196.746 158.22 196.733 158.055Z" fill="#263238"/>
<path d="M198.607 156.74H199.16L198.56 159.792H198L198.607 156.74ZM198.7 155.818C198.699 155.765 198.709 155.713 198.729 155.665C198.749 155.617 198.778 155.573 198.816 155.537C198.853 155.5 198.898 155.472 198.947 155.454C198.996 155.435 199.048 155.427 199.1 155.43C199.144 155.428 199.187 155.435 199.229 155.45C199.27 155.466 199.307 155.489 199.34 155.519C199.372 155.548 199.398 155.584 199.416 155.624C199.435 155.664 199.445 155.707 199.447 155.751C199.449 155.804 199.439 155.857 199.42 155.906C199.401 155.956 199.371 156.001 199.334 156.038C199.296 156.076 199.251 156.105 199.202 156.125C199.153 156.144 199.1 156.154 199.047 156.152C199.002 156.153 198.958 156.145 198.916 156.128C198.874 156.112 198.836 156.088 198.804 156.057C198.772 156.026 198.746 155.989 198.728 155.948C198.711 155.907 198.701 155.862 198.7 155.818Z" fill="#263238"/>
<path d="M202.88 157.721C202.878 157.842 202.867 157.963 202.846 158.082L202.507 159.792H201.953L202.293 158.082C202.299 157.997 202.299 157.913 202.293 157.828C202.293 157.427 202.067 157.207 201.587 157.207C201.309 157.192 201.037 157.285 200.827 157.467C200.617 157.649 200.485 157.905 200.46 158.182L200.133 159.792H199.58L200.187 156.739H200.72L200.64 157.127C200.787 156.986 200.961 156.876 201.151 156.804C201.341 156.732 201.543 156.698 201.747 156.706C201.89 156.682 202.038 156.69 202.178 156.731C202.319 156.771 202.448 156.843 202.557 156.941C202.666 157.038 202.751 157.159 202.807 157.294C202.863 157.429 202.888 157.575 202.88 157.721Z" fill="#263238"/>
<path d="M207.067 156.739L206.547 159.411C206.533 159.636 206.475 159.856 206.375 160.057C206.275 160.259 206.136 160.438 205.966 160.584C205.795 160.731 205.597 160.842 205.383 160.91C205.169 160.978 204.944 161.002 204.72 160.981C204.219 161.006 203.725 160.852 203.327 160.547L203.633 160.126C203.953 160.379 204.353 160.509 204.76 160.493C204.905 160.511 205.053 160.499 205.194 160.458C205.334 160.417 205.465 160.348 205.578 160.255C205.692 160.162 205.785 160.047 205.853 159.917C205.921 159.787 205.962 159.644 205.973 159.498L206.02 159.278C205.721 159.559 205.323 159.711 204.913 159.699C204.742 159.715 204.57 159.694 204.407 159.639C204.244 159.583 204.095 159.494 203.969 159.377C203.843 159.259 203.743 159.117 203.676 158.958C203.609 158.799 203.576 158.628 203.58 158.456C203.575 158.227 203.617 158 203.703 157.787C203.79 157.575 203.918 157.383 204.081 157.222C204.244 157.061 204.438 156.936 204.651 156.853C204.864 156.77 205.092 156.731 205.32 156.739C205.547 156.719 205.775 156.764 205.977 156.87C206.179 156.975 206.346 157.136 206.46 157.334L206.573 156.773L207.067 156.739ZM206.22 157.982C206.22 157.494 205.887 157.194 205.313 157.194C205.155 157.187 204.996 157.213 204.848 157.271C204.7 157.329 204.565 157.417 204.453 157.529C204.34 157.641 204.252 157.775 204.193 157.924C204.135 158.072 204.108 158.23 204.113 158.389C204.113 158.884 204.453 159.184 205.027 159.184C205.185 159.19 205.344 159.163 205.491 159.104C205.639 159.046 205.773 158.957 205.885 158.844C205.997 158.731 206.085 158.596 206.143 158.448C206.2 158.3 206.227 158.141 206.22 157.982Z" fill="#263238"/>
<path d="M208.873 159.458C208.871 159.403 208.879 159.349 208.898 159.297C208.918 159.246 208.947 159.199 208.985 159.159C209.024 159.12 209.069 159.089 209.12 159.068C209.171 159.047 209.225 159.036 209.28 159.037C209.328 159.037 209.376 159.047 209.421 159.066C209.465 159.085 209.506 159.113 209.539 159.148C209.573 159.183 209.599 159.224 209.616 159.269C209.634 159.315 209.642 159.363 209.64 159.411C209.643 159.466 209.634 159.52 209.615 159.571C209.597 159.622 209.568 159.669 209.53 159.708C209.493 159.747 209.448 159.779 209.398 159.8C209.348 159.821 209.294 159.832 209.24 159.832C209.191 159.832 209.143 159.823 209.098 159.804C209.053 159.785 209.012 159.757 208.978 159.722C208.944 159.688 208.917 159.646 208.899 159.601C208.881 159.556 208.872 159.507 208.873 159.458Z" fill="#263238"/>
<path d="M210.18 159.458C210.177 159.403 210.186 159.349 210.205 159.297C210.224 159.246 210.254 159.199 210.292 159.159C210.33 159.12 210.376 159.089 210.427 159.068C210.477 159.047 210.532 159.036 210.587 159.037C210.635 159.037 210.683 159.047 210.728 159.066C210.772 159.085 210.812 159.113 210.846 159.148C210.88 159.183 210.906 159.224 210.923 159.269C210.94 159.315 210.948 159.363 210.947 159.411C210.949 159.466 210.941 159.52 210.922 159.571C210.903 159.622 210.874 159.669 210.837 159.708C210.799 159.747 210.754 159.779 210.704 159.8C210.655 159.821 210.601 159.832 210.547 159.832C210.498 159.832 210.45 159.823 210.405 159.804C210.36 159.785 210.319 159.757 210.285 159.722C210.251 159.688 210.224 159.646 210.206 159.601C210.188 159.556 210.179 159.507 210.18 159.458Z" fill="#263238"/>
<path d="M211.48 159.458C211.478 159.403 211.488 159.348 211.508 159.297C211.528 159.245 211.558 159.198 211.597 159.159C211.635 159.12 211.681 159.089 211.732 159.068C211.783 159.047 211.838 159.036 211.893 159.037C211.942 159.037 211.99 159.047 212.034 159.066C212.079 159.085 212.119 159.113 212.153 159.148C212.186 159.183 212.213 159.224 212.23 159.269C212.247 159.315 212.255 159.363 212.253 159.411C212.256 159.466 212.248 159.52 212.229 159.571C212.21 159.622 212.181 159.669 212.143 159.708C212.106 159.747 212.061 159.779 212.011 159.8C211.961 159.821 211.908 159.832 211.853 159.832C211.754 159.832 211.659 159.793 211.589 159.723C211.519 159.653 211.48 159.557 211.48 159.458Z" fill="#263238"/>
<path d="M98.6666 59.7858C98.6666 60.1505 98.5587 60.5069 98.3565 60.8101C98.1543 61.1133 97.8669 61.3496 97.5307 61.4892C97.1945 61.6287 96.8245 61.6652 96.4676 61.5941C96.1107 61.5229 95.7828 61.3473 95.5255 61.0895C95.2682 60.8317 95.0929 60.5031 95.0219 60.1455C94.9509 59.7879 94.9874 59.4172 95.1266 59.0803C95.2659 58.7434 95.5017 58.4554 95.8043 58.2529C96.1069 58.0503 96.4627 57.9421 96.8266 57.9421C97.3146 57.9421 97.7826 58.1364 98.1277 58.4821C98.4727 58.8279 98.6666 59.2968 98.6666 59.7858Z" fill="#263238"/>
<path d="M106.507 59.7858C106.507 60.1505 106.399 60.5069 106.197 60.8101C105.994 61.1133 105.707 61.3496 105.371 61.4892C105.035 61.6287 104.665 61.6652 104.308 61.5941C103.951 61.5229 103.623 61.3473 103.366 61.0895C103.108 60.8317 102.933 60.5031 102.862 60.1455C102.791 59.7879 102.827 59.4172 102.967 59.0803C103.106 58.7434 103.342 58.4554 103.644 58.2529C103.947 58.0503 104.303 57.9421 104.667 57.9421C105.155 57.9421 105.623 58.1364 105.968 58.4821C106.313 58.8279 106.507 59.2968 106.507 59.7858Z" fill="#263238"/>
<path d="M114.32 59.7858C114.32 60.1508 114.212 60.5075 114.009 60.8108C113.807 61.1142 113.519 61.3505 113.182 61.4898C112.846 61.6291 112.476 61.6653 112.118 61.5936C111.761 61.5219 111.434 61.3456 111.176 61.0871C110.919 60.8286 110.745 60.4995 110.674 60.1414C110.604 59.7833 110.642 59.4124 110.782 59.0756C110.922 58.7389 111.159 58.4514 111.462 58.2496C111.766 58.0478 112.122 57.9408 112.487 57.9422C112.973 57.9439 113.44 58.1389 113.783 58.4845C114.127 58.8301 114.32 59.298 114.32 59.7858Z" fill="#263238"/>
<path d="M313.813 209.805C362.164 209.805 401.36 170.531 401.36 122.084C401.36 73.6362 362.164 34.3618 313.813 34.3618C265.463 34.3618 226.267 73.6362 226.267 122.084C226.267 170.531 265.463 209.805 313.813 209.805Z" fill="#F5F5F5"/>
<path d="M401.333 122.084C401.333 122.084 401.333 121.603 401.28 120.661C401.28 120.186 401.247 119.605 401.227 118.911C401.207 118.216 401.227 117.401 401.107 116.492C400.987 115.584 400.953 114.549 400.86 113.426C400.767 112.304 400.567 111.068 400.4 109.739C399.962 106.683 399.37 103.65 398.627 100.654C397.672 96.908 396.474 93.2284 395.04 89.6388C393.349 85.3637 391.312 81.235 388.947 77.2942C383.185 67.6552 375.646 59.2018 366.733 52.3844C355.905 44.1257 343.297 38.521 329.92 36.0184C318.585 33.9186 306.95 34.0525 295.667 36.4126C287.638 38.1094 279.893 40.9482 272.667 44.8427C268.924 46.8671 265.326 49.1506 261.9 51.6764C254.834 56.9066 248.598 63.179 243.407 70.2802C240.736 73.9179 238.353 77.7595 236.28 81.7698C235.78 82.7918 235.207 83.7738 234.76 84.8359L233.333 87.9621C232.487 90.093 231.62 92.2306 230.92 94.435C229.443 98.8502 228.329 103.379 227.587 107.975C226.856 112.639 226.473 117.35 226.44 122.07C226.47 126.79 226.851 131.502 227.58 136.165C228.325 140.765 229.44 145.298 230.913 149.719L231.473 151.355L231.747 152.177L232.06 152.979C232.504 154.056 232.927 155.127 233.327 156.192L234.74 159.318C235.187 160.367 235.76 161.362 236.26 162.384C238.333 166.396 240.715 170.24 243.387 173.88C246.018 177.443 248.896 180.816 252 183.974C255.089 187.034 258.384 189.88 261.86 192.491C265.302 195.013 268.913 197.297 272.667 199.324C276.325 201.274 280.112 202.972 284 204.408C287.818 205.776 291.722 206.892 295.687 207.748C306.97 210.109 318.605 210.243 329.94 208.142C343.315 205.635 355.92 200.028 366.747 191.769C375.663 184.954 383.204 176.5 388.967 166.86C391.327 162.917 393.363 158.789 395.053 154.515C396.501 150.93 397.708 147.252 398.667 143.506C399.493 140.12 400.073 137.08 400.447 134.422C400.607 133.086 400.787 131.87 400.907 130.741C401.027 129.612 401.073 128.59 401.147 127.675C401.22 126.76 401.253 125.951 401.267 125.257C401.28 124.562 401.307 123.974 401.32 123.506C401.32 122.565 401.373 122.084 401.373 122.084C401.373 122.084 401.373 122.565 401.373 123.506C401.373 123.974 401.373 124.562 401.333 125.257C401.293 125.951 401.333 126.766 401.227 127.681C401.12 128.597 401.087 129.619 401 130.748C400.913 131.876 400.72 133.106 400.56 134.435C400.131 137.498 399.545 140.537 398.807 143.54C397.869 147.296 396.68 150.985 395.247 154.582C393.557 158.882 391.517 163.035 389.147 167C383.386 176.672 375.84 185.157 366.913 192.003C356.059 200.29 343.416 205.912 330 208.416C318.627 210.528 306.952 210.404 295.627 208.048C287.547 206.357 279.752 203.511 272.48 199.598C268.722 197.566 265.109 195.276 261.667 192.745C258.175 190.125 254.865 187.271 251.76 184.201C248.638 181.03 245.742 177.644 243.093 174.067C240.41 170.413 238.016 166.553 235.933 162.524C235.433 161.502 234.86 160.52 234.407 159.451L232.987 156.312C232.567 155.236 232.147 154.168 231.72 153.092L231.4 152.284L231.127 151.462L230.567 149.812C229.086 145.375 227.971 140.824 227.233 136.205C225.7 126.835 225.7 117.278 227.233 107.909C227.971 103.291 229.086 98.7427 230.567 94.3081C231.267 92.097 232.14 89.9594 232.987 87.8152L234.407 84.6756C234.86 83.6201 235.433 82.6248 235.933 81.6028C238.014 77.575 240.408 73.7177 243.093 70.0664C245.739 66.4868 248.635 63.1004 251.76 59.9328C254.868 56.8787 258.18 54.0398 261.673 51.4359C265.113 48.8926 268.726 46.5935 272.487 44.5555C279.758 40.6425 287.554 37.7967 295.633 36.1053C306.955 33.741 318.629 33.614 330 35.7312C343.415 38.2581 356.054 43.8948 366.907 52.1907C375.835 59.0345 383.381 67.5202 389.14 77.194C391.5 81.1492 393.534 85.2913 395.22 89.5787C396.652 93.1754 397.841 96.8643 398.78 100.621C399.6 104.014 400.167 107.067 400.533 109.726C400.693 111.062 400.867 112.284 400.973 113.413C401.08 114.542 401.133 115.571 401.2 116.486C401.267 117.401 401.333 118.236 401.333 118.904C401.333 119.572 401.333 120.186 401.373 120.661C401.333 121.576 401.333 122.084 401.333 122.084Z" fill="#263238"/>
<mask id="mask0_230_1164" style="mask-type:luminance" maskUnits="userSpaceOnUse" x="234" y="40" width="160" height="137">
<path d="M278.733 152.705C272.396 145.969 268.18 137.512 266.613 128.389C265.046 119.266 266.197 109.883 269.922 101.412C273.646 92.9412 279.78 85.7579 287.556 80.76C295.332 75.7621 304.406 73.1714 313.643 73.3114C322.88 73.4515 331.872 76.3162 339.493 81.5475C347.115 86.7788 353.029 94.1448 356.496 102.725C359.963 111.305 360.83 120.719 358.988 129.79C357.146 138.861 352.677 147.186 346.14 153.727L369.793 176.866C380.932 165.788 388.546 151.652 391.675 136.243C394.805 120.833 393.31 104.84 387.378 90.2808C381.446 75.7218 371.344 63.2493 358.346 54.4369C345.347 45.6245 330.035 40.867 314.341 40.7646C298.648 40.6623 283.275 45.2196 270.164 53.8618C257.052 62.5039 246.788 74.8436 240.668 89.324C234.548 103.804 232.845 119.777 235.774 135.226C238.703 150.675 246.133 164.909 257.126 176.132L278.733 152.705Z" fill="white"/>
</mask>
<g mask="url(#mask0_230_1164)">
<path d="M278.733 152.705C272.396 145.969 268.18 137.512 266.613 128.389C265.046 119.266 266.197 109.883 269.921 101.412C273.646 92.9412 279.78 85.7579 287.556 80.76C295.332 75.7621 304.406 73.1714 313.643 73.3114C322.88 73.4515 331.871 76.3162 339.493 81.5475C347.115 86.7788 353.029 94.1448 356.496 102.725C359.963 111.305 360.83 120.719 358.988 129.79C357.146 138.861 352.677 147.186 346.14 153.727L369.793 176.866C380.931 165.788 388.546 151.652 391.675 136.243C394.805 120.833 393.309 104.84 387.378 90.2808C381.446 75.7218 371.344 63.2493 358.345 54.4369C345.347 45.6245 330.035 40.867 314.341 40.7646C298.647 40.6623 283.275 45.2196 270.163 53.8618C257.052 62.5039 246.788 74.8436 240.668 89.324C234.547 103.804 232.844 119.777 235.773 135.226C238.703 150.675 246.133 164.909 257.126 176.132L278.733 152.705Z" fill="#54B862"/>
<g opacity="0.8">
<path d="M355.386 119.986H398.113C398.113 119.986 393.793 154.836 392.926 155.484C392.06 156.132 366.786 185.357 366.786 185.357L338.053 151.155L355.386 119.986Z" fill="black"/>
</g>
<g opacity="0.7">
<path d="M343.86 91.162L374.093 61.4226L395.38 93.2461L398.22 119.986H355.9L348.193 102.986L343.86 91.162Z" fill="black"/>
</g>
<g opacity="0.5">
<path d="M315.673 80.3738C315.16 79.5054 315.673 37.5149 315.673 37.5149L341.726 40.7948L373.806 61.5429L342.986 91.8433L323.58 89.031L315.673 80.3738Z" fill="black"/>
</g>
<g opacity="0.3">
<path d="M253.613 63.0591C254.28 63.2729 282.346 93.3596 282.346 93.3596L307.406 83.4064L315.446 73.3864L315.673 37.5415L285.806 40.8214L253.613 63.0591Z" fill="black"/>
</g>
<g opacity="0.1">
<path d="M231.553 119.986C232.22 120.42 279.08 119.986 279.08 119.986L278.253 89.0712L255.626 65.0232L240.193 83.4066L231.553 119.986Z" fill="black"/>
</g>
</g>
<path d="M314.7 140.36C324.774 140.36 332.94 132.177 332.94 122.084C332.94 111.99 324.774 103.807 314.7 103.807C304.626 103.807 296.46 111.99 296.46 122.084C296.46 132.177 304.626 140.36 314.7 140.36Z" fill="#E0E0E0"/>
<path d="M309.333 123.306C309.716 124.62 310.601 125.728 311.797 126.39C312.992 127.052 314.4 127.214 315.713 126.84L379.153 108.804L313.68 116.699C312.934 116.79 312.217 117.043 311.578 117.439C310.94 117.836 310.394 118.366 309.981 118.995C309.567 119.624 309.295 120.335 309.183 121.079C309.072 121.823 309.123 122.583 309.333 123.306Z" fill="#455A64"/>
<path d="M304.96 161.616L301.473 179.351H296.847L298.667 169.999L292.773 177.601H290.573L287.333 170.006L285.467 179.358H280.86L284.4 161.622H288.473L292.667 171.876L300.667 161.616H304.96Z" fill="#263238"/>
<path d="M322 165.617L319.267 179.351H314.713L314.993 178.062C313.921 179.069 312.496 179.613 311.027 179.578C308.067 179.578 305.233 177.327 305.233 173.319C305.233 168.763 308.567 165.39 312.667 165.39C314.513 165.39 316 165.951 316.867 167.267L317.193 165.617H322ZM315.953 171.876C315.984 171.525 315.939 171.171 315.819 170.84C315.7 170.508 315.51 170.206 315.263 169.956C315.015 169.705 314.716 169.512 314.386 169.389C314.057 169.266 313.704 169.217 313.353 169.244C311.453 169.244 310.087 170.787 310.087 173.092C310.056 173.443 310.103 173.796 310.223 174.127C310.343 174.457 310.534 174.758 310.782 175.007C311.031 175.256 311.331 175.447 311.661 175.567C311.991 175.688 312.343 175.734 312.693 175.704C314.62 175.684 315.96 174.161 315.96 171.876H315.953Z" fill="#263238"/>
<path d="M332.667 172.538L336.38 179.351H331.273L329.4 175.757L326.067 179.351H320.667L327.52 172.344L323.9 165.664H328.933L330.753 169.164L334.02 165.664H339.333L332.667 172.538Z" fill="#263238"/>
<path d="M337.66 176.946C337.649 176.538 337.721 176.132 337.873 175.754C338.024 175.375 338.252 175.031 338.541 174.744C338.83 174.456 339.175 174.231 339.554 174.083C339.934 173.934 340.34 173.865 340.747 173.88C341.099 173.86 341.451 173.915 341.781 174.039C342.111 174.164 342.411 174.356 342.662 174.604C342.913 174.852 343.11 175.15 343.239 175.479C343.368 175.807 343.428 176.159 343.413 176.512C343.423 176.918 343.351 177.321 343.201 177.697C343.051 178.074 342.826 178.416 342.539 178.703C342.253 178.989 341.912 179.215 341.536 179.365C341.16 179.516 340.758 179.588 340.353 179.578C340.001 179.593 339.65 179.535 339.321 179.409C338.992 179.283 338.692 179.091 338.44 178.844C338.188 178.598 337.989 178.302 337.855 177.976C337.72 177.65 337.654 177.299 337.66 176.946Z" fill="#263238"/>
<path d="M305.88 192.618H311.406L311.14 193.994H303.2L303.42 192.918L308.8 188.603C310.287 187.401 310.727 186.673 310.727 185.771C310.727 184.869 310.06 184.174 308.567 184.174C308.032 184.174 307.502 184.283 307.01 184.494C306.519 184.706 306.075 185.015 305.707 185.403L304.667 184.488C305.2 183.933 305.843 183.496 306.555 183.203C307.266 182.911 308.031 182.771 308.8 182.792C311.04 182.792 312.32 183.934 312.32 185.564C312.32 186.846 311.767 187.955 309.873 189.451L305.88 192.618Z" fill="#263238"/>
<path d="M316.667 184.294L315.753 187.334H316.827C319.653 187.334 320.933 188.503 320.933 190.293C320.933 192.584 319.053 194.121 316.227 194.121C315.522 194.165 314.815 194.065 314.15 193.826C313.485 193.587 312.876 193.214 312.36 192.731L313.193 191.509C313.605 191.918 314.097 192.237 314.639 192.444C315.181 192.651 315.761 192.742 316.34 192.711C318.247 192.711 319.353 191.876 319.353 190.467C319.353 189.378 318.567 188.71 316.547 188.71H313.88L315.6 182.918H321.84L321.567 184.294H316.667Z" fill="#263238"/>
<path d="M322.447 190.053C322.447 186.212 324.613 182.792 328.04 182.792C330.36 182.792 331.767 184.295 331.767 186.86C331.767 190.707 329.587 194.121 326.193 194.121C323.853 194.121 322.447 192.618 322.447 190.053ZM330.187 186.893C330.187 185.136 329.333 184.221 327.913 184.221C325.42 184.221 324.027 187.467 324.027 190.046C324.027 191.803 324.88 192.718 326.32 192.718C328.793 192.711 330.187 189.471 330.187 186.893Z" fill="#263238"/>
<path d="M409.293 302.951L412.127 307.534L419.34 299.184L415.54 295.142L409.293 302.951Z" fill="#54B862"/>
<path d="M418.7 298.329C418.431 298.796 418.107 299.229 417.733 299.618C417.066 300.379 416.18 301.401 415.146 302.51L412.48 305.329C412.134 305.742 411.745 306.116 411.32 306.445C411.597 305.983 411.923 305.553 412.293 305.162C412.96 304.401 413.853 303.379 414.88 302.27L417.547 299.451C417.892 299.039 418.279 298.663 418.7 298.329Z" fill="#263238"/>
<path d="M412.06 298.763C412.726 299.171 413.324 299.68 413.833 300.273C414.426 300.779 414.941 301.371 415.36 302.029C414.697 301.618 414.099 301.109 413.587 300.52C412.996 300.011 412.482 299.419 412.06 298.763Z" fill="#263238"/>
<g opacity="0.6">
<path d="M412.127 307.534L419.34 299.184L418.627 298.416L411.26 306.525L412.033 307.454" fill="white"/>
</g>
<path d="M352.387 313.9V312.771L363.78 312.858V316.572L363.113 316.612C359.98 316.759 347.18 317.139 345.113 316.538C342.727 315.864 352.387 313.9 352.387 313.9Z" fill="#54B862"/>
<g opacity="0.6">
<path d="M359.667 316.465C359.851 315.556 360.376 314.753 361.133 314.22C361.906 313.664 362.851 313.399 363.8 313.472V316.425L359.667 316.465Z" fill="white"/>
</g>
<g opacity="0.6">
<path d="M347.667 315.015C347.667 315.015 344.28 315.904 344.693 316.425C345.107 316.946 358.06 317.013 363.773 316.572V316.338L348.667 316.378C348.667 316.378 348.327 315.042 347.667 315.015Z" fill="white"/>
</g>
<path d="M363.94 316.331H363.74H363.18L361.12 316.405C359.38 316.452 356.973 316.492 354.313 316.478C351.653 316.465 349.247 316.411 347.507 316.345L345.447 316.251L344.887 316.218H344.693H345.447L347.507 316.265C349.253 316.311 351.653 316.351 354.313 316.365C356.973 316.378 359.373 316.365 361.12 316.365L363.18 316.331H363.94Z" fill="#263238"/>
<path d="M348.667 316.545C348.581 316.223 348.455 315.914 348.293 315.623C348.1 315.353 347.876 315.107 347.627 314.888C347.971 315.002 348.261 315.24 348.44 315.556C348.642 315.843 348.724 316.198 348.667 316.545Z" fill="#263238"/>
<path d="M352 314.982C352 314.982 351.813 314.815 351.647 314.574C351.48 314.334 351.38 314.113 351.413 314.1C351.447 314.087 351.6 314.26 351.767 314.508C351.933 314.755 352.047 314.962 352 314.982Z" fill="#263238"/>
<path d="M352.94 314.534C352.94 314.534 352.733 314.447 352.54 314.28C352.347 314.113 352.213 313.96 352.24 313.933C352.389 313.985 352.524 314.072 352.633 314.187C352.827 314.354 352.967 314.508 352.94 314.534Z" fill="#263238"/>
<path d="M353.527 313.539C353.336 313.603 353.133 313.626 352.933 313.606C352.736 313.626 352.536 313.605 352.347 313.546C352.534 313.478 352.735 313.455 352.933 313.479C353.133 313.455 353.335 313.476 353.527 313.539Z" fill="#263238"/>
<path d="M353.733 312.838C353.531 312.955 353.3 313.016 353.067 313.011C352.841 313.046 352.61 313.016 352.4 312.924C352.62 312.891 352.844 312.877 353.067 312.884C353.286 312.844 353.51 312.829 353.733 312.838Z" fill="#263238"/>
<path d="M351.64 314.054C351.4 314.098 351.153 314.098 350.913 314.054C350.651 314.024 350.392 313.97 350.14 313.893C349.985 313.852 349.835 313.794 349.693 313.72C349.65 313.698 349.613 313.668 349.582 313.631C349.551 313.594 349.527 313.552 349.513 313.506C349.503 313.455 349.509 313.402 349.529 313.355C349.549 313.307 349.583 313.267 349.627 313.239C349.905 313.112 350.216 313.079 350.515 313.145C350.813 313.211 351.081 313.373 351.28 313.606C351.387 313.74 351.467 313.895 351.513 314.06C351.513 314.18 351.513 314.247 351.513 314.247C351.444 314.034 351.333 313.836 351.187 313.666C351.021 313.485 350.809 313.353 350.573 313.285C350.286 313.192 349.974 313.211 349.7 313.339C349.586 313.412 349.627 313.539 349.753 313.613C349.885 313.682 350.024 313.738 350.167 313.78C350.411 313.858 350.661 313.92 350.913 313.967C351.333 314.033 351.64 314.033 351.64 314.054Z" fill="#263238"/>
<path d="M351.453 314.087C351.409 314.019 351.379 313.942 351.365 313.861C351.351 313.781 351.354 313.699 351.373 313.619C351.398 313.44 351.467 313.271 351.573 313.125C351.639 313.021 351.73 312.935 351.837 312.874C351.943 312.814 352.064 312.78 352.187 312.778C352.222 312.783 352.256 312.796 352.286 312.815C352.316 312.834 352.342 312.859 352.363 312.888C352.383 312.917 352.398 312.95 352.405 312.985C352.413 313.02 352.413 313.056 352.407 313.092C352.388 313.202 352.345 313.307 352.28 313.399C352.182 313.548 352.065 313.685 351.933 313.806C351.816 313.929 351.672 314.022 351.513 314.08C351.513 314.08 351.66 313.96 351.86 313.746C351.977 313.621 352.082 313.484 352.173 313.339C352.273 313.192 352.34 312.938 352.173 312.905C352.007 312.871 351.807 313.058 351.693 313.192C351.587 313.319 351.513 313.47 351.48 313.633C351.451 313.782 351.442 313.935 351.453 314.087Z" fill="#263238"/>
<path d="M363.733 313.439C363.733 313.439 363.407 313.439 362.893 313.439C362.235 313.5 361.604 313.73 361.06 314.107C360.539 314.486 360.138 315.008 359.907 315.61C359.727 316.057 359.707 316.365 359.68 316.358C359.667 316.287 359.667 316.215 359.68 316.144C359.704 315.951 359.749 315.76 359.813 315.576C360.035 314.949 360.439 314.402 360.973 314.007C361.537 313.61 362.199 313.379 362.887 313.339C363.095 313.32 363.305 313.32 363.513 313.339C363.591 313.361 363.665 313.395 363.733 313.439Z" fill="#263238"/>
<path d="M358.247 315.429C357.143 315.619 356.016 315.619 354.913 315.429C354.913 315.389 355.653 315.429 356.567 315.429C357.48 315.429 358.24 315.396 358.247 315.429Z" fill="#263238"/>
<path d="M360.467 315.436C360.467 315.436 360.407 315.583 360.327 315.744C360.247 315.904 360.213 316.037 360.173 316.037C360.133 316.037 360.113 315.87 360.173 315.69C360.233 315.51 360.447 315.416 360.467 315.436Z" fill="#263238"/>
<path d="M361.333 314.474C361.333 314.474 361.287 314.608 361.167 314.715C361.047 314.822 360.933 314.895 360.907 314.868C360.88 314.842 360.953 314.735 361.073 314.628C361.193 314.521 361.287 314.448 361.333 314.474Z" fill="#263238"/>
<path d="M362.52 314.033C362.52 314.067 362.36 314.067 362.193 314.12C362.027 314.174 361.907 314.261 361.873 314.234C361.84 314.207 361.94 314.067 362.147 314C362.353 313.933 362.533 314 362.52 314.033Z" fill="#263238"/>
<path d="M363.373 313.826C363.373 313.86 363.32 313.913 363.227 313.947C363.133 313.98 363.047 313.987 363.033 313.947C363.02 313.907 363.087 313.86 363.18 313.826C363.273 313.793 363.333 313.8 363.373 313.826Z" fill="#263238"/>
<path d="M347.7 165.53L330.107 147.668L332.34 124.401L332.74 123.941C332.96 123.687 333.207 123.406 333.5 123.099C333.839 122.751 334.233 122.462 334.667 122.244C335.195 121.949 335.76 121.724 336.347 121.576C336.9 121.502 337.08 120.801 336.64 120.567C336.2 120.333 334.68 120.514 333.16 121.476C331.64 122.438 332.567 119.799 332.88 118.804C333.193 117.808 334.047 114.796 333.82 114.468C333.5 113.994 332.913 114.261 332.613 115.23C332.313 116.198 331.227 119.071 330.72 118.89C330.213 118.71 331.913 113.8 331.913 113.8C331.913 113.8 332.447 112.812 331.867 112.585C330.827 112.17 329.42 117.514 329.293 118.022C329.213 118.376 328.627 118.202 328.767 117.828C328.907 117.454 330.567 112.965 329.507 112.538C328.7 112.21 328.307 116.92 327.44 117.668C326.573 118.416 328.107 114.121 327.32 113.84C327.027 113.733 326.787 113.693 326.267 116.279C325.839 118.059 325.505 119.86 325.267 121.676L319.733 149.471L337.067 172.444L347.7 165.53Z" fill="#FFBE9D"/>
<path d="M356.667 114.388C355.94 114.802 358.213 118.757 357.227 118.182C356.24 117.608 355.013 113.032 354.28 113.506C353.313 114.121 355.773 118.216 355.953 118.576C356.133 118.937 355.613 119.204 355.467 118.864C355.253 118.383 352.913 113.386 351.967 113.974C351.44 114.301 352.14 115.183 352.14 115.183C352.14 115.183 354.673 119.712 354.22 119.973C353.767 120.233 352.173 117.635 351.7 116.713C351.227 115.791 350.613 115.651 350.367 116.178C350.207 116.539 351.58 119.378 352.067 120.273C352.553 121.168 353.927 123.613 352.26 122.945C350.593 122.277 349.067 122.371 348.68 122.678C348.293 122.985 348.593 123.64 349.147 123.613C349.751 123.655 350.347 123.776 350.92 123.974C351.4 124.117 351.851 124.343 352.253 124.642C352.593 124.889 352.887 125.123 353.147 125.31L353.627 125.691L363.133 149.178L354.5 169.318L367.887 174.314L373.887 147.675L360.093 121.756C359.534 120.015 358.882 118.304 358.14 116.633C357.167 114.154 356.94 114.228 356.667 114.388Z" fill="#FFBE9D"/>
<path d="M386.533 257.093L377.866 212.27L365.587 213.332V213.226L343.16 215.263C343.16 215.263 342.106 266.739 341.733 266.739L347.88 313.666L365.587 312.858L358.747 266.144L361.267 228.663L361.773 227.995L372 266.305L406.887 305.864L418.22 294.855L386.533 257.093Z" fill="#455A64"/>
<path d="M359.193 259.07C359.177 258.942 359.177 258.812 359.193 258.683C359.193 258.396 359.193 258.015 359.233 257.587C359.28 256.592 359.353 255.229 359.44 253.579C359.653 250.139 359.947 245.47 360.267 240.306C360.593 235.63 360.893 231.342 361.12 228.068V228.028L364.193 224.368L365.047 223.386C365.247 223.159 365.353 223.045 365.367 223.058C365.291 223.19 365.204 223.315 365.107 223.433L364.307 224.461L361.333 228.149V228.075C361.127 231.348 360.86 235.63 360.567 240.313C360.207 245.477 359.9 250.139 359.64 253.579C359.507 255.243 359.4 256.599 359.32 257.587C359.273 258.028 359.24 258.389 359.213 258.676C359.224 258.808 359.217 258.94 359.193 259.07Z" fill="#263238"/>
<path d="M365.56 213.226C365.735 214.648 365.793 216.082 365.733 217.514C365.793 218.946 365.735 220.38 365.56 221.803C365.329 218.948 365.329 216.08 365.56 213.226Z" fill="#263238"/>
<path d="M350.44 217.1C350.62 217.047 350.806 217.016 350.993 217.006L352.627 216.813C354.047 216.646 356.093 216.418 358.547 216.145H358.713V216.312C358.713 218.422 358.713 220.847 358.713 223.432V223.539L358.62 223.586L358.493 223.646L354.233 225.784L354.147 225.824L354.073 225.777L350.367 223.579L350.3 223.533V223.459C350.3 221.555 350.353 219.972 350.367 218.783L350.407 217.527C350.39 217.388 350.39 217.246 350.407 217.106C350.427 217.264 350.438 217.422 350.44 217.581C350.44 217.921 350.44 218.349 350.44 218.87C350.44 220.019 350.48 221.575 350.513 223.446L350.44 223.319L354.173 225.476H354.02L358.293 223.352L358.42 223.285L358.32 223.446C358.32 220.861 358.32 218.436 358.32 216.325L358.493 216.479C356.093 216.692 354.08 216.853 352.647 216.959L350.973 217.08C350.796 217.094 350.618 217.101 350.44 217.1Z" fill="#263238"/>
<path d="M367.707 215.416C367.888 215.369 368.073 215.34 368.26 215.33L369.893 215.129C371.313 214.962 373.36 214.735 375.813 214.461H375.98V214.635C375.98 216.739 375.98 219.171 375.98 221.749V221.856L375.88 221.903L375.753 221.97L371.473 224.08L371.393 224.114L371.313 224.074L367.607 221.869L367.54 221.829V221.776C367.54 219.872 367.593 218.289 367.613 217.1V215.837C367.597 215.697 367.597 215.556 367.613 215.416C367.633 215.574 367.644 215.732 367.647 215.891C367.647 216.238 367.647 216.659 367.647 217.18C367.647 218.329 367.687 219.885 367.72 221.756L367.647 221.636L371.38 223.793H371.333L375.607 221.669L375.733 221.609L375.633 221.762C375.633 219.184 375.633 216.752 375.633 214.648L375.8 214.802C373.4 215.016 371.387 215.176 369.953 215.283L368.28 215.403C368.089 215.419 367.898 215.423 367.707 215.416Z" fill="#263238"/>
<path d="M358.72 218.102C355.976 218.462 353.206 218.592 350.44 218.489C351.805 218.249 353.188 218.126 354.573 218.122C355.953 218.001 357.34 217.994 358.72 218.102Z" fill="#263238"/>
<path d="M375.833 216.526C373.146 216.959 370.428 217.167 367.707 217.147C369.039 216.867 370.393 216.704 371.753 216.659C373.107 216.502 374.472 216.457 375.833 216.526Z" fill="#263238"/>
<path d="M357.333 265.75C354.682 266.311 351.988 266.641 349.28 266.739C351.931 266.179 354.625 265.848 357.333 265.75Z" fill="#263238"/>
<path d="M385.413 258.062C385.413 258.162 383.493 258.843 381.287 260.066C379.08 261.288 377.473 262.597 377.4 262.517C377.683 262.16 378.017 261.847 378.393 261.589C379.251 260.905 380.163 260.293 381.12 259.758C382.076 259.234 383.073 258.787 384.1 258.422C384.515 258.232 384.959 258.11 385.413 258.062Z" fill="#263238"/>
<path d="M347.7 102.872C347.653 102.792 347.611 102.709 347.573 102.625L347.213 101.89C347.06 101.569 346.88 101.155 346.64 100.694L345.773 99.0976C345.44 98.5098 345.02 97.8752 344.587 97.1671C344.153 96.459 343.6 95.7442 343.027 94.9694C341.686 93.2358 340.213 91.6098 338.62 90.1063C334.438 86.2091 329.444 83.2909 324 81.5626C320.792 80.5522 317.456 80.01 314.093 79.9527C306.837 79.7942 299.685 81.7005 293.467 85.4504C290.58 87.1824 287.954 89.3169 285.667 91.7897C281.8 96.0026 278.913 101.022 277.213 106.486C276.579 108.582 276.106 110.723 275.8 112.892C275.687 113.847 275.6 114.749 275.54 115.564C275.48 116.379 275.46 117.147 275.467 117.828C275.473 118.51 275.467 119.111 275.507 119.639C275.547 120.166 275.58 120.607 275.6 120.975C275.62 121.342 275.647 121.589 275.66 121.79C275.666 121.883 275.666 121.977 275.66 122.07C275.638 121.98 275.622 121.889 275.613 121.796C275.613 121.596 275.56 121.322 275.527 120.981C275.493 120.641 275.427 120.18 275.393 119.645C275.36 119.111 275.353 118.51 275.327 117.828C275.3 117.147 275.327 116.385 275.367 115.55C275.407 114.715 275.493 113.82 275.6 112.878C275.873 110.691 276.319 108.529 276.933 106.412C278.616 100.899 281.503 95.8303 285.387 91.5759C287.687 89.0742 290.334 86.9167 293.247 85.1698C299.514 81.3746 306.732 79.449 314.053 79.6187C317.448 79.6822 320.816 80.2356 324.053 81.262C329.538 83.0236 334.56 85.9905 338.753 89.946C340.344 91.4691 341.813 93.1152 343.147 94.8692C343.72 95.6574 344.233 96.3989 344.693 97.1003C345.153 97.8017 345.533 98.4363 345.86 99.0508L346.7 100.667C346.933 101.135 347.1 101.549 347.247 101.883C347.393 102.217 347.493 102.451 347.573 102.631C347.622 102.708 347.664 102.789 347.7 102.872Z" fill="#263238"/>
<path d="M340.16 101.028C340.041 100.909 339.936 100.777 339.847 100.634C339.647 100.367 339.387 99.9661 338.993 99.4584C337.923 98.0308 336.742 96.6906 335.46 95.4504C333.566 93.6221 331.463 92.0255 329.193 90.6943C323.616 87.3857 317.165 85.8594 310.7 86.3189C308.077 86.4928 305.483 86.9771 302.973 87.7617C301.277 88.2984 299.625 88.9685 298.033 89.7657C297.467 90.0263 297.047 90.2801 296.747 90.4337C296.599 90.5193 296.446 90.593 296.287 90.6542C296.419 90.546 296.562 90.4519 296.713 90.3736C297 90.2066 297.38 89.9327 297.973 89.6522C299.548 88.8091 301.195 88.1072 302.893 87.5547C308.534 85.7026 314.575 85.4461 320.351 86.8132C326.128 88.1804 331.416 91.1183 335.633 95.3035C336.906 96.5575 338.066 97.921 339.1 99.3783C339.48 99.8859 339.72 100.313 339.907 100.594C339.999 100.734 340.084 100.879 340.16 101.028Z" fill="#263238"/>
<path d="M373.893 179.385L370.793 195.53C377.253 204.535 377.84 212.23 377.84 212.23L343.133 215.223C343.8 209.765 347.133 197.962 347.133 197.962L342.093 180.727L332 167.574L342 158.53C341.807 159.037 351.393 164.595 351.393 164.595L365.167 164.715C365.844 164.785 366.513 164.917 367.167 165.109L373.893 147.628C373.893 147.628 379.093 155.297 377.353 164.709C376.107 171.389 376.347 172.972 373.893 179.405" fill="#54B862"/>
<path d="M348.72 167.12C348.916 167.296 349.087 167.498 349.227 167.721C349.641 168.314 349.989 168.95 350.267 169.618C350.67 170.618 350.896 171.681 350.933 172.758C350.988 174.092 350.706 175.417 350.113 176.612C349.527 177.82 348.6 178.828 347.447 179.512C346.501 180.055 345.43 180.343 344.34 180.347C343.613 180.354 342.892 180.215 342.22 179.939C342.037 179.864 341.86 179.772 341.693 179.665C341.58 179.598 341.52 179.552 341.527 179.545C342.415 179.925 343.374 180.114 344.34 180.099C345.378 180.059 346.39 179.763 347.287 179.238C348.37 178.569 349.242 177.605 349.8 176.459C350.368 175.315 350.647 174.049 350.613 172.771C350.583 171.725 350.38 170.692 350.013 169.712C349.647 168.817 349.214 167.951 348.72 167.12Z" fill="#263238"/>
<path d="M372.7 178.877C372.64 178.877 372.94 178.209 373.233 177.147C373.999 174.334 373.764 171.341 372.567 168.683C372.107 167.668 371.713 167.093 371.76 167.06C371.807 167.027 371.893 167.18 372.087 167.434C372.341 167.795 372.564 168.177 372.753 168.576C373.425 169.903 373.833 171.348 373.953 172.831C374.071 174.314 373.896 175.805 373.44 177.22C373.308 177.649 373.138 178.064 372.933 178.463C372.813 178.743 372.72 178.89 372.7 178.877Z" fill="#263238"/>
<g opacity="0.3">
<path d="M368.047 194.562C367.852 194.413 367.622 194.318 367.38 194.288C367.138 194.257 366.891 194.292 366.667 194.388C365.909 194.636 365.127 194.798 364.333 194.869C362.847 194.902 361.507 194.061 360.133 193.486C358.76 192.912 357.02 192.658 355.933 193.673C355.545 194.055 355.298 194.559 355.234 195.101C355.17 195.642 355.292 196.19 355.58 196.652C355.925 197.144 356.445 197.484 357.033 197.601C360.5 198.583 363.48 197.861 366.873 196.499C367.299 196.366 367.683 196.124 367.987 195.797C368.139 195.631 368.228 195.416 368.239 195.19C368.25 194.965 368.182 194.742 368.047 194.562Z" fill="black"/>
</g>
<g opacity="0.3">
<path d="M342.58 158.396C341.076 160.216 340.312 162.536 340.44 164.896C340.667 167.22 342.24 169.478 344.493 170.079C346.04 170.487 347.726 170.119 349.24 170.634C352.033 171.576 353.513 175.243 356.453 175.503C359.12 175.744 361.046 173.052 363.526 172.063C364.848 171.655 366.209 171.39 367.587 171.275C370.407 170.814 373.18 169.451 374.826 167.113C376.473 164.775 376.74 161.369 375.026 159.097C373.193 156.652 369.793 156.051 366.747 156.051C362.117 156.052 357.534 156.979 353.267 158.777C352.332 159.124 351.465 159.632 350.707 160.28C350.326 160.605 350.021 161.008 349.81 161.462C349.6 161.917 349.489 162.411 349.486 162.912" fill="black"/>
</g>
<path d="M382.267 156.546C382.185 155.935 381.941 155.357 381.561 154.872C381.181 154.387 380.679 154.012 380.107 153.787C378.773 153.272 377.2 153.64 375.893 153.059C374.26 152.331 373.573 150.387 373.16 148.67C372.747 146.953 372.353 145.003 370.947 143.9C369.973 143.139 368.687 142.912 367.613 142.257C366.06 141.302 365.213 139.552 364.153 138.062C363.746 137.49 363.269 136.972 362.733 136.519L362.673 136.432C360.413 133.707 354.393 133.353 351.793 135.764L351.893 135.671C347.04 136.038 343.96 143.894 343.893 148.87C343.893 151.97 344.86 155.21 343.693 158.075C343.027 159.745 341.653 161.088 341.133 162.812C340.777 163.996 340.849 165.268 341.335 166.405C341.822 167.541 342.692 168.47 343.794 169.028C344.895 169.586 346.158 169.737 347.36 169.456C348.562 169.174 349.626 168.477 350.367 167.488C350.293 168.75 351.333 169.866 352.52 170.293C353.738 170.636 355.016 170.714 356.267 170.52C358.933 170.3 362.067 169.852 363.447 167.508C364.373 168.904 366.193 169.471 367.86 169.351C369.488 169.316 371.096 168.985 372.607 168.376C372.543 168.289 372.485 168.197 372.433 168.102C372.683 168.008 372.924 167.892 373.153 167.755C374.433 166.973 375.227 165.276 374.627 163.894L376.08 165.584C377.314 164.871 378.244 163.729 378.692 162.373C379.139 161.018 379.073 159.545 378.507 158.236C379.362 158.59 380.139 159.11 380.793 159.765C381.304 159.41 381.71 158.924 381.969 158.357C382.228 157.791 382.331 157.165 382.267 156.546Z" fill="#263238"/>
<path d="M381.653 158.617C381.732 158.071 381.622 157.514 381.34 157.04C381.005 156.493 380.515 156.059 379.933 155.791C379.146 155.466 378.31 155.271 377.46 155.216C376.4 155.159 375.356 154.933 374.367 154.548C373.812 154.298 373.326 153.915 372.953 153.433C372.57 152.922 372.279 152.348 372.093 151.736C371.68 150.507 371.587 149.151 371.18 147.862C370.987 147.205 370.68 146.588 370.273 146.038C369.858 145.494 369.266 145.111 368.6 144.956C367.933 144.789 367.187 144.802 366.46 144.655C365.73 144.524 365.061 144.161 364.553 143.62C363.54 142.571 363.14 141.222 362.693 140.053C362.328 138.927 361.715 137.897 360.9 137.04C360.017 136.128 358.907 135.469 357.684 135.132C356.461 134.795 355.171 134.792 353.947 135.123C353.416 135.277 352.895 135.462 352.387 135.677C352.503 135.589 352.628 135.513 352.76 135.45C353.129 135.261 353.515 135.106 353.913 134.989C355.395 134.545 356.98 134.592 358.433 135.123C359.436 135.492 360.346 136.075 361.1 136.833C361.96 137.709 362.608 138.772 362.993 139.939C363.447 141.122 363.853 142.418 364.8 143.38C365.26 143.871 365.865 144.201 366.527 144.321C367.193 144.455 367.933 144.435 368.68 144.622C369.425 144.804 370.084 145.238 370.547 145.851C370.981 146.432 371.304 147.089 371.5 147.788C371.92 149.124 372 150.46 372.4 151.663C372.534 152.233 372.79 152.767 373.15 153.228C373.511 153.69 373.967 154.067 374.487 154.335C375.446 154.713 376.458 154.939 377.487 155.003C378.363 155.08 379.219 155.306 380.02 155.671C380.623 155.958 381.123 156.425 381.453 157.007C381.664 157.376 381.766 157.798 381.747 158.222C381.735 158.358 381.703 158.491 381.653 158.617Z" fill="#455A64"/>
<path d="M373.133 168.242C373.133 168.242 373.273 168.182 373.5 168.022C373.824 167.78 374.059 167.437 374.167 167.047C374.359 166.435 374.318 165.773 374.053 165.19C373.644 164.442 373.032 163.825 372.287 163.413C371.487 162.905 370.5 162.524 369.527 161.903C369.016 161.588 368.565 161.185 368.193 160.714C367.797 160.199 367.505 159.611 367.333 158.984C367.067 157.662 366.895 156.323 366.82 154.976C366.653 153.64 366.24 152.177 365.053 151.355C363.867 150.534 362.387 150.3 361.327 149.218C360.433 148.175 359.869 146.889 359.707 145.524C359.5 144.255 359.413 143.045 359.127 141.963C358.861 140.961 358.409 140.018 357.793 139.184C356.883 137.975 355.678 137.02 354.293 136.412C353.307 136.005 352.713 135.925 352.72 135.885C352.864 135.886 353.007 135.904 353.147 135.938C353.556 136.021 353.957 136.14 354.347 136.292C355.784 136.863 357.041 137.811 357.987 139.037C358.64 139.887 359.122 140.856 359.407 141.89C359.713 142.999 359.807 144.221 360.027 145.464C360.181 146.765 360.72 147.991 361.573 148.984C362.5 149.966 364 150.206 365.26 151.075C365.876 151.521 366.355 152.132 366.64 152.838C366.907 153.508 367.082 154.212 367.16 154.929C367.226 156.255 367.387 157.574 367.64 158.877C367.787 159.461 368.047 160.011 368.407 160.494C368.757 160.943 369.183 161.328 369.667 161.629C370.6 162.237 371.587 162.638 372.407 163.172C373.181 163.617 373.809 164.279 374.213 165.076C374.494 165.71 374.518 166.429 374.28 167.08C374.146 167.486 373.878 167.835 373.52 168.069C373.403 168.151 373.272 168.21 373.133 168.242Z" fill="#455A64"/>
<path d="M357.033 169.705C357.315 169.317 357.469 168.85 357.473 168.369C357.473 167.82 357.355 167.278 357.127 166.779C356.873 166.185 356.46 165.564 356.113 164.775C355.712 163.945 355.613 163 355.833 162.103C356.14 161.109 356.551 160.151 357.06 159.244C357.612 158.274 357.912 157.181 357.933 156.065C357.909 154.87 357.5 153.714 356.767 152.771C356.033 151.783 355.127 150.948 354.413 149.973C354.053 149.497 353.761 148.973 353.547 148.416C353.357 147.875 353.243 147.311 353.207 146.739C353.168 145.698 353.248 144.656 353.447 143.633C353.62 142.75 353.746 141.858 353.827 140.961C353.982 139.682 353.735 138.386 353.12 137.254C352.868 136.856 352.565 136.492 352.22 136.172C352.333 136.226 352.437 136.298 352.527 136.385C352.803 136.611 353.042 136.879 353.233 137.18C353.916 138.32 354.211 139.652 354.073 140.975C354.005 141.87 353.891 142.762 353.733 143.647C353.548 144.646 353.479 145.664 353.527 146.679C353.562 147.222 353.675 147.758 353.86 148.269C354.066 148.795 354.344 149.29 354.687 149.739C355.353 150.674 356.287 151.502 357.047 152.531C357.819 153.533 358.249 154.758 358.273 156.025C358.248 157.198 357.93 158.346 357.347 159.365C356.842 160.251 356.428 161.186 356.113 162.157C355.887 163.001 355.967 163.898 356.34 164.689C356.667 165.43 357.06 166.071 357.307 166.693C357.529 167.222 357.632 167.795 357.607 168.369C357.591 168.732 357.48 169.084 357.287 169.391C357.223 169.511 357.137 169.618 357.033 169.705Z" fill="#455A64"/>
<path d="M345.333 169.158C345.244 169.068 345.177 168.958 345.14 168.837C345.018 168.486 345.018 168.105 345.14 167.755C345.333 167.205 345.686 166.725 346.153 166.379C346.757 165.953 347.327 165.482 347.86 164.969C348.443 164.305 348.822 163.486 348.953 162.611C349.077 161.6 348.913 160.574 348.48 159.652C347.97 158.59 347.741 157.415 347.813 156.238C348.049 155.01 348.476 153.826 349.08 152.731C349.657 151.669 349.964 150.481 349.973 149.271C349.861 148.134 349.62 147.013 349.253 145.931C348.632 144.047 348.577 142.022 349.093 140.106C349.468 138.821 350.226 137.681 351.267 136.84C351.548 136.617 351.852 136.424 352.173 136.265C352.284 136.203 352.403 136.158 352.527 136.132C352.109 136.371 351.711 136.641 351.333 136.94C350.364 137.797 349.668 138.922 349.333 140.173C348.868 142.045 348.949 144.011 349.567 145.838C349.95 146.933 350.203 148.07 350.32 149.224C350.322 150.492 350.006 151.739 349.4 152.852C348.818 153.916 348.4 155.062 348.16 156.252C348.1 157.378 348.33 158.5 348.827 159.512C349.03 160.016 349.184 160.54 349.287 161.075C349.373 161.588 349.373 162.111 349.287 162.624C349.136 163.55 348.719 164.412 348.087 165.103C347.54 165.62 346.949 166.087 346.32 166.499C345.87 166.816 345.52 167.257 345.313 167.768C345.181 168.09 345.155 168.446 345.24 168.783C345.287 169.044 345.367 169.151 345.333 169.158Z" fill="#455A64"/>
<path d="M69.9998 298.516C70.0287 298.414 70.069 298.315 70.1198 298.222L70.5131 297.374C70.9972 296.282 71.3875 295.151 71.6798 293.993C72.4465 290.987 72.7131 286.398 71.5798 280.941C70.9639 277.97 70.1555 275.042 69.1598 272.177C68.1398 269.064 66.9531 265.764 65.9798 262.197C64.8844 258.472 64.3563 254.603 64.4131 250.72C64.5598 246.659 65.7465 242.604 67.0798 238.576C68.4131 234.548 69.7465 230.56 70.1598 226.612C70.6222 222.795 69.866 218.93 67.9998 215.57C66.2531 212.344 64.0598 209.592 62.4131 206.733C60.8889 204.083 59.7655 201.222 59.0798 198.242C58.0896 193.919 58.0192 189.435 58.8731 185.083C59.1623 183.484 59.6089 181.917 60.2065 180.407C60.1889 180.511 60.1621 180.614 60.1265 180.714L59.8465 181.609C59.5029 182.751 59.2203 183.911 58.9998 185.083C58.2105 189.421 58.324 193.876 59.3331 198.169C60.0214 201.116 61.1449 203.944 62.6665 206.559C64.3065 209.378 66.5131 212.123 68.2931 215.383C70.2134 218.807 71.0045 222.751 70.5531 226.652C70.1398 230.694 68.7665 234.668 67.4531 238.676C66.1398 242.684 64.9531 246.692 64.7865 250.7C64.7291 254.541 65.2459 258.369 66.3198 262.056C67.2731 265.603 68.4465 268.91 69.4598 272.03C70.4474 274.912 71.2403 277.858 71.8331 280.847C72.9398 286.345 72.6265 290.981 71.8331 293.993C71.5238 295.156 71.1087 296.287 70.5931 297.374C70.4065 297.721 70.2665 297.995 70.1598 298.202C70.1139 298.31 70.0605 298.415 69.9998 298.516Z" fill="#263238"/>
<path d="M64.6199 209.552C64.6199 209.552 61.2866 198.864 67.2866 192.591C67.3301 192.529 67.3919 192.481 67.4635 192.455C67.5351 192.43 67.6129 192.427 67.6862 192.447C67.7594 192.468 67.8244 192.511 67.8723 192.57C67.9202 192.629 67.9484 192.702 67.9532 192.778C68.2266 194.542 68.6266 199.919 64.6199 209.552Z" fill="#54B862"/>
<path d="M66.6198 196.158C66.6147 196.832 66.5388 197.504 66.3931 198.162C66.1731 199.498 65.9198 201.115 65.6331 202.878C65.3465 204.642 65.0998 206.218 64.8865 207.594C64.829 208.256 64.7107 208.911 64.5331 209.552C64.474 208.884 64.4941 208.211 64.5931 207.548C64.6998 206.325 64.9198 204.642 65.2198 202.798C65.5198 200.954 65.8465 199.291 66.1065 198.122C66.2044 197.45 66.3766 196.792 66.6198 196.158Z" fill="#263238"/>
<path d="M68.5398 234.775C68.5398 234.775 70.5798 223.76 78.7998 221.028C78.8645 221.004 78.9346 220.999 79.002 221.014C79.0693 221.028 79.1312 221.061 79.1806 221.11C79.23 221.158 79.2649 221.219 79.2813 221.286C79.2976 221.353 79.2948 221.423 79.2731 221.489C78.7331 223.199 76.5731 228.142 68.5398 234.775Z" fill="#54B862"/>
<path d="M76.56 223.874C76.2412 224.455 75.866 225.003 75.44 225.51L72.5666 229.324L69.7066 233.132C69.3482 233.689 68.9374 234.21 68.48 234.688C68.7366 234.077 69.0656 233.498 69.46 232.965C70.1266 231.936 71.1066 230.547 72.2333 229.057C73.36 227.568 74.42 226.252 75.2066 225.316C75.6051 224.788 76.0588 224.305 76.56 223.874Z" fill="#263238"/>
<path d="M66.3199 262.417C66.3199 262.417 65.0799 251.281 72.1532 246.278C72.2082 246.237 72.2736 246.212 72.342 246.206C72.4104 246.2 72.4791 246.214 72.5402 246.245C72.6014 246.276 72.6525 246.324 72.6878 246.383C72.7231 246.442 72.7411 246.51 72.7399 246.579C72.7199 248.376 72.0866 253.733 66.3199 262.417Z" fill="#54B862"/>
<path d="M70.8333 249.652C70.7009 250.301 70.5021 250.934 70.24 251.542L68.5933 256.031C67.98 257.708 67.4333 259.224 66.96 260.52C66.781 261.157 66.5398 261.774 66.24 262.364C66.3088 261.703 66.4565 261.052 66.68 260.426C67.02 259.251 67.5533 257.641 68.2 255.884C68.8467 254.127 69.48 252.544 69.96 251.435C70.1859 250.811 70.4788 250.213 70.8333 249.652Z" fill="#263238"/>
<path d="M72.5066 290.219C72.5066 290.219 71.6666 279.044 78.9132 274.301C78.9695 274.262 79.0355 274.24 79.1036 274.237C79.1718 274.234 79.2394 274.25 79.299 274.283C79.3586 274.316 79.4077 274.366 79.4408 274.426C79.474 274.485 79.4898 274.553 79.4866 274.621C79.3999 276.412 78.5799 281.749 72.5066 290.219Z" fill="#54B862"/>
<path d="M77.4732 277.621C77.3173 278.268 77.0939 278.897 76.8065 279.498C76.2865 280.767 75.6732 282.263 74.9998 283.92L73.2132 288.342C73.0077 288.973 72.7443 289.584 72.4265 290.166C72.5181 289.507 72.6882 288.861 72.9332 288.242C73.3132 287.08 73.9065 285.49 74.6132 283.76C75.3198 282.03 76.0132 280.487 76.5332 279.378C76.7864 278.762 77.1014 278.173 77.4732 277.621Z" fill="#263238"/>
<path d="M59.8199 200.153C59.8199 200.153 49.9066 194.962 49.7132 186.292C49.7116 186.223 49.7287 186.156 49.7627 186.096C49.7967 186.037 49.8463 185.988 49.9061 185.955C49.9659 185.922 50.0337 185.906 50.1019 185.909C50.1702 185.912 50.2364 185.933 50.2932 185.971C51.7666 186.993 55.8466 190.513 59.8199 200.153Z" fill="#54B862"/>
<path d="M51.7732 189.271C52.2363 189.746 52.6496 190.268 53.0065 190.827L55.8065 194.695L58.6065 198.563C59.034 199.07 59.4134 199.615 59.7399 200.193C59.2376 199.766 58.7898 199.28 58.4065 198.743C57.6199 197.801 56.5865 196.459 55.4999 194.942C54.4132 193.426 53.4599 192.023 52.8332 190.994C52.4168 190.461 52.0612 189.883 51.7732 189.271Z" fill="#263238"/>
<path d="M70.4666 223.112C70.4666 223.112 60.2599 218.536 59.5399 209.892C59.5327 209.824 59.5445 209.756 59.574 209.694C59.6036 209.632 59.6497 209.58 59.7072 209.544C59.7647 209.507 59.8313 209.487 59.8995 209.486C59.9677 209.485 60.0348 209.503 60.0933 209.538C61.6266 210.48 65.9199 213.76 70.4666 223.112Z" fill="#54B862"/>
<path d="M61.7732 212.751C62.2666 213.197 62.7134 213.691 63.1065 214.228C63.9799 215.29 64.9999 216.545 66.1332 217.922L69.1665 221.609C69.6193 222.091 70.0297 222.612 70.3932 223.165C69.8571 222.782 69.3711 222.334 68.9465 221.829C68.1065 220.941 66.9865 219.665 65.8065 218.215C64.6265 216.766 63.5999 215.423 62.8732 214.435C62.4457 213.916 62.0768 213.351 61.7732 212.751Z" fill="#263238"/>
<path d="M64.5931 248.743C64.5931 248.743 57.5865 240.012 60.8731 231.99C60.8961 231.923 60.938 231.864 60.9937 231.82C61.0494 231.776 61.1166 231.75 61.187 231.743C61.2575 231.737 61.3283 231.751 61.3909 231.784C61.4535 231.817 61.5052 231.868 61.5398 231.93C62.4731 233.453 64.8065 238.316 64.5931 248.743Z" fill="#54B862"/>
<path d="M61.5667 235.543C61.8003 236.164 61.9723 236.806 62.08 237.461C62.3667 238.797 62.7133 240.386 63.0933 242.137C63.4733 243.887 63.82 245.477 64.12 246.813C64.3055 247.448 64.4327 248.098 64.5 248.757C64.2001 248.164 63.9761 247.535 63.8333 246.886C63.4867 245.71 63.0733 244.067 62.68 242.21C62.2866 240.353 62.0133 238.716 61.7867 237.534C61.6416 236.88 61.5678 236.213 61.5667 235.543Z" fill="#263238"/>
<path d="M71.54 278.897C71.54 278.897 61.4067 274.147 60.8333 265.496C60.8266 265.428 60.8391 265.359 60.8695 265.297C60.8998 265.236 60.9469 265.184 61.0052 265.148C61.0636 265.112 61.1309 265.093 61.1995 265.093C61.2681 265.093 61.3352 265.113 61.3933 265.149C62.9133 266.104 67.1467 269.438 71.54 278.897Z" fill="#54B862"/>
<path d="M63.02 268.382C63.514 268.834 63.9608 269.336 64.3534 269.879L67.3134 273.626L70.2867 277.36C70.7346 277.847 71.1363 278.375 71.4867 278.937C70.937 278.538 70.4377 278.074 70 277.554C69.18 276.645 68.08 275.35 66.9267 273.887C65.7734 272.424 64.7667 271.054 64.06 270.059C63.653 269.54 63.3042 268.978 63.02 268.382Z" fill="#263238"/>
<path d="M91.72 234.835C91.7299 234.918 91.7299 235.001 91.72 235.083C91.72 235.276 91.72 235.51 91.72 235.797C91.72 236.465 91.6466 237.381 91.6 238.516C91.4666 240.908 91.2866 244.234 91.0666 248.222C90.34 252.277 88.28 256.773 85.5133 261.135C83.5133 264.348 81.3533 267.274 79.5133 269.992C77.8417 272.364 76.338 274.851 75.0133 277.434C74.1478 279.187 73.4448 281.016 72.9133 282.898C72.7333 283.566 72.6 284.094 72.5266 284.448C72.4958 284.633 72.4444 284.815 72.3733 284.989C72.3803 284.803 72.4026 284.617 72.44 284.434C72.4933 284.067 72.6 283.539 72.7533 282.858C73.2313 280.945 73.9014 279.085 74.7533 277.307C76.0511 274.693 77.5373 272.176 79.2 269.779C81.02 267.04 83.14 264.114 85.16 260.914C87.9133 256.572 89.9666 252.143 90.7133 248.155C90.9933 244.147 91.2266 240.847 91.38 238.463C91.4666 237.334 91.54 236.425 91.5933 235.751C91.5933 235.47 91.6466 235.236 91.6666 235.036C91.6866 234.835 91.7066 234.835 91.72 234.835Z" fill="#263238"/>
<path d="M85.6865 260.32C85.6865 260.32 89.9732 249.972 84.5798 243.192C84.5402 243.131 84.4832 243.083 84.4163 243.054C84.3494 243.026 84.2755 243.018 84.204 243.031C84.1325 243.045 84.0667 243.08 84.0149 243.131C83.9631 243.182 83.9277 243.247 83.9132 243.319C83.4532 245.049 82.5665 250.373 85.6865 260.32Z" fill="#54B862"/>
<path d="M84.9065 246.799C85.0889 247.438 85.2028 248.094 85.2465 248.757C85.3932 249.972 85.5665 251.662 85.6998 253.526C85.8332 255.39 85.8932 257.087 85.8932 258.309C85.9349 258.979 85.8946 259.652 85.7732 260.313C85.656 259.651 85.5979 258.981 85.5998 258.309C85.5065 256.933 85.3998 255.323 85.2798 253.539C85.1598 251.756 85.0465 250.146 84.9465 248.777C84.8652 248.121 84.8518 247.458 84.9065 246.799Z" fill="#263238"/>
<g opacity="0.3">
<path d="M85.6865 260.32C85.6865 260.32 89.9732 249.972 84.5798 243.192C84.5402 243.131 84.4832 243.083 84.4163 243.054C84.3494 243.026 84.2755 243.018 84.204 243.031C84.1325 243.045 84.0667 243.08 84.0149 243.131C83.9631 243.182 83.9277 243.247 83.9132 243.319C83.4532 245.049 82.5665 250.373 85.6865 260.32Z" fill="black"/>
</g>
<path d="M72.3933 285.236C72.3933 285.236 75.8333 274.548 69.9066 268.249C69.8616 268.19 69.8002 268.146 69.7301 268.122C69.66 268.098 69.5844 268.096 69.513 268.115C69.4416 268.135 69.3775 268.175 69.3289 268.231C69.2802 268.287 69.2493 268.356 69.24 268.429C68.9333 270.219 68.48 275.597 72.3933 285.236Z" fill="#54B862"/>
<path d="M70.52 271.876C70.763 272.495 70.9308 273.141 71.02 273.8C71.2667 274.996 71.5734 276.666 71.86 278.509C72.1467 280.353 72.34 282.043 72.44 283.265C72.5403 283.929 72.5537 284.602 72.48 285.269C72.3123 284.628 72.2007 283.973 72.1467 283.312C71.9467 281.976 71.7067 280.353 71.48 278.589C71.2534 276.826 70.9667 275.249 70.76 273.867C70.6161 273.212 70.5358 272.546 70.52 271.876Z" fill="#263238"/>
<g opacity="0.3">
<path d="M72.3933 285.236C72.3933 285.236 75.8333 274.548 69.9066 268.249C69.8616 268.19 69.8002 268.146 69.7301 268.122C69.66 268.098 69.5844 268.096 69.513 268.115C69.4416 268.135 69.3775 268.175 69.3289 268.231C69.2802 268.287 69.2493 268.356 69.24 268.429C68.9333 270.219 68.48 275.597 72.3933 285.236Z" fill="black"/>
</g>
<path d="M91.1465 247.674C91.1465 247.674 100.313 241.248 99.3865 232.624C99.3808 232.556 99.3561 232.49 99.3151 232.435C99.2742 232.38 99.2186 232.337 99.1547 232.312C99.0908 232.287 99.0211 232.281 98.9537 232.293C98.8863 232.306 98.8237 232.337 98.7732 232.384C97.4398 233.586 93.8465 237.601 91.1465 247.674Z" fill="#54B862"/>
<g opacity="0.3">
<path d="M91.1465 247.674C91.1465 247.674 100.313 241.248 99.3865 232.624C99.3808 232.556 99.3561 232.49 99.3151 232.435C99.2742 232.38 99.2186 232.337 99.1547 232.312C99.0908 232.287 99.0211 232.281 98.9537 232.293C98.8863 232.306 98.8237 232.337 98.7732 232.384C97.4398 233.586 93.8465 237.601 91.1465 247.674Z" fill="black"/>
</g>
<path d="M97.7267 235.844C97.5458 236.484 97.2908 237.101 96.9667 237.681C96.4467 238.79 95.6867 240.3 94.8 241.943C93.9133 243.586 93.06 245.056 92.4067 246.091C92.0841 246.673 91.6923 247.214 91.24 247.701C91.4877 247.087 91.7912 246.496 92.1467 245.937L94.4333 241.749L96.7067 237.547C96.9898 236.947 97.3314 236.377 97.7267 235.844Z" fill="#263238"/>
<path d="M76.0867 274.688C76.0867 274.688 87.14 272.965 90.0867 264.815C90.1112 264.751 90.1175 264.681 90.1048 264.613C90.092 264.545 90.0608 264.482 90.0146 264.431C89.9684 264.38 89.9089 264.342 89.8428 264.323C89.7767 264.304 89.7065 264.303 89.64 264.321C87.9333 264.815 82.94 266.833 76.0867 274.688Z" fill="#54B862"/>
<g opacity="0.3">
<path d="M76.0867 274.688C76.0867 274.688 87.14 272.965 90.0867 264.815C90.1112 264.751 90.1175 264.681 90.1048 264.613C90.092 264.545 90.0608 264.482 90.0146 264.431C89.9684 264.38 89.9089 264.342 89.8428 264.323C89.7767 264.304 89.7065 264.303 89.64 264.321C87.9333 264.815 82.94 266.833 76.0867 274.688Z" fill="black"/>
</g>
<path d="M87.2 266.973C86.7542 267.473 86.2532 267.922 85.7066 268.309C84.7533 269.077 83.4066 270.099 81.8866 271.181C80.3666 272.263 78.96 273.185 77.8866 273.853C77.3422 274.235 76.7534 274.549 76.1333 274.788C76.6236 274.342 77.1574 273.946 77.7266 273.606L81.6133 270.847L85.5 268.082C86.0268 267.654 86.5965 267.283 87.2 266.973Z" fill="#263238"/>
<path d="M65.5467 295.069L62.3267 316.806H82.4133L79.8067 295.069H65.5467Z" fill="#455A64"/>
<path d="M80.6133 301.802C80.6133 301.916 76.9867 302.009 72.5133 302.009C68.04 302.009 64.4133 301.916 64.4133 301.802C64.4133 301.689 68.0333 301.595 72.5133 301.595C76.9933 301.595 80.6133 301.689 80.6133 301.802Z" fill="#263238"/>
<path d="M81.0067 303.533C81.0067 303.646 77.2667 303.74 72.6467 303.74C68.0267 303.74 64.28 303.646 64.28 303.533C64.28 303.419 68.02 303.325 72.6467 303.325C77.2734 303.325 81.0067 303.419 81.0067 303.533Z" fill="#263238"/>
<path d="M438.667 287.708C437.958 287.912 437.298 288.256 436.726 288.721C436.153 289.186 435.68 289.761 435.333 290.413C434.644 291.725 434.265 293.179 434.227 294.661C434.06 297.52 435.167 300.62 436.493 303.152C439.2 301.495 440.353 298.001 440.833 296.184C441.58 293.325 441.2 287.694 438.687 287.708" fill="#54B862"/>
<path d="M432.973 307.28C433.276 306.505 433.368 305.663 433.238 304.841C433.108 304.019 432.761 303.247 432.233 302.604C431.7 301.972 431.046 301.452 430.31 301.076C429.574 300.7 428.771 300.475 427.947 300.413C427.571 300.343 427.185 300.356 426.815 300.452C426.446 300.548 426.101 300.724 425.807 300.967C425.571 301.237 425.412 301.566 425.347 301.918C425.281 302.271 425.311 302.634 425.433 302.971C425.687 303.642 426.113 304.234 426.667 304.688C428.487 306.325 430.547 307.567 432.973 307.273" fill="#54B862"/>
<path d="M434.526 316.412C434.541 316.216 434.541 316.019 434.526 315.824C434.526 315.403 434.526 314.862 434.526 314.214C434.558 312.437 434.304 310.666 433.773 308.97C433.209 307.273 432.206 305.756 430.866 304.575C430.46 304.223 430.012 303.923 429.533 303.679C429.366 303.593 429.227 303.539 429.133 303.499L428.993 303.459C429.629 303.804 430.228 304.214 430.78 304.681C432.072 305.873 433.04 307.374 433.593 309.043C434.115 310.72 434.385 312.465 434.393 314.22C434.427 314.888 434.453 315.443 434.48 315.824C434.476 316.021 434.492 316.218 434.526 316.412Z" fill="#263238"/>
<path d="M438.6 292.023C438.57 292.103 438.548 292.186 438.533 292.27L438.367 292.985C438.227 293.606 438.033 294.508 437.807 295.623C437.347 297.855 436.76 300.967 436.193 304.374C435.627 307.781 435.173 310.921 434.86 313.178C434.713 314.307 434.607 315.223 434.533 315.85C434.533 316.151 434.48 316.392 434.46 316.579C434.445 316.665 434.445 316.753 434.46 316.839C434.483 316.756 434.501 316.671 434.513 316.585C434.513 316.398 434.58 316.158 434.62 315.864C434.72 315.196 434.853 314.301 435.013 313.192C435.34 310.941 435.813 307.848 436.38 304.401C436.947 300.954 437.513 297.881 437.933 295.643C438.14 294.541 438.307 293.639 438.433 292.971C438.487 292.678 438.527 292.437 438.56 292.25C438.593 292.063 438.613 292.023 438.6 292.023Z" fill="#263238"/>
<path d="M436.753 309.712C437.327 308.064 438.284 306.577 439.544 305.373C440.804 304.169 442.331 303.281 444 302.784C444.853 302.544 445.92 302.477 446.467 303.172C447.013 303.867 446.693 304.895 446.233 305.657C445.258 307.231 443.839 308.48 442.155 309.245C440.47 310.009 438.597 310.256 436.773 309.952" fill="#54B862"/>
<path d="M443.18 305.376C442.996 305.403 442.815 305.447 442.64 305.51C442.431 305.565 442.226 305.634 442.027 305.717C441.756 305.811 441.491 305.921 441.233 306.044C440.915 306.185 440.605 306.345 440.307 306.525C439.955 306.727 439.617 306.95 439.293 307.193C438.56 307.736 437.889 308.359 437.293 309.05C436.699 309.752 436.189 310.521 435.773 311.341C435.595 311.702 435.437 312.072 435.3 312.45C435.172 312.775 435.065 313.107 434.98 313.446C434.887 313.753 434.853 314.04 434.8 314.287C434.753 314.508 434.722 314.731 434.707 314.955C434.69 315.14 434.69 315.325 434.707 315.51C434.753 315.51 434.807 314.728 435.153 313.506C435.249 313.175 435.362 312.849 435.493 312.53C435.632 312.161 435.792 311.799 435.973 311.448C436.803 309.833 438 308.435 439.467 307.367C439.783 307.126 440.112 306.903 440.453 306.699C440.743 306.517 441.044 306.352 441.353 306.205C442.427 305.623 443.193 305.423 443.18 305.376Z" fill="#263238"/>
</svg>
