<svg width="24" height="24" viewBox="0 0 24 24" fill="none" xmlns="http://www.w3.org/2000/svg">
<path d="M11.363 2C15.518 2 14 8 14 8C14 8 20 6.35 20 10.457V22H4V2H11.363ZM12.189 0H2V24H22V9.614C22 7.223 15.352 0 12.189 0Z" fill="#2C698D"/>
<path d="M8.45268 13.0636H9.31916V15.5779C9.31797 15.8134 9.26175 16.0194 9.15048 16.1958C9.03921 16.3709 8.88533 16.5071 8.68883 16.6041C8.49352 16.7012 8.26743 16.7497 8.01056 16.7497C7.78329 16.7497 7.57673 16.7101 7.39089 16.6308C7.20623 16.5515 7.05886 16.4284 6.94877 16.2614C6.83987 16.0945 6.78601 15.8809 6.7872 15.6205H7.66255C7.6661 15.714 7.68386 15.7939 7.71582 15.8602C7.74896 15.9253 7.79454 15.9744 7.85254 16.0075C7.91054 16.0407 7.97979 16.0573 8.06028 16.0573C8.14432 16.0573 8.21535 16.0395 8.27335 16.004C8.33135 15.9673 8.37515 15.9134 8.40474 15.8424C8.43552 15.7714 8.4515 15.6832 8.45268 15.5779V13.0636ZM9.87092 16.7V13.0636H11.373C11.6453 13.0636 11.8803 13.1169 12.0779 13.2234C12.2768 13.3288 12.4301 13.4762 12.5378 13.6656C12.6455 13.8538 12.6994 14.0728 12.6994 14.3225C12.6994 14.5735 12.6444 14.7931 12.5343 14.9813C12.4254 15.1683 12.2697 15.3133 12.0673 15.4163C11.8649 15.5193 11.6246 15.5708 11.3464 15.5708H10.4196V14.8783H11.1831C11.3156 14.8783 11.4263 14.8552 11.5151 14.809C11.6051 14.7629 11.6731 14.6984 11.7193 14.6155C11.7654 14.5315 11.7885 14.4338 11.7885 14.3225C11.7885 14.2101 11.7654 14.113 11.7193 14.0313C11.6731 13.9485 11.6051 13.8846 11.5151 13.8396C11.4251 13.7946 11.3145 13.7721 11.1831 13.7721H10.7498V16.7H9.87092ZM15.519 14.2515C15.4989 14.1769 15.4693 14.1112 15.4302 14.0544C15.3912 13.9964 15.3432 13.9473 15.2864 13.907C15.2296 13.8668 15.1645 13.8366 15.0911 13.8165C15.0177 13.7952 14.9372 13.7845 14.8496 13.7845C14.6732 13.7845 14.5205 13.8271 14.3915 13.9124C14.2637 13.9976 14.1648 14.1219 14.095 14.2852C14.0252 14.4474 13.9902 14.6445 13.9902 14.8765C13.9902 15.1097 14.024 15.3086 14.0914 15.4731C14.1589 15.6376 14.2566 15.7631 14.3844 15.8495C14.5123 15.9359 14.6673 15.9791 14.8496 15.9791C15.0106 15.9791 15.1467 15.9531 15.258 15.901C15.3704 15.8477 15.4557 15.7726 15.5137 15.6755C15.5717 15.5784 15.6007 15.4642 15.6007 15.3328L15.764 15.3524H14.8798V14.7114H16.4476V15.1926C16.4476 15.5181 16.3784 15.7968 16.2399 16.0288C16.1026 16.2609 15.9132 16.439 15.6717 16.5633C15.4314 16.6876 15.155 16.7497 14.8425 16.7497C14.4957 16.7497 14.1909 16.6746 13.9281 16.5242C13.6653 16.3739 13.4605 16.1596 13.3137 15.8815C13.167 15.6021 13.0936 15.2707 13.0936 14.8872C13.0936 14.5889 13.138 14.3243 13.2267 14.0935C13.3155 13.8615 13.4392 13.665 13.5978 13.504C13.7576 13.343 13.9423 13.2211 14.1518 13.1382C14.3625 13.0554 14.5892 13.0139 14.8319 13.0139C15.0426 13.0139 15.2385 13.0441 15.4196 13.1045C15.6019 13.1649 15.7628 13.2501 15.9025 13.3602C16.0434 13.4703 16.1576 13.6011 16.2452 13.7526C16.3328 13.9041 16.3873 14.0704 16.4086 14.2515H15.519Z" fill="#2C698D"/>
</svg>
