<svg width="24" height="24" viewBox="0 0 24 24" fill="none" xmlns="http://www.w3.org/2000/svg">
<path d="M11.363 2C15.518 2 14 8 14 8C14 8 20 6.35 20 10.457V22H4V2H11.363ZM12.189 0H2V24H22V9.614C22 7.223 15.352 0 12.189 0Z" fill="#2C698D"/>
<path d="M6.97541 16.7V13.0636H8.47754C8.74979 13.0636 8.98476 13.1169 9.18244 13.2234C9.3813 13.3288 9.53459 13.4762 9.64231 13.6656C9.75003 13.8538 9.80389 14.0728 9.80389 14.3225C9.80389 14.5735 9.74885 14.7931 9.63876 14.9813C9.52986 15.1683 9.3742 15.3133 9.17179 15.4163C8.96937 15.5193 8.72908 15.5708 8.45091 15.5708H7.52406V14.8783H8.28755C8.42013 14.8783 8.53081 14.8552 8.61958 14.809C8.70955 14.7629 8.77761 14.6984 8.82377 14.6155C8.86994 14.5315 8.89302 14.4338 8.89302 14.3225C8.89302 14.2101 8.86994 14.113 8.82377 14.0313C8.77761 13.9485 8.70955 13.8846 8.61958 13.8396C8.52962 13.7946 8.41895 13.7721 8.28755 13.7721H7.85431V16.7H6.97541ZM13.3319 13.0636V16.7H12.5862L11.1391 14.6013H11.116V16.7H10.2371V13.0636H10.9935L12.4246 15.1588H12.4548V13.0636H13.3319ZM16.271 14.2515C16.2508 14.1769 16.2212 14.1112 16.1822 14.0544C16.1431 13.9964 16.0952 13.9473 16.0384 13.907C15.9815 13.8668 15.9164 13.8366 15.843 13.8165C15.7696 13.7952 15.6892 13.7845 15.6016 13.7845C15.4252 13.7845 15.2725 13.8271 15.1435 13.9124C15.0156 13.9976 14.9168 14.1219 14.8469 14.2852C14.7771 14.4474 14.7422 14.6445 14.7422 14.8765C14.7422 15.1097 14.7759 15.3086 14.8434 15.4731C14.9109 15.6376 15.0085 15.7631 15.1364 15.8495C15.2642 15.9359 15.4193 15.9791 15.6016 15.9791C15.7625 15.9791 15.8987 15.9531 16.0099 15.901C16.1224 15.8477 16.2076 15.7726 16.2656 15.6755C16.3236 15.5784 16.3526 15.4642 16.3526 15.3328L16.516 15.3524H15.6317V14.7114H17.1996V15.1926C17.1996 15.5181 17.1303 15.7968 16.9918 16.0288C16.8545 16.2609 16.6651 16.439 16.4237 16.5633C16.1834 16.6876 15.907 16.7497 15.5945 16.7497C15.2476 16.7497 14.9428 16.6746 14.68 16.5242C14.4173 16.3739 14.2125 16.1596 14.0657 15.8815C13.9189 15.6021 13.8455 15.2707 13.8455 14.8872C13.8455 14.5889 13.8899 14.3243 13.9787 14.0935C14.0675 13.8615 14.1912 13.665 14.3498 13.504C14.5096 13.343 14.6942 13.2211 14.9038 13.1382C15.1145 13.0554 15.3411 13.0139 15.5838 13.0139C15.7945 13.0139 15.9904 13.0441 16.1715 13.1045C16.3538 13.1649 16.5148 13.2501 16.6545 13.3602C16.7953 13.4703 16.9096 13.6011 16.9972 13.7526C17.0848 13.9041 17.1392 14.0704 17.1605 14.2515H16.271Z" fill="#2C698D"/>
</svg>
