<svg width="80" height="80" viewBox="0 0 80 80" fill="none" xmlns="http://www.w3.org/2000/svg">
<g clip-path="url(#clip0_234_2813)">
<path fill-rule="evenodd" clip-rule="evenodd" d="M78.7433 72.2633C77.1 70.5367 74.0167 69.8767 72.0433 68.4033C69.4967 66.5 70.6767 61.7733 74.2767 57.6C69.8367 53.8 64.74 48.2433 61.1833 43.6L44.43 59.2767C48.2433 62.5733 54.43 69.2933 57.5233 73.2733C61.9533 69.8167 66.9967 69.0567 68.7433 71.9C70.0067 73.95 70.5333 76.91 72.1133 78.58C73.0133 79.5233 74.2167 80 75.43 80C77.5867 80 80 78.3033 80 75.4267C80 74.2933 79.5833 73.1533 78.7433 72.2633ZM35.0033 40.1V79.11L0 60.4367V21.8767L35.0033 40.1ZM38.3367 79.11V58.6367C38.3367 58.6367 48.9333 68.2967 51.9967 71.82L38.3367 79.11ZM76.4767 76.5367C75.87 77.1133 74.9 77.09 74.3267 76.4733C73.74 75.8667 73.7733 74.9 74.38 74.3233C74.9933 73.74 75.95 73.7633 76.53 74.38C77.11 74.9833 77.09 75.95 76.4767 76.5367ZM66.56 56.8467C65.0833 58.2567 61.6333 53.2733 60.0567 54.7767C58.4933 56.2667 64.0967 60.3433 62.39 61.9667C61.0733 63.2233 58.6067 59.8033 57.27 61.08C56.6467 61.6733 57.2533 62.8833 57.6067 63.8967C58.2133 65.6467 56.9 66.82 54.9767 64.7967C53.0667 62.7767 52.0333 61.6767 49.8767 59.58L60.9233 49.0533C62.48 50.98 64.0367 52.5867 66.1 54.77C66.94 55.6467 66.9633 56.4633 66.56 56.8467ZM73.3367 22.0933V52.21C70.4967 49.4567 61.45 38.46 61.45 38.46L61.4633 28.2067L73.3367 22.0933ZM17.04 10.7067L52.4033 29.12L36.6733 37.2133L1.76333 19.0367L17.04 10.7067ZM71.58 19.25L56.0333 27.25L20.5633 8.78333L36.6667 0L71.58 19.25ZM0.00333333 19.9967L0 20.0067V20L0.00333333 19.9967Z" fill="#65C272"/>
</g>
<defs>
<clipPath id="clip0_234_2813">
<rect width="80" height="80" fill="white"/>
</clipPath>
</defs>
</svg>
