<svg width="500" height="500" viewBox="0 0 500 500" fill="none" xmlns="http://www.w3.org/2000/svg">
<path d="M409 259.78C320.59 208.78 177.72 208.78 89.88 259.78C2.03999 310.78 2.55 393.58 91 444.62C179.45 495.66 322.28 495.67 410.12 444.62C497.96 393.57 497.45 310.82 409 259.78Z" fill="#223425"/>
<path d="M115.6 430.28C122.46 426.28 133.54 426.28 140.36 430.28C147.18 434.28 147.14 440.66 140.28 444.62C133.42 448.58 122.34 448.62 115.52 444.62C108.7 440.62 108.74 434.24 115.6 430.28Z" fill="#E0E0E0"/>
<path d="M158.57 360L238 314.14L301.44 350.67C304.642 346.958 308.474 343.84 312.76 341.46C335.38 328.4 371.95 328.4 394.43 341.46C416.91 354.52 416.79 375.71 394.17 388.77C389.291 391.526 384.092 393.672 378.69 395.16L385.06 398.83C385.498 399.084 385.862 399.449 386.114 399.887C386.367 400.326 386.5 400.824 386.5 401.33C386.5 401.836 386.367 402.334 386.114 402.773C385.862 403.211 385.498 403.576 385.06 403.83L311.34 446.41C309.587 447.42 307.599 447.952 305.575 447.952C303.552 447.952 301.563 447.42 299.81 446.41L158.57 365C158.129 364.748 157.763 364.384 157.509 363.945C157.254 363.506 157.12 363.008 157.12 362.5C157.12 361.992 157.254 361.494 157.509 361.055C157.763 360.616 158.129 360.252 158.57 360Z" fill="#E0E0E0"/>
<path d="M297.12 233.88L51.57 376.87L40.12 370.26L285.67 227.27L297.12 233.88Z" fill="#E0E0E0"/>
<path d="M111.33 407.5L127.94 407.98L144.55 407.5C145.26 418.71 143.07 430.14 140.05 435.72C139.337 437.158 138.184 438.331 136.76 439.07C131.86 441.89 123.95 441.89 119.08 439.07C117.632 438.32 116.475 437.11 115.79 435.63C112.79 430 110.62 418.66 111.33 407.5Z" fill="white"/>
<path d="M116.24 400.7C109.73 404.45 109.7 410.54 116.16 414.3C122.62 418.06 133.16 418.06 139.64 414.3C146.12 410.54 146.18 404.45 139.72 400.7C133.26 396.95 122.74 396.94 116.24 400.7Z" fill="#EBEBEB"/>
<path d="M118.81 402.19C113.73 405.12 113.71 409.87 118.75 412.8C123.79 415.73 131.99 415.73 137.07 412.8C142.15 409.87 142.17 405.12 137.13 402.19C132.09 399.26 123.88 399.26 118.81 402.19Z" fill="#E0E0E0"/>
<g opacity="0.15">
<path d="M118.81 402.19C113.73 405.12 113.71 409.87 118.75 412.8C123.79 415.73 131.99 415.73 137.07 412.8C142.15 409.87 142.17 405.12 137.13 402.19C132.09 399.26 123.88 399.26 118.81 402.19Z" fill="black"/>
</g>
<path d="M100.64 336.64C138.06 348.89 138.4 373.93 129.96 391.75C127.83 395.36 121.4 397.3 115.79 375.13L125.62 376.39L114.17 370.58L111.17 361.69L120.72 362.4L108.6 357.3C106.373 350.257 103.714 343.357 100.64 336.64Z" fill="#54B862"/>
<path opacity="0.2" d="M100.64 336.64C138.06 348.89 138.4 373.93 129.96 391.75C127.83 395.36 121.4 397.3 115.79 375.13L125.62 376.39L114.17 370.58L111.17 361.69L120.72 362.4L108.6 357.3C106.373 350.257 103.714 343.357 100.64 336.64Z" fill="black"/>
<path d="M111.22 342.9C130.96 357.9 132.74 375.05 127.16 392.97C129.13 377.19 131.27 361.23 111.22 342.9Z" fill="white"/>
<path d="M164 362.07C127.11 367.26 122.64 390.52 127.53 408.53C128.91 412.24 134.59 415.12 143.53 395.4L134.17 394.94L145.8 391.43L150.05 383.65L141.05 382.72L153.16 380C156.399 373.805 160.019 367.816 164 362.07Z" fill="#54B862"/>
<path opacity="0.2" d="M164 362.07C127.11 367.26 122.64 390.52 127.53 408.53C128.91 412.24 134.59 415.12 143.53 395.4L134.17 394.94L145.8 391.43L150.05 383.65L141.05 382.72L153.16 380C156.399 373.805 160.019 367.816 164 362.07Z" fill="white"/>
<path d="M153.12 366.14C132.26 376.81 127.74 392.51 129.96 410.14C130.74 395.1 131.41 379.88 153.12 366.14Z" fill="white"/>
<path d="M89.84 370.78C123.67 371.34 130.31 391.78 127.91 408.58C127.08 412.08 122.29 415.31 112.06 398.53L120.44 397.07L109.57 395.21L104.87 388.67L112.87 386.82L101.63 385.72C98.0108 380.502 94.0733 375.513 89.84 370.78Z" fill="#54B862"/>
<path d="M100.12 373.23C120.12 380.52 125.94 394.16 125.92 410.29C123.53 396.83 121.23 383.19 100.12 373.23Z" fill="white"/>
<path d="M407.17 79.0501L407.1 104.07L404.07 105.83L404.15 77.3101L407.17 79.0501Z" fill="#F0F0F0"/>
<path d="M439.84 122.97L439.83 126.48L404.07 105.83L407.1 104.07L439.84 122.97Z" fill="#F5F5F5"/>
<path d="M400.39 107.93L443.48 132.81L443.58 95.86L400.5 71L400.39 107.93ZM404.07 105.83L404.15 77.31L407.15 79.05L439.91 98L439.84 123V126.51L404.07 105.83Z" fill="#E0E0E0"/>
<path d="M400.5 70.99L403.53 69.22L446.62 94.1L443.58 95.86L400.5 70.99Z" fill="#F5F5F5"/>
<path d="M446.62 94.1L446.51 131.04L443.48 132.81L443.58 95.86L446.62 94.1Z" fill="#F0F0F0"/>
<path d="M407.19 135.2L407.12 160.22L404.09 161.99L404.17 133.46L407.19 135.2Z" fill="#F0F0F0"/>
<path d="M439.86 179.12L439.85 182.63L404.09 161.99L407.12 160.22L439.86 179.12Z" fill="#F5F5F5"/>
<path d="M400.41 164.08L443.5 189L443.61 152.06L400.52 127.18L400.41 164.08ZM404.09 161.99L404.17 133.46L407.17 135.2L439.91 154.1L439.84 179.1V182.61L404.09 161.99Z" fill="#E0E0E0"/>
<path d="M400.52 127.14L403.55 125.38L446.64 150.25L443.61 152.02L400.52 127.14Z" fill="#F5F5F5"/>
<path d="M446.64 150.25L446.53 187.19L443.5 188.96L443.61 152.02L446.64 150.25Z" fill="#F0F0F0"/>
<path d="M343.07 104.71V98.63L343.34 98.79L343.85 99.09C348.34 101.8 352.85 106.09 357.04 110.66C357.73 111.42 358.42 112.2 359.1 112.97C362.63 116.97 366.1 121.31 369.65 125.32V135.14L365.37 132.67C359.792 122.01 352.222 112.519 343.07 104.71Z" fill="#EBEBEB"/>
<path d="M343 119.77V111.65C346.739 115.588 349.831 120.094 352.16 125L343 119.77Z" fill="#EBEBEB"/>
<path d="M352.16 125C349.85 120.084 346.775 115.564 343.05 111.61V104.67C352.203 112.492 359.77 121.997 365.34 132.67L352.16 125Z" fill="#FAFAFA"/>
<path d="M361.11 96.34L360.49 96.12C359.34 95.71 358.18 95.23 357.02 94.69L356.59 94.48L355.41 93.91C354.73 93.56 354.06 93.2 353.41 92.82C354.09 93.2 354.76 93.56 355.41 93.91L355.17 93.79C354.57 93.48 353.97 93.16 353.38 92.79L353 92.6L352.69 92.42C349.453 90.4975 346.389 88.2993 343.53 85.85L343.13 85.51V75.24C349.65 78.58 356.06 79.61 361.23 78C364.778 76.8613 367.811 74.5107 369.8 71.36L369.75 98C366.807 97.8522 363.898 97.2935 361.11 96.34Z" fill="#FAFAFA"/>
<path d="M357.06 110.66C352.86 106.06 348.36 101.8 343.87 99.09L343.36 98.79L343.09 98.63V92.75C351.786 97.8671 359.842 104 367.09 111.02C367.96 111.85 368.82 112.69 369.69 113.5V125.32C366.13 121.32 362.69 117.02 359.14 112.97C358.44 112.2 357.75 111.42 357.06 110.66Z" fill="#FAFAFA"/>
<path d="M343.1 92.75V85.51L343.5 85.85C346.359 88.2994 349.423 90.4975 352.66 92.42L352.97 92.6L353.36 92.82C353.95 93.16 354.55 93.48 355.15 93.82L355.39 93.94L356.57 94.51L357 94.72C358.16 95.26 359.32 95.72 360.47 96.15L361.09 96.37C363.877 97.3371 366.785 97.9094 369.73 98.07L369.68 113.53C368.81 112.72 367.95 111.88 367.08 111.05C359.84 104.021 351.791 97.8778 343.1 92.75Z" fill="#EBEBEB"/>
<path d="M343.18 66.94V59.35C347.29 58.35 350.49 55.35 352.18 50.9L361.28 56.15C359.686 59.5508 357.11 62.3961 353.884 64.3193C350.658 66.2424 346.93 67.1552 343.18 66.94Z" fill="#FAFAFA"/>
<path d="M361.25 78C356.08 79.61 349.67 78.58 343.15 75.24V66.94C346.901 67.1573 350.632 66.2454 353.86 64.3222C357.088 62.3989 359.665 59.5524 361.26 56.15L369.82 61.15V71.41C367.823 74.542 364.79 76.874 361.25 78Z" fill="#EBEBEB"/>
<path d="M341.52 120.63L371.14 137.73L371.36 60.25L341.74 43.15L341.52 120.63ZM365.36 132.63L352.16 125L343 119.77V111.65V104.71V98.63V92.75V85.51V75.24V66.94V59.35V45.73L351.95 50.9L361.05 56.15L369.61 61.15V71.41L369.75 98L369.7 113.46V125.28V135.1L365.36 132.63Z" fill="white"/>
<path d="M343.2 59.35V45.73L352.15 50.9C350.51 55.39 347.31 58.38 343.2 59.35Z" fill="#EBEBEB"/>
<path d="M341.52 120.63L371.14 137.73L371.13 139.78L339.74 121.66L341.52 120.63Z" fill="#CACACA"/>
<path d="M341.74 43.15L341.52 120.63L339.74 121.66L339.97 42.13L341.74 43.15Z" fill="#F0F0F0"/>
<path d="M335 124.39L375.9 148L376.15 57.49L335.21 33.88L335 124.39ZM339.79 121.66L340 42.13L341.77 43.13L371.39 60.23L371.17 137.71V139.77L339.79 121.66Z" fill="#E0E0E0"/>
<path d="M335.21 33.8801L338.58 32.0601L379.53 55.7001L376.15 57.5201L335.21 33.8801Z" fill="#F5F5F5"/>
<path d="M379.53 55.7L379.27 146.22L375.9 148.03L376.15 57.52L379.53 55.7Z" fill="#F0F0F0"/>
<path d="M417.57 88.55L408.64 95.58L408.63 102.45L438.32 119.59L438.34 112.72L432.68 101.49L427.6 105.43L429.39 111.01L426.79 106.06L417.57 88.55Z" fill="#E0E0E0"/>
<path d="M427.33 92C425.93 91.2 424.79 91.84 424.79 93.45C424.834 94.3259 425.086 95.1788 425.524 95.9385C425.962 96.6982 426.574 97.3431 427.31 97.82C428.71 98.63 429.84 97.98 429.85 96.37C429.8 95.4955 429.547 94.6447 429.109 93.8858C428.671 93.127 428.062 92.4811 427.33 92Z" fill="#E0E0E0"/>
<path d="M417.59 144.7L408.67 151.73L408.65 158.6L438.34 175.74L438.36 168.88L432.7 157.64L427.62 161.58L429.42 167.16L426.81 162.21L417.59 144.7Z" fill="#E0E0E0"/>
<path d="M427.35 148.16C425.95 147.36 424.81 148.01 424.81 149.61C424.854 150.486 425.106 151.339 425.544 152.098C425.982 152.858 426.594 153.503 427.33 153.98C428.73 154.79 429.87 154.14 429.87 152.53C429.823 151.655 429.57 150.803 429.132 150.044C428.694 149.285 428.084 148.639 427.35 148.16Z" fill="#E0E0E0"/>
<path d="M47.35 185.61L47.31 172.35L40.4 168.41L40.43 181.37V181.66L47.35 185.61Z" fill="#54B862"/>
<path d="M47.7901 339.19L47.3501 185.61L40.4301 181.61L40.8701 335C40.8278 335.484 40.9093 335.972 41.107 336.416C41.3046 336.86 41.6119 337.247 42.0001 337.54L48.8201 341.71C48.4559 341.406 48.1717 341.017 47.9922 340.578C47.8127 340.139 47.7433 339.662 47.7901 339.19Z" fill="#54B862"/>
<path opacity="0.2" d="M47.7901 339.19L47.3501 185.61L40.4301 181.61L40.8701 335C40.8278 335.484 40.9093 335.972 41.107 336.416C41.3046 336.86 41.6119 337.247 42.0001 337.54L48.8201 341.71C48.4559 341.406 48.1717 341.017 47.9922 340.578C47.8127 340.139 47.7433 339.662 47.7901 339.19Z" fill="white"/>
<path d="M51.89 341.53C51.6399 341.68 51.3752 341.804 51.1 341.9C51.3744 341.802 51.6389 341.678 51.89 341.53Z" fill="#455A64"/>
<path d="M47.34 172.33V164.69C47.4132 163.272 47.8211 161.891 48.5302 160.66C49.2393 159.43 50.2296 158.384 51.42 157.61L282.82 23.9999C283.229 23.7047 283.708 23.5216 284.21 23.469C284.712 23.4163 285.219 23.496 285.68 23.6999L278.85 19.4999C278.377 19.2563 277.845 19.1505 277.314 19.1947C276.784 19.239 276.276 19.4313 275.85 19.7499L44.48 153.36C43.2896 154.134 42.2993 155.18 41.5902 156.41C40.8811 157.641 40.4732 159.022 40.4 160.44V168.08V168.38L47.31 172.32L47.34 172.33Z" fill="#54B862"/>
<path opacity="0.3" d="M47.34 172.33V164.69C47.4132 163.272 47.8211 161.891 48.5302 160.66C49.2393 159.43 50.2296 158.384 51.42 157.61L282.82 23.9999C283.229 23.7047 283.708 23.5216 284.21 23.469C284.712 23.4163 285.219 23.496 285.68 23.6999L278.85 19.4999C278.377 19.2563 277.845 19.1505 277.314 19.1947C276.784 19.239 276.276 19.4313 275.85 19.7499L44.48 153.36C43.2896 154.134 42.2993 155.18 41.5902 156.41C40.8811 157.641 40.4732 159.022 40.4 160.44V168.08V168.38L47.31 172.32L47.34 172.33Z" fill="white"/>
<path opacity="0.2" d="M47.35 185.61L47.31 172.35L40.4 168.41L40.43 181.37V181.66L47.35 185.61Z" fill="black"/>
<path opacity="0.2" d="M47.35 185.61L47.31 172.35L40.4 168.41L40.43 181.37V181.66L47.35 185.61Z" fill="white"/>
<path d="M282.82 24C285.07 22.7 286.92 23.75 286.92 26.35L287 34L47.34 172.33V164.69C47.4132 163.272 47.821 161.891 48.5301 160.66C49.2392 159.43 50.2295 158.385 51.42 157.61L282.82 24Z" fill="#54B862"/>
<path d="M267.3 36.64C268.51 35.94 269.5 36.5 269.5 37.89C269.462 38.6477 269.244 39.3855 268.865 40.0426C268.486 40.6998 267.957 41.2576 267.32 41.67C266.11 42.37 265.12 41.81 265.12 40.42C265.158 39.6623 265.376 38.9245 265.755 38.2673C266.134 37.6102 266.663 37.0524 267.3 36.64Z" fill="white"/>
<path d="M274 32.7799C275.21 32.0799 276.19 32.6399 276.2 34.0299C276.157 34.7886 275.935 35.5263 275.552 36.1832C275.17 36.84 274.638 37.3973 274 37.8099C272.79 38.5099 271.81 37.9499 271.8 36.5599C271.844 35.8012 272.065 35.0634 272.448 34.4066C272.83 33.7498 273.362 33.1924 274 32.7799Z" fill="white"/>
<path d="M280.67 28.9199C281.88 28.2199 282.86 28.7799 282.86 30.1699C282.828 30.9358 282.614 31.683 282.234 32.3492C281.855 33.0155 281.322 33.5814 280.68 33.9999C279.47 34.6999 278.49 34.1399 278.48 32.7399C278.516 31.9752 278.734 31.23 279.114 30.5658C279.495 29.9016 280.028 29.3375 280.67 28.9199Z" fill="white"/>
<path d="M95.53 136.93C96.43 136.41 97.26 136.5 97.69 137.17L99.87 140.51C100.3 141.18 101.13 141.28 102.03 140.76L286.92 34V47.28L47.35 185.63V172.35L54.45 168.25C55.4566 167.602 56.2197 166.638 56.62 165.51L58.76 159.67C59.1562 158.545 59.9163 157.584 60.92 156.94L95.53 136.93Z" fill="#E0E0E0"/>
<path d="M287 47.2699L287.43 200.85C287.355 202.267 286.947 203.645 286.238 204.874C285.529 206.103 284.539 207.146 283.35 207.92L51.89 341.53C49.63 342.84 47.79 341.78 47.79 339.19L47.35 185.61L287 47.2699Z" fill="#54B862"/>
<g opacity="0.4">
<path d="M287 47.2699L287.43 200.85C287.355 202.267 286.947 203.645 286.238 204.874C285.529 206.103 284.539 207.146 283.35 207.92L51.89 341.53C49.63 342.84 47.79 341.78 47.79 339.19L47.35 185.61L287 47.2699Z" fill="white"/>
</g>
<path d="M277.48 42.1699C279.09 41.2399 280.39 41.9799 280.4 43.8299C280.342 44.8322 280.049 45.8068 279.546 46.6753C279.042 47.5438 278.341 48.2818 277.5 48.8299L74.68 166C73.07 166.93 71.76 166.18 71.75 164.33C71.8099 163.327 72.1045 162.352 72.6099 161.484C73.1153 160.615 73.8175 159.877 74.66 159.33L277.48 42.1699Z" fill="white"/>
<path d="M51.1801 173.53C51.2249 173.501 51.2769 173.486 51.3301 173.486C51.3832 173.486 51.4352 173.501 51.4801 173.53C51.6401 173.63 51.6201 173.94 51.4801 174.21L50.2001 176.3L53.5601 174.36C53.7901 174.23 53.9701 174.36 53.9701 174.59C53.9653 174.733 53.9254 174.872 53.8539 174.996C53.7824 175.12 53.6815 175.224 53.5601 175.3L50.2101 177.24L51.4901 177.85C51.6601 177.93 51.6701 178.22 51.4901 178.5C51.4193 178.636 51.312 178.751 51.1801 178.83C51.1364 178.851 51.0886 178.862 51.0401 178.862C50.9916 178.862 50.9437 178.851 50.9001 178.83L48.9001 177.83L48.8101 177.75V177.58V177.37L48.8901 177.2L50.8901 173.84C50.9596 173.714 51.0593 173.608 51.1801 173.53Z" fill="#E0E0E0"/>
<path d="M58.4501 169.34C58.4929 169.316 58.5411 169.304 58.5901 169.304C58.639 169.304 58.6872 169.316 58.7301 169.34L60.7901 170.34L60.8701 170.43V170.6V170.8V170.85L60.8001 171.01L58.7401 174.38C58.6735 174.497 58.5768 174.593 58.4601 174.66C58.4163 174.686 58.3662 174.7 58.3151 174.7C58.2639 174.7 58.2138 174.686 58.1701 174.66C58.0101 174.56 58.0201 174.26 58.1701 173.98L59.4401 171.9L56.0801 173.84C55.8601 173.96 55.6801 173.84 55.6801 173.6C55.6854 173.458 55.7244 173.32 55.794 173.197C55.8636 173.073 55.9617 172.968 56.0801 172.89L59.4401 170.96L58.1601 170.35C57.9901 170.26 57.9801 169.97 58.1601 169.69C58.2198 169.547 58.3208 169.425 58.4501 169.34Z" fill="#E0E0E0"/>
<path d="M65.3501 165.35C65.5532 165.217 65.7805 165.126 66.0191 165.081C66.2577 165.036 66.5027 165.04 66.7401 165.09L67.0501 164.69C67.1078 164.605 67.1828 164.534 67.2701 164.48C67.3416 164.457 67.4185 164.457 67.4901 164.48C67.6301 164.48 67.7001 164.65 67.6701 164.85L67.5001 166.11C67.4813 166.267 67.419 166.416 67.3201 166.54C67.2621 166.622 67.1871 166.69 67.1001 166.74H67.0001L66.0001 167C65.9663 167.011 65.9305 167.014 65.8954 167.008C65.8604 167.003 65.827 166.99 65.798 166.969C65.769 166.949 65.745 166.922 65.728 166.891C65.711 166.86 65.7015 166.825 65.7001 166.79C65.6831 166.584 65.7477 166.379 65.8801 166.22L65.9801 166.09C65.7578 166.101 65.5415 166.166 65.3501 166.28C64.9228 166.561 64.5672 166.937 64.3119 167.38C64.0567 167.823 63.9087 168.32 63.8801 168.83C63.8801 169.77 64.5501 170.14 65.3601 169.67C65.9594 169.287 66.4163 168.718 66.6601 168.05C66.7222 167.865 66.8456 167.706 67.0101 167.6C67.0691 167.561 67.1396 167.543 67.2101 167.55C67.4101 167.55 67.4801 167.8 67.3701 168.1C66.9992 169.137 66.2962 170.023 65.3701 170.62C64.1101 171.34 63.0701 170.76 63.0701 169.3C63.1159 168.509 63.346 167.741 63.7419 167.055C64.1377 166.369 64.6885 165.785 65.3501 165.35Z" fill="#E0E0E0"/>
<g opacity="0.3">
<path d="M51.1801 173.53C51.2249 173.501 51.2769 173.486 51.3301 173.486C51.3832 173.486 51.4352 173.501 51.4801 173.53C51.6401 173.63 51.6201 173.94 51.4801 174.21L50.2001 176.3L53.5601 174.36C53.7901 174.23 53.9701 174.36 53.9701 174.59C53.9653 174.733 53.9254 174.872 53.8539 174.996C53.7824 175.12 53.6815 175.224 53.5601 175.3L50.2101 177.24L51.4901 177.85C51.6601 177.93 51.6701 178.22 51.4901 178.5C51.4193 178.636 51.312 178.751 51.1801 178.83C51.1364 178.851 51.0886 178.862 51.0401 178.862C50.9916 178.862 50.9437 178.851 50.9001 178.83L48.9001 177.83L48.8101 177.75V177.58V177.37L48.8901 177.2L50.8901 173.84C50.9596 173.714 51.0593 173.608 51.1801 173.53Z" fill="black"/>
</g>
<g opacity="0.3">
<path d="M58.4501 169.34C58.4929 169.316 58.5411 169.304 58.5901 169.304C58.639 169.304 58.6872 169.316 58.7301 169.34L60.7901 170.34L60.8701 170.43V170.6V170.8V170.85L60.8001 171.01L58.7401 174.38C58.6735 174.497 58.5768 174.593 58.4601 174.66C58.4163 174.686 58.3662 174.7 58.3151 174.7C58.2639 174.7 58.2138 174.686 58.1701 174.66C58.0101 174.56 58.0201 174.26 58.1701 173.98L59.4401 171.9L56.0801 173.84C55.8601 173.96 55.6801 173.84 55.6801 173.6C55.6854 173.458 55.7244 173.32 55.794 173.197C55.8636 173.073 55.9617 172.968 56.0801 172.89L59.4401 170.96L58.1601 170.35C57.9901 170.26 57.9801 169.97 58.1601 169.69C58.2198 169.547 58.3208 169.425 58.4501 169.34Z" fill="black"/>
</g>
<g opacity="0.3">
<path d="M65.3501 165.35C65.5532 165.217 65.7805 165.126 66.0191 165.081C66.2577 165.036 66.5027 165.04 66.7401 165.09L67.0501 164.69C67.1078 164.605 67.1828 164.534 67.2701 164.48C67.3416 164.457 67.4185 164.457 67.4901 164.48C67.6301 164.48 67.7001 164.65 67.6701 164.85L67.5001 166.11C67.4813 166.267 67.419 166.416 67.3201 166.54C67.2621 166.622 67.1871 166.69 67.1001 166.74H67.0001L66.0001 167C65.9663 167.011 65.9305 167.014 65.8954 167.008C65.8604 167.003 65.827 166.99 65.798 166.969C65.769 166.949 65.745 166.922 65.728 166.891C65.711 166.86 65.7015 166.825 65.7001 166.79C65.6831 166.584 65.7477 166.379 65.8801 166.22L65.9801 166.09C65.7578 166.101 65.5415 166.166 65.3501 166.28C64.9228 166.561 64.5672 166.937 64.3119 167.38C64.0567 167.823 63.9087 168.32 63.8801 168.83C63.8801 169.77 64.5501 170.14 65.3601 169.67C65.9594 169.287 66.4163 168.718 66.6601 168.05C66.7222 167.865 66.8456 167.706 67.0101 167.6C67.0691 167.561 67.1396 167.543 67.2101 167.55C67.4101 167.55 67.4801 167.8 67.3701 168.1C66.9992 169.137 66.2962 170.023 65.3701 170.62C64.1101 171.34 63.0701 170.76 63.0701 169.3C63.1159 168.509 63.346 167.741 63.7419 167.055C64.1377 166.369 64.6885 165.785 65.3501 165.35Z" fill="black"/>
</g>
<path d="M191.84 171.5L192.06 249.82L116.42 293.49L116.2 215.16L191.84 171.5Z" fill="#54B862"/>
<path d="M277.33 64.97L277.45 109.11L175.2 168.14L175.07 124.01L277.33 64.97Z" fill="#54B862"/>
<g opacity="0.5">
<path d="M191.84 171.5L192.06 249.82L116.42 293.49L116.2 215.16L191.84 171.5Z" fill="white"/>
</g>
<g opacity="0.5">
<path d="M277.33 64.97L277.45 109.11L175.2 168.14L175.07 124.01L277.33 64.97Z" fill="white"/>
</g>
<path d="M108.82 219.42L109.05 297.75L61.08 325.44L60.86 247.12L108.82 219.42Z" fill="#54B862"/>
<path d="M276.69 122.5L276.92 200.83L199.44 245.56L199.22 167.24L276.69 122.5Z" fill="#54B862"/>
<g opacity="0.3">
<path d="M108.82 219.42L109.05 297.75L61.08 325.44L60.86 247.12L108.82 219.42Z" fill="white"/>
</g>
<g opacity="0.3">
<path d="M276.69 122.5L276.92 200.83L199.44 245.56L199.22 167.24L276.69 122.5Z" fill="white"/>
</g>
<path d="M83.8701 175.84C96.6301 168.48 107 174.39 107 189C107 203.61 96.7401 221.5 84.0001 228.86C71.2601 236.22 60.8801 230.31 60.8401 215.66C60.8001 201.01 71.1201 183.2 83.8701 175.84Z" fill="#54B862"/>
<path d="M95.55 189.51C96.8011 188.61 97.6711 187.276 97.9893 185.768C98.3075 184.261 98.051 182.688 97.27 181.36C97.9716 181.05 98.5466 180.511 98.9 179.83C99.0474 179.501 99.0928 179.136 99.0302 178.781C98.9676 178.426 98.8 178.098 98.549 177.84C98.298 177.581 97.9753 177.404 97.6224 177.331C97.2696 177.258 96.903 177.292 96.57 177.43C96.7537 176.898 96.7552 176.321 96.5741 175.789C96.393 175.256 96.0397 174.799 95.57 174.49C95.0863 174.213 94.5203 174.115 93.9716 174.214C93.423 174.312 92.9266 174.601 92.57 175.03C92.5813 174.683 92.4804 174.342 92.2821 174.057C92.0839 173.773 91.7991 173.56 91.47 173.45C90.8065 173.279 90.1058 173.325 89.47 173.58C88.81 173.81 88.19 174.13 87.47 174.34C86.3258 174.631 85.1505 174.782 83.97 174.79C82.7856 174.801 81.6231 175.111 80.59 175.69C80.0208 176.034 79.5822 176.558 79.3432 177.179C79.1043 177.8 79.0785 178.483 79.27 179.12C79.0991 178.905 78.8857 178.727 78.6431 178.598C78.4005 178.469 78.1339 178.391 77.86 178.37C77.5902 178.362 77.322 178.413 77.0735 178.518C76.8251 178.623 76.6022 178.781 76.42 178.98C77.16 179.44 77.87 179.98 78.61 180.39C78.1892 180.272 77.7414 180.295 77.3351 180.456C76.9288 180.617 76.5863 180.906 76.36 181.28C76.0152 182.019 75.8803 182.839 75.97 183.65C76.0668 186.736 76.6125 189.791 77.59 192.72C78.1035 194.422 79.2105 195.884 80.71 196.84L95.55 189.51Z" fill="#37474F"/>
<path d="M93.15 201.09L96.64 204.09L98.49 214.68C99.9891 212.407 101.326 210.031 102.49 207.57C100.9 203.52 99.63 201.09 93.15 201.09Z" fill="#EBEBEB"/>
<path d="M84 228.9C90 225.44 95.44 219.67 99.54 213C99.2 207.27 98.35 201.09 93.13 201.09L77.63 201.2L74.46 201.54L73 232.05C76.8923 232.073 80.7096 230.979 84 228.9Z" fill="#54B862"/>
<g opacity="0.4">
<path d="M84 228.9C90 225.44 95.44 219.67 99.54 213C99.2 207.27 98.35 201.09 93.13 201.09L77.63 201.2L74.46 201.54L73 232.05C76.8923 232.073 80.7096 230.979 84 228.9Z" fill="white"/>
</g>
<path d="M90.6201 203.15C92.0701 207.77 91.1601 214.15 90.6201 217.1C86.9501 212.1 83.5101 206.98 82.4301 205L87.5501 202.51L90.6201 203.15Z" fill="#EBEBEB"/>
<path d="M88.48 207.39L89.74 207.09C90.357 208.692 90.8714 210.332 91.28 212C91.1502 213.7 90.9299 215.393 90.62 217.07C89.9 216.07 89.19 215.07 88.5 214.12C88.7166 211.882 88.7099 209.627 88.48 207.39Z" fill="#455A64"/>
<path opacity="0.2" d="M88.5 207.66C88.5 207.57 88.5 207.48 88.5 207.39L89.76 207.09C89.76 207.09 89.76 207.16 89.83 207.28C89.6286 207.464 89.3846 207.594 89.12 207.66C88.915 207.697 88.705 207.697 88.5 207.66Z" fill="black"/>
<path d="M87.8 204.08L86.8 203.44L84.48 204.7C85.2724 205.314 86.2222 205.692 87.22 205.79L87.8 204.08Z" fill="#455A64"/>
<path d="M89.3301 203.83L89.6401 203.15L90.8101 203.89C90.6833 204.332 90.4167 204.722 90.0501 205L89.3301 203.83Z" fill="#455A64"/>
<path opacity="0.2" d="M87.8 204.08L86.8 203.44L84.48 204.7C85.2724 205.314 86.2222 205.692 87.22 205.79L87.8 204.08Z" fill="black"/>
<path opacity="0.2" d="M89.3301 203.83L89.6401 203.15L90.8101 203.89C90.6833 204.332 90.4167 204.722 90.0501 205L89.3301 203.83Z" fill="black"/>
<path d="M87.22 205.79C87.3161 205.191 87.5122 204.613 87.8 204.08L89.33 203.83C89.613 204.192 89.8545 204.584 90.05 205C90.0797 205.71 89.9745 206.419 89.74 207.09C89.3518 207.294 88.9185 207.397 88.48 207.39C87.8999 207.005 87.4583 206.444 87.22 205.79Z" fill="#455A64"/>
<path d="M88.34 203.54C85.9 203.54 84.41 205.44 82.19 206.1L77.65 201.2L79.41 198.58C79.7607 198.057 80.2172 197.615 80.75 197.28V198.23C80.7545 198.506 80.8305 198.777 80.9707 199.015C81.1109 199.254 81.3105 199.452 81.55 199.59L88.34 203.54Z" fill="#E0E0E0"/>
<path d="M88.34 203.54C89.69 203.12 91.71 204.81 91.71 204.81C91 200.9 88.87 199.35 88.34 199.35V203.54Z" fill="#E0E0E0"/>
<path d="M74.48 201.54L72.38 201.87C71.1405 202.075 69.9923 202.651 69.0871 203.522C68.1819 204.394 67.5623 205.519 67.31 206.75C66.1339 212.623 65.6739 218.616 65.94 224.6L75.54 220.17C76.55 212.67 78.52 206.47 74.48 201.54Z" fill="#EBEBEB"/>
<path d="M75.4401 223.51V222.67C75.4506 222.52 75.5187 222.381 75.6301 222.28C75.6895 222.225 75.7371 222.159 75.7698 222.085C75.8024 222.011 75.8196 221.931 75.8201 221.85V220.46C75.8201 220.37 75.8022 220.281 75.7672 220.199C75.7323 220.116 75.6812 220.041 75.6168 219.979C75.5525 219.917 75.4762 219.868 75.3926 219.835C75.309 219.803 75.2197 219.787 75.1301 219.79C70.7901 219.84 66.5601 221.91 65.4101 224.34C65.1488 225.102 65.1488 225.928 65.4101 226.69C64.6601 227.69 65.0201 228.18 65.4101 228.89C65.8069 229.247 66.2242 229.581 66.6601 229.89C69.5101 225.39 75.4401 223.51 75.4401 223.51Z" fill="#E0E0E0"/>
<path opacity="0.2" d="M71.0001 222.54C68.8652 223.47 66.9806 224.892 65.5001 226.69C65.4207 226.432 65.3638 226.168 65.3301 225.9C66.7683 224.151 68.7749 222.961 71.0001 222.54Z" fill="black"/>
<path opacity="0.2" d="M75.83 222C75.8028 222.1 75.7472 222.191 75.67 222.26C75.5586 222.361 75.4905 222.5 75.48 222.65V222.72C72.4497 223.189 69.6475 224.611 67.48 226.78C69.47 223.89 73.88 222.4 75.83 222Z" fill="black"/>
<path d="M84 228.9C87.7106 226.688 91.0456 223.9 93.88 220.64C88.32 220.64 80.55 220.98 75.46 222.74V223.51C75.46 223.51 69.53 225.39 66.72 229.92C70.94 233 77.13 232.88 84 228.9Z" fill="#FFA8A7"/>
<path opacity="0.2" d="M75.8601 223.53L75.9601 222.58L75.4801 222.74V223.51C74.0811 223.986 72.7395 224.617 71.4801 225.39C71.078 225.924 70.7703 226.522 70.5701 227.16C71.7301 225.52 73.0001 224.86 75.4801 224.22C77.7301 224.57 81.6501 226.22 85.6401 227.89C86.0267 227.643 86.4067 227.383 86.7801 227.11C82.0001 225.44 77.1101 223.62 75.8601 223.53Z" fill="black"/>
<path d="M83.5501 197.46H83.4801C82.9797 197.19 82.5425 196.817 82.1976 196.366C81.8528 195.914 81.6082 195.394 81.4801 194.84C81.3501 194.28 81.2401 193.72 81.1501 193.15C81.0601 192.58 80.6901 193.15 80.6901 193.15C80.6901 193.15 80.6901 194.4 80.7501 195.88C80.7501 196.67 80.7501 197.51 80.8101 198.28C80.8135 198.557 80.8892 198.828 81.0295 199.066C81.1698 199.305 81.3699 199.502 81.6101 199.64L88.3801 203.59V198.78C86.6969 198.674 85.0532 198.225 83.5501 197.46Z" fill="#FFA8A7"/>
<path d="M81.9 196.6V196.59L81.91 196.6H81.9Z" fill="#FFA8A7"/>
<path opacity="0.2" d="M82.58 197.36C82.1853 196.844 81.9026 196.251 81.75 195.62C82.1199 196.389 82.7261 197.02 83.48 197.42H83.55C85.0447 198.162 86.674 198.594 88.34 198.69V200C87.3723 199.917 86.4186 199.715 85.5 199.4C84.3545 199.007 83.3426 198.3 82.58 197.36Z" fill="black"/>
<path d="M96 182.06C96.5527 186.253 96.2775 190.513 95.19 194.6C94.9812 195.503 94.6445 196.372 94.19 197.18C93.7428 197.989 93.0392 198.626 92.19 198.99C91.0854 199.28 89.9246 199.28 88.82 198.99C86.7532 198.745 84.7477 198.128 82.9 197.17C81.9869 196.672 81.2258 195.935 80.6976 195.039C80.1694 194.143 79.8938 193.12 79.9 192.08C79.3956 192.392 78.8205 192.573 78.228 192.604C77.6355 192.636 77.0446 192.517 76.51 192.26C75.9825 191.974 75.535 191.561 75.2083 191.058C74.8816 190.555 74.6862 189.978 74.64 189.38C74.5295 188.912 74.5739 188.421 74.7663 187.981C74.9587 187.541 75.2888 187.175 75.707 186.938C76.1252 186.701 76.6089 186.607 77.0855 186.668C77.5621 186.73 78.0058 186.945 78.35 187.28C78.8881 187.744 79.3533 188.287 79.73 188.89C79.906 189.182 80.141 189.434 80.42 189.63C80.5646 189.737 80.7399 189.795 80.92 189.795C81.1 189.795 81.2753 189.737 81.42 189.63C81.5338 189.492 81.6168 189.332 81.6634 189.159C81.71 188.987 81.7191 188.806 81.69 188.63L81.44 186C81.4295 185.795 81.4787 185.591 81.5816 185.414C81.6846 185.236 81.8369 185.093 82.02 185C82.5649 184.709 82.9846 184.229 83.2 183.65C83.39 183.143 83.5013 182.61 83.53 182.07C83.5383 181.969 83.5703 181.87 83.6235 181.784C83.6767 181.697 83.7495 181.624 83.8361 181.57C83.9227 181.517 84.0206 181.484 84.122 181.476C84.2235 181.467 84.3255 181.482 84.42 181.52C88.1346 182.877 92.1752 183.065 96 182.06Z" fill="#FFA8A7"/>
<path d="M90.19 188.43L92.56 192.4L89.74 192.93L90.19 188.43Z" fill="#F28F8F"/>
<path d="M87 194.3L89.14 195.3C88.9564 195.542 88.6991 195.718 88.4069 195.801C88.1146 195.884 87.8033 195.869 87.52 195.76C87.283 195.609 87.1032 195.384 87.0089 195.119C86.9147 194.855 86.9116 194.566 87 194.3Z" fill="#F28F8F"/>
<path opacity="0.3" d="M87 194.3L89.14 195.3C88.9564 195.542 88.6991 195.718 88.4069 195.801C88.1146 195.884 87.8033 195.869 87.52 195.76C87.283 195.609 87.1032 195.384 87.0089 195.119C86.9147 194.855 86.9116 194.566 87 194.3Z" fill="black"/>
<path d="M88.2901 195.87C88.0421 195.924 87.7836 195.899 87.5501 195.8C87.3531 195.689 87.1931 195.523 87.0899 195.322C86.9868 195.121 86.9451 194.894 86.9701 194.67C87.2798 194.667 87.5807 194.773 87.8201 194.97C88.0879 195.197 88.2565 195.52 88.2901 195.87Z" fill="#F28F8F"/>
<path d="M86.12 188.58C86.1028 188.74 86.1336 188.901 86.2083 189.043C86.2831 189.186 86.3985 189.302 86.5398 189.379C86.6812 189.455 86.8421 189.488 87.0021 189.473C87.162 189.458 87.3139 189.395 87.4383 189.293C87.5627 189.192 87.654 189.055 87.7006 188.901C87.7472 188.747 87.7469 188.583 87.7 188.43C87.653 188.276 87.5613 188.14 87.4367 188.038C87.312 187.937 87.16 187.875 87 187.86C86.7881 187.84 86.5771 187.905 86.4124 188.04C86.2478 188.174 86.1427 188.368 86.12 188.58Z" fill="#263238"/>
<path d="M92.9 189C92.8829 189.16 92.9136 189.321 92.9884 189.463C93.0631 189.606 93.1785 189.722 93.3199 189.799C93.4612 189.875 93.6221 189.908 93.7821 189.893C93.9421 189.878 94.0939 189.815 94.2183 189.713C94.3427 189.612 94.434 189.475 94.4806 189.321C94.5272 189.168 94.527 189.003 94.48 188.85C94.433 188.696 94.3413 188.56 94.2167 188.458C94.0921 188.357 93.9401 188.295 93.78 188.28C93.5682 188.26 93.3571 188.325 93.1925 188.46C93.0278 188.594 92.9228 188.788 92.9 189Z" fill="#263238"/>
<path d="M94 185.88L95.66 187.29C95.7617 187.079 95.7952 186.841 95.7557 186.61C95.7163 186.379 95.606 186.166 95.44 186C95.2355 185.847 94.9919 185.754 94.7373 185.733C94.4826 185.712 94.2271 185.763 94 185.88Z" fill="#263238"/>
<path d="M87.1301 185.09L85.2201 186.09C85.1623 185.863 85.1765 185.624 85.2607 185.405C85.3449 185.187 85.495 185 85.6901 184.87C85.9267 184.769 86.187 184.736 86.4415 184.774C86.6959 184.813 86.9345 184.923 87.1301 185.09Z" fill="#263238"/>
<g opacity="0.5">
<path d="M144.1 169.79L144.11 172.03L115.91 188.23V185.99L144.1 169.79Z" fill="white"/>
<path d="M149.38 180.5L149.39 182.74L115.95 201.97V199.73L149.38 180.5Z" fill="white"/>
<path d="M154.37 173.05L154.38 175.28L115.94 197.4L115.93 195.16L154.37 173.05Z" fill="white"/>
<path d="M162.27 154.73L162.28 156.96L115.9 183.66L115.89 181.43L162.27 154.73Z" fill="white"/>
<path d="M167.85 146.89L167.86 149.13L115.89 179.06L115.88 176.82L167.85 146.89Z" fill="white"/>
<path d="M142.64 152.87L142.66 157.35L115.87 172.82L115.86 168.33L142.64 152.87Z" fill="white"/>
</g>
<path d="M211.82 110.51L211.84 115.74L182.87 132.51L182.85 127.28L211.82 110.51Z" fill="#54B862"/>
<path d="M267.62 86.95L267.63 90.14L182.89 138.89L182.88 135.7L267.62 86.95Z" fill="#54B862"/>
<g opacity="0.3">
<path d="M211.82 110.51L211.84 115.74L182.87 132.51L182.85 127.28L211.82 110.51Z" fill="white"/>
<path d="M267.62 86.95L267.63 90.14L182.89 138.89L182.88 135.7L267.62 86.95Z" fill="white"/>
<path d="M261.4 109.48L261.41 112.68L182.94 158.06L182.93 154.87L261.4 109.48Z" fill="white"/>
<path d="M267.66 99.73L267.67 102.93L182.92 151.68L182.91 148.48L267.66 99.73Z" fill="white"/>
<path d="M248.41 104.38L248.42 107.57L182.9 145.28V142.09L248.41 104.38Z" fill="white"/>
</g>
<g opacity="0.5">
<path d="M84.9301 240.79L84.9401 245.57L66.4601 256.24L66.4501 251.46L84.9301 240.79Z" fill="white"/>
<path d="M103.33 237.83L103.34 240.08L66.4701 261.36V259.11L103.33 237.83Z" fill="white"/>
<path d="M103.34 242.33L103.35 244.58L66.4901 265.86L66.4801 263.61L103.34 242.33Z" fill="white"/>
<path d="M92.6601 259.28L92.6701 264.06L66.5301 279.16L66.5101 274.37L92.6601 259.28Z" fill="white"/>
<path d="M84.9201 257.47L84.9301 259.72L66.5001 270.36L66.4901 268.11L84.9201 257.47Z" fill="white"/>
<path d="M76.5701 308.19L76.5801 310.44L66.6301 316.18L66.6201 313.94L76.5701 308.19Z" fill="white"/>
<path d="M103.47 288.16L103.48 290.41L66.6201 311.69L66.6101 309.44L103.47 288.16Z" fill="white"/>
<path d="M103.46 283.66L103.47 285.91L66.6101 307.19L66.6001 304.94L103.46 283.66Z" fill="white"/>
<path d="M82.5901 288.05L82.6101 292.82L66.5901 302.07L66.5801 297.29L82.5901 288.05Z" fill="white"/>
<path d="M96.8601 273.52L96.8701 275.77L66.5701 293.27L66.5601 291.02L96.8601 273.52Z" fill="white"/>
<path d="M103.41 265.24V267.49L66.55 288.77V286.52L103.41 265.24Z" fill="white"/>
<path d="M103.39 260.75L103.4 263L66.54 284.28L66.53 282.03L103.39 260.75Z" fill="white"/>
</g>
<path d="M164.66 211.02L149.63 239.56L145.38 247.64L148.31 238.54L140.03 232.11L130.8 250.43L130.84 261.62L179.24 233.68L179.21 222.48L164.66 211.02Z" fill="#54B862"/>
<path d="M148.78 226.15C149.982 225.367 150.981 224.311 151.697 223.069C152.413 221.826 152.825 220.432 152.9 219C152.9 216.38 151.04 215.33 148.76 216.64C147.561 217.421 146.563 218.473 145.847 219.712C145.132 220.951 144.718 222.341 144.64 223.77C144.65 226.4 146.51 227.46 148.78 226.15Z" fill="#54B862"/>
<g opacity="0.3">
<path d="M164.66 211.02L149.63 239.56L145.38 247.64L148.31 238.54L140.03 232.11L130.8 250.43L130.84 261.62L179.24 233.68L179.21 222.48L164.66 211.02Z" fill="white"/>
<path d="M148.78 226.15C149.982 225.367 150.981 224.311 151.697 223.069C152.413 221.826 152.825 220.432 152.9 219C152.9 216.38 151.04 215.33 148.76 216.64C147.561 217.421 146.563 218.473 145.847 219.712C145.132 220.951 144.718 222.341 144.64 223.77C144.65 226.4 146.51 227.46 148.78 226.15Z" fill="white"/>
</g>
<path d="M250.32 162.5L235.3 191.03L231.05 199.11L233.98 190.01L225.69 183.58L216.47 201.9L216.5 213.1L264.91 185.15L264.87 173.96L250.32 162.5Z" fill="#54B862"/>
<path d="M234.45 177.62C235.648 176.841 236.645 175.79 237.359 174.553C238.073 173.316 238.485 171.927 238.56 170.5C238.56 167.88 236.7 166.82 234.42 168.14C233.219 168.915 232.219 169.965 231.505 171.203C230.79 172.441 230.38 173.832 230.31 175.26C230.31 177.88 232.17 178.94 234.45 177.62Z" fill="#54B862"/>
<g opacity="0.5">
<path d="M250.32 162.5L235.3 191.03L231.05 199.11L233.98 190.01L225.69 183.58L216.47 201.9L216.5 213.1L264.91 185.15L264.87 173.96L250.32 162.5Z" fill="white"/>
<path d="M234.45 177.62C235.648 176.841 236.645 175.79 237.359 174.553C238.073 173.316 238.485 171.927 238.56 170.5C238.56 167.88 236.7 166.82 234.42 168.14C233.219 168.915 232.219 169.965 231.504 171.203C230.79 172.441 230.38 173.832 230.31 175.26C230.31 177.88 232.17 178.94 234.45 177.62Z" fill="white"/>
</g>
<path d="M261.4 109.48L261.41 112.68L182.94 158.06L182.93 154.87L261.4 109.48Z" fill="#54B862"/>
<path d="M267.66 99.73L267.67 102.93L182.92 151.68L182.91 148.48L267.66 99.73Z" fill="#54B862"/>
<path d="M248.41 104.38L248.42 107.57L182.9 145.28V142.09L248.41 104.38Z" fill="#54B862"/>
<path d="M329.06 374L331.68 375.67H331.74C332.216 375.878 332.739 375.959 333.256 375.905C333.773 375.851 334.267 375.663 334.69 375.36C335.907 374.567 336.92 373.498 337.647 372.24C338.373 370.982 338.792 369.571 338.87 368.12C338.92 367.614 338.838 367.103 338.631 366.639C338.424 366.174 338.1 365.771 337.69 365.47L336.92 364.98L362.01 354.79C362.036 355.093 362.137 355.384 362.302 355.639C362.468 355.893 362.694 356.103 362.96 356.25L360.7 375.98V378.66C359.685 379.478 358.853 380.499 358.257 381.658C357.661 382.818 357.315 384.089 357.24 385.39C357.184 385.92 357.277 386.456 357.508 386.936C357.74 387.417 358.101 387.823 358.55 388.11L361.18 389.78H361.23C361.706 389.99 362.228 390.073 362.745 390.02C363.262 389.967 363.756 389.781 364.18 389.48C365.399 388.689 366.413 387.621 367.14 386.362C367.866 385.104 368.285 383.691 368.36 382.24C368.405 381.735 368.321 381.228 368.116 380.764C367.911 380.301 367.593 379.897 367.19 379.59L364.53 377.91C364.113 377.658 363.625 377.549 363.14 377.6L365.87 357C366.492 356.993 367.109 356.892 367.7 356.7L391.46 369.54L390.1 370.4C389.69 370.701 389.366 371.104 389.159 371.569C388.952 372.033 388.87 372.544 388.92 373.05C388.998 374.501 389.417 375.912 390.143 377.17C390.87 378.428 391.883 379.497 393.1 380.29C393.528 380.602 394.031 380.795 394.558 380.849C395.085 380.904 395.617 380.818 396.1 380.6H396.16L398.78 378.93C399.231 378.645 399.593 378.239 399.825 377.758C400.056 377.277 400.148 376.741 400.09 376.21C400.018 374.92 399.679 373.659 399.094 372.507C398.509 371.355 397.69 370.338 396.69 369.52V365.38L374.56 352.23L386.23 349.29C385.462 350.542 385.035 351.972 384.99 353.44C384.931 353.97 385.021 354.505 385.251 354.986C385.481 355.467 385.841 355.873 386.29 356.16L388.91 357.83H388.96C389.441 358.054 389.975 358.144 390.503 358.089C391.031 358.034 391.535 357.838 391.96 357.52C393.177 356.729 394.189 355.662 394.916 354.405C395.642 353.149 396.061 351.739 396.14 350.29C396.183 349.785 396.098 349.276 395.892 348.813C395.685 348.349 395.365 347.946 394.96 347.64L392.07 346C391.769 345.829 391.435 345.723 391.09 345.691C390.746 345.658 390.398 345.698 390.07 345.81V345.14L388.65 344.66L369.65 345.66V342.31C369.852 342.229 370.049 342.135 370.24 342.03C370.754 341.8 371.199 341.439 371.529 340.983C371.86 340.526 372.063 339.99 372.12 339.43V317.47H359.46V339.39C359.509 339.949 359.706 340.484 360.031 340.942C360.357 341.399 360.798 341.761 361.31 341.99C361.511 342.102 361.718 342.202 361.93 342.29V345.1L348.23 342.1L347.58 342.37V344.89L344.92 346.58C344.517 346.887 344.199 347.291 343.994 347.754C343.789 348.218 343.705 348.725 343.75 349.23C343.842 351.186 344.564 353.059 345.81 354.57L332.58 360.57V363.7C332.391 363.778 332.207 363.868 332.03 363.97C330.813 364.761 329.8 365.828 329.073 367.084C328.347 368.34 327.928 369.751 327.85 371.2C327.766 371.733 327.835 372.28 328.049 372.775C328.263 373.271 328.614 373.696 329.06 374ZM337 359.82L346.59 355.55L333.59 361.32L337 359.82ZM354 349.04L355.94 350.04L354.6 350.64C354.417 350.075 354.186 349.526 353.91 349L354 349.04Z" fill="#E0E0E0"/>
<path d="M392.69 351.28L394.79 347.69L392.07 346C391.594 345.767 391.062 345.668 390.534 345.714C390.005 345.759 389.499 345.948 389.07 346.26C387.853 347.05 386.841 348.117 386.116 349.374C385.391 350.631 384.974 352.041 384.9 353.49C384.841 354.02 384.931 354.555 385.161 355.036C385.391 355.517 385.751 355.924 386.2 356.21L388.88 357.91L391.09 354.12C391.776 353.268 392.317 352.309 392.69 351.28Z" fill="#37474F"/>
<path d="M391.76 348C394.07 346.66 395.96 347.73 395.97 350.39C395.891 351.839 395.472 353.249 394.746 354.505C394.019 355.762 393.007 356.829 391.79 357.62C389.48 358.96 387.59 357.89 387.58 355.23C387.659 353.781 388.078 352.371 388.804 351.115C389.531 349.858 390.543 348.791 391.76 348Z" fill="#455A64"/>
<path d="M346.92 350.26L344.82 346.66L347.55 344.93C348.025 344.693 348.556 344.591 349.085 344.635C349.614 344.679 350.121 344.868 350.55 345.18C351.765 345.973 352.776 347.04 353.502 348.296C354.229 349.552 354.649 350.962 354.73 352.41C354.786 352.942 354.692 353.478 354.461 353.96C354.23 354.442 353.87 354.851 353.42 355.14L350.74 356.85L348.53 353.06C347.847 352.219 347.304 351.273 346.92 350.26Z" fill="#37474F"/>
<path d="M347.85 346.92C345.54 345.59 343.65 346.65 343.65 349.31C343.726 350.76 344.143 352.171 344.868 353.43C345.592 354.688 346.604 355.757 347.82 356.55C350.14 357.88 352.02 356.81 352.03 354.15C351.952 352.701 351.533 351.291 350.807 350.034C350.08 348.778 349.067 347.711 347.85 346.92Z" fill="#455A64"/>
<path d="M361.93 341.35H369.71V354.75C369.671 355.092 369.545 355.417 369.343 355.696C369.142 355.974 368.872 356.196 368.56 356.34C367.708 356.774 366.766 357 365.81 357C364.854 357 363.912 356.774 363.06 356.34C362.752 356.194 362.486 355.971 362.288 355.692C362.09 355.414 361.967 355.09 361.93 354.75V341.35Z" fill="#EBEBEB"/>
<path d="M390.08 345.1V348.3L369.71 353.43V346.67L390.08 345.1Z" fill="#E0E0E0"/>
<path d="M390.08 345.1L388.66 344.62L369.71 345.62V346.67L390.08 345.1Z" fill="#F5F5F5"/>
<path d="M392.13 374.06L390.03 370.46L392.75 368.73C393.224 368.491 393.756 368.388 394.285 368.432C394.815 368.476 395.322 368.666 395.75 368.98C396.969 369.769 397.983 370.835 398.71 372.092C399.436 373.349 399.855 374.76 399.93 376.21C399.988 376.741 399.896 377.277 399.665 377.758C399.433 378.239 399.071 378.645 398.62 378.93L396 380.66L393.79 376.87C393.085 376.032 392.524 375.082 392.13 374.06Z" fill="#37474F"/>
<path d="M393.06 370.72C390.74 369.38 388.86 370.45 388.85 373.11C388.928 374.56 389.347 375.972 390.073 377.23C390.8 378.488 391.813 379.557 393.03 380.35C395.34 381.68 397.23 380.61 397.23 377.95C397.154 376.501 396.737 375.091 396.012 373.835C395.287 372.578 394.276 371.511 393.06 370.72Z" fill="#455A64"/>
<path d="M365 383.19L367.1 379.59L364.37 377.86C363.895 377.623 363.364 377.521 362.835 377.565C362.306 377.609 361.799 377.798 361.37 378.11C360.152 378.9 359.139 379.967 358.412 381.223C357.686 382.48 357.267 383.891 357.19 385.34C357.134 385.87 357.227 386.406 357.458 386.886C357.69 387.367 358.051 387.773 358.5 388.06L361.18 389.77L363.39 385.98C364.075 385.144 364.619 384.201 365 383.19Z" fill="#37474F"/>
<path d="M364.07 379.85C366.38 378.51 368.26 379.58 368.27 382.24C368.195 383.691 367.776 385.104 367.05 386.362C366.323 387.621 365.309 388.689 364.09 389.48C361.78 390.81 359.9 389.74 359.89 387.08C359.965 385.63 360.382 384.218 361.109 382.962C361.836 381.705 362.851 380.638 364.07 379.85Z" fill="#455A64"/>
<path d="M335.58 369.08L337.68 365.48L335 363.75C334.526 363.511 333.994 363.408 333.465 363.452C332.935 363.496 332.428 363.686 332 364C330.783 364.791 329.77 365.858 329.043 367.114C328.317 368.37 327.898 369.781 327.82 371.23C327.762 371.761 327.854 372.297 328.085 372.778C328.317 373.259 328.679 373.665 329.13 373.95L331.81 375.66L334.02 371.87C334.688 371.031 335.214 370.088 335.58 369.08Z" fill="#37474F"/>
<path d="M334.65 365.74C336.97 364.4 338.85 365.47 338.86 368.13C338.782 369.581 338.363 370.992 337.637 372.25C336.91 373.508 335.897 374.577 334.68 375.37C332.37 376.7 330.48 375.63 330.48 372.97C330.554 371.521 330.971 370.11 331.696 368.854C332.421 367.597 333.433 366.53 334.65 365.74Z" fill="#455A64"/>
<path d="M394.98 366.27V371.45L367.7 356.71V349.57L394.98 366.27Z" fill="#E0E0E0"/>
<path d="M396.56 365.39L369.26 349.17L367.7 349.57L394.98 366.27L396.56 365.39Z" fill="#F5F5F5"/>
<path d="M396.56 370.56L394.98 371.45V366.27L396.56 365.39V370.56Z" fill="#F0F0F0"/>
<path d="M365.87 349.57L362.54 375.94V380.66L365.87 357V349.57Z" fill="#E0E0E0"/>
<path d="M362.54 375.94H360.62V380.65H362.54V375.94Z" fill="#F0F0F0"/>
<path d="M360.62 375.94L363.64 349.57H365.87L362.54 375.94H360.62Z" fill="#F5F5F5"/>
<path d="M333.57 361.32V366.27L361.94 354.75V348.69L333.57 361.32Z" fill="#E0E0E0"/>
<path d="M332.48 365.54L333.57 366.27V361.32L332.48 360.61V365.54Z" fill="#F0F0F0"/>
<path d="M336.95 359.82L333.57 361.32L332.48 360.61L361.94 347.34V348.69L336.95 359.82Z" fill="#F5F5F5"/>
<path d="M347.58 342.41V345.65L355.85 350.08L361.94 347.34V346.01L347.58 342.41Z" fill="#E0E0E0"/>
<path d="M347.58 342.41L348.23 342.14L361.94 345.1V346.01L347.58 342.41Z" fill="#F5F5F5"/>
<path d="M359.46 317.47H372.18V339.39C372.123 339.95 371.919 340.486 371.589 340.943C371.259 341.399 370.814 341.76 370.3 341.99C368.907 342.702 367.364 343.073 365.8 343.073C364.235 343.073 362.693 342.702 361.3 341.99C360.788 341.761 360.347 341.399 360.021 340.942C359.696 340.484 359.499 339.949 359.45 339.39L359.46 317.47Z" fill="#E0E0E0"/>
<path d="M309.36 282.23C310.066 283.295 311.007 284.185 312.11 284.83L363.94 312.36C365.657 313.271 367.568 313.757 369.512 313.776C371.455 313.795 373.375 313.347 375.11 312.47L411.42 294.08C413.718 292.916 415.746 291.281 417.372 289.283C418.999 287.285 420.187 284.967 420.86 282.48L438.39 217.75C438.68 217.84 438.97 217.94 439.27 218.02C440.006 218.26 440.776 218.379 441.55 218.37H441.66L420.86 295.18C420.187 297.667 418.999 299.985 417.372 301.983C415.746 303.981 413.718 305.616 411.42 306.78L375.11 325.17C373.375 326.047 371.455 326.495 369.512 326.476C367.568 326.457 365.657 325.971 363.94 325.06L312.11 297.53C306.94 294.57 306.45 286.65 309.36 282.23Z" fill="#54B862"/>
<path opacity="0.3" d="M309.36 282.23C310.066 283.295 311.007 284.185 312.11 284.83L363.94 312.36C365.657 313.271 367.568 313.757 369.512 313.776C371.455 313.795 373.375 313.347 375.11 312.47L411.42 294.08C413.718 292.916 415.746 291.281 417.372 289.283C418.999 287.285 420.187 284.967 420.86 282.48L438.39 217.75C438.68 217.84 438.97 217.94 439.27 218.02C440.006 218.26 440.776 218.379 441.55 218.37H441.66L420.86 295.18C420.187 297.667 418.999 299.985 417.372 301.983C415.746 303.981 413.718 305.616 411.42 306.78L375.11 325.17C373.375 326.047 371.455 326.495 369.512 326.476C367.568 326.457 365.657 325.971 363.94 325.06L312.11 297.53C306.94 294.57 306.45 286.65 309.36 282.23Z" fill="black"/>
<path d="M311.78 279.89L349.34 260.62L398.8 286.07C397.19 286.46 395.55 286.78 393.93 287.07C389.68 287.92 385.34 288.86 381.65 291.14C377.96 293.42 374.97 297.3 374.94 301.64L376.26 311.84L375.11 312.43C373.375 313.307 371.455 313.755 369.512 313.736C367.568 313.717 365.657 313.231 363.94 312.32L312.11 284.79C311.007 284.145 310.066 283.255 309.36 282.19C309.969 281.239 310.8 280.45 311.78 279.89Z" fill="#54B862"/>
<path opacity="0.2" d="M311.78 279.89L349.34 260.62L398.8 286.07C397.19 286.46 395.55 286.78 393.93 287.07C389.68 287.92 385.34 288.86 381.65 291.14C377.96 293.42 374.97 297.3 374.94 301.64L376.26 311.84L375.11 312.43C373.375 313.307 371.455 313.755 369.512 313.736C367.568 313.717 365.657 313.231 363.94 312.32L312.11 284.79C311.007 284.145 310.066 283.255 309.36 282.19C309.969 281.239 310.8 280.45 311.78 279.89Z" fill="black"/>
<path d="M317.24 247.67C317.24 247.67 347.39 256.54 355.37 248.67C365.29 238.93 361.14 214.38 359.95 204.78C358.76 195.18 359.95 188.52 362.61 185.71C365.27 182.9 369.12 178.77 381.61 183.94C368.98 190.44 367.35 221.34 371.34 233.75C361.44 243.94 362.12 259.75 361.93 267.06C361.93 267.06 336.17 273.35 322.72 280.74L317.24 247.67Z" fill="#54B862"/>
<path opacity="0.1" d="M317.24 247.67C317.24 247.67 347.39 256.54 355.37 248.67C365.29 238.93 361.14 214.38 359.95 204.78C358.76 195.18 359.95 188.52 362.61 185.71C365.27 182.9 369.12 178.77 381.61 183.94C368.98 190.44 367.35 221.34 371.34 233.75C361.44 243.94 362.12 259.75 361.93 267.06C361.93 267.06 336.17 273.35 322.72 280.74L317.24 247.67Z" fill="white"/>
<path d="M322.71 280.78L316.54 277.45C316.54 260.45 314.03 262.16 309.36 255.51C304.69 248.86 311.85 244.72 317.24 247.67C322.63 250.62 324.81 259.52 322.71 280.78Z" fill="#54B862"/>
<path opacity="0.2" d="M322.71 280.78L316.54 277.45C316.54 260.45 314.03 262.16 309.36 255.51C304.69 248.86 311.85 244.72 317.24 247.67C322.63 250.62 324.81 259.52 322.71 280.78Z" fill="white"/>
<path d="M381.6 184C381.6 184 415.37 198.63 431.82 206.76L430.62 212.76L376.75 188.31C378.017 186.522 379.676 185.048 381.6 184Z" fill="#54B862"/>
<path opacity="0.1" d="M381.6 184C381.6 184 415.37 198.63 431.82 206.76L430.62 212.76L376.75 188.31C378.017 186.522 379.676 185.048 381.6 184Z" fill="white"/>
<path d="M371.33 233.79C367.93 223.2 368.62 199.14 376.75 188.28L430.62 212.73L418.31 274.44L398.8 286.07L361.92 267.07C362.11 259.77 361.43 244 371.33 233.79Z" fill="#54B862"/>
<path opacity="0.1" d="M371.33 233.79C367.93 223.2 368.62 199.14 376.75 188.28L430.62 212.73L418.31 274.44L398.8 286.07L361.92 267.07C362.11 259.77 361.43 244 371.33 233.79Z" fill="black"/>
<path d="M404.67 246.16C403.76 245.64 403.01 246.06 403.01 247.16C403.041 247.731 403.206 248.288 403.493 248.783C403.78 249.278 404.18 249.699 404.66 250.01C405.57 250.54 406.32 250.12 406.32 249.07C406.296 248.489 406.134 247.921 405.847 247.415C405.56 246.909 405.157 246.479 404.67 246.16Z" fill="#54B862"/>
<path d="M396.34 241.26C395.42 240.74 394.68 241.16 394.67 242.26C394.702 242.833 394.868 243.39 395.154 243.887C395.441 244.383 395.84 244.806 396.32 245.12C397.24 245.64 397.98 245.22 397.98 244.17C397.96 243.589 397.8 243.021 397.515 242.515C397.229 242.009 396.826 241.578 396.34 241.26Z" fill="#54B862"/>
<path d="M388 236.37C387.09 235.84 386.34 236.26 386.34 237.31C386.372 237.883 386.538 238.44 386.824 238.937C387.111 239.433 387.51 239.856 387.99 240.17C388.9 240.7 389.65 240.27 389.65 239.22C389.619 238.649 389.454 238.092 389.167 237.597C388.88 237.102 388.48 236.681 388 236.37Z" fill="#54B862"/>
<path d="M379.66 231.47C378.75 230.94 378.01 231.36 378 232.41C378.032 232.983 378.198 233.54 378.484 234.037C378.771 234.533 379.17 234.956 379.65 235.27C380.57 235.8 381.31 235.37 381.31 234.27C381.275 233.706 381.107 233.159 380.82 232.673C380.533 232.186 380.136 231.774 379.66 231.47Z" fill="#54B862"/>
<g opacity="0.2">
<path d="M404.67 246.16C403.76 245.64 403.01 246.06 403.01 247.16C403.041 247.731 403.206 248.288 403.493 248.783C403.78 249.278 404.18 249.699 404.66 250.01C405.57 250.54 406.32 250.12 406.32 249.07C406.296 248.489 406.134 247.921 405.847 247.415C405.56 246.909 405.157 246.479 404.67 246.16Z" fill="white"/>
<path d="M396.34 241.26C395.42 240.74 394.68 241.16 394.67 242.26C394.702 242.833 394.868 243.39 395.154 243.887C395.441 244.383 395.84 244.806 396.32 245.12C397.24 245.64 397.98 245.22 397.98 244.17C397.96 243.589 397.8 243.021 397.515 242.515C397.229 242.009 396.826 241.578 396.34 241.26Z" fill="white"/>
<path d="M388 236.37C387.09 235.84 386.34 236.26 386.34 237.31C386.372 237.883 386.538 238.44 386.824 238.937C387.111 239.433 387.51 239.856 387.99 240.17C388.9 240.7 389.65 240.27 389.65 239.22C389.619 238.649 389.454 238.092 389.167 237.597C388.88 237.102 388.48 236.681 388 236.37Z" fill="white"/>
<path d="M379.66 231.47C378.75 230.94 378.01 231.36 378 232.41C378.032 232.983 378.198 233.54 378.484 234.037C378.771 234.533 379.17 234.956 379.65 235.27C380.57 235.8 381.31 235.37 381.31 234.27C381.275 233.706 381.107 233.159 380.82 232.673C380.533 232.186 380.136 231.774 379.66 231.47Z" fill="white"/>
</g>
<path d="M381.65 291.18C385.34 288.9 389.65 287.96 393.93 287.11C395.55 286.78 397.19 286.46 398.8 286.11C401.421 285.532 403.953 284.607 406.33 283.36C412.33 280.07 416.28 273.92 418.2 267.36C420.12 260.8 420.2 253.9 419.76 247.1C419.32 240.3 418.51 233.52 418.76 226.72C418.88 222.72 419.48 218.53 422.15 215.61C424.82 212.69 429.37 211.67 433.41 212.22C434.738 212.406 436.046 212.71 437.32 213.13L439.11 215.23L438.43 217.76L420.9 282.49C419.681 286.979 416.804 290.839 412.85 293.29C412.4 293.57 411.94 293.84 411.46 294.09L376.3 311.89L374.98 301.69C375 297.34 378 293.45 381.65 291.18Z" fill="#54B862"/>
<path opacity="0.3" d="M381.65 291.18C385.34 288.9 389.65 287.96 393.93 287.11C395.55 286.78 397.19 286.46 398.8 286.11C401.421 285.532 403.953 284.607 406.33 283.36C412.33 280.07 416.28 273.92 418.2 267.36C420.12 260.8 420.2 253.9 419.76 247.1C419.32 240.3 418.51 233.52 418.76 226.72C418.88 222.72 419.48 218.53 422.15 215.61C424.82 212.69 429.37 211.67 433.41 212.22C434.738 212.406 436.046 212.71 437.32 213.13L439.11 215.23L438.43 217.76L420.9 282.49C419.681 286.979 416.804 290.839 412.85 293.29C412.4 293.57 411.94 293.84 411.46 294.09L376.3 311.89L374.98 301.69C375 297.34 378 293.45 381.65 291.18Z" fill="black"/>
<path d="M381.6 284.22C394.46 280.56 407.1 280.08 411.75 270.84C416.4 261.6 416.75 248.84 414.41 226.69C414.117 223.833 414.188 220.95 414.62 218.11C415.99 209.81 420.98 206.27 426.72 206.18C432.399 206.1 437.897 208.18 442.1 212C442.919 212.68 443.573 213.539 444.01 214.51C444.218 214.999 444.292 215.534 444.226 216.061C444.159 216.588 443.953 217.088 443.63 217.51C443.103 218.053 442.386 218.372 441.63 218.4H441.52C440.746 218.409 439.976 218.29 439.24 218.05C438.94 217.97 438.65 217.87 438.36 217.78C436.78 217.29 435.24 216.7 433.63 216.3C431.743 215.75 429.737 215.75 427.85 216.3C426.947 216.65 426.139 217.208 425.493 217.929C424.846 218.651 424.379 219.514 424.13 220.45C418.71 238.16 425.58 257.19 419.48 271.82C414.48 285.12 397.25 290.64 385.09 294.59C386.261 294.119 387.293 293.359 388.09 292.38C388.694 291.44 388.974 290.328 388.888 289.214C388.801 288.1 388.352 287.045 387.61 286.21C386.849 285.41 385.902 284.81 384.854 284.463C383.806 284.116 382.688 284.032 381.6 284.22Z" fill="#54B862"/>
<path opacity="0.1" d="M381.6 284.22C394.46 280.56 407.1 280.08 411.75 270.84C416.4 261.6 416.75 248.84 414.41 226.69C414.117 223.833 414.188 220.95 414.62 218.11C415.99 209.81 420.98 206.27 426.72 206.18C432.399 206.1 437.897 208.18 442.1 212C442.919 212.68 443.573 213.539 444.01 214.51C444.218 214.999 444.292 215.534 444.226 216.061C444.159 216.588 443.953 217.088 443.63 217.51C443.103 218.053 442.386 218.372 441.63 218.4H441.52C440.746 218.409 439.976 218.29 439.24 218.05C438.94 217.97 438.65 217.87 438.36 217.78C436.78 217.29 435.24 216.7 433.63 216.3C431.743 215.75 429.737 215.75 427.85 216.3C426.947 216.65 426.139 217.208 425.493 217.929C424.846 218.651 424.379 219.514 424.13 220.45C418.71 238.16 425.58 257.19 419.48 271.82C414.48 285.12 397.25 290.64 385.09 294.59C386.261 294.119 387.293 293.359 388.09 292.38C388.694 291.44 388.974 290.328 388.888 289.214C388.801 288.1 388.352 287.045 387.61 286.21C386.849 285.41 385.902 284.81 384.854 284.463C383.806 284.116 382.688 284.032 381.6 284.22Z" fill="white"/>
<path d="M372.68 293.32C373.433 291.223 374.547 289.274 375.97 287.56C377.413 285.84 379.399 284.662 381.6 284.22C382.7 284.022 383.832 284.1 384.893 284.45C385.955 284.799 386.913 285.407 387.68 286.22C388.422 287.055 388.871 288.11 388.958 289.224C389.044 290.338 388.764 291.45 388.16 292.39C387.363 293.369 386.331 294.129 385.16 294.6C384.192 295.011 383.247 295.475 382.33 295.99C379.934 297.618 378.208 300.058 377.47 302.86C376.761 305.639 376.385 308.492 376.35 311.36L376.3 311.91L370.3 308.57C370.012 303.376 370.823 298.18 372.68 293.32Z" fill="#54B862"/>
<path opacity="0.2" d="M372.68 293.32C373.433 291.223 374.547 289.274 375.97 287.56C377.413 285.84 379.399 284.662 381.6 284.22C382.7 284.022 383.832 284.1 384.893 284.45C385.955 284.799 386.913 285.407 387.68 286.22C388.422 287.055 388.871 288.11 388.958 289.224C389.044 290.338 388.764 291.45 388.16 292.39C387.363 293.369 386.331 294.129 385.16 294.6C384.192 295.011 383.247 295.475 382.33 295.99C379.934 297.618 378.208 300.058 377.47 302.86C376.761 305.639 376.385 308.492 376.35 311.36L376.3 311.91L370.3 308.57C370.012 303.376 370.823 298.18 372.68 293.32Z" fill="white"/>
<path opacity="0.1" d="M444 214.47C443.56 213.514 442.911 212.67 442.1 212C439.174 209.352 435.594 207.532 431.73 206.73C415.25 198.56 381.6 184 381.6 184C369.12 178.83 365.27 183 362.6 185.77C359.93 188.54 358.76 195.23 359.94 204.84C361.12 214.45 365.28 238.99 355.36 248.73C347.36 256.56 317.23 247.73 317.23 247.73C311.84 244.78 304.67 248.92 309.35 255.57C314.03 262.22 316.53 260.57 316.53 277.51L311.77 279.95C310.785 280.522 309.954 281.325 309.35 282.29C306.44 286.71 306.93 294.63 312.1 297.58L363.93 325.11C365.647 326.021 367.558 326.507 369.502 326.526C371.445 326.545 373.365 326.097 375.1 325.22L411.41 306.83C413.708 305.666 415.736 304.031 417.362 302.033C418.989 300.035 420.177 297.717 420.85 295.23L441.65 218.42C442.406 218.392 443.123 218.073 443.65 217.53C443.979 217.099 444.186 216.587 444.248 216.048C444.309 215.509 444.224 214.964 444 214.47ZM419.55 285.89C419.42 286.15 419.27 286.4 419.13 286.65C419.28 286.4 419.43 286.15 419.56 285.89H419.55ZM418.67 287.44C418.49 287.72 418.3 287.99 418.11 288.26C418.31 288 418.5 287.72 418.68 287.44H418.67ZM380.04 184.93C379.72 185.17 379.41 185.41 379.1 185.68C379.41 185.44 379.72 185.2 380 185L380.04 184.93ZM376.75 188.25C376.51 188.57 376.27 188.92 376.04 189.25C376.558 188.447 377.14 187.688 377.78 186.98C377.43 187.42 377.08 187.84 376.75 188.28V188.25ZM376 189.36C375.77 189.72 375.55 190.08 375.33 190.46C375.54 190.08 375.76 189.72 376 189.36ZM375.32 190.47C373.9 192.994 372.789 195.68 372.01 198.47C372.784 195.68 373.892 192.994 375.31 190.47H375.32ZM370.07 207.94C370.01 208.42 369.96 208.89 369.9 209.36C370 208.89 370 208.42 370.06 207.94H370.07ZM369.87 209.67C369.82 210.12 369.78 210.58 369.74 211.04C369.77 210.58 369.81 210.12 369.86 209.67H369.87ZM369.71 211.35C369.71 211.82 369.63 212.29 369.6 212.75C369.62 212.29 369.66 211.82 369.7 211.35H369.71ZM369.6 212.83C369.5 214.29 369.44 215.74 369.43 217.17C369.43 215.74 369.49 214.29 369.59 212.83H369.6ZM370.7 231.43C370.7 231.27 370.62 231.1 370.59 230.93C370.62 231.1 370.66 231.27 370.7 231.43ZM370.42 230.12C370.42 229.94 370.35 229.76 370.32 229.57C370.35 229.76 370.38 229.94 370.42 230.12ZM369.96 227.22C369.96 227.04 369.96 226.86 369.88 226.67C369.91 226.86 369.93 227 370 227.22H369.96ZM369.73 225.31C369.73 225.09 369.73 224.87 369.68 224.65C369.7 224.87 369.71 225.09 369.73 225.31ZM369.59 223.62C369.59 223.37 369.59 223.1 369.59 222.84C369.56 223.1 369.57 223.37 369.59 223.62ZM369.5 222.02C369.5 221.73 369.5 221.44 369.5 221.14C369.47 221.44 369.48 221.73 369.5 222V222.02ZM369.44 220.38C369.44 220.07 369.44 219.76 369.44 219.44C369.42 219.76 369.43 220.07 369.44 220.38ZM414 292.44C413.61 292.73 413.2 293.02 412.78 293.28C413.23 293 413.64 292.73 414 292.44ZM414.28 292.24C414.63 291.97 414.96 291.69 415.28 291.4C415 291.69 414.66 292 414.31 292.24H414.28ZM415.67 291.06C415.96 290.78 416.24 290.5 416.51 290.21C416.27 290.5 416 290.78 415.7 291.06H415.67ZM420.02 284.88C420.11 284.67 420.21 284.46 420.29 284.25C420.21 284.44 420.11 284.65 420 284.86L420.02 284.88Z" fill="black"/>
<path d="M353.57 313.89C359.549 311.278 364.479 306.736 367.57 300.99C370.62 295.29 372.14 290.27 370.98 283.9L324.42 265.58C322.97 279.44 310.24 288.51 310.24 288.51L353.57 313.89Z" fill="#37474F"/>
<path d="M302.77 368.54C302.77 372.29 302.9 377.78 302.9 377.78L305.4 377.92C306.591 377.983 307.737 378.397 308.694 379.108C309.651 379.82 310.376 380.798 310.78 381.92L310.84 382.08C311.049 382.652 311.469 383.122 312.014 383.394C312.559 383.665 313.188 383.718 313.77 383.54C314.081 383.442 314.368 383.282 314.614 383.068C314.86 382.855 315.059 382.594 315.2 382.3L316.4 370L302.77 368.54Z" fill="#FFA8A7"/>
<path d="M299.22 406C292.64 408.81 282.58 409.36 278.4 402.65V404.46C282.58 411.17 292.64 410.62 299.22 407.82C305.8 405.02 304.35 400.42 310.22 397.96C312.375 397.176 314.336 395.938 315.97 394.33C315.97 393.8 316.08 393.12 316.17 392.33C314.429 393.939 312.414 395.223 310.22 396.12C304.35 398.59 305.79 403.17 299.22 406Z" fill="#FAFAFA"/>
<path d="M316.19 386.37C315.922 385.091 315.922 383.769 316.19 382.49C316.266 382.199 316.279 381.894 316.227 381.597C316.175 381.301 316.06 381.018 315.89 380.77L315.36 380.25L315.16 382.25C314.961 382.673 314.64 383.028 314.239 383.268C313.837 383.509 313.374 383.624 312.906 383.601C312.439 383.577 311.989 383.415 311.614 383.136C311.239 382.856 310.956 382.471 310.8 382.03L310.74 381.87C310.336 380.748 309.611 379.77 308.654 379.058C307.697 378.347 306.551 377.933 305.36 377.87L302.81 377.73C302.432 377.706 302.056 377.801 301.735 378.002C301.414 378.203 301.164 378.499 301.02 378.85C298.39 385.18 291.8 392.21 286.72 395.42C282.98 395.34 278.36 398.42 278.36 402.2V402.58C282.54 409.29 292.6 408.74 299.18 405.93C305.76 403.12 304.31 398.54 310.18 396.07C312.374 395.173 314.389 393.889 316.13 392.28C316.429 390.323 316.449 388.333 316.19 386.37Z" fill="#54B862"/>
<path opacity="0.2" d="M316.19 386.37C315.922 385.091 315.922 383.769 316.19 382.49C316.266 382.199 316.279 381.894 316.227 381.597C316.175 381.301 316.06 381.018 315.89 380.77L315.36 380.25L315.16 382.25C314.961 382.673 314.64 383.028 314.239 383.268C313.837 383.509 313.374 383.624 312.906 383.601C312.439 383.577 311.989 383.415 311.614 383.136C311.239 382.856 310.956 382.471 310.8 382.03L310.74 381.87C310.336 380.748 309.611 379.77 308.654 379.058C307.697 378.347 306.551 377.933 305.36 377.87L302.81 377.73C302.432 377.706 302.056 377.801 301.735 378.002C301.414 378.203 301.164 378.499 301.02 378.85C298.39 385.18 291.8 392.21 286.72 395.42C282.98 395.34 278.36 398.42 278.36 402.2V402.58C282.54 409.29 292.6 408.74 299.18 405.93C305.76 403.12 304.31 398.54 310.18 396.07C312.374 395.173 314.389 393.889 316.13 392.28C316.429 390.323 316.449 388.333 316.19 386.37Z" fill="black"/>
<path opacity="0.25" d="M316.19 386.37C315.922 385.091 315.922 383.769 316.19 382.49C316.266 382.199 316.279 381.894 316.227 381.597C316.175 381.301 316.06 381.018 315.89 380.77L315.36 380.25L315.16 382.25C314.961 382.673 314.64 383.028 314.239 383.268C313.837 383.509 313.374 383.624 312.906 383.601C312.439 383.577 311.989 383.415 311.614 383.136C311.239 382.856 310.956 382.471 310.8 382.03L310.74 381.87C310.336 380.748 309.611 379.77 308.654 379.058C307.697 378.347 306.551 377.933 305.36 377.87L302.81 377.73C302.432 377.706 302.056 377.801 301.735 378.002C301.414 378.203 301.164 378.499 301.02 378.85C298.39 385.18 291.8 392.21 286.72 395.42C282.98 395.34 278.36 398.42 278.36 402.2V402.58C282.54 409.29 292.6 408.74 299.18 405.93C305.76 403.12 304.31 398.54 310.18 396.07C312.374 395.173 314.389 393.889 316.13 392.28C316.429 390.323 316.449 388.333 316.19 386.37Z" fill="white"/>
<path d="M303.47 391.56C303.617 391.707 303.812 391.795 304.02 391.807C304.227 391.818 304.432 391.752 304.593 391.621C304.755 391.491 304.863 391.305 304.895 391.1C304.928 390.894 304.883 390.684 304.77 390.51C303.786 389.195 302.479 388.157 300.976 387.496C299.473 386.836 297.824 386.575 296.19 386.74C295.83 387.18 295.48 387.61 295.11 388.03C296.69 387.843 298.292 388.07 299.757 388.688C301.223 389.307 302.503 390.297 303.47 391.56Z" fill="white"/>
<path d="M306.06 388.66C306.207 388.807 306.403 388.895 306.61 388.907C306.818 388.918 307.022 388.852 307.184 388.721C307.345 388.591 307.453 388.405 307.485 388.2C307.518 387.994 307.473 387.784 307.36 387.61C306.321 386.257 304.954 385.191 303.387 384.516C301.821 383.84 300.107 383.577 298.41 383.75C298.09 384.22 297.76 384.68 297.41 385.15C300.63 384.92 303.5 385.53 306.06 388.66Z" fill="white"/>
<path d="M300.78 394.39C300.848 394.475 300.932 394.545 301.028 394.597C301.123 394.649 301.228 394.681 301.337 394.691C301.445 394.701 301.554 394.69 301.658 394.657C301.761 394.624 301.857 394.571 301.94 394.5C302.111 394.366 302.222 394.169 302.248 393.954C302.274 393.738 302.214 393.521 302.08 393.35C301.118 392.065 299.848 391.045 298.386 390.382C296.925 389.72 295.32 389.437 293.72 389.56C293.29 390.01 292.86 390.44 292.43 390.86C294.008 390.68 295.605 390.911 297.068 391.529C298.531 392.147 299.809 393.133 300.78 394.39Z" fill="white"/>
<path d="M286.76 395.47C283.02 395.39 278.4 398.47 278.4 402.25V402.63C282.52 409.24 292.34 408.8 298.91 406.1C298.41 397.07 289.74 395.44 286.76 395.47Z" fill="white"/>
<path d="M298 397.1C298.143 397.236 298.331 397.317 298.529 397.327C298.726 397.338 298.921 397.277 299.078 397.156C299.235 397.036 299.343 396.863 299.384 396.669C299.425 396.476 299.395 396.274 299.3 396.1C298.34 394.811 297.068 393.787 295.604 393.125C294.14 392.462 292.532 392.181 290.93 392.31C290.4 392.78 289.88 393.22 289.36 393.63C292.57 393.37 295.44 394 298 397.1Z" fill="white"/>
<path d="M322.32 345.65C321.8 353.96 319.68 359.98 318.05 371.3C318.05 371.3 308.11 374.3 301.91 369.94L301.66 352.5L322.32 345.65Z" fill="#37474F"/>
<path d="M267.52 355.85C266.69 359.48 265.03 364.32 265.03 364.32L267.54 364.46C268.73 364.526 269.875 364.94 270.831 365.652C271.788 366.363 272.514 367.339 272.92 368.46L272.97 368.62C273.177 369.193 273.597 369.664 274.143 369.935C274.689 370.205 275.319 370.253 275.9 370.07C276.212 369.976 276.501 369.816 276.747 369.603C276.994 369.389 277.192 369.126 277.33 368.83L281.11 358.92L267.52 355.85Z" fill="#FFA8A7"/>
<path d="M261.35 392.53C254.77 395.33 244.71 395.88 240.53 389.17V391C244.71 397.71 254.77 397.16 261.35 394.35C267.93 391.54 266.48 386.96 272.35 384.49C274.506 383.709 276.468 382.471 278.1 380.86C278.1 380.33 278.21 379.66 278.3 378.86C276.558 380.469 274.543 381.756 272.35 382.66C266.48 385.13 267.92 389.72 261.35 392.53Z" fill="#FAFAFA"/>
<path d="M278.33 372.91C278.059 371.634 278.059 370.316 278.33 369.04C278.406 368.748 278.419 368.444 278.367 368.147C278.315 367.85 278.2 367.568 278.03 367.32L277.93 367.18L277.3 368.83C277.162 369.125 276.964 369.389 276.717 369.602C276.471 369.816 276.182 369.975 275.87 370.07C275.289 370.253 274.659 370.205 274.113 369.934C273.567 369.664 273.147 369.193 272.94 368.62L272.89 368.46C272.484 367.339 271.758 366.363 270.801 365.651C269.845 364.94 268.7 364.526 267.51 364.46L264.96 364.32C264.58 364.299 264.203 364.396 263.88 364.599C263.558 364.801 263.306 365.099 263.16 365.45C260.54 371.77 253.94 378.8 248.86 382.02C245.13 381.93 240.5 385.02 240.5 388.8V389.17C244.68 395.88 254.74 395.33 261.32 392.53C267.9 389.73 266.45 385.13 272.32 382.67C274.513 381.766 276.528 380.479 278.27 378.87C278.569 376.896 278.589 374.89 278.33 372.91Z" fill="#54B862"/>
<path opacity="0.2" d="M278.33 372.91C278.059 371.634 278.059 370.316 278.33 369.04C278.406 368.748 278.419 368.444 278.367 368.147C278.315 367.85 278.2 367.568 278.03 367.32L277.93 367.18L277.3 368.83C277.162 369.125 276.964 369.389 276.717 369.602C276.471 369.816 276.182 369.975 275.87 370.07C275.289 370.253 274.659 370.205 274.113 369.934C273.567 369.664 273.147 369.193 272.94 368.62L272.89 368.46C272.484 367.339 271.758 366.363 270.801 365.651C269.845 364.94 268.7 364.526 267.51 364.46L264.96 364.32C264.58 364.299 264.203 364.396 263.88 364.599C263.558 364.801 263.306 365.099 263.16 365.45C260.54 371.77 253.94 378.8 248.86 382.02C245.13 381.93 240.5 385.02 240.5 388.8V389.17C244.68 395.88 254.74 395.33 261.32 392.53C267.9 389.73 266.45 385.13 272.32 382.67C274.513 381.766 276.528 380.479 278.27 378.87C278.569 376.896 278.589 374.89 278.33 372.91Z" fill="black"/>
<path opacity="0.25" d="M278.33 372.91C278.059 371.634 278.059 370.316 278.33 369.04C278.406 368.748 278.419 368.444 278.367 368.147C278.315 367.85 278.2 367.568 278.03 367.32L277.93 367.18L277.3 368.83C277.162 369.125 276.964 369.389 276.717 369.602C276.471 369.816 276.182 369.975 275.87 370.07C275.289 370.253 274.659 370.205 274.113 369.934C273.567 369.664 273.147 369.193 272.94 368.62L272.89 368.46C272.484 367.339 271.758 366.363 270.801 365.651C269.845 364.94 268.7 364.526 267.51 364.46L264.96 364.32C264.58 364.299 264.203 364.396 263.88 364.599C263.558 364.801 263.306 365.099 263.16 365.45C260.54 371.77 253.94 378.8 248.86 382.02C245.13 381.93 240.5 385.02 240.5 388.8V389.17C244.68 395.88 254.74 395.33 261.32 392.53C267.9 389.73 266.45 385.13 272.32 382.67C274.513 381.766 276.528 380.479 278.27 378.87C278.569 376.896 278.589 374.89 278.33 372.91Z" fill="white"/>
<path d="M265.6 378.1C265.743 378.236 265.931 378.317 266.129 378.327C266.326 378.338 266.521 378.277 266.678 378.156C266.835 378.036 266.943 377.863 266.984 377.669C267.025 377.475 266.995 377.274 266.9 377.1C265.916 375.785 264.609 374.747 263.106 374.086C261.603 373.425 259.954 373.165 258.32 373.33C257.97 373.76 257.61 374.19 257.24 374.61C258.816 374.42 260.415 374.642 261.88 375.253C263.345 375.865 264.627 376.846 265.6 378.1Z" fill="white"/>
<path d="M268.19 375.2C268.333 375.365 268.535 375.469 268.753 375.49C268.971 375.51 269.188 375.446 269.36 375.31C269.529 375.174 269.638 374.977 269.663 374.762C269.687 374.546 269.625 374.33 269.49 374.16C268.452 372.805 267.085 371.738 265.519 371.06C263.952 370.383 262.238 370.118 260.54 370.29C260.22 370.76 259.89 371.23 259.54 371.69C262.76 371.47 265.63 372.07 268.19 375.2Z" fill="white"/>
<path d="M262.91 380.94C263.057 381.087 263.253 381.175 263.46 381.186C263.668 381.198 263.872 381.132 264.034 381.001C264.195 380.871 264.303 380.685 264.335 380.479C264.368 380.274 264.323 380.064 264.21 379.89C263.25 378.604 261.979 377.584 260.517 376.922C259.055 376.261 257.449 375.982 255.85 376.11C255.43 376.55 255 376.99 254.57 377.41C256.147 377.226 257.744 377.455 259.206 378.073C260.668 378.692 261.944 379.68 262.91 380.94Z" fill="white"/>
<path d="M248.89 382C245.16 381.91 240.53 385 240.53 388.78V389.15C244.65 395.76 254.47 395.32 261.05 392.62C260.54 383.61 251.87 382 248.89 382Z" fill="white"/>
<path d="M260.14 383.65C260.209 383.733 260.294 383.802 260.39 383.852C260.486 383.902 260.591 383.932 260.699 383.942C260.807 383.951 260.916 383.939 261.019 383.906C261.122 383.873 261.217 383.82 261.3 383.75C261.385 383.684 261.456 383.601 261.509 383.507C261.561 383.413 261.595 383.309 261.607 383.202C261.619 383.095 261.609 382.987 261.579 382.883C261.549 382.78 261.498 382.684 261.43 382.6C260.469 381.312 259.197 380.29 257.733 379.629C256.269 378.968 254.661 378.689 253.06 378.82C252.53 379.28 252.01 379.72 251.49 380.14C254.7 379.91 257.57 380.52 260.14 383.65Z" fill="white"/>
<path d="M290.51 336.33C288.59 344.43 285.51 350 281.97 360.88C281.97 360.88 271.66 362.12 266.29 356.81L270.92 328.37L290.51 336.33Z" fill="#37474F"/>
<path d="M165.54 277.85V363.63L168.57 361.87V276.09L165.54 277.85Z" fill="#455A64"/>
<path d="M165.54 277.85V363.63L162.51 361.87V276.09L165.54 277.85Z" fill="#37474F"/>
<path d="M168.57 300.72L239.57 259.73V256.47L168.57 297.46V300.72Z" fill="#455A64"/>
<path d="M168.57 294.02L236.53 254.72L239.57 256.47L168.57 297.46V294.02Z" fill="#37474F"/>
<path d="M379.81 316.16V401.94L382.85 400.19V314.41L379.81 316.16Z" fill="#455A64"/>
<path d="M379.81 316.16V401.94L376.78 400.19V314.41L379.81 316.16Z" fill="#37474F"/>
<path d="M305.79 358.92V444.7L308.82 442.94V357.16L305.79 358.92Z" fill="#455A64"/>
<path d="M305.79 358.92V444.7L302.75 442.94V357.16L305.79 358.92Z" fill="#37474F"/>
<path d="M308.82 381.79L379.81 340.8V337.55L308.82 378.53V381.79Z" fill="#455A64"/>
<path d="M308.82 375.09L376.78 335.79L379.81 337.55L308.82 378.53V375.09Z" fill="#37474F"/>
<g opacity="0.2">
<path d="M379.81 316.16V401.94L382.85 400.19V314.41L379.81 316.16Z" fill="white"/>
<path d="M379.81 316.16V401.94L376.78 400.19V314.41L379.81 316.16Z" fill="white"/>
<path d="M305.79 358.92V444.7L308.82 442.94V357.16L305.79 358.92Z" fill="white"/>
<path d="M305.79 358.92V444.7L302.75 442.94V357.16L305.79 358.92Z" fill="white"/>
<path d="M308.82 381.79L379.81 340.8V337.55L308.82 378.53V381.79Z" fill="white"/>
<path d="M308.82 375.09L376.78 335.79L379.81 337.55L308.82 378.53V375.09Z" fill="white"/>
</g>
<g opacity="0.2">
<path d="M165.54 277.85V363.63L168.57 361.87V276.09L165.54 277.85Z" fill="white"/>
<path d="M165.54 277.85V363.63L162.51 361.87V276.09L165.54 277.85Z" fill="white"/>
<path d="M168.57 300.72L239.57 259.73V256.47L168.57 297.46V300.72Z" fill="white"/>
<path d="M168.57 294.02L236.53 254.72L239.57 256.47L168.57 297.46V294.02Z" fill="white"/>
</g>
<path d="M305.79 350.63L162.5 268.05L239.56 223.54L382.85 306.13L305.79 350.63Z" fill="#455A64"/>
<path d="M305.79 358.92L162.5 276.09V268.05L305.79 350.63V358.92Z" fill="#455A64"/>
<path d="M305.79 350.63L382.85 306.12V314.41L305.79 358.92V350.63Z" fill="#455A64"/>
<path opacity="0.3" d="M305.79 350.63L162.5 268.05L239.56 223.54L382.85 306.13L305.79 350.63Z" fill="white"/>
<path opacity="0.1" d="M305.79 350.63L382.85 306.12V314.41L305.79 358.92V350.63Z" fill="white"/>
<path opacity="0.2" d="M305.79 358.92L162.5 276.09V268.05L305.79 350.63V358.92Z" fill="white"/>
<path d="M246.75 243.2L235.26 268.32L205.27 263.67L216.75 238.55L246.75 243.2Z" fill="#E6E6E6"/>
<path d="M258.01 248.06L232.04 269.24L206.73 258.81L232.69 237.63L258.01 248.06Z" fill="#F0F0F0"/>
<path d="M263.33 240.99L278.88 256.56L240.04 269.54L224.47 253.96L263.33 240.99Z" fill="white"/>
<path d="M240.19 283.42L271.63 265.14C272.631 264.632 273.738 264.368 274.86 264.368C275.982 264.368 277.089 264.632 278.09 265.14L330 295.09C330.353 295.252 330.66 295.499 330.892 295.81C331.124 296.121 331.275 296.486 331.33 296.87V298.87C331.345 299.01 331.345 299.15 331.33 299.29C331.273 299.444 331.199 299.592 331.11 299.73C331 299.893 330.869 300.041 330.72 300.17C330.541 300.328 330.346 300.469 330.14 300.59L298.55 319C298.263 319.158 297.962 319.289 297.65 319.39L297.3 319.5L296.84 319.61L296.28 319.71H296.15C295.9 319.71 295.64 319.71 295.38 319.71H295.26C295 319.71 294.75 319.71 294.5 319.71H294.39C294.14 319.71 293.89 319.64 293.65 319.59H293.52C293.306 319.535 293.096 319.469 292.89 319.39H292.77C292.534 319.294 292.303 319.184 292.08 319.06L240.21 289C239.999 288.881 239.801 288.74 239.62 288.58C239.56 288.53 239.52 288.47 239.47 288.42C239.372 288.328 239.282 288.227 239.2 288.12C239.159 288.061 239.125 287.997 239.1 287.93C239.039 287.834 238.986 287.734 238.94 287.63C238.935 287.56 238.935 287.49 238.94 287.42C238.93 287.32 238.93 287.22 238.94 287.12V285.28C238.969 284.888 239.099 284.51 239.318 284.184C239.537 283.858 239.838 283.595 240.19 283.42Z" fill="#E0E0E0"/>
<path opacity="0.3" d="M331.29 296.87C331.308 297.061 331.291 297.255 331.24 297.44C331.183 297.594 331.109 297.742 331.02 297.88V297.93C330.907 298.088 330.776 298.232 330.63 298.36C330.45 298.518 330.256 298.659 330.05 298.78L298.61 317.05C298.323 317.208 298.022 317.339 297.71 317.44L297.36 317.55L296.9 317.66C296.715 317.704 296.528 317.737 296.34 317.76H296.21C295.96 317.76 295.7 317.76 295.44 317.76H295.32C295.06 317.76 294.81 317.76 294.56 317.76H294.45C294.2 317.76 293.95 317.68 293.71 317.63H293.58C293.366 317.575 293.156 317.509 292.95 317.43H292.83C292.593 317.334 292.363 317.224 292.14 317.1L240.27 287.15C240.059 287.031 239.861 286.89 239.68 286.73C239.625 286.682 239.575 286.628 239.53 286.57C239.429 286.48 239.339 286.379 239.26 286.27C239.219 286.211 239.185 286.147 239.16 286.08C239.099 285.984 239.045 285.884 239 285.78C238.995 285.71 238.995 285.64 239 285.57C238.99 285.47 238.99 285.37 239 285.27V287.11C238.99 287.21 238.99 287.31 239 287.41C238.995 287.48 238.995 287.55 239 287.62C239.045 287.724 239.099 287.824 239.16 287.92C239.185 287.987 239.219 288.051 239.26 288.11C239.342 288.217 239.432 288.318 239.53 288.41C239.58 288.46 239.62 288.52 239.68 288.57C239.861 288.73 240.059 288.871 240.27 288.99L292.08 319C292.303 319.124 292.534 319.234 292.77 319.33H292.89C293.096 319.409 293.306 319.475 293.52 319.53H293.65C293.89 319.53 294.14 319.62 294.39 319.65H294.5C294.75 319.65 295 319.65 295.26 319.65H295.38C295.64 319.65 295.9 319.65 296.15 319.65H296.28L296.84 319.55L297.3 319.44L297.65 319.33C297.962 319.229 298.263 319.098 298.55 318.94L330 300.68C330.206 300.559 330.4 300.418 330.58 300.26C330.729 300.131 330.86 299.983 330.97 299.82C331.059 299.682 331.133 299.534 331.19 299.38C331.205 299.24 331.205 299.1 331.19 298.96V296.96L331.29 296.87Z" fill="black"/>
<path d="M243.26 285.28L293.66 314.38C293.723 314.417 293.79 314.447 293.86 314.47H293.97C294.096 314.521 294.227 314.561 294.36 314.59L294.64 314.64H294.83C294.96 314.64 295.11 314.64 295.32 314.64C295.493 314.653 295.667 314.653 295.84 314.64L296.17 314.59L296.58 314.48C296.701 314.44 296.818 314.39 296.93 314.33L313.18 305L261.12 274.9L243.26 285.28Z" fill="#E0E0E0"/>
<path d="M291.21 277.28L281.72 282.86C281.586 282.952 281.476 283.075 281.401 283.219C281.325 283.362 281.285 283.522 281.285 283.685C281.285 283.847 281.325 284.007 281.401 284.151C281.476 284.295 281.586 284.418 281.72 284.51L295.9 292.7C296.14 292.84 296.412 292.913 296.69 292.913C296.968 292.913 297.24 292.84 297.48 292.7L306.96 287.13C307.096 287.038 307.208 286.915 307.285 286.77C307.362 286.625 307.402 286.464 307.402 286.3C307.402 286.136 307.362 285.974 307.285 285.83C307.208 285.685 307.096 285.561 306.96 285.47L292.78 277.28C292.541 277.142 292.271 277.07 291.995 277.07C291.719 277.07 291.449 277.142 291.21 277.28Z" fill="#E0E0E0"/>
<path opacity="0.2" d="M243.26 285.28L293.66 314.38C293.723 314.417 293.79 314.447 293.86 314.47H293.97C294.096 314.521 294.227 314.561 294.36 314.59L294.64 314.64H294.83C294.96 314.64 295.11 314.64 295.32 314.64C295.493 314.653 295.667 314.653 295.84 314.64L296.17 314.59L296.58 314.48C296.701 314.44 296.818 314.39 296.93 314.33L313.18 305L261.12 274.9L243.26 285.28Z" fill="black"/>
<path opacity="0.2" d="M291.21 277.28L281.72 282.86C281.586 282.952 281.476 283.075 281.401 283.219C281.325 283.362 281.285 283.522 281.285 283.685C281.285 283.847 281.325 284.007 281.401 284.151C281.476 284.295 281.586 284.418 281.72 284.51L295.9 292.7C296.14 292.84 296.412 292.913 296.69 292.913C296.968 292.913 297.24 292.84 297.48 292.7L306.96 287.13C307.096 287.038 307.208 286.915 307.285 286.77C307.362 286.625 307.402 286.464 307.402 286.3C307.402 286.136 307.362 285.974 307.285 285.83C307.208 285.685 307.096 285.561 306.96 285.47L292.78 277.28C292.541 277.142 292.271 277.07 291.995 277.07C291.719 277.07 291.449 277.142 291.21 277.28Z" fill="black"/>
<path d="M316.2 233.37L309.86 249.37L284.86 259.68C283.345 260.303 281.703 260.556 280.07 260.42L270.44 259.63C269.311 259.542 268.182 259.808 267.21 260.39L261.7 263.73C261.144 264.066 260.648 264.492 260.23 264.99L257.53 268.19C257.347 268.402 257.21 268.65 257.129 268.919C257.047 269.187 257.023 269.469 257.058 269.747C257.093 270.026 257.186 270.293 257.331 270.533C257.476 270.773 257.67 270.98 257.9 271.14L259.6 272.36C260.494 273.005 261.549 273.39 262.648 273.475C263.747 273.56 264.848 273.34 265.83 272.84L270.09 270.69L278.9 271.69V274L276.5 276C276.216 276.242 275.99 276.543 275.836 276.883C275.683 277.222 275.606 277.592 275.612 277.964C275.618 278.337 275.706 278.703 275.869 279.038C276.033 279.373 276.269 279.667 276.56 279.9C276.56 279.9 282.45 278.16 287.78 269.61L319.09 263C320.849 262.628 322.483 261.81 323.835 260.624C325.187 259.439 326.211 257.925 326.81 256.23L332.81 239.23L316.2 233.37Z" fill="#FFA8A7"/>
<path d="M333.44 206.24C329.18 205.76 326.6 205.94 322.56 212.73C317.66 220.96 312.97 236.73 312.97 236.73C322.38 241.33 333.44 242.08 333.44 242.08C335.83 236.06 333.44 206.24 333.44 206.24Z" fill="#54B862"/>
<g opacity="0.3">
<path d="M333.44 206.24C329.18 205.76 326.6 205.94 322.56 212.73C317.66 220.96 312.97 236.73 312.97 236.73C322.38 241.33 333.44 242.08 333.44 242.08C335.83 236.06 333.44 206.24 333.44 206.24Z" fill="white"/>
</g>
<path d="M367.8 213.72C354.41 207.44 344.38 206.72 333.44 206.24C317.06 216.78 323.19 225.56 323.44 239.64C323.68 251.5 325.89 259.41 320.75 270.35L352.49 288.65C361.7 288.54 369.09 286.37 372.09 284.46C376.3 245.5 375.07 216.72 367.8 213.72Z" fill="#54B862"/>
<path opacity="0.5" d="M367.8 213.72C354.41 207.44 344.38 206.72 333.44 206.24C317.06 216.78 323.19 225.56 323.44 239.64C323.68 251.5 325.89 259.41 320.75 270.35L352.49 288.65C361.7 288.54 369.09 286.37 372.09 284.46C376.3 245.5 375.07 216.72 367.8 213.72Z" fill="white"/>
<path d="M354.55 250.38L350.55 268.08L323 279.44C321.332 280.125 319.527 280.406 317.73 280.26L307.12 279.39C305.875 279.284 304.629 279.575 303.56 280.22L297.48 283.9C296.867 284.271 296.32 284.741 295.86 285.29L292.86 288.81C292.662 289.045 292.515 289.319 292.428 289.614C292.341 289.91 292.315 290.219 292.354 290.525C292.392 290.83 292.494 291.124 292.651 291.388C292.809 291.652 293.02 291.881 293.27 292.06L295.14 293.4C296.125 294.108 297.286 294.531 298.496 294.625C299.705 294.718 300.917 294.478 302 293.93L306.7 291.56L314.41 292.96C317.899 293.587 321.497 292.994 324.6 291.28L326.22 290.38L359.84 283.28C361.996 282.825 363.976 281.762 365.546 280.216C367.116 278.671 368.211 276.708 368.7 274.56L373.23 255L354.55 250.38Z" fill="#FFA8A7"/>
<path d="M367.8 213.72C383.8 219.72 380.18 233.96 374.26 256.52C364.73 259.16 353.44 250.86 353.44 250.86C356.57 233 357.76 213.44 367.8 213.72Z" fill="#54B862"/>
<path opacity="0.3" d="M367.8 213.72C383.8 219.72 380.18 233.96 374.26 256.52C364.73 259.16 353.44 250.86 353.44 250.86C356.57 233 357.76 213.44 367.8 213.72Z" fill="white"/>
<path d="M231.72 246.79L232.96 246.17C233.183 246.076 233.424 246.036 233.666 246.051C233.907 246.067 234.141 246.138 234.35 246.26L286.58 276.63C287.391 277.1 288.086 277.745 288.616 278.519C289.145 279.292 289.495 280.174 289.64 281.1L295 315.25C295.053 315.583 294.996 315.925 294.837 316.223C294.678 316.52 294.426 316.758 294.12 316.9L292.91 317.49C292.691 317.575 292.456 317.609 292.222 317.59C291.988 317.571 291.762 317.499 291.56 317.38L239.37 287C238.56 286.529 237.864 285.884 237.335 285.111C236.806 284.337 236.455 283.456 236.31 282.53L230.94 248.38C230.892 248.067 230.941 247.747 231.081 247.463C231.22 247.178 231.443 246.944 231.72 246.79Z" fill="#E0E0E0"/>
<path d="M260.21 278C261.533 278.828 262.675 279.916 263.565 281.198C264.456 282.481 265.077 283.931 265.39 285.46C265.73 288.13 263.97 289.12 261.44 287.66C260.118 286.828 258.977 285.738 258.087 284.454C257.197 283.17 256.575 281.72 256.26 280.19C255.92 277.57 257.69 276.58 260.21 278Z" fill="white"/>
<path opacity="0.3" d="M294 315.77L288.63 281.63C288.485 280.703 288.135 279.819 287.606 279.044C287.077 278.269 286.381 277.622 285.57 277.15L233.34 246.79C233.102 246.65 232.831 246.577 232.555 246.577C232.279 246.577 232.008 246.65 231.77 246.79L233.01 246.17C233.233 246.076 233.474 246.036 233.716 246.051C233.957 246.067 234.191 246.138 234.4 246.26L286.63 276.63C287.441 277.1 288.136 277.745 288.666 278.519C289.195 279.292 289.545 280.174 289.69 281.1L295 315.25C295.053 315.583 294.996 315.925 294.837 316.223C294.678 316.52 294.426 316.758 294.12 316.9L292.91 317.49C293.266 317.38 293.572 317.146 293.772 316.831C293.971 316.515 294.052 316.139 294 315.77Z" fill="black"/>
<path d="M324 189.41C321.624 187.703 319.972 185.17 319.369 182.307C318.766 179.445 319.255 176.46 320.74 173.94C319.408 173.351 318.318 172.324 317.65 171.03C317.37 170.406 317.284 169.712 317.404 169.038C317.524 168.365 317.843 167.743 318.321 167.253C318.799 166.764 319.413 166.429 320.083 166.293C320.753 166.157 321.449 166.225 322.08 166.49C321.731 165.478 321.73 164.377 322.078 163.364C322.426 162.351 323.102 161.484 324 160.9C324.907 160.394 325.961 160.217 326.984 160.399C328.006 160.581 328.934 161.111 329.61 161.9C329.594 161.243 329.788 160.597 330.164 160.058C330.54 159.518 331.078 159.113 331.7 158.9C332.993 158.563 334.361 158.65 335.6 159.15C336.85 159.58 338.03 160.15 339.29 160.6C341.463 161.14 343.691 161.425 345.93 161.45C348.176 161.469 350.38 162.054 352.34 163.15C354.21 164.37 355.87 167.21 354.86 169.65C355.18 169.242 355.582 168.905 356.04 168.662C356.498 168.419 357.003 168.275 357.52 168.24C358.032 168.226 358.54 168.323 359.011 168.523C359.482 168.723 359.905 169.022 360.25 169.4C358.85 170.27 357.5 171.2 356.11 172.06C357.51 171.43 359.61 172.42 360.37 173.76C361.021 175.165 361.28 176.72 361.12 178.26C360.929 184.128 359.878 189.937 358 195.5C357.05 198.37 355.67 201.41 353 202.74L324 189.41Z" fill="#37474F"/>
<path d="M338.8 203.23L339.42 210.09C339.447 210.621 339.311 211.148 339.03 211.6C338.652 212.318 338.506 213.136 338.614 213.941C338.721 214.745 339.076 215.496 339.63 216.09C340.518 216.746 341.595 217.097 342.7 217.09C344.783 217.203 346.866 216.875 348.814 216.127C350.761 215.379 352.528 214.228 354 212.75C354.299 212.438 354.533 212.07 354.687 211.666C354.842 211.262 354.914 210.832 354.9 210.4L354.45 193L338.8 203.23Z" fill="#FFA8A7"/>
<path opacity="0.3" d="M353.11 193.9L338.8 203.23L339.35 209.31C342.67 208.53 346.02 207.57 348.65 205.43C350.311 204.045 351.592 202.259 352.372 200.242C353.153 198.225 353.406 196.042 353.11 193.9Z" fill="black"/>
<path d="M323.21 175.27C322.163 183.228 322.687 191.313 324.75 199.07C325.145 200.781 325.781 202.428 326.64 203.96C327.504 205.503 328.865 206.708 330.5 207.38C332.5 208.14 334.76 207.77 336.88 207.38C340.77 206.7 344.75 205.98 348.12 203.93C351.49 201.88 354.17 198.2 353.84 194.27C354.799 194.865 355.892 195.21 357.019 195.273C358.146 195.336 359.271 195.115 360.29 194.63C361.287 194.082 362.132 193.296 362.75 192.341C363.368 191.387 363.739 190.293 363.83 189.16C363.98 186.96 362.71 184.51 360.55 184.08C359.882 183.983 359.201 184.03 358.552 184.218C357.903 184.406 357.303 184.73 356.79 185.17C355.774 186.058 354.891 187.089 354.17 188.23C353.836 188.783 353.39 189.26 352.86 189.63C352.596 189.813 352.282 189.911 351.96 189.911C351.638 189.911 351.324 189.813 351.06 189.63C350.828 189.357 350.662 189.035 350.574 188.689C350.485 188.342 350.477 187.98 350.55 187.63L350.77 182.63C350.782 182.249 350.685 181.872 350.49 181.544C350.295 181.217 350.011 180.951 349.67 180.78C348.642 180.219 347.85 179.307 347.44 178.21C347.075 177.249 346.862 176.237 346.81 175.21C346.795 175.018 346.736 174.832 346.636 174.667C346.536 174.502 346.399 174.362 346.235 174.26C346.072 174.158 345.887 174.096 345.695 174.078C345.503 174.061 345.309 174.089 345.13 174.16C338.44 176.92 330.11 177 323.21 175.27Z" fill="#FFA8A7"/>
<path d="M334.17 187.35L329.69 194.89L335.03 195.89L334.17 187.35Z" fill="#F28F8F"/>
<path d="M340.18 198.49L336.12 200.49C336.468 200.951 336.957 201.287 337.513 201.446C338.068 201.604 338.661 201.578 339.2 201.37C339.668 201.074 340.021 200.627 340.199 200.103C340.377 199.579 340.371 199.01 340.18 198.49Z" fill="#F28F8F"/>
<path opacity="0.3" d="M340.18 198.49L336.12 200.49C336.468 200.951 336.957 201.287 337.513 201.446C338.068 201.604 338.661 201.578 339.2 201.37C339.668 201.074 340.021 200.627 340.199 200.103C340.377 199.579 340.371 199.01 340.18 198.49Z" fill="black"/>
<path d="M337.79 201.47C338.262 201.569 338.754 201.524 339.2 201.34C339.57 201.129 339.87 200.813 340.062 200.433C340.254 200.052 340.33 199.623 340.28 199.2C339.653 199.186 339.044 199.413 338.58 199.836C338.117 200.259 337.834 200.844 337.79 201.47Z" fill="#F28F8F"/>
<path d="M341.9 187.65C341.928 187.951 341.866 188.253 341.723 188.519C341.58 188.784 341.361 189.002 341.094 189.143C340.827 189.285 340.525 189.344 340.224 189.314C339.924 189.284 339.639 189.166 339.405 188.974C339.172 188.783 339.001 188.526 338.913 188.237C338.825 187.948 338.824 187.64 338.912 187.351C338.999 187.062 339.169 186.805 339.402 186.612C339.635 186.42 339.92 186.301 340.22 186.27C340.626 186.231 341.03 186.354 341.345 186.613C341.66 186.872 341.859 187.245 341.9 187.65Z" fill="#263238"/>
<path d="M329 188.44C329.03 188.741 328.97 189.044 328.828 189.311C328.686 189.578 328.468 189.797 328.202 189.94C327.935 190.083 327.633 190.144 327.332 190.115C327.031 190.086 326.745 189.969 326.511 189.778C326.276 189.587 326.104 189.33 326.015 189.041C325.926 188.752 325.925 188.443 326.012 188.154C326.098 187.864 326.269 187.606 326.502 187.414C326.734 187.221 327.019 187.101 327.32 187.07C327.52 187.049 327.723 187.068 327.916 187.126C328.109 187.184 328.288 187.279 328.444 187.406C328.601 187.533 328.73 187.69 328.825 187.868C328.921 188.045 328.98 188.24 329 188.44Z" fill="#263238"/>
<path d="M326.94 182.52L323.79 185.2C323.601 184.796 323.54 184.344 323.615 183.904C323.69 183.465 323.898 183.058 324.21 182.74C324.6 182.453 325.061 182.28 325.544 182.241C326.026 182.202 326.51 182.299 326.94 182.52Z" fill="#263238"/>
<path d="M340 181L343.62 183C343.725 182.566 343.696 182.111 343.535 181.694C343.374 181.278 343.09 180.92 342.72 180.67C342.281 180.466 341.794 180.389 341.313 180.448C340.832 180.506 340.378 180.697 340 181Z" fill="#263238"/>
</svg>
