<svg width="500" height="500" viewBox="0 0 500 500" fill="none" xmlns="http://www.w3.org/2000/svg">
<path d="M329.78 377.48C334.43 375.96 339.16 374.74 343.92 373.66C358.5 370.36 392.56 358.01 417.83 312.84C450.83 253.84 444.83 163.84 403.83 113.84C362.83 63.84 298.83 46.84 237.83 62.84C208.1 70.64 188.28 90.84 171.16 115.23C156.24 136.46 139.46 156.93 116.88 170.36C94.51 183.67 71.53 194.28 60.24 219.57C32.75 281.1 52.84 352.7 117.83 376.84C183.41 401.2 290.24 390.45 329.78 377.48Z" fill="#54B862"/>
<path opacity="0.7" d="M329.78 377.48C334.43 375.96 339.16 374.74 343.92 373.66C358.5 370.36 392.56 358.01 417.83 312.84C450.83 253.84 444.83 163.84 403.83 113.84C362.83 63.84 298.83 46.84 237.83 62.84C208.1 70.64 188.28 90.84 171.16 115.23C156.24 136.46 139.46 156.93 116.88 170.36C94.51 183.67 71.53 194.28 60.24 219.57C32.75 281.1 52.84 352.7 117.83 376.84C183.41 401.2 290.24 390.45 329.78 377.48Z" fill="white"/>
<path d="M263.91 439.26C364.928 439.26 446.82 432.544 446.82 424.26C446.82 415.976 364.928 409.26 263.91 409.26C162.892 409.26 81 415.976 81 424.26C81 432.544 162.892 439.26 263.91 439.26Z" fill="#54B862"/>
<path opacity="0.5" d="M263.91 439.26C364.928 439.26 446.82 432.544 446.82 424.26C446.82 415.976 364.928 409.26 263.91 409.26C162.892 409.26 81 415.976 81 424.26C81 432.544 162.892 439.26 263.91 439.26Z" fill="white"/>
<path d="M437.49 292.62V292.57C436.27 292.45 423.71 291.37 412.24 297.33C414.75 294.18 416.615 290.566 417.729 286.695C418.842 282.825 419.183 278.772 418.73 274.77C415.97 247.1 389.85 231.26 387.84 230.07V230H387.78H387.71V230.07C385.71 231.26 359.59 247.07 356.82 274.77C356.225 280.136 357.053 285.565 359.22 290.51C344.51 281.72 327.36 283.2 325.78 283.36H325.72V283.41C324.95 285.2 315.13 308.79 326.92 328.85C337.47 346.78 359.58 342.04 365.59 340.36C370.64 345.66 379.83 357.72 383.9 378.31H378.17L380.93 417.31H393.82L396.58 378.31H389.84C392.931 364.359 398.506 351.077 406.3 339.1C412.3 340.59 428.59 343.1 436.61 329.48C446.08 313.22 438.12 294.07 437.49 292.62ZM387.32 292.47L373.69 273.55C373.662 273.51 373.642 273.465 373.631 273.417C373.62 273.369 373.619 273.32 373.627 273.271C373.636 273.223 373.653 273.177 373.68 273.135C373.706 273.094 373.74 273.058 373.78 273.03C373.82 273.002 373.865 272.982 373.913 272.971C373.961 272.96 374.01 272.959 374.059 272.967C374.107 272.976 374.153 272.993 374.194 273.02C374.236 273.046 374.272 273.08 374.3 273.12L387.3 291.23V272.07L373.67 253.15C373.615 253.069 373.593 252.969 373.61 252.872C373.627 252.775 373.681 252.688 373.76 252.63C373.8 252.601 373.845 252.581 373.893 252.57C373.941 252.559 373.99 252.558 374.039 252.566C374.087 252.574 374.133 252.592 374.175 252.619C374.216 252.645 374.252 252.68 374.28 252.72L387.28 270.83V243C387.28 242.902 387.319 242.808 387.388 242.738C387.458 242.669 387.552 242.63 387.65 242.63C387.747 242.633 387.84 242.672 387.909 242.741C387.978 242.81 388.017 242.903 388.02 243V270L402.22 252C402.281 251.922 402.371 251.871 402.469 251.859C402.567 251.847 402.667 251.874 402.745 251.935C402.823 251.996 402.874 252.086 402.886 252.184C402.898 252.282 402.871 252.382 402.81 252.46L388.08 271.14V290.3L402.22 272.36C402.25 272.321 402.288 272.289 402.33 272.265C402.373 272.24 402.42 272.225 402.469 272.219C402.518 272.213 402.567 272.216 402.615 272.229C402.662 272.243 402.706 272.265 402.745 272.295C402.784 272.325 402.816 272.363 402.84 272.405C402.865 272.448 402.88 272.495 402.886 272.544C402.892 272.593 402.889 272.642 402.876 272.69C402.862 272.737 402.84 272.781 402.81 272.82L388.08 291.5V307.71L402.22 289.77C402.25 289.732 402.288 289.7 402.33 289.676C402.373 289.653 402.419 289.638 402.468 289.632C402.516 289.627 402.565 289.631 402.611 289.644C402.658 289.657 402.702 289.68 402.74 289.71C402.816 289.771 402.866 289.859 402.879 289.956C402.892 290.053 402.867 290.151 402.81 290.23L388.08 308.91V309.26H386.87L373.69 291C373.635 290.919 373.613 290.819 373.63 290.722C373.647 290.625 373.701 290.538 373.78 290.48C373.82 290.451 373.865 290.431 373.913 290.42C373.961 290.409 374.01 290.408 374.059 290.416C374.107 290.424 374.153 290.442 374.195 290.469C374.236 290.495 374.272 290.53 374.3 290.57L387.3 308.68V292.48L387.32 292.47ZM365.68 338.65L364.33 336.81L345.17 331.47C345.09 331.449 345.023 331.397 344.981 331.326C344.94 331.254 344.929 331.17 344.95 331.09C344.971 331.01 345.023 330.943 345.094 330.901C345.166 330.86 345.25 330.849 345.33 330.87L363.74 336L355.74 325.05L336.57 319.7C336.531 319.69 336.494 319.672 336.462 319.647C336.43 319.622 336.403 319.59 336.384 319.555C336.364 319.519 336.352 319.48 336.348 319.44C336.344 319.4 336.348 319.359 336.36 319.32C336.383 319.242 336.436 319.177 336.507 319.137C336.578 319.098 336.662 319.088 336.74 319.11L355.15 324.24L345.68 311.29L326.52 306C326.475 305.996 326.432 305.982 326.393 305.959C326.354 305.936 326.321 305.905 326.295 305.868C326.269 305.831 326.252 305.788 326.244 305.744C326.237 305.699 326.239 305.654 326.251 305.61C326.263 305.567 326.284 305.526 326.313 305.492C326.342 305.457 326.378 305.43 326.419 305.411C326.46 305.391 326.504 305.382 326.549 305.381C326.594 305.381 326.639 305.391 326.68 305.41L345.09 310.54L331.78 292.33C331.732 292.262 331.713 292.178 331.726 292.096C331.739 292.014 331.783 291.94 331.85 291.89C331.916 291.843 331.999 291.824 332.079 291.837C332.16 291.85 332.232 291.894 332.28 291.96L346.05 310.8L345.92 292.13C345.919 292.09 345.925 292.05 345.94 292.012C345.954 291.975 345.976 291.94 346.004 291.911C346.032 291.882 346.066 291.859 346.103 291.844C346.14 291.828 346.18 291.82 346.22 291.82C346.262 291.819 346.303 291.826 346.342 291.841C346.38 291.856 346.416 291.878 346.446 291.907C346.476 291.936 346.499 291.971 346.515 292.009C346.532 292.047 346.54 292.088 346.54 292.13L346.68 311.63L356.14 324.57L356 305.84C356 305.758 356.033 305.679 356.091 305.621C356.149 305.563 356.228 305.53 356.31 305.53C356.35 305.529 356.39 305.535 356.428 305.55C356.465 305.564 356.5 305.586 356.529 305.614C356.558 305.642 356.581 305.676 356.596 305.713C356.612 305.75 356.62 305.79 356.62 305.83L356.76 325.33L364.76 336.27L364.63 317.59C364.63 317.508 364.663 317.429 364.721 317.371C364.779 317.313 364.858 317.28 364.94 317.28C365.022 317.28 365.101 317.313 365.159 317.371C365.217 317.429 365.25 317.508 365.25 317.59L365.39 337.09L366.53 338.66L365.68 338.65ZM367.85 338.65C370.65 334.4 378.72 320.43 373.85 307C377.613 309.473 381.637 311.522 385.85 313.11V373.74C381.43 355.16 373.09 344 368 338.65H367.85ZM388.85 370V313.39C392.845 311.939 396.676 310.072 400.28 307.82C392.59 320.15 401.2 334.39 403.47 337.75C396.995 347.705 392.053 358.576 388.81 370H388.85ZM436.8 310.91L421.25 315.24L413.57 325.75L428.51 321.59C428.574 321.571 428.642 321.579 428.7 321.611C428.758 321.643 428.801 321.696 428.82 321.76C428.835 321.825 428.825 321.893 428.792 321.951C428.758 322.009 428.704 322.051 428.64 322.07L413.09 326.41L406.6 335.29L421.53 331.12C421.595 331.104 421.663 331.115 421.721 331.148C421.779 331.182 421.821 331.236 421.84 331.3C421.849 331.332 421.852 331.365 421.848 331.397C421.845 331.43 421.835 331.461 421.819 331.49C421.803 331.519 421.782 331.544 421.756 331.565C421.731 331.585 421.701 331.601 421.67 331.61L406.08 336L405.26 337.11C405.11 337.03 404.97 336.94 404.83 336.85L405.3 336.21L405.42 320.39C405.42 320.324 405.446 320.26 405.493 320.213C405.54 320.166 405.604 320.14 405.67 320.14C405.736 320.14 405.8 320.166 405.847 320.213C405.894 320.26 405.92 320.324 405.92 320.39L405.81 335.54L412.3 326.66L412.42 310.84C412.42 310.774 412.446 310.71 412.493 310.663C412.54 310.616 412.604 310.59 412.67 310.59C412.736 310.59 412.8 310.616 412.847 310.663C412.894 310.71 412.92 310.774 412.92 310.84L412.75 326L420.43 315.5L420.55 299.67C420.55 299.604 420.576 299.54 420.623 299.493C420.67 299.446 420.734 299.42 420.8 299.42C420.867 299.423 420.931 299.451 420.977 299.5C421.024 299.548 421.05 299.613 421.05 299.68L420.94 314.83L432.12 299.54C432.14 299.514 432.164 299.492 432.193 299.475C432.221 299.458 432.252 299.447 432.285 299.443C432.317 299.438 432.35 299.44 432.382 299.448C432.414 299.456 432.444 299.47 432.47 299.49C432.496 299.51 432.518 299.534 432.535 299.563C432.552 299.591 432.563 299.622 432.567 299.655C432.572 299.687 432.57 299.72 432.562 299.752C432.554 299.784 432.54 299.814 432.52 299.84L421.72 314.62L436.66 310.45C436.725 310.433 436.794 310.442 436.852 310.476C436.91 310.51 436.953 310.565 436.97 310.63C436.987 310.695 436.978 310.764 436.944 310.822C436.91 310.88 436.855 310.923 436.79 310.94L436.8 310.91Z" fill="#263238"/>
<path d="M124.64 227.13V236" stroke="#263238" stroke-linecap="round" stroke-linejoin="round"/>
<path d="M129.07 231.56H120.2" stroke="#263238" stroke-linecap="round" stroke-linejoin="round"/>
<path d="M403.3 151.13V160" stroke="#263238" stroke-linecap="round" stroke-linejoin="round"/>
<path d="M407.74 155.56H398.87" stroke="#263238" stroke-linecap="round" stroke-linejoin="round"/>
<path d="M221.3 269.13V278" stroke="#263238" stroke-linecap="round" stroke-linejoin="round"/>
<path d="M225.74 273.56H216.87" stroke="#263238" stroke-linecap="round" stroke-linejoin="round"/>
<path d="M301.3 82.46V91.33" stroke="#263238" stroke-linecap="round" stroke-linejoin="round"/>
<path d="M305.74 86.9H296.87" stroke="#263238" stroke-linecap="round" stroke-linejoin="round"/>
<path d="M301.3 320.56V329.43" stroke="#263238" stroke-linecap="round" stroke-linejoin="round"/>
<path d="M305.74 325H296.87" stroke="#263238" stroke-linecap="round" stroke-linejoin="round"/>
<path d="M231.05 113.95V120.05" stroke="#263238" stroke-linecap="round" stroke-linejoin="round"/>
<path d="M234.1 117H228" stroke="#263238" stroke-linecap="round" stroke-linejoin="round"/>
<path d="M100.56 150.56V159.44" stroke="#263238" stroke-linecap="round" stroke-linejoin="round"/>
<path d="M105 155H96.13" stroke="#263238" stroke-linecap="round" stroke-linejoin="round"/>
<path d="M145.3 326.46V335.33" stroke="#263238" stroke-linecap="round" stroke-linejoin="round"/>
<path d="M149.74 330.9H140.87" stroke="#263238" stroke-linecap="round" stroke-linejoin="round"/>
<path d="M399.077 120.973C400.088 117.053 397.73 113.055 393.81 112.045C389.89 111.034 385.892 113.392 384.882 117.312C383.871 121.232 386.229 125.229 390.149 126.24C394.069 127.251 398.066 124.893 399.077 120.973Z" stroke="#263238" stroke-linecap="round" stroke-linejoin="round"/>
<path d="M310 273C310.002 274.453 309.573 275.873 308.767 277.082C307.961 278.29 306.815 279.233 305.474 279.789C304.132 280.346 302.655 280.492 301.231 280.209C299.806 279.927 298.497 279.227 297.47 278.2C296.443 277.173 295.744 275.864 295.461 274.439C295.178 273.015 295.324 271.538 295.881 270.196C296.438 268.855 297.38 267.709 298.588 266.903C299.797 266.097 301.218 265.668 302.67 265.67C304.614 265.67 306.479 266.442 307.853 267.817C309.228 269.192 310 271.056 310 273Z" stroke="#263238" stroke-linecap="round" stroke-linejoin="round"/>
<path d="M109.394 295.293C113.155 293.793 114.987 289.529 113.486 285.769C111.986 282.009 107.722 280.177 103.962 281.677C100.202 283.177 98.37 287.441 99.8701 291.201C101.37 294.961 105.634 296.793 109.394 295.293Z" stroke="#263238" stroke-linecap="round" stroke-linejoin="round"/>
<path d="M235 349C237.695 349 239.88 346.815 239.88 344.12C239.88 341.425 237.695 339.24 235 339.24C232.305 339.24 230.12 341.425 230.12 344.12C230.12 346.815 232.305 349 235 349Z" stroke="#263238" stroke-linecap="round" stroke-linejoin="round"/>
<path d="M314.67 194.16C314.67 194.49 314.572 194.813 314.389 195.088C314.205 195.362 313.944 195.576 313.639 195.703C313.334 195.829 312.998 195.862 312.674 195.798C312.35 195.733 312.053 195.574 311.819 195.341C311.586 195.107 311.427 194.81 311.362 194.486C311.298 194.162 311.331 193.826 311.457 193.521C311.584 193.216 311.798 192.955 312.072 192.771C312.347 192.588 312.67 192.49 313 192.49C313.22 192.489 313.438 192.531 313.641 192.614C313.844 192.698 314.029 192.821 314.184 192.976C314.339 193.131 314.462 193.316 314.546 193.519C314.629 193.723 314.671 193.94 314.67 194.16Z" stroke="#263238" stroke-linecap="round" stroke-linejoin="round"/>
<path d="M202.33 170.16C202.297 170.579 202.108 170.971 201.799 171.257C201.491 171.542 201.086 171.701 200.665 171.701C200.244 171.701 199.839 171.542 199.531 171.257C199.222 170.971 199.033 170.579 199 170.16C198.982 169.93 199.012 169.7 199.088 169.482C199.163 169.265 199.283 169.065 199.439 168.897C199.596 168.728 199.785 168.593 199.996 168.501C200.207 168.408 200.435 168.361 200.665 168.361C200.895 168.361 201.123 168.408 201.334 168.501C201.545 168.593 201.734 168.728 201.891 168.897C202.047 169.065 202.167 169.265 202.242 169.482C202.318 169.7 202.348 169.93 202.33 170.16Z" stroke="#263238" stroke-linecap="round" stroke-linejoin="round"/>
<path d="M256 275C256 275.33 255.902 275.653 255.719 275.928C255.535 276.202 255.274 276.416 254.969 276.543C254.664 276.669 254.328 276.702 254.004 276.638C253.68 276.573 253.383 276.414 253.149 276.181C252.916 275.947 252.757 275.65 252.692 275.326C252.628 275.002 252.661 274.666 252.787 274.361C252.914 274.056 253.128 273.795 253.402 273.611C253.677 273.428 254 273.33 254.33 273.33C254.549 273.33 254.767 273.373 254.969 273.457C255.172 273.541 255.356 273.664 255.511 273.819C255.666 273.974 255.789 274.158 255.873 274.361C255.957 274.564 256 274.781 256 275Z" stroke="#263238" stroke-linecap="round" stroke-linejoin="round"/>
<path d="M337 353C337 353.33 336.902 353.653 336.719 353.928C336.535 354.202 336.274 354.416 335.969 354.543C335.664 354.669 335.328 354.702 335.004 354.638C334.68 354.573 334.383 354.414 334.149 354.181C333.916 353.947 333.757 353.65 333.692 353.326C333.628 353.002 333.661 352.666 333.787 352.361C333.914 352.056 334.128 351.795 334.402 351.611C334.677 351.428 335 351.33 335.33 351.33C335.773 351.33 336.198 351.506 336.511 351.819C336.824 352.132 337 352.557 337 353Z" stroke="#263238" stroke-linecap="round" stroke-linejoin="round"/>
<path d="M249.65 74.48C250.801 74.5062 251.934 74.7806 252.969 75.2845C254.005 75.7885 254.919 76.5101 255.65 77.4C256.856 78.8459 257.521 80.667 257.53 82.55C257.505 83.7429 257.214 84.9153 256.678 85.9811C256.142 87.047 255.374 87.9794 254.43 88.71C253.326 89.2318 252.396 90.0615 251.752 91.0993C251.108 92.1371 250.777 93.3388 250.8 94.56C250.7 95.24 250.39 95.56 249.88 95.56C249.37 95.56 248.88 95.17 248.88 94.8V94.22C248.88 91.33 250.44 88.93 253.58 87C254.215 86.3974 254.72 85.6714 255.064 84.8666C255.408 84.0618 255.583 83.1952 255.58 82.32C255.58 80.04 254.37 78.22 251.97 76.86C251.143 76.5828 250.281 76.4213 249.41 76.38C247.05 76.38 245.2 77.64 243.86 80.16L243.35 82.64C243.08 82.99 242.83 83.16 242.61 83.16C241.91 83.02 241.61 82.71 241.61 82.25C241.61 79.75 242.843 77.57 245.31 75.71C246.629 74.9382 248.122 74.5149 249.65 74.48ZM249.65 98.56H249.9C250.53 98.56 250.98 98.96 251.25 99.77V100.16C251.232 100.546 251.062 100.91 250.778 101.172C250.493 101.434 250.117 101.574 249.73 101.56C248.73 101.35 248.25 100.88 248.25 100.14C248.228 99.7485 248.36 99.3639 248.618 99.0686C248.876 98.7733 249.239 98.5907 249.63 98.56H249.65Z" fill="#263238"/>
<path d="M83.67 240.52C82.5179 240.493 81.3853 240.217 80.3497 239.711C79.3142 239.205 78.4001 238.482 77.67 237.59C76.4711 236.141 75.8104 234.321 75.8 232.44C75.8247 231.247 76.1158 230.075 76.6522 229.009C77.1886 227.943 77.9566 227.011 78.9 226.28C80.0051 225.759 80.9358 224.93 81.5799 223.892C82.224 222.854 82.554 221.651 82.53 220.43C82.63 219.75 82.94 219.43 83.45 219.43C83.96 219.43 84.45 219.82 84.45 220.19V220.77C84.45 223.66 82.88 226.06 79.75 227.99C79.1153 228.593 78.6104 229.319 78.2665 230.123C77.9226 230.928 77.7468 231.795 77.75 232.67C77.75 234.957 78.9534 236.777 81.36 238.13C82.1872 238.407 83.0487 238.569 83.92 238.61C86.28 238.61 88.13 237.35 89.47 234.83L89.98 232.36C90.25 232 90.5 231.83 90.72 231.83C91.42 231.97 91.72 232.28 91.72 232.75C91.72 235.237 90.4867 237.413 88.02 239.28C86.6992 240.057 85.202 240.484 83.67 240.52ZM83.67 216.43H83.42C82.79 216.43 82.34 216.03 82.07 215.22V214.83C82.0882 214.444 82.258 214.08 82.5425 213.818C82.8271 213.556 83.2034 213.416 83.59 213.43C84.59 213.64 85.07 214.11 85.07 214.85C85.0922 215.241 84.9601 215.626 84.7022 215.921C84.4443 216.217 84.0809 216.399 83.69 216.43H83.67Z" fill="#263238"/>
<path d="M102.27 108.34C103.387 108.374 104.447 108.84 105.227 109.64C106.007 110.441 106.445 111.513 106.45 112.63C106.434 113.267 106.276 113.892 105.989 114.461C105.702 115.03 105.293 115.528 104.79 115.92C104.273 116.166 103.838 116.555 103.535 117.04C103.232 117.526 103.074 118.088 103.08 118.66C103.01 119.15 102.76 119.39 102.35 119.39C101.94 119.39 101.64 119.08 101.64 118.77V118.48C101.666 117.684 101.906 116.91 102.336 116.239C102.765 115.568 103.368 115.026 104.08 114.67C104.374 114.395 104.608 114.062 104.766 113.692C104.925 113.322 105.004 112.923 105 112.52C104.991 111.987 104.83 111.468 104.536 111.023C104.242 110.578 103.827 110.227 103.34 110.01C102.959 109.879 102.562 109.802 102.16 109.78C101.612 109.789 101.078 109.959 100.625 110.268C100.172 110.578 99.8189 111.013 99.6101 111.52L99.3501 112.78C99.283 112.891 99.1912 112.984 99.082 113.054C98.9727 113.123 98.8488 113.166 98.7201 113.18C98.2301 113.08 97.9801 112.84 97.9801 112.48C98.007 111.781 98.203 111.1 98.5514 110.494C98.8998 109.887 99.39 109.375 99.9801 109C100.676 108.593 101.464 108.366 102.27 108.34ZM102.27 120.4H102.43C102.85 120.4 103.16 120.67 103.34 121.21V121.46C103.322 121.713 103.209 121.95 103.024 122.122C102.838 122.295 102.594 122.391 102.34 122.39C101.7 122.25 101.34 121.94 101.34 121.39C101.341 121.144 101.432 120.908 101.596 120.725C101.761 120.543 101.986 120.427 102.23 120.4H102.27Z" fill="#263238"/>
<path d="M221.24 171.68C220.627 171.666 220.025 171.519 219.474 171.25C218.923 170.981 218.437 170.595 218.05 170.12C217.686 169.688 217.413 169.187 217.249 168.646C217.085 168.106 217.033 167.537 217.096 166.976C217.158 166.415 217.335 165.872 217.614 165.381C217.893 164.89 218.27 164.461 218.72 164.12C219.236 163.872 219.671 163.481 219.972 162.994C220.273 162.506 220.429 161.943 220.42 161.37C220.5 160.88 220.74 160.64 221.16 160.64C221.58 160.64 221.86 160.95 221.86 161.27V161.56C221.835 162.356 221.596 163.131 221.166 163.802C220.736 164.473 220.133 165.015 219.42 165.37C219.127 165.646 218.894 165.979 218.735 166.349C218.577 166.719 218.497 167.118 218.5 167.52C218.513 168.052 218.675 168.57 218.969 169.014C219.262 169.458 219.675 169.81 220.16 170.03C220.541 170.158 220.938 170.232 221.34 170.25C221.889 170.241 222.422 170.071 222.875 169.762C223.329 169.452 223.681 169.017 223.89 168.51L224.16 167.25C224.224 167.139 224.314 167.045 224.422 166.975C224.53 166.906 224.652 166.863 224.78 166.85C225.27 166.96 225.52 167.19 225.52 167.55C225.496 168.249 225.301 168.932 224.952 169.538C224.604 170.145 224.112 170.657 223.52 171.03C222.826 171.432 222.042 171.655 221.24 171.68ZM221.24 159.61H221.09C220.66 159.61 220.35 159.34 220.17 158.8V158.55C220.188 158.297 220.301 158.06 220.487 157.888C220.672 157.715 220.917 157.619 221.17 157.62C221.8 157.76 222.12 158.08 222.12 158.62C222.12 158.859 222.035 159.091 221.879 159.273C221.723 159.454 221.507 159.574 221.27 159.61H221.24Z" fill="#263238"/>
<path d="M195.18 126.18C195.18 126.18 200.51 122.02 196.8 116.46C193.09 110.9 174.59 110.21 161.39 116.23C148.19 122.25 149.39 130.12 150.52 132.66C151.65 135.2 153.29 138.45 153.29 138.45V146.32C153.29 146.32 152.6 150.95 144.73 156.73C136.86 162.51 130.84 172 132.46 179C134.08 186 139.18 186.18 135.01 191.5C130.84 196.82 116.49 200.29 115.57 211.4C114.65 222.51 117.88 238.95 141.72 241.49C165.56 244.03 175.28 235.71 187.08 221.12C198.88 206.53 201.66 195.43 200.74 182.7C199.82 169.97 193.56 168.12 193.8 160.25C194.04 152.38 204.9 139.66 202.13 131.79C199.36 123.92 195.18 126.18 195.18 126.18Z" fill="#263238" stroke="#263238" stroke-linecap="round" stroke-linejoin="round"/>
<path d="M174.35 163.68C174.35 163.68 176.21 170.85 174.82 174.32C173.43 177.79 169.49 179.18 161.16 182.42C152.83 185.66 151.44 194.42 154.68 201.63C157.92 208.84 169.03 226.63 167.41 230.56C165.79 234.49 149.41 247.23 149.13 265.51C148.85 283.79 159.13 308.33 159.13 308.33H195.47C195.47 308.33 199.4 233.33 199.4 226.17C199.4 219.01 198.94 218.07 201.71 214.17C201.71 214.17 217.22 231.99 221.39 230.6C225.56 229.21 247.77 184.31 247.77 184.31C250.558 182.618 253.191 180.684 255.64 178.53C258.88 175.53 260.73 173.9 259.81 170.66C259.594 169.76 259.133 168.938 258.478 168.285C257.824 167.632 257 167.173 256.1 166.96C256.1 166.96 262.1 156.77 261.2 155.62C260.3 154.47 258.42 156.08 256.57 159.78C254.72 163.48 251.24 166.73 248.23 172.78C245.22 178.83 244.53 180.65 244.53 180.65C244.53 180.65 225.27 206.49 223 209C222.092 210.088 221.088 211.092 220 212C220 212 214.21 205 210.28 199.27C206.35 193.54 205.88 191.63 202.41 188.62C198.94 185.61 187.13 178.9 185.51 177.51C183.89 176.12 185.28 167.79 185.28 167.79L174.35 163.68Z" fill="white" stroke="#263238" stroke-linecap="round" stroke-linejoin="round"/>
<path d="M262.77 169.69C263.318 170.001 263.722 170.515 263.894 171.122C264.066 171.728 263.993 172.377 263.69 172.93C262.77 175.25 259.06 176.87 258.37 175.93C257.68 174.99 262.77 169.69 262.77 169.69Z" fill="white" stroke="#263238" stroke-linecap="round" stroke-linejoin="round"/>
<path d="M260.91 166.22C260.91 166.22 264.62 167.15 262.77 169.69C260.92 172.23 257.44 175.69 256.77 175.02C256.1 174.35 257.93 171.78 258.16 170.85C258.956 169.238 259.875 167.69 260.91 166.22Z" fill="white" stroke="#263238" stroke-linecap="round" stroke-linejoin="round"/>
<path d="M257 168.31C257 168.31 254 172.93 255.15 173.63C256.3 174.33 259.08 171.31 260.47 168.54C261.86 165.77 258.83 165.07 257 168.31Z" fill="white" stroke="#263238" stroke-linecap="round" stroke-linejoin="round"/>
<path d="M248.42 178.72C248.42 178.72 251.66 176.87 252.58 174.79C253.105 173.291 253.105 171.659 252.58 170.16C252.58 170.16 256.75 169.23 257.67 169.23C258.59 169.23 259.76 167.84 259.53 166.23C259.3 164.62 252.81 166.46 250.53 166.93C248.25 167.4 248.21 172.71 248.21 172.71L245.87 179" fill="white"/>
<path d="M248.42 178.72C248.42 178.72 251.66 176.87 252.58 174.79C253.105 173.291 253.105 171.659 252.58 170.16C252.58 170.16 256.75 169.23 257.67 169.23C258.59 169.23 259.76 167.84 259.53 166.23C259.3 164.62 252.81 166.46 250.53 166.93C248.25 167.4 248.21 172.71 248.21 172.71L245.87 179" stroke="#263238" stroke-linecap="round" stroke-linejoin="round"/>
<path d="M198 305C198 305 198.86 318.23 196 327C194.27 332.29 188.19 373.71 187.5 382.2C186.71 391.88 186.23 406 187.77 410.15C188.95 413.33 198.47 426.41 202.4 428.25C203.59 428.81 202.79 430.79 201.48 430.95C197.726 431.188 193.961 430.72 190.38 429.57C186.75 428.29 185.08 423.09 181.46 421.38C177.84 419.67 172.46 420.1 174.46 415.58C176.46 411.06 177.9 407.27 177.9 407.27C177.9 407.27 177.76 400.27 172.9 361.13C171.72 351.71 178.57 331 178.57 326C178.57 321 175.57 305.5 175.57 305.5L198 305Z" fill="white" stroke="#263238" stroke-linecap="round" stroke-linejoin="round"/>
<path d="M178.88 426.09L180.25 425.48L181.88 421.33L179.24 420.7L178.88 426.09Z" fill="#54B862" stroke="#263238" stroke-linecap="round" stroke-linejoin="round"/>
<path d="M174.26 418.21L176.4 425.39L178.88 426.09L179.66 420.4L174.26 418.21Z" fill="#54B862" stroke="#263238" stroke-linecap="round" stroke-linejoin="round"/>
<path d="M202.4 428.25C201.64 427.5 199.25 426.01 198.31 424.85C196.275 425.391 194.151 425.506 192.07 425.19C187.91 424.11 186.18 419.09 182.72 416.19C180.609 414.407 178.605 412.501 176.72 410.48L176.6 410.43C176.02 411.85 175.26 413.65 174.39 415.62C172.39 420.14 177.8 419.7 181.39 421.42C184.98 423.14 186.68 428.33 190.31 429.61C193.891 430.76 197.656 431.228 201.41 430.99C201.718 430.97 202.014 430.86 202.261 430.674C202.508 430.488 202.696 430.234 202.801 429.944C202.906 429.653 202.924 429.338 202.853 429.037C202.782 428.736 202.624 428.463 202.4 428.25Z" fill="#54B862" stroke="#263238" stroke-linecap="round" stroke-linejoin="round"/>
<path d="M182 294.75C182 294.75 181.75 320.39 180.8 327.75C179.91 334.63 176.86 352.22 161.05 378.93C155.75 387.93 147.36 406.17 147.36 410.17C147.57 411.8 149.63 419.72 152.17 423C156.07 428.05 158.83 430.61 156.93 431.56C155.03 432.51 148.29 430.8 144.01 428.43C140.28 426.35 137.8 421 134.95 417.2C132.1 413.4 133.95 411.01 136.95 408.51C139.95 406.01 141.33 398.79 142.33 396.29C143.33 393.79 150.83 353.48 153.58 345.2C155.751 339.219 158.49 333.459 161.76 328L156.76 295.5L182 294.75Z" fill="white" stroke="#263238" stroke-linecap="round" stroke-linejoin="round"/>
<path d="M136 426.1L137.89 425.73L139.39 421.58L136.88 419.57L136 426.1Z" fill="#54B862" stroke="#263238" stroke-linecap="round" stroke-linejoin="round"/>
<path d="M133.74 413.41V425.35L136 426.1L136.88 419.57L133.74 413.41Z" fill="#54B862" stroke="#263238" stroke-linecap="round" stroke-linejoin="round"/>
<path d="M151.13 424.54C148.95 425.21 145.42 424.7 141.38 420.84C137.82 417.43 136.18 410.84 135.93 409.38C133.44 411.49 132.41 413.85 134.93 417.21C137.78 421.01 140.26 426.36 143.99 428.44C148.27 430.81 154.99 432.52 156.91 431.57C158.83 430.62 156.2 428.17 152.76 423.8C152.251 424.115 151.703 424.364 151.13 424.54Z" fill="#54B862" stroke="#263238" stroke-linecap="round" stroke-linejoin="round"/>
<path d="M210.23 199.32C206.29 193.53 205.83 191.68 202.36 188.67C199.55 186.518 196.615 184.535 193.57 182.73C192.614 185.316 190.92 187.564 188.698 189.196C186.476 190.828 183.823 191.772 181.07 191.91C172.07 192.73 168.84 184.62 167.74 179.81C165.94 180.58 163.74 181.41 161.16 182.42C152.83 185.66 151.44 194.42 154.68 201.63C157.92 208.84 169.03 226.63 167.41 230.56C165.79 234.49 149.41 247.23 149.13 265.51C148.85 283.79 157.88 317.33 157.88 317.33L200 317C200 317 203.51 297.83 203 283.83C202.51 270.07 198.54 247.68 198.49 247.03C198.99 236.55 199.34 228.32 199.34 226.17C199.34 218.99 198.88 218.07 201.65 214.17C201.65 214.17 204.23 217.17 207.57 220.55L216.19 207.43C214.33 205 212.08 202 210.23 199.32Z" fill="#54B862" stroke="#263238" stroke-linecap="round" stroke-linejoin="round"/>
<path d="M201.66 214.13C201.66 214.13 206.06 205.8 203.52 199.55" stroke="#263238" stroke-linecap="round" stroke-linejoin="round"/>
<path d="M182.64 283.53C182.82 285.53 182.95 287.53 183 289.53" stroke="#263238" stroke-linecap="round" stroke-linejoin="round"/>
<path d="M174.5 250C178.168 259.504 180.745 269.394 182.18 279.48" stroke="#263238" stroke-linecap="round" stroke-linejoin="round"/>
<path d="M192.5 279C190.745 286.155 188.056 293.048 184.5 299.5" stroke="#263238" stroke-linecap="round" stroke-linejoin="round"/>
<path d="M160.24 182.65C160.24 182.65 151.9 184.04 148.66 187.75C145.42 191.46 124.83 235 125.52 237.51C126.21 240.02 136.4 238.9 140.8 234.51C145.2 230.12 161.39 195.86 161.39 195.86" fill="#54B862"/>
<path d="M160.24 182.65C160.24 182.65 151.9 184.04 148.66 187.75C145.42 191.46 124.83 235 125.52 237.51C126.21 240.02 136.4 238.9 140.8 234.51C145.2 230.12 161.39 195.86 161.39 195.86" stroke="#263238" stroke-linecap="round" stroke-linejoin="round"/>
<path d="M151.55 215.87L136.76 210.63C130.87 223.07 125.15 236.15 125.52 237.51C126.21 240.05 136.4 238.9 140.8 234.51C142.81 232.49 147.28 224.23 151.55 215.87Z" fill="white" stroke="#263238" stroke-linecap="round" stroke-linejoin="round"/>
<path d="M132.23 225.24C132.23 225.24 168.11 218.99 169.73 218.53C171.35 218.07 179.21 209.27 179.91 209.04C180.61 208.81 187.08 207.88 189.91 208.58C192.74 209.28 194.77 209.97 193.38 210.43C191.019 210.933 188.621 211.241 186.21 211.35C185.432 211.378 184.657 211.458 183.89 211.59C183.89 211.59 191.07 213.44 192.23 214.36C193.39 215.28 193.38 216.21 191.99 216.21C190.6 216.21 183.2 214.83 183.2 214.83C183.2 214.83 192.46 218.99 191.99 219.69C191.52 220.39 189.91 220.15 187.83 219.69C185.993 219.159 184.208 218.459 182.5 217.6C182.5 217.6 188.06 223.39 186.44 223.6C184.82 223.81 184.59 223.14 183.44 221.75C182.283 220.624 180.957 219.686 179.51 218.97C179.51 218.97 177.19 223.37 173.72 224.29C171.447 224.84 169.086 224.922 166.78 224.53C166.78 224.53 146.64 235.17 140.39 237.26C134.14 239.35 128.07 241 126 238.66C123.93 236.32 129 228.48 129 228.48" fill="white"/>
<path d="M132.23 225.24C132.23 225.24 168.11 218.99 169.73 218.53C171.35 218.07 179.21 209.27 179.91 209.04C180.61 208.81 187.08 207.88 189.91 208.58C192.74 209.28 194.77 209.97 193.38 210.43C191.019 210.933 188.621 211.241 186.21 211.35C185.432 211.378 184.657 211.458 183.89 211.59C183.89 211.59 191.07 213.44 192.23 214.36C193.39 215.28 193.38 216.21 191.99 216.21C190.6 216.21 183.2 214.83 183.2 214.83C183.2 214.83 192.46 218.99 191.99 219.69C191.52 220.39 189.91 220.15 187.83 219.69C185.993 219.159 184.208 218.459 182.5 217.6C182.5 217.6 188.06 223.39 186.44 223.6C184.82 223.81 184.59 223.14 183.44 221.75C182.283 220.624 180.957 219.686 179.51 218.97C179.51 218.97 177.19 223.37 173.72 224.29C171.447 224.84 169.086 224.922 166.78 224.53C166.78 224.53 146.64 235.17 140.39 237.26C134.14 239.35 128.07 241 126 238.66C123.93 236.32 129 228.48 129 228.48" stroke="#263238" stroke-linecap="round" stroke-linejoin="round"/>
<path d="M166.49 147.48C166.49 147.48 164.63 144.24 163.25 146.32C161.87 148.4 162.09 152.32 164.17 154.88C166.25 157.44 170.17 156.27 170.17 156.27C170.17 156.27 172.48 165.07 176.65 168.07C180.82 171.07 189.15 171.31 193.31 166.69C197.47 162.07 197.71 152.1 197.02 143.31C196.33 134.52 192.16 130.12 192.16 130.12C192.16 130.12 182.43 137.75 177.57 139.61C174.421 140.773 171.165 141.624 167.85 142.15L166.49 147.48Z" fill="white" stroke="#263238" stroke-linecap="round" stroke-linejoin="round"/>
<path d="M190.17 158.82C189.124 159.209 187.991 159.309 186.893 159.108C185.795 158.908 184.771 158.414 183.93 157.68" stroke="#263238" stroke-linecap="round" stroke-linejoin="round"/>
<path d="M172.04 138.45H153.29V146.32H172.04V138.45Z" fill="#54B862" stroke="#263238" stroke-linecap="round" stroke-linejoin="round"/>
<path d="M201.67 138.68H170.18C168.523 138.68 167.18 140.023 167.18 141.68V151.19C167.18 152.847 168.523 154.19 170.18 154.19H201.67C203.327 154.19 204.67 152.847 204.67 151.19V141.68C204.67 140.023 203.327 138.68 201.67 138.68Z" fill="#54B862" stroke="#263238" stroke-linecap="round" stroke-linejoin="round"/>
<path d="M205.6 138.68H176.2C174.543 138.68 173.2 140.023 173.2 141.68V151.19C173.2 152.847 174.543 154.19 176.2 154.19H205.6C207.257 154.19 208.6 152.847 208.6 151.19V141.68C208.6 140.023 207.257 138.68 205.6 138.68Z" fill="#54B862"/>
<mask id="mask0_230_985" style="mask-type:luminance" maskUnits="userSpaceOnUse" x="173" y="138" width="36" height="17">
<path d="M205.6 138.68H176.2C174.543 138.68 173.2 140.023 173.2 141.68V151.19C173.2 152.847 174.543 154.19 176.2 154.19H205.6C207.257 154.19 208.6 152.847 208.6 151.19V141.68C208.6 140.023 207.257 138.68 205.6 138.68Z" fill="white"/>
</mask>
<g mask="url(#mask0_230_985)">
<path opacity="0.3" d="M205.6 138.68H176.2C174.543 138.68 173.2 140.023 173.2 141.68V151.19C173.2 152.847 174.543 154.19 176.2 154.19H205.6C207.257 154.19 208.6 152.847 208.6 151.19V141.68C208.6 140.023 207.257 138.68 205.6 138.68Z" fill="black"/>
</g>
<path d="M205.6 138.68H176.2C174.543 138.68 173.2 140.023 173.2 141.68V151.19C173.2 152.847 174.543 154.19 176.2 154.19H205.6C207.257 154.19 208.6 152.847 208.6 151.19V141.68C208.6 140.023 207.257 138.68 205.6 138.68Z" stroke="#263238" stroke-linecap="round" stroke-linejoin="round"/>
<path opacity="0.6" d="M289.55 131H252.4C248.435 131 245.22 134.215 245.22 138.18V173.21C245.22 177.175 248.435 180.39 252.4 180.39H289.55C293.515 180.39 296.73 177.175 296.73 173.21V138.18C296.73 134.215 293.515 131 289.55 131Z" fill="#54B862"/>
<path d="M237.09 158.65V152.44" stroke="#263238" stroke-linecap="round" stroke-linejoin="round"/>
<path d="M267.17 189.06H244.27C243.327 189.06 242.393 188.874 241.522 188.514C240.651 188.153 239.86 187.624 239.193 186.957C238.526 186.29 237.997 185.499 237.637 184.628C237.276 183.757 237.09 182.823 237.09 181.88V161.42" stroke="#263238" stroke-linecap="round" stroke-linejoin="round"/>
<path d="M279.52 189.06H272.07" stroke="#263238" stroke-linecap="round" stroke-linejoin="round"/>
<path d="M304.85 145V181.85C304.85 183.754 304.093 185.581 302.747 186.927C301.4 188.274 299.574 189.03 297.67 189.03H284.42" stroke="#263238" stroke-linecap="round" stroke-linejoin="round"/>
<path d="M248.24 122.33H297.67C299.574 122.33 301.401 123.086 302.747 124.433C304.094 125.78 304.85 127.606 304.85 129.51V138.43" stroke="#263238" stroke-linecap="round" stroke-linejoin="round"/>
<path d="M292.9 127.79H249.05C245.085 127.79 241.87 131.005 241.87 134.97V176.43C241.87 180.395 245.085 183.61 249.05 183.61H292.9C296.865 183.61 300.08 180.395 300.08 176.43V134.97C300.08 131.005 296.865 127.79 292.9 127.79Z" stroke="#263238" stroke-linecap="round" stroke-linejoin="round"/>
<path opacity="0.5" d="M367.56 127.79H323.71C319.745 127.79 316.53 131.005 316.53 134.97V176.43C316.53 180.395 319.745 183.61 323.71 183.61H367.56C371.525 183.61 374.74 180.395 374.74 176.43V134.97C374.74 131.005 371.525 127.79 367.56 127.79Z" fill="white" stroke="#263238" stroke-linecap="round" stroke-linejoin="round"/>
<path opacity="0.5" d="M292.9 200.45H249.05C245.085 200.45 241.87 203.665 241.87 207.63V249.09C241.87 253.055 245.085 256.27 249.05 256.27H292.9C296.865 256.27 300.08 253.055 300.08 249.09V207.63C300.08 203.665 296.865 200.45 292.9 200.45Z" fill="white" stroke="#263238" stroke-linecap="round" stroke-linejoin="round"/>
<path opacity="0.5" d="M367.56 200.45H323.71C319.745 200.45 316.53 203.665 316.53 207.63V249.09C316.53 253.055 319.745 256.27 323.71 256.27H367.56C371.525 256.27 374.74 253.055 374.74 249.09V207.63C374.74 203.665 371.525 200.45 367.56 200.45Z" fill="white" stroke="#263238" stroke-linecap="round" stroke-linejoin="round"/>
<path d="M364.21 131H327.06C323.095 131 319.88 134.215 319.88 138.18V173.21C319.88 177.175 323.095 180.39 327.06 180.39H364.21C368.175 180.39 371.39 177.175 371.39 173.21V138.18C371.39 134.215 368.175 131 364.21 131Z" fill="#54B862"/>
<path d="M289.55 203.67H252.4C248.435 203.67 245.22 206.885 245.22 210.85V245.88C245.22 249.845 248.435 253.06 252.4 253.06H289.55C293.515 253.06 296.73 249.845 296.73 245.88V210.85C296.73 206.885 293.515 203.67 289.55 203.67Z" fill="#54B862"/>
<path d="M364.21 203.67H327.06C323.095 203.67 319.88 206.885 319.88 210.85V245.88C319.88 249.845 323.095 253.06 327.06 253.06H364.21C368.175 253.06 371.39 249.845 371.39 245.88V210.85C371.39 206.885 368.175 203.67 364.21 203.67Z" fill="#54B862"/>
<path d="M271 146.51C271.38 146.59 271.56 146.75 271.56 147V162.88C271.493 163.28 271.303 163.48 270.99 163.48C270.58 163.4 270.37 163.24 270.37 163V147.91C269.747 148.155 269.1 148.336 268.44 148.45C268.22 148.45 268.06 148.26 267.96 147.88V147.68C267.96 147.39 268.51 147.13 269.59 146.91L271 146.51Z" fill="#263238"/>
<path d="M344.63 146.52C345.956 146.52 347.228 147.047 348.165 147.984C349.103 148.922 349.63 150.194 349.63 151.52C349.579 152.374 349.35 153.207 348.957 153.967C348.564 154.726 348.017 155.395 347.35 155.93L341.77 162.32H349.33C349.62 162.32 349.79 162.52 349.86 162.91C349.93 163.3 349.61 163.51 349.28 163.51H340.34C339.95 163.43 339.75 163.24 339.75 162.93V162.88C339.75 162.68 340.01 162.33 340.54 161.88L347.73 153.69C348.128 153.138 348.366 152.488 348.418 151.809C348.469 151.131 348.332 150.452 348.022 149.846C347.711 149.241 347.239 148.733 346.659 148.379C346.078 148.025 345.41 147.838 344.73 147.84H344.59C343.8 147.834 343.029 148.084 342.393 148.553C341.756 149.022 341.289 149.684 341.06 150.44C340.954 150.836 340.887 151.241 340.86 151.65C340.72 151.94 340.55 152.08 340.34 152.08H340.27C339.88 152.01 339.68 151.83 339.68 151.56C339.688 150.694 339.921 149.846 340.356 149.098C340.791 148.349 341.412 147.726 342.16 147.29C342.907 146.833 343.756 146.569 344.63 146.52Z" fill="#263238"/>
<path d="M270.28 219.24C270.925 219.25 271.558 219.411 272.129 219.709C272.7 220.008 273.194 220.436 273.57 220.96C274.072 221.622 274.342 222.43 274.34 223.26V223.44C274.299 224.106 274.112 224.755 273.792 225.341C273.473 225.927 273.028 226.435 272.49 226.83C273.246 227.288 273.877 227.925 274.328 228.686C274.778 229.447 275.033 230.307 275.07 231.19C275.075 232.496 274.562 233.75 273.644 234.678C272.725 235.606 271.476 236.132 270.17 236.14H270C269.039 236.126 268.103 235.836 267.304 235.304C266.504 234.772 265.874 234.02 265.49 233.14C265.248 232.5 265.116 231.824 265.1 231.14C265.1 230.88 265.33 230.71 265.78 230.62C266.05 230.62 266.22 230.83 266.28 231.25C266.294 231.973 266.516 232.677 266.918 233.278C267.321 233.878 267.887 234.351 268.55 234.64C269.058 234.835 269.596 234.94 270.14 234.95C270.879 234.948 271.601 234.723 272.209 234.304C272.818 233.884 273.285 233.29 273.55 232.6C273.704 232.204 273.792 231.785 273.81 231.36V231C273.79 230.274 273.554 229.569 273.132 228.978C272.71 228.387 272.121 227.935 271.44 227.68L269.96 227.36C269.874 227.306 269.802 227.233 269.75 227.146C269.698 227.059 269.667 226.961 269.66 226.86V226.81C269.66 226.43 269.97 226.25 270.6 226.25C271.035 226.199 271.453 226.052 271.823 225.818C272.194 225.584 272.507 225.271 272.74 224.9C272.997 224.408 273.141 223.865 273.16 223.31C273.165 222.77 273.014 222.24 272.725 221.784C272.435 221.328 272.021 220.966 271.53 220.74C271.152 220.544 270.736 220.435 270.311 220.42C269.886 220.405 269.463 220.485 269.073 220.653C268.682 220.821 268.334 221.074 268.054 221.394C267.773 221.713 267.567 222.091 267.45 222.5C267.428 222.871 267.374 223.239 267.29 223.6C267.07 223.85 266.91 223.97 266.81 223.97C266.38 223.87 266.16 223.71 266.16 223.49V223.26C266.166 222.517 266.379 221.791 266.774 221.162C267.17 220.533 267.733 220.027 268.4 219.7C268.986 219.414 269.628 219.257 270.28 219.24Z" fill="#263238"/>
<path d="M347.37 219.32H347.65C347.837 219.32 347.997 219.49 348.13 219.83L348.08 220.24V229.76H349.83H350.24C350.5 229.76 350.69 229.98 350.79 230.41C350.79 230.66 350.62 230.85 350.27 230.98L349.64 230.93H348.08V235.71C348.08 235.94 347.88 236.1 347.48 236.18C347.08 236.11 346.88 235.92 346.88 235.62V230.93H340.36L339.36 230.98C339.07 230.86 338.92 230.69 338.92 230.46V230.27C338.92 230.16 339.04 230 339.3 229.81C344.227 223.39 346.823 219.973 347.09 219.56C347.15 219.448 347.25 219.362 347.37 219.32ZM340.76 229.76H346.89V221.76L340.76 229.76Z" fill="#263238"/>
</svg>
