<svg width="1536" height="864" viewBox="0 0 1536 864" fill="none" xmlns="http://www.w3.org/2000/svg">
<path d="M464.757 864L477.231 792C489.888 720 514.834 576 486.769 432C458.704 288 377.26 144 336.722 72L296 0H1536V72C1536 144 1536 288 1536 432C1536 576 1536 720 1536 792V864H464.757Z" fill="#F1FFFE"/>
<path d="M325 864L385.413 792C445.825 720 566.651 576 636.675 432C706.698 288 725.921 144 735.532 72L745.143 -1.28746e-05H1536V72C1536 144 1536 288 1536 432C1536 576 1536 720 1536 792V864H325Z" fill="#DFF8F7" fill-opacity="0.8"/>
<path d="M999.193 864L1016.35 792C1033.23 720 1067.54 576 994.489 432C921.716 288 741.858 144 651.929 72L562 0H1536V72C1536 144 1536 288 1536 432C1536 576 1536 720 1536 792V864H999.193Z" fill="#CDF0EF" fill-opacity="0.5"/>
<path d="M1417.1 864L1405.02 792C1392.75 720 1368.59 576 1310.67 432C1252.76 288 1161.47 144 1115.64 72L1070 -1.28746e-05H1536V72C1536 144 1536 288 1536 432C1536 576 1536 720 1536 792V864H1417.1Z" fill="#BAE8E8" fill-opacity="0.3"/>
</svg>
