<svg width="80" height="80" viewBox="0 0 80 80" fill="none" xmlns="http://www.w3.org/2000/svg">
<path fill-rule="evenodd" clip-rule="evenodd" d="M60.1482 4.44434H0.888916V75.5555H42.3704L60.1482 57.7777V4.44434ZM42.3704 57.7777H55.2889L42.3704 70.7703V57.7777ZM33.4815 60.7406H9.7778V63.7036H33.4815V60.7406ZM33.4815 51.8517H9.7778V54.8147H33.4815V51.8517ZM51.2593 45.9258V42.9629H9.7778V45.9258H51.2593ZM30.3437 31.2058C26.9452 30.4206 23.7837 29.7332 25.3156 26.8414C29.9763 18.0414 26.5511 13.3332 21.6297 13.3332C16.6104 13.3332 13.2711 18.2221 17.9437 26.8414C19.52 29.751 16.24 30.4384 12.9156 31.2058C9.88151 31.908 9.76892 33.4132 9.7778 36.0503L9.78077 37.0369H33.4756L33.4785 36.0799C33.4904 33.4251 33.3897 31.911 30.3437 31.2058ZM51.2593 34.074H39.4074V37.0369H51.2593V34.074ZM51.2593 28.148V25.1851H39.4074V28.148H51.2593ZM51.2593 16.2962H39.4074V19.2592H51.2593V16.2962Z" fill="#65C272"/>
<path d="M64.5552 13.9006C63.9675 13.2935 64.0007 12.3422 64.6036 11.7546L70.7719 5.77296C71.0733 5.4812 71.4605 5.33325 71.8435 5.33325C72.2334 5.33325 72.622 5.48535 72.9165 5.79093L64.5552 13.9006ZM54.4144 29.1395C54.2872 29.2625 54.2222 29.4271 54.2222 29.5916C54.2222 29.9373 54.5042 30.2221 54.8527 30.2221C55.0103 30.2221 55.1693 30.1641 55.291 30.0452L56.3267 29.0372L55.4514 28.1329L54.4144 29.1395ZM63.167 17.4901L59.6217 20.9261C57.7163 22.7735 56.7442 24.5627 55.8469 27.0613L57.4121 28.6776C59.9356 27.8577 61.7538 26.9423 63.6592 25.095L67.2031 21.6576L63.167 17.4901ZM73.5055 6.89987L64.3741 15.7562L68.973 20.5044L78.1044 11.6509C78.7751 11.0024 79.1111 10.1396 79.1111 9.27538C79.1111 6.38826 75.6128 4.85621 73.5055 6.89987Z" fill="#DCEFDE"/>
</svg>
