<svg width="80" height="80" viewBox="0 0 80 80" fill="none" xmlns="http://www.w3.org/2000/svg">
<g clip-path="url(#clip0_234_2828)">
<path fill-rule="evenodd" clip-rule="evenodd" d="M53.0096 25.9816C50.9896 27.1134 48.8942 29.7195 48.7292 33.9939L47.4075 33.9429C47.6122 28.6415 50.5237 25.5719 53.0675 24.4801L53.3819 16.3398L67.9622 2.96857L79.8746 15.8379L65.3475 29.341L57.0974 29.0224L56.9139 29.3886C56.2315 30.7428 55.4587 32.2789 55.3826 34.2508L54.0609 34.1998C54.1446 32.0309 54.9565 30.3388 55.6449 28.9663L52.8984 28.8602L53.0096 25.9816ZM65.6075 11.9818C65.0378 12.5092 64.7478 13.0936 64.7216 13.7716C64.6921 14.5356 64.9775 15.4057 65.6735 16.6821C66.1806 17.6044 66.3883 18.1895 66.371 18.6363C66.3526 19.1134 65.7765 20.0468 64.7122 19.8443C64.2588 19.7579 63.8037 19.4783 63.3932 19.0362C62.5661 18.1412 62.3512 16.9522 63.3693 16.0226L62.4239 15.0013C61.7705 15.6061 61.3212 16.4094 61.2873 17.2884C61.2584 18.0364 61.5299 18.7869 62.0972 19.5209L61.2365 20.3163L62.1248 21.2745L63.0198 20.4447C64.0825 21.2389 65.648 21.6607 66.9069 20.4942C68.2947 19.2096 67.7336 17.6299 66.7744 15.9714C66.3041 15.1591 66.0856 14.5113 66.1056 13.9932C66.1356 13.2147 66.824 12.459 67.8233 12.6326C68.3308 12.721 68.8185 13.0152 69.2745 13.5106C69.8476 14.1297 70.1258 14.7401 70.1032 15.3256C70.0819 15.8781 69.8113 16.3031 69.4391 16.6885L70.3781 17.7029C71.007 17.1144 71.4285 16.3113 71.4619 15.4482C71.4896 14.7292 71.2517 14.0013 70.7551 13.2872L71.4937 12.6009L70.6081 11.6441L69.8929 12.3048C68.7466 11.2771 67.0323 10.6629 65.6075 11.9818ZM55.7315 24.0496C56.3171 24.1397 56.8175 24.3761 57.1789 24.754C57.6851 25.2859 57.8916 25.8365 57.9079 26.4063C59.1402 26.4433 60.1741 25.4799 60.2217 24.2468C60.2696 23.007 59.3026 21.9624 58.0629 21.9145C56.831 21.8669 55.7909 22.8208 55.7315 24.0496Z" fill="#65C272"/>
<path d="M27.1605 77.7778H4.93827V48.1482H27.1605V77.7778ZM27.1605 33.3334H0V43.2099H27.1605V33.3334ZM32.0988 77.7778H54.321V48.1482H32.0988V77.7778ZM32.0988 33.3334V43.2099H59.2593V33.3334H32.0988ZM42.8864 18.5186C35.6099 18.5186 31.3531 27.1037 29.6296 30.8642H42.8272C51.4519 30.8642 51.5432 18.5186 42.8864 18.5186ZM40.921 27.4593H35.8765C37.7012 24.6914 39.4296 22.605 41.6593 22.605C44.5531 22.605 44.6914 27.4593 40.921 27.4593ZM16.4321 30.8642H29.6296C27.9062 27.1037 23.6494 18.5186 16.3728 18.5186C7.71605 18.5186 7.80741 30.8642 16.4321 30.8642ZM17.6 22.605C19.8296 22.605 21.558 24.6914 23.3827 27.4593H18.3383C14.5679 27.4593 14.7062 22.605 17.6 22.605Z" fill="#65C272"/>
</g>
<defs>
<clipPath id="clip0_234_2828">
<rect width="80" height="80" fill="white"/>
</clipPath>
</defs>
</svg>
