<svg width="80" height="80" viewBox="0 0 80 80" fill="none" xmlns="http://www.w3.org/2000/svg">
<path fill-rule="evenodd" clip-rule="evenodd" d="M23.3333 20.0001V13.3334C23.3333 9.65341 26.32 6.66675 30 6.66675H50C53.68 6.66675 56.6667 9.65341 56.6667 13.3334V20.0001H73.3333C77.0133 20.0001 80 22.9867 80 26.6667V66.6667C80 70.3467 77.0133 73.3334 73.3333 73.3334H6.66667C2.98667 73.3334 0 70.3467 0 66.6667V26.6667C0 22.9867 2.98667 20.0001 6.66667 20.0001H23.3333ZM48.3333 13.3334H31.6667C30.7467 13.3334 30 14.0801 30 15.0001V20.0001H50V15.0001C50 14.0801 49.2533 13.3334 48.3333 13.3334ZM29.5015 28.0056C29.5015 28.0902 29.7051 29.4434 29.9596 31.0263C30.2268 32.597 30.405 33.9261 30.3668 33.9503C30.3286 33.9866 29.7815 34.0591 29.158 34.1074L28 34.192L30.9013 40.5717C32.4791 44.0757 33.8153 46.9635 33.8407 46.9997C33.8789 47.0239 34.2097 45.441 34.5787 43.4595C34.676 42.9403 34.8096 42.223 34.9539 41.4474L34.9542 41.4461C35.3574 39.2797 35.8452 36.6594 35.864 36.6327C35.864 36.6414 35.8687 36.6497 35.8787 36.6576C35.8908 36.7289 35.8897 36.9402 35.8882 37.2387C35.8829 38.2907 35.872 40.4271 36.4111 41.345L37.0728 42.4687H42.8117L43.6134 41.1396C44.1479 40.2449 44.1213 38.2479 44.1075 37.2152C44.104 36.9525 44.1013 36.7523 44.1089 36.6484C44.1295 36.6266 44.1351 36.6014 44.1351 36.5723C44.1606 36.6085 45.064 41.3208 45.4076 43.2057C45.7639 45.0906 46.0947 46.7581 46.1456 46.891C46.2093 47.0964 46.9219 45.6465 49.0978 40.8133C50.6757 37.3335 51.9736 34.4336 51.9991 34.3732C52.0245 34.3249 51.5282 34.2524 50.892 34.2403C50.2685 34.2161 49.7213 34.1678 49.6831 34.1316C49.645 34.0953 49.8358 32.7058 50.1158 31.0504C50.383 29.383 50.5866 28.0177 50.5739 28.0056C50.5484 27.9814 43.6134 32.0654 43.4607 32.1862C43.4098 32.2466 43.537 33.2012 43.7534 34.3249C43.957 35.4486 44.1351 36.4635 44.1351 36.5723C44.1215 36.5594 44.1134 36.5871 44.1089 36.6484C43.9842 36.7809 43.3093 36.7898 39.9995 36.7898C37.0016 36.7898 36.0071 36.7586 35.8787 36.6576C35.8751 36.6362 35.8703 36.6274 35.864 36.6327C35.8767 36.5602 36.0676 35.509 36.2966 34.3128L36.7038 32.1379L36.1312 31.7875C32.7591 29.7455 29.5015 27.8848 29.5015 28.0056ZM36.8916 49.4211C37.3679 45.9737 37.771 43.1254 37.7832 43.0642C37.7832 43.0153 38.7847 42.9909 40.0061 43.0031L42.2412 43.0398L44 55.6313L42.5221 59.5432C40.3824 65.1738 40.0687 66.0245 39.9636 65.9995C39.9409 65.9941 39.9279 65.9479 39.9084 65.9001C39.8746 65.8257 39.5866 65.0702 39.158 63.9462C38.8121 63.0387 38.3745 61.8911 37.9053 60.6679L36 55.668L36.8916 49.4211Z" fill="#65C272"/>
</svg>
