<svg width="24" height="24" viewBox="0 0 24 24" fill="none" xmlns="http://www.w3.org/2000/svg">
<path d="M11.6 11C11.6 10.448 11.152 10 10.6 10C8.945 10 5.655 10 4 10C3.448 10 3 10.448 3 11V20C3 20.552 3.448 21 4 21H10.6C11.152 21 11.6 20.552 11.6 20C11.6 17.908 11.6 13.092 11.6 11ZM21 17C21 16.448 20.552 16 20 16H14C13.462 16 13 16.477 13 17V20C13 20.552 13.448 21 14 21H20C20.552 21 21 20.552 21 20V17ZM21 4C21 3.448 20.552 3 20 3C18.463 3 15.537 3 14 3C13.448 3 13 3.448 13 4V13.6C13 14.152 13.448 14.6 14 14.6H20C20.552 14.6 21 14.152 21 13.6C21 11.406 21 6.194 21 4ZM11.6 4C11.6 3.448 11.152 3 10.6 3C8.945 3 5.655 3 4 3C3.448 3 3 3.448 3 4V7.6C3 8.152 3.448 8.6 4 8.6H10.6C11.152 8.6 11.6 8.152 11.6 7.6C11.6 6.583 11.6 5.017 11.6 4Z" fill="#2C698D"/>
</svg>
