<svg xmlns="http://www.w3.org/2000/svg" width="24" height="24"><path fill="#2C698D" d="M11.363 2C15.518 2 14 8 14 8s6-1.65 6 2.457V22H4V2h7.363Zm.826-2H2v24h20V9.614C22 7.223 15.352 0 12.189 0Z"/><path fill="#2C698D" d="M8.453 13.064h.866v2.514a1.145 1.145 0 0 1-.169.618 1.123 1.123 0 0 1-.461.408 1.505 1.505 0 0 1-.678.146c-.228 0-.434-.04-.62-.12a.983.983 0 0 1-.442-.369c-.11-.166-.163-.38-.162-.64h.876a.602.602 0 0 0 .053.24.344.344 0 0 0 .137.146c.058.034.127.05.207.05a.4.4 0 0 0 .213-.053.339.339 0 0 0 .132-.162.686.686 0 0 0 .048-.264v-2.514ZM9.87 16.7v-3.636h1.502c.272 0 .507.053.705.16.199.105.352.252.46.442a1.3 1.3 0 0 1 .161.656c0 .252-.055.471-.165.66a1.108 1.108 0 0 1-.467.434 1.572 1.572 0 0 1-.72.155h-.927v-.693h.763a.714.714 0 0 0 .332-.069.475.475 0 0 0 .204-.193.6.6 0 0 0 .07-.293.583.583 0 0 0-.07-.292.465.465 0 0 0-.204-.191.737.737 0 0 0-.332-.068h-.433V16.7h-.88Zm5.648-2.448a.636.636 0 0 0-.089-.198.568.568 0 0 0-.339-.238.864.864 0 0 0-.241-.032.811.811 0 0 0-.458.128.82.82 0 0 0-.297.373c-.07.162-.105.36-.105.591 0 .234.034.433.101.597a.81.81 0 0 0 .293.377c.128.086.283.13.466.13a.96.96 0 0 0 .408-.079.575.575 0 0 0 .256-.226.656.656 0 0 0 .087-.342l.163.02h-.884v-.642h1.568v.482c0 .325-.07.604-.208.836-.137.232-.327.41-.568.534a1.78 1.78 0 0 1-.83.187c-.346 0-.651-.075-.914-.226a1.563 1.563 0 0 1-.614-.643c-.147-.279-.22-.61-.22-.994 0-.298.044-.563.133-.793a1.605 1.605 0 0 1 .925-.955c.21-.084.437-.125.68-.125.21 0 .406.03.588.09.182.06.343.146.482.256.141.11.256.241.343.393.088.151.142.317.164.498h-.89Z"/></svg>