<svg xmlns="http://www.w3.org/2000/svg" width="24" height="24"><path fill="#2C698D" d="M11.363 2C15.518 2 14 8 14 8s6-1.65 6 2.457V22H4V2h7.363Zm.826-2H2v24h20V9.614C22 7.223 15.352 0 12.189 0ZM17 13h-2.628v3.686h.907v-1.472h1.49v-.732h-1.49v-.698H17V13Zm-4.9 0h-1.599v3.686H12.1c.537 0 .961-.181 1.262-.535.555-.658.587-2.034-.062-2.692-.298-.3-.712-.459-1.2-.459Zm-.692.783h.496c.473 0 .802.173.915.644.064.267.077.679-.021.948-.128.351-.381.528-.754.528h-.637v-2.12h.001ZM8.668 13H7v3.686h.907v-1.277h.761c.619 0 1.064-.277 1.224-.763a1.41 1.41 0 0 0 0-.885c-.16-.484-.606-.761-1.224-.761Zm-.761.732h.546c.235 0 .467.028.576.228a.62.62 0 0 1 0 .489c-.109.199-.341.227-.576.227h-.546v-.944Z"/></svg>