<svg xmlns="http://www.w3.org/2000/svg" width="24" height="24"><path fill="#2C698D" d="M11.363 2C15.518 2 14 8 14 8s6-1.65 6 2.457V22H4V2h7.363Zm.826-2H2v24h20V9.614C22 7.223 15.352 0 12.189 0Z"/><path fill="#2C698D" d="M6.975 16.7v-3.636h1.503c.272 0 .507.053.704.16.2.105.353.252.46.442a1.3 1.3 0 0 1 .162.656c0 .252-.055.471-.165.66a1.108 1.108 0 0 1-.467.434 1.572 1.572 0 0 1-.721.155h-.927v-.693h.764a.714.714 0 0 0 .332-.069.475.475 0 0 0 .204-.193.599.599 0 0 0 .069-.293.583.583 0 0 0-.07-.292.465.465 0 0 0-.203-.191.737.737 0 0 0-.332-.068h-.434V16.7h-.879Zm6.357-3.636V16.7h-.746l-1.447-2.099h-.023V16.7h-.879v-3.636h.756l1.432 2.095h.03v-2.095h.877Zm2.939 1.188a.641.641 0 0 0-.089-.198.57.57 0 0 0-.339-.238.863.863 0 0 0-.241-.032.811.811 0 0 0-.459.128.821.821 0 0 0-.296.373c-.07.162-.105.36-.105.591 0 .234.034.433.101.597a.81.81 0 0 0 .293.377c.128.086.283.13.466.13.16 0 .297-.027.408-.079a.575.575 0 0 0 .256-.226.656.656 0 0 0 .087-.342l.163.02h-.884v-.642H17.2v.482c0 .325-.07.604-.208.836-.137.232-.327.41-.568.534a1.78 1.78 0 0 1-.83.187c-.346 0-.651-.075-.914-.226a1.563 1.563 0 0 1-.614-.643c-.147-.279-.22-.61-.22-.994a2.2 2.2 0 0 1 .133-.793 1.604 1.604 0 0 1 .925-.955c.21-.084.437-.125.68-.125.21 0 .406.03.588.09.182.06.343.146.482.256.141.11.256.241.343.393.088.151.142.317.163.498h-.889Z"/></svg>