<svg width="246" height="92" viewBox="0 0 246 92" fill="none" xmlns="http://www.w3.org/2000/svg">
<path d="M6.55862 0.114532C6.61951 0.171796 10.0598 2.23331 14.2004 4.69568L21.7508 9.16229H28.7532H35.786L44.0671 4.69568C48.6339 2.23331 52.4091 0.171796 52.47 0.114532C52.5309 0.0572672 42.2099 2.86102e-06 29.5143 2.86102e-06C16.8186 2.86102e-06 6.49773 0.0572672 6.55862 0.114532Z" fill="#fff"/>
<path d="M4.09253 1.51752C4.09253 1.71795 4.57966 4.92475 5.18856 8.67556C5.82791 12.3977 6.25414 15.5473 6.16281 15.6045C6.07147 15.6904 4.76233 15.8622 3.27051 15.9768L0.5 16.1772L7.4415 31.295C11.2167 39.5983 14.4135 46.4414 14.4743 46.5273C14.5657 46.5845 15.3573 42.8337 16.2402 38.1381C17.1231 33.471 19.2542 22.0468 19.3151 21.9609C19.5587 21.7605 18.8585 30.1497 20.6243 33.1274L22.2074 35.7902H29.0576H35.9382L37.8563 32.6407C39.6525 29.6629 38.8001 21.5314 39.1045 21.8177C39.1654 21.9036 41.327 33.0702 42.149 37.5368C43.0015 42.0034 43.7931 45.9546 43.9148 46.2696C44.0671 46.7563 45.772 43.3205 50.9781 31.8676C54.7533 23.6215 57.8587 16.7498 57.9196 16.6067C57.9805 16.4921 56.7932 16.3203 55.2709 16.2917C53.7791 16.2345 52.4699 16.1199 52.3786 16.034C52.2873 15.9481 52.744 12.6554 53.4137 8.73283C54.0531 4.78159 54.5402 1.54615 54.5098 1.51752C54.4489 1.46026 37.8563 11.1379 37.4909 11.4242C37.3691 11.5674 37.6736 13.8294 38.1912 16.4921C38.6783 19.1549 39.1045 21.56 39.1045 21.8177C39.1045 22.3045 38.4347 22.3331 29.2098 22.3331C21.4767 22.3331 19.3151 22.2472 19.3151 21.9609C19.3456 21.7891 19.8023 19.2981 20.3503 16.4635L21.3245 11.3097L19.9545 10.4794C11.8865 5.64055 4.09253 1.2312 4.09253 1.51752Z" fill="#fff"/>
<path d="M23.5775 38.2812C23.5471 38.4244 22.5424 45.0957 21.355 53.1699L19.1325 67.801L23.882 79.5115C26.5002 85.9251 28.7227 91.4511 28.875 91.7661C29.149 92.396 28.9054 92.9114 35.3902 76.8774L39.0741 67.7151L36.8821 52.9695L34.69 38.2239L29.1185 38.138C26.074 38.1094 23.5775 38.1667 23.5775 38.2812Z" fill="#fff"/>
<path d="M127.721 60.2341V68.1228C127.411 68.4965 126.933 68.9021 126.286 69.3396C125.639 69.768 124.805 70.1371 123.784 70.447C122.763 70.7569 121.528 70.9119 120.079 70.9119C118.794 70.9119 117.622 70.7022 116.565 70.283C115.508 69.8546 114.596 69.2302 113.831 68.4099C113.074 67.5896 112.491 66.587 112.081 65.4021C111.671 64.2081 111.465 62.8455 111.465 61.3142V60.0701C111.465 58.5388 111.661 57.1762 112.053 55.9822C112.454 54.7882 113.024 53.781 113.762 52.9607C114.501 52.1404 115.38 51.516 116.401 51.0876C117.422 50.6593 118.557 50.4451 119.805 50.4451C121.537 50.4451 122.959 50.7276 124.071 51.2927C125.183 51.8487 126.031 52.6235 126.614 53.6169C127.206 54.6013 127.571 55.7315 127.708 57.0076H123.729C123.629 56.3331 123.437 55.7452 123.155 55.2439C122.872 54.7426 122.467 54.3507 121.938 54.0681C121.419 53.7856 120.744 53.6443 119.915 53.6443C119.231 53.6443 118.62 53.7856 118.083 54.0681C117.554 54.3416 117.107 54.7472 116.743 55.2849C116.378 55.8227 116.1 56.488 115.909 57.281C115.717 58.074 115.622 58.9945 115.622 60.0427V61.3142C115.622 62.3533 115.722 63.2738 115.922 64.0759C116.123 64.8689 116.419 65.5388 116.811 66.0857C117.212 66.6235 117.704 67.0291 118.288 67.3025C118.871 67.5759 119.55 67.7126 120.325 67.7126C120.972 67.7126 121.51 67.658 121.938 67.5486C122.376 67.4392 122.727 67.307 122.991 67.1521C123.264 66.988 123.474 66.8331 123.62 66.6873V63.1599H119.874V60.2341H127.721ZM146.627 67.4392V70.6384H136.032V67.4392H146.627ZM137.371 50.7322V70.6384H133.27V50.7322H137.371ZM145.246 58.8396V61.9568H136.032V58.8396H145.246ZM146.614 50.7322V53.9451H136.032V50.7322H146.614ZM167.461 50.7322V70.6384H163.36L155.361 57.2947V70.6384H151.26V50.7322H155.361L163.373 64.0896V50.7322H167.461ZM177.631 50.7322V70.6384H173.543V50.7322H177.631ZM197.07 67.4392V70.6384H186.474V67.4392H197.07ZM187.814 50.7322V70.6384H183.713V50.7322H187.814ZM195.689 58.8396V61.9568H186.474V58.8396H195.689ZM197.056 50.7322V53.9451H186.474V50.7322H197.056Z" fill="#fff"/>
<path d="M195.681 11.242C195.681 11.4287 194.128 15.3191 192.212 19.8631C189.603 26.0255 188.81 28.2663 189.075 28.5776C189.504 29.0444 192.708 34.0552 192.708 34.2419C192.708 34.4909 195.416 38.6925 195.681 38.8482C195.813 38.9415 196.672 37.8833 197.53 36.5139C198.422 35.1445 199.314 34.0863 199.512 34.1486C199.71 34.2108 203.079 36.6073 206.977 39.4395C210.907 42.2717 214.376 44.6059 214.673 44.6059C215.135 44.6059 215.036 44.2636 214.078 42.6763C212.394 39.813 209.917 35.5491 206.151 29.0444C205.623 28.1107 204.202 25.652 203.013 23.5979C201.857 21.5437 200.503 19.2406 200.041 18.4626C199.611 17.6845 198.488 15.7237 197.596 14.1053C195.813 10.8997 195.681 10.7129 195.681 11.242Z" fill="#fff"/>
<path d="M133.815 13.6385C131.107 16.1594 128.597 19.2406 127.804 21.0458C126.648 23.6601 127.408 25.9632 130.281 28.5775C132.924 31.0051 134.245 32.748 134.245 33.8062C134.245 35.3313 132.957 37.3854 130.578 39.7818L128.365 41.9916L130.711 43.1743L133.056 44.3881L135.764 41.7115C137.482 39.9997 138.869 38.3191 139.497 37.0741C141.71 32.8725 141.346 31.472 137.052 27.2081C134.476 24.656 133.915 23.9091 133.915 23.131C133.915 21.4504 135.467 19.1784 138.935 15.786L140.917 13.8875L139.298 13.016C138.44 12.518 137.416 11.9578 137.019 11.7088C136.392 11.3354 136.161 11.491 133.815 13.6385Z" fill="#fff"/>
<path d="M70.1666 27.7995V41.8048H72.6439H75.1211V37.1364V32.4679H77.5323H79.9435L83.3456 37.1364L86.7807 41.8048H89.8855C91.5701 41.8048 92.9573 41.7426 92.9573 41.6803C92.9573 41.587 91.4049 39.5017 89.4892 36.9808C87.5734 34.4909 86.021 32.3123 86.021 32.1567C86.021 32.0011 86.5165 31.721 87.144 31.5342C91.4379 30.1959 94.1794 25.2474 92.9573 21.0458C91.9664 17.6222 90.0837 15.5992 86.8798 14.4477C85.1622 13.8563 84.3365 13.7941 77.5984 13.7941H70.1666V27.7995ZM85.3604 19.4896C86.9128 20.2054 87.6725 21.4815 87.6725 23.2866C87.6725 24.5315 87.5074 24.905 86.5825 25.7765C85.1292 27.1459 83.6098 27.4882 79.0187 27.4882H75.1211V23.3489C75.1211 21.0458 75.2202 19.085 75.3523 18.9605C75.4845 18.836 77.5323 18.7738 79.9105 18.836C83.1804 18.8983 84.4686 19.0539 85.3604 19.4896Z" fill="#fff"/>
<path d="M107.788 14.0742C104.65 14.6655 100.785 17.3732 99.0018 20.2366C94.9391 26.7413 97.02 35.9848 103.362 39.7818C106.004 41.3691 108.085 41.8671 111.388 41.7426C113.865 41.6492 114.592 41.4936 116.574 40.591C118.853 39.5329 122.684 36.3272 122.684 35.4869C122.684 35.1134 121.627 34.0863 119.844 32.6858C119.216 32.1878 119.15 32.2189 117.994 33.6817C116.277 35.8292 114.063 36.8252 110.893 36.8252C107.358 36.8252 104.749 35.3624 103.263 32.5613C102.404 30.9429 102.041 29.0444 102.602 29.0444C102.833 29.0133 107.755 29.0444 113.568 29.0444L124.072 29.0755L123.84 27.1148C123.708 26.0566 123.345 24.3137 123.015 23.2244C121.066 16.564 114.79 12.7982 107.788 14.0742ZM114.361 19.7075C115.748 20.4544 117.135 22.0417 117.565 23.3489L117.763 24.0647H110.331C106.235 24.0647 102.866 23.9402 102.866 23.8157C102.866 22.8198 106.037 19.8008 107.821 19.1161C109.208 18.5559 112.841 18.8983 114.361 19.7075Z" fill="#fff"/>
<path d="M144.583 22.7264C144.781 32.499 145.046 34.2731 146.895 37.2298C150.033 42.2406 157.234 43.2676 162.155 39.3772L163.146 38.5992L163.245 40.1864L163.344 41.8048H165.987H168.596V27.7995V13.7941H165.954H163.311V21.0146C163.311 24.9984 163.146 29.1066 162.981 30.1337C162.32 33.993 159.975 36.4517 156.738 36.7629C154.69 36.9496 153.402 36.4828 152.081 35.0823C150.33 33.1838 150.099 31.721 150.099 22.2907V13.7941H147.259H144.385L144.583 22.7264Z" fill="#fff"/>
<path d="M228.38 14.3854C222.897 16.0349 219.099 20.7968 218.57 26.7102C218.108 31.97 221.048 37.5721 225.606 40.1242C229.702 42.3962 235.284 42.3962 239.412 40.0931C240.8 39.3461 244.565 35.8292 244.565 35.3312C244.565 35.2067 243.739 34.4287 242.715 33.5884C241.064 32.2189 240.833 32.1256 240.535 32.5924C239.049 35.0823 235.911 36.8563 232.905 36.8874C228.579 36.9496 225.375 34.6465 224.252 30.6005L223.822 29.0444H234.689H245.556V27.5816C245.556 25.6831 244.697 22.4463 243.673 20.5478C240.833 15.1946 234.326 12.5803 228.38 14.3854ZM234.788 19.1161C236.274 19.4896 238.62 21.606 239.181 23.0688L239.544 24.0647H232.146C223.822 24.0647 223.987 24.1269 225.837 21.8238C227.852 19.3029 231.386 18.2136 234.788 19.1161Z" fill="#fff"/>
<path d="M182.832 22.8821C182.403 23.9403 177.547 34.1798 174.905 39.5952C173.617 42.2406 172.626 44.4504 172.692 44.5126C172.725 44.5749 181.577 44.5749 192.312 44.5437L211.865 44.4504L205.722 39.9998C202.32 37.541 199.545 35.5803 199.479 35.6425C199.446 35.7048 198.62 36.9497 197.662 38.4436C196.705 39.9686 195.879 41.1824 195.813 41.1824C195.78 41.1824 194.789 39.7508 193.666 37.9768C192.51 36.2339 191.486 34.74 191.354 34.6466C191.123 34.491 187.952 29.6047 186.663 27.4883C185.177 24.9985 183.36 22.1974 183.261 22.1974C183.162 22.1974 182.997 22.5086 182.832 22.8821Z" fill="#fff"/>
</svg>
