<svg width="42" height="52" viewBox="0 0 42 52" fill="none" xmlns="http://www.w3.org/2000/svg">
<rect width="42" height="51.3333" rx="4" fill="white"/>
<path d="M10.2941 4.25348C10.3225 4.2802 11.928 5.24224 13.8602 6.39135L17.3837 8.47577H20.6515H23.9335L27.798 6.39135C29.9292 5.24224 31.6909 4.2802 31.7194 4.25348C31.7478 4.22676 26.9314 4.20003 21.0067 4.20003C15.0821 4.20003 10.2657 4.22676 10.2941 4.25348Z" fill="#2C698D"/>
<path d="M9.14319 4.90824C9.14319 5.00177 9.37051 6.49828 9.65467 8.24866C9.95303 9.98567 10.1519 11.4555 10.1093 11.4822C10.0667 11.5223 9.45576 11.6024 8.75958 11.6559L7.46667 11.7494L10.706 18.8044C12.4678 22.6793 13.9596 25.8727 13.988 25.9128C14.0307 25.9395 14.4001 24.1891 14.8121 21.9978C15.2241 19.8199 16.2187 14.4886 16.2471 14.4485C16.3607 14.3549 16.034 18.2699 16.858 19.6595L17.5968 20.9022H20.7936H24.0045L24.8996 19.4324C25.7379 18.0428 25.3242 14.3149 25.4663 14.4485C25.4947 14.4886 26.5193 19.6328 26.9029 21.7172C27.3007 23.8016 27.6701 25.6456 27.7269 25.7925C27.798 26.0197 28.5936 24.4163 31.0231 19.0716C32.7849 15.2234 34.2341 12.0166 34.2625 11.9498C34.2909 11.8964 33.7368 11.8162 33.0264 11.8029C32.3303 11.7761 31.7193 11.7227 31.6767 11.6826C31.6341 11.6425 31.8472 10.1059 32.1598 8.27538C32.4581 6.43147 32.6854 4.9216 32.6712 4.90824C32.6428 4.88151 24.8996 9.39776 24.7291 9.53138C24.6723 9.59818 24.8143 10.6538 25.0559 11.8964C25.2832 13.139 25.4821 14.2614 25.4821 14.3817C25.4821 14.6088 25.1695 14.6222 20.8646 14.6222C17.2558 14.6222 16.2471 14.5821 16.2471 14.4485C16.2613 14.3683 16.4744 13.2058 16.7301 11.883L17.1848 9.47793L16.5454 9.09044C12.7804 6.83232 9.14319 4.77462 9.14319 4.90824Z" fill="#2C698D"/>
<path d="M18.2362 22.0646C18.222 22.1314 17.7531 25.2447 17.199 29.0127L16.1619 35.8405L18.3783 41.3054C19.6001 44.2984 20.6373 46.8772 20.7083 47.0242C20.8362 47.3182 20.7226 47.5587 23.7488 40.0761L25.4679 35.8004L24.445 28.9191L23.422 22.0379L20.822 21.9978C19.4012 21.9844 18.2362 22.0111 18.2362 22.0646Z" fill="#2C698D"/>
</svg>
