<svg xmlns="http://www.w3.org/2000/svg" width="80" height="80" fill="none"><path fill="#65C272" fill-rule="evenodd" d="M60.148 4.444H.888v71.111H42.37l17.778-17.777V4.444ZM42.37 57.778H55.29L42.37 70.77V57.778Zm-8.889 2.963H9.778v2.963H33.48V60.74Zm0-8.89H9.778v2.964H33.48v-2.963Zm17.778-5.925v-2.963H9.778v2.963h41.481Zm-20.915-14.72c-3.399-.785-6.56-1.473-5.028-4.365 4.66-8.8 1.235-13.508-3.686-13.508-5.02 0-8.359 4.89-3.686 13.508 1.576 2.91-1.704 3.597-5.028 4.365-3.034.702-3.147 2.207-3.138 4.844l.003.987h23.695l.002-.957c.012-2.655-.088-4.169-3.134-4.874Zm20.915 2.868H39.407v2.963H51.26v-2.963Zm0-5.926v-2.963H39.407v2.963H51.26Zm0-11.852H39.407v2.963H51.26v-2.963Z" clip-rule="evenodd"/><path fill="#DCEFDE" d="M64.555 13.9c-.588-.607-.554-1.558.049-2.145l6.168-5.982c.301-.292.688-.44 1.072-.44.39 0 .778.152 1.073.458l-8.362 8.11Zm-10.14 15.24a.628.628 0 0 0 .438 1.082.625.625 0 0 0 .438-.177l1.036-1.008-.876-.904-1.037 1.007Zm8.752-11.65-3.545 3.436c-1.906 1.848-2.878 3.637-3.775 6.135l1.565 1.617c2.524-.82 4.342-1.736 6.247-3.583l3.544-3.437-4.036-4.168ZM73.505 6.9l-9.13 8.856 4.598 4.748 9.131-8.853a3.293 3.293 0 0 0 1.007-2.376c0-2.887-3.498-4.419-5.606-2.375Z"/></svg>