<svg xmlns="http://www.w3.org/2000/svg" width="80" height="80" fill="none"><g fill="#65C272" clip-path="url(#a)"><path fill-rule="evenodd" d="M53.01 25.982c-2.02 1.131-4.116 3.738-4.28 8.012l-1.322-.051c.204-5.301 3.116-8.371 5.66-9.463l.314-8.14 14.58-13.371 11.913 12.869L65.347 29.34l-8.25-.319-.183.367c-.683 1.354-1.455 2.89-1.531 4.862L54.06 34.2c.084-2.17.895-3.861 1.584-5.234l-2.747-.106.112-2.878Zm12.598-14c-.57.527-.86 1.112-.886 1.79-.03.764.256 1.634.952 2.91.507.922.714 1.508.697 1.954-.018.477-.594 1.41-1.659 1.208-.453-.086-.908-.366-1.319-.808-.827-.895-1.042-2.084-.024-3.013L62.424 15c-.654.605-1.103 1.408-1.137 2.287-.029.748.243 1.499.81 2.233l-.86.795.888.959.895-.83c1.062.794 2.628 1.216 3.887.05 1.388-1.285.827-2.865-.133-4.524-.47-.812-.688-1.46-.668-1.978.03-.778.718-1.534 1.717-1.36.508.088.996.382 1.452.878.573.619.85 1.23.828 1.815-.021.552-.292.977-.664 1.363l.94 1.014c.628-.589 1.05-1.392 1.083-2.255.028-.719-.21-1.447-.707-2.16l.739-.687-.886-.957-.715.66c-1.146-1.027-2.86-1.641-4.285-.322ZM55.73 24.05c.586.09 1.087.326 1.448.704.506.532.713 1.082.729 1.652a2.248 2.248 0 1 0-2.177-2.356Z" clip-rule="evenodd"/><path d="M27.16 77.778H4.938v-29.63h22.223v29.63Zm0-44.445H0v9.877h27.16v-9.877ZM32.1 77.778H54.32v-29.63H32.099v29.63Zm0-44.445v9.877h27.16v-9.877H32.1ZM42.886 18.52c-7.276 0-11.533 8.585-13.256 12.345h13.197c8.625 0 8.716-12.345.06-12.345Zm-1.965 8.94h-5.044c1.824-2.768 3.553-4.854 5.782-4.854 2.894 0 3.032 4.854-.738 4.854Zm-24.489 3.405H29.63c-1.724-3.76-5.98-12.345-13.257-12.345-8.657 0-8.566 12.345.06 12.345Zm1.168-8.259c2.23 0 3.958 2.086 5.783 4.854h-5.045c-3.77 0-3.632-4.854-.738-4.854Z"/></g><defs><clipPath id="a"><path fill="#fff" d="M0 0h80v80H0z"/></clipPath></defs></svg>