<svg xmlns="http://www.w3.org/2000/svg" width="80" height="80" fill="none"><g clip-path="url(#a)"><path fill="#65C272" fill-rule="evenodd" d="M78.743 72.263c-1.643-1.726-4.726-2.386-6.7-3.86-2.546-1.903-1.366-6.63 2.234-10.803-4.44-3.8-9.537-9.357-13.094-14L44.43 59.277c3.813 3.296 10 10.016 13.093 13.996 4.43-3.456 9.474-4.216 11.22-1.373 1.264 2.05 1.79 5.01 3.37 6.68.9.943 2.104 1.42 3.317 1.42 2.157 0 4.57-1.697 4.57-4.573a4.598 4.598 0 0 0-1.257-3.164ZM35.003 40.1v39.01L0 60.437v-38.56L35.003 40.1Zm3.334 39.01V58.637s10.596 9.66 13.66 13.183l-13.66 7.29Zm38.14-2.573a1.516 1.516 0 0 1-2.15-.064 1.515 1.515 0 0 1 .053-2.15 1.51 1.51 0 0 1 2.15.057c.58.603.56 1.57-.053 2.157Zm-9.917-19.69c-1.477 1.41-4.927-3.574-6.503-2.07-1.564 1.49 4.04 5.566 2.333 7.19-1.317 1.256-3.783-2.164-5.12-.887-.623.593-.017 1.803.337 2.817.606 1.75-.707 2.923-2.63.9-1.91-2.02-2.944-3.12-5.1-5.217l11.046-10.527c1.557 1.927 3.114 3.534 5.177 5.717.84.877.863 1.693.46 2.077Zm6.777-34.754V52.21c-2.84-2.753-11.887-13.75-11.887-13.75l.013-10.253 11.874-6.114ZM17.04 10.707 52.403 29.12l-15.73 8.093-34.91-18.176 15.277-8.33Zm54.54 8.543-15.547 8-35.47-18.467L36.667 0 71.58 19.25Zm-71.577.747-.003.01V20l.003-.003Z" clip-rule="evenodd"/></g><defs><clipPath id="a"><path fill="#fff" d="M0 0h80v80H0z"/></clipPath></defs></svg>