<svg xmlns="http://www.w3.org/2000/svg" width="80" height="80" fill="none"><path fill="#65C272" fill-rule="evenodd" d="M23.333 20v-6.667A6.67 6.67 0 0 1 30 6.667h20a6.67 6.67 0 0 1 6.667 6.666V20h16.666A6.67 6.67 0 0 1 80 26.667v40a6.67 6.67 0 0 1-6.667 6.666H6.667A6.67 6.67 0 0 1 0 66.667v-40A6.669 6.669 0 0 1 6.667 20h16.666Zm25-6.667H31.667c-.92 0-1.667.747-1.667 1.667v5h20v-5c0-.92-.747-1.667-1.667-1.667ZM29.502 28.006c0 .084.203 1.437.458 3.02.267 1.571.445 2.9.407 2.924-.038.037-.585.11-1.209.157L28 34.192l2.901 6.38A459.737 459.737 0 0 0 33.841 47c.038.024.369-1.559.738-3.54l.375-2.013c.403-2.167.891-4.788.91-4.814 0 .008.005.017.015.025.012.07.01.282.01.58-.006 1.053-.017 3.19.522 4.107l.662 1.124h5.739l.801-1.33c.535-.894.508-2.891.495-3.924-.004-.263-.007-.463 0-.567a.103.103 0 0 0 .027-.076c.026.036.929 4.749 1.273 6.634.356 1.885.687 3.552.738 3.685.063.205.776-1.244 2.952-6.078 1.578-3.48 2.876-6.38 2.901-6.44.026-.048-.47-.12-1.107-.133-.623-.024-1.17-.072-1.209-.108-.038-.037.153-1.426.433-3.082.267-1.667.47-3.032.458-3.044-.026-.025-6.96 4.06-7.113 4.18-.051.06.076 1.015.292 2.139.204 1.124.382 2.139.382 2.247-.014-.013-.022.015-.026.076-.125.133-.8.142-4.11.142-2.997 0-3.992-.031-4.12-.132-.004-.022-.009-.03-.015-.025.013-.073.204-1.124.433-2.32l.407-2.175-.573-.35c-3.372-2.043-6.63-3.903-6.63-3.782Zm7.39 21.415c.476-3.447.879-6.296.891-6.357 0-.049 1.002-.073 2.223-.06l2.235.036L44 55.63l-1.478 3.912c-2.14 5.63-2.453 6.482-2.558 6.456-.023-.005-.036-.051-.056-.099-.033-.074-.321-.83-.75-1.954-.346-.907-.784-2.055-1.253-3.278l-1.905-5 .892-6.247Z" clip-rule="evenodd"/></svg>