<?xml version="1.0" standalone="no"?>
<!DOCTYPE svg PUBLIC "-//W3C//DTD SVG 20010904//EN"
 "http://www.w3.org/TR/2001/REC-SVG-20010904/DTD/svg10.dtd">
<svg version="1.0" xmlns="http://www.w3.org/2000/svg"
 width="700.000000pt" height="700.000000pt" viewBox="0 0 700.000000 700.000000"
 preserveAspectRatio="xMidYMid meet">
<metadata>
Created by potrace 1.14, written by Peter Selinger 2001-2017
</metadata>
<g transform="translate(0.000000,700.000000) scale(0.100000,-0.100000)"
fill="#000000" stroke="none">
<path d="M1925 6990 c-5 -7 32 -32 330 -220 116 -73 233 -147 260 -165 28 -18
147 -93 266 -167 l216 -135 502 0 c361 0 508 4 524 12 12 6 146 83 297 170
151 87 290 166 308 176 17 11 48 28 67 39 19 11 51 29 70 40 19 11 52 30 73
42 20 12 60 34 87 50 28 16 57 33 65 38 8 6 57 34 108 64 52 29 90 56 85 59
-13 7 -3253 5 -3258 -3z"/>
<path d="M1734 6853 c3 -16 8 -50 11 -78 3 -27 8 -61 10 -75 6 -31 11 -64 25
-165 6 -44 14 -93 16 -110 3 -16 7 -41 9 -55 5 -33 25 -168 31 -200 3 -22 10
-68 29 -212 3 -18 8 -58 11 -89 l6 -57 -44 -8 c-63 -11 -165 -21 -291 -29 -68
-4 -74 -7 -60 -38 17 -36 43 -96 90 -207 25 -58 53 -123 63 -145 10 -22 39
-89 65 -150 26 -60 53 -123 60 -140 26 -59 304 -702 345 -800 23 -55 51 -118
61 -140 10 -22 73 -166 140 -320 67 -154 131 -300 141 -325 20 -44 20 -44 30
-20 7 20 50 226 72 350 2 14 25 140 51 280 26 140 49 266 51 280 3 14 7 36 9
50 13 64 16 77 20 105 17 96 38 191 45 198 4 5 21 -9 37 -30 25 -32 113 -176
136 -223 4 -8 13 -24 20 -35 7 -11 32 -56 56 -100 24 -44 45 -82 48 -84 4 -6
951 -8 974 -3 9 2 21 13 27 25 6 12 25 45 42 72 16 28 33 57 37 65 51 109 203
340 223 340 10 0 29 -85 85 -400 41 -227 136 -745 149 -810 14 -72 19 -90 27
-90 20 0 233 468 501 1100 38 91 76 179 84 195 7 17 103 239 213 495 133 311
195 467 187 471 -11 7 -85 14 -256 24 -138 9 -133 6 -125 73 3 32 8 77 11 102
3 25 7 56 9 70 2 14 7 43 10 65 4 22 13 81 20 130 8 50 17 110 20 135 3 25 8
52 10 60 2 8 7 36 10 62 6 58 13 107 25 178 6 30 12 71 14 90 2 19 7 61 11 94
l8 58 -24 -13 c-28 -14 -367 -220 -419 -254 -19 -13 -143 -89 -275 -170 -132
-82 -300 -186 -373 -233 l-132 -84 5 -51 c7 -67 15 -122 34 -247 6 -36 13 -76
16 -90 3 -14 10 -54 15 -90 5 -36 12 -76 15 -90 21 -98 34 -225 25 -234 -20
-20 -137 -24 -735 -21 -583 2 -649 5 -666 22 -4 5 3 67 16 138 64 354 77 423
81 455 3 19 13 76 23 125 l17 90 -30 23 c-17 13 -96 64 -176 113 -80 50 -199
124 -265 166 -165 104 -595 362 -677 407 -81 44 -91 45 -84 9z"/>
<path d="M3148 4093 c-20 -5 -25 -19 -34 -98 -3 -33 -8 -62 -9 -65 -2 -3 -6
-30 -10 -60 -3 -30 -13 -100 -21 -155 -8 -55 -17 -118 -19 -140 -3 -22 -7 -51
-10 -65 -3 -14 -7 -45 -10 -70 -3 -25 -10 -72 -15 -105 -5 -33 -12 -81 -15
-107 -2 -26 -7 -62 -10 -80 -11 -81 -15 -107 -25 -178 -6 -41 -13 -88 -15
-105 -5 -37 -55 -381 -60 -415 -2 -14 -22 -156 -45 -317 l-42 -292 62 -163
c34 -90 66 -172 71 -183 5 -11 20 -49 32 -85 28 -77 154 -406 166 -435 5 -11
14 -36 21 -55 7 -19 18 -48 25 -65 11 -27 134 -347 247 -645 22 -58 46 -118
53 -135 7 -16 16 -41 20 -54 11 -36 27 -12 80 119 25 63 50 124 55 135 5 11
41 106 80 210 100 266 120 317 130 340 36 81 382 1012 383 1029 0 28 -13 148
-18 155 -2 4 -6 31 -9 61 -3 30 -8 64 -10 75 -2 11 -7 43 -10 70 -4 28 -9 64
-11 80 -5 35 -11 72 -31 220 -8 61 -24 173 -35 250 -11 77 -22 158 -25 180 -2
22 -7 51 -9 65 -3 14 -7 43 -10 65 -2 22 -7 51 -9 65 -3 14 -8 48 -11 75 -3
28 -8 61 -10 75 -2 14 -6 45 -9 70 -3 25 -8 54 -10 65 -2 11 -7 45 -10 75 -4
30 -8 66 -11 80 -3 21 -12 85 -30 210 -6 42 -18 134 -20 150 -1 8 -6 40 -10
70 -5 30 -8 61 -6 68 1 8 -13 12 -41 13 -118 4 -725 5 -740 2z"/>
</g>
</svg>
