<svg xmlns="http://www.w3.org/2000/svg" width="500" height="500" fill="none"><path fill="#54B862" d="M329.78 377.48c4.65-1.52 9.38-2.74 14.14-3.82 14.58-3.3 48.64-15.65 73.91-60.82 33-59 27-149-14-199s-105-67-166-51c-29.73 7.8-49.55 28-66.67 52.39-14.92 21.23-31.7 41.7-54.28 55.13-22.37 13.31-45.35 23.92-56.64 49.21-27.49 61.53-7.4 133.13 57.59 157.27 65.58 24.36 172.41 13.61 211.95.64Z"/><path fill="#fff" d="M329.78 377.48c4.65-1.52 9.38-2.74 14.14-3.82 14.58-3.3 48.64-15.65 73.91-60.82 33-59 27-149-14-199s-105-67-166-51c-29.73 7.8-49.55 28-66.67 52.39-14.92 21.23-31.7 41.7-54.28 55.13-22.37 13.31-45.35 23.92-56.64 49.21-27.49 61.53-7.4 133.13 57.59 157.27 65.58 24.36 172.41 13.61 211.95.64Z" opacity=".7"/><path fill="#54B862" d="M263.91 439.26c101.018 0 182.91-6.716 182.91-15 0-8.284-81.892-15-182.91-15S81 415.976 81 424.26c0 8.284 81.892 15 182.91 15Z"/><path fill="#fff" d="M263.91 439.26c101.018 0 182.91-6.716 182.91-15 0-8.284-81.892-15-182.91-15S81 415.976 81 424.26c0 8.284 81.892 15 182.91 15Z" opacity=".5"/><path fill="#263238" d="M437.49 292.62v-.05c-1.22-.12-13.78-1.2-25.25 4.76a30.682 30.682 0 0 0 6.49-22.56c-2.76-27.67-28.88-43.51-30.89-44.7V230h-.13v.07c-2 1.19-28.12 17-30.89 44.7a30.77 30.77 0 0 0 2.4 15.74c-14.71-8.79-31.86-7.31-33.44-7.15h-.06v.05c-.77 1.79-10.59 25.38 1.2 45.44 10.55 17.93 32.66 13.19 38.67 11.51 5.05 5.3 14.24 17.36 18.31 37.95h-5.73l2.76 39h12.89l2.76-39h-6.74a119.138 119.138 0 0 1 16.46-39.21c6 1.49 22.29 4 30.31-9.62 9.47-16.26 1.51-35.41.88-36.86Zm-50.17-.15-13.63-18.92a.38.38 0 0 1-.063-.279.378.378 0 0 1 .286-.3.367.367 0 0 1 .281.049c.042.026.078.06.106.1l13 18.11v-19.16l-13.63-18.92a.38.38 0 0 1 .223-.58.377.377 0 0 1 .282.049.374.374 0 0 1 .105.101l13 18.11V243c0-.098.039-.192.108-.262a.373.373 0 0 1 .262-.108.383.383 0 0 1 .37.37v27l14.2-18a.375.375 0 0 1 .59.46l-14.73 18.68v19.16l14.14-17.94a.37.37 0 0 1 .249-.141.379.379 0 0 1 .146.01.37.37 0 0 1 .271.315.379.379 0 0 1-.01.146.4.4 0 0 1-.066.13l-14.73 18.68v16.21l14.14-17.94a.382.382 0 0 1 .11-.094.383.383 0 0 1 .41.034.38.38 0 0 1 .07.52l-14.73 18.68v.35h-1.21L373.69 291a.38.38 0 0 1 .223-.58.377.377 0 0 1 .282.049.374.374 0 0 1 .105.101l13 18.11v-16.2l.02-.01Zm-21.64 46.18-1.35-1.84-19.16-5.34a.311.311 0 0 1-.076-.569.314.314 0 0 1 .236-.031l18.41 5.13-8-10.95-19.17-5.35a.295.295 0 0 1-.186-.145.297.297 0 0 1-.024-.235.311.311 0 0 1 .38-.21l18.41 5.13-9.47-12.95-19.16-5.29a.302.302 0 0 1-.225-.132.314.314 0 0 1-.044-.258.312.312 0 0 1 .429-.2l18.41 5.13-13.31-18.21a.319.319 0 0 1 .07-.44.31.31 0 0 1 .43.07l13.77 18.84-.13-18.67a.3.3 0 0 1 .3-.31.317.317 0 0 1 .226.087c.03.029.053.064.069.102a.295.295 0 0 1 .025.121l.14 19.5 9.46 12.94-.14-18.73a.31.31 0 0 1 .31-.31.3.3 0 0 1 .31.3l.14 19.5 8 10.94-.13-18.68a.31.31 0 0 1 .62 0l.14 19.5 1.14 1.57-.85-.01Zm2.17 0c2.8-4.25 10.87-18.22 6-31.65a61.066 61.066 0 0 0 12 6.11v60.63c-4.42-18.58-12.76-29.74-17.85-35.09h-.15Zm21 31.35v-56.61a60.627 60.627 0 0 0 11.43-5.57c-7.69 12.33.92 26.57 3.19 29.93A118.498 118.498 0 0 0 388.81 370h.04Zm47.95-59.09-15.55 4.33-7.68 10.51 14.94-4.16a.251.251 0 0 1 .31.17.262.262 0 0 1-.18.31l-15.55 4.34-6.49 8.88 14.93-4.17a.26.26 0 0 1 .31.18.246.246 0 0 1 .008.097.252.252 0 0 1-.178.213L406.08 336l-.82 1.11c-.15-.08-.29-.17-.43-.26l.47-.64.12-15.82a.25.25 0 1 1 .5 0l-.11 15.15 6.49-8.88.12-15.82a.25.25 0 1 1 .5 0l-.17 15.16 7.68-10.5.12-15.83a.25.25 0 0 1 .25-.25.258.258 0 0 1 .177.08.258.258 0 0 1 .073.18l-.11 15.15 11.18-15.29a.253.253 0 0 1 .262-.092.253.253 0 0 1 .18.304.239.239 0 0 1-.042.088l-10.8 14.78 14.94-4.17a.253.253 0 0 1 .284.372.254.254 0 0 1-.154.118l.01-.03Z"/><path stroke="#263238" stroke-linecap="round" stroke-linejoin="round" d="M124.64 227.13V236M129.07 231.56h-8.87M403.3 151.13V160M407.74 155.56h-8.87M221.3 269.13V278M225.74 273.56h-8.87M301.3 82.46v8.87M305.74 86.9h-8.87M301.3 320.56v8.87M305.74 325h-8.87M231.05 113.95v6.1M234.1 117H228M100.56 150.56v8.88M105 155h-8.87M145.3 326.46v8.87M149.74 330.9h-8.87M399.077 120.973a7.33 7.33 0 0 0-5.267-8.928 7.33 7.33 0 1 0 5.267 8.928ZM310 273a7.34 7.34 0 1 1-7.33-7.33A7.327 7.327 0 0 1 310 273ZM109.394 295.293a7.33 7.33 0 1 0-5.432-13.616 7.33 7.33 0 0 0 5.432 13.616ZM235 349a4.88 4.88 0 1 0 0-9.76 4.88 4.88 0 0 0 0 9.76ZM314.67 194.16c0 .33-.098.653-.281.928a1.677 1.677 0 0 1-2.57.253 1.677 1.677 0 0 1 .253-2.57c.275-.183.598-.281.928-.281.22-.001.438.041.641.124a1.673 1.673 0 0 1 .905.905c.083.204.125.421.124.641ZM202.33 170.16a1.674 1.674 0 0 1-1.665 1.541 1.67 1.67 0 1 1 1.665-1.541ZM256 275c0 .33-.098.653-.281.928a1.677 1.677 0 0 1-2.57.253 1.677 1.677 0 0 1 .253-2.57 1.676 1.676 0 0 1 2.109.208A1.668 1.668 0 0 1 256 275ZM337 353c0 .33-.098.653-.281.928a1.677 1.677 0 0 1-2.57.253 1.677 1.677 0 0 1 .253-2.57 1.676 1.676 0 0 1 2.109.208c.313.313.489.738.489 1.181Z"/><path fill="#263238" d="M249.65 74.48a8 8 0 0 1 6 2.92 8.101 8.101 0 0 1 1.88 5.15 8.01 8.01 0 0 1-3.1 6.16 6.34 6.34 0 0 0-3.63 5.85c-.1.68-.41 1-.92 1s-1-.39-1-.76v-.58c0-2.89 1.56-5.29 4.7-7.22a6.42 6.42 0 0 0 2-4.68c0-2.28-1.21-4.1-3.61-5.46a9.468 9.468 0 0 0-2.56-.48c-2.36 0-4.21 1.26-5.55 3.78l-.51 2.48c-.27.35-.52.52-.74.52-.7-.14-1-.45-1-.91 0-2.5 1.233-4.68 3.7-6.54a8.999 8.999 0 0 1 4.34-1.23Zm0 24.08h.25c.63 0 1.08.4 1.35 1.21v.39a1.471 1.471 0 0 1-1.52 1.4c-1-.21-1.48-.68-1.48-1.42a1.5 1.5 0 0 1 1.38-1.58h.02ZM83.67 240.52a7.99 7.99 0 0 1-6-2.93 8.15 8.15 0 0 1-1.87-5.15 8 8 0 0 1 3.1-6.16 6.33 6.33 0 0 0 3.63-5.85c.1-.68.41-1 .92-1s1 .39 1 .76v.58c0 2.89-1.57 5.29-4.7 7.22a6.432 6.432 0 0 0-2 4.68c0 2.287 1.203 4.107 3.61 5.46a9.464 9.464 0 0 0 2.56.48c2.36 0 4.21-1.26 5.55-3.78l.51-2.47c.27-.36.52-.53.74-.53.7.14 1 .45 1 .92 0 2.487-1.233 4.663-3.7 6.53a8.996 8.996 0 0 1-4.35 1.24Zm0-24.09h-.25c-.63 0-1.08-.4-1.35-1.21v-.39a1.47 1.47 0 0 1 1.52-1.4c1 .21 1.48.68 1.48 1.42a1.5 1.5 0 0 1-1.38 1.58h-.02ZM102.27 108.34a4.313 4.313 0 0 1 4.18 4.29 4.306 4.306 0 0 1-1.66 3.29 3 3 0 0 0-1.71 2.74c-.07.49-.32.73-.73.73s-.71-.31-.71-.62v-.29a4.42 4.42 0 0 1 2.44-3.81 2.899 2.899 0 0 0 .92-2.15 2.8 2.8 0 0 0-1.66-2.51 4.36 4.36 0 0 0-1.18-.23 2.807 2.807 0 0 0-2.55 1.74l-.26 1.26a.845.845 0 0 1-.63.4c-.49-.1-.74-.34-.74-.7a4.316 4.316 0 0 1 2-3.48 4.848 4.848 0 0 1 2.29-.66Zm0 12.06h.16c.42 0 .73.27.91.81v.25a1.001 1.001 0 0 1-1 .93c-.64-.14-1-.45-1-1a1.001 1.001 0 0 1 .89-.99h.04ZM221.24 171.68a4.245 4.245 0 0 1-3.19-1.56 4.161 4.161 0 0 1 .67-6 3 3 0 0 0 1.7-2.75c.08-.49.32-.73.74-.73s.7.31.7.63v.29a4.411 4.411 0 0 1-2.44 3.81 2.927 2.927 0 0 0-.92 2.15 2.83 2.83 0 0 0 1.66 2.51 4.31 4.31 0 0 0 1.18.22 2.805 2.805 0 0 0 2.55-1.74l.27-1.26a.81.81 0 0 1 .62-.4c.49.11.74.34.74.7a4.279 4.279 0 0 1-.568 1.988 4.28 4.28 0 0 1-1.432 1.492 4.851 4.851 0 0 1-2.28.65Zm0-12.07h-.15c-.43 0-.74-.27-.92-.81v-.25a.998.998 0 0 1 1-.93c.63.14.95.46.95 1a1.004 1.004 0 0 1-.85.99h-.03Z"/><path fill="#263238" stroke="#263238" stroke-linecap="round" stroke-linejoin="round" d="M195.18 126.18s5.33-4.16 1.62-9.72c-3.71-5.56-22.21-6.25-35.41-.23-13.2 6.02-12 13.89-10.87 16.43 1.13 2.54 2.77 5.79 2.77 5.79v7.87s-.69 4.63-8.56 10.41c-7.87 5.78-13.89 15.27-12.27 22.27 1.62 7 6.72 7.18 2.55 12.5s-18.52 8.79-19.44 19.9c-.92 11.11 2.31 27.55 26.15 30.09 23.84 2.54 33.56-5.78 45.36-20.37 11.8-14.59 14.58-25.69 13.66-38.42-.92-12.73-7.18-14.58-6.94-22.45.24-7.87 11.1-20.59 8.33-28.46-2.77-7.87-6.95-5.61-6.95-5.61Z"/><path fill="#fff" stroke="#263238" stroke-linecap="round" stroke-linejoin="round" d="M174.35 163.68s1.86 7.17.47 10.64c-1.39 3.47-5.33 4.86-13.66 8.1-8.33 3.24-9.72 12-6.48 19.21 3.24 7.21 14.35 25 12.73 28.93-1.62 3.93-18 16.67-18.28 34.95-.28 18.28 10 42.82 10 42.82h36.34s3.93-75 3.93-82.16c0-7.16-.46-8.1 2.31-12 0 0 15.51 17.82 19.68 16.43 4.17-1.39 26.38-46.29 26.38-46.29a55.57 55.57 0 0 0 7.87-5.78c3.24-3 5.09-4.63 4.17-7.87a5.001 5.001 0 0 0-3.71-3.7s6-10.19 5.1-11.34c-.9-1.15-2.78.46-4.63 4.16s-5.33 6.95-8.34 13-3.7 7.87-3.7 7.87S225.27 206.49 223 209a23.618 23.618 0 0 1-3 3s-5.79-7-9.72-12.73c-3.93-5.73-4.4-7.64-7.87-10.65-3.47-3.01-15.28-9.72-16.9-11.11-1.62-1.39-.23-9.72-.23-9.72l-10.93-4.11Z"/><path fill="#fff" stroke="#263238" stroke-linecap="round" stroke-linejoin="round" d="M262.77 169.69a2.398 2.398 0 0 1 .92 3.24c-.92 2.32-4.63 3.94-5.32 3-.69-.94 4.4-6.24 4.4-6.24Z"/><path fill="#fff" stroke="#263238" stroke-linecap="round" stroke-linejoin="round" d="M260.91 166.22s3.71.93 1.86 3.47c-1.85 2.54-5.33 6-6 5.33-.67-.67 1.16-3.24 1.39-4.17a34.823 34.823 0 0 1 2.75-4.63Z"/><path fill="#fff" stroke="#263238" stroke-linecap="round" stroke-linejoin="round" d="M257 168.31s-3 4.62-1.85 5.32c1.15.7 3.93-2.32 5.32-5.09 1.39-2.77-1.64-3.47-3.47-.23Z"/><path fill="#fff" d="M248.42 178.72s3.24-1.85 4.16-3.93a7.002 7.002 0 0 0 0-4.63s4.17-.93 5.09-.93c.92 0 2.09-1.39 1.86-3-.23-1.61-6.72.23-9 .7-2.28.47-2.32 5.78-2.32 5.78l-2.34 6.29"/><path stroke="#263238" stroke-linecap="round" stroke-linejoin="round" d="M248.42 178.72s3.24-1.85 4.16-3.93a7.002 7.002 0 0 0 0-4.63s4.17-.93 5.09-.93c.92 0 2.09-1.39 1.86-3-.23-1.61-6.72.23-9 .7-2.28.47-2.32 5.78-2.32 5.78l-2.34 6.29"/><path fill="#fff" stroke="#263238" stroke-linecap="round" stroke-linejoin="round" d="M198 305s.86 13.23-2 22c-1.73 5.29-7.81 46.71-8.5 55.2-.79 9.68-1.27 23.8.27 27.95 1.18 3.18 10.7 16.26 14.63 18.1 1.19.56.39 2.54-.92 2.7a30.078 30.078 0 0 1-11.1-1.38c-3.63-1.28-5.3-6.48-8.92-8.19-3.62-1.71-9-1.28-7-5.8s3.44-8.31 3.44-8.31-.14-7-5-46.14c-1.18-9.42 5.67-30.13 5.67-35.13 0-5-3-20.5-3-20.5L198 305Z"/><path fill="#54B862" stroke="#263238" stroke-linecap="round" stroke-linejoin="round" d="m178.88 426.09 1.37-.61 1.63-4.15-2.64-.63-.36 5.39Z"/><path fill="#54B862" stroke="#263238" stroke-linecap="round" stroke-linejoin="round" d="m174.26 418.21 2.14 7.18 2.48.7.78-5.69-5.4-2.19Z"/><path fill="#54B862" stroke="#263238" stroke-linecap="round" stroke-linejoin="round" d="M202.4 428.25c-.76-.75-3.15-2.24-4.09-3.4a15.329 15.329 0 0 1-6.24.34c-4.16-1.08-5.89-6.1-9.35-9a69.737 69.737 0 0 1-6-5.71l-.12-.05c-.58 1.42-1.34 3.22-2.21 5.19-2 4.52 3.41 4.08 7 5.8 3.59 1.72 5.29 6.91 8.92 8.19a30.078 30.078 0 0 0 11.1 1.38 1.586 1.586 0 0 0 1.391-1.046 1.594 1.594 0 0 0-.401-1.694Z"/><path fill="#fff" stroke="#263238" stroke-linecap="round" stroke-linejoin="round" d="M182 294.75s-.25 25.64-1.2 33c-.89 6.88-3.94 24.47-19.75 51.18-5.3 9-13.69 27.24-13.69 31.24.21 1.63 2.27 9.55 4.81 12.83 3.9 5.05 6.66 7.61 4.76 8.56-1.9.95-8.64-.76-12.92-3.13-3.73-2.08-6.21-7.43-9.06-11.23-2.85-3.8-1-6.19 2-8.69 3-2.5 4.38-9.72 5.38-12.22s8.5-42.81 11.25-51.09a99.612 99.612 0 0 1 8.18-17.2l-5-32.5 25.24-.75Z"/><path fill="#54B862" stroke="#263238" stroke-linecap="round" stroke-linejoin="round" d="m136 426.1 1.89-.37 1.5-4.15-2.51-2.01-.88 6.53Z"/><path fill="#54B862" stroke="#263238" stroke-linecap="round" stroke-linejoin="round" d="M133.74 413.41v11.94l2.26.75.88-6.53-3.14-6.16Z"/><path fill="#54B862" stroke="#263238" stroke-linecap="round" stroke-linejoin="round" d="M151.13 424.54c-2.18.67-5.71.16-9.75-3.7-3.56-3.41-5.2-10-5.45-11.46-2.49 2.11-3.52 4.47-1 7.83 2.85 3.8 5.33 9.15 9.06 11.23 4.28 2.37 11 4.08 12.92 3.13 1.92-.95-.71-3.4-4.15-7.77a7.01 7.01 0 0 1-1.63.74ZM210.23 199.32c-3.94-5.79-4.4-7.64-7.87-10.65a89.597 89.597 0 0 0-8.79-5.94 14.08 14.08 0 0 1-12.5 9.18c-9 .82-12.23-7.29-13.33-12.1-1.8.77-4 1.6-6.58 2.61-8.33 3.24-9.72 12-6.48 19.21 3.24 7.21 14.35 25 12.73 28.93-1.62 3.93-18 16.67-18.28 34.95-.28 18.28 8.75 51.82 8.75 51.82L200 317s3.51-19.17 3-33.17c-.49-13.76-4.46-36.15-4.51-36.8.5-10.48.85-18.71.85-20.86 0-7.18-.46-8.1 2.31-12 0 0 2.58 3 5.92 6.38l8.62-13.12c-1.86-2.43-4.11-5.43-5.96-8.11Z"/><path stroke="#263238" stroke-linecap="round" stroke-linejoin="round" d="M201.66 214.13s4.4-8.33 1.86-14.58M182.64 283.53c.18 2 .31 4 .36 6M174.5 250a134.49 134.49 0 0 1 7.68 29.48M192.5 279a83.854 83.854 0 0 1-8 20.5"/><path fill="#54B862" d="M160.24 182.65s-8.34 1.39-11.58 5.1-23.83 47.25-23.14 49.76c.69 2.51 10.88 1.39 15.28-3 4.4-4.39 20.59-38.65 20.59-38.65"/><path stroke="#263238" stroke-linecap="round" stroke-linejoin="round" d="M160.24 182.65s-8.34 1.39-11.58 5.1-23.83 47.25-23.14 49.76c.69 2.51 10.88 1.39 15.28-3 4.4-4.39 20.59-38.65 20.59-38.65"/><path fill="#fff" stroke="#263238" stroke-linecap="round" stroke-linejoin="round" d="m151.55 215.87-14.79-5.24c-5.89 12.44-11.61 25.52-11.24 26.88.69 2.54 10.88 1.39 15.28-3 2.01-2.02 6.48-10.28 10.75-18.64Z"/><path fill="#fff" d="M132.23 225.24s35.88-6.25 37.5-6.71c1.62-.46 9.48-9.26 10.18-9.49.7-.23 7.17-1.16 10-.46s4.86 1.39 3.47 1.85a43.932 43.932 0 0 1-7.17.92c-.778.028-1.553.108-2.32.24 0 0 7.18 1.85 8.34 2.77 1.16.92 1.15 1.85-.24 1.85s-8.79-1.38-8.79-1.38 9.26 4.16 8.79 4.86c-.47.7-2.08.46-4.16 0a31.065 31.065 0 0 1-5.33-2.09s5.56 5.79 3.94 6c-1.62.21-1.85-.46-3-1.85a15.475 15.475 0 0 0-3.93-2.78s-2.32 4.4-5.79 5.32a17.23 17.23 0 0 1-6.94.24s-20.14 10.64-26.39 12.73-12.32 3.74-14.39 1.4c-2.07-2.34 3-10.18 3-10.18"/><path stroke="#263238" stroke-linecap="round" stroke-linejoin="round" d="M132.23 225.24s35.88-6.25 37.5-6.71c1.62-.46 9.48-9.26 10.18-9.49.7-.23 7.17-1.16 10-.46s4.86 1.39 3.47 1.85a43.932 43.932 0 0 1-7.17.92c-.778.028-1.553.108-2.32.24 0 0 7.18 1.85 8.34 2.77 1.16.92 1.15 1.85-.24 1.85s-8.79-1.38-8.79-1.38 9.26 4.16 8.79 4.86c-.47.7-2.08.46-4.16 0a31.065 31.065 0 0 1-5.33-2.09s5.56 5.79 3.94 6c-1.62.21-1.85-.46-3-1.85a15.475 15.475 0 0 0-3.93-2.78s-2.32 4.4-5.79 5.32a17.23 17.23 0 0 1-6.94.24s-20.14 10.64-26.39 12.73-12.32 3.74-14.39 1.4c-2.07-2.34 3-10.18 3-10.18"/><path fill="#fff" stroke="#263238" stroke-linecap="round" stroke-linejoin="round" d="M166.49 147.48s-1.86-3.24-3.24-1.16c-1.38 2.08-1.16 6 .92 8.56 2.08 2.56 6 1.39 6 1.39s2.31 8.8 6.48 11.8 12.5 3.24 16.66-1.38 4.4-14.59 3.71-23.38c-.69-8.79-4.86-13.19-4.86-13.19s-9.73 7.63-14.59 9.49a51.232 51.232 0 0 1-9.72 2.54l-1.36 5.33Z"/><path stroke="#263238" stroke-linecap="round" stroke-linejoin="round" d="M190.17 158.82a6.201 6.201 0 0 1-6.24-1.14"/><path fill="#54B862" stroke="#263238" stroke-linecap="round" stroke-linejoin="round" d="M172.04 138.45h-18.75v7.87h18.75v-7.87Z"/><path fill="#54B862" stroke="#263238" stroke-linecap="round" stroke-linejoin="round" d="M201.67 138.68h-31.49a3 3 0 0 0-3 3v9.51a3 3 0 0 0 3 3h31.49a3 3 0 0 0 3-3v-9.51a3 3 0 0 0-3-3Z"/><path fill="#54B862" d="M205.6 138.68h-29.4a3 3 0 0 0-3 3v9.51a3 3 0 0 0 3 3h29.4a3 3 0 0 0 3-3v-9.51a3 3 0 0 0-3-3Z"/><mask id="a" width="36" height="17" x="173" y="138" maskUnits="userSpaceOnUse" style="mask-type:luminance"><path fill="#fff" d="M205.6 138.68h-29.4a3 3 0 0 0-3 3v9.51a3 3 0 0 0 3 3h29.4a3 3 0 0 0 3-3v-9.51a3 3 0 0 0-3-3Z"/></mask><g mask="url(#a)"><path fill="#000" d="M205.6 138.68h-29.4a3 3 0 0 0-3 3v9.51a3 3 0 0 0 3 3h29.4a3 3 0 0 0 3-3v-9.51a3 3 0 0 0-3-3Z" opacity=".3"/></g><path stroke="#263238" stroke-linecap="round" stroke-linejoin="round" d="M205.6 138.68h-29.4a3 3 0 0 0-3 3v9.51a3 3 0 0 0 3 3h29.4a3 3 0 0 0 3-3v-9.51a3 3 0 0 0-3-3Z"/><path fill="#54B862" d="M289.55 131H252.4a7.18 7.18 0 0 0-7.18 7.18v35.03a7.18 7.18 0 0 0 7.18 7.18h37.15a7.18 7.18 0 0 0 7.18-7.18v-35.03a7.18 7.18 0 0 0-7.18-7.18Z" opacity=".6"/><path stroke="#263238" stroke-linecap="round" stroke-linejoin="round" d="M237.09 158.65v-6.21M267.17 189.06h-22.9a7.183 7.183 0 0 1-7.18-7.18v-20.46M279.52 189.06h-7.45M304.85 145v36.85a7.182 7.182 0 0 1-7.18 7.18h-13.25M248.24 122.33h49.43a7.177 7.177 0 0 1 7.18 7.18v8.92"/><path stroke="#263238" stroke-linecap="round" stroke-linejoin="round" d="M292.9 127.79h-43.85a7.18 7.18 0 0 0-7.18 7.18v41.46a7.18 7.18 0 0 0 7.18 7.18h43.85a7.18 7.18 0 0 0 7.18-7.18v-41.46a7.18 7.18 0 0 0-7.18-7.18Z"/><path fill="#fff" stroke="#263238" stroke-linecap="round" stroke-linejoin="round" d="M367.56 127.79h-43.85a7.18 7.18 0 0 0-7.18 7.18v41.46a7.18 7.18 0 0 0 7.18 7.18h43.85a7.18 7.18 0 0 0 7.18-7.18v-41.46a7.18 7.18 0 0 0-7.18-7.18ZM292.9 200.45h-43.85a7.18 7.18 0 0 0-7.18 7.18v41.46a7.18 7.18 0 0 0 7.18 7.18h43.85a7.18 7.18 0 0 0 7.18-7.18v-41.46a7.18 7.18 0 0 0-7.18-7.18ZM367.56 200.45h-43.85a7.18 7.18 0 0 0-7.18 7.18v41.46a7.18 7.18 0 0 0 7.18 7.18h43.85a7.18 7.18 0 0 0 7.18-7.18v-41.46a7.18 7.18 0 0 0-7.18-7.18Z" opacity=".5"/><path fill="#54B862" d="M364.21 131h-37.15a7.18 7.18 0 0 0-7.18 7.18v35.03a7.18 7.18 0 0 0 7.18 7.18h37.15a7.18 7.18 0 0 0 7.18-7.18v-35.03a7.18 7.18 0 0 0-7.18-7.18ZM289.55 203.67H252.4a7.18 7.18 0 0 0-7.18 7.18v35.03a7.18 7.18 0 0 0 7.18 7.18h37.15a7.18 7.18 0 0 0 7.18-7.18v-35.03a7.18 7.18 0 0 0-7.18-7.18ZM364.21 203.67h-37.15a7.18 7.18 0 0 0-7.18 7.18v35.03a7.18 7.18 0 0 0 7.18 7.18h37.15a7.18 7.18 0 0 0 7.18-7.18v-35.03a7.18 7.18 0 0 0-7.18-7.18Z"/><path fill="#263238" d="M271 146.51c.38.08.56.24.56.49v15.88c-.067.4-.257.6-.57.6-.41-.08-.62-.24-.62-.48v-15.09a9.86 9.86 0 0 1-1.93.54c-.22 0-.38-.19-.48-.57v-.2c0-.29.55-.55 1.63-.77l1.41-.4ZM344.63 146.52a5 5 0 0 1 5 5 6.12 6.12 0 0 1-2.28 4.41l-5.58 6.39h7.56c.29 0 .46.2.53.59.07.39-.25.6-.58.6h-8.94c-.39-.08-.59-.27-.59-.58v-.05c0-.2.26-.55.79-1l7.19-8.19a3.697 3.697 0 0 0 .292-3.844 3.688 3.688 0 0 0-3.292-2.006h-.14a3.655 3.655 0 0 0-3.53 2.6 6.277 6.277 0 0 0-.2 1.21c-.14.29-.31.43-.52.43h-.07c-.39-.07-.59-.25-.59-.52a4.995 4.995 0 0 1 2.48-4.27 5.302 5.302 0 0 1 2.47-.77ZM270.28 219.24a4.135 4.135 0 0 1 3.29 1.72 3.79 3.79 0 0 1 .77 2.3v.18a4.55 4.55 0 0 1-1.85 3.39 5.36 5.36 0 0 1 2.58 4.36 4.933 4.933 0 0 1-4.9 4.95H270a4.995 4.995 0 0 1-4.51-3 6.054 6.054 0 0 1-.39-2c0-.26.23-.43.68-.52.27 0 .44.21.5.63a3.78 3.78 0 0 0 2.27 3.39c.508.195 1.046.3 1.59.31a3.665 3.665 0 0 0 3.41-2.35c.154-.396.242-.815.26-1.24V231a3.655 3.655 0 0 0-2.37-3.32l-1.48-.32a.641.641 0 0 1-.3-.5v-.05c0-.38.31-.56.94-.56a2.924 2.924 0 0 0 2.14-1.35 3.708 3.708 0 0 0 .42-1.59 2.802 2.802 0 0 0-1.63-2.57 2.866 2.866 0 0 0-3.476.654 2.865 2.865 0 0 0-.604 1.106 6.57 6.57 0 0 1-.16 1.1c-.22.25-.38.37-.48.37-.43-.1-.65-.26-.65-.48v-.23a4.006 4.006 0 0 1 2.24-3.56 4.56 4.56 0 0 1 1.88-.46ZM347.37 219.32h.28c.187 0 .347.17.48.51l-.05.41v9.52h2.16c.26 0 .45.22.55.65 0 .25-.17.44-.52.57l-.63-.05h-1.56v4.78c0 .23-.2.39-.6.47-.4-.07-.6-.26-.6-.56v-4.69h-6.52l-1 .05c-.29-.12-.44-.29-.44-.52v-.19c0-.11.12-.27.38-.46 4.927-6.42 7.523-9.837 7.79-10.25a.509.509 0 0 1 .28-.24Zm-6.61 10.44h6.13v-8l-6.13 8Z"/></svg>