<svg xmlns="http://www.w3.org/2000/svg" width="500" height="500" fill="none"><path fill="#223425" d="M409 259.78c-88.41-51-231.28-51-319.12 0S2.55 393.58 91 444.62c88.45 51.04 231.28 51.05 319.12 0s87.33-133.8-1.12-184.84Z"/><path fill="#E0E0E0" d="M115.6 430.28c6.86-4 17.94-4 24.76 0s6.78 10.38-.08 14.34c-6.86 3.96-17.94 4-24.76 0s-6.78-10.38.08-14.34ZM158.57 360 238 314.14l63.44 36.53a41.658 41.658 0 0 1 11.32-9.21c22.62-13.06 59.19-13.06 81.67 0 22.48 13.06 22.36 34.25-.26 47.31a68.415 68.415 0 0 1-15.48 6.39l6.37 3.67a2.888 2.888 0 0 1 1.054 3.943 2.888 2.888 0 0 1-1.054 1.057l-73.72 42.58a11.548 11.548 0 0 1-11.53 0L158.57 365a2.875 2.875 0 0 1-1.061-3.945c.254-.439.62-.803 1.061-1.055ZM297.12 233.88 51.57 376.87l-11.45-6.61 245.55-142.99 11.45 6.61Z"/><path fill="#fff" d="m111.33 407.5 16.61.48 16.61-.48c.71 11.21-1.48 22.64-4.5 28.22a7.558 7.558 0 0 1-3.29 3.35c-4.9 2.82-12.81 2.82-17.68 0a7.35 7.35 0 0 1-3.29-3.44c-3-5.63-5.17-16.97-4.46-28.13Z"/><path fill="#EBEBEB" d="M116.24 400.7c-6.51 3.75-6.54 9.84-.08 13.6s17 3.76 23.48 0 6.54-9.85.08-13.6-16.98-3.76-23.48 0Z"/><path fill="#E0E0E0" d="M118.81 402.19c-5.08 2.93-5.1 7.68-.06 10.61 5.04 2.93 13.24 2.93 18.32 0s5.1-7.68.06-10.61c-5.04-2.93-13.25-2.93-18.32 0Z"/><path fill="#000" d="M118.81 402.19c-5.08 2.93-5.1 7.68-.06 10.61 5.04 2.93 13.24 2.93 18.32 0s5.1-7.68.06-10.61c-5.04-2.93-13.25-2.93-18.32 0Z" opacity=".15"/><path fill="#54B862" d="M100.64 336.64c37.42 12.25 37.76 37.29 29.32 55.11-2.13 3.61-8.56 5.55-14.17-16.62l9.83 1.26-11.45-5.81-3-8.89 9.55.71-12.12-5.1a180.21 180.21 0 0 0-7.96-20.66Z"/><path fill="#000" d="M100.64 336.64c37.42 12.25 37.76 37.29 29.32 55.11-2.13 3.61-8.56 5.55-14.17-16.62l9.83 1.26-11.45-5.81-3-8.89 9.55.71-12.12-5.1a180.21 180.21 0 0 0-7.96-20.66Z" opacity=".2"/><path fill="#fff" d="M111.22 342.9c19.74 15 21.52 32.15 15.94 50.07 1.97-15.78 4.11-31.74-15.94-50.07Z"/><path fill="#54B862" d="M164 362.07c-36.89 5.19-41.36 28.45-36.47 46.46 1.38 3.71 7.06 6.59 16-13.13l-9.36-.46 11.63-3.51 4.25-7.78-9-.93 12.11-2.72A168.887 168.887 0 0 1 164 362.07Z"/><path fill="#fff" d="M164 362.07c-36.89 5.19-41.36 28.45-36.47 46.46 1.38 3.71 7.06 6.59 16-13.13l-9.36-.46 11.63-3.51 4.25-7.78-9-.93 12.11-2.72A168.887 168.887 0 0 1 164 362.07Z" opacity=".2"/><path fill="#fff" d="M153.12 366.14c-20.86 10.67-25.38 26.37-23.16 44 .78-15.04 1.45-30.26 23.16-44Z"/><path fill="#54B862" d="M89.84 370.78c33.83.56 40.47 21 38.07 37.8-.83 3.5-5.62 6.73-15.85-10.05l8.38-1.46-10.87-1.86-4.7-6.54 8-1.85-11.24-1.1a154.437 154.437 0 0 0-11.79-14.94Z"/><path fill="#fff" d="M100.12 373.23c20 7.29 25.82 20.93 25.8 37.06-2.39-13.46-4.69-27.1-25.8-37.06Z"/><path fill="#F0F0F0" d="m407.17 79.05-.07 25.02-3.03 1.76.08-28.52 3.02 1.74Z"/><path fill="#F5F5F5" d="m439.84 122.97-.01 3.51-35.76-20.65 3.03-1.76 32.74 18.9Z"/><path fill="#E0E0E0" d="m400.39 107.93 43.09 24.88.1-36.95L400.5 71l-.11 36.93Zm3.68-2.1.08-28.52 3 1.74L439.91 98l-.07 25v3.51l-35.77-20.68Z"/><path fill="#F5F5F5" d="m400.5 70.99 3.03-1.77 43.09 24.88-3.04 1.76-43.08-24.87Z"/><path fill="#F0F0F0" d="m446.62 94.1-.11 36.94-3.03 1.77.1-36.95 3.04-1.76ZM407.19 135.2l-.07 25.02-3.03 1.77.08-28.53 3.02 1.74Z"/><path fill="#F5F5F5" d="m439.86 179.12-.01 3.51-35.76-20.64 3.03-1.77 32.74 18.9Z"/><path fill="#E0E0E0" d="M400.41 164.08 443.5 189l.11-36.94-43.09-24.88-.11 36.9Zm3.68-2.09.08-28.53 3 1.74 32.74 18.9-.07 25v3.51l-35.75-20.62Z"/><path fill="#F5F5F5" d="m400.52 127.14 3.03-1.76 43.09 24.87-3.03 1.77-43.09-24.88Z"/><path fill="#F0F0F0" d="m446.64 150.25-.11 36.94-3.03 1.77.11-36.94 3.03-1.77Z"/><path fill="#EBEBEB" d="M343.07 104.71v-6.08l.27.16.51.3c4.49 2.71 9 7 13.19 11.57.69.76 1.38 1.54 2.06 2.31 3.53 4 7 8.34 10.55 12.35v9.82l-4.28-2.47a94.113 94.113 0 0 0-22.3-27.96ZM343 119.77v-8.12a51.409 51.409 0 0 1 9.16 13.35l-9.16-5.23Z"/><path fill="#FAFAFA" d="M352.16 125a51.417 51.417 0 0 0-9.11-13.39v-6.94a94.102 94.102 0 0 1 22.29 28L352.16 125ZM361.11 96.34l-.62-.22a40.36 40.36 0 0 1-3.47-1.43l-.43-.21-1.18-.57a42.5 42.5 0 0 1-2-1.09c.68.38 1.35.74 2 1.09l-.24-.12c-.6-.31-1.2-.63-1.79-1l-.38-.19-.31-.18a65.448 65.448 0 0 1-9.16-6.57l-.4-.34V75.24c6.52 3.34 12.93 4.37 18.1 2.76a15.87 15.87 0 0 0 8.57-6.64L369.75 98a31.601 31.601 0 0 1-8.64-1.66ZM357.06 110.66c-4.2-4.6-8.7-8.86-13.19-11.57l-.51-.3-.27-.16v-5.88a127.275 127.275 0 0 1 24 18.27c.87.83 1.73 1.67 2.6 2.48v11.82c-3.56-4-7-8.3-10.55-12.35-.7-.77-1.39-1.55-2.08-2.31Z"/><path fill="#EBEBEB" d="M343.1 92.75v-7.24l.4.34a65.44 65.44 0 0 0 9.16 6.57l.31.18.39.22c.59.34 1.19.66 1.79 1l.24.12 1.18.57.43.21c1.16.54 2.32 1 3.47 1.43l.62.22a31.604 31.604 0 0 0 8.64 1.7l-.05 15.46c-.87-.81-1.73-1.65-2.6-2.48a127.27 127.27 0 0 0-23.98-18.3Z"/><path fill="#FAFAFA" d="M343.18 66.94v-7.59c4.11-1 7.31-4 9-8.45l9.1 5.25a18.8 18.8 0 0 1-18.1 10.79Z"/><path fill="#EBEBEB" d="M361.25 78c-5.17 1.61-11.58.58-18.1-2.76v-8.3a18.802 18.802 0 0 0 18.11-10.79l8.56 5v10.26a15.868 15.868 0 0 1-8.57 6.59Z"/><path fill="#fff" d="m341.52 120.63 29.62 17.1.22-77.48-29.62-17.1-.22 77.48Zm23.84 12-13.2-7.63-9.16-5.23V45.73l8.95 5.17 9.1 5.25 8.56 5v10.26l.14 26.59-.05 15.46v21.64l-4.34-2.47Z"/><path fill="#EBEBEB" d="M343.2 59.35V45.73l8.95 5.17c-1.64 4.49-4.84 7.48-8.95 8.45Z"/><path fill="#CACACA" d="m341.52 120.63 29.62 17.1-.01 2.05-31.39-18.12 1.78-1.03Z"/><path fill="#F0F0F0" d="m341.74 43.15-.22 77.48-1.78 1.03.23-79.53 1.77 1.02Z"/><path fill="#E0E0E0" d="M335 124.39 375.9 148l.25-90.51-40.94-23.61-.21 90.51Zm4.79-2.73.21-79.53 1.77 1 29.62 17.1-.22 77.48v2.06l-31.38-18.11Z"/><path fill="#F5F5F5" d="m335.21 33.88 3.37-1.82 40.95 23.64-3.38 1.82-40.94-23.64Z"/><path fill="#F0F0F0" d="m379.53 55.7-.26 90.52-3.37 1.81.25-90.51 3.38-1.82Z"/><path fill="#E0E0E0" d="m417.57 88.55-8.93 7.03-.01 6.87 29.69 17.14.02-6.87-5.66-11.23-5.08 3.94 1.79 5.58-2.6-4.95-9.22-17.51Z"/><path fill="#E0E0E0" d="M427.33 92c-1.4-.8-2.54-.16-2.54 1.45a5.54 5.54 0 0 0 2.52 4.37c1.4.81 2.53.16 2.54-1.45a5.609 5.609 0 0 0-2.52-4.37ZM417.59 144.7l-8.92 7.03-.02 6.87 29.69 17.14.02-6.86-5.66-11.24-5.08 3.94 1.8 5.58-2.61-4.95-9.22-17.51Z"/><path fill="#E0E0E0" d="M427.35 148.16c-1.4-.8-2.54-.15-2.54 1.45a5.534 5.534 0 0 0 2.52 4.37c1.4.81 2.54.16 2.54-1.45a5.573 5.573 0 0 0-2.52-4.37Z"/><path fill="#54B862" d="m47.35 185.61-.04-13.26-6.91-3.94.03 12.96v.29l6.92 3.95Z"/><path fill="#54B862" d="m47.79 339.19-.44-153.58-6.92-4L40.87 335a2.87 2.87 0 0 0 1.13 2.54l6.82 4.17a2.909 2.909 0 0 1-1.03-2.52Z"/><path fill="#fff" d="m47.79 339.19-.44-153.58-6.92-4L40.87 335a2.87 2.87 0 0 0 1.13 2.54l6.82 4.17a2.909 2.909 0 0 1-1.03-2.52Z" opacity=".2"/><path fill="#455A64" d="M51.89 341.53Z"/><path fill="#54B862" d="M47.34 172.33v-7.64a9.004 9.004 0 0 1 4.08-7.08L282.82 24a2.89 2.89 0 0 1 2.86-.3l-6.83-4.2a2.84 2.84 0 0 0-3 .25L44.48 153.36a9 9 0 0 0-4.08 7.08V168.38l6.91 3.94.03.01Z"/><path fill="#fff" d="M47.34 172.33v-7.64a9.004 9.004 0 0 1 4.08-7.08L282.82 24a2.89 2.89 0 0 1 2.86-.3l-6.83-4.2a2.84 2.84 0 0 0-3 .25L44.48 153.36a9 9 0 0 0-4.08 7.08V168.38l6.91 3.94.03.01Z" opacity=".3"/><path fill="#000" d="m47.35 185.61-.04-13.26-6.91-3.94.03 12.96v.29l6.92 3.95Z" opacity=".2"/><path fill="#fff" d="m47.35 185.61-.04-13.26-6.91-3.94.03 12.96v.29l6.92 3.95Z" opacity=".2"/><path fill="#54B862" d="M282.82 24c2.25-1.3 4.1-.25 4.1 2.35L287 34 47.34 172.33v-7.64a9.004 9.004 0 0 1 4.08-7.08L282.82 24Z"/><path fill="#fff" d="M267.3 36.64c1.21-.7 2.2-.14 2.2 1.25a4.79 4.79 0 0 1-2.18 3.78c-1.21.7-2.2.14-2.2-1.25a4.79 4.79 0 0 1 2.18-3.78ZM274 32.78c1.21-.7 2.19-.14 2.2 1.25a4.829 4.829 0 0 1-2.2 3.78c-1.21.7-2.19.14-2.2-1.25a4.828 4.828 0 0 1 2.2-3.78ZM280.67 28.92c1.21-.7 2.19-.14 2.19 1.25a4.809 4.809 0 0 1-2.18 3.83c-1.21.7-2.19.14-2.2-1.26a4.837 4.837 0 0 1 2.19-3.82Z"/><path fill="#E0E0E0" d="M95.53 136.93c.9-.52 1.73-.43 2.16.24l2.18 3.34c.43.67 1.26.77 2.16.25L286.92 34v13.28L47.35 185.63v-13.28l7.1-4.1a5.41 5.41 0 0 0 2.17-2.74l2.14-5.84a5.358 5.358 0 0 1 2.16-2.73l34.61-20.01Z"/><path fill="#54B862" d="m287 47.27.43 153.58a9.002 9.002 0 0 1-4.08 7.07L51.89 341.53c-2.26 1.31-4.1.25-4.1-2.34l-.44-153.58L287 47.27Z"/><path fill="#fff" d="m287 47.27.43 153.58a9.002 9.002 0 0 1-4.08 7.07L51.89 341.53c-2.26 1.31-4.1.25-4.1-2.34l-.44-153.58L287 47.27Z" opacity=".4"/><path fill="#fff" d="M277.48 42.17c1.61-.93 2.91-.19 2.92 1.66a6.418 6.418 0 0 1-2.9 5L74.68 166c-1.61.93-2.92.18-2.93-1.67a6.417 6.417 0 0 1 2.91-5L277.48 42.17Z"/><path fill="#E0E0E0" d="M51.18 173.53a.275.275 0 0 1 .3 0c.16.1.14.41 0 .68l-1.28 2.09 3.36-1.94c.23-.13.41 0 .41.23a.87.87 0 0 1-.41.71l-3.35 1.94 1.28.61c.17.08.18.37 0 .65a.833.833 0 0 1-.31.33.323.323 0 0 1-.28 0l-2-1-.09-.08v-.38l.08-.17 2-3.36a.868.868 0 0 1 .29-.31ZM58.45 169.34a.286.286 0 0 1 .28 0l2.06 1 .08.09v.42l-.07.16-2.06 3.37a.752.752 0 0 1-.28.28.284.284 0 0 1-.29 0c-.16-.1-.15-.4 0-.68l1.27-2.08-3.36 1.94c-.22.12-.4 0-.4-.24a.885.885 0 0 1 .4-.71l3.36-1.93-1.28-.61c-.17-.09-.18-.38 0-.66a.777.777 0 0 1 .29-.35ZM65.35 165.35a1.844 1.844 0 0 1 1.39-.26l.31-.4a.727.727 0 0 1 .22-.21.36.36 0 0 1 .22 0c.14 0 .21.17.18.37l-.17 1.26a.852.852 0 0 1-.18.43.69.69 0 0 1-.22.2H67l-1 .26a.219.219 0 0 1-.105.008.228.228 0 0 1-.195-.218.79.79 0 0 1 .18-.57l.1-.13a1.362 1.362 0 0 0-.63.19 3.272 3.272 0 0 0-1.47 2.55c0 .94.67 1.31 1.48.84a3.242 3.242 0 0 0 1.3-1.62.862.862 0 0 1 .35-.45.308.308 0 0 1 .2-.05c.2 0 .27.25.16.55a5.003 5.003 0 0 1-2 2.52c-1.26.72-2.3.14-2.3-1.32a5.077 5.077 0 0 1 2.28-3.95Z"/><path fill="#000" d="M51.18 173.53a.275.275 0 0 1 .3 0c.16.1.14.41 0 .68l-1.28 2.09 3.36-1.94c.23-.13.41 0 .41.23a.87.87 0 0 1-.41.71l-3.35 1.94 1.28.61c.17.08.18.37 0 .65a.833.833 0 0 1-.31.33.323.323 0 0 1-.28 0l-2-1-.09-.08v-.38l.08-.17 2-3.36a.868.868 0 0 1 .29-.31ZM58.45 169.34a.286.286 0 0 1 .28 0l2.06 1 .08.09v.42l-.07.16-2.06 3.37a.752.752 0 0 1-.28.28.284.284 0 0 1-.29 0c-.16-.1-.15-.4 0-.68l1.27-2.08-3.36 1.94c-.22.12-.4 0-.4-.24a.885.885 0 0 1 .4-.71l3.36-1.93-1.28-.61c-.17-.09-.18-.38 0-.66a.777.777 0 0 1 .29-.35ZM65.35 165.35a1.844 1.844 0 0 1 1.39-.26l.31-.4a.727.727 0 0 1 .22-.21.36.36 0 0 1 .22 0c.14 0 .21.17.18.37l-.17 1.26a.852.852 0 0 1-.18.43.69.69 0 0 1-.22.2H67l-1 .26a.219.219 0 0 1-.105.008.228.228 0 0 1-.195-.218.79.79 0 0 1 .18-.57l.1-.13a1.362 1.362 0 0 0-.63.19 3.272 3.272 0 0 0-1.47 2.55c0 .94.67 1.31 1.48.84a3.242 3.242 0 0 0 1.3-1.62.862.862 0 0 1 .35-.45.308.308 0 0 1 .2-.05c.2 0 .27.25.16.55a5.003 5.003 0 0 1-2 2.52c-1.26.72-2.3.14-2.3-1.32a5.077 5.077 0 0 1 2.28-3.95Z" opacity=".3"/><path fill="#54B862" d="m191.84 171.5.22 78.32-75.64 43.67-.22-78.33 75.64-43.66ZM277.33 64.97l.12 44.14-102.25 59.03-.13-44.13 102.26-59.04Z"/><path fill="#fff" d="m191.84 171.5.22 78.32-75.64 43.67-.22-78.33 75.64-43.66ZM277.33 64.97l.12 44.14-102.25 59.03-.13-44.13 102.26-59.04Z" opacity=".5"/><path fill="#54B862" d="m108.82 219.42.23 78.33-47.97 27.69-.22-78.32 47.96-27.7ZM276.69 122.5l.23 78.33-77.48 44.73-.22-78.32 77.47-44.74Z"/><path fill="#fff" d="m108.82 219.42.23 78.33-47.97 27.69-.22-78.32 47.96-27.7ZM276.69 122.5l.23 78.33-77.48 44.73-.22-78.32 77.47-44.74Z" opacity=".3"/><path fill="#54B862" d="M83.87 175.84C96.63 168.48 107 174.39 107 189s-10.26 32.5-23 39.86c-12.74 7.36-23.12 1.45-23.16-13.2-.04-14.65 10.28-32.46 23.03-39.82Z"/><path fill="#37474F" d="M95.55 189.51a6.182 6.182 0 0 0 1.72-8.15 3.37 3.37 0 0 0 1.63-1.53 1.8 1.8 0 0 0-2.33-2.4 2.529 2.529 0 0 0-1-2.94 2.37 2.37 0 0 0-3 .54 1.611 1.611 0 0 0-1.1-1.58 3.217 3.217 0 0 0-2 .13c-.66.23-1.28.55-2 .76-1.144.291-2.32.442-3.5.45a7.048 7.048 0 0 0-3.38.9 2.998 2.998 0 0 0-1.32 3.43 2.002 2.002 0 0 0-1.41-.75 1.878 1.878 0 0 0-1.44.61c.74.46 1.45 1 2.19 1.41a1.997 1.997 0 0 0-2.25.89 4.449 4.449 0 0 0-.39 2.37 31.799 31.799 0 0 0 1.62 9.07 7.432 7.432 0 0 0 3.12 4.12l14.84-7.33Z"/><path fill="#EBEBEB" d="m93.15 201.09 3.49 3 1.85 10.59a57.808 57.808 0 0 0 4-7.11c-1.59-4.05-2.86-6.48-9.34-6.48Z"/><path fill="#54B862" d="M84 228.9c6-3.46 11.44-9.23 15.54-15.9-.34-5.73-1.19-11.91-6.41-11.91l-15.5.11-3.17.34L73 232.05a20.37 20.37 0 0 0 11-3.15Z"/><path fill="#fff" d="M84 228.9c6-3.46 11.44-9.23 15.54-15.9-.34-5.73-1.19-11.91-6.41-11.91l-15.5.11-3.17.34L73 232.05a20.37 20.37 0 0 0 11-3.15Z" opacity=".4"/><path fill="#EBEBEB" d="M90.62 203.15c1.45 4.62.54 11 0 13.95-3.67-5-7.11-10.12-8.19-12.1l5.12-2.49 3.07.64Z"/><path fill="#455A64" d="m88.48 207.39 1.26-.3a40.419 40.419 0 0 1 1.54 4.91c-.13 1.7-.35 3.393-.66 5.07-.72-1-1.43-2-2.12-2.95.217-2.238.21-4.493-.02-6.73Z"/><path fill="#000" d="M88.5 207.66v-.27l1.26-.3s0 .07.07.19a1.64 1.64 0 0 1-.71.38 1.745 1.745 0 0 1-.62 0Z" opacity=".2"/><path fill="#455A64" d="m87.8 204.08-1-.64-2.32 1.26a5.323 5.323 0 0 0 2.74 1.09l.58-1.71ZM89.33 203.83l.31-.68 1.17.74a2.13 2.13 0 0 1-.76 1.11l-.72-1.17Z"/><path fill="#000" d="m87.8 204.08-1-.64-2.32 1.26a5.323 5.323 0 0 0 2.74 1.09l.58-1.71ZM89.33 203.83l.31-.68 1.17.74a2.13 2.13 0 0 1-.76 1.11l-.72-1.17Z" opacity=".2"/><path fill="#455A64" d="M87.22 205.79a5.399 5.399 0 0 1 .58-1.71l1.53-.25c.283.362.525.754.72 1.17.03.71-.075 1.419-.31 2.09a2.619 2.619 0 0 1-1.26.3 3.26 3.26 0 0 1-1.26-1.6Z"/><path fill="#E0E0E0" d="M88.34 203.54c-2.44 0-3.93 1.9-6.15 2.56l-4.54-4.9 1.76-2.62c.35-.523.807-.965 1.34-1.3v.95a1.6 1.6 0 0 0 .8 1.36l6.79 3.95ZM88.34 203.54c1.35-.42 3.37 1.27 3.37 1.27-.71-3.91-2.84-5.46-3.37-5.46v4.19Z"/><path fill="#EBEBEB" d="m74.48 201.54-2.1.33a6.21 6.21 0 0 0-5.07 4.88 74.13 74.13 0 0 0-1.37 17.85l9.6-4.43c1.01-7.5 2.98-13.7-1.06-18.63Z"/><path fill="#E0E0E0" d="M75.44 223.51v-.84a.58.58 0 0 1 .19-.39.591.591 0 0 0 .19-.43v-1.39a.665.665 0 0 0-.427-.625.672.672 0 0 0-.263-.045c-4.34.05-8.57 2.12-9.72 4.55a3.62 3.62 0 0 0 0 2.35c-.75 1-.39 1.49 0 2.2.397.357.814.691 1.25 1 2.85-4.5 8.78-6.38 8.78-6.38Z"/><path fill="#000" d="M71 222.54a14.76 14.76 0 0 0-5.5 4.15 4.662 4.662 0 0 1-.17-.79 9.67 9.67 0 0 1 5.67-3.36ZM75.83 222a.54.54 0 0 1-.16.26.58.58 0 0 0-.19.39v.07a14.43 14.43 0 0 0-8 4.06c1.99-2.89 6.4-4.38 8.35-4.78Z" opacity=".2"/><path fill="#FFA8A7" d="M84 228.9c3.71-2.212 7.046-5 9.88-8.26-5.56 0-13.33.34-18.42 2.1v.77s-5.93 1.88-8.74 6.41c4.22 3.08 10.41 2.96 17.28-1.02Z"/><path fill="#000" d="m75.86 223.53.1-.95-.48.16v.77a19.903 19.903 0 0 0-4 1.88 5.856 5.856 0 0 0-.91 1.77c1.16-1.64 2.43-2.3 4.91-2.94 2.25.35 6.17 2 10.16 3.67.387-.247.767-.507 1.14-.78-4.78-1.67-9.67-3.49-10.92-3.58Z" opacity=".2"/><path fill="#FFA8A7" d="M83.55 197.46h-.07a4.002 4.002 0 0 1-2-2.62c-.13-.56-.24-1.12-.33-1.69-.09-.57-.46 0-.46 0s0 1.25.06 2.73c0 .79 0 1.63.06 2.4a1.586 1.586 0 0 0 .8 1.36l6.77 3.95v-4.81a12.361 12.361 0 0 1-4.83-1.32Z"/><path fill="#FFA8A7" d="M81.9 196.6v-.01l.01.01h-.01Z"/><path fill="#000" d="M82.58 197.36a4.672 4.672 0 0 1-.83-1.74c.37.769.976 1.4 1.73 1.8h.07a12.373 12.373 0 0 0 4.79 1.27V200a11.888 11.888 0 0 1-2.84-.6 6.46 6.46 0 0 1-2.92-2.04Z" opacity=".2"/><path fill="#FFA8A7" d="M96 182.06a32.333 32.333 0 0 1-.81 12.54 9.738 9.738 0 0 1-1 2.58 4.157 4.157 0 0 1-2 1.81 6.636 6.636 0 0 1-3.37 0 17.282 17.282 0 0 1-5.92-1.82 5.758 5.758 0 0 1-3-5.09 3.53 3.53 0 0 1-3.39.18 3.595 3.595 0 0 1-1.87-2.88 2.22 2.22 0 0 1 3.71-2.1 7.077 7.077 0 0 1 1.38 1.61c.176.292.411.544.69.74a.84.84 0 0 0 1 0 1.25 1.25 0 0 0 .27-1l-.25-2.63a1.06 1.06 0 0 1 .58-1 2.53 2.53 0 0 0 1.18-1.35c.19-.507.301-1.04.33-1.58a.646.646 0 0 1 .592-.594.645.645 0 0 1 .298.044 19.388 19.388 0 0 0 11.58.54Z"/><path fill="#F28F8F" d="m90.19 188.43 2.37 3.97-2.82.53.45-4.5ZM87 194.3l2.14 1a1.401 1.401 0 0 1-1.62.46 1.26 1.26 0 0 1-.52-1.46Z"/><path fill="#000" d="m87 194.3 2.14 1a1.401 1.401 0 0 1-1.62.46 1.26 1.26 0 0 1-.52-1.46Z" opacity=".3"/><path fill="#F28F8F" d="M88.29 195.87a1.227 1.227 0 0 1-.74-.07 1.153 1.153 0 0 1-.58-1.13c.31-.003.61.103.85.3.268.227.437.55.47.9Z"/><path fill="#263238" d="M86.12 188.58a.808.808 0 0 0 1.318.713.805.805 0 0 0 .262-.863.813.813 0 0 0-.7-.57.807.807 0 0 0-.88.72ZM92.9 189a.808.808 0 0 0 1.318.713.805.805 0 0 0 .262-.863.813.813 0 0 0-.7-.57.807.807 0 0 0-.88.72ZM94 185.88l1.66 1.41a1.129 1.129 0 0 0-.22-1.29 1.36 1.36 0 0 0-1.44-.12ZM87.13 185.09l-1.91 1a1.13 1.13 0 0 1 .47-1.22 1.385 1.385 0 0 1 1.44.22Z"/><g fill="#fff" opacity=".5"><path d="m144.1 169.79.01 2.24-28.2 16.2v-2.24l28.19-16.2ZM149.38 180.5l.01 2.24-33.44 19.23v-2.24l33.43-19.23ZM154.37 173.05l.01 2.23-38.44 22.12-.01-2.24 38.44-22.11ZM162.27 154.73l.01 2.23-46.38 26.7-.01-2.23 46.38-26.7ZM167.85 146.89l.01 2.24-51.97 29.93-.01-2.24 51.97-29.93ZM142.64 152.87l.02 4.48-26.79 15.47-.01-4.49 26.78-15.46Z"/></g><path fill="#54B862" d="m211.82 110.51.02 5.23-28.97 16.77-.02-5.23 28.97-16.77ZM267.62 86.95l.01 3.19-84.74 48.75-.01-3.19 84.74-48.75Z"/><g fill="#fff" opacity=".3"><path d="m211.82 110.51.02 5.23-28.97 16.77-.02-5.23 28.97-16.77ZM267.62 86.95l.01 3.19-84.74 48.75-.01-3.19 84.74-48.75ZM261.4 109.48l.01 3.2-78.47 45.38-.01-3.19 78.47-45.39ZM267.66 99.73l.01 3.2-84.75 48.75-.01-3.2 84.75-48.75ZM248.41 104.38l.01 3.19-65.52 37.71v-3.19l65.51-37.71Z"/></g><g fill="#fff" opacity=".5"><path d="m84.93 240.79.01 4.78-18.48 10.67-.01-4.78 18.48-10.67ZM103.33 237.83l.01 2.25-36.87 21.28v-2.25l36.86-21.28ZM103.34 242.33l.01 2.25-36.86 21.28-.01-2.25 36.86-21.28ZM92.66 259.28l.01 4.78-26.14 15.1-.02-4.79 26.15-15.09ZM84.92 257.47l.01 2.25-18.43 10.64-.01-2.25 18.43-10.64ZM76.57 308.19l.01 2.25-9.95 5.74-.01-2.24 9.95-5.75ZM103.47 288.16l.01 2.25-36.86 21.28-.01-2.25 36.86-21.28ZM103.46 283.66l.01 2.25-36.86 21.28-.01-2.25 36.86-21.28ZM82.59 288.05l.02 4.77-16.02 9.25-.01-4.78 16.01-9.24ZM96.86 273.52l.01 2.25-30.3 17.5-.01-2.25 30.3-17.5ZM103.41 265.24v2.25l-36.86 21.28v-2.25l36.86-21.28ZM103.39 260.75l.01 2.25-36.86 21.28-.01-2.25 36.86-21.28Z"/></g><path fill="#54B862" d="m164.66 211.02-15.03 28.54-4.25 8.08 2.93-9.1-8.28-6.43-9.23 18.32.04 11.19 48.4-27.94-.03-11.2-14.55-11.46Z"/><path fill="#54B862" d="M148.78 226.15a9.102 9.102 0 0 0 4.12-7.15c0-2.62-1.86-3.67-4.14-2.36a9.1 9.1 0 0 0-4.12 7.13c.01 2.63 1.87 3.69 4.14 2.38Z"/><g fill="#fff" opacity=".3"><path d="m164.66 211.02-15.03 28.54-4.25 8.08 2.93-9.1-8.28-6.43-9.23 18.32.04 11.19 48.4-27.94-.03-11.2-14.55-11.46Z"/><path d="M148.78 226.15a9.102 9.102 0 0 0 4.12-7.15c0-2.62-1.86-3.67-4.14-2.36a9.1 9.1 0 0 0-4.12 7.13c.01 2.63 1.87 3.69 4.14 2.38Z"/></g><path fill="#54B862" d="m250.32 162.5-15.02 28.53-4.25 8.08 2.93-9.1-8.29-6.43-9.22 18.32.03 11.2 48.41-27.95-.04-11.19-14.55-11.46Z"/><path fill="#54B862" d="M234.45 177.62a9.064 9.064 0 0 0 4.11-7.12c0-2.62-1.86-3.68-4.14-2.36a8.995 8.995 0 0 0-4.11 7.12c0 2.62 1.86 3.68 4.14 2.36Z"/><g fill="#fff" opacity=".5"><path d="m250.32 162.5-15.02 28.53-4.25 8.08 2.93-9.1-8.29-6.43-9.22 18.32.03 11.2 48.41-27.95-.04-11.19-14.55-11.46Z"/><path d="M234.45 177.62a9.064 9.064 0 0 0 4.11-7.12c0-2.62-1.86-3.68-4.14-2.36a9.005 9.005 0 0 0-4.11 7.12c0 2.62 1.86 3.68 4.14 2.36Z"/></g><path fill="#54B862" d="m261.4 109.48.01 3.2-78.47 45.38-.01-3.19 78.47-45.39ZM267.66 99.73l.01 3.2-84.75 48.75-.01-3.2 84.75-48.75ZM248.41 104.38l.01 3.19-65.52 37.71v-3.19l65.51-37.71Z"/><path fill="#E0E0E0" d="m329.06 374 2.62 1.67h.06a3.008 3.008 0 0 0 2.95-.31 9.233 9.233 0 0 0 4.18-7.24 2.93 2.93 0 0 0-1.18-2.65l-.77-.49 25.09-10.19a1.855 1.855 0 0 0 .95 1.46l-2.26 19.73v2.68a9.33 9.33 0 0 0-3.46 6.73 2.872 2.872 0 0 0 1.31 2.72l2.63 1.67h.05a2.996 2.996 0 0 0 2.95-.3 9.2 9.2 0 0 0 4.18-7.24 2.992 2.992 0 0 0-1.17-2.65l-2.66-1.68a2.235 2.235 0 0 0-1.39-.31l2.73-20.6a6.146 6.146 0 0 0 1.83-.3l23.76 12.84-1.36.86a2.925 2.925 0 0 0-1.18 2.65 9.233 9.233 0 0 0 4.18 7.24c.428.312.931.505 1.458.559a2.993 2.993 0 0 0 1.542-.249h.06l2.62-1.67a2.852 2.852 0 0 0 1.31-2.72 9.299 9.299 0 0 0-3.4-6.69v-4.14l-22.13-13.15 11.67-2.94a8.429 8.429 0 0 0-1.24 4.15 2.85 2.85 0 0 0 1.3 2.72l2.62 1.67h.05a2.937 2.937 0 0 0 3-.31 9.217 9.217 0 0 0 4.18-7.23 3.001 3.001 0 0 0-1.18-2.65l-2.89-1.64a2.441 2.441 0 0 0-2-.19v-.67l-1.42-.48-19 1v-3.35a5.39 5.39 0 0 0 .59-.28 3.209 3.209 0 0 0 1.88-2.6v-21.96h-12.66v21.92a3.153 3.153 0 0 0 1.85 2.6c.201.112.408.212.62.3v2.81l-13.7-3-.65.27v2.52l-2.66 1.69a3.004 3.004 0 0 0-1.17 2.65 9.06 9.06 0 0 0 2.06 5.34l-13.23 6v3.13a4.669 4.669 0 0 0-.55.27 9.216 9.216 0 0 0-4.18 7.23 2.853 2.853 0 0 0 1.21 2.8Zm7.94-14.18 9.59-4.27-13 5.77 3.41-1.5Zm17-10.78 1.94 1-1.34.6a10.483 10.483 0 0 0-.69-1.64l.09.04Z"/><path fill="#37474F" d="m392.69 351.28 2.1-3.59-2.72-1.69a2.92 2.92 0 0 0-3 .26 9.18 9.18 0 0 0-4.17 7.23 2.85 2.85 0 0 0 1.3 2.72l2.68 1.7 2.21-3.79a9.917 9.917 0 0 0 1.6-2.84Z"/><path fill="#455A64" d="M391.76 348c2.31-1.34 4.2-.27 4.21 2.39a9.226 9.226 0 0 1-4.18 7.23c-2.31 1.34-4.2.27-4.21-2.39a9.226 9.226 0 0 1 4.18-7.23Z"/><path fill="#37474F" d="m346.92 350.26-2.1-3.6 2.73-1.73a2.9 2.9 0 0 1 3 .25 9.246 9.246 0 0 1 4.18 7.23 2.886 2.886 0 0 1-1.31 2.73l-2.68 1.71-2.21-3.79a10.146 10.146 0 0 1-1.61-2.8Z"/><path fill="#455A64" d="M347.85 346.92c-2.31-1.33-4.2-.27-4.2 2.39a9.221 9.221 0 0 0 4.17 7.24c2.32 1.33 4.2.26 4.21-2.4a9.22 9.22 0 0 0-1.223-4.116 9.226 9.226 0 0 0-2.957-3.114Z"/><path fill="#EBEBEB" d="M361.93 341.35h7.78v13.4a1.997 1.997 0 0 1-1.15 1.59 6.057 6.057 0 0 1-5.5 0 1.994 1.994 0 0 1-1.13-1.59v-13.4Z"/><path fill="#E0E0E0" d="M390.08 345.1v3.2l-20.37 5.13v-6.76l20.37-1.57Z"/><path fill="#F5F5F5" d="m390.08 345.1-1.42-.48-18.95 1v1.05l20.37-1.57Z"/><path fill="#37474F" d="m392.13 374.06-2.1-3.6 2.72-1.73a2.881 2.881 0 0 1 3 .25 9.182 9.182 0 0 1 4.18 7.23 2.852 2.852 0 0 1-1.31 2.72l-2.62 1.73-2.21-3.79a9.893 9.893 0 0 1-1.66-2.81Z"/><path fill="#455A64" d="M393.06 370.72c-2.32-1.34-4.2-.27-4.21 2.39a9.236 9.236 0 0 0 4.18 7.24c2.31 1.33 4.2.26 4.2-2.4a9.194 9.194 0 0 0-4.17-7.23Z"/><path fill="#37474F" d="m365 383.19 2.1-3.6-2.73-1.73a2.9 2.9 0 0 0-3 .25 9.207 9.207 0 0 0-4.18 7.23 2.872 2.872 0 0 0 1.31 2.72l2.68 1.71 2.21-3.79a9.926 9.926 0 0 0 1.61-2.79Z"/><path fill="#455A64" d="M364.07 379.85c2.31-1.34 4.19-.27 4.2 2.39a9.199 9.199 0 0 1-4.18 7.24c-2.31 1.33-4.19.26-4.2-2.4a9.165 9.165 0 0 1 4.18-7.23Z"/><path fill="#37474F" d="m335.58 369.08 2.1-3.6-2.68-1.73a2.881 2.881 0 0 0-3 .25 9.216 9.216 0 0 0-4.18 7.23 2.852 2.852 0 0 0 1.31 2.72l2.68 1.71 2.21-3.79a9.907 9.907 0 0 0 1.56-2.79Z"/><path fill="#455A64" d="M334.65 365.74c2.32-1.34 4.2-.27 4.21 2.39a9.233 9.233 0 0 1-4.18 7.24c-2.31 1.33-4.2.26-4.2-2.4a9.18 9.18 0 0 1 4.17-7.23Z"/><path fill="#E0E0E0" d="M394.98 366.27v5.18l-27.28-14.74v-7.14l27.28 16.7Z"/><path fill="#F5F5F5" d="m396.56 365.39-27.3-16.22-1.56.4 27.28 16.7 1.58-.88Z"/><path fill="#F0F0F0" d="m396.56 370.56-1.58.89v-5.18l1.58-.88v5.17Z"/><path fill="#E0E0E0" d="m365.87 349.57-3.33 26.37v4.72l3.33-23.66v-7.43Z"/><path fill="#F0F0F0" d="M362.54 375.94h-1.92v4.71h1.92v-4.71Z"/><path fill="#F5F5F5" d="m360.62 375.94 3.02-26.37h2.23l-3.33 26.37h-1.92Z"/><path fill="#E0E0E0" d="M333.57 361.32v4.95l28.37-11.52v-6.06l-28.37 12.63Z"/><path fill="#F0F0F0" d="m332.48 365.54 1.09.73v-4.95l-1.09-.71v4.93Z"/><path fill="#F5F5F5" d="m336.95 359.82-3.38 1.5-1.09-.71 29.46-13.27v1.35l-24.99 11.13Z"/><path fill="#E0E0E0" d="M347.58 342.41v3.24l8.27 4.43 6.09-2.74v-1.33l-14.36-3.6Z"/><path fill="#F5F5F5" d="m347.58 342.41.65-.27 13.71 2.96v.91l-14.36-3.6Z"/><path fill="#E0E0E0" d="M359.46 317.47h12.72v21.92a3.209 3.209 0 0 1-1.88 2.6 9.89 9.89 0 0 1-9 0 3.153 3.153 0 0 1-1.85-2.6l.01-21.92Z"/><path fill="#54B862" d="M309.36 282.23a8.37 8.37 0 0 0 2.75 2.6l51.83 27.53a12.142 12.142 0 0 0 11.17.11l36.31-18.39a18.388 18.388 0 0 0 9.44-11.6l17.53-64.73c.29.09.58.19.88.27.736.24 1.506.359 2.28.35h.11l-20.8 76.81a18.388 18.388 0 0 1-9.44 11.6l-36.31 18.39a12.147 12.147 0 0 1-11.17-.11l-51.83-27.53c-5.17-2.96-5.66-10.88-2.75-15.3Z"/><path fill="#000" d="M309.36 282.23a8.37 8.37 0 0 0 2.75 2.6l51.83 27.53a12.142 12.142 0 0 0 11.17.11l36.31-18.39a18.388 18.388 0 0 0 9.44-11.6l17.53-64.73c.29.09.58.19.88.27.736.24 1.506.359 2.28.35h.11l-20.8 76.81a18.388 18.388 0 0 1-9.44 11.6l-36.31 18.39a12.147 12.147 0 0 1-11.17-.11l-51.83-27.53c-5.17-2.96-5.66-10.88-2.75-15.3Z" opacity=".3"/><path fill="#54B862" d="m311.78 279.89 37.56-19.27 49.46 25.45c-1.61.39-3.25.71-4.87 1-4.25.85-8.59 1.79-12.28 4.07-3.69 2.28-6.68 6.16-6.71 10.5l1.32 10.2-1.15.59a12.147 12.147 0 0 1-11.17-.11l-51.83-27.53a8.37 8.37 0 0 1-2.75-2.6 6.994 6.994 0 0 1 2.42-2.3Z"/><path fill="#000" d="m311.78 279.89 37.56-19.27 49.46 25.45c-1.61.39-3.25.71-4.87 1-4.25.85-8.59 1.79-12.28 4.07-3.69 2.28-6.68 6.16-6.71 10.5l1.32 10.2-1.15.59a12.147 12.147 0 0 1-11.17-.11l-51.83-27.53a8.37 8.37 0 0 1-2.75-2.6 6.994 6.994 0 0 1 2.42-2.3Z" opacity=".2"/><path fill="#54B862" d="M317.24 247.67s30.15 8.87 38.13 1c9.92-9.74 5.77-34.29 4.58-43.89-1.19-9.6 0-16.26 2.66-19.07 2.66-2.81 6.51-6.94 19-1.77-12.63 6.5-14.26 37.4-10.27 49.81-9.9 10.19-9.22 26-9.41 33.31 0 0-25.76 6.29-39.21 13.68l-5.48-33.07Z"/><path fill="#fff" d="M317.24 247.67s30.15 8.87 38.13 1c9.92-9.74 5.77-34.29 4.58-43.89-1.19-9.6 0-16.26 2.66-19.07 2.66-2.81 6.51-6.94 19-1.77-12.63 6.5-14.26 37.4-10.27 49.81-9.9 10.19-9.22 26-9.41 33.31 0 0-25.76 6.29-39.21 13.68l-5.48-33.07Z" opacity=".1"/><path fill="#54B862" d="m322.71 280.78-6.17-3.33c0-17-2.51-15.29-7.18-21.94-4.67-6.65 2.49-10.79 7.88-7.84 5.39 2.95 7.57 11.85 5.47 33.11Z"/><path fill="#fff" d="m322.71 280.78-6.17-3.33c0-17-2.51-15.29-7.18-21.94-4.67-6.65 2.49-10.79 7.88-7.84 5.39 2.95 7.57 11.85 5.47 33.11Z" opacity=".2"/><path fill="#54B862" d="M381.6 184s33.77 14.63 50.22 22.76l-1.2 6-53.87-24.45a14.366 14.366 0 0 1 4.85-4.31Z"/><path fill="#fff" d="M381.6 184s33.77 14.63 50.22 22.76l-1.2 6-53.87-24.45a14.366 14.366 0 0 1 4.85-4.31Z" opacity=".1"/><path fill="#54B862" d="M371.33 233.79c-3.4-10.59-2.71-34.65 5.42-45.51l53.87 24.45-12.31 61.71-19.51 11.63-36.88-19c.19-7.3-.49-23.07 9.41-33.28Z"/><path fill="#000" d="M371.33 233.79c-3.4-10.59-2.71-34.65 5.42-45.51l53.87 24.45-12.31 61.71-19.51 11.63-36.88-19c.19-7.3-.49-23.07 9.41-33.28Z" opacity=".1"/><path fill="#54B862" d="M404.67 246.16c-.91-.52-1.66-.1-1.66 1a3.63 3.63 0 0 0 1.65 2.85c.91.53 1.66.11 1.66-.94a3.662 3.662 0 0 0-1.65-2.91ZM396.34 241.26c-.92-.52-1.66-.1-1.67 1a3.668 3.668 0 0 0 1.65 2.86c.92.52 1.66.1 1.66-.95a3.628 3.628 0 0 0-1.64-2.91ZM388 236.37c-.91-.53-1.66-.11-1.66.94a3.668 3.668 0 0 0 1.65 2.86c.91.53 1.66.1 1.66-.95a3.63 3.63 0 0 0-1.65-2.85ZM379.66 231.47c-.91-.53-1.65-.11-1.66.94a3.668 3.668 0 0 0 1.65 2.86c.92.53 1.66.1 1.66-1a3.588 3.588 0 0 0-1.65-2.8Z"/><g fill="#fff" opacity=".2"><path d="M404.67 246.16c-.91-.52-1.66-.1-1.66 1a3.63 3.63 0 0 0 1.65 2.85c.91.53 1.66.11 1.66-.94a3.662 3.662 0 0 0-1.65-2.91ZM396.34 241.26c-.92-.52-1.66-.1-1.67 1a3.668 3.668 0 0 0 1.65 2.86c.92.52 1.66.1 1.66-.95a3.628 3.628 0 0 0-1.64-2.91ZM388 236.37c-.91-.53-1.66-.11-1.66.94a3.668 3.668 0 0 0 1.65 2.86c.91.53 1.66.1 1.66-.95a3.63 3.63 0 0 0-1.65-2.85ZM379.66 231.47c-.91-.53-1.65-.11-1.66.94a3.668 3.668 0 0 0 1.65 2.86c.92.53 1.66.1 1.66-1a3.588 3.588 0 0 0-1.65-2.8Z"/></g><path fill="#54B862" d="M381.65 291.18c3.69-2.28 8-3.22 12.28-4.07 1.62-.33 3.26-.65 4.87-1a30.215 30.215 0 0 0 7.53-2.75c6-3.29 9.95-9.44 11.87-16 1.92-6.56 2-13.46 1.56-20.26-.44-6.8-1.25-13.58-1-20.38.12-4 .72-8.19 3.39-11.11s7.22-3.94 11.26-3.39c1.328.186 2.636.49 3.91.91l1.79 2.1-.68 2.53-17.53 64.73a18.372 18.372 0 0 1-8.05 10.8c-.45.28-.91.55-1.39.8l-35.16 17.8-1.32-10.2c.02-4.35 3.02-8.24 6.67-10.51Z"/><path fill="#000" d="M381.65 291.18c3.69-2.28 8-3.22 12.28-4.07 1.62-.33 3.26-.65 4.87-1a30.215 30.215 0 0 0 7.53-2.75c6-3.29 9.95-9.44 11.87-16 1.92-6.56 2-13.46 1.56-20.26-.44-6.8-1.25-13.58-1-20.38.12-4 .72-8.19 3.39-11.11s7.22-3.94 11.26-3.39c1.328.186 2.636.49 3.91.91l1.79 2.1-.68 2.53-17.53 64.73a18.372 18.372 0 0 1-8.05 10.8c-.45.28-.91.55-1.39.8l-35.16 17.8-1.32-10.2c.02-4.35 3.02-8.24 6.67-10.51Z" opacity=".3"/><path fill="#54B862" d="M381.6 284.22c12.86-3.66 25.5-4.14 30.15-13.38 4.65-9.24 5-22 2.66-44.15a33.994 33.994 0 0 1 .21-8.58c1.37-8.3 6.36-11.84 12.1-11.93 5.679-.08 11.177 2 15.38 5.82a6.995 6.995 0 0 1 1.91 2.51 3.007 3.007 0 0 1-.38 3 2.94 2.94 0 0 1-2 .89h-.11a7.089 7.089 0 0 1-2.28-.35c-.3-.08-.59-.18-.88-.27-1.58-.49-3.12-1.08-4.73-1.48a10.33 10.33 0 0 0-5.78 0 6.148 6.148 0 0 0-3.72 4.15c-5.42 17.71 1.45 36.74-4.65 51.37-5 13.3-22.23 18.82-34.39 22.77a7.455 7.455 0 0 0 3-2.21 5.123 5.123 0 0 0-.48-6.17 6.719 6.719 0 0 0-6.01-1.99Z"/><path fill="#fff" d="M381.6 284.22c12.86-3.66 25.5-4.14 30.15-13.38 4.65-9.24 5-22 2.66-44.15a33.994 33.994 0 0 1 .21-8.58c1.37-8.3 6.36-11.84 12.1-11.93 5.679-.08 11.177 2 15.38 5.82a6.995 6.995 0 0 1 1.91 2.51 3.007 3.007 0 0 1-.38 3 2.94 2.94 0 0 1-2 .89h-.11a7.089 7.089 0 0 1-2.28-.35c-.3-.08-.59-.18-.88-.27-1.58-.49-3.12-1.08-4.73-1.48a10.33 10.33 0 0 0-5.78 0 6.148 6.148 0 0 0-3.72 4.15c-5.42 17.71 1.45 36.74-4.65 51.37-5 13.3-22.23 18.82-34.39 22.77a7.455 7.455 0 0 0 3-2.21 5.123 5.123 0 0 0-.48-6.17 6.719 6.719 0 0 0-6.01-1.99Z" opacity=".1"/><path fill="#54B862" d="M372.68 293.32a19.15 19.15 0 0 1 3.29-5.76 9.892 9.892 0 0 1 5.63-3.34 6.714 6.714 0 0 1 6.08 2 5.123 5.123 0 0 1 .48 6.17 7.455 7.455 0 0 1-3 2.21 28.63 28.63 0 0 0-2.83 1.39 12 12 0 0 0-4.86 6.87 36.167 36.167 0 0 0-1.12 8.5l-.05.55-6-3.34a36.987 36.987 0 0 1 2.38-15.25Z"/><path fill="#fff" d="M372.68 293.32a19.15 19.15 0 0 1 3.29-5.76 9.892 9.892 0 0 1 5.63-3.34 6.714 6.714 0 0 1 6.08 2 5.123 5.123 0 0 1 .48 6.17 7.455 7.455 0 0 1-3 2.21 28.63 28.63 0 0 0-2.83 1.39 12 12 0 0 0-4.86 6.87 36.167 36.167 0 0 0-1.12 8.5l-.05.55-6-3.34a36.987 36.987 0 0 1 2.38-15.25Z" opacity=".2"/><path fill="#000" d="M444 214.47a6.998 6.998 0 0 0-1.9-2.47 22.17 22.17 0 0 0-10.37-5.27C415.25 198.56 381.6 184 381.6 184c-12.48-5.17-16.33-1-19 1.77-2.67 2.77-3.84 9.46-2.66 19.07 1.18 9.61 5.34 34.15-4.58 43.89-8 7.83-38.13-1-38.13-1-5.39-2.95-12.56 1.19-7.88 7.84 4.68 6.65 7.18 5 7.18 21.94l-4.76 2.44a7.004 7.004 0 0 0-2.42 2.34c-2.91 4.42-2.42 12.34 2.75 15.29l51.83 27.53a12.142 12.142 0 0 0 11.17.11l36.31-18.39a18.388 18.388 0 0 0 9.44-11.6l20.8-76.81a2.94 2.94 0 0 0 2-.89 3.002 3.002 0 0 0 .35-3.06Zm-24.45 71.42c-.13.26-.28.51-.42.76.15-.25.3-.5.43-.76h-.01Zm-.88 1.55c-.18.28-.37.55-.56.82.2-.26.39-.54.57-.82h-.01Zm-38.63-102.51c-.32.24-.63.48-.94.75.31-.24.62-.48.9-.68l.04-.07Zm-3.29 3.32c-.24.32-.48.67-.71 1 .518-.803 1.1-1.562 1.74-2.27-.35.44-.7.86-1.03 1.3v-.03Zm-.75 1.11c-.23.36-.45.72-.67 1.1.21-.38.43-.74.67-1.1Zm-.68 1.11a36.132 36.132 0 0 0-3.31 8 35.958 35.958 0 0 1 3.3-8h.01Zm-5.25 17.47c-.06.48-.11.95-.17 1.42.1-.47.1-.94.16-1.42h.01Zm-.2 1.73c-.05.45-.09.91-.13 1.37.03-.46.07-.92.12-1.37h.01Zm-.16 1.68c0 .47-.08.94-.11 1.4.02-.46.06-.93.1-1.4h.01Zm-.11 1.48c-.1 1.46-.16 2.91-.17 4.34 0-1.43.06-2.88.16-4.34h.01Zm1.1 18.6c0-.16-.08-.33-.11-.5.03.17.07.34.11.5Zm-.28-1.31c0-.18-.07-.36-.1-.55.03.19.06.37.1.55Zm-.46-2.9c0-.18 0-.36-.08-.55.03.19.05.33.12.55h-.04Zm-.23-1.91c0-.22 0-.44-.05-.66.02.22.03.44.05.66Zm-.14-1.69v-.78c-.03.26-.02.53 0 .78Zm-.09-1.6v-.88c-.03.3-.02.59 0 .86v.02Zm-.06-1.64v-.94c-.02.32-.01.63 0 .94ZM414 292.44c-.39.29-.8.58-1.22.84.45-.28.86-.55 1.22-.84Zm.28-.2c.35-.27.68-.55 1-.84-.28.29-.62.6-.97.84h-.03Zm1.39-1.18c.29-.28.57-.56.84-.85-.24.29-.51.57-.81.85h-.03Zm4.35-6.18c.09-.21.19-.42.27-.63-.08.19-.18.4-.29.61l.02.02Z" opacity=".1"/><path fill="#37474F" d="M353.57 313.89a29.145 29.145 0 0 0 14-12.9c3.05-5.7 4.57-10.72 3.41-17.09l-46.56-18.32c-1.45 13.86-14.18 22.93-14.18 22.93l43.33 25.38Z"/><path fill="#FFA8A7" d="M302.77 368.54c0 3.75.13 9.24.13 9.24l2.5.14a6.062 6.062 0 0 1 5.38 4l.06.16a2.382 2.382 0 0 0 2.93 1.46 2.37 2.37 0 0 0 1.43-1.24l1.2-12.3-13.63-1.46Z"/><path fill="#FAFAFA" d="M299.22 406c-6.58 2.81-16.64 3.36-20.82-3.35v1.81c4.18 6.71 14.24 6.16 20.82 3.36 6.58-2.8 5.13-7.4 11-9.86a15.993 15.993 0 0 0 5.75-3.63c0-.53.11-1.21.2-2a19.816 19.816 0 0 1-5.95 3.79c-5.87 2.47-4.43 7.05-11 9.88Z"/><path fill="#54B862" d="M316.19 386.37a9.463 9.463 0 0 1 0-3.88 2.102 2.102 0 0 0-.3-1.72l-.53-.52-.2 2a2.356 2.356 0 0 1-2.254 1.351 2.364 2.364 0 0 1-2.106-1.571l-.06-.16a6.065 6.065 0 0 0-5.38-4l-2.55-.14a1.81 1.81 0 0 0-1.79 1.12c-2.63 6.33-9.22 13.36-14.3 16.57-3.74-.08-8.36 3-8.36 6.78v.38c4.18 6.71 14.24 6.16 20.82 3.35s5.13-7.39 11-9.86a19.816 19.816 0 0 0 5.95-3.79 20.97 20.97 0 0 0 .06-5.91Z"/><path fill="#000" d="M316.19 386.37a9.463 9.463 0 0 1 0-3.88 2.102 2.102 0 0 0-.3-1.72l-.53-.52-.2 2a2.356 2.356 0 0 1-2.254 1.351 2.364 2.364 0 0 1-2.106-1.571l-.06-.16a6.065 6.065 0 0 0-5.38-4l-2.55-.14a1.81 1.81 0 0 0-1.79 1.12c-2.63 6.33-9.22 13.36-14.3 16.57-3.74-.08-8.36 3-8.36 6.78v.38c4.18 6.71 14.24 6.16 20.82 3.35s5.13-7.39 11-9.86a19.816 19.816 0 0 0 5.95-3.79 20.97 20.97 0 0 0 .06-5.91Z" opacity=".2"/><path fill="#fff" d="M316.19 386.37a9.463 9.463 0 0 1 0-3.88 2.102 2.102 0 0 0-.3-1.72l-.53-.52-.2 2a2.356 2.356 0 0 1-2.254 1.351 2.364 2.364 0 0 1-2.106-1.571l-.06-.16a6.065 6.065 0 0 0-5.38-4l-2.55-.14a1.81 1.81 0 0 0-1.79 1.12c-2.63 6.33-9.22 13.36-14.3 16.57-3.74-.08-8.36 3-8.36 6.78v.38c4.18 6.71 14.24 6.16 20.82 3.35s5.13-7.39 11-9.86a19.816 19.816 0 0 0 5.95-3.79 20.97 20.97 0 0 0 .06-5.91Z" opacity=".25"/><path fill="#fff" d="M303.47 391.56a.838.838 0 0 0 1.425-.46.84.84 0 0 0-.125-.59 9.525 9.525 0 0 0-8.58-3.77c-.36.44-.71.87-1.08 1.29a9.168 9.168 0 0 1 8.36 3.53ZM306.06 388.66a.841.841 0 0 0 1.3-1.05 9.997 9.997 0 0 0-8.95-3.86c-.32.47-.65.93-1 1.4 3.22-.23 6.09.38 8.65 3.51ZM300.78 394.39a.812.812 0 0 0 1.16.11.82.82 0 0 0 .14-1.15 9.529 9.529 0 0 0-8.36-3.79c-.43.45-.86.88-1.29 1.3a9.23 9.23 0 0 1 8.35 3.53ZM286.76 395.47c-3.74-.08-8.36 3-8.36 6.78v.38c4.12 6.61 13.94 6.17 20.51 3.47-.5-9.03-9.17-10.66-12.15-10.63ZM298 397.1a.83.83 0 0 0 1.3-1 9.484 9.484 0 0 0-8.37-3.79c-.53.47-1.05.91-1.57 1.32 3.21-.26 6.08.37 8.64 3.47Z"/><path fill="#37474F" d="M322.32 345.65c-.52 8.31-2.64 14.33-4.27 25.65 0 0-9.94 3-16.14-1.36l-.25-17.44 20.66-6.85Z"/><path fill="#FFA8A7" d="M267.52 355.85c-.83 3.63-2.49 8.47-2.49 8.47l2.51.14c1.19.066 2.335.48 3.291 1.192a6.074 6.074 0 0 1 2.089 2.808l.05.16a2.365 2.365 0 0 0 1.173 1.315c.546.27 1.176.318 1.757.135a2.317 2.317 0 0 0 1.43-1.24l3.78-9.91-13.59-3.07Z"/><path fill="#FAFAFA" d="M261.35 392.53c-6.58 2.8-16.64 3.35-20.82-3.36V391c4.18 6.71 14.24 6.16 20.82 3.35s5.13-7.39 11-9.86a15.887 15.887 0 0 0 5.75-3.63c0-.53.11-1.2.2-2a20.009 20.009 0 0 1-5.95 3.8c-5.87 2.47-4.43 7.06-11 9.87Z"/><path fill="#54B862" d="M278.33 372.91a9.313 9.313 0 0 1 0-3.87 2.103 2.103 0 0 0-.3-1.72l-.1-.14-.63 1.65a2.313 2.313 0 0 1-1.43 1.24 2.359 2.359 0 0 1-2.93-1.45l-.05-.16a6.081 6.081 0 0 0-5.38-4l-2.55-.14a1.838 1.838 0 0 0-1.8 1.13c-2.62 6.32-9.22 13.35-14.3 16.57-3.73-.09-8.36 3-8.36 6.78v.37c4.18 6.71 14.24 6.16 20.82 3.36 6.58-2.8 5.13-7.4 11-9.86a20.009 20.009 0 0 0 5.95-3.8c.299-1.974.319-3.98.06-5.96Z"/><path fill="#000" d="M278.33 372.91a9.313 9.313 0 0 1 0-3.87 2.103 2.103 0 0 0-.3-1.72l-.1-.14-.63 1.65a2.313 2.313 0 0 1-1.43 1.24 2.359 2.359 0 0 1-2.93-1.45l-.05-.16a6.081 6.081 0 0 0-5.38-4l-2.55-.14a1.838 1.838 0 0 0-1.8 1.13c-2.62 6.32-9.22 13.35-14.3 16.57-3.73-.09-8.36 3-8.36 6.78v.37c4.18 6.71 14.24 6.16 20.82 3.36 6.58-2.8 5.13-7.4 11-9.86a20.009 20.009 0 0 0 5.95-3.8c.299-1.974.319-3.98.06-5.96Z" opacity=".2"/><path fill="#fff" d="M278.33 372.91a9.313 9.313 0 0 1 0-3.87 2.103 2.103 0 0 0-.3-1.72l-.1-.14-.63 1.65a2.313 2.313 0 0 1-1.43 1.24 2.359 2.359 0 0 1-2.93-1.45l-.05-.16a6.081 6.081 0 0 0-5.38-4l-2.55-.14a1.838 1.838 0 0 0-1.8 1.13c-2.62 6.32-9.22 13.35-14.3 16.57-3.73-.09-8.36 3-8.36 6.78v.37c4.18 6.71 14.24 6.16 20.82 3.36 6.58-2.8 5.13-7.4 11-9.86a20.009 20.009 0 0 0 5.95-3.8c.299-1.974.319-3.98.06-5.96Z" opacity=".25"/><path fill="#fff" d="M265.6 378.1a.83.83 0 0 0 1.3-1 9.514 9.514 0 0 0-8.58-3.77c-.35.43-.71.86-1.08 1.28a9.197 9.197 0 0 1 8.36 3.49ZM268.19 375.2a.854.854 0 0 0 1.17.11.821.821 0 0 0 .13-1.15 10.014 10.014 0 0 0-3.971-3.1 10.01 10.01 0 0 0-4.979-.77c-.32.47-.65.94-1 1.4 3.22-.22 6.09.38 8.65 3.51ZM262.91 380.94a.842.842 0 0 0 1.425-.461.838.838 0 0 0-.125-.589 9.493 9.493 0 0 0-8.36-3.78c-.42.44-.85.88-1.28 1.3a9.175 9.175 0 0 1 8.34 3.53ZM248.89 382c-3.73-.09-8.36 3-8.36 6.78v.37c4.12 6.61 13.94 6.17 20.52 3.47-.51-9.01-9.18-10.62-12.16-10.62ZM260.14 383.65a.816.816 0 0 0 1.16.1.813.813 0 0 0 .279-.867.81.81 0 0 0-.149-.283 9.479 9.479 0 0 0-8.37-3.78c-.53.46-1.05.9-1.57 1.32 3.21-.23 6.08.38 8.65 3.51Z"/><path fill="#37474F" d="M290.51 336.33c-1.92 8.1-5 13.67-8.54 24.55 0 0-10.31 1.24-15.68-4.07l4.63-28.44 19.59 7.96Z"/><path fill="#455A64" d="M165.54 277.85v85.78l3.03-1.76v-85.78l-3.03 1.76Z"/><path fill="#37474F" d="M165.54 277.85v85.78l-3.03-1.76v-85.78l3.03 1.76Z"/><path fill="#455A64" d="m168.57 300.72 71-40.99v-3.26l-71 40.99v3.26Z"/><path fill="#37474F" d="m168.57 294.02 67.96-39.3 3.04 1.75-71 40.99v-3.44Z"/><path fill="#455A64" d="M379.81 316.16v85.78l3.04-1.75v-85.78l-3.04 1.75Z"/><path fill="#37474F" d="M379.81 316.16v85.78l-3.03-1.75v-85.78l3.03 1.75Z"/><path fill="#455A64" d="M305.79 358.92v85.78l3.03-1.76v-85.78l-3.03 1.76Z"/><path fill="#37474F" d="M305.79 358.92v85.78l-3.04-1.76v-85.78l3.04 1.76Z"/><path fill="#455A64" d="m308.82 381.79 70.99-40.99v-3.25l-70.99 40.98v3.26Z"/><path fill="#37474F" d="m308.82 375.09 67.96-39.3 3.03 1.76-70.99 40.98v-3.44Z"/><g fill="#fff" opacity=".2"><path d="M379.81 316.16v85.78l3.04-1.75v-85.78l-3.04 1.75ZM379.81 316.16v85.78l-3.03-1.75v-85.78l3.03 1.75ZM305.79 358.92v85.78l3.03-1.76v-85.78l-3.03 1.76ZM305.79 358.92v85.78l-3.04-1.76v-85.78l3.04 1.76Z"/><path d="m308.82 381.79 70.99-40.99v-3.25l-70.99 40.98v3.26ZM308.82 375.09l67.96-39.3 3.03 1.76-70.99 40.98v-3.44Z"/></g><g fill="#fff" opacity=".2"><path d="M165.54 277.85v85.78l3.03-1.76v-85.78l-3.03 1.76ZM165.54 277.85v85.78l-3.03-1.76v-85.78l3.03 1.76ZM168.57 300.72l71-40.99v-3.26l-71 40.99v3.26Z"/><path d="m168.57 294.02 67.96-39.3 3.04 1.75-71 40.99v-3.44Z"/></g><path fill="#455A64" d="M305.79 350.63 162.5 268.05l77.06-44.51 143.29 82.59-77.06 44.5Z"/><path fill="#455A64" d="M305.79 358.92 162.5 276.09v-8.04l143.29 82.58v8.29ZM305.79 350.63l77.06-44.51v8.29l-77.06 44.51v-8.29Z"/><path fill="#fff" d="M305.79 350.63 162.5 268.05l77.06-44.51 143.29 82.59-77.06 44.5Z" opacity=".3"/><path fill="#fff" d="m305.79 350.63 77.06-44.51v8.29l-77.06 44.51v-8.29Z" opacity=".1"/><path fill="#fff" d="M305.79 358.92 162.5 276.09v-8.04l143.29 82.58v8.29Z" opacity=".2"/><path fill="#E6E6E6" d="m246.75 243.2-11.49 25.12-29.99-4.65 11.48-25.12 30 4.65Z"/><path fill="#F0F0F0" d="m258.01 248.06-25.97 21.18-25.31-10.43 25.96-21.18 25.32 10.43Z"/><path fill="#fff" d="m263.33 240.99 15.55 15.57-38.84 12.98-15.57-15.58 38.86-12.97Z"/><path fill="#E0E0E0" d="m240.19 283.42 31.44-18.28a7.138 7.138 0 0 1 6.46 0L330 295.09a2.318 2.318 0 0 1 1.33 1.78v2c.015.14.015.28 0 .42a2.261 2.261 0 0 1-.22.44c-.11.163-.241.311-.39.44a3.74 3.74 0 0 1-.58.42L298.55 319a5.164 5.164 0 0 1-.9.39l-.35.11-.46.11-.56.1H294.39c-.25 0-.5-.07-.74-.12h-.13a5.762 5.762 0 0 1-.63-.2h-.12a6.323 6.323 0 0 1-.69-.33L240.21 289a3.451 3.451 0 0 1-.59-.42c-.06-.05-.1-.11-.15-.16a2.48 2.48 0 0 1-.27-.3.863.863 0 0 1-.1-.19 2.27 2.27 0 0 1-.16-.3 1.472 1.472 0 0 1 0-.21c-.01-.1-.01-.2 0-.3v-1.84a2.265 2.265 0 0 1 1.25-1.86Z"/><path fill="#000" d="M331.29 296.87c.018.191.001.385-.05.57a2.261 2.261 0 0 1-.22.44v.05a2.527 2.527 0 0 1-.39.43c-.18.158-.374.299-.58.42l-31.44 18.27a5.164 5.164 0 0 1-.9.39l-.35.11-.46.11a5.092 5.092 0 0 1-.56.1H294.45c-.25 0-.5-.08-.74-.13h-.13a5.762 5.762 0 0 1-.63-.2h-.12a6.236 6.236 0 0 1-.69-.33l-51.87-29.95a3.451 3.451 0 0 1-.59-.42 1.137 1.137 0 0 1-.15-.16 1.874 1.874 0 0 1-.27-.3.863.863 0 0 1-.1-.19 2.158 2.158 0 0 1-.16-.3 1.472 1.472 0 0 1 0-.21c-.01-.1-.01-.2 0-.3v1.84c-.01.1-.01.2 0 .3-.005.07-.005.14 0 .21.045.104.099.204.16.3a.863.863 0 0 0 .1.19c.082.107.172.208.27.3.05.05.09.11.15.16.181.16.379.301.59.42L292.08 319c.223.124.454.234.69.33h.12c.206.079.416.145.63.2h.13c.24 0 .49.09.74.12H296.28l.56-.1.46-.11.35-.11c.312-.101.613-.232.9-.39L330 300.68c.206-.121.4-.262.58-.42.149-.129.28-.277.39-.44.089-.138.163-.286.22-.44.015-.14.015-.28 0-.42v-2l.1-.09Z" opacity=".3"/><path fill="#E0E0E0" d="m243.26 285.28 50.4 29.1c.063.037.13.067.2.09h.11c.126.051.257.091.39.12l.28.05H295.32c.173.013.347.013.52 0l.33-.05.41-.11c.121-.04.238-.09.35-.15l16.25-9.33-52.06-30.1-17.86 10.38ZM291.21 277.28l-9.49 5.58a.992.992 0 0 0-.319.359.993.993 0 0 0 0 .932.992.992 0 0 0 .319.359l14.18 8.19a1.566 1.566 0 0 0 1.58 0l9.48-5.57a1.004 1.004 0 0 0 .325-1.3.995.995 0 0 0-.325-.36l-14.18-8.19a1.567 1.567 0 0 0-1.57 0Z"/><path fill="#000" d="m243.26 285.28 50.4 29.1c.063.037.13.067.2.09h.11c.126.051.257.091.39.12l.28.05H295.32c.173.013.347.013.52 0l.33-.05.41-.11c.121-.04.238-.09.35-.15l16.25-9.33-52.06-30.1-17.86 10.38ZM291.21 277.28l-9.49 5.58a.992.992 0 0 0-.319.359.993.993 0 0 0 0 .932.992.992 0 0 0 .319.359l14.18 8.19a1.566 1.566 0 0 0 1.58 0l9.48-5.57a1.004 1.004 0 0 0 .325-1.3.995.995 0 0 0-.325-.36l-14.18-8.19a1.567 1.567 0 0 0-1.57 0Z" opacity=".2"/><path fill="#FFA8A7" d="m316.2 233.37-6.34 16-25 10.31a10.339 10.339 0 0 1-4.79.74l-9.63-.79a5.462 5.462 0 0 0-3.23.76l-5.51 3.34a5.911 5.911 0 0 0-1.47 1.26l-2.7 3.2a1.997 1.997 0 0 0-.472 1.557 2 2 0 0 0 .842 1.393l1.7 1.22a6 6 0 0 0 6.23.48l4.26-2.15 8.81 1V274l-2.4 2a2.53 2.53 0 0 0 .06 3.9s5.89-1.74 11.22-10.29l31.31-6.61a10.485 10.485 0 0 0 7.72-6.77l6-17-16.61-5.86Z"/><path fill="#54B862" d="M333.44 206.24c-4.26-.48-6.84-.3-10.88 6.49-4.9 8.23-9.59 24-9.59 24 9.41 4.6 20.47 5.35 20.47 5.35 2.39-6.02 0-35.84 0-35.84Z"/><path fill="#fff" d="M333.44 206.24c-4.26-.48-6.84-.3-10.88 6.49-4.9 8.23-9.59 24-9.59 24 9.41 4.6 20.47 5.35 20.47 5.35 2.39-6.02 0-35.84 0-35.84Z" opacity=".3"/><path fill="#54B862" d="M367.8 213.72c-13.39-6.28-23.42-7-34.36-7.48-16.38 10.54-10.25 19.32-10 33.4.24 11.86 2.45 19.77-2.69 30.71l31.74 18.3c9.21-.11 16.6-2.28 19.6-4.19 4.21-38.96 2.98-67.74-4.29-70.74Z"/><path fill="#fff" d="M367.8 213.72c-13.39-6.28-23.42-7-34.36-7.48-16.38 10.54-10.25 19.32-10 33.4.24 11.86 2.45 19.77-2.69 30.71l31.74 18.3c9.21-.11 16.6-2.28 19.6-4.19 4.21-38.96 2.98-67.74-4.29-70.74Z" opacity=".5"/><path fill="#FFA8A7" d="m354.55 250.38-4 17.7L323 279.44a11.433 11.433 0 0 1-5.27.82l-10.61-.87a5.92 5.92 0 0 0-3.56.83l-6.08 3.68a6.515 6.515 0 0 0-1.62 1.39l-3 3.52a2.224 2.224 0 0 0-.506 1.715 2.23 2.23 0 0 0 .916 1.535l1.87 1.34a6.629 6.629 0 0 0 6.86.53l4.7-2.37 7.71 1.4a15.43 15.43 0 0 0 10.19-1.68l1.62-.9 33.62-7.1a11.526 11.526 0 0 0 8.86-8.72l4.53-19.56-18.68-4.62Z"/><path fill="#54B862" d="M367.8 213.72c16 6 12.38 20.24 6.46 42.8-9.53 2.64-20.82-5.66-20.82-5.66 3.13-17.86 4.32-37.42 14.36-37.14Z"/><path fill="#fff" d="M367.8 213.72c16 6 12.38 20.24 6.46 42.8-9.53 2.64-20.82-5.66-20.82-5.66 3.13-17.86 4.32-37.42 14.36-37.14Z" opacity=".3"/><path fill="#E0E0E0" d="m231.72 246.79 1.24-.62a1.565 1.565 0 0 1 1.39.09l52.23 30.37a6.289 6.289 0 0 1 3.06 4.47l5.36 34.15a1.55 1.55 0 0 1-.88 1.65l-1.21.59a1.553 1.553 0 0 1-1.35-.11L239.37 287a6.307 6.307 0 0 1-3.06-4.47l-5.37-34.15a1.544 1.544 0 0 1 .141-.917c.139-.285.362-.519.639-.673Z"/><path fill="#fff" d="M260.21 278a11.532 11.532 0 0 1 5.18 7.46c.34 2.67-1.42 3.66-3.95 2.2a11.59 11.59 0 0 1-5.18-7.47c-.34-2.62 1.43-3.61 3.95-2.19Z"/><path fill="#000" d="m294 315.77-5.37-34.14a6.321 6.321 0 0 0-3.06-4.48l-52.23-30.36a1.547 1.547 0 0 0-1.57 0l1.24-.62a1.565 1.565 0 0 1 1.39.09l52.23 30.37a6.289 6.289 0 0 1 3.06 4.47l5.31 34.15a1.55 1.55 0 0 1-.88 1.65l-1.21.59a1.572 1.572 0 0 0 1.09-1.72Z" opacity=".3"/><path fill="#37474F" d="M324 189.41a11.72 11.72 0 0 1-3.26-15.47 6.383 6.383 0 0 1-3.09-2.91 3.407 3.407 0 0 1 .671-3.777 3.415 3.415 0 0 1 3.759-.763 4.804 4.804 0 0 1 1.92-5.59 4.505 4.505 0 0 1 5.61 1 3.09 3.09 0 0 1 2.09-3 6.227 6.227 0 0 1 3.9.25c1.25.43 2.43 1 3.69 1.45 2.173.54 4.401.825 6.64.85 2.246.019 4.45.604 6.41 1.7 1.87 1.22 3.53 4.06 2.52 6.5a3.71 3.71 0 0 1 2.66-1.41 3.564 3.564 0 0 1 2.73 1.16c-1.4.87-2.75 1.8-4.14 2.66 1.4-.63 3.5.36 4.26 1.7.651 1.405.91 2.96.75 4.5A60.004 60.004 0 0 1 358 195.5c-.95 2.87-2.33 5.91-5 7.24l-29-13.33Z"/><path fill="#FFA8A7" d="m338.8 203.23.62 6.86a2.61 2.61 0 0 1-.39 1.51 3.91 3.91 0 0 0 .6 4.49 5.112 5.112 0 0 0 3.07 1 14.815 14.815 0 0 0 11.3-4.34 3.23 3.23 0 0 0 .9-2.35l-.45-17.4-15.65 10.23Z"/><path fill="#000" d="m353.11 193.9-14.31 9.33.55 6.08c3.32-.78 6.67-1.74 9.3-3.88a12.737 12.737 0 0 0 4.46-11.53Z" opacity=".3"/><path fill="#FFA8A7" d="M323.21 175.27a61.423 61.423 0 0 0 1.54 23.8 18.514 18.514 0 0 0 1.89 4.89 7.84 7.84 0 0 0 3.86 3.42c2 .76 4.26.39 6.38 0 3.89-.68 7.87-1.4 11.24-3.45 3.37-2.05 6.05-5.73 5.72-9.66a6.744 6.744 0 0 0 6.45.36 6.872 6.872 0 0 0 3.54-5.47c.15-2.2-1.12-4.65-3.28-5.08a4.734 4.734 0 0 0-3.76 1.09 13.992 13.992 0 0 0-2.62 3.06 4.62 4.62 0 0 1-1.31 1.4 1.58 1.58 0 0 1-1.8 0 2.346 2.346 0 0 1-.51-2l.22-5a2.002 2.002 0 0 0-1.1-1.85 4.871 4.871 0 0 1-2.23-2.57 9.852 9.852 0 0 1-.63-3 1.232 1.232 0 0 0-1.68-1.05c-6.69 2.76-15.02 2.84-21.92 1.11Z"/><path fill="#F28F8F" d="m334.17 187.35-4.48 7.54 5.34 1-.86-8.54ZM340.18 198.49l-4.06 2a2.663 2.663 0 0 0 3.08.88 2.421 2.421 0 0 0 .98-2.88Z"/><path fill="#000" d="m340.18 198.49-4.06 2a2.663 2.663 0 0 0 3.08.88 2.421 2.421 0 0 0 .98-2.88Z" opacity=".3"/><path fill="#F28F8F" d="M337.79 201.47c.472.099.964.054 1.41-.13a2.172 2.172 0 0 0 1.08-2.14 2.442 2.442 0 0 0-2.49 2.27Z"/><path fill="#263238" d="M341.9 187.65a1.535 1.535 0 0 1-.806 1.493 1.527 1.527 0 0 1-2.181-.906 1.533 1.533 0 0 1 1.307-1.967 1.538 1.538 0 0 1 1.68 1.38ZM329 188.44a1.531 1.531 0 0 1-2.489 1.338A1.529 1.529 0 1 1 329 188.44ZM326.94 182.52l-3.15 2.68a2.19 2.19 0 0 1 .42-2.46 2.603 2.603 0 0 1 2.73-.22ZM340 181l3.62 2a2.192 2.192 0 0 0-.9-2.33 2.594 2.594 0 0 0-2.72.33Z"/></svg>