<svg xmlns="http://www.w3.org/2000/svg" width="500" height="500" fill="none"><path fill="#54B862" d="M450.6 219.14c2.07-27.54-4.34-56.32-12.92-82C424.93 99.09 400.17 60 358.48 51c-24-5.2-48.5.37-69.11 13.39-19.82 12.53-35.28 28.71-59.64 31.85-24.65 3.17-49.94 1.89-74.72 1.89-63.7 0-115.4 66.93-102.48 136.64 12.92 69.71 73.86 118 125.56 118 46.45 0 84.67-27.87 128.8-35.36 21.88-3.71 43.85.68 65.51-4.88 25.16-6.46 48.83-21.88 62.77-44.21 9.51-15.16 14.13-31.93 15.43-49.18Z"/><path fill="#fff" d="M450.6 219.14c2.07-27.54-4.34-56.32-12.92-82C424.93 99.09 400.17 60 358.48 51c-24-5.2-48.5.37-69.11 13.39-19.82 12.53-35.28 28.71-59.64 31.85-24.65 3.17-49.94 1.89-74.72 1.89-63.7 0-115.4 66.93-102.48 136.64 12.92 69.71 73.86 118 125.56 118 46.45 0 84.67-27.87 128.8-35.36 21.88-3.71 43.85.68 65.51-4.88 25.16-6.46 48.83-21.88 62.77-44.21 9.51-15.16 14.13-31.93 15.43-49.18Z" opacity=".7"/><path fill="#54B862" d="M98.06 274.19s4.68-3.7 5.88-6.07c1-2 1.76-4.87.7-7a4.001 4.001 0 0 0-5.64-1.85c-2.88 1.8-3.18 7.9-2.45 10.84.01.26 1.45 4.11 1.51 4.08ZM54.81 305c.2.18 3.53 2.6 3.55 2.54.02-.06 1.86-5.66 1.56-8.3-.27-2.25-1.22-5-3.29-6.25a3.986 3.986 0 0 0-3.238-.479 3.998 3.998 0 0 0-2.512 2.099c-1.41 3.04 1.7 8.31 3.93 10.39ZM152.83 279.78s-17.13 17.68-17 39.39c.13 21.71 17.37 39.25 17.37 39.25s17.12-17.68 17-39.4c-.12-21.72-17.37-39.24-17.37-39.24Z"/><path fill="#54B862" d="M128.41 332.18c.226-.244.433-.505.62-.78 1.25-1.89 2.31-4.64 1.51-6.9a3.986 3.986 0 0 0-.813-1.468 3.986 3.986 0 0 0-2.983-1.371 3.993 3.993 0 0 0-1.644.339c-2.32 1.09-3.47 4.82-3.71 7.87-.93-.21-1.77-.37-2.48-.49l-.93-2.09c-.34-.72-.58-1.45-.87-2.18-.41-1.09-.78-2.23-1.15-3.36 1.35-.61 5.3-2.45 6.77-4.08 1.47-1.63 3-4.23 2.53-6.59a4.007 4.007 0 0 0-1.77-2.75 3.998 3.998 0 0 0-3.23-.51c-3.25 1-5.16 6.78-5.23 9.81 0 .1 0 .74.12 1.5-.33-1.12-.66-2.24-1-3.38-.83-3.26-1.58-6.59-2.35-9.93-.16-.7-.33-1.39-.49-2.09 1.14-.5 5.43-2.46 7-4.17 1.57-1.71 3-4.23 2.54-6.59a4.007 4.007 0 0 0-1.77-2.75 3.998 3.998 0 0 0-3.23-.51c-3.25 1-5.16 6.78-5.23 9.81 0 .11.07.87.14 1.73-.44-1.81-.9-3.61-1.42-5.38a69.773 69.773 0 0 0-3.19-8.92c.4-.18 5.48-2.37 7.19-4.27 1.52-1.67 3-4.23 2.54-6.59a4.007 4.007 0 0 0-1.77-2.75 3.998 3.998 0 0 0-3.23-.51c-3.25 1-5.16 6.78-5.23 9.81 0 .21.25 3 .37 4a.506.506 0 0 0 0-.11 52.517 52.517 0 0 0-4.66-8.05 71.015 71.015 0 0 0-5.2-6.48c-1.68-1.94-3.35-3.62-4.83-5.09a98.3 98.3 0 0 0-2.28-2.15h.07c.07 0-1.58-3.78-1.71-4-1.52-2.62-6-6.79-9.31-6.07a3.994 3.994 0 0 0-2.586 2.005 4.002 4.002 0 0 0-.224 3.265c.74 2.28 3.26 3.81 5.4 4.55 2.14.74 7 .39 8.16.29.73.69 1.49 1.44 2.32 2.29 1.45 1.5 3.07 3.2 4.71 5.18.44.52.89 1.1 1.33 1.66-.94-.78-2.25-1.84-2.39-1.93-2.56-1.62-8.45-3.26-11.06-1.09a3.994 3.994 0 0 0-1.39 2.984 3.999 3.999 0 0 0 1.32 3.016c1.71 1.68 4.65 1.88 6.89 1.55 2.24-.33 6.5-2.95 7.41-3.53 1 1.25 1.94 2.55 2.86 4a51.897 51.897 0 0 1 4.43 8.05c.07.16.12.34.19.5-.4-.46-2.78-2.87-3-3-2.36-1.89-8-4.17-10.87-2.3a4.005 4.005 0 0 0-1.69 2.804 3.994 3.994 0 0 0 .97 3.126c1.51 1.85 4.41 2.38 6.67 2.29 2.61-.09 7.74-2.68 7.94-2.78a71.001 71.001 0 0 1 2.89 8.7c.59 2.19 1.09 4.43 1.57 6.68-.53-.59-2.75-2.83-2.92-3-2.37-1.9-8-4.17-10.88-2.31a4.003 4.003 0 0 0-1.54 4.47c.168.539.447 1.037.82 1.46 1.51 1.86 4.42 2.38 6.68 2.3 2.54-.09 7.47-2.55 7.88-2.76.22 1 .45 2 .66 3.07.69 3.35 1.37 6.72 2.14 10 .27 1.15.57 2.26.88 3.38-.84-.86-2.38-2.42-2.52-2.53-2.37-1.9-8-4.18-10.88-2.31a4.004 4.004 0 0 0-1.54 4.47c.168.539.447 1.037.82 1.46 1.51 1.86 4.42 2.38 6.68 2.3 2.26-.08 6.46-2.06 7.63-2.64.51 1.86 1.07 3.7 1.69 5.48.29.76.54 1.55.86 2.27l.47 1.14-.65-.07s-.05 1.06 0 2.79c-2.49-1.78-6.08-3.31-8.42-2.23-.506.248-.955.6-1.316 1.033a4.014 4.014 0 0 0-.882 3.151c.084.557.284 1.091.588 1.566.155.252.329.493.52.72a15.587 15.587 0 0 0 3.22 7.17c.13.15 1.82 1.71 2.71 2.49-.86-.46-1.71-.92-2.59-1.42-1.27-.7-2.59-1.49-3.88-2.24l-2-1.26c-.68-.42-1.28-.89-1.93-1.34-.94-.68-1.88-1.43-2.81-2.17.79-1.25 3.07-5 3.39-7.13.32-2.13.16-5.18-1.51-6.9a3.991 3.991 0 0 0-4.646-1 3.99 3.99 0 0 0-1.354 1c-2.18 2.6-.56 8.5 1 11.07 0 .08.45.59.93 1.18-.89-.75-1.79-1.5-2.67-2.29-2.49-2.25-5-4.62-7.44-7l-1.56-1.47c.68-1 3.18-5 3.52-7.32.34-2.32.15-5.18-1.52-6.89a3.988 3.988 0 0 0-3-1.354 3.991 3.991 0 0 0-3 1.354c-2.18 2.6-.57 8.5 1 11.06 0 .09.53.7 1.07 1.37-1.37-1.27-2.75-2.51-4.15-3.7a71.36 71.36 0 0 0-7.59-5.69c.24-.36 3.26-5 3.64-7.52.34-2.24.16-5.18-1.52-6.89a3.988 3.988 0 0 0-3-1.354 3.991 3.991 0 0 0-3 1.354c-2.18 2.6-.56 8.5 1.05 11.06.11.18 1.85 2.35 2.5 3.11l-.09-.07a53.025 53.025 0 0 0-8.34-4.14 70.589 70.589 0 0 0-7.89-2.62c-2.48-.69-4.8-1.17-6.84-1.58-1.12-.21-2.14-.38-3.09-.54h.06s-3.41-2.28-3.65-2.4c-2.71-1.35-8.74-2.35-11.11.07a4.001 4.001 0 0 0 .56 5.95c1.88 1.49 4.82 1.38 7 .82 2.18-.56 6-3.53 7-4.27 1 .18 2 .38 3.2.63 2 .45 4.33 1 6.79 1.72l2 .65c-1.22-.13-2.89-.28-3.06-.28-3 .06-8.84 1.94-9.83 5.19a3.999 3.999 0 0 0 3.24 5c2.35.45 4.92-1 6.6-2.51 1.68-1.51 3.8-6.05 4.24-7 1.49.51 3 1.07 4.57 1.74a51.32 51.32 0 0 1 8.14 4.27c.15.1.29.22.44.31-.6-.16-3.91-.86-4.15-.88-3-.28-9 1-10.34 4.08a4 4 0 0 0 2.97 5.3c2.29.71 5-.45 6.84-1.77 2.12-1.51 5-6.5 5.08-6.69a69.575 69.575 0 0 1 7.21 5.66c1.7 1.5 3.35 3.09 5 4.7-.78-.2-3.86-.84-4.08-.86-3-.28-9 .95-10.34 4.07a3.998 3.998 0 0 0 2.66 5.34c2.29.72 5-.45 6.84-1.76 2.07-1.48 4.82-6.25 5-6.66.75.74 1.5 1.46 2.24 2.2 2.43 2.42 4.85 4.85 7.32 7.18.85.8 1.72 1.56 2.59 2.33-1.17-.26-3.31-.71-3.5-.72-3-.28-9 .95-10.34 4.07a4.003 4.003 0 0 0 1.183 4.575c.436.357.943.617 1.487.765 2.28.72 5-.45 6.83-1.76s4.25-5.28 4.92-6.41c1.45 1.27 2.92 2.49 4.43 3.63.66.48 1.3 1 2 1.42l1.95 1.31c1.36.84 2.62 1.63 3.91 2.38l1.9 1.09c-1.15-.44-3-1.12-3.15-1.16-2.94-.74-9-.42-10.84 2.46A3.998 3.998 0 0 0 99 354c2.15 1.05 5 .31 7-.71 2.22-1.12 5.57-5.27 6-5.78 1.55.89 3.08 1.74 4.52 2.51 3.84 2.05 7.19 3.69 9.8 4.92 8.45 7.31 20.36 8.11 20.36 8.11s.62-14.25-7.77-23.64a29.362 29.362 0 0 0-10.5-7.23Zm-15.1 13.9c.26-.58 2.29-5.11 2.43-7.67.47-.08.94-.18 1.4-.29a32.99 32.99 0 0 0 5.25 12.55c-1.53-.73-3.2-1.54-5-2.44-1.28-.66-2.67-1.39-4.08-2.15ZM190.79 329.45s-14.27.44-23 9.51-8.62 23.34-8.62 23.34 14.26-.44 23-9.51 8.62-23.34 8.62-23.34Z"/><g fill="#fff" opacity=".5"><path d="M98.06 274.19s4.68-3.7 5.88-6.07c1-2 1.76-4.87.7-7a4.001 4.001 0 0 0-5.64-1.85c-2.88 1.8-3.18 7.9-2.45 10.84.01.26 1.45 4.11 1.51 4.08ZM54.81 305c.2.18 3.53 2.6 3.55 2.54.02-.06 1.86-5.66 1.56-8.3-.27-2.25-1.22-5-3.29-6.25a3.986 3.986 0 0 0-3.238-.479 3.998 3.998 0 0 0-2.512 2.099c-1.41 3.04 1.7 8.31 3.93 10.39ZM152.83 279.78s-17.13 17.68-17 39.39c.13 21.71 17.37 39.25 17.37 39.25s17.12-17.68 17-39.4c-.12-21.72-17.37-39.24-17.37-39.24Z"/><path d="M128.41 332.18c.226-.244.433-.505.62-.78 1.25-1.89 2.31-4.64 1.51-6.9a3.986 3.986 0 0 0-.813-1.468 3.986 3.986 0 0 0-2.983-1.371 3.993 3.993 0 0 0-1.644.339c-2.32 1.09-3.47 4.82-3.71 7.87-.93-.21-1.77-.37-2.48-.49l-.93-2.09c-.34-.72-.58-1.45-.87-2.18-.41-1.09-.78-2.23-1.15-3.36 1.35-.61 5.3-2.45 6.77-4.08 1.47-1.63 3-4.23 2.53-6.59a4.007 4.007 0 0 0-1.77-2.75 3.998 3.998 0 0 0-3.23-.51c-3.25 1-5.16 6.78-5.23 9.81 0 .1 0 .74.12 1.5-.33-1.12-.66-2.24-1-3.38-.83-3.26-1.58-6.59-2.35-9.93-.16-.7-.33-1.39-.49-2.09 1.14-.5 5.43-2.46 7-4.17 1.57-1.71 3-4.23 2.54-6.59a4.007 4.007 0 0 0-1.77-2.75 3.998 3.998 0 0 0-3.23-.51c-3.25 1-5.16 6.78-5.23 9.81 0 .11.07.87.14 1.73-.44-1.81-.9-3.61-1.42-5.38a69.773 69.773 0 0 0-3.19-8.92c.4-.18 5.48-2.37 7.19-4.27 1.52-1.67 3-4.23 2.54-6.59a4.007 4.007 0 0 0-1.77-2.75 3.998 3.998 0 0 0-3.23-.51c-3.25 1-5.16 6.78-5.23 9.81 0 .21.25 3 .37 4a.506.506 0 0 0 0-.11 52.517 52.517 0 0 0-4.66-8.05 71.015 71.015 0 0 0-5.2-6.48c-1.68-1.94-3.35-3.62-4.83-5.09a98.3 98.3 0 0 0-2.28-2.15h.07c.07 0-1.58-3.78-1.71-4-1.52-2.62-6-6.79-9.31-6.07a3.994 3.994 0 0 0-2.586 2.005 4.002 4.002 0 0 0-.224 3.265c.74 2.28 3.26 3.81 5.4 4.55 2.14.74 7 .39 8.16.29.73.69 1.49 1.44 2.32 2.29 1.45 1.5 3.07 3.2 4.71 5.18.44.52.89 1.1 1.33 1.66-.94-.78-2.25-1.84-2.39-1.93-2.56-1.62-8.45-3.26-11.06-1.09a3.994 3.994 0 0 0-1.39 2.984 3.999 3.999 0 0 0 1.32 3.016c1.71 1.68 4.65 1.88 6.89 1.55 2.24-.33 6.5-2.95 7.41-3.53 1 1.25 1.94 2.55 2.86 4a51.897 51.897 0 0 1 4.43 8.05c.07.16.12.34.19.5-.4-.46-2.78-2.87-3-3-2.36-1.89-8-4.17-10.87-2.3a4.005 4.005 0 0 0-1.69 2.804 3.994 3.994 0 0 0 .97 3.126c1.51 1.85 4.41 2.38 6.67 2.29 2.61-.09 7.74-2.68 7.94-2.78a71.001 71.001 0 0 1 2.89 8.7c.59 2.19 1.09 4.43 1.57 6.68-.53-.59-2.75-2.83-2.92-3-2.37-1.9-8-4.17-10.88-2.31a4.003 4.003 0 0 0-1.54 4.47c.168.539.447 1.037.82 1.46 1.51 1.86 4.42 2.38 6.68 2.3 2.54-.09 7.47-2.55 7.88-2.76.22 1 .45 2 .66 3.07.69 3.35 1.37 6.72 2.14 10 .27 1.15.57 2.26.88 3.38-.84-.86-2.38-2.42-2.52-2.53-2.37-1.9-8-4.18-10.88-2.31a4.004 4.004 0 0 0-1.54 4.47c.168.539.447 1.037.82 1.46 1.51 1.86 4.42 2.38 6.68 2.3 2.26-.08 6.46-2.06 7.63-2.64.51 1.86 1.07 3.7 1.69 5.48.29.76.54 1.55.86 2.27l.47 1.14-.65-.07s-.05 1.06 0 2.79c-2.49-1.78-6.08-3.31-8.42-2.23-.506.248-.955.6-1.316 1.033a4.014 4.014 0 0 0-.882 3.151c.084.557.284 1.091.588 1.566.155.252.329.493.52.72a15.587 15.587 0 0 0 3.22 7.17c.13.15 1.82 1.71 2.71 2.49-.86-.46-1.71-.92-2.59-1.42-1.27-.7-2.59-1.49-3.88-2.24l-2-1.26c-.68-.42-1.28-.89-1.93-1.34-.94-.68-1.88-1.43-2.81-2.17.79-1.25 3.07-5 3.39-7.13.32-2.13.16-5.18-1.51-6.9a3.991 3.991 0 0 0-4.646-1 3.99 3.99 0 0 0-1.354 1c-2.18 2.6-.56 8.5 1 11.07 0 .08.45.59.93 1.18-.89-.75-1.79-1.5-2.67-2.29-2.49-2.25-5-4.62-7.44-7l-1.56-1.47c.68-1 3.18-5 3.52-7.32.34-2.32.15-5.18-1.52-6.89a3.988 3.988 0 0 0-3-1.354 3.991 3.991 0 0 0-3 1.354c-2.18 2.6-.57 8.5 1 11.06 0 .09.53.7 1.07 1.37-1.37-1.27-2.75-2.51-4.15-3.7a71.36 71.36 0 0 0-7.59-5.69c.24-.36 3.26-5 3.64-7.52.34-2.24.16-5.18-1.52-6.89a3.988 3.988 0 0 0-3-1.354 3.991 3.991 0 0 0-3 1.354c-2.18 2.6-.56 8.5 1.05 11.06.11.18 1.85 2.35 2.5 3.11l-.09-.07a53.025 53.025 0 0 0-8.34-4.14 70.589 70.589 0 0 0-7.89-2.62c-2.48-.69-4.8-1.17-6.84-1.58-1.12-.21-2.14-.38-3.09-.54h.06s-3.41-2.28-3.65-2.4c-2.71-1.35-8.74-2.35-11.11.07a4.001 4.001 0 0 0 .56 5.95c1.88 1.49 4.82 1.38 7 .82 2.18-.56 6-3.53 7-4.27 1 .18 2 .38 3.2.63 2 .45 4.33 1 6.79 1.72l2 .65c-1.22-.13-2.89-.28-3.06-.28-3 .06-8.84 1.94-9.83 5.19a3.999 3.999 0 0 0 3.24 5c2.35.45 4.92-1 6.6-2.51 1.68-1.51 3.8-6.05 4.24-7 1.49.51 3 1.07 4.57 1.74a51.32 51.32 0 0 1 8.14 4.27c.15.1.29.22.44.31-.6-.16-3.91-.86-4.15-.88-3-.28-9 1-10.34 4.08a4 4 0 0 0 2.97 5.3c2.29.71 5-.45 6.84-1.77 2.12-1.51 5-6.5 5.08-6.69a69.575 69.575 0 0 1 7.21 5.66c1.7 1.5 3.35 3.09 5 4.7-.78-.2-3.86-.84-4.08-.86-3-.28-9 .95-10.34 4.07a3.998 3.998 0 0 0 2.66 5.34c2.29.72 5-.45 6.84-1.76 2.07-1.48 4.82-6.25 5-6.66.75.74 1.5 1.46 2.24 2.2 2.43 2.42 4.85 4.85 7.32 7.18.85.8 1.72 1.56 2.59 2.33-1.17-.26-3.31-.71-3.5-.72-3-.28-9 .95-10.34 4.07a4.003 4.003 0 0 0 1.183 4.575c.436.357.943.617 1.487.765 2.28.72 5-.45 6.83-1.76s4.25-5.28 4.92-6.41c1.45 1.27 2.92 2.49 4.43 3.63.66.48 1.3 1 2 1.42l1.95 1.31c1.36.84 2.62 1.63 3.91 2.38l1.9 1.09c-1.15-.44-3-1.12-3.15-1.16-2.94-.74-9-.42-10.84 2.46A3.998 3.998 0 0 0 99 354c2.15 1.05 5 .31 7-.71 2.22-1.12 5.57-5.27 6-5.78 1.55.89 3.08 1.74 4.52 2.51 3.84 2.05 7.19 3.69 9.8 4.92 8.45 7.31 20.36 8.11 20.36 8.11s.62-14.25-7.77-23.64a29.362 29.362 0 0 0-10.5-7.23Zm-15.1 13.9c.26-.58 2.29-5.11 2.43-7.67.47-.08.94-.18 1.4-.29a32.99 32.99 0 0 0 5.25 12.55c-1.53-.73-3.2-1.54-5-2.44-1.28-.66-2.67-1.39-4.08-2.15ZM190.79 329.45s-14.27.44-23 9.51-8.62 23.34-8.62 23.34 14.26-.44 23-9.51 8.62-23.34 8.62-23.34Z"/></g><path fill="#fff" d="m153.53 338.64 14.01-12.6-.6-.66-13.41 12.06-.08-16.51.08.05 11.85-17.33-.75-.5-11.18 16.35-.17-39.72h-.9l.11 26.97-8.92-7.72-.58.68 9.51 8.23.08 19.28-13.52-11.97-.59.68 14.12 12.49.07 17.55L142.5 338l-.55.71 10.72 8.41.05 11.3.9-.01-.09-19.78v.01ZM140.63 343.5l-.9-.1-1.13 9.98-6.01-6.73h.01l-1.53-12.07-.89.11 1.37 10.8-14.96-16.72-.67.6 10.15 11.34-6.42.08.01.9 7.2-.09 7.12 7.96-10.05.01.01.89 10.84-.01 6.47 7.23-7.09.43.06.9 7.79-.47 4.31 4.81.67-.6-7.59-8.48 1.23-10.77ZM174.48 347.06l11.93-2.42-.18-.89-10.67 2.17 15.55-16.16-.64-.62-10.56 10.96-.56-6.4-.89.08.63 7.18-7.4 7.69-.77-10.02-.89.07.82 10.82-6.73 6.99-.95-7.03-.89.12 1.05 7.73-4.48 4.66.64.62 7.89-8.2 10.84.42.03-.9-10.03-.38 6.26-6.5v.01Z"/><path fill="#54B862" d="M238.34 377.82c77.767 0 140.81-3.304 140.81-7.38 0-4.076-63.043-7.38-140.81-7.38s-140.81 3.304-140.81 7.38c0 4.076 63.043 7.38 140.81 7.38Z"/><path fill="#fff" d="M238.34 377.82c77.767 0 140.81-3.304 140.81-7.38 0-4.076-63.043-7.38-140.81-7.38s-140.81 3.304-140.81 7.38c0 4.076 63.043 7.38 140.81 7.38Z" opacity=".5"/><path fill="#fff" stroke="#263238" stroke-linecap="round" stroke-linejoin="round" stroke-width="1.095" d="M272.42 337.64v-23.7h-69.8v23.7c0 7.73-10.12 13.22-15.88 20.49l-3.67 4.64H292l-3.67-4.64c-5.79-7.27-15.91-12.76-15.91-20.49Z"/><path fill="#54B862" d="M190.5 354.23h94.05c-3.36-6.06-12.13-10.76-12.13-16.59v-23.7h-69.8v23.7c0 5.83-8.77 10.53-12.12 16.59Z" style="mix-blend-mode:multiply"/><path fill="#263238" stroke="#263238" stroke-linecap="round" stroke-linejoin="round" stroke-width="1.095" d="M272.42 317.5h-69.8v10.01h69.8V317.5Z"/><path fill="#263238" stroke="#263238" stroke-linecap="round" stroke-linejoin="round" stroke-width="1.095" d="M368.51 111H106.54a9.29 9.29 0 0 0-9.29 9.29v191.83a9.29 9.29 0 0 0 9.29 9.29h261.97a9.29 9.29 0 0 0 9.29-9.29V120.29a9.29 9.29 0 0 0-9.29-9.29Z"/><path fill="#fff" stroke="#263238" stroke-linecap="round" stroke-linejoin="round" stroke-width="1.095" d="M97.25 288.7H377.8v23.41a9.286 9.286 0 0 1-5.735 8.583 9.286 9.286 0 0 1-3.555.707h-262a9.286 9.286 0 0 1-8.583-5.735 9.29 9.29 0 0 1-.707-3.555V288.7h.03Z"/><path fill="#263238" stroke="#263238" stroke-linecap="round" stroke-linejoin="round" stroke-width="1.095" d="M363.68 134.09H111.36v148.65h252.32V134.09Z"/><path fill="#fff" d="M363.68 134.09H111.36v148.65h252.32V134.09Z" opacity=".6"/><path fill="#263238" stroke="#263238" stroke-linecap="round" stroke-linejoin="round" stroke-width="1.095" d="M242.7 305.06a5.183 5.183 0 0 0-3.191-4.793 5.18 5.18 0 1 0 3.191 4.793Z"/><path fill="#fff" stroke="#263238" stroke-linecap="round" stroke-linejoin="round" stroke-width="1.095" d="M291.99 362.77H183.07v5.08h108.92v-5.08Z"/><mask id="a" width="253" height="149" x="111" y="134" maskUnits="userSpaceOnUse" style="mask-type:luminance"><path fill="#fff" d="M363.68 134.09H111.36v148.65h252.32V134.09Z"/></mask><g mask="url(#a)"><path fill="#54B862" d="M245.2 238c-3.58-3.35-15-7.83-21-7.7-6 .13-5.59-.71-11.81-6.08-6.22-5.37-14.07-4-23.75 2s-12.65 4.84-15.81 1.65-8.21-.27-18 8.6S144.07 244 139 242c-2.43-.95-6.43 3-9.93 7.3l-19.22 49.18 13.41 5.23c2.57-.92 5.32-2.24 6.89-4 3.52-4-.29-5.49 1.77-12s9.79-2.53 18.18-11.48c4.15-4.43 5.81-9.79 11.41-12.52 5.26-2.57 11.82-3 15.33-8.34s9.34-5.15 16.89-3.18c7.55 1.97 15.51 4.11 20.88-2.11 5.37-6.22 7.2-8.43 18.46-8.44 11.26-.01 15.71-.26 12.13-3.64Z"/><path fill="#000" d="M245.2 238c-3.58-3.35-15-7.83-21-7.7-6 .13-5.59-.71-11.81-6.08-6.22-5.37-14.07-4-23.75 2s-12.65 4.84-15.81 1.65-8.21-.27-18 8.6S144.07 244 139 242c-2.43-.95-6.43 3-9.93 7.3l-19.22 49.18 13.41 5.23c2.57-.92 5.32-2.24 6.89-4 3.52-4-.29-5.49 1.77-12s9.79-2.53 18.18-11.48c4.15-4.43 5.81-9.79 11.41-12.52 5.26-2.57 11.82-3 15.33-8.34s9.34-5.15 16.89-3.18c7.55 1.97 15.51 4.11 20.88-2.11 5.37-6.22 7.2-8.43 18.46-8.44 11.26-.01 15.71-.26 12.13-3.64Z" opacity=".5"/><path fill="#fff" d="M232.52 235a147.835 147.835 0 0 0-38.62 2.58l4.71-7.89a.51.51 0 0 0-.18-.69.497.497 0 0 0-.68.18l-5.18 8.68a153.802 153.802 0 0 0-32.09 10.57l4.8-12.29a.506.506 0 0 0 .013-.4.511.511 0 0 0-.284-.281.496.496 0 0 0-.561.142.49.49 0 0 0-.098.179l-5.14 13.15v.09c-5 2.36-9.58 4.8-13.58 7.17A159.145 159.145 0 0 0 130 266.71l5.8-12.71a.5.5 0 0 0-.9-.42L128.28 268A121.218 121.218 0 0 0 114 281a.51.51 0 0 0 0 .71.538.538 0 0 0 .542.079.51.51 0 0 0 .168-.119 117.704 117.704 0 0 1 14.2-12.75l16.38 3.52h.1a.499.499 0 0 0 .49-.4.507.507 0 0 0 .005-.194.473.473 0 0 0-.071-.181.49.49 0 0 0-.314-.215l-15.5-3.38a163.094 163.094 0 0 1 30-18.21l10.94 6.61a.507.507 0 0 0 .69-.17.513.513 0 0 0-.17-.69l-10.36-6.25A151.166 151.166 0 0 1 192 239a.405.405 0 0 0 0 .11.466.466 0 0 0 .27.3l12.14 5.23c.063.03.13.047.2.05a.514.514 0 0 0 .6-.4.513.513 0 0 0-.4-.6l-11.57-5a145.886 145.886 0 0 1 39.22-2.69.493.493 0 0 0 .53-.47.491.491 0 0 0-.125-.362.502.502 0 0 0-.345-.168Z"/><path fill="#54B862" d="M218.05 186.43c2.35 4.31 3.8 16.52 2.18 22.22-1.62 5.7-.71 5.59 2.91 13s.36 14.63-7.88 22.49c-8.24 7.86-7.87 11-5.57 14.89 2.3 3.89-1.8 8-12.87 15.29-11.07 7.29-10 8.52-9.35 14 .3 2.59-4.48 5.47-9.56 7.78l-52.43 6.22-1.7-14.29c1.54-2.26 3.51-4.59 5.64-5.67 4.76-2.4 5.24 1.68 12.08 1.32 6.84-.36 4.92-8.84 15.69-14.7 5.33-2.91 10.93-3.17 15-7.9 3.8-4.45 5.91-10.68 11.92-12.73 6.17-2.11 7.34-7.75 7.33-15.55-.01-7.8-.07-16.05 7.3-19.67 7.37-3.62 10-4.86 12.81-15.75 2.81-10.89 4.15-15.26 6.5-10.95Z"/><path fill="#fff" d="M218.05 186.43c2.35 4.31 3.8 16.52 2.18 22.22-1.62 5.7-.71 5.59 2.91 13s.36 14.63-7.88 22.49c-8.24 7.86-7.87 11-5.57 14.89 2.3 3.89-1.8 8-12.87 15.29-11.07 7.29-10 8.52-9.35 14 .3 2.59-4.48 5.47-9.56 7.78l-52.43 6.22-1.7-14.29c1.54-2.26 3.51-4.59 5.64-5.67 4.76-2.4 5.24 1.68 12.08 1.32 6.84-.36 4.92-8.84 15.69-14.7 5.33-2.91 10.93-3.17 15-7.9 3.8-4.45 5.91-10.68 11.92-12.73 6.17-2.11 7.34-7.75 7.33-15.55-.01-7.8-.07-16.05 7.3-19.67 7.37-3.62 10-4.86 12.81-15.75 2.81-10.89 4.15-15.26 6.5-10.95Z" opacity=".5"/><path fill="#fff" d="m214.39 233.62-8.82 2.57a147.541 147.541 0 0 0 12.21-36.73.512.512 0 0 0-.073-.376.504.504 0 0 0-.317-.214.522.522 0 0 0-.59.4 145.856 145.856 0 0 1-12.51 37.23l-1.91-12.45a.509.509 0 0 0-.205-.326.498.498 0 0 0-.375-.084.497.497 0 0 0-.326.198.484.484 0 0 0-.084.372l2 13.06a.505.505 0 0 0 .22.35.418.418 0 0 0 .1 0 151.692 151.692 0 0 1-17.8 27.38l-3.45-11.6a.535.535 0 0 0-.246-.313.51.51 0 0 0-.575.045.523.523 0 0 0-.195.346.51.51 0 0 0 .016.202l3.68 12.32A163.364 163.364 0 0 1 160 290.41l.68-15.89a.508.508 0 0 0-.29-.474.487.487 0 0 0-.19-.046.519.519 0 0 0-.52.48l-.72 16.73A117.34 117.34 0 0 1 143 301.75a.499.499 0 0 0-.22.67.506.506 0 0 0 .45.27.485.485 0 0 0 .23-.05A120.021 120.021 0 0 0 159.59 292l15.64-2.77a.504.504 0 0 0 .409-.387.508.508 0 0 0-.579-.613l-13.77 2.44a162.075 162.075 0 0 0 14.12-12.47c3.3-3.29 6.81-7.07 10.35-11.35h.09l14-1.67a.52.52 0 0 0 .187-.061.522.522 0 0 0 .238-.303.518.518 0 0 0-.046-.383.51.51 0 0 0-.499-.253l-13.11 1.55A153.628 153.628 0 0 0 205 237.4l9.7-2.82a.5.5 0 0 0 .3-.58.488.488 0 0 0-.41-.392.482.482 0 0 0-.2.012Z"/><path fill="#54B862" d="M239.58 144c-6.55-2.62-24.22-2.62-32.08.66-7.86 3.28-7.85 2-19-2s-20.94 2-30.76 15.06-14.4 13.09-20.29 10.47c-5.89-2.62-11.13 3.93-19.63 20.94-8.5 17.01-10.48 15.71-18.33 15.71-3.75 0-7.05 7.31-9.48 15v75.86h20.68c3-2.57 6-5.78 7.13-9 2.61-7.2-3.28-7.2-3.93-17-.65-9.8 11.78-8.51 18.33-24.87 3.23-8.1 2.66-16.14 8.73-22.72 5.69-6.19 14.22-10.25 16.14-19.18 2-9.16 9.82-11.77 20.94-13.08 11.12-1.31 22.91-2.62 26.84-13.75 3.93-11.13 5.23-15.05 20.29-20.94 15.06-5.89 20.96-8.5 14.42-11.16Z"/><path fill="#fff" d="M221.73 147.16a.5.5 0 0 0-.63-.32 211.979 211.979 0 0 0-50.7 23.88l2.25-13.51a.48.48 0 0 0-.41-.57.492.492 0 0 0-.57.41l-2.4 14.41a220.622 220.622 0 0 0-37.84 31.35v-19.5a.513.513 0 0 0-.5-.5.5.5 0 0 0-.5.5v20.29a.45.45 0 0 0 0 .2 225.49 225.49 0 0 0-14.5 16.76 231.775 231.775 0 0 0-15.85 23l1.2-20.92a.52.52 0 0 0-.47-.53.523.523 0 0 0-.53.47L99 245.39a172.798 172.798 0 0 0-12.41 24.8.5.5 0 0 0 .3.64h.17a.477.477 0 0 0 .47-.33 171.575 171.575 0 0 1 12.31-24.59l24-3.88a.508.508 0 0 0 .41-.58.481.481 0 0 0-.199-.325.488.488 0 0 0-.371-.085l-23.13 3.75a230.452 230.452 0 0 1 16.26-23.68 225.94 225.94 0 0 1 14.69-16.94l18.35 3.17h.09a.49.49 0 0 0 .49-.41.51.51 0 0 0-.41-.58l-17.68-3a220.15 220.15 0 0 1 36.74-30.53.456.456 0 0 0 .11.36.51.51 0 0 0 .37.18l19 .65a.501.501 0 0 0 0-1l-18.41-.63.05-.3a210.768 210.768 0 0 1 51.22-24.27.508.508 0 0 0 .31-.65Z"/><path fill="#54B862" d="M363.68 194.19c-.93 5.95-2.62 16-4.52 24.26-2.88 12.5-4.32 42.3-4.32 42.3s-5.77-31.25-19.23-57.69c-13.46-26.44-61.53-54.8-61.53-54.8s14.9 13.46 32.68 38 25.48 78.36 25.48 78.36-10.09-20.21-28.84-35.62c-18.75-15.41-72.11-30.76-72.11-30.76s38 26.92 55.28 46.15a97.834 97.834 0 0 1 20.9 38.33h56.21v-88.53Z"/></g><path fill="#fff" d="M349.08 224.15h-58.76v34.62h58.76v-34.62Z" opacity=".46"/><path fill="#fff" d="M296 254.25a3 3 0 1 0 0-6 3 3 0 0 0 0 6Z"/><path fill="#fff" stroke="#263238" stroke-linecap="round" stroke-linejoin="round" d="M262.84 137.26h89.59c1.371 0 2.686.545 3.656 1.514a5.174 5.174 0 0 1 1.514 3.656v121.41h-99.93V142.43c0-1.371.545-2.686 1.514-3.656a5.174 5.174 0 0 1 3.656-1.514Z"/><path stroke="#CCC" stroke-miterlimit="10" d="M309.5 163H330M309.5 167.5H341"/><path fill="#000" d="M282.67 185.67H263.5v74.22h19.17v-74.22Z" opacity=".11"/><path fill="#000" d="M282.67 185.67h-7v74.22h7v-74.22Z" opacity=".18"/><path fill="#263238" d="M282.67 194.51h-7v51.21h7v-51.21Z"/><path fill="#263238" stroke="#263238" stroke-linecap="round" stroke-linejoin="round" d="M352.43 137.26h-89.59a5.174 5.174 0 0 0-3.659 1.511 5.165 5.165 0 0 0-1.511 3.659V153h99.93v-10.57a5.174 5.174 0 0 0-1.511-3.659 5.165 5.165 0 0 0-3.659-1.511Z"/><path fill="#54B862" stroke="#263238" stroke-linecap="round" stroke-linejoin="round" d="M265.67 147a3 3 0 1 0 0-6 3 3 0 0 0 0 6Z"/><path fill="#fff" stroke="#263238" stroke-linecap="round" stroke-linejoin="round" d="M274.33 147a3 3 0 1 0 0-6 3 3 0 0 0 0 6ZM283 147a3 3 0 1 0 0-6 3 3 0 0 0 0 6ZM349.46 146.79H329c-.65 0-1.273-.258-1.732-.718a2.446 2.446 0 0 1 0-3.464 2.446 2.446 0 0 1 1.732-.718h20.48c.65 0 1.273.258 1.732.718a2.446 2.446 0 0 1-.007 3.472 2.458 2.458 0 0 1-1.745.71Z"/><path fill="#263238" d="M349.08 185.48h-58.76v34.62h58.76v-34.62Z"/><path fill="#fff" d="M349.08 185.48h-58.76v34.62h58.76v-34.62Z" opacity=".46"/><mask id="b" width="60" height="36" x="290" y="185" maskUnits="userSpaceOnUse" style="mask-type:luminance"><path fill="#fff" d="M349.08 185.48h-58.76v34.62h58.76v-34.62Z"/></mask><g mask="url(#b)"><path fill="#54B862" d="M321.49 209.68a9.72 9.72 0 0 0-4.88-1.79c-1.38 0-1.31-.17-2.75-1.42s-3.28-.94-5.54.46c-2.26 1.4-2.94 1.13-3.68.39-.74-.74-1.91-.07-4.2 2s-2.5 1.75-3.69 1.29c-.56-.22-1.49.69-2.31 1.7L290 223.76l3.13 1.22a4.006 4.006 0 0 0 1.6-.94c.82-.93-.07-1.28.41-2.8.48-1.52 2.28-.59 4.24-2.67 1-1 1.35-2.28 2.65-2.92 1.3-.64 2.76-.71 3.57-1.94s2.18-1.2 3.94-.74c1.76.46 3.61 1 4.86-.49 1.25-1.49 1.68-2 4.3-2s3.62-.02 2.79-.8Z"/><path fill="#000" d="M321.49 209.68a9.72 9.72 0 0 0-4.88-1.79c-1.38 0-1.31-.17-2.75-1.42s-3.28-.94-5.54.46c-2.26 1.4-2.94 1.13-3.68.39-.74-.74-1.91-.07-4.2 2s-2.5 1.75-3.69 1.29c-.56-.22-1.49.69-2.31 1.7L290 223.76l3.13 1.22a4.006 4.006 0 0 0 1.6-.94c.82-.93-.07-1.28.41-2.8.48-1.52 2.28-.59 4.24-2.67 1-1 1.35-2.28 2.65-2.92 1.3-.64 2.76-.71 3.57-1.94s2.18-1.2 3.94-.74c1.76.46 3.61 1 4.86-.49 1.25-1.49 1.68-2 4.3-2s3.62-.02 2.79-.8Z" opacity=".5"/><path fill="#fff" d="M318.53 209a34.145 34.145 0 0 0-9 .6l1.1-1.84a.13.13 0 0 0 0-.16.118.118 0 0 0-.16 0l-1.21 2a35.745 35.745 0 0 0-7.47 2.47l1.12-2.87a.12.12 0 0 0-.07-.15.12.12 0 0 0-.15.07l-1.2 3.06c-1.17.55-2.23 1.12-3.16 1.67a36.528 36.528 0 0 0-3.64 2.45l1.35-3a.102.102 0 0 0 .012-.042.109.109 0 0 0-.108-.119.102.102 0 0 0-.046.008.104.104 0 0 0-.04.025.117.117 0 0 0-.028.038l-1.54 3.36a26.39 26.39 0 0 0-3.33 3 .1.1 0 0 0-.029.035.1.1 0 0 0 .029.125.105.105 0 0 0 .07 0 .1.1 0 0 0 .09 0 26.97 26.97 0 0 1 3.31-3l3.81.82a.119.119 0 0 0 .086-.115.119.119 0 0 0-.086-.115l-3.62-.78a37.413 37.413 0 0 1 7-4.24l2.54 1.54h.06c.02 0 .039-.004.056-.013a.106.106 0 0 0 .044-.037.114.114 0 0 0 .026-.036.112.112 0 0 0 0-.088.114.114 0 0 0-.026-.036l-2.41-1.46a35.664 35.664 0 0 1 7.21-2.41.138.138 0 0 0 .07.08l2.83 1.21a.106.106 0 0 0 .067-.017.112.112 0 0 0 .043-.053.119.119 0 0 0-.06-.15l-2.7-1.16a34 34 0 0 1 9.13-.64.119.119 0 0 0 .086-.115.119.119 0 0 0-.086-.115l.03.2Z"/><path fill="#54B862" d="M315.16 197.67a9.564 9.564 0 0 1 .51 5.17c-.37 1.33-.16 1.3.68 3 .84 1.7.08 3.41-1.84 5.24-1.92 1.83-1.83 2.57-1.29 3.46.54.89-.42 1.87-3 3.56s-2.33 2-2.18 3.25c.07.61-1 1.28-2.22 1.81l-12.21 1.45-.4-3.33a4.002 4.002 0 0 1 1.32-1.31c1.1-.56 1.22.39 2.81.3 1.59-.09 1.14-2.06 3.65-3.42 1.24-.68 2.55-.74 3.49-1.84.94-1.1 1.38-2.49 2.78-3 1.4-.51 1.71-1.81 1.71-3.62s0-3.74 1.7-4.59c1.7-.85 2.32-1.13 3-3.66.68-2.53.95-3.48 1.49-2.47Z"/><path fill="#fff" d="M315.16 197.67a9.564 9.564 0 0 1 .51 5.17c-.37 1.33-.16 1.3.68 3 .84 1.7.08 3.41-1.84 5.24-1.92 1.83-1.83 2.57-1.29 3.46.54.89-.42 1.87-3 3.56s-2.33 2-2.18 3.25c.07.61-1 1.28-2.22 1.81l-12.21 1.45-.4-3.33a4.002 4.002 0 0 1 1.32-1.31c1.1-.56 1.22.39 2.81.3 1.59-.09 1.14-2.06 3.65-3.42 1.24-.68 2.55-.74 3.49-1.84.94-1.1 1.38-2.49 2.78-3 1.4-.51 1.71-1.81 1.71-3.62s0-3.74 1.7-4.59c1.7-.85 2.32-1.13 3-3.66.68-2.53.95-3.48 1.49-2.47Z" opacity=".5"/><path fill="#fff" d="m314.31 208.66-2.05.59a34.074 34.074 0 0 0 2.84-8.55.109.109 0 0 0-.049-.114.098.098 0 0 0-.041-.016.126.126 0 0 0-.086.02.126.126 0 0 0-.054.07 33.83 33.83 0 0 1-2.91 8.67l-.45-2.9a.098.098 0 0 0-.013-.044.1.1 0 0 0-.029-.035.116.116 0 0 0-.042-.02.102.102 0 0 0-.046-.001.11.11 0 0 0-.044.016.123.123 0 0 0-.056.124l.47 3a.23.23 0 0 0 .05.08 35.297 35.297 0 0 1-4.15 6.38l-.8-2.7a.109.109 0 0 0-.022-.041.118.118 0 0 0-.128-.039.117.117 0 0 0-.041.019.102.102 0 0 0-.029.033.113.113 0 0 0-.01.088l.85 2.86a38.089 38.089 0 0 1-5.86 5.69l.16-3.7a.125.125 0 0 0-.031-.082.12.12 0 0 0-.124-.033.118.118 0 0 0-.039.023.14.14 0 0 0-.027.037.117.117 0 0 0-.009.045l-.17 3.9a26.501 26.501 0 0 1-3.71 2.45.13.13 0 0 0-.05.16.11.11 0 0 0 .11.06h.05a27.46 27.46 0 0 0 3.75-2.47l3.64-.65a.107.107 0 0 0 .044-.013.092.092 0 0 0 .035-.03.105.105 0 0 0 .021-.087.11.11 0 0 0-.049-.077.098.098 0 0 0-.044-.016.093.093 0 0 0-.047.003L302 222a37.437 37.437 0 0 0 3.29-2.9c.76-.77 1.58-1.65 2.41-2.64l3.26-.39a.107.107 0 0 0 .044-.013.092.092 0 0 0 .035-.03.093.093 0 0 0 .02-.041.102.102 0 0 0 .001-.046.113.113 0 0 0-.077-.096.124.124 0 0 0-.043-.004l-3.06.36a35.783 35.783 0 0 0 4.27-6.61l2.26-.66a.118.118 0 0 0 .067-.055.114.114 0 0 0 .013-.085.12.12 0 0 0-.18-.13Z"/><path fill="#54B862" d="M320.18 187.8a13.895 13.895 0 0 0-7.47.15c-1.83.76-1.83.46-4.42-.46s-4.88.46-7.16 3.51c-2.28 3.05-3.36 3.05-4.73 2.44-1.37-.61-2.59.91-4.57 4.87-1.98 3.96-2.44 3.66-4.27 3.66-.87 0-1.64 1.7-2.21 3.48v17.67h4.82a5.717 5.717 0 0 0 1.66-2.1c.61-1.67-.76-1.67-.92-4-.16-2.33 2.75-2 4.27-5.79.76-1.89.62-3.76 2-5.29 1.38-1.53 3.32-2.39 3.76-4.47.44-2.08 2.29-2.74 4.88-3 2.59-.26 5.33-.61 6.25-3.2.92-2.59 1.22-3.51 4.72-4.88s4.91-1.98 3.39-2.59Z"/><path fill="#fff" d="M316 188.52a.12.12 0 0 0-.15-.07 48.816 48.816 0 0 0-11.8 5.56l.52-3.15a.109.109 0 0 0-.049-.114.098.098 0 0 0-.041-.016.106.106 0 0 0-.047.001.116.116 0 0 0-.076.054.123.123 0 0 0-.017.045l-.56 3.35a51.873 51.873 0 0 0-8.81 7.3v-4.54a.11.11 0 0 0-.11-.11.109.109 0 0 0-.084.028.107.107 0 0 0-.036.082v4.73a54.318 54.318 0 0 0-3.38 3.9 54.991 54.991 0 0 0-3.66 5.43l.28-4.88a.109.109 0 0 0-.028-.084.107.107 0 0 0-.082-.036.117.117 0 0 0-.081.032.118.118 0 0 0-.039.078l-.3 5.32a39.708 39.708 0 0 0-2.89 5.77.118.118 0 0 0-.009.046c0 .015.003.031.01.045a.109.109 0 0 0 .069.059.111.111 0 0 0 .063-.024.107.107 0 0 0 .037-.056 41.425 41.425 0 0 1 2.87-5.72l5.58-.91a.123.123 0 0 0 .076-.045.123.123 0 0 0 .024-.085.121.121 0 0 0-.016-.045.118.118 0 0 0-.124-.055l-5.38.88a54.493 54.493 0 0 1 3.78-5.52c1-1.24 2.11-2.58 3.42-3.94l4.28.73a.118.118 0 0 0 .072-.031.116.116 0 0 0 .018-.155.126.126 0 0 0-.07-.054l-4.12-.71a51.232 51.232 0 0 1 8.55-7.1.155.155 0 0 0 0 .08.122.122 0 0 0 .08 0l4.42.15a.126.126 0 0 0 .079-.034.127.127 0 0 0 .041-.076.123.123 0 0 0-.035-.085.123.123 0 0 0-.085-.035l-4.28-.15v-.07a49.172 49.172 0 0 1 11.92-5.65.114.114 0 0 0 .064.021.107.107 0 0 0 .104-.074.103.103 0 0 0 .002-.067Z"/><path fill="#54B862" d="M349.08 199.48c-.22 1.38-.61 3.73-1.06 5.64a83.438 83.438 0 0 0-1 9.85 57.168 57.168 0 0 0-4.48-13.43c-3.14-6.15-14.33-12.76-14.33-12.76a61.52 61.52 0 0 1 7.61 8.84c4.14 5.71 5.94 18.25 5.94 18.25a28.793 28.793 0 0 0-6.72-8.28c-4.37-3.59-16.79-7.17-16.79-7.17s8.84 6.27 12.87 10.75a22.777 22.777 0 0 1 4.88 8.93h13.09l-.01-20.62Z"/></g><path fill="#263238" d="M298.93 158.33h-36.94v21.76h36.94v-21.76Z"/><path fill="#fff" d="M298.93 158.33h-36.94v21.76h36.94v-21.76Z" opacity=".46"/><mask id="c" width="38" height="23" x="261" y="158" maskUnits="userSpaceOnUse" style="mask-type:luminance"><path fill="#fff" d="M298.93 158.33h-36.94v21.76h36.94v-21.76Z"/></mask><g mask="url(#c)"><path fill="#54B862" d="M281.58 173.55a6.056 6.056 0 0 0-3.07-1.13c-.86 0-.82-.1-1.73-.89s-2.06-.59-3.47.29c-1.41.88-1.86.71-2.32.24-.46-.47-1.2 0-2.64 1.26-1.44 1.26-1.57 1.1-2.32.81-.36-.14-.94.43-1.45 1.07l-2.82 7.2 2 .77a2.65 2.65 0 0 0 1-.59c.51-.59-.05-.81.25-1.76s1.44-.38 2.67-1.69c.6-.64.85-1.43 1.67-1.83.82-.4 1.73-.44 2.24-1.22.51-.78 1.37-.75 2.47-.46s2.27.6 3.06-.31a2.666 2.666 0 0 1 2.7-1.24c1.63 0 2.28-.07 1.76-.52Z"/><path fill="#000" d="M281.58 173.55a6.056 6.056 0 0 0-3.07-1.13c-.86 0-.82-.1-1.73-.89s-2.06-.59-3.47.29c-1.41.88-1.86.71-2.32.24-.46-.47-1.2 0-2.64 1.26-1.44 1.26-1.57 1.1-2.32.81-.36-.14-.94.43-1.45 1.07l-2.82 7.2 2 .77a2.65 2.65 0 0 0 1-.59c.51-.59-.05-.81.25-1.76s1.44-.38 2.67-1.69c.6-.64.85-1.43 1.67-1.83.82-.4 1.73-.44 2.24-1.22.51-.78 1.37-.75 2.47-.46s2.27.6 3.06-.31a2.666 2.666 0 0 1 2.7-1.24c1.63 0 2.28-.07 1.76-.52Z" opacity=".5"/><path fill="#fff" d="M279.73 173.11a21.453 21.453 0 0 0-5.66.37l.69-1.15a.057.057 0 0 0 .015-.023.063.063 0 0 0 0-.054.051.051 0 0 0-.015-.023.083.083 0 0 0-.05-.018.083.083 0 0 0-.05.018l-.75 1.27a22.874 22.874 0 0 0-4.7 1.55l.7-1.8a.095.095 0 0 0 .015-.02.074.074 0 0 0 .005-.025.07.07 0 0 0-.005-.025.095.095 0 0 0-.015-.02.073.073 0 0 0-.023-.016.086.086 0 0 0-.027-.005.08.08 0 0 0-.027.005.063.063 0 0 0-.023.016l-.75 1.93c-.685.314-1.352.665-2 1.05-.792.47-1.556.984-2.29 1.54l.86-1.86a.082.082 0 0 0 0-.1.073.073 0 0 0-.023-.016.086.086 0 0 0-.027-.005.08.08 0 0 0-.027.005.063.063 0 0 0-.023.016l-1 2.11a17.578 17.578 0 0 0-2.09 1.89.08.08 0 0 0 0 .11h.11a17.819 17.819 0 0 1 2.08-1.87l2.39.52a.07.07 0 0 0 .07-.06s0-.07-.06-.08l-2.27-.49a23.64 23.64 0 0 1 4.39-2.67l1.6 1c.009.006.019.01.03.01a.054.054 0 0 0 .03-.01.082.082 0 0 0 0-.1l-1.52-.91a22.772 22.772 0 0 1 4.54-1.52l1.77.77a.073.073 0 0 0 .07 0 .057.057 0 0 0 .015-.023.063.063 0 0 0 0-.054.051.051 0 0 0-.015-.023l-1.69-.73a21.64 21.64 0 0 1 5.74-.4s.07 0 .07-.07a.06.06 0 0 0-.029-.013.055.055 0 0 0-.031.003Z"/><path fill="#54B862" d="M277.61 166a6.148 6.148 0 0 1 .32 3.25c-.24.83-.11.82.42 1.9s0 2.14-1.15 3.29-1.15 1.61-.82 2.18c.33.57-.26 1.17-1.88 2.24-1.62 1.07-1.47 1.24-1.37 2 0 .38-.66.8-1.4 1.14l-7.68.91-.24-2.09c.201-.34.483-.625.82-.83.7-.35.77.24 1.77.19 1-.05.72-1.29 2.3-2.15.78-.43 1.6-.47 2.19-1.16.59-.69.87-1.56 1.75-1.86.88-.3 1.07-1.14 1.07-2.28s0-2.35 1.07-2.88a2.67 2.67 0 0 0 1.87-2.3c.42-1.55.61-2.19.96-1.55Z"/><path fill="#fff" d="M277.61 166a6.148 6.148 0 0 1 .32 3.25c-.24.83-.11.82.42 1.9s0 2.14-1.15 3.29-1.15 1.61-.82 2.18c.33.57-.26 1.17-1.88 2.24-1.62 1.07-1.47 1.24-1.37 2 0 .38-.66.8-1.4 1.14l-7.68.91-.24-2.09c.201-.34.483-.625.82-.83.7-.35.77.24 1.77.19 1-.05.72-1.29 2.3-2.15.78-.43 1.6-.47 2.19-1.16.59-.69.87-1.56 1.75-1.86.88-.3 1.07-1.14 1.07-2.28s0-2.35 1.07-2.88a2.67 2.67 0 0 0 1.87-2.3c.42-1.55.61-2.19.96-1.55Z" opacity=".5"/><path fill="#fff" d="m277.07 172.9-1.29.38a21.815 21.815 0 0 0 1.79-5.38s0-.07-.06-.08a.082.082 0 0 0-.057.012.081.081 0 0 0-.033.048 21.405 21.405 0 0 1-1.83 5.45l-.28-1.83s0-.06-.08-.06a.082.082 0 0 0-.048.033.082.082 0 0 0-.012.057l.29 1.91a.085.085 0 0 0 0 .05 22.263 22.263 0 0 1-2.61 4l-.5-1.7a.093.093 0 0 0-.041-.042.087.087 0 0 0-.059-.008s-.06.06 0 .09l.53 1.8a24.168 24.168 0 0 1-3.69 3.58l.1-2.33a.07.07 0 0 0-.07-.07.07.07 0 0 0-.05.02.072.072 0 0 0-.02.05l-.11 2.44a17.018 17.018 0 0 1-2.33 1.55.077.077 0 0 0-.018.05c0 .018.006.036.018.05a.085.085 0 0 0 .035.008.085.085 0 0 0 .035-.008 18.523 18.523 0 0 0 2.36-1.55l2.29-.41a.08.08 0 0 0 .06-.08.086.086 0 0 0-.033-.048.082.082 0 0 0-.057-.012l-2 .35a22.52 22.52 0 0 0 2.06-1.82c.49-.48 1-1 1.52-1.66l2.06-.25s.06 0 .06-.08c0-.01-.001-.02-.006-.029a.058.058 0 0 0-.018-.023.08.08 0 0 0-.027-.011.07.07 0 0 0-.029.003l-1.92.23a22.669 22.669 0 0 0 2.68-4.16l1.42-.42a.086.086 0 0 0 .027-.005.07.07 0 0 0 .022-.016.07.07 0 0 0 .016-.022.086.086 0 0 0 .005-.027.086.086 0 0 0-.005-.027.087.087 0 0 0-.016-.023.086.086 0 0 0-.022-.015.086.086 0 0 0-.027-.005l-.03.04Z"/><path fill="#54B862" d="M280.76 159.79a8.755 8.755 0 0 0-4.7.1c-1.15.47-1.15.28-2.78-.29-1.63-.57-3.06.29-4.5 2.2-1.44 1.91-2.11 1.92-3 1.54-.89-.38-1.63.57-2.87 3.06-1.24 2.49-1.54 2.3-2.69 2.3-.55 0-1 1.07-1.39 2.19V182h3a3.7 3.7 0 0 0 1.05-1.32c.38-1.06-.48-1.06-.58-2.49-.1-1.43 1.73-1.25 2.68-3.64.48-1.19.39-2.37 1.28-3.33s2.08-1.5 2.36-2.81c.28-1.31 1.44-1.72 3.07-1.91 1.63-.19 3.35-.39 3.93-2 .58-1.61.77-2.21 3-3.07 2.23-.86 3.1-1.26 2.14-1.64Z"/><path fill="#fff" d="M278.14 160.25a.088.088 0 0 0-.012-.026.08.08 0 0 0-.022-.019.09.09 0 0 0-.028-.008.067.067 0 0 0-.028.003 30.925 30.925 0 0 0-7.42 3.5l.33-2a.077.077 0 0 0-.013-.057.083.083 0 0 0-.047-.033s-.08 0-.08.06l-.36 2.11a32.664 32.664 0 0 0-5.54 4.59v-2.85a.086.086 0 0 0-.005-.027.087.087 0 0 0-.016-.023.086.086 0 0 0-.022-.015.086.086 0 0 0-.027-.005.086.086 0 0 0-.027.005.114.114 0 0 0-.023.015.114.114 0 0 0-.015.023.086.086 0 0 0-.005.027v3c-.82.85-1.52 1.68-2.13 2.45a34.533 34.533 0 0 0-2.32 3.37l.18-3.07a.069.069 0 0 0-.021-.05.068.068 0 0 0-.049-.02.07.07 0 0 0-.029-.003.08.08 0 0 0-.027.011.071.071 0 0 0-.019.023.058.058 0 0 0-.005.029l-.19 3.35a24.92 24.92 0 0 0-1.82 3.63c-.003.009-.004.019-.003.028a.09.09 0 0 0 .008.028.08.08 0 0 0 .019.022c.008.005.017.01.026.012a.08.08 0 0 0 .042-.015.08.08 0 0 0 .028-.035 26.006 26.006 0 0 1 1.8-3.6l3.51-.57s.07 0 .06-.08a.078.078 0 0 0-.027-.05.078.078 0 0 0-.053-.02l-3.39.55a33.408 33.408 0 0 1 4.53-5.94l2.69.46s.07 0 .07-.06c.003-.009.004-.019.003-.029a.066.066 0 0 0-.034-.046.058.058 0 0 0-.029-.005l-2.59-.45a32.854 32.854 0 0 1 5.38-4.47.085.085 0 0 0 0 .05.055.055 0 0 0 .025.007.055.055 0 0 0 .025-.007l2.78.1a.086.086 0 0 0 .054-.026.086.086 0 0 0 .026-.054.069.069 0 0 0-.021-.05.068.068 0 0 0-.049-.02l-2.7-.09v-.05a30.662 30.662 0 0 1 7.5-3.55.06.06 0 0 0 .029.023.067.067 0 0 0 .037.002.072.072 0 0 0 .031-.02.063.063 0 0 0 .013-.035Z"/><path fill="#54B862" d="M298.93 167.13c-.14.87-.39 2.35-.67 3.55a52.826 52.826 0 0 0-.63 6.2 35.574 35.574 0 0 0-2.81-8.45c-2-3.87-9-8-9-8a38.79 38.79 0 0 1 4.78 5.56c2.61 3.59 3.73 11.47 3.73 11.47a17.809 17.809 0 0 0-4.22-5.21c-2.74-2.25-10.56-4.5-10.56-4.5a64.698 64.698 0 0 1 8.1 6.75 14.387 14.387 0 0 1 3.06 5.62h8.23l-.01-12.99Z"/></g><path fill="#263238" d="M349.07 225.19h-59.03v35.1h59.03v-35.1Z"/><path fill="#fff" d="M349.07 225.19h-59.03v35.1h59.03v-35.1Z" opacity=".18"/><path fill="#fff" d="M339.51 245.76c-1.87-1.42-3.92-2.81-5.91-4.15-6.81-4.62-13.81-9.37-15.65-16.42h-5.11c1.79 9.57 10.32 15.38 18 20.55 2 1.37 3.92 2.66 5.69 4 3.81 2.89 5.66 6.65 4.73 9.6a4.56 4.56 0 0 1-.43 1h5.34c1.19-4.92-1.35-10.56-6.66-14.58ZM316.27 253.71a68.37 68.37 0 0 0-8.95-12.42c-7.55-8-13.68-11.5-17.28-13v5.48c3.13 1.6 7.86 4.74 13.64 10.9a64.052 64.052 0 0 1 8.3 11.57c.84 1.39 1.65 2.74 2.5 4h6.22a45.493 45.493 0 0 1-4.43-6.53ZM349.08 243.13c-2-2.8-2.58-6.86-3.43-13-.21-1.52-.45-3.17-.72-4.93h-5.06c.32 2 .59 3.9.82 5.61 1.22 8.76 2.11 15.16 8.39 19.07v-6.75ZM330.75 231a3 3 0 1 0 0-6 3 3 0 0 0 0 6ZM328.25 257.25a3 3 0 1 0 0-6 3 3 0 0 0 0 6ZM307.5 234a3 3 0 1 0 0-6 3 3 0 0 0 0 6Z"/><path fill="#54B862" d="M356.63 410.33c26.327 0 47.67-7.298 47.67-16.3s-21.343-16.3-47.67-16.3-47.67 7.298-47.67 16.3 21.343 16.3 47.67 16.3Z"/><path fill="#fff" d="M356.63 410.33c26.327 0 47.67-7.298 47.67-16.3s-21.343-16.3-47.67-16.3-47.67 7.298-47.67 16.3 21.343 16.3 47.67 16.3Z" opacity=".5"/><path fill="#54B862" d="M419.3 448.33c26.327 0 47.67-7.298 47.67-16.3s-21.343-16.3-47.67-16.3-47.67 7.298-47.67 16.3 21.343 16.3 47.67 16.3Z"/><path fill="#fff" d="M419.3 448.33c26.327 0 47.67-7.298 47.67-16.3s-21.343-16.3-47.67-16.3-47.67 7.298-47.67 16.3 21.343 16.3 47.67 16.3Z" opacity=".5"/><path fill="#fff" stroke="#263238" stroke-linecap="round" stroke-linejoin="round" d="M394 390s-6.06-6.67-23.49-12.49-42.95 2.27-49.22 7.08c-6.27 4.81-6.69 7.36 1.32 9.93 8.01 2.57 20.38 5 34.28 12.55 13.9 7.55 24.05 11.32 36.51 4.23 12.46-7.09 5.83-16.22.6-21.3Z"/><path fill="#fff" d="M353.86 400.1c-12.54-6.84-27.92-6.92-34-6.63.911.384 1.842.718 2.79 1 8 2.56 20.38 5 34.28 12.55 9.71 5.29 17.58 8.7 25.69 7.88-18.56-3.9-16.41-8.05-28.76-14.8Z"/><mask id="d" width="64" height="23" x="319" y="393" maskUnits="userSpaceOnUse" style="mask-type:luminance"><path fill="#fff" d="M353.86 400.1c-12.54-6.84-27.92-6.92-34-6.63.911.384 1.842.718 2.79 1 8 2.56 20.38 5 34.28 12.55 9.71 5.29 17.58 8.7 25.69 7.88-18.56-3.9-16.41-8.05-28.76-14.8Z"/></mask><g mask="url(#d)"><path fill="#263238" stroke="#263238" stroke-linecap="round" stroke-linejoin="round" d="M353.86 400.1c-12.54-6.84-27.92-6.92-34-6.63.911.384 1.842.718 2.79 1 8 2.56 20.38 5 34.28 12.55 9.71 5.29 17.58 8.7 25.69 7.88-18.56-3.9-16.41-8.05-28.76-14.8Z"/></g><path stroke="#263238" stroke-linecap="round" stroke-linejoin="round" d="M353.86 400.1c-12.54-6.84-27.92-6.92-34-6.63.911.384 1.842.718 2.79 1 8 2.56 20.38 5 34.28 12.55 9.71 5.29 17.58 8.7 25.69 7.88-18.56-3.9-16.41-8.05-28.76-14.8Z"/><path fill="#fff" stroke="#263238" stroke-linecap="round" stroke-linejoin="round" d="M405.67 297.1a36.91 36.91 0 0 0-4.78 9.58c-1.43 4.88-2.14 11-.32 11.59 1.82.59 5.95-.47 5.95-.47l1.16 6 7.46-2.78.48-6.46s6.12-5.66 5-11.66-10.06-9.54-14.95-5.8Z"/><path fill="#263238" stroke="#263238" stroke-linecap="round" stroke-linejoin="round" d="M410.31 290.82s-13.43 0-10.11 3.4c3.32 3.4 5.86 6.26 5.86 6.26s-2 3.27-1.37 4.19c.63.92 1.22 1.17 1.31 1.68.09.51-2.46 1.78-.87 3.07 1.59 1.29 2.76-2 2.48-.59-.28 1.41 0 6.2 3.91 8 3.91 1.8 7.09-1.87 9.66-3 2.57-1.13 6.71-5.25 4.73-14.05-1.98-8.8-12.69-10.13-15.6-8.96Z"/><path stroke="#263238" stroke-linecap="round" stroke-linejoin="round" d="M403.64 314s-.33 1.09 1.65.59c1.98-.5 2.15-3.63 2.15-3.63"/><path fill="#fff" stroke="#263238" stroke-linecap="round" stroke-linejoin="round" d="M402.79 328.57s1.38-4.19 3.11-5.16c1.73-.97 10.25-3.59 11.93-3.87 1.68-.28 4 3.63 4 3.63l-19.04 5.4ZM382.27 381.94a2.76 2.76 0 0 1-1.7 1.3c-.8.22-2.44.77-3.11.94-.67.17-.68-.13-.59-.59.09-.46 1.1-.93 1.52-1-1.22-1.53-5.5-1.65-6.62-2-1.12-.35-.69-.4-.26-.66.43-.26 2.78.16 3.48.23a11.674 11.674 0 0 1-3.68-1.43c-.78-.62.17-.55.36-.71a10.81 10.81 0 0 0 4.18.91 8.64 8.64 0 0 1-3.62-1.38c-.19-.42.12-.56.5-.6 1.111.523 2.3.861 3.52 1a13.263 13.263 0 0 1-2.59-1.27c.46-.3.11-.5 1-.32 1.239.318 2.457.708 3.65 1.17a11.537 11.537 0 0 1 3.67 3.14c.6.81.59.71.29 1.27Z"/><path fill="#54B862" stroke="#263238" stroke-linecap="round" stroke-linejoin="round" d="m382.27 381.94 14.59-13.34 10.08-13-8.35-9.68-7.23 18.46-10.84 15.05s-1.1 1.32 1.75 2.51Z"/><path fill="#fff" stroke="#263238" stroke-linecap="round" stroke-linejoin="round" d="M365.89 384a3.827 3.827 0 0 0-1-2.44l-3.1-3.52s-.77-.55-.87.31c-.1.86 1.28 2.15 1.28 2.15h-7.28s-.76.19-.24.78c.52.59 3.27.47 3.27.47l-3.72 1s-.75.45.35 1l3.74-.29-3.26 1.13s-.49.59.31.88l3.08-.68-2.22 1.29s0 .67.6.57c.6-.1 3.14-.85 3.14-.85a48.67 48.67 0 0 0 5.25-.79c1.2-.35.67-1.01.67-1.01Z"/><path fill="#263238" stroke="#263238" stroke-linecap="round" stroke-linejoin="round" d="m433.18 388.28-9.89 18.52 32.5 19.29-1.32 4s-33.82-9.51-41-14-5-13.47-4-15.06c1-1.59 7.4-18.23 7.4-18.23s11.67-8.29 16.31 5.48Z"/><path fill="#263238" stroke="#263238" stroke-linecap="round" stroke-linejoin="round" d="m406.44 376.52 1.5 7S392.07 405.6 390.1 415c-1.97 9.4-3.32 16.22-1 17.56 2.32 1.34 33.82 19.49 33.82 19.49l2.13-6.9s-10.75-10.78-15.32-15.54a37.244 37.244 0 0 0-8-6.59l23.61-28.1a14.62 14.62 0 0 0 7.85-6.64 22.237 22.237 0 0 0 1.69-16.81s-19.43 7.53-28.44 5.05Z"/><path fill="#54B862" stroke="#263238" stroke-linecap="round" stroke-linejoin="round" d="M423.05 321.94s-24.42 6.46-26.63 8.72c-2.21 2.26-16.56 40.28-16.56 40.28L364 381.4a1.913 1.913 0 0 0-.89 2.12 1.91 1.91 0 0 0 2.39 1.34l19.19-7.66 17.09-25.73 4.83 27.59s-.7 1 6.39 1.18c7.09.18 19.29-1.95 23.86-9.27 1.21-1.94-.91-6.57-.91-6.57s-3.8-29.16-5.11-33.93c-1.31-4.77-3.84-8.83-7.79-8.53Z"/><path stroke="#263238" stroke-linecap="round" stroke-linejoin="round" d="m397.08 335.87 4.69 15.6-5.54-6.27M431.3 353.41s-9.33 19.23-20.93 22.06"/><path fill="#fff" stroke="#263238" stroke-linecap="round" stroke-linejoin="round" d="M423.31 444.6s3.51-4.15 6.3-2.51c2.79 1.64 3.22 5.54 3.7 8.4.48 2.86 3.16 3.88 3.05 7-.11 3.12-1.19 5.45-2.59 5.89-1.4.44-3.12-3.68-6.35-6.71a51.231 51.231 0 0 1-4.53-4.66s-1.79-4.32.42-7.41Z"/><path fill="#fff" stroke="#263238" stroke-linecap="round" stroke-linejoin="round" d="M433.77 463.42c1.4-.44 2.49-2.72 2.59-5.89.1-3.17-2.58-4.18-3.05-7-.47-2.82-.92-6.77-3.7-8.4a2.57 2.57 0 0 0-.89-.32 3.533 3.533 0 0 0-1.16 4.43c1.53 4.15 4 6.67 5.3 10.45.83 2.49.11 5 .16 6.61a.894.894 0 0 0 .75.12ZM455.36 425.26s3.66-4 6.38-2.27c2.72 1.73 3 5.66 3.38 8.54.38 2.88 3 4 2.79 7.15-.21 3.15-1.41 5.39-2.82 5.78-1.41.39-4.6-7-7.71-10.18-3.11-3.18-2.91-4.23-2.91-4.23s-1.47-1.79.89-4.79Z"/><path fill="#fff" stroke="#263238" stroke-linecap="round" stroke-linejoin="round" d="M465.09 444.46c1.41-.39 2.59-2.62 2.82-5.78.23-3.16 0-3.68-1.84-7.91-1.14-2.67-1.6-6-4.33-7.78a2.7 2.7 0 0 0-.87-.36 3.546 3.546 0 0 0-1.33 4.39c1.37 4.21 3.79 6.82 4.9 10.64.73 2.52-.08 5-.09 6.62a.88.88 0 0 0 .74.18Z"/><path stroke="#fff" stroke-linecap="round" stroke-linejoin="round" d="m410.87 413.53 19.03-21.8"/><path fill="#54B862" d="M117.81 388.82c0 4.59-13.73 8.31-30.67 8.31s-30.67-3.72-30.67-8.31 13.73-8.3 30.67-8.3 30.67 3.72 30.67 8.3Z"/><path fill="#fff" d="M117.81 388.82c0 4.59-13.73 8.31-30.67 8.31s-30.67-3.72-30.67-8.31 13.73-8.3 30.67-8.3 30.67 3.72 30.67 8.3Z" opacity=".5"/><path fill="#263238" stroke="#263238" stroke-linecap="round" stroke-linejoin="round" d="M82.26 235.07s-1 10.63-.79 17.52c.21 6.89 1.38 25.2-5.51 25.2s-13.39-10-10.63-22.44c2.76-12.44 11.22-15.95 12.79-19.88a38.916 38.916 0 0 1 2-4.53s1.35-2.76 2.14 4.13ZM106.67 283.3a197.573 197.573 0 0 1 2.33 20.47c.39 9.06-4.92 26.18-6.5 29.33-1.58 3.15-3.15 14.37-3.15 14.37a106.604 106.604 0 0 1-2.75 11.81c-1.58 4.92-3.75 18.22-3.75 18.22s4.73 4.81 6.31 6.39c1.58 1.58 4.52 2.95 3.34 3.93-1.18.98-11.22-2.16-13.78-3.34a4.345 4.345 0 0 1-2.16-3.55v-4.52s-.4-18.51 0-24.81c.4-6.3 3-10 3-11.81 0-1.81-12.2-28.34-11.61-39.17a40.19 40.19 0 0 1 5.51-18.3s10.02 7.68 23.21.98Z"/><path fill="#54B862" stroke="#263238" stroke-linecap="round" stroke-linejoin="round" d="M78.12 243.93s7.68-2.75 12.6-3 8.66 1.38 10.24 4.33 4.92 10.23 6.49 13.78c1.57 3.55 2.37 7.87.79 11.41a53.913 53.913 0 0 1-2.76 5.52s1.78 7.08 1.19 8.07c-.59.99-5.32 3.96-12.21 3.96-6.89 0-10.63-1.77-12-3.74-1.37-1.97-8.46-20.64-9.65-26.35-1.19-5.71 1.77-10.63 5.31-13.98Z"/><path fill="#54B862" d="M84.62 256.92 86 288.61 93.08 314l-3.15 1.18-13.58-28.53s-3.15-29.53-3.15-32.48c0-2.95 1.18-6.7 4.92-7.48"/><path stroke="#263238" stroke-linecap="round" stroke-linejoin="round" d="M84.62 256.92 86 288.61 93.08 314l-3.15 1.18-13.58-28.53s-3.15-29.53-3.15-32.48c0-2.95 1.18-6.7 4.92-7.48"/><path stroke="#fff" stroke-linecap="round" stroke-linejoin="round" d="M102.53 333.1s1.18-19.29-4.72-33.46"/><path fill="#fff" stroke="#263238" stroke-linecap="round" stroke-linejoin="round" d="m93.08 314 3 4.52.78 3.35s-.08.65-.55.55c-.47-.1-.87-.82-.87-.82s.46 2.62.46 3c0 .38.21 1.85-.15 2.06-.36.21-1-.88-1.6-1.54-.6-.66-2.45-1.81-3.15-3.12-.7-1.31-1-6.78-1-6.78l3.08-1.22Z"/><path stroke="#263238" stroke-linecap="round" stroke-linejoin="round" d="M100.74 268a16.607 16.607 0 0 1-8.17 7.56"/><path fill="#fff" stroke="#263238" stroke-linecap="round" stroke-linejoin="round" d="M86.59 380.93V379c4.23.36 6.29-1.49 6.29-1.49s4.73 4.81 6.31 6.39c1.58 1.58 4.52 2.95 3.34 3.93-1.18.98-11.22-2.16-13.78-3.34a4.347 4.347 0 0 1-2.16-3.56Z"/><path stroke="#263238" stroke-linecap="round" stroke-linejoin="round" d="M92.32 240.25s2.51-.33 3 1.68c.49 2.01 3 5.87 3.18 6.71.18.84-3.35-2-3.35-2a10.08 10.08 0 0 1-2.83-6.39Z"/><path fill="#fff" stroke="#263238" stroke-linecap="round" stroke-linejoin="round" d="m84.77 241.93.67-3.52.51-2.68.5-2.69s8.89-17.6 14.75-12.74a25.857 25.857 0 0 1 1.18 9.72c-.5 4.87-.5 7.89-3.19 7.72A16.582 16.582 0 0 1 94 236.4l-.78 4.86 3 9.72-11.45-9.05Z"/><path fill="#fff" stroke="#263238" stroke-linecap="round" stroke-linejoin="round" d="m84.44 238.91 6.7 5.53s5.87 6.71 5 6.54a22.645 22.645 0 0 1-3.85-2.34l-.67 4-9.03-10.54 1.85-3.19Z"/><path fill="#263238" stroke="#263238" stroke-linecap="round" stroke-linejoin="round" d="M93.16 211.41s6-3.52 9.22-.33c3.22 3.19-.17 9.55-2.52 11.73-2.35 2.18-4.36 9.73-9 12.92-4.64 3.19-6.88.5-9.9-2.69-3.02-3.19-4.74-12.04-2.9-17.27 1.84-5.23 10.07-7.54 15.1-4.36Z"/></svg>