<svg xmlns="http://www.w3.org/2000/svg" width="500" height="334" fill="none"><path fill="#C1ECC7" d="M461.447 225.049s-4.34-1.883-7.427 8.284c-3.087 10.166-3.927 15.831-3.927 15.831s-.9 2.178-2.466 1.142c-1.567-1.035-4.04-4.328-6.2-3.273-2.16 1.056-2.547 3.875-1.407 7.669 1.14 3.794 3.333 12.204 3.52 12.966.187.761-.04 1.944-1.22 1.409-1.18-.534-8.427-6.205-10.9-2.598-2.473 3.607 2.427 13.66 2.947 14.769s.373 1.643-.127 2.004-2.76-1.743-4.88-3.273-4.86-2.926-6.12-.721c-1.26 2.204-.353 10.24 9.493 21.803l4.914 5.057 6.886-1.63c14.527-4.382 19.627-10.655 19.76-13.18.134-2.525-2.92-2.839-5.533-2.712-2.613.127-5.66.668-5.873.107-.214-.561-.04-1.122.993-1.777 1.033-.654 10.593-6.446 10.453-10.821-.14-4.376-9.286-3.541-10.566-3.728-1.28-.187-.834-1.336-.267-1.844.567-.507 6.96-6.419 10-8.991s4.253-5.077 2.96-7.214c-1.293-2.138-5.107-.635-6.98-.615-1.873.02-1.46-2.291-1.46-2.291s2.367-5.244 5.267-15.464c2.9-10.221-1.954-10.942-1.954-10.942"/><path fill="#062C0B" d="M458.667 234.147s0 .074-.054.214l-.166.668c-.154.561-.374 1.376-.667 2.418a1014.4 1014.4 0 0 1-2.52 8.891c-2.16 7.495-5.226 17.823-8.666 29.219a4312.112 4312.112 0 0 0-8.714 29.211c-1.093 3.735-2 6.761-2.593 8.865l-.714 2.405-.186.628c-.047.14-.074.207-.074.207s0-.074.047-.214.1-.361.167-.635c.16-.561.38-1.376.666-2.418.58-2.104 1.441-5.144 2.521-8.891 2.16-7.495 5.226-17.822 8.666-29.225a4599.616 4599.616 0 0 0 8.714-29.198l2.593-8.871c.307-1.036.547-1.844.707-2.405.086-.267.146-.474.193-.628.046-.154.08-.241.08-.241Z"/><path fill="#062C0B" d="M444.707 251.796c.102.137.189.285.26.441.153.287.366.715.626 1.242a98.28 98.28 0 0 1 1.894 4.169c.706 1.643 1.333 3.079 1.8 4.208.213.501.4.922.546 1.269.085.15.145.313.18.481a2.148 2.148 0 0 1-.26-.441c-.16-.287-.373-.708-.626-1.242-.5-1.056-1.154-2.539-1.86-4.182-.707-1.643-1.334-3.066-1.827-4.195l-.56-1.269a1.69 1.69 0 0 1-.173-.481ZM450.667 263.613c0-.06 2.946-1.583 6.666-3.394 3.72-1.81 6.714-3.246 6.74-3.186.027.06-2.94 1.583-6.666 3.4-3.727 1.817-6.7 3.24-6.74 3.18ZM444.627 280.881c.164-.059.334-.1.506-.121l1.394-.247c1.173-.207 2.793-.501 4.573-.888a121.03 121.03 0 0 0 4.533-1.089l1.334-.354a2.72 2.72 0 0 1 .513-.107c-.153.085-.317.15-.487.194-.313.113-.78.26-1.333.427-1.14.348-2.74.775-4.52 1.163-1.78.387-3.42.668-4.6.828-.593.08-1.073.14-1.407.167-.167.031-.337.04-.506.027ZM436.88 271.388s.133.107.34.334c.207.228.507.562.873.976.727.835 1.714 2.004 2.8 3.286a148.793 148.793 0 0 1 2.74 3.34c.347.434.627.782.814 1.029.105.123.197.257.273.401a2.036 2.036 0 0 1-.347-.341 61.475 61.475 0 0 1-.866-.975c-.727-.835-1.72-2.004-2.8-3.287a168.92 168.92 0 0 1-2.747-3.34 37.98 37.98 0 0 1-.807-1.028 2.154 2.154 0 0 1-.273-.395ZM429.607 285.951c.161.126.307.272.433.434l1.12 1.249a473.82 473.82 0 0 1 7.187 8.417c.42.521.773.955 1.06 1.296.135.155.256.323.36.501a2.968 2.968 0 0 1-.434-.434l-1.12-1.256a461.535 461.535 0 0 1-3.62-4.182 348.352 348.352 0 0 1-3.566-4.228L430 286.445a3.279 3.279 0 0 1-.393-.494ZM439.607 297.494c.216-.077.439-.132.666-.167l1.754-.374c1.48-.321 3.526-.762 5.766-1.336 2.24-.575 4.26-1.102 5.72-1.51l1.727-.481c.217-.071.44-.122.667-.154-.2.098-.407.178-.62.241-.4.14-.98.334-1.707.554a98.44 98.44 0 0 1-5.707 1.584c-2.246.554-4.3.975-5.793 1.249-.74.133-1.333.24-1.767.3-.23.061-.468.093-.706.094Z"/><path fill="#F5F5F5" d="M259.007 251.689h-86.734v40.08h86.734v-40.08Z"/><path fill="#E0E0E0" d="M256.947 289.912H174.28V253.84h82.667v36.072Zm-82.147-.541h81.607v-35.003H174.8v35.003ZM280.194 251.689h-21.187v40.08h21.187v-40.08Z"/><path fill="#E0E0E0" d="M174.527 264.962h82.14a.116.116 0 0 0 .062-.04.118.118 0 0 0 .024-.07.118.118 0 0 0-.024-.07.116.116 0 0 0-.062-.04h-82.14a.112.112 0 0 0-.086.11.112.112 0 0 0 .086.11Z"/><path fill="#E0E0E0" d="M215.867 264.855c.227-3.625.239-7.261.033-10.888a.114.114 0 0 0-.113-.114.11.11 0 0 0-.08.034.11.11 0 0 0-.034.08 91.343 91.343 0 0 0 .034 10.888c0 .021.008.042.023.057a.08.08 0 0 0 .057.023.079.079 0 0 0 .056-.023.082.082 0 0 0 .024-.057ZM238 259.411a1.127 1.127 0 0 1-.691 1.037 1.12 1.12 0 0 1-1.464-1.466 1.125 1.125 0 0 1 1.035-.693 1.116 1.116 0 0 1 1.035.693c.056.136.085.282.085.429ZM194.867 259.411c0 .222-.066.44-.19.624a1.118 1.118 0 0 1-2.03-.409 1.127 1.127 0 0 1 .482-1.151 1.119 1.119 0 0 1 1.738.936ZM216.72 271.836a1.122 1.122 0 0 1-1.912.793 1.119 1.119 0 0 1-.306-.574 1.117 1.117 0 0 1 1.098-1.341 1.128 1.128 0 0 1 .792.328 1.133 1.133 0 0 1 .328.794ZM182.64 291.769l-4.467 25.164h2.514l8.233-25.164h-6.28ZM252.873 291.769l3.734 25.204h-2.513l-7.5-25.204h6.279ZM269.64 291.769l4.233 25.204h-2.513l-8-25.204h6.28ZM216.667 283.179a1.122 1.122 0 0 1-1.912.793 1.12 1.12 0 0 1 .17-1.726 1.111 1.111 0 0 1 1.414.139 1.134 1.134 0 0 1 .328.794ZM174.527 277.374h82.14a.122.122 0 0 0 .062-.04.118.118 0 0 0 .024-.07.116.116 0 0 0-.086-.111h-82.14a.11.11 0 0 0-.062.041.11.11 0 0 0-.024.07.112.112 0 0 0 .086.11Z"/><path fill="#EBEBEB" d="M441.767 56.653h-54.84v73.694h54.84V56.653Z"/><path fill="#DCEFDE" d="M438.907 59.552H389.78v67.902h49.127V59.552Z"/><path fill="#237E30" d="M424.453 83.04H405.7v21.475h18.753V83.039Z"/><path fill="#EBEBEB" d="M417.88 147.815V183.5h47.767v-35.685H417.88Z"/><path fill="#DCEFDE" d="M463.767 149.679H419.76v31.97h44.007v-31.97Z"/><path fill="#237E30" d="M434.987 159.084v12.205h13.92v-12.205h-13.92Z"/><path fill="#EBEBEB" d="M70.393 85.117H35.6v46.759h34.793v-46.76Z"/><path fill="#DCEFDE" d="M68.587 86.954H37.413v43.086h31.174V86.954Z"/><path fill="#237E30" d="M59.413 101.857h-11.9v13.627h11.9v-13.627Z"/><path fill="#EBEBEB" d="m229.267 228.91-2.373 22.051h30.386l2.52-22.051h-30.533Z"/><path fill="#FAFAFA" d="m230.513 230.493-2.306 19.299h27.42l2.22-19.299h-27.334Z"/><path fill="#E0E0E0" d="m235.127 233.74-1.42 12.806h17.306l.887-12.806h-16.773Z"/><path fill="#F5F5F5" d="m258.713 238.409 6.274 12.639-7.707-.087 1.527-13.38"/><path fill="#263238" d="M453.753 316.806c0 .093-93.92.173-209.74.173-115.82 0-209.766-.08-209.766-.173 0-.094 93.9-.174 209.753-.174 115.853 0 209.753.08 209.753.174Z"/><path fill="#DCEFDE" d="M339.96 51.71H89.113v165.443H339.96V51.71Z"/><path fill="#263238" d="M339.96 217.16c0-1.136-.053-64.529-.14-165.45l.14.14H89.133l.174-.174v165.451l-.16-.161 250.846.161-250.846.153h-.16V51.503h.193l250.827.04h.133v.133c-.14 100.955-.18 164.355-.18 165.484Z"/><path fill="#263238" d="M339.96 66.433c0 .093-56.16.173-125.42.173s-125.427-.08-125.427-.173c0-.094 56.147-.174 125.427-.174s125.42.08 125.42.174Z"/><path fill="#237E30" d="M322.78 90.908H112.487v28.838H322.78V90.908ZM155.573 170.18h-46.687v46.78h46.687v-46.78ZM210.76 170.18h-46.687v46.78h46.687v-46.78ZM264.3 170.18h-46.687v46.78H264.3v-46.78Z"/><path fill="#54B862" d="M192.367 150.353H141.76a7.706 7.706 0 0 1-5.452-2.261 7.734 7.734 0 0 1-2.261-5.461 7.73 7.73 0 0 1 2.271-5.443 7.7 7.7 0 0 1 5.442-2.252h50.607c2.045 0 4.007.814 5.454 2.263a7.742 7.742 0 0 1 2.259 5.466 7.741 7.741 0 0 1-2.273 5.439 7.71 7.71 0 0 1-5.44 2.249Z"/><path fill="#263238" d="m251.527 150.353.666-.046c.234 0 .507-.081.84-.134a7.711 7.711 0 0 0 5.96-6.012 7.783 7.783 0 0 0-.893-5.397 7.634 7.634 0 0 0-5.28-3.674 28.08 28.08 0 0 0-3.714-.114H236.44l-94.74.053a7.527 7.527 0 0 0-5.273 2.104 7.554 7.554 0 0 0-.349 10.53 7.523 7.523 0 0 0 5.122 2.45c1.073.053 2.187 0 3.273 0h25.153l42.594.04 28.713.053 7.807.034-7.807.033-28.713.054h-71.04a7.865 7.865 0 0 1-3.233-.922 7.914 7.914 0 0 1-1.088-13.182 7.875 7.875 0 0 1 4.841-1.668l94.74.047h12.666a25.622 25.622 0 0 1 3.747.134 7.77 7.77 0 0 1 5.098 3.312 7.822 7.822 0 0 1 1.175 5.973 7.947 7.947 0 0 1-2.153 3.934 7.783 7.783 0 0 1-2.793 1.757c-.37.133-.749.24-1.133.321-.34.047-.621.1-.847.113l-.673.207ZM184 155.757h.58l-.707 3.534h2.187l-.1.501h-2.76l.8-4.035ZM186.5 158.51a1.755 1.755 0 0 1 .506-1.292 1.735 1.735 0 0 1 1.287-.512 1.283 1.283 0 0 1 1.332.793c.07.172.103.357.095.543a1.756 1.756 0 0 1-.502 1.293 1.728 1.728 0 0 1-1.285.517 1.323 1.323 0 0 1-1.325-.805 1.325 1.325 0 0 1-.108-.537Zm2.667-.455a.798.798 0 0 0-.247-.649.788.788 0 0 0-.306-.181.786.786 0 0 0-.354-.031 1.192 1.192 0 0 0-.876.384 1.21 1.21 0 0 0-.317.905.798.798 0 0 0 .553.828.814.814 0 0 0 .353.034 1.204 1.204 0 0 0 .874-.385 1.19 1.19 0 0 0 .313-.905h.007ZM193.633 156.739l-.6 3.053h-.533l.073-.374a1.489 1.489 0 0 1-1.073.414 1.263 1.263 0 0 1-1.333-1.336 1.715 1.715 0 0 1 .472-1.277 1.717 1.717 0 0 1 1.254-.526 1.16 1.16 0 0 1 1.1.547l.1-.514.54.013Zm-.82 1.336a.819.819 0 0 0-.251-.649.824.824 0 0 0-.307-.181.792.792 0 0 0-.355-.031 1.184 1.184 0 0 0-.872.387 1.205 1.205 0 0 0-.315.902.81.81 0 0 0 .907.862 1.2 1.2 0 0 0 1.137-.817c.053-.159.072-.326.056-.493v.02ZM197.806 155.517l-.853 4.275h-.526l.073-.374c-.292.275-.68.423-1.08.414a1.263 1.263 0 0 1-1.334-1.336 1.72 1.72 0 0 1 1.047-1.669c.215-.091.447-.136.68-.134a1.165 1.165 0 0 1 1.107.554l.346-1.743.54.013Zm-1.073 2.538a.812.812 0 0 0-.246-.649.795.795 0 0 0-.661-.212 1.195 1.195 0 0 0-1.128.804c-.055.155-.077.32-.065.485a.816.816 0 0 0 .252.649.799.799 0 0 0 .662.213c.164-.001.326-.035.477-.101a1.203 1.203 0 0 0 .709-1.189ZM198.607 156.74h.553l-.6 3.052H198l.607-3.052Zm.093-.922a.379.379 0 0 1 .247-.364.364.364 0 0 1 .153-.024.335.335 0 0 1 .24.089.33.33 0 0 1 .107.232.39.39 0 0 1-.531.377.329.329 0 0 1-.188-.18.365.365 0 0 1-.028-.13ZM202.88 157.721a2.298 2.298 0 0 1-.034.361l-.339 1.71h-.554l.34-1.71a1.794 1.794 0 0 0 0-.254c0-.401-.226-.621-.706-.621a1.071 1.071 0 0 0-1.127.975l-.327 1.61h-.553l.607-3.053h.533l-.08.388a1.514 1.514 0 0 1 1.107-.421.967.967 0 0 1 .81.235.969.969 0 0 1 .323.78ZM207.067 156.739l-.52 2.672a1.685 1.685 0 0 1-.581 1.173 1.67 1.67 0 0 1-1.246.397 2.117 2.117 0 0 1-1.393-.434l.306-.421c.32.253.72.383 1.127.367a1.08 1.08 0 0 0 1.093-.576 1.08 1.08 0 0 0 .12-.419l.047-.22a1.551 1.551 0 0 1-1.107.421 1.225 1.225 0 0 1-1.237-.741 1.22 1.22 0 0 1-.096-.502 1.687 1.687 0 0 1 .501-1.234 1.676 1.676 0 0 1 1.239-.483 1.189 1.189 0 0 1 1.14.595l.113-.561.494-.034Zm-.847 1.243c0-.488-.333-.788-.907-.788a1.138 1.138 0 0 0-.86.335 1.151 1.151 0 0 0-.34.86c0 .495.34.795.914.795a1.142 1.142 0 0 0 .858-.34 1.157 1.157 0 0 0 .335-.862ZM208.873 159.458a.421.421 0 0 1 .025-.161.425.425 0 0 1 .087-.138.412.412 0 0 1 .295-.122.363.363 0 0 1 .36.374.395.395 0 0 1-.11.297.393.393 0 0 1-.432.096.366.366 0 0 1-.225-.346ZM210.18 159.458a.403.403 0 0 1 .407-.421.363.363 0 0 1 .336.232.386.386 0 0 1 .024.142.413.413 0 0 1-.11.297.407.407 0 0 1-.29.124.363.363 0 0 1-.367-.374ZM211.48 159.458a.402.402 0 0 1 .117-.299.402.402 0 0 1 .437-.093.362.362 0 0 1 .219.345.395.395 0 0 1-.242.389.406.406 0 0 1-.158.032.373.373 0 0 1-.373-.374ZM98.667 59.786a1.846 1.846 0 0 1-1.136 1.703 1.837 1.837 0 0 1-2.51-1.343 1.848 1.848 0 0 1 .783-1.893 1.838 1.838 0 0 1 2.863 1.533ZM106.507 59.786a1.848 1.848 0 0 1-1.136 1.703 1.837 1.837 0 0 1-2.509-1.343 1.841 1.841 0 0 1 .782-1.893 1.84 1.84 0 0 1 2.863 1.533ZM114.32 59.786a1.842 1.842 0 0 1-3.144 1.301 1.85 1.85 0 0 1-.394-2.011 1.843 1.843 0 0 1 1.705-1.134 1.844 1.844 0 0 1 1.833 1.844Z"/><path fill="#F5F5F5" d="M313.813 209.805c48.351 0 87.547-39.274 87.547-87.721 0-48.448-39.196-87.722-87.547-87.722-48.35 0-87.546 39.274-87.546 87.722 0 48.447 39.196 87.721 87.546 87.721Z"/><path fill="#263238" d="M401.333 122.084s0-.481-.053-1.423c0-.475-.033-1.056-.053-1.75-.02-.695 0-1.51-.12-2.419-.12-.908-.154-1.943-.247-3.066-.093-1.122-.293-2.358-.46-3.687a91.938 91.938 0 0 0-1.773-9.085 88.872 88.872 0 0 0-3.587-11.015 84.106 84.106 0 0 0-6.093-12.345 88.582 88.582 0 0 0-22.214-24.91 87.12 87.12 0 0 0-36.813-16.366 88.532 88.532 0 0 0-34.253.395 85.925 85.925 0 0 0-23 8.43 91.495 91.495 0 0 0-10.767 6.833 87.088 87.088 0 0 0-18.493 18.604 86.616 86.616 0 0 0-7.127 11.49c-.5 1.022-1.073 2.004-1.52 3.066l-1.427 3.126c-.846 2.131-1.713 4.269-2.413 6.473a85.77 85.77 0 0 0-3.333 13.54 95.33 95.33 0 0 0-1.147 14.095c.03 4.72.411 9.432 1.14 14.095.745 4.6 1.86 9.133 3.333 13.554l.56 1.636.274.822.313.802a108.85 108.85 0 0 1 1.267 3.213l1.413 3.126c.447 1.049 1.02 2.044 1.52 3.066a86.62 86.62 0 0 0 7.127 11.496A94.37 94.37 0 0 0 252 183.974a95.573 95.573 0 0 0 9.86 8.517 93.242 93.242 0 0 0 10.807 6.833A91.434 91.434 0 0 0 284 204.408a92.55 92.55 0 0 0 11.687 3.34 88.491 88.491 0 0 0 34.253.394 87.165 87.165 0 0 0 36.807-16.373 88.523 88.523 0 0 0 22.22-24.909 84.639 84.639 0 0 0 6.086-12.345 87.026 87.026 0 0 0 3.614-11.009c.826-3.386 1.406-6.426 1.78-9.084.16-1.336.34-2.552.46-3.681s.166-2.151.24-3.066c.073-.915.106-1.724.12-2.418.013-.695.04-1.283.053-1.751 0-.941.053-1.422.053-1.422v1.422c0 .468 0 1.056-.04 1.751-.04.694 0 1.509-.106 2.424-.107.916-.14 1.938-.227 3.067-.087 1.128-.28 2.358-.44 3.687a91.103 91.103 0 0 1-1.753 9.105 86.394 86.394 0 0 1-3.56 11.042 84.314 84.314 0 0 1-6.1 12.418 88.728 88.728 0 0 1-22.234 25.003A87.19 87.19 0 0 1 330 208.416a88.988 88.988 0 0 1-34.373-.368 86.046 86.046 0 0 1-23.147-8.45 92.6 92.6 0 0 1-10.813-6.853 96.232 96.232 0 0 1-9.907-8.544 95.203 95.203 0 0 1-8.667-10.134 87.056 87.056 0 0 1-7.16-11.543c-.5-1.022-1.073-2.004-1.526-3.073l-1.42-3.139c-.42-1.076-.84-2.144-1.267-3.22l-.32-.808-.273-.822-.56-1.65a85.666 85.666 0 0 1-3.334-13.607 87.622 87.622 0 0 1 0-28.296 85.557 85.557 0 0 1 3.334-13.6c.7-2.212 1.573-4.35 2.42-6.494l1.42-3.14c.453-1.055 1.026-2.05 1.526-3.072a86.474 86.474 0 0 1 7.16-11.537 93.927 93.927 0 0 1 8.667-10.133 96.033 96.033 0 0 1 9.913-8.497 91.588 91.588 0 0 1 10.814-6.88 86.054 86.054 0 0 1 23.146-8.45A88.695 88.695 0 0 1 330 35.73a87.42 87.42 0 0 1 36.907 16.46 88.625 88.625 0 0 1 22.233 25.003 84.58 84.58 0 0 1 6.08 12.385 86.664 86.664 0 0 1 3.56 11.042c.82 3.393 1.387 6.446 1.753 9.105.16 1.336.334 2.558.44 3.687.107 1.129.16 2.158.227 3.073s.133 1.75.133 2.418c0 .668 0 1.282.04 1.757-.04.915-.04 1.423-.04 1.423Z"/><mask id="a" width="160" height="137" x="234" y="40" maskUnits="userSpaceOnUse" style="mask-type:luminance"><path fill="#fff" d="M278.733 152.705a47.13 47.13 0 0 1-12.12-24.316 47.18 47.18 0 0 1 3.309-26.977 47.064 47.064 0 0 1 17.634-20.652 46.931 46.931 0 0 1 26.087-7.449 46.935 46.935 0 0 1 25.85 8.236 47.072 47.072 0 0 1 17.003 21.178 47.184 47.184 0 0 1 2.492 27.065 47.129 47.129 0 0 1-12.848 23.937l23.653 23.139a79.644 79.644 0 0 0 21.882-40.623 79.749 79.749 0 0 0-4.297-45.962 79.577 79.577 0 0 0-29.032-35.844 79.34 79.34 0 0 0-44.005-13.672 79.33 79.33 0 0 0-44.177 13.097 79.564 79.564 0 0 0-29.496 35.462 79.757 79.757 0 0 0-4.894 45.902 79.664 79.664 0 0 0 21.352 40.906l21.607-23.427Z"/></mask><g mask="url(#a)"><path fill="#54B862" d="M278.733 152.705a47.13 47.13 0 0 1-12.12-24.316 47.188 47.188 0 0 1 3.308-26.977 47.072 47.072 0 0 1 17.635-20.652 46.931 46.931 0 0 1 26.087-7.449 46.937 46.937 0 0 1 25.85 8.236 47.072 47.072 0 0 1 17.003 21.178 47.184 47.184 0 0 1 2.492 27.065 47.129 47.129 0 0 1-12.848 23.937l23.653 23.139a79.651 79.651 0 0 0 21.882-40.623 79.757 79.757 0 0 0-4.297-45.962 79.572 79.572 0 0 0-29.033-35.844 79.335 79.335 0 0 0-44.004-13.672 79.332 79.332 0 0 0-44.178 13.097 79.569 79.569 0 0 0-29.495 35.462 79.749 79.749 0 0 0-4.895 45.902 79.673 79.673 0 0 0 21.353 40.906l21.607-23.427Z"/><path fill="#000" d="M355.386 119.986h42.727s-4.32 34.85-5.187 35.498c-.866.648-26.14 29.873-26.14 29.873l-28.733-34.202 17.333-31.169Z" opacity=".8"/><path fill="#000" d="m343.86 91.162 30.233-29.74 21.287 31.824 2.84 26.74H355.9l-7.707-17-4.333-11.824Z" opacity=".7"/><path fill="#000" d="M315.673 80.374c-.513-.869 0-42.86 0-42.86l26.053 3.28 32.08 20.749-30.82 30.3-19.406-2.812-7.907-8.657Z" opacity=".5"/><path fill="#000" d="M253.613 63.06c.667.213 28.733 30.3 28.733 30.3l25.06-9.954 8.04-10.02.227-35.844-29.867 3.28-32.193 22.237Z" opacity=".3"/><path fill="#000" d="M231.553 119.986c.667.434 47.527 0 47.527 0l-.827-30.915-22.627-24.048-15.433 18.384-8.64 36.579Z" opacity=".1"/></g><path fill="#E0E0E0" d="M314.7 140.36c10.074 0 18.24-8.183 18.24-18.276 0-10.094-8.166-18.277-18.24-18.277-10.074 0-18.24 8.183-18.24 18.277 0 10.093 8.166 18.276 18.24 18.276Z"/><path fill="#455A64" d="M309.333 123.306a5.18 5.18 0 0 0 2.464 3.084 5.163 5.163 0 0 0 3.916.45l63.44-18.036-65.473 7.895a5.182 5.182 0 0 0-4.497 4.38 5.223 5.223 0 0 0 .15 2.227Z"/><path fill="#263238" d="m304.96 161.616-3.487 17.735h-4.626l1.82-9.352-5.894 7.602h-2.2l-3.24-7.595-1.866 9.352h-4.607l3.54-17.736h4.073l4.194 10.254 8-10.26h4.293ZM322 165.617l-2.733 13.734h-4.554l.28-1.289a5.598 5.598 0 0 1-3.966 1.516c-2.96 0-5.794-2.251-5.794-6.259 0-4.556 3.334-7.929 7.434-7.929 1.846 0 3.333.561 4.2 1.877l.326-1.65H322Zm-6.047 6.259a2.42 2.42 0 0 0-2.6-2.632c-1.9 0-3.266 1.543-3.266 3.848a2.413 2.413 0 0 0 1.574 2.475 2.4 2.4 0 0 0 1.032.137c1.927-.02 3.267-1.543 3.267-3.828h-.007ZM332.667 172.538l3.713 6.813h-5.107l-1.873-3.594-3.333 3.594h-5.4l6.853-7.007-3.62-6.68h5.033l1.82 3.5 3.267-3.5h5.313l-6.666 6.874ZM337.66 176.946a2.98 2.98 0 0 1 .881-2.202 2.962 2.962 0 0 1 2.206-.864 2.532 2.532 0 0 1 1.915.724 2.528 2.528 0 0 1 .751 1.908 2.998 2.998 0 0 1-.874 2.191 2.983 2.983 0 0 1-2.186.875 2.578 2.578 0 0 1-1.913-.734 2.589 2.589 0 0 1-.78-1.898ZM305.88 192.618h5.526l-.266 1.376h-7.94l.22-1.076 5.38-4.315c1.487-1.202 1.927-1.93 1.927-2.832 0-.902-.667-1.597-2.16-1.597a3.952 3.952 0 0 0-2.86 1.229l-1.04-.915a5.514 5.514 0 0 1 4.133-1.696c2.24 0 3.52 1.142 3.52 2.772 0 1.282-.553 2.391-2.447 3.887l-3.993 3.167ZM316.667 184.294l-.914 3.04h1.074c2.826 0 4.106 1.169 4.106 2.959 0 2.291-1.88 3.828-4.706 3.828a5.186 5.186 0 0 1-3.867-1.39l.833-1.222a4.16 4.16 0 0 0 3.147 1.202c1.907 0 3.013-.835 3.013-2.244 0-1.089-.786-1.757-2.806-1.757h-2.667l1.72-5.792h6.24l-.273 1.376h-4.9ZM322.447 190.053c0-3.841 2.166-7.261 5.593-7.261 2.32 0 3.727 1.503 3.727 4.068 0 3.847-2.18 7.261-5.574 7.261-2.34 0-3.746-1.503-3.746-4.068Zm7.74-3.16c0-1.757-.854-2.672-2.274-2.672-2.493 0-3.886 3.246-3.886 5.825 0 1.757.853 2.672 2.293 2.672 2.473-.007 3.867-3.247 3.867-5.825Z"/><path fill="#54B862" d="m409.293 302.951 2.834 4.583 7.213-8.35-3.8-4.042-6.247 7.809Z"/><path fill="#263238" d="M418.7 298.329c-.269.467-.593.9-.967 1.289-.667.761-1.553 1.783-2.587 2.892l-2.666 2.819a7.512 7.512 0 0 1-1.16 1.116c.277-.462.603-.892.973-1.283.667-.761 1.56-1.783 2.587-2.892l2.667-2.819a7.943 7.943 0 0 1 1.153-1.122Z"/><path fill="#263238" d="M412.06 298.763a7.496 7.496 0 0 1 1.773 1.51 7.856 7.856 0 0 1 1.527 1.756 7.785 7.785 0 0 1-1.773-1.509 8.106 8.106 0 0 1-1.527-1.757Z"/><path fill="#fff" d="m412.127 307.534 7.213-8.35-.713-.768-7.367 8.109.773.929" opacity=".6"/><path fill="#54B862" d="M352.387 313.9v-1.129l11.393.087v3.714l-.667.04c-3.133.147-15.933.527-18-.074-2.386-.674 7.274-2.638 7.274-2.638Z"/><path fill="#fff" d="M359.667 316.465a3.625 3.625 0 0 1 1.466-2.245 4.038 4.038 0 0 1 2.667-.748v2.953l-4.133.04Z" opacity=".6"/><path fill="#fff" d="M347.667 315.015s-3.387.889-2.974 1.41c.414.521 13.367.588 19.08.147v-.234l-15.106.04s-.34-1.336-1-1.363Z" opacity=".6"/><path fill="#263238" d="M363.94 316.331h-.76l-2.06.074c-1.74.047-4.147.087-6.807.073-2.66-.013-5.066-.067-6.806-.133l-2.06-.094-.56-.033h-.194.754l2.06.047c1.746.046 4.146.086 6.806.1 2.66.013 5.06 0 6.807 0l2.06-.034h.76Z"/><path fill="#263238" d="M348.667 316.545a4.036 4.036 0 0 0-.374-.922 4.344 4.344 0 0 0-.666-.735c.344.114.634.352.813.668.202.287.284.642.227.989ZM352 314.982s-.187-.167-.353-.408c-.167-.24-.267-.461-.234-.474.034-.013.187.16.354.408.166.247.28.454.233.474ZM352.94 314.534s-.207-.087-.4-.254c-.193-.167-.327-.32-.3-.347a.992.992 0 0 1 .393.254c.194.167.334.321.307.347ZM353.527 313.539a1.426 1.426 0 0 1-.594.067 1.472 1.472 0 0 1-.586-.06c.187-.068.388-.091.586-.067.2-.024.402-.003.594.06ZM353.733 312.838a1.277 1.277 0 0 1-.666.173 1.202 1.202 0 0 1-.667-.087c.22-.033.444-.047.667-.04.219-.04.443-.055.666-.046Z"/><path fill="#263238" d="M351.64 314.054c-.24.044-.487.044-.727 0a4.334 4.334 0 0 1-.773-.161 2.166 2.166 0 0 1-.447-.173.357.357 0 0 1-.18-.214.26.26 0 0 1 .114-.267 1.405 1.405 0 0 1 1.653.367c.107.134.187.289.233.454v.187a1.694 1.694 0 0 0-.326-.581 1.334 1.334 0 0 0-.614-.381 1.193 1.193 0 0 0-.873.054c-.114.073-.073.2.053.274.132.069.271.125.414.167.244.078.494.14.746.187.42.066.727.066.727.087Z"/><path fill="#263238" d="M351.453 314.087a.606.606 0 0 1-.08-.468c.025-.179.094-.348.2-.494a.756.756 0 0 1 .614-.347.253.253 0 0 1 .099.037.263.263 0 0 1 .119.17.275.275 0 0 1 .002.107.754.754 0 0 1-.127.307 2.173 2.173 0 0 1-.347.407 1.098 1.098 0 0 1-.42.274s.147-.12.347-.334c.117-.125.222-.262.313-.407.1-.147.167-.401 0-.434-.166-.034-.366.153-.48.287a.998.998 0 0 0-.213.441 1.727 1.727 0 0 0-.027.454ZM363.733 313.439h-.84a3.84 3.84 0 0 0-1.833.668 3.338 3.338 0 0 0-1.153 1.503c-.18.447-.2.755-.227.748a.592.592 0 0 1 0-.214c.024-.193.069-.384.133-.568a3.337 3.337 0 0 1 1.16-1.569 3.696 3.696 0 0 1 1.914-.668c.208-.019.418-.019.626 0a.81.81 0 0 1 .22.1ZM358.247 315.429a9.822 9.822 0 0 1-3.334 0c0-.04.74 0 1.654 0 .913 0 1.673-.033 1.68 0Z"/><path fill="#263238" d="M360.467 315.436s-.06.147-.14.308c-.08.16-.114.293-.154.293-.04 0-.06-.167 0-.347.06-.18.274-.274.294-.254ZM361.333 314.474s-.046.134-.166.241c-.12.107-.234.18-.26.153-.027-.026.046-.133.166-.24.12-.107.214-.18.26-.154ZM362.52 314.033c0 .034-.16.034-.327.087-.166.054-.286.141-.32.114-.033-.027.067-.167.274-.234.206-.067.386 0 .373.033ZM363.373 313.826c0 .034-.053.087-.146.121-.094.033-.18.04-.194 0-.013-.04.054-.087.147-.121.093-.033.153-.026.193 0Z"/><path fill="#FFBE9D" d="m347.7 165.53-17.593-17.862 2.233-23.267.4-.46c.22-.254.467-.535.76-.842a4.363 4.363 0 0 1 1.167-.855 6.908 6.908 0 0 1 1.68-.668c.553-.074.733-.775.293-1.009-.44-.234-1.96-.053-3.48.909-1.52.962-.593-1.677-.28-2.672.313-.996 1.167-4.008.94-4.336-.32-.474-.907-.207-1.207.762-.3.968-1.386 3.841-1.893 3.66-.507-.18 1.193-5.09 1.193-5.09s.534-.988-.046-1.215c-1.04-.415-2.447 4.929-2.574 5.437-.08.354-.666.18-.526-.194s1.8-4.863.74-5.29c-.807-.328-1.2 4.382-2.067 5.13-.867.748.667-3.547-.12-3.828-.293-.107-.533-.147-1.053 2.439a51.968 51.968 0 0 0-1 5.397l-5.534 27.795 17.334 22.973 10.633-6.914ZM356.667 114.388c-.727.414 1.546 4.369.56 3.794-.987-.574-2.214-5.15-2.947-4.676-.967.615 1.493 4.71 1.673 5.07.18.361-.34.628-.486.288-.214-.481-2.554-5.478-3.5-4.89-.527.327.173 1.209.173 1.209s2.533 4.529 2.08 4.79c-.453.26-2.047-2.338-2.52-3.26-.473-.922-1.087-1.062-1.333-.535-.16.361 1.213 3.2 1.7 4.095.486.895 1.86 3.34.193 2.672-1.667-.668-3.193-.574-3.58-.267-.387.307-.087.962.467.935.604.042 1.2.163 1.773.361.48.143.931.369 1.333.668.34.247.634.481.894.668l.48.381 9.506 23.487-8.633 20.14 13.387 4.996 6-26.639-13.794-25.919a51.176 51.176 0 0 0-1.953-5.123c-.973-2.479-1.2-2.405-1.473-2.245Z"/><path fill="#455A64" d="m386.533 257.093-8.667-44.823-12.279 1.062v-.106l-22.427 2.037s-1.054 51.476-1.427 51.476l6.147 46.927 17.707-.808-6.84-46.714 2.52-37.481.506-.668L372 266.305l34.887 39.559 11.333-11.009-31.687-37.762Z"/><path fill="#263238" d="M359.193 259.07a1.566 1.566 0 0 1 0-.387c0-.287 0-.668.04-1.096.047-.995.12-2.358.207-4.008.213-3.44.507-8.109.827-13.273.326-4.676.626-8.964.853-12.238v-.04l3.073-3.66.854-.982c.2-.227.306-.341.32-.328a2.755 2.755 0 0 1-.26.375l-.8 1.028-2.974 3.688v-.074c-.206 3.273-.473 7.555-.766 12.238-.36 5.164-.667 9.826-.927 13.266-.133 1.664-.24 3.02-.32 4.008-.047.441-.08.802-.107 1.089.011.132.004.264-.02.394ZM365.56 213.226c.175 1.422.233 2.856.173 4.288a26.16 26.16 0 0 1-.173 4.289 53.164 53.164 0 0 1 0-8.577ZM350.44 217.1c.18-.053.366-.084.553-.094l1.634-.193c1.42-.167 3.466-.395 5.92-.668h.166v7.394l-.093.047-.127.06-4.26 2.138-.086.04-.074-.047-3.706-2.198-.067-.046v-.074c0-1.904.053-3.487.067-4.676l.04-1.256a1.744 1.744 0 0 1 0-.421c.02.158.031.316.033.475v1.289c0 1.149.04 2.705.073 4.576l-.073-.127 3.733 2.157h-.153l4.273-2.124.127-.067-.1.161v-7.121l.173.154c-2.4.213-4.413.374-5.846.48l-1.674.121a6.313 6.313 0 0 1-.533.02ZM367.707 215.416c.181-.047.366-.076.553-.086l1.633-.201c1.42-.167 3.467-.394 5.92-.668h.167V221.856l-.1.047-.127.067-4.28 2.11-.08.034-.08-.04-3.706-2.205-.067-.04v-.053c0-1.904.053-3.487.073-4.676v-1.263a1.852 1.852 0 0 1 0-.421c.02.158.031.316.034.475v1.289c0 1.149.04 2.705.073 4.576l-.073-.12 3.733 2.157h-.047l4.274-2.124.126-.06-.1.153v-7.114l.167.154c-2.4.214-4.413.374-5.847.481l-1.673.12c-.191.016-.382.02-.573.013Z"/><path fill="#263238" d="M358.72 218.102c-2.744.36-5.514.49-8.28.387a24.275 24.275 0 0 1 4.133-.367 25.077 25.077 0 0 1 4.147-.02ZM375.833 216.526a48.82 48.82 0 0 1-8.126.621 23.437 23.437 0 0 1 4.046-.488 24.609 24.609 0 0 1 4.08-.133ZM357.333 265.75a47.125 47.125 0 0 1-8.053.989 47.226 47.226 0 0 1 8.053-.989ZM385.413 258.062c0 .1-1.92.781-4.126 2.004-2.207 1.222-3.814 2.531-3.887 2.451.283-.357.617-.67.993-.928a20.137 20.137 0 0 1 2.727-1.831 20.449 20.449 0 0 1 2.98-1.336c.415-.19.859-.312 1.313-.36ZM347.7 102.872a2.617 2.617 0 0 1-.127-.247l-.36-.735c-.153-.321-.333-.735-.573-1.196l-.867-1.596c-.333-.588-.753-1.223-1.186-1.93-.434-.709-.987-1.424-1.56-2.199a42.137 42.137 0 0 0-4.407-4.863A38.56 38.56 0 0 0 324 81.563a34.957 34.957 0 0 0-9.907-1.61 38.318 38.318 0 0 0-20.626 5.497 35.504 35.504 0 0 0-7.8 6.34 38.762 38.762 0 0 0-8.454 14.696 42.752 42.752 0 0 0-1.413 6.406c-.113.955-.2 1.857-.26 2.672-.06.815-.08 1.583-.073 2.264.006.682 0 1.283.04 1.811.04.527.073.968.093 1.336.02.367.047.614.06.815a2.18 2.18 0 0 1 0 .28 1.937 1.937 0 0 1-.047-.274c0-.2-.053-.474-.086-.815-.034-.34-.1-.801-.134-1.336-.033-.534-.04-1.135-.066-1.817-.027-.681 0-1.443.04-2.278s.126-1.73.233-2.672a41.801 41.801 0 0 1 1.333-6.466 38.81 38.81 0 0 1 8.454-14.836 35.429 35.429 0 0 1 7.86-6.406 38.445 38.445 0 0 1 20.806-5.551c3.395.063 6.763.617 10 1.643a38.641 38.641 0 0 1 14.7 8.684 42.078 42.078 0 0 1 4.394 4.923c.573.788 1.086 1.53 1.546 2.231.46.702.84 1.336 1.167 1.95l.84 1.617c.233.468.4.882.547 1.216.146.334.246.568.326.748.049.077.091.158.127.241Z"/><path fill="#263238" d="M340.16 101.028a2.204 2.204 0 0 1-.313-.394c-.2-.267-.46-.668-.854-1.176a33.219 33.219 0 0 0-9.8-8.764A31.82 31.82 0 0 0 310.7 86.32a33.279 33.279 0 0 0-7.727 1.443 33.827 33.827 0 0 0-4.94 2.004c-.566.26-.986.514-1.286.668-.148.085-.301.159-.46.22.132-.108.275-.202.426-.28.287-.167.667-.441 1.26-.722a30.276 30.276 0 0 1 4.92-2.097 32.192 32.192 0 0 1 17.458-.742 32.232 32.232 0 0 1 15.282 8.49 30.468 30.468 0 0 1 3.467 4.075c.38.508.62.935.807 1.216.092.14.177.285.253.434Z"/><path fill="#54B862" d="m373.893 179.385-3.1 16.145c6.46 9.005 7.047 16.7 7.047 16.7l-34.707 2.993c.667-5.458 4-17.261 4-17.261l-5.04-17.235L332 167.574l10-9.044c-.193.507 9.393 6.065 9.393 6.065l13.774.12c.677.07 1.346.202 2 .394l6.726-17.481s5.2 7.669 3.46 17.081c-1.246 6.68-1.006 8.263-3.46 14.696"/><path fill="#263238" d="M348.72 167.12c.196.176.367.378.507.601.414.593.762 1.229 1.04 1.897.403 1 .629 2.063.666 3.14a7.933 7.933 0 0 1-.82 3.854 6.844 6.844 0 0 1-2.666 2.9 6.289 6.289 0 0 1-3.107.835 5.443 5.443 0 0 1-2.12-.408 3.294 3.294 0 0 1-.527-.274c-.113-.067-.173-.113-.166-.12a6.88 6.88 0 0 0 2.813.554 6.316 6.316 0 0 0 2.947-.861 6.73 6.73 0 0 0 2.513-2.779 7.824 7.824 0 0 0 .813-3.688 9.497 9.497 0 0 0-.6-3.059 19.57 19.57 0 0 0-1.293-2.592ZM372.7 178.877c-.06 0 .24-.668.533-1.73a12.571 12.571 0 0 0-.666-8.464c-.46-1.015-.854-1.59-.807-1.623.047-.033.133.12.327.374.254.361.477.743.666 1.142a11.37 11.37 0 0 1 .687 8.644 7.626 7.626 0 0 1-.507 1.243c-.12.28-.213.427-.233.414Z"/><path fill="#000" d="M368.047 194.562a1.379 1.379 0 0 0-1.38-.174c-.758.248-1.54.41-2.334.481-1.486.033-2.826-.808-4.2-1.383-1.373-.574-3.113-.828-4.2.187a2.4 2.4 0 0 0-.353 2.979 2.33 2.33 0 0 0 1.453.949c3.467.982 6.447.26 9.84-1.102.426-.133.81-.375 1.114-.702a.968.968 0 0 0 .06-1.235ZM342.58 158.396a9.403 9.403 0 0 0-2.14 6.5c.227 2.324 1.8 4.582 4.053 5.183 1.547.408 3.233.04 4.747.555 2.793.942 4.273 4.609 7.213 4.869 2.667.241 4.593-2.451 7.073-3.44a19.178 19.178 0 0 1 4.061-.788c2.82-.461 5.593-1.824 7.239-4.162 1.647-2.338 1.914-5.744.2-8.016-1.833-2.445-5.233-3.046-8.279-3.046-4.63.001-9.213.928-13.48 2.726a8.478 8.478 0 0 0-2.56 1.503 3.48 3.48 0 0 0-1.221 2.632" opacity=".3"/><path fill="#263238" d="M382.267 156.546a3.461 3.461 0 0 0-2.16-2.759c-1.334-.515-2.907-.147-4.214-.728-1.633-.728-2.32-2.672-2.733-4.389-.413-1.717-.807-3.667-2.213-4.77-.974-.761-2.26-.988-3.334-1.643-1.553-.955-2.4-2.705-3.46-4.195a8.385 8.385 0 0 0-1.42-1.543l-.06-.087c-2.26-2.725-8.28-3.079-10.88-.668l.1-.093c-4.853.367-7.933 8.223-8 13.199 0 3.1.967 6.34-.2 9.205-.666 1.67-2.04 3.013-2.56 4.737a5.264 5.264 0 0 0 2.661 6.216 5.247 5.247 0 0 0 6.573-1.54c-.074 1.262.966 2.378 2.153 2.805a8.831 8.831 0 0 0 3.747.227c2.666-.22 5.8-.668 7.18-3.012.926 1.396 2.746 1.963 4.413 1.843a13.473 13.473 0 0 0 4.747-.975 2.438 2.438 0 0 1-.174-.274c.25-.094.491-.21.72-.347 1.28-.782 2.074-2.479 1.474-3.861l1.453 1.69a5.814 5.814 0 0 0 2.427-7.348 7.034 7.034 0 0 1 2.286 1.529 3.492 3.492 0 0 0 1.474-3.219Z"/><path fill="#455A64" d="M381.653 158.617a2.41 2.41 0 0 0-.313-1.577 3.236 3.236 0 0 0-1.407-1.249 7.802 7.802 0 0 0-2.473-.575 10.008 10.008 0 0 1-3.093-.668 3.72 3.72 0 0 1-1.414-1.115 5.491 5.491 0 0 1-.86-1.697c-.413-1.229-.506-2.585-.913-3.874a5.826 5.826 0 0 0-.907-1.824 2.945 2.945 0 0 0-1.673-1.082c-.667-.167-1.413-.154-2.14-.301a3.453 3.453 0 0 1-1.907-1.035c-1.013-1.049-1.413-2.398-1.86-3.567a7.914 7.914 0 0 0-1.793-3.013 7.103 7.103 0 0 0-6.953-1.917c-.531.154-1.052.339-1.56.554.116-.088.241-.164.373-.227a6.636 6.636 0 0 1 1.153-.461 7.17 7.17 0 0 1 4.52.134 7.33 7.33 0 0 1 2.667 1.71 8.022 8.022 0 0 1 1.893 3.106c.454 1.183.86 2.479 1.807 3.441.46.491 1.065.821 1.727.941.666.134 1.406.114 2.153.301a3.33 3.33 0 0 1 1.867 1.229c.434.581.757 1.238.953 1.937.42 1.336.5 2.672.9 3.875a4.048 4.048 0 0 0 2.087 2.672 9.848 9.848 0 0 0 3 .668 7.742 7.742 0 0 1 2.533.668 3.259 3.259 0 0 1 1.433 1.336c.211.369.313.791.294 1.215a1.406 1.406 0 0 1-.094.395Z"/><path fill="#455A64" d="M373.133 168.242s.14-.06.367-.22c.324-.242.559-.585.667-.975a2.606 2.606 0 0 0-.114-1.857 4.492 4.492 0 0 0-1.766-1.777c-.8-.508-1.787-.889-2.76-1.51a5.134 5.134 0 0 1-1.334-1.189 5.015 5.015 0 0 1-.86-1.73 28.29 28.29 0 0 1-.513-4.008c-.167-1.336-.58-2.799-1.767-3.621-1.186-.821-2.666-1.055-3.726-2.137a6.932 6.932 0 0 1-1.62-3.694c-.207-1.269-.294-2.479-.58-3.561a8.231 8.231 0 0 0-1.334-2.779 8.818 8.818 0 0 0-3.5-2.772c-.986-.407-1.58-.487-1.573-.527.144.001.287.019.427.053.409.083.81.202 1.2.354a8.617 8.617 0 0 1 3.64 2.745 8.305 8.305 0 0 1 1.42 2.853c.306 1.109.4 2.331.62 3.574a6.593 6.593 0 0 0 1.546 3.52c.927.982 2.427 1.222 3.687 2.091a4.049 4.049 0 0 1 1.38 1.763c.267.67.442 1.374.52 2.091.066 1.326.227 2.645.48 3.948.147.584.407 1.134.767 1.617.35.449.776.834 1.26 1.135.933.608 1.92 1.009 2.74 1.543a4.59 4.59 0 0 1 1.806 1.904c.281.634.305 1.353.067 2.004a1.89 1.89 0 0 1-.76.989 1.107 1.107 0 0 1-.387.173ZM357.033 169.705c.282-.388.436-.855.44-1.336 0-.549-.118-1.091-.346-1.59-.254-.594-.667-1.215-1.014-2.004a3.97 3.97 0 0 1-.28-2.672c.307-.994.718-1.952 1.227-2.859.552-.97.852-2.063.873-3.179a5.55 5.55 0 0 0-1.166-3.294c-.734-.988-1.64-1.823-2.354-2.798-.36-.476-.652-1-.866-1.557a6.242 6.242 0 0 1-.34-1.677 13.598 13.598 0 0 1 .24-3.106 26.11 26.11 0 0 0 .38-2.672 6.203 6.203 0 0 0-.707-3.707 5.462 5.462 0 0 0-.9-1.082c.113.054.217.126.307.213.276.226.515.494.706.795a6.145 6.145 0 0 1 .84 3.795 26.727 26.727 0 0 1-.34 2.672 13.225 13.225 0 0 0-.206 3.032c.035.543.148 1.079.333 1.59.206.526.484 1.021.827 1.47.666.935 1.6 1.763 2.36 2.792a5.908 5.908 0 0 1 1.226 3.494 7.026 7.026 0 0 1-.926 3.34 14.961 14.961 0 0 0-1.234 2.792 3.695 3.695 0 0 0 .227 2.532c.327.741.72 1.382.967 2.004.222.529.325 1.102.3 1.676a2.094 2.094 0 0 1-.32 1.022c-.064.12-.15.227-.254.314Z"/><path fill="#455A64" d="M345.333 169.158a.784.784 0 0 1-.193-.321 1.645 1.645 0 0 1 0-1.082c.193-.55.546-1.03 1.013-1.376a14.572 14.572 0 0 0 1.707-1.41 4.607 4.607 0 0 0 1.093-2.358 5.412 5.412 0 0 0-.473-2.959 6.91 6.91 0 0 1-.667-3.414 11.918 11.918 0 0 1 1.267-3.507 7.362 7.362 0 0 0 .893-3.46 14.966 14.966 0 0 0-.72-3.34 10.164 10.164 0 0 1-.16-5.825 6.56 6.56 0 0 1 2.174-3.266 5.1 5.1 0 0 1 .906-.575c.111-.062.23-.107.354-.133a9.622 9.622 0 0 0-1.194.808 6.594 6.594 0 0 0-2 3.233 10.09 10.09 0 0 0 .234 5.665c.383 1.095.636 2.232.753 3.386a7.56 7.56 0 0 1-.92 3.628c-.582 1.064-1 2.21-1.24 3.4a6.598 6.598 0 0 0 .667 3.26c.203.504.357 1.028.46 1.563a4.824 4.824 0 0 1-1.2 4.028c-.547.517-1.138.984-1.767 1.396-.45.317-.8.758-1.007 1.269a1.628 1.628 0 0 0-.073 1.015c.047.261.127.368.093.375Z"/><path fill="#263238" d="M70 298.516c.029-.102.069-.201.12-.294l.393-.848a21.06 21.06 0 0 0 1.167-3.381c.766-3.006 1.033-7.595-.1-13.052a69.954 69.954 0 0 0-2.42-8.764c-1.02-3.113-2.207-6.413-3.18-9.98a38.676 38.676 0 0 1-1.567-11.477c.147-4.061 1.334-8.116 2.667-12.144 1.333-4.028 2.666-8.016 3.08-11.964A18.227 18.227 0 0 0 68 215.57c-1.747-3.226-3.94-5.978-5.587-8.837a30.95 30.95 0 0 1-3.333-8.491 31.65 31.65 0 0 1-.207-13.159c.29-1.599.736-3.166 1.334-4.676a1.824 1.824 0 0 1-.08.307l-.28.895a33.66 33.66 0 0 0-.847 3.474 32.088 32.088 0 0 0 .333 13.086 30.456 30.456 0 0 0 3.334 8.39c1.64 2.819 3.846 5.564 5.626 8.824a18.655 18.655 0 0 1 2.26 11.269c-.413 4.042-1.787 8.016-3.1 12.024-1.313 4.008-2.5 8.016-2.666 12.024a38.55 38.55 0 0 0 1.533 11.356c.953 3.547 2.127 6.854 3.14 9.974a68.018 68.018 0 0 1 2.373 8.817c1.107 5.498.793 10.134 0 13.146a19.704 19.704 0 0 1-1.24 3.381c-.187.347-.327.621-.433.828-.046.108-.1.213-.16.314Z"/><path fill="#54B862" d="M64.62 209.552s-3.333-10.688 2.667-16.961a.372.372 0 0 1 .176-.136.376.376 0 0 1 .223-.008.372.372 0 0 1 .267.331c.274 1.764.674 7.141-3.333 16.774Z"/><path fill="#263238" d="M66.62 196.158a9.608 9.608 0 0 1-.227 2.004c-.22 1.336-.473 2.953-.76 4.716-.286 1.764-.533 3.34-.746 4.716a10.846 10.846 0 0 1-.354 1.958 8.5 8.5 0 0 1 .06-2.004c.107-1.223.327-2.906.627-4.75.3-1.844.627-3.507.886-4.676.098-.672.27-1.33.514-1.964Z"/><path fill="#54B862" d="M68.54 234.775s2.04-11.015 10.26-13.747a.358.358 0 0 1 .202-.014.367.367 0 0 1 .271.475c-.54 1.71-2.7 6.653-10.733 13.286Z"/><path fill="#263238" d="M76.56 223.874a10.084 10.084 0 0 1-1.12 1.636l-2.873 3.814-2.86 3.808c-.359.557-.77 1.078-1.227 1.556.257-.611.586-1.19.98-1.723.667-1.029 1.647-2.418 2.773-3.908a96.816 96.816 0 0 1 2.974-3.741 9.255 9.255 0 0 1 1.353-1.442Z"/><path fill="#54B862" d="M66.32 262.417s-1.24-11.136 5.833-16.139a.37.37 0 0 1 .387-.033.364.364 0 0 1 .2.334c-.02 1.797-.653 7.154-6.42 15.838Z"/><path fill="#263238" d="M70.833 249.652a9.642 9.642 0 0 1-.593 1.89l-1.647 4.489c-.613 1.677-1.16 3.193-1.633 4.489-.179.637-.42 1.254-.72 1.844a8.33 8.33 0 0 1 .44-1.938c.34-1.175.873-2.785 1.52-4.542a90.56 90.56 0 0 1 1.76-4.449 9.202 9.202 0 0 1 .873-1.783Z"/><path fill="#54B862" d="M72.507 290.219s-.84-11.175 6.406-15.918a.362.362 0 0 1 .386-.018.364.364 0 0 1 .188.338c-.087 1.791-.907 7.128-6.98 15.598Z"/><path fill="#263238" d="M77.473 277.621a9.52 9.52 0 0 1-.666 1.877c-.52 1.269-1.134 2.765-1.807 4.422l-1.787 4.422a10.758 10.758 0 0 1-.786 1.824 8.353 8.353 0 0 1 .506-1.924c.38-1.162.973-2.752 1.68-4.482.707-1.73 1.4-3.273 1.92-4.382a9.846 9.846 0 0 1 .94-1.757Z"/><path fill="#54B862" d="M59.82 200.153s-9.913-5.191-10.107-13.861a.378.378 0 0 1 .193-.337.372.372 0 0 1 .387.016c1.474 1.022 5.554 4.542 9.527 14.182Z"/><path fill="#263238" d="M51.773 189.271a9.73 9.73 0 0 1 1.233 1.556l2.8 3.868 2.8 3.868c.428.507.807 1.052 1.134 1.63a8.012 8.012 0 0 1-1.334-1.45c-.786-.942-1.82-2.284-2.906-3.801-1.087-1.516-2.04-2.919-2.667-3.948a9.077 9.077 0 0 1-1.06-1.723Z"/><path fill="#54B862" d="M70.467 223.112s-10.207-4.576-10.927-13.22a.369.369 0 0 1 .36-.406.367.367 0 0 1 .193.052c1.534.942 5.827 4.222 10.374 13.574Z"/><path fill="#263238" d="M61.773 212.751c.494.446.94.94 1.333 1.477.874 1.062 1.894 2.317 3.027 3.694l3.034 3.687c.452.482.863 1.003 1.226 1.556a7.852 7.852 0 0 1-1.447-1.336 67.572 67.572 0 0 1-3.14-3.614 100.066 100.066 0 0 1-2.933-3.78 9.138 9.138 0 0 1-1.1-1.684Z"/><path fill="#54B862" d="M64.593 248.743s-7.007-8.731-3.72-16.753a.37.37 0 0 1 .314-.247.37.37 0 0 1 .353.187c.933 1.523 3.267 6.386 3.053 16.813Z"/><path fill="#263238" d="M61.567 235.543a10.1 10.1 0 0 1 .513 1.918c.287 1.336.633 2.925 1.013 4.676.38 1.75.727 3.34 1.027 4.676.185.635.313 1.285.38 1.944a7.916 7.916 0 0 1-.667-1.871c-.346-1.176-.76-2.819-1.153-4.676-.393-1.857-.667-3.494-.893-4.676a9.259 9.259 0 0 1-.22-1.991Z"/><path fill="#54B862" d="M71.54 278.897s-10.133-4.75-10.707-13.401a.37.37 0 0 1 .172-.348.37.37 0 0 1 .388.001c1.52.955 5.754 4.289 10.147 13.748Z"/><path fill="#263238" d="M63.02 268.382c.494.452.94.954 1.333 1.497l2.96 3.747 2.974 3.734c.448.487.85 1.015 1.2 1.577A8.366 8.366 0 0 1 70 277.554a75.256 75.256 0 0 1-3.073-3.667 98.095 98.095 0 0 1-2.867-3.828 8.982 8.982 0 0 1-1.04-1.677ZM91.72 234.835c.01.083.01.166 0 .248v.714c0 .668-.073 1.584-.12 2.719-.133 2.392-.313 5.718-.533 9.706-.727 4.055-2.787 8.551-5.554 12.913-2 3.213-4.16 6.139-6 8.857a62.168 62.168 0 0 0-4.5 7.442 31.967 31.967 0 0 0-2.1 5.464 30.28 30.28 0 0 0-.386 1.55 2.53 2.53 0 0 1-.154.541c.007-.186.03-.372.067-.555.053-.367.16-.895.313-1.576a29.266 29.266 0 0 1 2-5.551 60.1 60.1 0 0 1 4.447-7.528c1.82-2.739 3.94-5.665 5.96-8.865 2.753-4.342 4.807-8.771 5.553-12.759.28-4.008.514-7.308.667-9.692.087-1.129.16-2.038.213-2.712 0-.281.054-.515.074-.715.02-.201.04-.201.053-.201Z"/><path fill="#54B862" d="M85.686 260.32s4.287-10.348-1.106-17.128a.37.37 0 0 0-.376-.161.372.372 0 0 0-.29.288c-.46 1.73-1.347 7.054 1.772 17.001Z"/><path fill="#263238" d="M84.906 246.799c.183.639.297 1.295.34 1.958.147 1.215.32 2.905.454 4.769a70.44 70.44 0 0 1 .193 4.783c.042.67.002 1.343-.12 2.004a11.307 11.307 0 0 1-.173-2.004l-.32-4.77c-.12-1.783-.234-3.393-.334-4.762a9.617 9.617 0 0 1-.04-1.978Z"/><path fill="#000" d="M85.686 260.32s4.287-10.348-1.106-17.128a.37.37 0 0 0-.376-.161.372.372 0 0 0-.29.288c-.46 1.73-1.347 7.054 1.772 17.001Z" opacity=".3"/><path fill="#54B862" d="M72.393 285.236s3.44-10.688-2.486-16.987a.374.374 0 0 0-.667.18c-.307 1.79-.76 7.168 3.153 16.807Z"/><path fill="#263238" d="M70.52 271.876c.243.619.41 1.265.5 1.924.247 1.196.553 2.866.84 4.709.287 1.844.48 3.534.58 4.756.1.664.114 1.337.04 2.004a11.4 11.4 0 0 1-.333-1.957c-.2-1.336-.44-2.959-.667-4.723-.227-1.763-.513-3.34-.72-4.722a10.418 10.418 0 0 1-.24-1.991Z"/><path fill="#000" d="M72.393 285.236s3.44-10.688-2.486-16.987a.374.374 0 0 0-.667.18c-.307 1.79-.76 7.168 3.153 16.807Z" opacity=".3"/><path fill="#54B862" d="M91.147 247.674s9.166-6.426 8.24-15.05a.369.369 0 0 0-.433-.331.366.366 0 0 0-.18.091c-1.334 1.202-4.927 5.217-7.627 15.29Z"/><path fill="#000" d="M91.147 247.674s9.166-6.426 8.24-15.05a.369.369 0 0 0-.433-.331.366.366 0 0 0-.18.091c-1.334 1.202-4.927 5.217-7.627 15.29Z" opacity=".3"/><path fill="#263238" d="M97.727 235.844a8.514 8.514 0 0 1-.76 1.837 88.868 88.868 0 0 1-2.167 4.262 74.432 74.432 0 0 1-2.393 4.148 8.227 8.227 0 0 1-1.167 1.61c.248-.614.551-1.205.907-1.764l2.286-4.188 2.274-4.202c.283-.6.624-1.17 1.02-1.703Z"/><path fill="#54B862" d="M76.087 274.688s11.053-1.723 14-9.873a.374.374 0 0 0-.447-.494c-1.707.494-6.7 2.512-13.553 10.367Z"/><path fill="#000" d="M76.087 274.688s11.053-1.723 14-9.873a.374.374 0 0 0-.447-.494c-1.707.494-6.7 2.512-13.553 10.367Z" opacity=".3"/><path fill="#263238" d="M87.2 266.973c-.446.5-.947.949-1.493 1.336-.954.768-2.3 1.79-3.82 2.872a79.505 79.505 0 0 1-4 2.672 8.164 8.164 0 0 1-1.754.935 9.953 9.953 0 0 1 1.594-1.182l3.886-2.759 3.887-2.765a9.784 9.784 0 0 1 1.7-1.109Z"/><path fill="#455A64" d="m65.547 295.069-3.22 21.737h20.086l-2.606-21.737h-14.26Z"/><path fill="#263238" d="M80.613 301.802c0 .114-3.626.207-8.1.207-4.473 0-8.1-.093-8.1-.207 0-.113 3.62-.207 8.1-.207 4.48 0 8.1.094 8.1.207ZM81.007 303.533c0 .113-3.74.207-8.36.207-4.62 0-8.367-.094-8.367-.207 0-.114 3.74-.208 8.367-.208 4.626 0 8.36.094 8.36.208Z"/><path fill="#54B862" d="M438.667 287.708a5.513 5.513 0 0 0-3.334 2.705 9.672 9.672 0 0 0-1.106 4.248c-.167 2.859.94 5.959 2.266 8.491 2.707-1.657 3.86-5.151 4.34-6.968.747-2.859.367-8.49-2.146-8.476M432.973 307.28a4.676 4.676 0 0 0-.74-4.676 6.216 6.216 0 0 0-4.286-2.191 2.606 2.606 0 0 0-2.14.554 2.007 2.007 0 0 0-.374 2.004c.254.671.68 1.263 1.234 1.717 1.82 1.637 3.88 2.879 6.306 2.585"/><path fill="#263238" d="M434.526 316.412a3.847 3.847 0 0 0 0-.588v-1.61a16.555 16.555 0 0 0-.753-5.244 10.107 10.107 0 0 0-2.907-4.395 6.621 6.621 0 0 0-1.333-.896c-.167-.086-.306-.14-.4-.18l-.14-.04c.636.345 1.235.755 1.787 1.222a10.374 10.374 0 0 1 2.813 4.362c.522 1.677.792 3.422.8 5.177.034.668.06 1.223.087 1.604a3.05 3.05 0 0 0 .046.588Z"/><path fill="#263238" d="M438.6 292.023a1.41 1.41 0 0 0-.067.247l-.166.715c-.14.621-.334 1.523-.56 2.638a242.263 242.263 0 0 0-1.614 8.751 335.568 335.568 0 0 0-1.333 8.804c-.147 1.129-.253 2.045-.327 2.672 0 .301-.053.542-.073.729a.757.757 0 0 0 0 .26c.023-.083.041-.168.053-.254 0-.187.067-.427.107-.721.1-.668.233-1.563.393-2.672.327-2.251.8-5.344 1.367-8.791s1.133-6.52 1.553-8.758l.5-2.672c.054-.293.094-.534.127-.721.033-.187.053-.227.04-.227Z"/><path fill="#54B862" d="M436.753 309.712a11.01 11.01 0 0 1 7.247-6.928c.853-.24 1.92-.307 2.467.388.546.695.226 1.723-.234 2.485a9.322 9.322 0 0 1-9.46 4.295"/><path fill="#263238" d="M443.18 305.376a2.788 2.788 0 0 0-.54.134 4.7 4.7 0 0 0-.613.207 7.744 7.744 0 0 0-.794.327 8.29 8.29 0 0 0-.926.481 9.91 9.91 0 0 0-1.014.668 12.349 12.349 0 0 0-2 1.857 11.839 11.839 0 0 0-1.52 2.291c-.178.361-.336.731-.473 1.109a8.076 8.076 0 0 0-.32.996c-.093.307-.127.594-.18.841a4.728 4.728 0 0 0-.093.668c-.017.185-.017.37 0 .555.046 0 .1-.782.446-2.004a9.63 9.63 0 0 1 .34-.976c.139-.369.299-.731.48-1.082a11.616 11.616 0 0 1 3.494-4.081c.316-.241.645-.464.986-.668a8.83 8.83 0 0 1 .9-.494c1.074-.582 1.84-.782 1.827-.829Z"/></svg>