<svg width="24" height="24" viewBox="0 0 24 24" fill="none" xmlns="http://www.w3.org/2000/svg">
<path d="M11.998 21.995C17.515 21.995 21.995 17.515 21.995 11.998C21.995 6.48 17.515 2 11.998 2C6.48 2 2 6.48 2 11.998C2 17.515 6.48 21.995 11.998 21.995ZM16.841 13.784C16.949 13.925 16.998 14.084 16.998 14.24C16.998 14.629 16.692 14.995 16.249 14.995H7.748C7.303 14.995 6.998 14.628 6.998 14.24C6.998 14.083 7.048 13.924 7.157 13.783C8.36 12.229 10.409 9.584 11.415 8.285C11.557 8.101 11.775 7.995 12.007 7.995C12.237 7.995 12.456 8.102 12.598 8.286L16.841 13.784Z" />
</svg>
